<svg width="432" height="454" viewBox="0 0 432 454" fill="none" xmlns="http://www.w3.org/2000/svg">
<path d="M215.47 404.16V402.93C215.576 397.189 213.863 391.562 210.576 386.853C207.289 382.145 202.596 378.598 197.17 376.72C192.616 375.218 187.762 374.863 183.038 375.687C178.314 376.51 173.867 378.486 170.09 381.44C165.67 384.96 162.09 389.9 156.67 391.56C149.67 393.73 142.5 389.61 136.39 385.66C130.28 381.71 123.1 377.6 116.11 379.8C111.73 381.18 108.38 384.87 106.21 388.94C100.46 399.72 102.11 413.45 108.56 423.67C115.01 433.89 125.67 440.89 137 445C152.91 450.7 171.15 451 186.58 443.74C202.01 436.48 214.06 421.17 215.47 404.16Z" fill="#FFE5C4"/>
<path d="M187.71 35.2603L187.65 36.2603C187.336 40.5288 188.195 44.802 190.133 48.6178C192.072 52.4336 195.017 55.6469 198.65 57.9103C199.61 58.4908 200.613 58.9989 201.65 59.4303C205.41 60.9617 209.491 61.5412 213.529 61.1173C217.568 60.6934 221.439 59.2792 224.8 57.0003C228.74 54.2703 232.07 50.3003 236.71 49.2003C242.71 47.7503 248.58 51.6403 253.52 55.3203C258.46 59.0003 264.31 62.8703 270.34 61.4003C274.11 60.4803 277.15 57.5503 279.21 54.2303C284.67 45.4403 284.05 33.7503 279.21 24.7403C274.37 15.7303 265.72 9.24029 256.34 5.17029C243.21 -0.539709 227.81 -1.82971 214.34 3.46029C200.87 8.75029 189.85 21.0003 187.71 35.2603Z" fill="#FFE5C4"/>
<path d="M48.8417 403.01C50.5969 391.903 43.016 381.477 31.9093 379.722C20.8026 377.967 10.376 385.548 8.62086 396.654C6.8657 407.761 14.4466 418.187 25.5533 419.943C36.66 421.698 47.0866 414.117 48.8417 403.01Z" fill="#FFE5C4"/>
<path d="M427.333 406.543C429.783 397.886 424.751 388.883 416.094 386.433C407.437 383.983 398.434 389.015 395.984 397.672C393.535 406.329 398.567 415.332 407.223 417.782C415.88 420.232 424.884 415.2 427.333 406.543Z" fill="#FFE5C4"/>
<path d="M147 64.2003C157.311 64.2003 165.67 55.8415 165.67 45.5303C165.67 35.2192 157.311 26.8604 147 26.8604C136.688 26.8604 128.33 35.2192 128.33 45.5303C128.33 55.8415 136.688 64.2003 147 64.2003Z" fill="#FFE5C4"/>
<path d="M427.94 453.61C427.94 453.75 332.17 453.87 214.06 453.87C95.9501 453.87 0.160156 453.75 0.160156 453.61C0.160156 453.47 95.9101 453.35 214.06 453.35C332.21 453.35 427.94 453.47 427.94 453.61Z" fill="#263238"/>
<path d="M407.52 75.9902H20.6401C13.5542 75.9902 7.81006 81.7344 7.81006 88.8202V350.63C7.81006 357.716 13.5542 363.46 20.6401 363.46H407.52C414.606 363.46 420.35 357.716 420.35 350.63V88.8202C420.35 81.7344 414.606 75.9902 407.52 75.9902Z" fill="#FFE5C4"/>
<path d="M420.35 88.8203L420.29 87.9203C420.273 87.551 420.23 87.1833 420.16 86.8203C420.085 86.309 419.972 85.8042 419.82 85.3103C419.341 83.6389 418.525 82.083 417.423 80.7383C416.32 79.3935 414.955 78.2882 413.41 77.4903C412.333 76.9393 411.186 76.5389 410 76.3003C408.678 76.0828 407.338 76.0024 406 76.0603H396.71H373.54L225.89 76.1503H123.89H22.2299C20.9731 76.1006 19.7144 76.1675 18.4699 76.3503C17.232 76.5602 16.0343 76.9617 14.9199 77.5403C12.6684 78.6959 10.8152 80.5003 9.59993 82.7203C9.01012 83.8383 8.5793 85.0332 8.31993 86.2703C8.11375 87.5325 8.03336 88.8122 8.07993 90.0903V113.62C8.07993 124.174 8.07993 134.84 8.07993 145.62V211.62C8.07993 256.47 8.07993 302.9 8.07993 350.46C8.07137 353.387 9.08776 356.225 10.9527 358.481C12.8177 360.737 15.4136 362.268 18.2899 362.81C19.736 363.025 21.1996 363.099 22.6599 363.03H139.34H268.68H385.68H406.03C407.132 363.066 408.236 363.016 409.33 362.88C412.001 362.51 414.482 361.289 416.404 359.397C418.326 357.506 419.587 355.045 420 352.38C420.124 351.315 420.167 350.242 420.13 349.17C420.13 348.09 420.13 347.02 420.13 345.94V339.53C420.13 322.524 420.13 306.214 420.13 290.6C420.13 228.27 420.2 177.82 420.22 142.95C420.22 125.53 420.22 111.95 420.27 102.81C420.27 98.2303 420.27 94.7303 420.27 92.3703C420.27 90.0103 420.27 88.8203 420.27 88.8203C420.27 88.8203 420.27 90.0203 420.27 92.3703C420.27 94.7203 420.27 98.2303 420.27 102.81C420.27 111.99 420.27 125.53 420.27 142.95C420.27 177.82 420.33 228.27 420.37 290.6C420.37 306.187 420.37 322.497 420.37 339.53C420.37 341.66 420.37 343.79 420.37 345.94V349.17C420.403 350.262 420.356 351.355 420.23 352.44C419.915 354.659 419.037 356.76 417.678 358.543C416.319 360.325 414.526 361.729 412.47 362.62C411.429 363.059 410.337 363.365 409.22 363.53C408.106 363.668 406.982 363.722 405.86 363.69H385.72H268.72H139.38H22.6799C21.186 363.758 19.6891 363.681 18.2099 363.46C15.2002 362.893 12.4838 361.291 10.5314 358.931C8.57899 356.571 7.51363 353.603 7.51993 350.54C7.51993 302.98 7.51993 256.54 7.51993 211.7C7.51993 189.28 7.51993 167.28 7.51993 145.7V90.1903C7.47696 88.8783 7.56405 87.5652 7.77993 86.2703C8.04992 84.9814 8.49753 83.7361 9.10993 82.5703C10.3862 80.2593 12.3171 78.3771 14.6599 77.1603C15.8225 76.5621 17.0706 76.1472 18.3599 75.9303C19.634 75.7414 20.9229 75.6711 22.2099 75.7203H67.0999H123.9H225.9L373.55 75.8103H396.72H406C407.339 75.765 408.678 75.8521 410 76.0703C411.199 76.3109 412.357 76.7218 413.44 77.2903C414.995 78.0991 416.366 79.2185 417.471 80.5791C418.575 81.9397 419.388 83.5126 419.86 85.2003C420.006 85.6944 420.113 86.1993 420.18 86.7103C420.247 87.0768 420.287 87.4478 420.3 87.8203C420.35 88.5103 420.35 88.8203 420.35 88.8203Z" fill="#FFE5C4"/>
<path d="M399.62 208.69C401.796 208.69 403.922 209.336 405.731 210.544C407.54 211.753 408.95 213.471 409.783 215.481C410.615 217.491 410.833 219.703 410.409 221.836C409.984 223.97 408.937 225.93 407.398 227.469C405.86 229.007 403.9 230.055 401.766 230.479C399.632 230.904 397.421 230.686 395.411 229.853C393.401 229.021 391.683 227.611 390.474 225.802C389.265 223.993 388.62 221.866 388.62 219.69C388.62 216.773 389.779 213.975 391.842 211.912C393.905 209.849 396.703 208.69 399.62 208.69Z" fill="#FF9C77"/>
<path d="M29.6099 190.27V249C29.6112 249.538 29.5064 250.071 29.3015 250.568C29.0965 251.066 28.7955 251.518 28.4155 251.899C28.0356 252.28 27.5843 252.582 27.0874 252.788C26.5905 252.994 26.0579 253.1 25.5199 253.1C24.9815 253.1 24.4484 252.994 23.9509 252.788C23.4535 252.582 23.0015 252.28 22.6208 251.899C22.2401 251.519 21.9381 251.067 21.732 250.569C21.526 250.072 21.4199 249.539 21.4199 249V190.3C21.4199 189.213 21.8519 188.17 22.6208 187.401C23.3897 186.632 24.4325 186.2 25.5199 186.2C26.6012 186.2 27.6385 186.628 28.4049 187.391C29.1714 188.154 29.6046 189.189 29.6099 190.27Z" fill="#FF9C77"/>
<path d="M381.76 85.3008H37.2397V354.641H381.76V85.3008Z" fill="#EBEBEB"/>
<path d="M259.37 279.731L286.01 326.681L351.51 325.711L347.8 274.761L259.37 279.731Z" fill="#E0E0E0"/>
<path d="M172.79 121.18L163.17 195.39L183.04 200.13L221.89 196.27L214.76 115.2L172.79 121.18Z" fill="#E0E0E0"/>
<path d="M112.44 273.061H66.52V217.771L116.42 218.271L112.44 273.061Z" fill="#F5F5F5"/>
<path d="M301.48 274.76C301.48 273.19 309.57 218.27 309.57 218.27C309.57 218.27 341.23 209.6 341.35 210.84C341.47 212.08 347.65 273.3 347.65 273.3L301.48 274.76Z" fill="#F5F5F5"/>
<path d="M71.7998 134.1C71.8898 135.44 93.7298 179.36 93.7298 179.36L119.02 172.66V122.13L92.9398 121.53L71.7998 134.1Z" fill="#E0E0E0"/>
<path d="M226.24 225.74H191.27V242.24H226.24V225.74Z" fill="#E0E0E0"/>
<path d="M226.4 247.71L191.18 249.49L189.39 282.93L229.61 279.73L226.4 247.71Z" fill="#E0E0E0"/>
<path d="M367.48 185.7L362.59 117.82H381.67L381.76 184.35L367.48 185.7Z" fill="#E0E0E0"/>
<path d="M289.34 106.7L297.29 191.29L339 187.55L331.72 115.4L298.7 106.7H289.34Z" fill="#E0E0E0"/>
<path d="M97.7 121.83L37.48 120.92L37.54 116.92L94.44 117.78L101.01 85.3301L104.94 86.1201L97.7 121.83Z" fill="white"/>
<path d="M66.2298 187.17L37.0498 121.73L37.9598 121.32L66.7998 185.98L118.9 172.17L119.15 173.14L66.2298 187.17Z" fill="white"/>
<path d="M116.43 217.271H37.52V219.271H116.43V217.271Z" fill="white"/>
<path d="M67.0098 186.58H66.0098V273.07H67.0098V186.58Z" fill="white"/>
<path d="M112.71 272.62H37.52V273.62H112.71V272.62Z" fill="white"/>
<path d="M108.81 351.31L37.1997 335.51L38.0597 331.6L105.16 346.41L116.67 186.26L118.4 119.65L121.09 85.5703L125.07 85.8803L122.39 119.91L120.67 186.46L108.81 351.31Z" fill="white"/>
<path d="M120.23 124.26L95.8701 121.8L96.2801 117.82L117.81 120L121.37 112.4L153.46 120.18L297.76 103.73L348.03 116.79L381.61 115.82L381.73 119.81L347.58 120.81L297.47 107.79L153.21 124.23L123.61 117.06L120.23 124.26Z" fill="white"/>
<path d="M288 277.871L284.03 277.351L295.27 191.271L286.63 106.781V85.3008H290.63V106.681L299.3 191.321L288 277.871Z" fill="white"/>
<path d="M110.74 289.71L110.5 285.721L346.37 271.381L378.47 206.021L382.06 207.781L348.94 275.231L347.78 275.3L110.74 289.71Z" fill="white"/>
<path d="M228.84 282.14L213.76 115.29L212.94 85.7602L214.94 85.7002L215.76 115.18L230.83 281.96L228.84 282.14Z" fill="white"/>
<path d="M197.18 353.57L179.74 282.35V201.79L160.11 196.91L168.63 120.44L167.84 85.34L171.84 85.25L172.64 120.62L172.63 120.75L164.47 193.87L183.74 198.67V281.86L201.07 352.62L197.18 353.57Z" fill="white"/>
<path d="M181.74 217.771H116.42V218.771H181.74V217.771Z" fill="white"/>
<path d="M118.76 185.908L118.558 186.888L162.184 195.867L162.385 194.887L118.76 185.908Z" fill="white"/>
<path d="M181.63 251.381L166.11 247.951V218.271H167.11V247.15L181.85 250.4L181.63 251.381Z" fill="white"/>
<path d="M157.4 353.52L148.68 325.53H108.77V321.53H151.62L161.22 352.33L157.4 353.52Z" fill="white"/>
<path d="M285.72 327.19L258.94 279.97L259.81 279.48L286.3 326.18L381.54 324.76L381.56 325.76L285.72 327.19Z" fill="white"/>
<path d="M332.58 326.681H331.58V353.641H332.58V326.681Z" fill="white"/>
<path d="M351.01 325.75L347.3 274.8L328.18 85.35L329.18 85.25L348.3 274.71L352.01 325.67L351.01 325.75Z" fill="white"/>
<path d="M381.724 183.832L181.703 199.715L181.782 200.712L381.803 184.829L381.724 183.832Z" fill="white"/>
<path d="M363.577 119.467L361.585 119.646L367.525 185.809L369.517 185.631L363.577 119.467Z" fill="white"/>
<path d="M365.852 156.635L336.546 163.888L336.786 164.858L366.092 157.606L365.852 156.635Z" fill="white"/>
<path d="M352.97 159.971L347.78 130.551L333.15 129.001L333.25 128.011L348.63 129.641L353.95 159.791L352.97 159.971Z" fill="white"/>
<path d="M253.925 111.785L251.932 111.956L258.878 192.979L260.871 192.808L253.925 111.785Z" fill="white"/>
<path d="M292.778 156.088L257.336 163.887L257.551 164.863L292.993 157.064L292.778 156.088Z" fill="white"/>
<path d="M285.042 326.563L281.401 354.789L283.385 355.045L287.026 326.819L285.042 326.563Z" fill="white"/>
<path d="M120.4 219.971L116.42 282.051L178.47 279.031V254.671L162.22 251.081V222.641L120.4 219.971Z" fill="#E0E0E0"/>
<path d="M103.31 235.09C103.311 232.923 102.813 230.784 101.853 228.841C100.894 226.897 99.4991 225.201 97.7778 223.884C96.0565 222.567 94.0547 221.665 91.928 221.247C89.8013 220.829 87.6069 220.907 85.5153 221.475C83.4236 222.043 81.4911 223.085 79.8677 224.521C78.2443 225.957 76.9739 227.748 76.155 229.755C75.3361 231.762 74.9909 233.93 75.1461 236.092C75.3013 238.254 75.9527 240.351 77.0499 242.22V242.27C77.5899 243.18 78.2599 243.83 78.9499 244.79L87.1299 255.63C87.3676 255.945 87.6751 256.2 88.0282 256.376C88.3813 256.552 88.7704 256.643 89.1649 256.643C89.5593 256.643 89.9484 256.552 90.3015 256.376C90.6547 256.2 90.9622 255.945 91.1999 255.63L99.1999 244.97C99.9318 244.104 100.616 243.2 101.25 242.26C102.572 240.1 103.284 237.622 103.31 235.09ZM89.2099 241.23C87.9808 241.232 86.7788 240.869 85.756 240.188C84.7333 239.506 83.9358 238.536 83.4645 237.401C82.9932 236.266 82.8694 235.016 83.1087 233.811C83.348 232.605 83.9397 231.498 84.8087 230.629C85.6778 229.76 86.7853 229.168 87.9908 228.929C89.1964 228.69 90.4458 228.813 91.581 229.285C92.7161 229.756 93.6859 230.553 94.3675 231.576C95.0491 232.599 95.4118 233.801 95.4099 235.03C95.4072 236.673 94.7532 238.249 93.591 239.411C92.4289 240.573 90.8534 241.227 89.2099 241.23Z" fill="#7E1CC4"/>
<path d="M236 185.48C236.005 183.311 235.51 181.17 234.552 179.223C233.595 177.276 232.201 175.577 230.48 174.257C228.758 172.937 226.756 172.032 224.627 171.612C222.499 171.192 220.302 171.27 218.209 171.837C216.115 172.405 214.181 173.449 212.556 174.886C210.931 176.324 209.66 178.117 208.842 180.126C208.023 182.135 207.68 184.306 207.837 186.469C207.994 188.633 208.649 190.731 209.75 192.6V192.66C210.29 193.57 210.97 194.22 211.66 195.18L219.86 206C220.097 206.315 220.405 206.57 220.758 206.746C221.111 206.922 221.5 207.014 221.895 207.014C222.289 207.014 222.678 206.922 223.031 206.746C223.385 206.57 223.692 206.315 223.93 206L232 195.35C232.717 194.485 233.385 193.581 234 192.64C235.299 190.477 235.991 188.003 236 185.48ZM221.9 191.62C220.672 191.62 219.471 191.256 218.45 190.574C217.428 189.891 216.632 188.921 216.162 187.787C215.692 186.652 215.569 185.403 215.809 184.199C216.049 182.994 216.64 181.888 217.509 181.019C218.377 180.151 219.484 179.559 220.688 179.319C221.893 179.08 223.141 179.203 224.276 179.673C225.411 180.143 226.381 180.939 227.063 181.96C227.746 182.981 228.11 184.182 228.11 185.41C228.11 186.227 227.949 187.035 227.636 187.789C227.323 188.543 226.865 189.228 226.287 189.805C225.71 190.382 225.024 190.839 224.269 191.15C223.515 191.462 222.706 191.621 221.89 191.62H221.9Z" fill="#7E1CC4"/>
<path d="M177.46 307.62C177.465 306.132 177.126 304.662 176.47 303.327C175.814 301.991 174.859 300.824 173.678 299.918C172.497 299.012 171.123 298.39 169.663 298.102C168.203 297.814 166.696 297.866 165.26 298.256C163.823 298.645 162.496 299.361 161.382 300.347C160.267 301.334 159.395 302.564 158.834 303.942C158.273 305.321 158.037 306.81 158.146 308.294C158.254 309.779 158.704 311.218 159.46 312.5C159.83 313.12 160.3 313.57 160.77 314.22L166.38 321.66C166.543 321.874 166.754 322.047 166.995 322.166C167.236 322.285 167.501 322.347 167.77 322.347C168.039 322.347 168.304 322.285 168.545 322.166C168.786 322.047 168.997 321.874 169.16 321.66L174.68 314.35C175.183 313.755 175.653 313.134 176.09 312.49C176.973 311.018 177.446 309.337 177.46 307.62ZM167.79 311.83C166.947 311.832 166.122 311.584 165.421 311.117C164.719 310.65 164.171 309.985 163.847 309.207C163.523 308.429 163.437 307.572 163.601 306.745C163.764 305.918 164.169 305.158 164.764 304.561C165.36 303.965 166.119 303.558 166.945 303.393C167.772 303.227 168.629 303.311 169.408 303.633C170.187 303.956 170.853 304.502 171.321 305.202C171.79 305.903 172.04 306.727 172.04 307.57C172.041 308.129 171.932 308.683 171.719 309.2C171.506 309.716 171.194 310.186 170.799 310.582C170.404 310.977 169.935 311.291 169.419 311.506C168.903 311.72 168.349 311.83 167.79 311.83Z" fill="#7E1CC4"/>
<path d="M352.87 132.1C352.86 129.692 351.951 127.373 350.321 125.599C348.691 123.826 346.458 122.724 344.059 122.51C341.66 122.296 339.267 122.985 337.349 124.443C335.431 125.9 334.126 128.021 333.69 130.39C333.277 132.657 333.696 134.997 334.87 136.98C335.24 137.6 335.71 138.05 336.18 138.71L341.79 146.14C341.953 146.354 342.164 146.527 342.405 146.646C342.646 146.765 342.911 146.827 343.18 146.827C343.449 146.827 343.714 146.765 343.955 146.646C344.196 146.527 344.407 146.354 344.57 146.14L350.09 138.83C350.593 138.236 351.063 137.615 351.5 136.97C352.383 135.498 352.856 133.817 352.87 132.1ZM343.2 136.31C342.357 136.312 341.532 136.064 340.83 135.597C340.128 135.129 339.58 134.464 339.256 133.685C338.933 132.906 338.847 132.049 339.011 131.222C339.175 130.394 339.581 129.634 340.178 129.038C340.774 128.442 341.534 128.036 342.361 127.872C343.189 127.708 344.046 127.793 344.825 128.117C345.604 128.44 346.269 128.988 346.736 129.69C347.204 130.392 347.452 131.217 347.45 132.06C347.45 133.188 347.002 134.269 346.205 135.066C345.408 135.863 344.327 136.31 343.2 136.31Z" fill="#7E1CC4"/>
<path d="M147 136.7C147.003 134.065 146.398 131.465 145.233 129.101C144.067 126.738 142.373 124.675 140.28 123.073C138.188 121.47 135.755 120.372 133.169 119.863C130.583 119.355 127.915 119.449 125.372 120.139C122.829 120.829 120.479 122.096 118.505 123.842C116.531 125.588 114.986 127.765 113.99 130.205C112.995 132.645 112.575 135.282 112.764 137.91C112.953 140.539 113.745 143.088 115.08 145.36L115.13 145.42C115.78 146.53 116.61 147.32 117.44 148.48L127.39 161.67C127.679 162.052 128.052 162.361 128.481 162.574C128.909 162.786 129.381 162.897 129.86 162.897C130.338 162.897 130.81 162.786 131.239 162.574C131.667 162.361 132.041 162.052 132.33 161.67L142.12 148.67C143.011 147.618 143.843 146.517 144.61 145.37C146.165 142.745 146.99 139.752 147 136.7ZM129.85 144.16C128.356 144.16 126.896 143.717 125.654 142.887C124.412 142.057 123.445 140.877 122.873 139.497C122.302 138.117 122.153 136.599 122.446 135.134C122.738 133.669 123.458 132.324 124.515 131.268C125.571 130.213 126.918 129.494 128.383 129.204C129.848 128.914 131.367 129.065 132.746 129.638C134.125 130.211 135.304 131.18 136.132 132.423C136.961 133.666 137.402 135.127 137.4 136.62C137.397 138.621 136.6 140.539 135.185 141.953C133.769 143.366 131.85 144.16 129.85 144.16Z" fill="#7E1CC4"/>
<path d="M54.9999 410.57C54.9999 410.57 32.4799 384.72 23.9999 358.86C15.5199 333 19.5599 336 19.5599 336C19.5599 336 30.9999 361.09 39.6899 373.22C48.3799 385.35 63.8499 403.16 63.8499 403.16L54.9999 410.57Z" fill="#FF9C77"/>
<path d="M59.4297 339.999C59.2804 339.731 59.0419 339.524 58.7558 339.414C58.4696 339.304 58.154 339.298 57.8637 339.397C57.5735 339.496 57.327 339.693 57.1673 339.955C57.0077 340.216 56.9448 340.526 56.9897 340.829C58.3597 349.919 61.3197 371.229 61.1997 385.049C61.0497 403.049 61.1997 409.949 61.1997 409.949H70.5497C70.5497 409.949 68.8897 372.829 66.7797 361.509C65.3097 353.579 62.1597 344.769 59.4297 339.999Z" fill="#FF9C77"/>
<path d="M64.52 406.93C68.4426 398.055 71.0371 388.651 72.22 379.02C72.99 372.41 71.62 363.47 69.57 351.55C68.7825 347.191 68.3876 342.77 68.39 338.34C68.4037 337.849 68.5788 337.377 68.8882 336.996C69.1976 336.615 69.6241 336.347 70.1015 336.233C70.5789 336.119 71.0805 336.166 71.5286 336.366C71.9767 336.566 72.3463 336.908 72.58 337.34C73.71 339.34 76.97 346.23 77.8 350.55C80.07 362.32 82.63 368.2 80.67 379.37C78.71 390.54 71.47 407.74 71.47 407.74L64.52 406.93Z" fill="#FF9C77"/>
<path d="M73 407.69C73 407.69 97.66 354.69 99.37 346.82C101.08 338.95 106.89 320.82 107.58 321.82C108.27 322.82 109.29 332.42 104.84 343.36C100.39 354.3 81.42 409.26 81.42 409.26H73" fill="#FF9C77"/>
<path d="M61.8199 405.319C61.5777 405.178 61.347 405.017 61.1299 404.839C60.6899 404.509 60.0299 404.039 59.2199 403.379C57.5799 402.089 55.2799 400.129 52.5899 397.529C45.6442 390.68 39.6293 382.947 34.6999 374.529C29.7837 366.134 25.6913 357.283 22.4799 348.099C21.2399 344.579 20.3399 341.699 19.7499 339.699C19.4499 338.699 19.2399 337.919 19.0899 337.389C19.0084 337.121 18.9449 336.847 18.8999 336.569C19.021 336.824 19.1214 337.088 19.1999 337.359C19.3799 337.919 19.6299 338.679 19.9499 339.639C20.5899 341.639 21.5499 344.479 22.8299 347.979C26.1332 357.104 30.2567 365.91 35.1499 374.289C40.0679 382.664 46.014 390.391 52.8499 397.289C55.4899 399.909 57.7499 401.909 59.3499 403.289C60.1399 403.979 60.7799 404.469 61.1999 404.829C61.4218 404.972 61.6294 405.137 61.8199 405.319Z" fill="#FFE5C4"/>
<path d="M64.5197 379.89C64.4067 379.376 64.3331 378.855 64.2997 378.33C64.1797 377.23 64.0297 375.8 63.8497 374.08C63.4597 370.5 62.8497 365.55 61.9697 360.08C61.0897 354.61 60.1297 349.76 59.3697 346.23C59.0097 344.54 58.7097 343.13 58.4697 342.05C58.3299 341.543 58.2395 341.024 58.1997 340.5C58.3938 340.988 58.5509 341.489 58.6697 342C58.9497 343 59.3197 344.39 59.7397 346.15C60.5897 349.66 61.6197 354.55 62.4897 359.99C63.3597 365.43 63.9197 370.41 64.2197 373.99C64.3697 375.79 64.4597 377.25 64.5097 378.26C64.5645 378.802 64.5678 379.348 64.5197 379.89Z" fill="#FFE5C4"/>
<path d="M70.3001 336.869C70.4195 337.085 70.5167 337.313 70.5901 337.549L71.3301 339.549C71.6601 340.399 72.0301 341.449 72.3901 342.699C72.7501 343.949 73.2301 345.349 73.5901 346.949C73.7801 347.739 73.9901 348.569 74.2001 349.439C74.4101 350.309 74.5501 351.229 74.7401 352.169C75.1401 354.049 75.3901 356.089 75.7401 358.229C76.2708 362.892 76.468 367.588 76.3301 372.279C76.1354 376.978 75.604 381.656 74.7401 386.279C74.2901 388.399 73.8901 390.419 73.3601 392.279C73.1001 393.199 72.8901 394.109 72.6201 394.959C72.3501 395.809 72.0801 396.619 71.8301 397.399C71.3601 398.969 70.8301 400.329 70.3301 401.549C69.8301 402.769 69.4401 403.789 69.0501 404.619L68.1701 406.529C68.0829 406.759 67.9687 406.977 67.8301 407.179C67.8924 406.943 67.9726 406.713 68.0701 406.489L68.8601 404.539C69.2201 403.699 69.6401 402.669 70.0601 401.439C70.4801 400.209 71.0601 398.849 71.4801 397.289L72.2301 394.839C72.4901 393.989 72.6901 393.089 72.9301 392.169C73.4501 390.319 73.8201 388.309 74.2601 386.169C75.0889 381.576 75.6068 376.932 75.8101 372.269C75.9417 367.595 75.7579 362.918 75.2601 358.269C74.9801 356.139 74.7401 354.099 74.3601 352.269C74.1801 351.329 74.0501 350.409 73.8501 349.549L73.2801 347.059C72.9401 345.459 72.5001 344.059 72.1601 342.809C71.8201 341.559 71.4801 340.499 71.1601 339.629C70.8401 338.759 70.6701 338.139 70.5101 337.629C70.411 337.385 70.3405 337.13 70.3001 336.869Z" fill="#FFE5C4"/>
<path d="M107.25 322.92C107.254 323 107.254 323.08 107.25 323.16C107.25 323.35 107.18 323.57 107.14 323.85C107.03 324.45 106.89 325.35 106.65 326.49C106.17 328.77 105.38 332.05 104.15 336.03C102.92 340.01 101.23 344.68 99.23 349.81C97.23 354.94 94.93 360.53 92.74 366.48C90.55 372.43 88.81 378.23 87.2 383.48C85.59 388.73 84.09 393.48 82.62 397.38C81.4928 400.47 80.1942 403.495 78.73 406.44C78.23 407.49 77.73 408.27 77.48 408.81L77.13 409.42C77.0932 409.491 77.0497 409.558 77 409.62C77 409.62 77 409.54 77.09 409.39L77.38 408.76C77.65 408.21 78.07 407.41 78.55 406.35C79.55 404.25 80.88 401.16 82.28 397.25C83.68 393.34 85.16 388.61 86.73 383.34C88.3 378.07 90.02 372.25 92.25 366.29C94.48 360.33 96.77 354.74 98.78 349.62C100.79 344.5 102.52 339.86 103.78 335.91C105.04 331.96 105.9 328.69 106.44 326.43C106.71 325.3 106.88 324.43 107.02 323.82C107.09 323.55 107.14 323.32 107.18 323.14C107.192 323.063 107.215 322.989 107.25 322.92Z" fill="#FFE5C4"/>
<path d="M31.1899 311.21C30.8483 310.887 30.4095 310.686 29.9419 310.639C29.4743 310.591 29.0042 310.7 28.6048 310.948C28.2054 311.195 27.899 311.568 27.7336 312.008C27.5681 312.448 27.5527 312.93 27.6899 313.38C28.5323 316.116 29.5682 318.79 30.7899 321.38C34.1799 328.58 44.1399 354.44 48.7899 368.64C53.4399 382.84 59.9999 409.3 59.9999 409.3L69.9999 407.69C69.9999 407.69 60.8899 364.16 51.9999 348.48C44.8299 335.88 37.6799 317.66 31.1899 311.21Z" fill="#FF9C77"/>
<path d="M51.5298 377.489C51.7356 377.873 51.9063 378.275 52.0398 378.689C52.3398 379.469 52.7398 380.609 53.1898 382.029C54.1098 384.869 55.1898 388.839 56.3598 393.239C57.5298 397.639 58.4298 401.659 59.0798 404.569L59.8298 408.019C59.9286 408.439 59.9855 408.868 59.9998 409.299C59.8169 408.906 59.6793 408.494 59.5898 408.069C59.3498 407.159 59.0398 406.019 58.6798 404.659C57.9198 401.659 56.9198 397.729 55.8098 393.369C54.6998 389.009 53.6198 384.999 52.8098 382.139L51.8098 378.749C51.6686 378.341 51.5747 377.919 51.5298 377.489Z" fill="#FFE5C4"/>
<path d="M64.9997 408.5C64.9673 408.413 64.9471 408.322 64.9397 408.23C64.9397 408.02 64.8697 407.76 64.8297 407.45C64.7197 406.76 64.6297 405.73 64.4197 404.45C64.0597 401.83 63.4197 398.07 62.3297 393.45C61.0594 388.068 59.5038 382.757 57.6697 377.54C55.6697 371.64 53.0697 365.27 50.1697 358.67C44.3097 345.49 38.4597 333.81 34.6097 325.16C32.6697 320.85 31.1597 317.33 30.1697 314.88C29.6697 313.66 29.3097 312.7 29.0497 312.05L28.7797 311.31C28.7423 311.227 28.7154 311.139 28.6997 311.05C28.6997 311.05 28.6997 311.12 28.8297 311.29L29.1497 312.01L30.3597 314.8C31.4497 317.23 32.9997 320.72 34.9997 325C38.9297 333.6 44.8297 345.25 50.6997 358.45C53.6097 365.06 56.1597 371.45 58.1797 377.37C59.999 382.614 61.5247 387.956 62.7497 393.37C63.5722 397.002 64.213 400.674 64.6697 404.37C64.8497 405.68 64.9097 406.71 64.9797 407.37C64.9797 407.7 64.9797 407.96 65.0497 408.16C65.0528 408.275 65.0359 408.39 64.9997 408.5Z" fill="#FFE5C4"/>
<path d="M70.0001 407.69C69.8502 407.138 69.74 406.577 69.6701 406.01C69.4701 404.85 69.2101 403.3 68.8901 401.44C68.2101 397.58 67.1601 392.27 65.6501 386.44C64.1401 380.61 62.4801 375.51 61.1901 371.81L59.6301 367.43C59.413 366.904 59.2358 366.362 59.1001 365.81C59.3843 366.305 59.6252 366.823 59.8201 367.36C60.2501 368.36 60.8201 369.84 61.5401 371.68C63.339 376.471 64.8812 381.354 66.1601 386.31C67.4457 391.254 68.4803 396.261 69.2601 401.31C69.5401 403.25 69.7601 404.82 69.8701 405.92C69.9674 406.504 70.0109 407.097 70.0001 407.69Z" fill="#FFE5C4"/>
<path d="M90.4201 406.26H51.5601V453.61H90.4201V406.26Z" fill="#AAAAAA"/>
<g opacity="0.3">
<path d="M90.4201 406.26H51.5601V453.61H90.4201V406.26Z" fill="#1E1E1E"/>
</g>
<path d="M78.0298 406.26H43.5498V453.61H78.0298V406.26Z" fill="#AAAAAA"/>
<path d="M227.79 306.51C227.79 306.51 227.79 341.67 227.35 343.65C226.91 345.63 225.88 356.17 228.45 361.06C231.02 365.95 237.13 375.86 242.45 377.24C247.77 378.62 250.78 377.24 250.78 377.24C250.78 377.24 254.05 354.34 252.98 347.77C251.91 341.2 249.48 326.86 249.48 326.86L233 308.16L227.79 306.51Z" fill="#FFBE9D"/>
<path d="M269.21 258.251L284.74 253.481L314.11 251.521L331.88 254.891L312.58 285.821L284.74 283.721L269.21 258.251Z" fill="#FFBE9D"/>
<path d="M330.69 194.42C330.854 201.856 329.443 209.243 326.547 216.094C323.651 222.945 319.338 229.106 313.89 234.17C311.383 226.923 308.88 219.67 306.38 212.41" fill="#263238"/>
<path d="M274.07 151.14C280.52 147.62 288.31 147.14 295.51 148.56C302.71 149.98 309.43 153.26 315.79 156.94C319.35 159 322.91 161.27 325.48 164.5C330.16 170.39 334.78 180.06 335.24 187.57C335.6 193.64 333.24 208.84 330.71 214.36C328.35 219.42 317.33 223.27 311.89 224.52L262 166.46C262.896 163.234 264.425 160.218 266.497 157.588C268.569 154.958 271.143 152.766 274.07 151.14Z" fill="#1E1E1E"/>
<path d="M265.46 159L277.46 156.86C270.92 172.44 269.15 208.06 265.4 224.54C260.99 218.14 250.75 198.65 251.3 190.89C251.85 183.13 251.24 157.65 265.46 159Z" fill="#1E1E1E"/>
<path d="M322.21 184.91C321.997 180.541 320.388 176.355 317.619 172.967C314.851 169.58 311.07 167.169 306.83 166.09L279.27 159.09C267.36 157.81 259.4 172.46 258.62 184.42C257.76 197.7 257.22 211.71 258.77 221.63C261.89 241.56 277.16 244.14 277.16 244.14C277.16 244.14 277.16 253.62 277.16 259.44L301.78 278.95L316.1 256.56L322.26 185.19C322.28 184.81 322.24 185.36 322.21 184.91Z" fill="#FFBE9D"/>
<path d="M264.61 199.431C264.602 200.098 264.854 200.742 265.314 201.226C265.773 201.709 266.403 201.995 267.07 202.021C267.395 202.046 267.722 202.007 268.032 201.905C268.342 201.803 268.628 201.64 268.874 201.426C269.119 201.211 269.32 200.95 269.464 200.657C269.607 200.365 269.691 200.046 269.71 199.721C269.718 199.053 269.466 198.409 269.006 197.926C268.547 197.442 267.917 197.157 267.25 197.131C266.925 197.103 266.597 197.142 266.287 197.243C265.977 197.345 265.69 197.508 265.444 197.722C265.198 197.937 264.997 198.199 264.854 198.492C264.711 198.785 264.628 199.105 264.61 199.431Z" fill="#263238"/>
<path d="M261.61 192.18C261.93 192.52 263.87 191.09 266.61 191.1C269.35 191.11 271.37 192.5 271.67 192.16C271.82 192.01 271.5 191.41 270.62 190.77C269.433 189.941 268.018 189.501 266.57 189.51C265.136 189.498 263.735 189.942 262.57 190.78C261.75 191.43 261.46 192 261.61 192.18Z" fill="#263238"/>
<path d="M288.59 199.43C288.584 200.086 288.831 200.719 289.28 201.198C289.729 201.677 290.345 201.964 291 202C291.325 202.027 291.653 201.989 291.963 201.887C292.273 201.786 292.56 201.623 292.806 201.408C293.052 201.194 293.253 200.932 293.396 200.639C293.54 200.345 293.622 200.026 293.64 199.7C293.651 199.034 293.401 198.39 292.943 197.906C292.485 197.422 291.856 197.136 291.19 197.11C290.866 197.088 290.541 197.131 290.234 197.237C289.928 197.342 289.645 197.508 289.403 197.724C289.161 197.94 288.964 198.202 288.824 198.495C288.685 198.788 288.605 199.106 288.59 199.43Z" fill="#263238"/>
<path d="M287.73 192.18C288.05 192.52 289.99 191.09 292.73 191.1C295.47 191.11 297.5 192.5 297.79 192.16C297.94 192.01 297.62 191.41 296.74 190.77C295.553 189.941 294.138 189.501 292.69 189.51C291.256 189.499 289.855 189.944 288.69 190.78C287.87 191.43 287.58 192 287.73 192.18Z" fill="#263238"/>
<path d="M279.14 213.79C279.14 213.63 277.44 213.33 274.67 212.97C273.97 212.9 273.3 212.75 273.19 212.28C273.129 211.552 273.293 210.822 273.66 210.19L275.75 204.85C278.65 197.24 280.75 190.99 280.45 190.85C280.15 190.71 277.54 196.85 274.64 204.42L272.64 209.8C272.203 210.647 272.072 211.618 272.27 212.55C272.375 212.793 272.535 213.01 272.735 213.183C272.936 213.356 273.174 213.481 273.43 213.55C273.817 213.658 274.218 213.716 274.62 213.72C277.4 213.93 279.13 213.94 279.14 213.79Z" fill="#263238"/>
<path d="M303.6 237C303.6 237 297.11 250.69 277.17 248.78V244.1C286.467 244.226 295.617 241.768 303.6 237Z" fill="#EB996E"/>
<path d="M288.6 182.24C288.87 182.99 291.6 182.64 294.84 183.04C298.08 183.44 300.67 184.32 301.1 183.65C301.3 183.33 300.84 182.65 299.79 181.9C298.394 180.997 296.804 180.439 295.15 180.27C293.502 180.062 291.828 180.254 290.27 180.83C289.08 181.3 288.48 181.89 288.6 182.24Z" fill="#263238"/>
<path d="M262.51 183.771C262.99 184.401 264.89 183.771 267.17 183.771C269.45 183.771 271.38 184.201 271.82 183.541C272.02 183.231 271.71 182.601 270.87 182.011C269.741 181.296 268.424 180.934 267.088 180.971C265.752 181.009 264.457 181.444 263.37 182.221C262.56 182.821 262.3 183.461 262.51 183.771Z" fill="#263238"/>
<path d="M264 166.17C265.22 163.17 268.51 161.37 271.74 161.17C274.997 161.165 278.187 162.095 280.93 163.85C292.8 170.71 298.93 187.28 310.63 194.38C313.52 196.13 317.27 194.53 319.72 196.84C322.17 199.15 323.77 202.84 322.41 205.93C324.09 203.844 325.461 201.527 326.48 199.05C326.983 197.807 327.214 196.47 327.157 195.129C327.1 193.789 326.757 192.477 326.15 191.28C325.15 189.52 323.34 188.18 322.85 186.21C322.42 184.48 323.1 182.67 323.03 180.88C322.828 179.066 322.201 177.326 321.2 175.8C316.61 167.67 310.29 160.33 302.15 155.8C296.842 152.725 290.794 151.159 284.66 151.27C278.502 151.416 272.599 153.76 268.02 157.88C265.39 160.32 262.64 162.88 264.02 166.17" fill="#1E1E1E"/>
<path d="M319.48 199.35C319.69 198.78 330.08 195.03 330.22 206.08C330.35 216.81 319.52 214.7 319.5 214.39C319.48 214.08 319.48 199.35 319.48 199.35Z" fill="#FFBE9D"/>
<path d="M322.77 210.29C322.82 210.29 322.96 210.42 323.28 210.56C323.729 210.739 324.231 210.739 324.68 210.56C325.81 210.13 326.75 208.32 326.78 206.39C326.802 205.466 326.614 204.55 326.23 203.71C326.126 203.376 325.942 203.072 325.695 202.825C325.448 202.577 325.144 202.394 324.81 202.29C324.594 202.244 324.369 202.271 324.17 202.367C323.971 202.463 323.809 202.622 323.71 202.82C323.57 203.12 323.64 203.33 323.59 203.35C323.54 203.37 323.35 203.17 323.44 202.73C323.492 202.462 323.638 202.221 323.85 202.05C324.136 201.834 324.493 201.734 324.85 201.77C325.296 201.848 325.715 202.039 326.066 202.327C326.416 202.614 326.686 202.987 326.85 203.41C327.321 204.338 327.554 205.369 327.53 206.41C327.53 208.57 326.39 210.61 324.84 211.07C324.553 211.156 324.25 211.176 323.954 211.129C323.658 211.083 323.377 210.97 323.13 210.8C322.8 210.55 322.74 210.31 322.77 210.29Z" fill="#EB996E"/>
<path d="M323.75 193.83C323.522 193.732 323.304 193.611 323.1 193.47C322.69 193.21 322.05 192.86 321.3 192.33C319.188 190.777 317.244 189.007 315.5 187.05C312.97 184.115 310.606 181.04 308.42 177.84C305.775 173.935 302.811 170.256 299.56 166.84C297.821 165.135 295.903 163.623 293.84 162.33C291.902 161.145 289.827 160.201 287.66 159.52C283.992 158.341 280.134 157.869 276.29 158.13C273.695 158.285 271.132 158.786 268.67 159.62C267.79 159.89 267.14 160.18 266.67 160.36C266.441 160.462 266.204 160.542 265.96 160.6C266.175 160.473 266.399 160.363 266.63 160.27C267.278 159.95 267.946 159.673 268.63 159.44C271.092 158.527 273.671 157.968 276.29 157.78C280.182 157.475 284.096 157.919 287.82 159.09C290.023 159.771 292.135 160.718 294.11 161.91C296.205 163.224 298.153 164.76 299.92 166.49C303.195 169.934 306.166 173.654 308.8 177.61C310.969 180.811 313.305 183.895 315.8 186.85C317.504 188.814 319.396 190.606 321.45 192.2C322.19 192.76 322.8 193.13 323.19 193.42C323.387 193.541 323.575 193.678 323.75 193.83Z" fill="#455A64"/>
<path d="M324 212.191C324.527 212.099 325.07 212.21 325.518 212.503C325.965 212.796 326.285 213.248 326.412 213.768C326.539 214.288 326.464 214.836 326.202 215.303C325.94 215.769 325.51 216.119 325 216.281C324.484 216.461 323.918 216.433 323.422 216.204C322.926 215.976 322.537 215.563 322.339 215.054C322.141 214.544 322.148 213.978 322.359 213.474C322.57 212.97 322.968 212.567 323.47 212.351" fill="white"/>
<path d="M323.49 212.35C323.016 212.715 322.666 213.218 322.49 213.79C322.412 214.085 322.41 214.394 322.484 214.689C322.557 214.985 322.704 215.257 322.91 215.48C323.151 215.761 323.47 215.965 323.826 216.066C324.182 216.166 324.56 216.16 324.912 216.046C325.265 215.933 325.576 215.719 325.807 215.429C326.038 215.14 326.178 214.789 326.21 214.42C326.247 214.121 326.209 213.817 326.099 213.536C325.989 213.255 325.81 213.005 325.58 212.81C325.112 212.444 324.544 212.227 323.95 212.19C323.95 212.19 324.12 212.08 324.46 212.07C324.766 212.075 325.067 212.142 325.346 212.267C325.625 212.393 325.875 212.574 326.081 212.8C326.287 213.026 326.445 213.291 326.544 213.58C326.644 213.869 326.683 214.176 326.66 214.48C326.627 214.941 326.457 215.382 326.171 215.745C325.885 216.108 325.496 216.377 325.056 216.517C324.615 216.657 324.143 216.661 323.7 216.53C323.257 216.399 322.863 216.138 322.57 215.78C322.327 215.499 322.161 215.16 322.087 214.795C322.014 214.431 322.035 214.054 322.15 213.7C322.293 213.236 322.58 212.83 322.97 212.54C323.3 212.35 323.48 212.32 323.49 212.35Z" fill="#263238"/>
<path d="M321.05 196.87C321.22 199.8 321.35 202.87 320 205.5C318.65 208.13 315.22 209.88 312.68 208.42C310.6 207.24 309.97 204.57 309.62 202.2C308.62 195.37 308.14 188.45 307.06 181.62L321.05 196.87Z" fill="#263238"/>
<path d="M266.68 161.07C266.68 161.13 267.63 160.89 269.35 160.83C271.779 160.791 274.192 161.233 276.45 162.13C278.01 162.735 279.501 163.503 280.9 164.42C282.5 165.5 284.036 166.672 285.5 167.93C288.876 170.789 291.898 174.042 294.5 177.62C295.87 179.53 297.08 181.5 298.38 183.33C299.62 185.106 301.067 186.727 302.69 188.16C305.468 190.529 308.511 192.566 311.76 194.23C314.51 195.69 316.76 196.7 318.39 197.41L320.22 198.19C320.43 198.292 320.652 198.369 320.88 198.42C320.693 198.28 320.488 198.166 320.27 198.08L318.49 197.19C316.93 196.43 314.67 195.35 311.96 193.86C308.781 192.151 305.797 190.103 303.06 187.75C301.481 186.33 300.075 184.729 298.87 182.98C297.58 181.18 296.37 179.21 295 177.27C292.372 173.649 289.305 170.367 285.87 167.5C284.386 166.239 282.827 165.07 281.2 164C279.762 163.077 278.226 162.315 276.62 161.73C274.306 160.849 271.833 160.464 269.36 160.6C268.687 160.636 268.018 160.726 267.36 160.87C267.126 160.909 266.898 160.976 266.68 161.07Z" fill="#455A64"/>
<path d="M321.34 190.24C321.647 190.492 321.983 190.707 322.34 190.88L325.06 192.48L325.98 193C326.338 193.213 326.737 193.346 327.15 193.39C327.406 193.415 327.662 193.355 327.88 193.22C327.993 193.136 328.087 193.03 328.156 192.908C328.225 192.785 328.267 192.65 328.28 192.51C328.254 192.015 328.076 191.54 327.77 191.15C326.77 189.6 325.77 187.9 324.62 186.1L324.19 186.5C326.294 188.05 328.872 188.817 331.48 188.67C331.821 188.668 332.159 188.611 332.48 188.5C332.663 188.448 332.832 188.356 332.975 188.232C333.119 188.108 333.233 187.953 333.31 187.78C333.372 187.597 333.388 187.403 333.357 187.212C333.326 187.022 333.248 186.843 333.13 186.69C332.947 186.449 332.743 186.225 332.52 186.02C331.105 184.649 329.875 183.099 328.86 181.41C327.97 179.817 327.194 178.163 326.54 176.46C326.586 176.957 326.701 177.445 326.88 177.91C327.294 179.197 327.833 180.439 328.49 181.62C329.476 183.381 330.701 184.996 332.13 186.42C332.53 186.8 332.93 187.23 332.77 187.57C332.61 187.91 332.04 188.08 331.47 188.08C329 188.199 326.562 187.473 324.56 186.02L323.28 185.08L324.14 186.42L327.36 191.42C327.601 191.705 327.756 192.051 327.81 192.42C327.805 192.492 327.784 192.561 327.749 192.624C327.714 192.687 327.666 192.742 327.609 192.785C327.551 192.828 327.484 192.857 327.414 192.872C327.343 192.887 327.271 192.886 327.2 192.87C326.511 192.738 325.854 192.469 325.27 192.08L322.46 190.64C322.106 190.459 321.729 190.325 321.34 190.24Z" fill="#455A64"/>
<path d="M289.6 218.86C289.398 218.044 288.917 217.323 288.239 216.824C287.561 216.326 286.73 216.08 285.89 216.13C285.278 216.211 284.695 216.44 284.191 216.797C283.687 217.154 283.279 217.629 283 218.18C282.737 218.738 282.588 219.343 282.56 219.959C282.533 220.576 282.628 221.191 282.84 221.77L282.9 222.03C283.471 222.651 284.219 223.08 285.042 223.259C285.865 223.438 286.724 223.358 287.5 223.03C288.261 222.664 288.879 222.057 289.259 221.302C289.639 220.548 289.759 219.69 289.6 218.86Z" fill="#EB996E"/>
<path d="M280.9 222.09C280.9 221.67 283.68 221.8 285.78 219.52C287.88 217.24 287.71 214.26 288.1 214.26C288.28 214.26 288.61 214.95 288.58 216.2C288.523 217.83 287.892 219.388 286.8 220.6C285.755 221.776 284.29 222.494 282.72 222.6C281.55 222.62 280.88 222.28 280.9 222.09Z" fill="#263238"/>
<path d="M249.5 371.42L250.8 378.99L249.58 383.11C249.58 383.11 237.01 399.11 232.98 410.89C228.95 422.67 228.64 453.7 228.64 453.7L371.84 453.61C371.84 453.61 366.84 407.52 348.84 393.01V389.7L353.29 383.11C353.29 383.11 354.79 378.01 348.29 378.77C345.71 379.07 249.5 371.42 249.5 371.42Z" fill="#AAAAAA"/>
<path d="M349.64 388.58H348.64L345.73 388.51C343.21 388.45 339.56 388.4 335.04 388.43C330.52 388.46 325.15 388.56 319.18 388.68C313.21 388.8 306.65 388.92 299.75 388.81C293.263 388.722 286.785 388.308 280.34 387.57C275.076 386.964 269.859 386.012 264.72 384.72C261.256 383.857 257.847 382.788 254.51 381.52C253.32 381.09 252.43 380.67 251.81 380.42L251.12 380.11C250.96 380.04 250.88 380 250.89 379.99L251.14 380.06L251.85 380.32C252.48 380.54 253.38 380.93 254.58 381.32C257.936 382.496 261.35 383.498 264.81 384.32C269.944 385.553 275.151 386.461 280.4 387.04C286.32 387.73 292.87 388.11 299.76 388.24C306.65 388.37 313.2 388.24 319.17 388.15C325.14 388.06 330.52 387.98 335.04 388.01C339.56 388.04 343.22 388.13 345.74 388.26C347 388.31 347.98 388.38 348.64 388.43L349.4 388.49C349.56 388.55 349.65 388.57 349.64 388.58Z" fill="#263238"/>
<path d="M349.64 395.22C349.558 395.236 349.473 395.236 349.39 395.22H348.63L345.72 395.15C343.2 395.09 339.55 395.04 335.03 395.07C330.51 395.1 325.14 395.2 319.17 395.32C313.2 395.44 306.64 395.56 299.74 395.45C292.84 395.34 286.27 394.92 280.33 394.21C275.067 393.603 269.849 392.651 264.71 391.36C261.246 390.494 257.837 389.422 254.5 388.15C253.31 387.72 252.42 387.31 251.8 387.06L251.11 386.75C250.95 386.68 250.87 386.64 250.88 386.63L251.13 386.7L251.84 386.96C252.47 387.18 253.37 387.56 254.57 387.96C257.926 389.137 261.341 390.138 264.8 390.96C269.935 392.193 275.142 393.101 280.39 393.68C286.31 394.37 292.86 394.75 299.75 394.88C306.64 395.01 313.19 394.88 319.16 394.79C325.13 394.7 330.51 394.62 335.03 394.65C339.55 394.68 343.21 394.77 345.73 394.9C346.99 394.95 347.97 395.02 348.63 395.07L349.39 395.13C349.56 395.2 349.65 395.21 349.64 395.22Z" fill="#263238"/>
<path d="M255.63 403C255.71 402.292 255.899 401.601 256.19 400.95C256.783 399.34 257.54 397.795 258.45 396.34C259.35 394.882 260.395 393.518 261.57 392.27C262.025 391.722 262.561 391.247 263.16 390.86C263.28 390.97 260.96 393.24 258.89 396.61C256.82 399.98 255.78 403 255.63 403Z" fill="#263238"/>
<path d="M260.72 412.21C260.657 411.934 260.64 411.651 260.67 411.37C260.678 410.604 260.728 409.84 260.82 409.08C261.125 406.571 261.668 404.096 262.44 401.69C263.196 399.286 264.139 396.946 265.26 394.69C265.68 393.731 266.199 392.819 266.81 391.97C266.462 392.95 266.055 393.909 265.59 394.84C264.585 397.125 263.7 399.462 262.94 401.84C262.179 404.224 261.594 406.66 261.19 409.13C260.88 411 260.8 412.22 260.72 412.21Z" fill="#263238"/>
<path d="M264.11 376C264.259 376.454 264.357 376.924 264.4 377.4C264.634 378.514 264.948 379.611 265.34 380.68C266.23 383.2 267.42 385.05 267.34 385.13C266.21 383.912 265.376 382.451 264.9 380.86C264.484 379.763 264.212 378.617 264.09 377.45C263.975 376.973 263.982 376.474 264.11 376Z" fill="#263238"/>
<path d="M268.35 379C268.861 380.043 269.218 381.154 269.41 382.3C269.773 383.404 269.965 384.558 269.98 385.72C269.1 383.575 268.551 381.309 268.35 379Z" fill="#263238"/>
<path d="M293.94 378C294.287 381.391 294.287 384.809 293.94 388.2C293.594 384.809 293.594 381.391 293.94 378Z" fill="#263238"/>
<path d="M297.14 380.61C297.888 383.168 297.818 385.895 296.94 388.41C296.79 388.41 297.08 386.65 297.13 384.51C297.18 382.37 297 380.63 297.14 380.61Z" fill="#263238"/>
<path d="M305.79 404.22C305.421 402.779 305.14 401.316 304.95 399.84C304.585 398.393 304.318 396.923 304.15 395.44C304.825 396.79 305.268 398.244 305.46 399.74C305.827 401.204 305.938 402.719 305.79 404.22Z" fill="#263238"/>
<path d="M220 304.51C219.72 303.6 230.24 273.51 236.48 268.95C242.72 264.39 270.89 257.86 270.89 257.86C270.89 257.86 282.75 269.56 298.65 267.13C314.55 264.7 326.76 253.48 326.76 253.48C326.76 253.48 356.85 257.42 361.96 261.06C367.07 264.7 380.96 297.69 380.96 297.69L356.44 318.12L354.27 336.62C354.27 336.62 355.41 375.15 352.85 379.1C350.29 383.05 250.09 373 250.09 373C250.09 373 244.98 372.09 248.95 363C252.92 353.91 255.77 347.83 255.77 347.83C255.77 347.83 248.67 339.94 247.53 325.98C246.39 312.02 243.6 310.52 243.6 310.52L220 304.51Z" fill="#FF725E"/>
<path d="M354.14 335.91C353.99 335.91 355.5 323.35 357.51 307.91C359.52 292.47 361.25 279.91 361.39 279.96C361.53 280.01 360 292.51 358 308C356 323.49 354.28 335.93 354.14 335.91Z" fill="#263238"/>
<path d="M246.74 315.64C246.61 315.69 244.74 311.19 242.55 305.58C240.36 299.97 238.71 295.39 238.84 295.34C238.97 295.29 240.84 299.79 243.04 305.39C245.24 310.99 246.88 315.59 246.74 315.64Z" fill="#263238"/>
<g opacity="0.3">
<path d="M278.51 331.67C278.056 329.065 276.971 326.61 275.35 324.52C273 321.86 269.28 320.73 265.74 320.75C262.191 320.939 258.686 321.63 255.33 322.8L248.94 332.8C249.148 333.404 249.491 333.954 249.941 334.407C250.391 334.861 250.937 335.207 251.54 335.42C252.744 335.839 254.006 336.065 255.28 336.09C261.893 336.57 268.507 336.847 275.12 336.92C275.974 337.009 276.835 336.849 277.6 336.46C279 335.48 278.9 333.35 278.51 331.67Z" fill="black"/>
</g>
<path d="M234.84 285.82C235.053 286.149 235.227 286.502 235.36 286.87C235.67 287.55 236.09 288.55 236.59 289.8C237.59 292.29 238.93 295.8 240.28 299.63C241.63 303.46 242.75 307.04 243.5 309.63C243.88 310.91 244.18 311.96 244.36 312.69C244.489 313.058 244.57 313.442 244.6 313.83C244.42 313.486 244.276 313.124 244.17 312.75L243.17 309.75C242.33 307.2 241.17 303.68 239.81 299.82C238.45 295.96 237.19 292.47 236.27 289.95C235.84 288.77 235.48 287.77 235.19 286.95C235.029 286.589 234.912 286.21 234.84 285.82Z" fill="#263238"/>
<path d="M234.79 289L246 329.89C246.195 330.559 246.606 331.145 247.168 331.557C247.731 331.969 248.413 332.185 249.11 332.17H273.42C273.888 332.186 274.353 332.095 274.781 331.905C275.209 331.714 275.588 331.429 275.89 331.071C276.191 330.713 276.407 330.29 276.522 329.836C276.636 329.382 276.646 328.908 276.55 328.45L266.72 287.58C266.54 286.89 266.134 286.282 265.566 285.852C264.998 285.422 264.302 285.196 263.59 285.21H237.89C237.416 285.194 236.946 285.287 236.514 285.483C236.083 285.679 235.702 285.971 235.402 286.338C235.103 286.705 234.891 287.136 234.785 287.597C234.679 288.059 234.68 288.539 234.79 289Z" fill="#1E1E1E"/>
<path d="M243.23 296.64C243.23 296.64 240.33 295.26 238.04 296.64C235.75 298.02 232.04 304.12 232.04 304.12L229.75 313.82L231.32 327L231.94 333.11L246.74 334.79V329.9L263.69 317.23C263.69 317.23 269.64 315.58 269.18 313.81C268.72 312.04 267.96 310.81 266.28 311.13C264.6 311.45 246.44 316.13 246.44 316.13C246.44 316.13 243.54 316.74 243.69 315.97C243.84 315.2 252.24 311.24 253.61 310.32C254.98 309.4 261.4 307.88 260.61 304.98C260.515 304.457 260.302 303.962 259.988 303.533C259.674 303.104 259.267 302.752 258.797 302.503C258.328 302.253 257.808 302.114 257.277 302.094C256.745 302.075 256.217 302.176 255.73 302.39L241.07 307.73L238.63 308.34L238.94 304.52L241.53 301.01C241.762 301.083 242.006 301.109 242.248 301.086C242.49 301.063 242.724 300.991 242.938 300.876C243.152 300.76 243.34 300.602 243.492 300.412C243.643 300.222 243.755 300.004 243.82 299.77C244.025 299.245 244.079 298.673 243.975 298.12C243.87 297.566 243.612 297.053 243.23 296.64Z" fill="#FFBE9D"/>
<path d="M241.26 307.66C240.134 308.305 238.927 308.796 237.67 309.12C236.472 309.624 235.21 309.961 233.92 310.12C235.048 309.48 236.255 308.99 237.51 308.66C238.71 308.162 239.971 307.825 241.26 307.66Z" fill="#EB996E"/>
<path d="M244.6 316.47C243.549 317.049 242.421 317.477 241.25 317.74C240.127 318.169 238.948 318.431 237.75 318.52C239.922 317.518 242.23 316.844 244.6 316.52V316.47Z" fill="#EB996E"/>
<path d="M262.76 317.38C262.5 317.586 262.215 317.758 261.91 317.89C261.34 318.19 260.51 318.6 259.46 319.08C256.741 320.308 253.961 321.396 251.13 322.34C248.299 323.291 245.418 324.089 242.5 324.73C241.38 324.98 240.5 325.15 239.83 325.25C239.502 325.326 239.167 325.363 238.83 325.36C239.999 324.957 241.192 324.623 242.4 324.36C244.61 323.79 247.65 322.94 250.95 321.84C254.25 320.74 257.19 319.59 259.31 318.73C260.434 318.215 261.586 317.765 262.76 317.38Z" fill="#EB996E"/>
<path d="M235.92 324.55C235.87 324.68 234.92 324.18 234.62 323.02C234.32 321.86 234.82 320.95 234.93 321.02C235.04 321.09 234.84 321.9 235.12 322.86C235.4 323.82 236 324.43 235.92 324.55Z" fill="#EB996E"/>
<path d="M233 316.84C233 316.9 232.73 316.84 232.39 316.67C231.965 316.378 231.645 315.956 231.479 315.468C231.314 314.979 231.31 314.45 231.47 313.96C231.61 313.59 231.79 313.42 231.85 313.45C231.91 313.48 231.63 314.34 231.98 315.3C232.33 316.26 233 316.7 233 316.84Z" fill="#EB996E"/>
<path d="M231.31 307.4C231.318 307.562 231.301 307.724 231.26 307.88C231.19 308.25 231.1 308.69 231 309.24C230.75 310.5 230.4 312.24 230 314.3V314.24C230.65 318.88 231.54 325.6 232.51 333.14V333.2V333.27C232.32 333.78 232.11 334.32 231.91 334.87C229.728 341.039 228.711 347.56 228.91 354.1C228.965 356.081 229.129 358.057 229.4 360.02C229.49 360.67 229.56 361.2 229.62 361.62C229.661 361.807 229.678 361.999 229.67 362.19C229.603 362.012 229.553 361.828 229.52 361.64C229.44 361.28 229.31 360.75 229.19 360.05C228.85 358.086 228.633 356.102 228.54 354.11C228.229 347.511 229.207 340.915 231.42 334.69C231.62 334.14 231.83 333.59 232.02 333.08V333.21C231.02 325.66 230.22 318.94 229.68 314.28L230.87 309.28C231.01 308.74 231.12 308.28 231.21 307.94C231.229 307.758 231.263 307.578 231.31 307.4Z" fill="#EB996E"/>
<path d="M249.18 328.47C248.219 329.461 247.066 330.243 245.79 330.77C244.585 331.445 243.254 331.864 241.88 332C241.88 331.86 243.56 331.28 245.56 330.3C247.56 329.32 249.09 328.34 249.18 328.47Z" fill="#EB996E"/>
<path d="M343 349.25C343 349.25 346.87 350.25 347.25 352.77C347.63 355.29 344.54 398.77 344.54 398.77H348.22C348.22 398.77 349.69 355.7 349.63 352.62C349.57 349.54 348.11 349.34 347.56 349.12C346.063 348.689 344.47 348.735 343 349.25Z" fill="#263238"/>
<path d="M341.05 349.171L358.76 349.851L355.23 328.471L356.44 318.121L379.91 298.521C379.91 298.521 388.12 346.141 388.86 351.641C389.74 358.241 388.46 366.991 385.26 370.121C382.53 372.781 362.86 370.121 355.26 370.121C351.06 370.121 341.02 370.191 341.02 370.191L337.5 353.771L341.05 349.171Z" fill="#FFBE9D"/>
<path d="M385.26 349.91C385.19 350 383.99 348.91 381.68 347.91C378.687 346.557 375.406 345.966 372.13 346.19C370.335 346.31 368.567 346.687 366.88 347.31C365.33 347.87 363.99 348.61 362.8 349.07C361.862 349.469 360.872 349.732 359.86 349.85C359.493 349.919 359.117 349.919 358.75 349.85C360.099 349.7 361.416 349.335 362.65 348.77C363.81 348.27 365.12 347.51 366.71 346.9C368.436 346.233 370.253 345.831 372.1 345.71C375.457 345.478 378.816 346.133 381.84 347.61C382.745 348.059 383.608 348.588 384.42 349.19C384.727 349.396 385.009 349.638 385.26 349.91Z" fill="#EB996E"/>
<path d="M322.79 388.601C322.14 389.431 314.66 453.871 314.66 453.871L392.39 453.611L380.07 388.801L322.79 388.601Z" fill="#FF725E"/>
<path d="M335.68 453.7C335.54 453.7 334.73 439.22 333.88 421.34C333.03 403.46 332.46 389 332.61 389C332.76 389 333.55 403.48 334.4 421.36C335.25 439.24 335.82 453.69 335.68 453.7Z" fill="#263238"/>
<path d="M304 350.25C306.147 349.938 308.272 349.487 310.36 348.9C311.339 348.424 312.284 347.882 313.19 347.28L323.19 346.47L341.04 349.17C341.04 349.17 344.04 351.33 343.61 357.96C343.245 362.4 342.29 366.772 340.77 370.96C340.77 370.96 332.77 377.47 330.63 377.87C328.49 378.27 316.29 377.59 315.08 376.64C314.365 376.098 313.766 375.418 313.32 374.64C312.669 374.307 312.144 373.77 311.826 373.111C311.508 372.452 311.415 371.707 311.56 370.99C311.56 370.99 307.37 365.58 306.83 363.28C306.29 360.98 306.96 360.44 306.96 360.44C306.96 360.44 305.75 357.33 306.69 356.25C306.927 355.986 307.214 355.773 307.535 355.623C307.856 355.473 308.204 355.39 308.558 355.378C308.912 355.366 309.264 355.425 309.595 355.553C309.925 355.68 310.226 355.873 310.48 356.12C311.43 357.2 317.38 356.39 317.38 356.39L322.65 352.87C319.938 353.559 317.182 354.056 314.4 354.36C311.57 354.44 303.05 356.34 304 350.25Z" fill="#FFBE9D"/>
<path d="M324.69 363C324.69 363.08 323.6 363.27 321.9 363.86C321.05 364.15 320.04 364.53 318.9 364.86C317.647 365.28 316.34 365.516 315.02 365.56C313.667 365.602 312.331 365.255 311.17 364.56C310.252 363.979 309.438 363.249 308.76 362.4C308.306 361.84 307.889 361.253 307.51 360.64C307.24 360.21 307.11 359.96 307.14 359.94C307.17 359.92 307.85 360.82 309.04 362.16C309.721 362.946 310.521 363.62 311.41 364.16C312.505 364.782 313.751 365.087 315.01 365.04C317.71 364.97 320.01 363.94 321.8 363.48C322.728 363.154 323.706 362.991 324.69 363Z" fill="#EB996E"/>
<path d="M328.33 358.24C328.38 358.24 328.57 358.36 328.71 358.73C328.88 359.212 328.88 359.738 328.71 360.22C328.547 360.707 328.218 361.121 327.78 361.39C327.44 361.59 327.2 361.59 327.17 361.53C327.14 361.47 327.9 361 328.22 360.05C328.54 359.1 328.2 358.3 328.33 358.24Z" fill="#EB996E"/>
<path d="M327.93 370.071C327.111 370.307 326.27 370.458 325.42 370.521C323.86 370.741 321.7 371.001 319.32 371.251C318.193 371.402 317.057 371.489 315.92 371.511C314.975 371.529 314.033 371.38 313.14 371.071C312.285 370.84 311.544 370.303 311.06 369.561C311.727 370.062 312.47 370.453 313.26 370.721C314.124 370.969 315.022 371.074 315.92 371.031C316.92 371.031 318.07 370.861 319.26 370.741C321.65 370.481 323.81 370.281 325.38 370.161C326.225 370.045 327.079 370.015 327.93 370.071Z" fill="#EB996E"/>
<path d="M332.55 365.79C332.61 365.79 332.8 365.99 332.93 366.44C333.1 367.028 333.1 367.652 332.93 368.24C332.763 368.829 332.438 369.362 331.99 369.78C331.64 370.08 331.36 370.17 331.33 370.12C331.3 370.07 332.1 369.32 332.43 368.12C332.564 367.351 332.605 366.569 332.55 365.79Z" fill="#EB996E"/>
<path d="M329.68 375.52C328.906 375.747 328.106 375.868 327.3 375.88C323.432 376.188 319.54 375.946 315.74 375.16C314.94 375.051 314.16 374.832 313.42 374.51C314.22 374.535 315.017 374.632 315.8 374.8C317.26 375.02 319.28 375.27 321.52 375.41C323.76 375.55 325.8 375.55 327.28 375.52C328.078 375.444 328.882 375.444 329.68 375.52Z" fill="#EB996E"/>
<path d="M346.6 348.88C346.6 348.88 350.1 351.5 350.75 353.09C351.4 354.68 358.39 388.59 358.39 388.59H361.39C361.39 388.59 354.26 351.85 352.52 350.43C351.895 349.925 351.225 349.476 350.52 349.09C349.932 348.779 349.284 348.598 348.62 348.558C347.956 348.518 347.291 348.621 346.67 348.86L346.6 348.88Z" fill="#263238"/>
<path d="M278.31 355.54C277.315 355.672 276.306 355.672 275.31 355.54C270.554 355.094 265.968 353.539 261.92 351C261.06 350.511 260.264 349.916 259.55 349.23C259.6 349.16 260.55 349.8 262.11 350.68C264.157 351.842 266.31 352.807 268.54 353.56C270.77 354.307 273.062 354.85 275.39 355.18C277.19 355.4 278.31 355.46 278.31 355.54Z" fill="#263238"/>
<g opacity="0.3">
<path d="M295.84 355C294.005 354.84 292.157 354.911 290.34 355.21C280.99 356.21 271.34 356.21 262.77 351.42C264.001 353.991 266.106 356.04 268.71 357.2C271.674 358.213 274.787 358.723 277.92 358.71C285.441 359.017 292.975 358.683 300.44 357.71C299.922 356.946 299.24 356.307 298.444 355.838C297.649 355.369 296.759 355.083 295.84 355Z" fill="black"/>
</g>
<path d="M267.29 259C267.29 255.452 265.881 252.048 263.371 249.539C260.862 247.03 257.459 245.62 253.91 245.62H172.45C168.966 245.715 165.657 247.166 163.227 249.664C160.796 252.162 159.436 255.51 159.436 258.995C159.436 262.48 160.796 265.828 163.227 268.326C165.657 270.824 168.966 272.275 172.45 272.37H221.14C225.71 276.78 233.52 282.73 233.52 282.73V271.88L254.89 272.31C262.2 272.09 267.29 266 267.29 259Z" fill="white"/>
<path d="M267.29 259C267.29 259 267.29 259.24 267.29 259.73C267.271 260.449 267.191 261.165 267.05 261.87C266.83 263.02 266.467 264.139 265.97 265.2C265.267 266.647 264.312 267.957 263.15 269.07C261.678 270.454 259.889 271.457 257.94 271.99C257.396 272.134 256.846 272.251 256.29 272.34C255.709 272.407 255.125 272.444 254.54 272.45L250.85 272.39L233.53 272.08L233.72 271.89C233.72 275.31 233.72 278.94 233.72 282.72V283.15L233.39 282.89C229.39 279.8 225.12 276.44 220.97 272.53L221.13 272.6H191.63H175.58C174.2 272.6 172.85 272.65 171.43 272.55C168.705 272.334 166.106 271.309 163.968 269.606C161.829 267.902 160.249 265.598 159.43 262.99C159.103 261.897 158.908 260.769 158.85 259.63C158.799 258.498 158.88 257.364 159.09 256.25C159.325 255.147 159.691 254.076 160.18 253.06C161.138 251.061 162.572 249.328 164.355 248.012C166.139 246.695 168.218 245.836 170.41 245.51C171.474 245.364 172.547 245.307 173.62 245.34H195L236.59 245.4H252.59C253.73 245.363 254.871 245.423 256 245.58C257.049 245.745 258.076 246.031 259.06 246.43C260.775 247.146 262.324 248.208 263.61 249.55C264.641 250.611 265.48 251.842 266.09 253.19C266.338 253.727 266.555 254.278 266.74 254.84C266.88 255.36 267 255.84 267.09 256.26C267.215 256.92 267.285 257.589 267.3 258.26C267.3 258.71 267.3 258.94 267.3 258.94C267.3 258.94 267.3 258.71 267.24 258.26C267.198 257.588 267.111 256.92 266.98 256.26C266.88 255.84 266.75 255.37 266.6 254.86C266.417 254.306 266.197 253.764 265.94 253.24C265.325 251.914 264.482 250.706 263.45 249.67C262.173 248.375 260.645 247.354 258.96 246.67C257.994 246.286 256.988 246.014 255.96 245.86C254.844 245.709 253.716 245.655 252.59 245.7H236.59H195H173.62C172.574 245.663 171.527 245.716 170.49 245.86C167.841 246.277 165.381 247.488 163.436 249.335C161.491 251.182 160.153 253.576 159.6 256.2C159.186 258.358 159.295 260.583 159.92 262.69C160.259 263.741 160.722 264.749 161.3 265.69C162.38 267.457 163.866 268.941 165.635 270.018C167.404 271.094 169.404 271.733 171.47 271.88C172.81 271.98 174.22 271.88 175.58 271.93H191.64H221.14H221.23L221.3 271.99C225.41 275.88 229.67 279.25 233.65 282.35L233.31 282.51C233.31 278.73 233.31 275.1 233.31 271.68V271.49H233.51L250.82 271.88C253.36 271.88 255.76 272.19 257.82 271.53C259.733 271.081 261.509 270.179 263 268.9C264.154 267.817 265.106 266.537 265.81 265.12C266.632 263.43 267.115 261.596 267.23 259.72C267.26 259.23 267.29 259 267.29 259Z" fill="#263238"/>
<path d="M249.71 263.17C249.497 263.185 249.283 263.185 249.07 263.17C248.108 263.042 247.206 262.631 246.478 261.991C245.749 261.35 245.227 260.508 244.976 259.571C244.726 258.634 244.759 257.643 245.071 256.725C245.383 255.806 245.96 255.001 246.729 254.41C247.498 253.819 248.426 253.469 249.394 253.404C250.362 253.34 251.327 253.564 252.168 254.047C253.009 254.531 253.688 255.253 254.119 256.122C254.55 256.991 254.714 257.968 254.59 258.93C254.424 260.106 253.838 261.183 252.942 261.962C252.045 262.741 250.898 263.17 249.71 263.17ZM249.71 254.34C248.76 254.34 247.843 254.686 247.131 255.314C246.418 255.942 245.959 256.808 245.84 257.75C245.709 258.779 245.99 259.817 246.621 260.639C247.252 261.461 248.183 262.001 249.21 262.14C250.24 262.274 251.281 261.992 252.104 261.359C252.927 260.725 253.465 259.79 253.6 258.76C253.667 258.251 253.634 257.733 253.501 257.236C253.368 256.74 253.138 256.274 252.825 255.867C252.512 255.459 252.122 255.117 251.677 254.86C251.231 254.603 250.74 254.437 250.23 254.37C250.054 254.35 249.877 254.34 249.7 254.34H249.71Z" fill="#263238"/>
<path d="M256.39 264.32C256.273 264.318 256.16 264.276 256.07 264.2L252.86 261.52C252.809 261.478 252.767 261.427 252.737 261.369C252.706 261.31 252.687 261.247 252.681 261.181C252.675 261.116 252.682 261.05 252.702 260.987C252.721 260.924 252.753 260.866 252.795 260.815C252.837 260.765 252.888 260.723 252.947 260.692C253.005 260.662 253.068 260.643 253.134 260.637C253.199 260.631 253.265 260.638 253.328 260.657C253.391 260.677 253.449 260.708 253.5 260.75L256.71 263.43C256.812 263.516 256.877 263.638 256.89 263.771C256.903 263.904 256.863 264.036 256.78 264.14C256.732 264.198 256.673 264.243 256.605 264.274C256.538 264.306 256.464 264.321 256.39 264.32Z" fill="#263238"/>
</svg>
