<svg width="388" height="341" viewBox="0 0 388 341" fill="none" xmlns="http://www.w3.org/2000/svg">
<path d="M355.53 228.21C397.75 137.21 204.05 169.64 187.93 144.26C163.45 105.72 235.78 68.0197 209.93 26.6897C173.61 -31.4403 112.22 22.5297 90.2702 43.5597C68.1102 64.8097 22.3702 120.19 50.4202 169.37C93.2802 244.48 144.25 192.92 189.09 223.16C210.23 237.43 187.26 269.7 219.9 292.81C276.86 333.13 340.44 260.74 355.53 228.21Z" fill="#FF9C77"/>
<path opacity="0.9" d="M355.53 228.21C397.75 137.21 204.05 169.64 187.93 144.26C163.45 105.72 235.78 68.0197 209.93 26.6897C173.61 -31.4403 112.22 22.5297 90.2702 43.5597C68.1102 64.8097 22.3702 120.19 50.4202 169.37C93.2802 244.48 144.25 192.92 189.09 223.16C210.23 237.43 187.26 269.7 219.9 292.81C276.86 333.13 340.44 260.74 355.53 228.21Z" fill="#FFE5C4"/>
<path d="M194 340.56C301.082 340.56 387.89 335.492 387.89 329.24C387.89 322.988 301.082 317.92 194 317.92C86.9174 317.92 0.109863 322.988 0.109863 329.24C0.109863 335.492 86.9174 340.56 194 340.56Z" fill="#FFE5C4"/>
<path d="M280.81 268.891H181.25C180.173 268.909 179.105 268.696 178.118 268.265C177.131 267.835 176.247 267.198 175.528 266.397C174.808 265.596 174.269 264.649 173.947 263.622C173.624 262.594 173.527 261.509 173.66 260.441L194.49 52.8905C194.763 50.6003 195.853 48.4854 197.559 46.9334C199.266 45.3814 201.474 44.4964 203.78 44.4405H303.34C304.417 44.4224 305.486 44.6356 306.473 45.0658C307.461 45.4959 308.345 46.133 309.065 46.934C309.785 47.7349 310.326 48.6812 310.649 49.7087C310.973 50.7363 311.072 51.8213 310.94 52.8905L290.1 260.441C289.828 262.732 288.739 264.848 287.033 266.4C285.326 267.952 283.116 268.837 280.81 268.891Z" fill="#1E1E1E"/>
<path d="M256.28 271.39H233.63V272.39H256.28V271.39Z" fill="#FF9C77"/>
<path d="M270.95 271.39H263.73V272.39H270.95V271.39Z" fill="#FF9C77"/>
<path d="M278.28 268.891H178.72C177.643 268.909 176.575 268.696 175.588 268.265C174.601 267.835 173.717 267.198 172.998 266.397C172.278 265.596 171.739 264.649 171.417 263.622C171.095 262.594 170.997 261.509 171.13 260.441L192 52.8905C192.274 50.6003 193.363 48.4854 195.07 46.9334C196.776 45.3814 198.984 44.4964 201.29 44.4405H300.85C301.927 44.4224 302.996 44.6356 303.983 45.0658C304.971 45.4959 305.855 46.133 306.575 46.934C307.296 47.7349 307.836 48.6812 308.159 49.7087C308.483 50.7363 308.582 51.8213 308.45 52.8905L287.57 260.441C287.297 262.731 286.207 264.846 284.501 266.398C282.794 267.95 280.586 268.835 278.28 268.891Z" fill="#FF9C77"/>
<g opacity="0.4">
<path opacity="0.2" d="M275.58 265.11H182.18C181.153 265.129 180.134 264.928 179.192 264.519C178.25 264.11 177.407 263.503 176.721 262.739C176.034 261.975 175.519 261.073 175.212 260.093C174.905 259.113 174.812 258.079 174.94 257.06L195.09 56.2698C195.35 54.0859 196.389 52.069 198.017 50.5901C199.644 49.1111 201.751 48.2695 203.95 48.2198H297.35C298.377 48.2022 299.395 48.405 300.337 48.8145C301.278 49.2241 302.121 49.8308 302.808 50.5938C303.495 51.3567 304.011 52.2582 304.32 53.2374C304.629 54.2165 304.725 55.2506 304.6 56.2698L284.44 257.06C284.18 259.244 283.141 261.261 281.513 262.74C279.886 264.218 277.779 265.06 275.58 265.11Z" fill="white"/>
<mask id="mask0_2637_1453" style="mask-type:luminance" maskUnits="userSpaceOnUse" x="174" y="48" width="131" height="218">
<path d="M275.58 265.11H182.18C181.153 265.129 180.134 264.928 179.192 264.519C178.25 264.11 177.407 263.503 176.721 262.739C176.034 261.975 175.519 261.073 175.212 260.093C174.905 259.113 174.812 258.079 174.94 257.06L195.09 56.2698C195.35 54.0859 196.389 52.069 198.017 50.5901C199.644 49.1111 201.751 48.2695 203.95 48.2198H297.35C298.377 48.2022 299.395 48.405 300.337 48.8145C301.278 49.2241 302.121 49.8308 302.808 50.5938C303.495 51.3567 304.011 52.2582 304.32 53.2374C304.629 54.2165 304.725 55.2506 304.6 56.2698L284.44 257.06C284.18 259.244 283.141 261.261 281.513 262.74C279.886 264.218 277.779 265.06 275.58 265.11Z" fill="white"/>
</mask>
<g mask="url(#mask0_2637_1453)">
<path d="M131.27 203.519L127.18 201.489L232.01 18.9492L236.1 20.9792L131.27 203.519Z" fill="white"/>
<path d="M150.4 209.78L146.5 207.44L263.64 31.6396L267.55 33.9797L150.4 209.78Z" fill="white"/>
<path d="M163.42 248.7L159.46 246.44L297.2 31.2998L301.16 33.5598L163.42 248.7Z" fill="white"/>
<path d="M226.26 284.05L221.53 283.9L243.74 116.26L248.77 114.17L226.26 284.05Z" fill="white"/>
<path d="M206.39 315.369L202.44 313.109L340.18 97.959L344.14 100.219L206.39 315.369Z" fill="white"/>
<path d="M175 49.0695L177.91 45.0195L373.09 173.41L370.19 177.45L175 49.0695Z" fill="white"/>
<path d="M181.28 24.4299L182.12 23.1699L382.96 143.38L382.13 144.63L181.28 24.4299Z" fill="white"/>
<path d="M211.32 114.819L212.51 113.029L237.53 127.999L236.34 129.789L211.32 114.819Z" fill="white"/>
<path d="M241.15 164.619L242.35 162.829L285.55 188.679L284.35 190.479L241.15 164.619Z" fill="white"/>
<path d="M168.36 233.959L169.55 232.159L227.1 266.599L225.91 268.399L168.36 233.959Z" fill="white"/>
<path d="M194.94 88.8294L196.72 87.6094L212.28 112.159L210.5 113.379L194.94 88.8294Z" fill="white"/>
<path d="M206.41 -6.89055L207.37 -8.06055L390.57 135.869L389.61 137.029L206.41 -6.89055Z" fill="white"/>
</g>
</g>
<path d="M251.63 217.81C251.059 222.697 248.738 227.212 245.097 230.52C241.455 233.829 236.739 235.708 231.82 235.81C229.524 235.855 227.245 235.406 225.137 234.492C223.03 233.578 221.144 232.221 219.608 230.513C218.072 228.805 216.922 226.787 216.236 224.595C215.549 222.403 215.343 220.089 215.63 217.81C217.45 199.69 236.46 189.58 236.46 189.58C236.46 189.58 253.45 199.69 251.63 217.81Z" fill="white"/>
<path opacity="0.4" d="M239.3 217.81C239.119 219.348 238.388 220.768 237.24 221.809C236.093 222.849 234.608 223.439 233.06 223.47C232.336 223.491 231.615 223.354 230.949 223.069C230.283 222.784 229.687 222.357 229.201 221.819C228.716 221.28 228.354 220.643 228.14 219.951C227.925 219.259 227.864 218.528 227.96 217.81C228.141 216.271 228.872 214.849 230.019 213.807C231.166 212.765 232.651 212.173 234.2 212.14C234.925 212.119 235.647 212.256 236.314 212.541C236.981 212.827 237.578 213.254 238.063 213.794C238.548 214.333 238.91 214.972 239.124 215.666C239.337 216.359 239.398 217.091 239.3 217.81Z" fill="#FF9C77"/>
<path d="M237.14 183.891C237.016 183.887 236.893 183.858 236.781 183.805C236.668 183.752 236.567 183.676 236.486 183.582C236.404 183.488 236.342 183.378 236.305 183.259C236.268 183.14 236.256 183.014 236.27 182.891L244.64 117.611C244.859 115.947 245.45 114.354 246.37 112.951L268.77 78.4006C268.912 78.1853 268.965 77.9238 268.918 77.6704C268.872 77.4171 268.729 77.1914 268.52 77.0406L245.58 63.1206C245.472 63.0497 245.379 62.9571 245.308 62.8488C245.238 62.7404 245.19 62.6185 245.168 62.4908C245.147 62.3631 245.152 62.2324 245.183 62.1067C245.214 61.981 245.271 61.8632 245.35 61.7606C245.493 61.533 245.717 61.3675 245.976 61.2971C246.235 61.2267 246.512 61.2565 246.75 61.3806L269.68 75.3006C270.003 75.5125 270.279 75.7874 270.492 76.1088C270.705 76.4302 270.851 76.7914 270.921 77.1706C270.991 77.5499 270.984 77.9394 270.9 78.3158C270.815 78.6921 270.656 79.0475 270.43 79.3606L248 113.881C247.264 115.012 246.789 116.293 246.61 117.631L238.25 182.921C238.21 183.188 238.076 183.432 237.873 183.609C237.67 183.787 237.41 183.887 237.14 183.891Z" fill="#7E1CC4"/>
<path d="M234.13 37.4001C234.586 33.4633 236.453 29.8251 239.386 27.1591C242.319 24.4932 246.118 22.9802 250.08 22.9001C251.931 22.8626 253.768 23.2241 255.466 23.9599C257.164 24.6958 258.684 25.7887 259.922 27.1645C261.161 28.5403 262.088 30.1666 262.641 31.9328C263.195 33.699 263.362 35.5637 263.13 37.4001C261.66 52.0001 246.34 60.1301 246.34 60.1301C246.34 60.1301 232.66 52.0001 234.13 37.4001Z" fill="#FF9C77"/>
<path opacity="0.3" d="M234.13 37.4001C234.586 33.4633 236.453 29.8251 239.386 27.1591C242.319 24.4932 246.118 22.9802 250.08 22.9001C251.931 22.8626 253.768 23.2241 255.466 23.9599C257.164 24.6958 258.684 25.7887 259.922 27.1645C261.161 28.5403 262.088 30.1666 262.641 31.9328C263.195 33.699 263.362 35.5637 263.13 37.4001C261.66 52.0001 246.34 60.1301 246.34 60.1301C246.34 60.1301 232.66 52.0001 234.13 37.4001Z" fill="#1E1E1E"/>
<path d="M254.625 43.7094C258.471 40.0519 258.908 34.2676 255.601 30.7898C252.294 27.3119 246.495 27.4575 242.648 31.1149C238.802 34.7724 238.366 40.5567 241.673 44.0345C244.98 47.5124 250.779 47.3668 254.625 43.7094Z" fill="#FF9C77"/>
<path d="M117.24 93.6104C116.93 94.4404 116.57 95.5103 116.24 96.4803C115.91 97.4503 115.6 98.4803 115.24 99.4803C114.62 101.48 114.02 103.56 113.48 105.63C112.94 107.7 112.48 109.79 111.96 111.88L111.28 115.03L110.95 116.61L110.88 116.98V117.19C110.88 117.31 110.88 117.54 110.88 117.71C110.843 119.645 111.004 121.578 111.36 123.48C111.68 125.54 112.11 127.64 112.57 129.75C113.52 133.96 114.57 138.24 115.65 142.46L111.65 143.96C109.671 139.914 107.929 135.757 106.43 131.51C105.67 129.37 104.99 127.2 104.43 124.94C104.14 123.82 103.88 122.66 103.66 121.46C103.413 120.184 103.276 118.89 103.25 117.59C103.225 117.214 103.225 116.837 103.25 116.46L103.3 115.85L103.36 115.4L103.57 113.71C103.7 112.59 103.89 111.46 104.06 110.34C104.44 108.1 104.83 105.86 105.35 103.64C105.87 101.42 106.35 99.2103 107.04 97.0103C107.37 95.9103 107.71 94.8204 108.04 93.7204C108.37 92.6204 108.78 91.5804 109.28 90.3604L117.24 93.6104Z" fill="#B78876"/>
<path d="M111.47 143.35L110.07 149.28L113.78 153.67C113.78 153.67 118.72 139.35 113.51 140.04L111.47 143.35Z" fill="#B78876"/>
<path d="M131.38 321.18C130.634 321.162 129.893 321.061 129.17 320.88C129.132 320.872 129.097 320.853 129.07 320.825C129.043 320.797 129.024 320.761 129.017 320.723C129.009 320.685 129.013 320.645 129.028 320.609C129.043 320.573 129.068 320.542 129.1 320.52C129.39 320.33 131.92 318.69 132.89 319.13C133.001 319.179 133.097 319.256 133.167 319.355C133.238 319.454 133.28 319.57 133.29 319.69C133.332 319.877 133.326 320.072 133.272 320.256C133.218 320.44 133.117 320.606 132.98 320.74C132.517 321.074 131.949 321.23 131.38 321.18ZM129.73 320.6C131.19 320.89 132.29 320.84 132.73 320.45C132.821 320.359 132.886 320.245 132.919 320.121C132.953 319.996 132.953 319.865 132.92 319.74C132.918 319.687 132.902 319.635 132.871 319.59C132.841 319.546 132.799 319.511 132.75 319.49C132.22 319.26 130.76 320 129.73 320.6Z" fill="#FF9C77"/>
<path d="M129.22 320.88H129.12C129.089 320.864 129.063 320.839 129.046 320.809C129.028 320.779 129.019 320.745 129.02 320.71C129.02 320.6 129.02 318.19 129.9 317.39C130.01 317.284 130.143 317.204 130.288 317.157C130.434 317.111 130.588 317.098 130.74 317.12C130.898 317.119 131.051 317.174 131.174 317.274C131.296 317.375 131.379 317.515 131.41 317.67C131.61 318.67 130.11 320.42 129.31 320.88C129.28 320.889 129.249 320.889 129.22 320.88ZM130.61 317.49C130.447 317.491 130.29 317.551 130.17 317.66C129.651 318.441 129.389 319.363 129.42 320.3C130.21 319.66 131.15 318.3 131.03 317.73C131.03 317.64 130.95 317.52 130.7 317.49H130.61Z" fill="#FF9C77"/>
<path d="M131.5 77.1503C132.25 77.1003 130.98 74.8003 130.63 74.6203C129.8 74.1903 120.89 75.4603 121.32 76.8403C121.547 77.5986 121.964 78.2867 122.53 78.8403C123 79.1603 124.92 77.4203 131.5 77.1503Z" fill="#1E1E1E"/>
<path d="M125.47 82.6004C125.22 83.3104 123.35 81.4704 123.27 81.0704C123.09 80.1604 126.73 71.9303 127.94 72.7203C128.613 73.1442 129.167 73.7328 129.55 74.4303C129.71 75.0003 127.52 76.3504 125.47 82.6004Z" fill="#1E1E1E"/>
<path d="M127.4 61.0703C128.4 66.0703 130.57 76.0703 127.13 79.4203C127.13 79.4203 128.53 84.4203 137.77 84.4203C147.93 84.4203 142.57 79.4203 142.57 79.4203C137.02 78.1003 137.12 73.9903 138.05 70.1203L127.4 61.0703Z" fill="#B78876"/>
<path d="M124.76 81.4103C123.31 81.4603 125.31 76.8103 125.96 76.4103C127.47 75.4103 144.78 76.2203 144.22 78.9403C143.95 80.1103 143.15 82.3503 142.27 83.0303C141.39 83.7103 137.41 80.7103 124.76 81.4103Z" fill="#1E1E1E"/>
<path d="M147.47 50.4102C147.532 50.411 147.593 50.3969 147.649 50.3691C147.705 50.3412 147.753 50.3005 147.79 50.2502C148.067 49.8403 148.437 49.5016 148.869 49.2618C149.302 49.022 149.785 48.8878 150.28 48.8702C150.337 48.8793 150.395 48.8759 150.451 48.8603C150.507 48.8446 150.558 48.8171 150.602 48.7795C150.646 48.742 150.682 48.6953 150.706 48.6428C150.73 48.5902 150.743 48.5331 150.743 48.4752C150.743 48.4173 150.73 48.3602 150.706 48.3076C150.682 48.2551 150.646 48.2084 150.602 48.1709C150.558 48.1333 150.507 48.1058 150.451 48.0901C150.395 48.0745 150.337 48.0711 150.28 48.0802C149.652 48.0859 149.035 48.2434 148.481 48.5395C147.927 48.8355 147.453 49.2612 147.1 49.7802C147.053 49.8393 147.025 49.9105 147.018 49.9853C147.011 50.0601 147.026 50.1353 147.061 50.2018C147.096 50.2684 147.149 50.3234 147.215 50.3604C147.28 50.3974 147.355 50.4147 147.43 50.4102H147.47Z" fill="#1E1E1E"/>
<path d="M149.73 55.1797C150.286 56.7485 151.056 58.2326 152.02 59.5897C151.664 59.8203 151.263 59.9711 150.843 60.0315C150.424 60.0919 149.996 60.0606 149.59 59.9397L149.73 55.1797Z" fill="#FF9C77"/>
<path d="M149.16 54.0001C149.16 54.6801 149.49 55.2401 149.93 55.2501C150.37 55.2601 150.74 54.7401 150.76 54.0601C150.78 53.3801 150.44 52.8301 150 52.8101C149.56 52.7901 149.18 53.3301 149.16 54.0001Z" fill="#1E1E1E"/>
<path d="M149.8 52.8404L151.44 52.4404C151.44 52.4404 150.57 53.6704 149.8 52.8404Z" fill="#1E1E1E"/>
<path d="M119.47 320.69H127.85L127 301.29H118.63L119.47 320.69Z" fill="#B78876"/>
<path d="M128.5 319.72H119.09C118.928 319.714 118.77 319.77 118.647 319.875C118.525 319.981 118.447 320.129 118.43 320.29L117.43 327.73C117.411 327.919 117.433 328.11 117.493 328.291C117.553 328.471 117.651 328.637 117.779 328.777C117.907 328.917 118.063 329.029 118.237 329.106C118.411 329.182 118.599 329.221 118.79 329.22C122.07 329.17 123.65 328.97 127.79 328.97C130.33 328.97 134.05 329.24 137.57 329.24C141.09 329.24 141.24 325.76 139.77 325.45C133.19 324.03 132.14 322.09 129.91 320.23C129.512 319.903 129.014 319.723 128.5 319.72Z" fill="#1E1E1E"/>
<g opacity="0.2">
<path d="M118.62 301.29H127L127.44 311.29H119.06L118.62 301.29Z" fill="#1E1E1E"/>
</g>
<path d="M161.45 89.75C163.23 93.84 165.15 98.03 167.1 102.09C169.005 106.093 171.138 109.982 173.49 113.74C173.761 114.188 174.055 114.622 174.37 115.04L175.16 116.14C175.301 116.375 175.526 116.546 175.79 116.62C176.58 116.87 178.54 116.38 180.3 115.51C184.147 113.47 187.741 110.987 191.01 108.11L194.15 110.95C193.41 111.95 192.66 112.88 191.87 113.8C191.08 114.72 190.26 115.62 189.39 116.47C187.621 118.259 185.678 119.867 183.59 121.27C182.433 122.037 181.2 122.68 179.91 123.19C178.352 123.814 176.676 124.09 175 124C172.934 123.844 171 122.928 169.57 121.43C169.41 121.27 169.2 121.04 169.11 120.93L168.8 120.56L168.19 119.81C167.76 119.31 167.39 118.81 167.03 118.31C164.213 114.383 161.706 110.244 159.53 105.93C157.34 101.7 155.37 97.48 153.53 93.03L161.45 89.75Z" fill="#B78876"/>
<path d="M191.08 107.87L195 106L197.35 112.25C197.35 112.25 191.49 114.3 188.7 112.01L188.85 110.94C188.933 110.282 189.181 109.656 189.571 109.119C189.961 108.582 190.48 108.153 191.08 107.87Z" fill="#B78876"/>
<path d="M200.86 105.88L201.57 110.49L197.38 112.22L195.03 105.97L200.86 105.88Z" fill="#B78876"/>
<path d="M126.52 50.7898C126.79 59.0998 126.73 62.6198 130.79 67.0398C136.9 73.6898 147.05 71.6498 149.27 63.4498C151.27 56.0698 150.5 43.7198 142.48 40.0998C140.729 39.2874 138.799 38.9396 136.874 39.0897C134.95 39.2399 133.097 39.8829 131.494 40.9569C129.89 42.031 128.59 43.4998 127.719 45.222C126.848 46.9442 126.435 48.8616 126.52 50.7898Z" fill="#B78876"/>
<path d="M124.24 40.9302C127.74 34.5902 143.07 34.2502 148.24 41.3302C153.41 48.4102 146 48.2202 144 55.1802C144.25 61.5802 146.85 64.3302 150.64 67.9902C144.81 74.9002 120.94 75.9902 117.19 67.9902C113.44 59.9902 113.16 39.9302 124.24 40.9302Z" fill="#1E1E1E"/>
<path d="M124.52 41.6606C124.52 41.6606 125.08 39.0706 121.85 39.3106C122.864 39.9398 123.767 40.7341 124.52 41.6606Z" fill="#1E1E1E"/>
<path d="M142.5 54.6404C142.661 56.2105 143.348 57.68 144.45 58.8104C145.94 60.3404 147.45 59.4604 147.7 57.6504C147.92 56.0204 147.41 53.2604 145.6 52.3904C143.79 51.5204 142.36 52.7904 142.5 54.6404Z" fill="#B78876"/>
<path d="M144.26 132.12C144.26 132.12 139.97 189.61 135.26 222.01C131.45 248.18 128.84 309.36 128.84 309.36H117.39C117.39 309.36 111.39 250.28 113.18 224.36C117.77 158.87 108.48 147.27 119.18 132.09L144.26 132.12Z" fill="#1E1E1E"/>
<path opacity="0.2" d="M131.29 166.17C131.274 176.769 133.7 187.23 138.38 196.74C139.61 185.52 140.73 173.81 141.66 163.48C138 151.78 131.51 153.22 131.29 166.17Z" fill="#1E1E1E"/>
<path d="M130.38 309.58H115.83L115.02 304.48L130.41 303.96L130.38 309.58Z" fill="#FF9C77"/>
<path d="M132.26 305.77C132.242 305.739 132.233 305.705 132.233 305.67C132.233 305.635 132.242 305.6 132.26 305.57C132.276 305.534 132.303 305.504 132.337 305.485C132.371 305.465 132.411 305.456 132.45 305.46C132.88 305.46 136.61 305.82 137.2 306.84C137.251 306.935 137.278 307.042 137.278 307.15C137.278 307.258 137.251 307.365 137.2 307.46C137.128 307.624 137.017 307.768 136.875 307.878C136.734 307.988 136.567 308.061 136.39 308.09C135.19 308.3 133.31 306.74 132.29 305.8L132.26 305.77ZM136.81 306.99C136.42 306.46 134.47 306.07 132.99 305.91C134.41 307.15 135.63 307.82 136.3 307.7C136.416 307.68 136.526 307.631 136.619 307.558C136.711 307.485 136.784 307.389 136.83 307.28C136.854 307.243 136.867 307.199 136.867 307.155C136.867 307.11 136.854 307.067 136.83 307.03L136.81 306.99Z" fill="#FF9C77"/>
<path d="M132.26 305.771C132.243 305.74 132.234 305.706 132.234 305.671C132.234 305.636 132.243 305.601 132.26 305.571C132.31 305.501 133.66 303.691 135.01 303.511C135.206 303.479 135.407 303.488 135.6 303.538C135.793 303.588 135.973 303.677 136.13 303.801C136.57 304.141 136.56 304.461 136.47 304.671C136.11 305.551 133.47 306.041 132.39 305.891C132.361 305.881 132.334 305.865 132.312 305.844C132.29 305.824 132.272 305.798 132.26 305.771ZM136.06 304.241C136.008 304.179 135.951 304.122 135.89 304.071C135.774 303.982 135.642 303.918 135.501 303.882C135.36 303.846 135.213 303.839 135.07 303.861C134.166 304.153 133.376 304.719 132.81 305.481C134 305.481 135.89 305.011 136.1 304.481C136.12 304.441 136.15 304.361 136.06 304.241Z" fill="#FF9C77"/>
<path d="M123.64 302.34L131.36 305.66L134.64 298.52L138.91 289.18L139.41 288.09L131.69 284.76L131.13 285.98L126.98 295.03L123.64 302.34Z" fill="#B78876"/>
<path opacity="0.2" d="M126.98 295.03L134.64 298.52L138.91 289.18L131.13 285.98L126.98 295.03Z" fill="#1E1E1E"/>
<path d="M153.25 132.121C153.25 132.121 166.34 189.261 166.63 218.671C166.89 245.241 137.88 295.781 137.88 295.781L127.39 291.001C127.39 291.001 146.2 230.171 144.32 221.651C138.89 196.931 129.72 143.651 129.7 132.101L153.25 132.121Z" fill="#1E1E1E"/>
<path d="M132.46 304.541L124.46 299.541C124.325 299.454 124.164 299.42 124.006 299.444C123.847 299.468 123.703 299.548 123.6 299.671L118.79 305.411C118.672 305.562 118.587 305.737 118.542 305.924C118.496 306.111 118.491 306.305 118.526 306.494C118.561 306.683 118.635 306.862 118.745 307.02C118.854 307.178 118.996 307.311 119.16 307.411C121.98 309.101 123.43 309.781 126.96 311.981C129.13 313.331 133.48 316.351 136.48 318.221C139.48 320.091 141.48 317.221 140.37 316.221C135.51 311.541 134.37 308.521 133.37 305.771C133.226 305.264 132.903 304.827 132.46 304.541Z" fill="#1E1E1E"/>
<path d="M138.64 297.92L125.13 292.37L126.57 286.92L141.03 292.84L138.64 297.92Z" fill="#FF9C77"/>
<path d="M123 90.7098C123.17 85.8898 120.05 79.7898 112.67 81.3298C109.19 82.0498 105.6 94.6098 105.6 94.6098L115 105.61C118.26 104.13 122.93 93.7598 123 90.7098Z" fill="#FF9C77"/>
<path opacity="0.2" d="M116.58 92C116.55 96.5707 116.02 101.124 115 105.58C116.92 104.69 119.34 100.66 121 96.91L116.58 92Z" fill="#1E1E1E"/>
<path d="M156.75 81.5704C156.75 81.5704 160.75 82.9704 153.25 132.12H119.25C119.68 118.28 119.62 109.74 112.72 81.3204C117.477 80.3365 122.3 79.7015 127.15 79.4204C132.29 79.05 137.45 79.05 142.59 79.4204C149.21 80.0004 156.75 81.5704 156.75 81.5704Z" fill="#FF9C77"/>
<path opacity="0.2" d="M156.52 98.3906L151.26 99.0606C151.59 103.061 154.16 107.821 156.26 110.351C156.69 106.691 157.01 103.501 157.26 100.721C156.85 99.2806 156.52 98.3906 156.52 98.3906Z" fill="#1E1E1E"/>
<path d="M156.75 81.5705C160.93 82.5705 166.16 94.0105 166.16 94.0105L157.82 107.17C157.82 107.17 147.22 99.2505 147.32 87.8005C147.37 83.0005 151.69 80.3405 156.75 81.5705Z" fill="#FF9C77"/>
<path d="M118.7 130.131L117.2 133.131C117.08 133.371 117.36 133.611 117.75 133.611H153.43C153.74 133.611 153.99 133.461 154.01 133.261L154.28 130.261C154.28 130.051 154.04 129.871 153.7 129.871H119.25C119.143 129.861 119.036 129.88 118.94 129.926C118.843 129.971 118.76 130.042 118.7 130.131Z" fill="#FF9C77"/>
<path opacity="0.2" d="M118.7 130.131L117.2 133.131C117.08 133.371 117.36 133.611 117.75 133.611H153.43C153.74 133.611 153.99 133.461 154.01 133.261L154.28 130.261C154.28 130.051 154.04 129.871 153.7 129.871H119.25C119.143 129.861 119.036 129.88 118.94 129.926C118.843 129.971 118.76 130.042 118.7 130.131Z" fill="white"/>
<path d="M123.36 134H122.44C122.26 134 122.12 133.9 122.13 133.79L122.52 129.79C122.52 129.67 122.69 129.58 122.88 129.58H123.8C123.98 129.58 124.12 129.67 124.11 129.79L123.72 133.79C123.71 133.88 123.55 134 123.36 134Z" fill="#1E1E1E"/>
<path d="M145.73 134H144.81C144.62 134 144.48 133.9 144.49 133.79L144.89 129.79C144.89 129.67 145.06 129.58 145.24 129.58H146.16C146.35 129.58 146.49 129.67 146.48 129.79L146.08 133.79C146.07 133.88 145.91 134 145.73 134Z" fill="#1E1E1E"/>
</svg>
