<svg width="1441" height="363" viewBox="0 0 1441 363" fill="none" xmlns="http://www.w3.org/2000/svg">
<path d="M1440.54 291.741H0V284.908H1440.54V291.741Z" fill="#E6E6E6"/>
<path d="M41.1899 284.412C41.1948 277.945 43.7376 271.744 48.2595 267.173C52.7814 262.602 58.9123 260.034 65.3048 260.034C71.6972 260.034 77.8282 262.602 82.35 267.173C86.8719 271.744 89.4147 277.945 89.4196 284.412" fill="#F2F2F2"/>
<path d="M65.3035 284.412C65.1311 284.412 64.9657 284.343 64.8438 284.219C64.7219 284.096 64.6534 283.928 64.6533 283.753V270.896C64.6533 270.721 64.7218 270.553 64.8437 270.429C64.9657 270.306 65.1311 270.236 65.3035 270.236C65.4759 270.236 65.6413 270.306 65.7632 270.429C65.8852 270.553 65.9537 270.721 65.9537 270.896V283.753C65.9536 283.928 65.8851 284.096 65.7632 284.219C65.6413 284.343 65.4759 284.412 65.3035 284.412Z" fill="#CCCCCC"/>
<path d="M65.3045 279.994C65.1488 279.994 64.9982 279.938 64.8802 279.835L57.0593 273.044C56.9935 272.988 56.9393 272.919 56.8999 272.842C56.8605 272.765 56.8367 272.68 56.8297 272.593C56.8228 272.506 56.833 272.419 56.8596 272.336C56.8862 272.254 56.9288 272.177 56.9849 272.111C57.0409 272.045 57.1094 271.991 57.1862 271.951C57.2631 271.912 57.3469 271.889 57.4328 271.883C57.5186 271.876 57.6048 271.887 57.6865 271.915C57.7681 271.943 57.8435 271.986 57.9083 272.044L65.7293 278.835C65.8304 278.922 65.9024 279.039 65.9358 279.17C65.9692 279.3 65.9623 279.438 65.916 279.564C65.8697 279.69 65.7863 279.799 65.677 279.876C65.5676 279.953 65.4377 279.994 65.3045 279.994Z" fill="#CCCCCC"/>
<path d="M115.49 284.412C115.495 277.945 118.037 271.744 122.559 267.173C127.081 262.602 133.212 260.034 139.605 260.034C145.997 260.034 152.128 262.602 156.65 267.173C161.172 271.744 163.715 277.945 163.719 284.412" fill="#F2F2F2"/>
<path d="M139.603 284.412C139.431 284.412 139.265 284.343 139.144 284.219C139.022 284.096 138.953 283.928 138.953 283.753V270.896C138.953 270.721 139.022 270.553 139.144 270.429C139.265 270.306 139.431 270.236 139.603 270.236C139.776 270.236 139.941 270.306 140.063 270.429C140.185 270.553 140.253 270.721 140.253 270.896V283.753C140.253 283.928 140.185 284.096 140.063 284.219C139.941 284.343 139.776 284.412 139.603 284.412Z" fill="#CCCCCC"/>
<path d="M139.604 279.994C139.449 279.994 139.298 279.937 139.18 279.835L131.359 273.044C131.293 272.988 131.239 272.919 131.199 272.841C131.16 272.764 131.136 272.679 131.129 272.593C131.122 272.506 131.132 272.418 131.159 272.335C131.186 272.253 131.228 272.176 131.284 272.11C131.34 272.044 131.409 271.989 131.486 271.95C131.563 271.911 131.647 271.888 131.732 271.882C131.818 271.875 131.905 271.887 131.986 271.914C132.068 271.942 132.143 271.986 132.208 272.043L140.029 278.834C140.13 278.922 140.202 279.039 140.236 279.169C140.269 279.3 140.262 279.437 140.216 279.564C140.17 279.69 140.086 279.799 139.977 279.876C139.867 279.953 139.737 279.994 139.604 279.994Z" fill="#CCCCCC"/>
<path d="M152.841 336.763C176.118 336.763 194.987 332.308 194.987 326.814C194.987 321.319 176.118 316.865 152.841 316.865C129.565 316.865 110.696 321.319 110.696 326.814C110.696 332.308 129.565 336.763 152.841 336.763Z" fill="#F2F2F2"/>
<path d="M733.03 243.015C733.403 243.015 733.76 242.865 734.024 242.598C734.287 242.332 734.435 241.97 734.435 241.593C734.435 241.216 734.287 240.855 734.024 240.588C733.76 240.322 733.403 240.172 733.03 240.172H719.684V234.487H733.03C733.403 234.487 733.76 234.337 734.024 234.071C734.287 233.804 734.435 233.443 734.435 233.066C734.435 232.689 734.287 232.327 734.024 232.061C733.76 231.794 733.403 231.645 733.03 231.645H619.237C618.864 231.645 618.507 231.794 618.244 232.061C617.98 232.327 617.832 232.689 617.832 233.066C617.832 233.443 617.98 233.804 618.244 234.071C618.507 234.337 618.864 234.487 619.237 234.487H632.583V240.172H619.237C618.864 240.172 618.507 240.322 618.244 240.588C617.98 240.855 617.832 241.216 617.832 241.593C617.832 241.97 617.98 242.332 618.244 242.598C618.507 242.865 618.864 243.015 619.237 243.015H632.583V248.699H619.237C618.864 248.699 618.507 248.849 618.244 249.116C617.98 249.382 617.832 249.744 617.832 250.121C617.832 250.498 617.98 250.859 618.244 251.126C618.507 251.392 618.864 251.542 619.237 251.542H632.583V257.227H620.642C619.897 257.227 619.182 257.526 618.655 258.06C618.128 258.593 617.832 259.316 617.832 260.069C617.832 260.823 618.128 261.546 618.655 262.079C619.182 262.613 619.897 262.912 620.642 262.912H632.01C631.927 263.14 631.883 263.38 631.881 263.623V283.52C631.881 284.085 632.103 284.628 632.498 285.027C632.893 285.427 633.429 285.652 633.988 285.652C634.547 285.652 635.083 285.427 635.478 285.027C635.873 284.628 636.095 284.085 636.095 283.52V263.623C636.093 263.38 636.049 263.14 635.966 262.912H716.301C716.218 263.14 716.174 263.38 716.172 263.623V283.52C716.172 284.085 716.394 284.628 716.789 285.027C717.184 285.427 717.72 285.652 718.279 285.652C718.838 285.652 719.374 285.427 719.769 285.027C720.164 284.628 720.386 284.085 720.386 283.52V263.623C720.384 263.38 720.34 263.14 720.258 262.912H731.625C732.37 262.912 733.085 262.613 733.612 262.079C734.139 261.546 734.435 260.823 734.435 260.069C734.435 259.316 734.139 258.593 733.612 258.06C733.085 257.526 732.37 257.227 731.625 257.227H719.684V251.542H733.03C733.403 251.542 733.76 251.392 734.024 251.126C734.287 250.859 734.435 250.498 734.435 250.121C734.435 249.744 734.287 249.382 734.024 249.116C733.76 248.849 733.403 248.699 733.03 248.699H719.684V243.015H733.03ZM635.393 234.487H716.874V240.172H635.393V234.487ZM716.874 257.227H635.393V251.542H716.874V257.227ZM716.874 248.699H635.393V243.015H716.874V248.699Z" fill="#3F3D56"/>
<path d="M766.763 285.054C766.391 285.054 766.033 284.904 765.77 284.637C765.506 284.371 765.358 284.009 765.358 283.633V156.942C765.358 156.565 765.506 156.203 765.77 155.937C766.033 155.67 766.391 155.521 766.763 155.521C767.136 155.521 767.493 155.67 767.757 155.937C768.02 156.203 768.168 156.565 768.168 156.942V283.633C768.168 284.009 768.02 284.371 767.757 284.637C767.493 284.904 767.136 285.054 766.763 285.054Z" fill="#3F3D56"/>
<path d="M398.691 65.3773H376.213C374.537 65.3755 372.93 64.701 371.745 63.502C370.56 62.303 369.893 60.6774 369.892 58.9817V6.39561C369.893 4.69997 370.56 3.07432 371.745 1.87532C372.93 0.676317 374.537 0.00188092 376.213 0H398.691C400.367 0.00188092 401.974 0.676317 403.159 1.87532C404.344 3.07432 405.011 4.69997 405.013 6.39561V58.9817C405.011 60.6774 404.344 62.303 403.159 63.502C401.974 64.701 400.367 65.3755 398.691 65.3773Z" fill="#E6E6E6"/>
<path d="M487.066 284.346H371.934C368.77 284.344 365.737 283.713 363.499 282.591C361.262 281.469 360.004 279.948 360 278.362V45.3299C360.004 43.7433 361.262 42.2223 363.499 41.1004C365.737 39.9785 368.77 39.3475 371.934 39.3457H487.066C490.23 39.3475 493.263 39.9785 495.501 41.1004C497.738 42.2223 498.996 43.7433 499 45.3299V278.362C498.996 279.948 497.738 281.469 495.501 282.591C493.263 283.713 490.23 284.344 487.066 284.346Z" fill="#E6E6E6"/>
<path d="M418.066 284.346H302.934C299.77 284.344 296.737 283.713 294.499 282.591C292.262 281.469 291.004 279.948 291 278.362V45.3299C291.004 43.7433 292.262 42.2223 294.499 41.1004C296.737 39.9785 299.77 39.3475 302.934 39.3457H418.066C421.23 39.3475 424.263 39.9785 426.501 41.1004C428.738 42.2223 429.996 43.7433 430 45.3299V278.362C429.996 279.948 428.738 281.469 426.501 282.591C424.263 283.713 421.23 284.344 418.066 284.346Z" fill="#F2F2F2"/>
<path d="M377.618 65.3773H355.141C353.465 65.3755 351.858 64.701 350.673 63.502C349.487 62.303 348.821 60.6774 348.819 58.9817V6.39561C348.821 4.69997 349.487 3.07432 350.673 1.87532C351.858 0.676317 353.465 0.00188092 355.141 0H377.618C379.294 0.00188092 380.901 0.676317 382.087 1.87532C383.272 3.07432 383.938 4.69997 383.94 6.39561V58.9817C383.938 60.6774 383.272 62.303 382.087 63.502C380.901 64.701 379.294 65.3755 377.618 65.3773Z" fill="#F2F2F2"/>
<path d="M348.116 122.394H321.424C320.493 122.393 319.6 122.018 318.942 121.352C318.284 120.686 317.913 119.783 317.912 118.841V77.6244C317.913 76.6824 318.284 75.7793 318.942 75.1132C319.6 74.447 320.493 74.0724 321.424 74.0713H348.116C349.048 74.0724 349.94 74.447 350.599 75.1132C351.257 75.7793 351.628 76.6824 351.629 77.6244V118.841C351.628 119.783 351.257 120.686 350.599 121.352C349.94 122.018 349.048 122.393 348.116 122.394Z" fill="white"/>
<path d="M400.096 122.394H373.404C372.473 122.393 371.58 122.018 370.921 121.352C370.263 120.686 369.893 119.783 369.892 118.841V77.6244C369.893 76.6824 370.263 75.7793 370.921 75.1132C371.58 74.447 372.473 74.0724 373.404 74.0713H400.096C401.027 74.0724 401.92 74.447 402.578 75.1132C403.237 75.7793 403.607 76.6824 403.608 77.6244V118.841C403.607 119.783 403.237 120.686 402.578 121.352C401.92 122.018 401.027 122.393 400.096 122.394Z" fill="white"/>
<path d="M348.116 197.72H321.424C320.493 197.719 319.6 197.344 318.942 196.678C318.284 196.012 317.913 195.109 317.912 194.167V152.951C317.913 152.009 318.284 151.105 318.942 150.439C319.6 149.773 320.493 149.399 321.424 149.397H348.116C349.048 149.399 349.94 149.773 350.599 150.439C351.257 151.105 351.628 152.009 351.629 152.951V194.167C351.628 195.109 351.257 196.012 350.599 196.678C349.94 197.344 349.048 197.719 348.116 197.72Z" fill="white"/>
<path d="M400.096 197.72H373.404C372.473 197.719 371.58 197.344 370.921 196.678C370.263 196.012 369.893 195.109 369.892 194.167V152.951C369.893 152.009 370.263 151.105 370.921 150.439C371.58 149.773 372.473 149.399 373.404 149.397H400.096C401.027 149.399 401.92 149.773 402.578 150.439C403.237 151.105 403.607 152.009 403.608 152.951V194.167C403.607 195.109 403.237 196.012 402.578 196.678C401.92 197.344 401.027 197.719 400.096 197.72Z" fill="white"/>
<path d="M978.896 42.8034H956.419C954.742 42.8015 953.136 42.1271 951.95 40.9281C950.765 39.7291 950.099 38.1035 950.097 36.4078V6.56163C950.099 4.86599 950.765 3.24037 951.95 2.04138C953.136 0.842382 954.742 0.167927 956.419 0.166016H978.896C980.572 0.167923 982.179 0.842338 983.364 2.04133C984.549 3.24033 985.216 4.86599 985.218 6.56163V36.4078C985.216 38.1035 984.549 39.7291 983.364 40.9281C982.179 42.1271 980.572 42.8015 978.896 42.8034Z" fill="#E6E6E6"/>
<path d="M1168.55 285.837H1053.35C1050.19 285.833 1047.15 284.559 1044.91 282.294C1042.67 280.03 1041.42 276.959 1041.41 273.756V47.7779C1041.42 44.575 1042.67 41.5043 1044.91 39.2395C1047.15 36.9748 1050.19 35.7008 1053.35 35.6973H1168.55C1171.72 35.7008 1174.75 36.9748 1176.99 39.2395C1179.23 41.5043 1180.49 44.575 1180.49 47.7779V273.756C1180.49 276.959 1179.23 280.03 1176.99 282.294C1174.75 284.559 1171.72 285.833 1168.55 285.837Z" fill="#E6E6E6"/>
<path d="M1099.71 285.837H900.224C897.058 285.833 894.023 284.559 891.784 282.294C889.545 280.03 888.286 276.959 888.283 273.756V47.7779C888.286 44.575 889.545 41.5043 891.784 39.2395C894.023 36.9748 897.058 35.7008 900.224 35.6973H1099.71C1102.88 35.7008 1105.91 36.9748 1108.15 39.2395C1110.39 41.5043 1111.65 44.575 1111.65 47.7779V273.756C1111.65 276.959 1110.39 280.03 1108.15 282.294C1105.91 284.559 1102.88 285.833 1099.71 285.837Z" fill="#F2F2F2"/>
<path d="M957.823 42.8034H935.346C933.67 42.8015 932.063 42.1271 930.878 40.9281C929.692 39.7291 929.026 38.1035 929.024 36.4078V6.56163C929.026 4.86599 929.692 3.24037 930.878 2.04138C932.063 0.842382 933.67 0.167927 935.346 0.166016H957.823C959.5 0.167923 961.106 0.842338 962.292 2.04133C963.477 3.24033 964.143 4.86599 964.145 6.56163V36.4078C964.143 38.1035 963.477 39.7291 962.292 40.9281C961.106 42.1271 959.5 42.8015 957.823 42.8034Z" fill="#F2F2F2"/>
<path d="M987.325 149.158H960.633C959.702 149.157 958.809 148.783 958.151 148.116C957.493 147.45 957.122 146.547 957.121 145.605V104.389C957.122 103.447 957.493 102.544 958.151 101.878C958.809 101.212 959.702 100.837 960.633 100.836H987.325C988.257 100.837 989.149 101.212 989.808 101.878C990.466 102.544 990.837 103.447 990.838 104.389V145.605C990.837 146.547 990.466 147.45 989.808 148.116C989.149 148.783 988.257 149.157 987.325 149.158Z" fill="white"/>
<path d="M1039.3 149.158H1012.61C1011.68 149.157 1010.79 148.783 1010.13 148.116C1009.47 147.45 1009.1 146.547 1009.1 145.605V104.389C1009.1 103.447 1009.47 102.544 1010.13 101.878C1010.79 101.212 1011.68 100.837 1012.61 100.836H1039.3C1040.24 100.837 1041.13 101.212 1041.79 101.878C1042.45 102.544 1042.82 103.447 1042.82 104.389V145.605C1042.82 146.547 1042.45 147.45 1041.79 148.116C1041.13 148.783 1040.24 149.157 1039.3 149.158Z" fill="white"/>
<path d="M987.325 224.485H960.633C959.702 224.483 958.809 224.109 958.151 223.443C957.493 222.776 957.122 221.873 957.121 220.931V179.715C957.122 178.773 957.493 177.87 958.151 177.204C958.809 176.538 959.702 176.163 960.633 176.162H987.325C988.257 176.163 989.149 176.538 989.808 177.204C990.466 177.87 990.837 178.773 990.838 179.715V220.931C990.837 221.873 990.466 222.776 989.808 223.443C989.149 224.109 988.257 224.483 987.325 224.485Z" fill="white"/>
<path d="M1039.3 224.485H1012.61C1011.68 224.483 1010.79 224.109 1010.13 223.443C1009.47 222.776 1009.1 221.873 1009.1 220.931V179.715C1009.1 178.773 1009.47 177.87 1010.13 177.204C1010.79 176.538 1011.68 176.163 1012.61 176.162H1039.3C1040.24 176.163 1041.13 176.538 1041.79 177.204C1042.45 177.87 1042.82 178.773 1042.82 179.715V220.931C1042.82 221.873 1042.45 222.776 1041.79 223.443C1041.13 224.109 1040.24 224.483 1039.3 224.485Z" fill="white"/>
<path d="M509.674 338.184H379.023C378.65 338.184 378.293 338.035 378.03 337.768C377.766 337.501 377.618 337.14 377.618 336.763C377.618 336.386 377.766 336.025 378.03 335.758C378.293 335.492 378.65 335.342 379.023 335.342H509.674C510.047 335.342 510.404 335.492 510.668 335.758C510.931 336.025 511.079 336.386 511.079 336.763C511.079 337.14 510.931 337.501 510.668 337.768C510.404 338.035 510.047 338.184 509.674 338.184Z" fill="#E6E6E6"/>
<path d="M834.196 338.184H703.545C703.172 338.184 702.815 338.035 702.551 337.768C702.288 337.501 702.14 337.14 702.14 336.763C702.14 336.386 702.288 336.025 702.551 335.758C702.815 335.492 703.172 335.342 703.545 335.342H834.196C834.569 335.342 834.926 335.492 835.189 335.758C835.453 336.025 835.601 336.386 835.601 336.763C835.601 337.14 835.453 337.501 835.189 337.768C834.926 338.035 834.569 338.184 834.196 338.184Z" fill="#E6E6E6"/>
<path d="M1158.72 338.184H1028.07C1027.69 338.184 1027.34 338.035 1027.07 337.768C1026.81 337.501 1026.66 337.14 1026.66 336.763C1026.66 336.386 1026.81 336.025 1027.07 335.758C1027.34 335.492 1027.69 335.342 1028.07 335.342H1158.72C1159.09 335.342 1159.45 335.492 1159.71 335.758C1159.97 336.025 1160.12 336.386 1160.12 336.763C1160.12 337.14 1159.97 337.501 1159.71 337.768C1159.45 338.035 1159.09 338.184 1158.72 338.184Z" fill="#E6E6E6"/>
<path d="M584.132 183.362C584.132 158.261 564.005 98.6982 539.177 98.6982C514.348 98.6982 494.221 158.261 494.221 183.362C494.221 195.424 498.958 206.992 507.388 215.522C515.819 224.051 527.254 228.842 539.177 228.842C551.099 228.842 562.534 224.051 570.965 215.522C579.396 206.992 584.132 195.424 584.132 183.362Z" fill="#E6E6E6"/>
<path d="M572.893 183.362C572.893 158.261 552.766 98.6982 527.938 98.6982C503.11 98.6982 482.982 158.261 482.982 183.362C482.982 195.424 487.719 206.992 496.15 215.522C504.58 224.051 516.015 228.842 527.938 228.842C539.861 228.842 551.295 224.051 559.726 215.522C568.157 206.992 572.893 195.424 572.893 183.362Z" fill="#F2F2F2"/>
<path d="M529.343 285.054C528.97 285.054 528.613 284.904 528.349 284.637C528.086 284.371 527.938 284.009 527.938 283.633V156.942C527.938 156.565 528.086 156.203 528.349 155.937C528.613 155.67 528.97 155.521 529.343 155.521C529.715 155.521 530.073 155.67 530.336 155.937C530.6 156.203 530.748 156.565 530.748 156.942V283.633C530.748 284.009 530.6 284.371 530.336 284.637C530.073 284.904 529.715 285.054 529.343 285.054Z" fill="#CCCCCC"/>
<path d="M529.343 177.71C529.065 177.71 528.793 177.626 528.562 177.47C528.331 177.314 528.151 177.092 528.045 176.832C527.939 176.573 527.911 176.287 527.965 176.011C528.019 175.736 528.153 175.483 528.349 175.284L546.721 156.697C546.985 156.43 547.342 156.28 547.715 156.28C548.087 156.28 548.445 156.43 548.708 156.697C548.971 156.963 549.119 157.325 549.119 157.701C549.119 158.078 548.971 158.44 548.708 158.706L530.336 177.294C530.206 177.426 530.051 177.531 529.88 177.602C529.71 177.673 529.527 177.71 529.343 177.71Z" fill="#CCCCCC"/>
<path d="M1302.01 183.362C1302.01 158.261 1281.89 98.6982 1257.06 98.6982C1232.23 98.6982 1212.1 158.261 1212.1 183.362C1212.1 195.424 1216.84 206.992 1225.27 215.522C1233.7 224.051 1245.13 228.842 1257.06 228.842C1268.98 228.842 1280.41 224.051 1288.85 215.522C1297.28 206.992 1302.01 195.424 1302.01 183.362Z" fill="#E6E6E6"/>
<path d="M1290.77 183.362C1290.77 158.261 1270.65 98.6982 1245.82 98.6982C1220.99 98.6982 1200.86 158.261 1200.86 183.362C1200.86 195.424 1205.6 206.992 1214.03 215.522C1222.46 224.051 1233.9 228.842 1245.82 228.842C1257.74 228.842 1269.18 224.051 1277.61 215.522C1286.04 206.992 1290.77 195.424 1290.77 183.362Z" fill="#F2F2F2"/>
<path d="M1247.22 285.054C1246.85 285.054 1246.49 284.904 1246.23 284.637C1245.97 284.371 1245.82 284.009 1245.82 283.633V156.942C1245.82 156.565 1245.97 156.203 1246.23 155.937C1246.49 155.67 1246.85 155.521 1247.22 155.521C1247.6 155.521 1247.95 155.67 1248.22 155.937C1248.48 156.203 1248.63 156.565 1248.63 156.942V283.633C1248.63 284.009 1248.48 284.371 1248.22 284.637C1247.95 284.904 1247.6 285.054 1247.22 285.054Z" fill="#CCCCCC"/>
<path d="M1247.22 177.71C1246.95 177.71 1246.67 177.626 1246.44 177.47C1246.21 177.314 1246.03 177.092 1245.93 176.832C1245.82 176.573 1245.79 176.287 1245.85 176.011C1245.9 175.736 1246.03 175.483 1246.23 175.284L1264.6 156.697C1264.87 156.43 1265.22 156.28 1265.6 156.28C1265.97 156.28 1266.32 156.43 1266.59 156.697C1266.85 156.963 1267 157.325 1267 157.701C1267 158.078 1266.85 158.44 1266.59 158.706L1248.22 177.294C1248.09 177.426 1247.93 177.531 1247.76 177.602C1247.59 177.673 1247.41 177.71 1247.22 177.71Z" fill="#CCCCCC"/>
<path d="M782.216 199.141H751.309C750.378 199.14 749.485 198.766 748.827 198.1C748.169 197.433 747.798 196.53 747.797 195.588V164.321C747.798 163.379 748.169 162.475 748.827 161.809C749.485 161.143 750.378 160.768 751.309 160.768H782.216C783.148 160.768 784.04 161.143 784.699 161.809C785.357 162.475 785.728 163.379 785.728 164.321V195.588C785.728 196.53 785.357 197.433 784.699 198.1C784.04 198.766 783.148 199.14 782.216 199.141Z" fill="#3F3D56"/>
<path d="M1082.24 216.26C1082.58 216.35 1082.9 216.514 1083.16 216.739C1083.43 216.965 1083.65 217.248 1083.8 217.567C1083.95 217.887 1084.02 218.235 1084.03 218.589C1084.03 218.942 1083.95 219.291 1083.81 219.611L1089.91 225.571L1085.61 226.547L1080.47 220.738C1079.95 220.453 1079.56 219.987 1079.36 219.427C1079.16 218.868 1079.17 218.254 1079.39 217.702C1079.61 217.15 1080.02 216.698 1080.55 216.433C1081.07 216.167 1081.68 216.106 1082.24 216.26Z" fill="#FFB8B8"/>
<path d="M1090.83 231.938L1083.3 224.786C1083.2 224.687 1083.11 224.568 1083.05 224.436C1083 224.305 1082.96 224.162 1082.96 224.018C1082.96 223.874 1082.99 223.73 1083.04 223.596C1083.09 223.462 1083.17 223.34 1083.27 223.238L1084.81 221.661C1084.99 221.474 1085.24 221.361 1085.49 221.343C1085.75 221.325 1086.01 221.402 1086.22 221.562L1092.53 226.444L1096.47 216.778C1096.63 216.396 1096.86 216.051 1097.15 215.764C1097.44 215.476 1097.79 215.253 1098.17 215.107C1098.55 214.96 1098.96 214.895 1099.37 214.914C1099.78 214.934 1100.18 215.037 1100.54 215.219C1101.12 215.501 1101.59 215.966 1101.88 216.542C1102.18 217.119 1102.28 217.776 1102.17 218.416C1101.46 222.813 1097.13 228.625 1094.61 231.699C1094.27 232.118 1093.8 232.418 1093.28 232.559C1092.76 232.7 1092.21 232.675 1091.71 232.487C1091.38 232.364 1091.09 232.178 1090.83 231.938Z" fill="#FF9C77"/>
<path d="M1086.61 225L1081.06 216.859C1080.99 216.754 1080.96 216.625 1080.98 216.499C1081.01 216.374 1081.08 216.263 1081.18 216.191L1081.4 216.035C1081.45 215.999 1081.51 215.974 1081.57 215.961C1081.63 215.948 1081.7 215.947 1081.76 215.958C1081.82 215.97 1081.88 215.993 1081.93 216.027C1081.98 216.062 1082.03 216.106 1082.06 216.158L1087.61 224.299C1087.65 224.351 1087.67 224.409 1087.68 224.471C1087.7 224.533 1087.7 224.596 1087.69 224.658C1087.68 224.72 1087.65 224.78 1087.62 224.833C1087.59 224.886 1087.54 224.931 1087.49 224.967L1087.27 225.122C1087.16 225.195 1087.04 225.222 1086.91 225.199C1086.79 225.176 1086.68 225.104 1086.61 225Z" fill="white"/>
<path d="M1085.06 225.06L1080.45 218.304C1080.26 218.015 1080.18 217.659 1080.24 217.315C1080.31 216.97 1080.5 216.665 1080.79 216.466L1081.25 216.139L1087.34 225.071L1086.87 225.398C1086.59 225.596 1086.24 225.673 1085.9 225.609C1085.55 225.546 1085.25 225.348 1085.06 225.06Z" fill="#3F3D56"/>
<path d="M1085.61 283.375L1082.72 283.038L1083.1 271.646L1086.9 272.09L1085.61 283.375Z" fill="#FFB8B8"/>
<path d="M1086.03 286.297L1076.7 285.209L1076.71 285.089C1076.77 284.607 1076.92 284.14 1077.15 283.716C1077.38 283.292 1077.7 282.918 1078.07 282.617C1078.45 282.315 1078.88 282.091 1079.34 281.958C1079.8 281.825 1080.29 281.785 1080.76 281.841L1086.46 282.506L1086.03 286.297Z" fill="#2F2E41"/>
<path d="M1119.24 281.211L1116.46 282.081L1111.82 271.641L1115.93 270.357L1119.24 281.211Z" fill="#FFB8B8"/>
<path d="M1120.79 283.718L1111.82 286.521L1111.78 286.406C1111.64 285.942 1111.59 285.455 1111.63 284.971C1111.68 284.488 1111.82 284.018 1112.04 283.589C1112.27 283.16 1112.57 282.779 1112.94 282.469C1113.31 282.16 1113.74 281.926 1114.19 281.783L1119.67 280.071L1120.79 283.718Z" fill="#2F2E41"/>
<path d="M1082.38 280.749C1082.09 280.657 1081.84 280.453 1081.69 280.181C1081.55 279.908 1081.51 279.588 1081.59 279.288L1083.33 258.985C1083.41 258.059 1083.7 257.163 1084.18 256.366L1094.73 238.648L1104.17 240.365L1104.23 240.391C1108.82 243.234 1112.9 257.024 1116.84 270.359C1117.45 272.433 1118.09 274.577 1118.7 276.626C1118.82 276.919 1118.82 277.245 1118.7 277.536C1118.58 277.827 1118.35 278.058 1118.06 278.182L1115.2 279.4C1114.93 279.516 1114.63 279.526 1114.35 279.428C1114.07 279.33 1113.84 279.13 1113.7 278.868L1099 251.642C1098.98 251.608 1098.96 251.579 1098.93 251.558C1098.89 251.536 1098.86 251.523 1098.82 251.519C1098.78 251.514 1098.74 251.518 1098.71 251.532C1098.67 251.546 1098.64 251.569 1098.62 251.598L1090.08 261.365L1086.95 279.976L1086.94 280.017C1086.82 280.283 1086.62 280.498 1086.36 280.624C1086.1 280.75 1085.81 280.777 1085.53 280.701L1082.46 280.76L1082.44 280.76L1082.38 280.749Z" fill="#2F2E41"/>
<path d="M1094.22 240.589L1094.16 240.57L1094.14 240.509C1094.1 240.361 1089.78 225.584 1093.67 216.164L1093.67 216.155C1093.79 215.931 1096.5 210.657 1099.65 210.129L1099.74 210.115L1100.76 212.054C1101.08 212.38 1106.63 218.207 1104.11 228.221C1104.34 229.042 1107.4 240.316 1105.74 242.001C1105.13 242.425 1104.39 242.613 1103.66 242.529C1100.45 242.251 1097.28 241.6 1094.22 240.589Z" fill="#FF9C77"/>
<path d="M1099 208.283C1103.07 208.283 1106.37 204.948 1106.37 200.835C1106.37 196.722 1103.07 193.388 1099 193.388C1094.94 193.388 1091.64 196.722 1091.64 200.835C1091.64 204.948 1094.94 208.283 1099 208.283Z" fill="#2F2E41"/>
<path d="M1096.08 208.248C1099.3 208.248 1101.91 205.606 1101.91 202.347C1101.91 199.088 1099.3 196.446 1096.08 196.446C1092.86 196.446 1090.25 199.088 1090.25 202.347C1090.25 205.606 1092.86 208.248 1096.08 208.248Z" fill="#FFB8B8"/>
<path d="M1099.83 208.078C1099.3 208.269 1098.65 208.437 1098.23 208.041C1098.06 207.813 1097.95 207.537 1097.94 207.249C1097.92 206.961 1097.99 206.675 1098.14 206.427C1098.44 205.941 1098.68 205.42 1098.87 204.876C1098.92 204.467 1098.87 204.051 1098.72 203.668C1098.57 203.285 1098.32 202.948 1098 202.69C1097.37 202.202 1096.65 201.838 1095.89 201.615L1091.8 200.147C1090.74 199.894 1089.8 199.276 1089.14 198.4C1088.8 197.67 1088.74 196.837 1088.97 196.065C1089.21 195.293 1089.72 194.639 1090.41 194.23C1091.1 193.876 1091.87 193.684 1092.64 193.669C1093.42 193.654 1094.19 193.815 1094.9 194.141C1095.68 194.508 1096.47 194.831 1097.29 195.109C1098.92 195.545 1100.78 195.154 1102.22 196.086C1102.82 196.551 1103.31 197.163 1103.62 197.865C1103.93 198.566 1104.06 199.336 1104.01 200.104C1103.88 201.648 1103.48 203.155 1102.81 204.547C1102.49 205.405 1102.04 206.205 1101.47 206.914C1101.19 207.26 1100.84 207.533 1100.43 207.71C1100.02 207.887 1099.58 207.963 1099.14 207.93L1099.83 208.078Z" fill="#2F2E41"/>
<path d="M1105.18 202.036C1107.8 202.036 1109.93 199.885 1109.93 197.232C1109.93 194.578 1107.8 192.427 1105.18 192.427C1102.56 192.427 1100.43 194.578 1100.43 197.232C1100.43 199.885 1102.56 202.036 1105.18 202.036Z" fill="#2F2E41"/>
<path d="M1097.34 204.199C1097.34 204.112 1097.37 204.026 1097.41 203.951C1097.45 203.876 1097.52 203.815 1097.59 203.774C1097.67 203.733 1097.75 203.714 1097.84 203.718C1097.93 203.723 1098.01 203.751 1098.08 203.8C1098.15 203.848 1098.21 203.916 1098.25 203.995C1098.28 204.074 1098.3 204.162 1098.29 204.248C1098.28 204.335 1098.25 204.418 1098.19 204.487C1098.14 204.557 1098.07 204.611 1097.99 204.644V205.7C1097.99 205.724 1097.99 205.748 1097.98 205.77C1097.97 205.792 1097.96 205.812 1097.94 205.829C1097.93 205.846 1097.91 205.859 1097.88 205.868C1097.86 205.877 1097.84 205.882 1097.82 205.882C1097.79 205.882 1097.77 205.877 1097.75 205.868C1097.73 205.859 1097.71 205.846 1097.69 205.829C1097.67 205.812 1097.66 205.792 1097.65 205.77C1097.64 205.748 1097.64 205.724 1097.64 205.7V204.644C1097.55 204.608 1097.48 204.546 1097.42 204.467C1097.37 204.388 1097.34 204.295 1097.34 204.199Z" fill="white"/>
<path d="M1082.53 221.304C1082.88 221.269 1083.23 221.311 1083.56 221.428C1083.89 221.545 1084.19 221.734 1084.44 221.981C1084.69 222.228 1084.88 222.527 1085.01 222.858C1085.13 223.188 1085.18 223.542 1085.15 223.894L1092.93 227.326L1089.23 229.758L1082.41 226.126C1081.83 226.041 1081.3 225.744 1080.92 225.289C1080.54 224.835 1080.34 224.255 1080.36 223.661C1080.37 223.066 1080.6 222.498 1081 222.064C1081.4 221.629 1081.95 221.359 1082.53 221.304Z" fill="#FFB8B8"/>
<path d="M1095.99 232.969L1086.46 228.923C1086.33 228.867 1086.21 228.785 1086.11 228.682C1086.01 228.579 1085.93 228.457 1085.88 228.322C1085.83 228.188 1085.8 228.045 1085.8 227.9C1085.81 227.756 1085.84 227.614 1085.9 227.482L1086.8 225.462C1086.9 225.223 1087.09 225.03 1087.33 224.922C1087.57 224.813 1087.84 224.796 1088.08 224.872L1095.69 227.222L1096.05 216.772C1096.06 216.36 1096.16 215.955 1096.34 215.582C1096.51 215.21 1096.76 214.878 1097.07 214.606C1097.37 214.335 1097.73 214.13 1098.12 214.004C1098.51 213.879 1098.92 213.835 1099.32 213.876C1099.96 213.938 1100.56 214.207 1101.04 214.643C1101.51 215.08 1101.84 215.66 1101.96 216.297C1102.8 220.671 1100.74 227.646 1099.44 231.415C1099.26 231.929 1098.93 232.374 1098.49 232.689C1098.06 233.005 1097.53 233.175 1096.99 233.177C1096.65 233.176 1096.31 233.106 1095.99 232.969Z" fill="#FF9C77"/>
<path d="M119.122 230.497H104.531V226.016C109.141 222.77 113.226 223.052 118.6 226.28L119.122 230.497Z" fill="#FF9C77"/>
<path d="M101.152 310.089H97.9576L97.48 297.625H101.152V310.089Z" fill="#FFB8B8"/>
<path d="M101.967 313.222L91.667 313.222V313.09C91.667 312.557 91.7707 312.03 91.9721 311.538C92.1736 311.046 92.4689 310.599 92.8412 310.222C93.2134 309.845 93.6554 309.547 94.1418 309.343C94.6282 309.139 95.1495 309.034 95.6759 309.034L101.967 309.034L101.967 313.222Z" fill="#2F2E41"/>
<path d="M119.144 310.089H122.338L122.815 297.625H119.143L119.144 310.089Z" fill="#FFB8B8"/>
<path d="M118.329 309.034L124.62 309.034C125.146 309.034 125.668 309.139 126.154 309.343C126.641 309.547 127.083 309.845 127.455 310.222C127.827 310.599 128.122 311.046 128.324 311.538C128.525 312.03 128.629 312.557 128.629 313.09V313.222L118.329 313.222L118.329 309.034Z" fill="#2F2E41"/>
<path d="M119.228 308.492C118.962 308.491 118.703 308.399 118.495 308.23C118.287 308.062 118.142 307.826 118.083 307.564L110.166 272.628C110.149 272.539 110.101 272.459 110.031 272.402C109.961 272.346 109.874 272.316 109.784 272.318H109.783C109.693 272.316 109.605 272.347 109.536 272.404C109.466 272.462 109.419 272.542 109.402 272.631L102.132 307.332C102.075 307.597 101.93 307.835 101.722 308.006C101.513 308.177 101.253 308.271 100.985 308.272H97.5211C97.3613 308.272 97.2032 308.239 97.0565 308.175C96.9098 308.111 96.7775 308.017 96.6679 307.899C96.5583 307.782 96.4736 307.643 96.4191 307.491C96.3645 307.339 96.3412 307.177 96.3507 307.016L98.9304 263.034L99.9684 262.724L99.9879 262.724L120.378 262.904L124.721 306.837C124.736 306.994 124.72 307.152 124.674 307.303C124.628 307.453 124.553 307.593 124.453 307.714C124.353 307.834 124.231 307.934 124.093 308.006C123.954 308.078 123.803 308.122 123.648 308.135L119.322 308.488C119.29 308.491 119.259 308.492 119.228 308.492Z" fill="#2F2E41"/>
<path d="M110.808 222.466C114.342 222.466 117.207 219.567 117.207 215.992C117.207 212.416 114.342 209.518 110.808 209.518C107.273 209.518 104.408 212.416 104.408 215.992C104.408 219.567 107.273 222.466 110.808 222.466Z" fill="#FFB8B8"/>
<path d="M106.887 267.856C105.765 267.87 104.646 267.711 103.571 267.384C102.615 267.092 101.728 266.606 100.964 265.954C100.201 265.302 99.5771 264.5 99.1318 263.595C98.9907 263.323 98.9595 263.006 99.0446 262.711C99.7503 260.274 103.161 247.607 100.985 237.537C100.678 236.138 100.652 234.691 100.91 233.282C101.167 231.873 101.703 230.531 102.484 229.336C103.248 228.15 104.239 227.132 105.4 226.342C106.56 225.553 107.866 225.007 109.24 224.739C109.601 224.668 109.963 224.609 110.318 224.565C111.836 224.376 113.377 224.529 114.83 225.012C116.283 225.496 117.612 226.298 118.723 227.363C119.866 228.447 120.759 229.775 121.336 231.249C121.913 232.724 122.161 234.309 122.062 235.892L120.39 263.043C120.378 263.247 120.314 263.444 120.205 263.615C120.095 263.786 119.944 263.925 119.765 264.019C117.839 265.04 112.053 267.856 106.887 267.856Z" fill="#3F3D56"/>
<path d="M118.037 211.226C117.372 209.536 116.155 208.127 114.587 207.236C113.02 206.344 111.198 206.024 109.425 206.327L111.443 207.977C108.936 208.062 106.297 207.881 104.507 209.658C105.077 209.642 105.824 210.875 106.394 210.859C105.86 210.897 105.347 211.079 104.907 211.386C104.467 211.694 104.116 212.114 103.892 212.605C103.456 213.599 103.354 214.71 103.601 215.767C104.247 217.324 104.998 218.834 105.849 220.285C105.775 217.71 110.786 211.567 113.233 212.209C111.99 212.675 110.911 213.504 110.133 214.59C111.798 213.74 113.681 213.428 115.527 213.697C115.948 213.795 116.383 213.82 116.812 213.77C117.076 213.717 117.321 213.597 117.526 213.421C117.73 213.245 117.886 213.019 117.98 212.765C118.073 212.51 118.1 212.235 118.059 211.967C118.017 211.699 117.909 211.446 117.743 211.232L118.037 211.226Z" fill="#2F2E41"/>
<path d="M106.446 266.226C106.285 266.225 106.125 266.191 105.977 266.125L93.8351 260.764C93.5772 260.652 93.3679 260.45 93.2457 260.194C93.1235 259.939 93.0965 259.647 93.1699 259.373L101.208 228.655C101.357 228.083 101.618 227.547 101.974 227.079C102.331 226.61 102.776 226.219 103.284 225.926C103.793 225.634 104.353 225.448 104.933 225.377C105.514 225.307 106.102 225.354 106.664 225.517L109.878 226.445L107.615 265.109C107.604 265.299 107.547 265.484 107.449 265.648C107.352 265.812 107.217 265.95 107.056 266.05C106.873 266.164 106.662 266.225 106.446 266.226Z" fill="#FF9C77"/>
<path d="M128.918 259.373L128.384 257.335L127.61 254.372L127.238 252.952L126.464 249.997L120.88 228.654C120.731 228.082 120.471 227.546 120.115 227.077C119.758 226.609 119.313 226.217 118.805 225.925C118.296 225.633 117.736 225.446 117.155 225.376C116.575 225.306 115.986 225.354 115.424 225.517L112.212 226.445L113.804 253.64L113.968 256.478L114.072 258.268V258.271L114.239 261.094L114.474 265.108C114.493 265.41 114.624 265.693 114.841 265.9C115.058 266.107 115.345 266.224 115.643 266.226C115.805 266.225 115.964 266.191 116.112 266.126L128.254 260.764C128.512 260.653 128.721 260.45 128.844 260.194C128.966 259.939 128.992 259.647 128.918 259.373Z" fill="#FF9C77"/>
<path d="M127.238 252.952L113.968 256.478L113.803 253.64L126.464 249.996L127.238 252.952Z" fill="#CCCCCC"/>
<path d="M128.384 257.335L114.238 261.095L114.071 258.271V258.268L127.61 254.372L128.384 257.335Z" fill="#CCCCCC"/>
<path d="M108.122 254.251L107.957 257.037L94.9429 253.116L95.7057 250.199L108.122 254.251Z" fill="#CCCCCC"/>
<path d="M107.85 258.872L94.5704 254.536L93.8062 257.46L107.689 261.642L107.85 258.872Z" fill="#CCCCCC"/>
<path d="M94.8012 261.786C95.1972 261.681 95.5656 261.49 95.8806 261.226C96.1957 260.962 96.4496 260.631 96.6246 260.256C96.7996 259.882 96.8913 259.474 96.8933 259.06C96.8954 258.646 96.8077 258.236 96.6364 257.86L102.88 238.032L98.4526 237.094L92.7286 256.534C92.1234 256.867 91.6599 257.413 91.426 258.069C91.192 258.724 91.204 259.444 91.4594 260.091C91.7149 260.739 92.1962 261.268 92.8121 261.581C93.428 261.893 94.1358 261.966 94.8012 261.786Z" fill="#FFB8B8"/>
<path d="M103.053 228.284C104.324 228.415 105.04 229.861 104.723 231.662L103.207 240.302C103.093 240.95 102.566 241.462 102.128 241.352L96.9979 240.054C96.6032 239.954 96.4578 239.387 96.6815 238.819L99.7614 231.003C99.9697 230.264 100.397 229.607 100.986 229.121C101.574 228.635 102.296 228.343 103.053 228.284Z" fill="#3F3D56"/>
<path d="M110.784 203.874C112.95 203.874 115.03 204.727 116.585 206.253C118.14 207.778 119.048 209.855 119.115 212.045H120.685C120.823 212.045 120.956 212.101 121.053 212.2C121.151 212.299 121.206 212.433 121.206 212.573V214.681C121.206 214.821 121.151 214.955 121.053 215.054C120.956 215.153 120.823 215.208 120.685 215.208H102.967C102.829 215.208 102.697 215.153 102.599 215.054C102.501 214.955 102.446 214.821 102.446 214.681V212.309C102.446 211.201 102.662 210.104 103.081 209.081C103.5 208.058 104.114 207.128 104.888 206.345C105.663 205.561 106.582 204.94 107.593 204.516C108.605 204.092 109.689 203.874 110.784 203.874Z" fill="#FF9C77"/>
<path d="M111.78 256.013H108.097C107.979 256.014 107.865 255.969 107.777 255.889C107.69 255.809 107.635 255.698 107.624 255.579L106.887 247.935H112.99L112.253 255.579C112.242 255.698 112.187 255.809 112.1 255.889C112.012 255.969 111.898 256.014 111.78 256.013Z" fill="#E6E6E6"/>
<path d="M112.981 248.896H106.897C106.771 248.896 106.65 248.845 106.561 248.755C106.472 248.665 106.422 248.543 106.421 248.415V247.261C106.422 247.134 106.472 247.011 106.561 246.921C106.65 246.831 106.771 246.78 106.897 246.78H112.981C113.107 246.78 113.228 246.831 113.317 246.921C113.406 247.011 113.456 247.134 113.456 247.261V248.415C113.456 248.543 113.406 248.665 113.317 248.755C113.228 248.845 113.107 248.896 112.981 248.896Z" fill="#CCCCCC"/>
<path d="M110.018 251.913C110.161 251.93 110.303 251.958 110.442 251.997L120.25 243.488L119.677 240.365L124.222 238.874L125.768 244.302C125.893 244.74 125.873 245.208 125.713 245.634C125.553 246.061 125.26 246.423 124.879 246.667L112.457 254.62C112.466 255.182 112.305 255.733 111.997 256.2C111.689 256.668 111.247 257.029 110.73 257.236C110.214 257.443 109.648 257.486 109.107 257.36C108.566 257.233 108.075 256.943 107.701 256.528C107.327 256.113 107.087 255.592 107.012 255.035C106.938 254.479 107.032 253.912 107.284 253.411C107.535 252.91 107.932 252.498 108.42 252.231C108.908 251.963 109.466 251.853 110.018 251.913Z" fill="#FFB8B8"/>
<path d="M120.276 228.997C121.634 228.613 122.991 229.658 123.445 231.44L125.627 239.988C125.79 240.629 125.473 241.31 124.977 241.382L119.165 242.228C118.717 242.293 118.323 241.829 118.307 241.218L118.081 232.806C117.995 232.017 118.162 231.221 118.557 230.535C118.952 229.849 119.555 229.31 120.276 228.997Z" fill="#3F3D56"/>
<path d="M186.34 252.124H181.915C181.773 252.125 181.636 252.071 181.53 251.975C181.425 251.878 181.36 251.745 181.346 251.602L180.46 242.418H187.794L186.908 251.602C186.895 251.745 186.829 251.878 186.724 251.975C186.619 252.071 186.482 252.125 186.34 252.124Z" fill="#E6E6E6"/>
<path d="M187.782 243.573H180.472C180.321 243.573 180.175 243.512 180.068 243.404C179.961 243.296 179.901 243.149 179.901 242.996V241.609C179.901 241.456 179.961 241.309 180.068 241.201C180.175 241.092 180.321 241.031 180.472 241.031H187.782C187.933 241.031 188.078 241.092 188.185 241.201C188.292 241.309 188.353 241.456 188.353 241.609V242.996C188.353 243.149 188.292 243.296 188.185 243.404C188.078 243.512 187.933 243.573 187.782 243.573Z" fill="#CCCCCC"/>
<path d="M229.813 306.06C226.598 301.734 224.056 296.935 222.276 291.831C222.173 291.526 222.181 291.193 222.297 290.893C222.414 290.592 222.632 290.344 222.912 290.191L233.914 284.227C234.092 284.13 234.29 284.075 234.492 284.067C234.694 284.058 234.895 284.097 235.08 284.179C235.269 284.262 235.436 284.387 235.57 284.546C235.703 284.704 235.8 284.891 235.851 285.092C237.131 290.011 239.538 294.556 242.877 298.359C243.014 298.513 243.115 298.698 243.172 298.898C243.228 299.098 243.238 299.309 243.202 299.513C243.167 299.715 243.087 299.906 242.969 300.071C242.85 300.237 242.695 300.373 242.517 300.469L231.515 306.433C231.234 306.585 230.908 306.631 230.596 306.562C230.285 306.494 230.007 306.316 229.813 306.06Z" fill="#CCCCCC"/>
<path d="M230.563 305.49C230.623 305.564 230.706 305.616 230.798 305.635C230.891 305.655 230.988 305.641 231.071 305.596L242.073 299.632C242.126 299.604 242.173 299.563 242.208 299.514C242.243 299.465 242.267 299.408 242.277 299.348C242.289 299.284 242.285 299.219 242.268 299.157C242.25 299.095 242.219 299.038 242.175 298.991C238.738 295.076 236.26 290.397 234.942 285.333C234.927 285.271 234.898 285.213 234.856 285.164C234.815 285.114 234.763 285.076 234.705 285.05C234.65 285.025 234.59 285.013 234.529 285.016C234.469 285.018 234.41 285.035 234.357 285.065L223.356 291.028C223.272 291.074 223.207 291.147 223.172 291.236C223.137 291.325 223.133 291.424 223.162 291.515C224.91 296.528 227.406 301.241 230.563 305.49Z" fill="white"/>
<path d="M234.636 292.739L228.644 295.414C228.417 295.516 228.158 295.522 227.926 295.431C227.694 295.34 227.507 295.159 227.406 294.929L227.258 294.589C227.158 294.359 227.152 294.097 227.242 293.863C227.332 293.628 227.51 293.438 227.738 293.337L233.73 290.661C233.958 290.559 234.216 290.553 234.448 290.644C234.68 290.735 234.867 290.916 234.968 291.146L235.116 291.486C235.217 291.716 235.222 291.978 235.132 292.213C235.042 292.447 234.864 292.637 234.636 292.739Z" fill="#CCCCCC"/>
<path d="M236.827 296.855L230.835 299.531C230.607 299.632 230.349 299.638 230.117 299.547C229.885 299.456 229.698 299.276 229.597 299.045L229.449 298.706C229.348 298.475 229.343 298.214 229.433 297.979C229.523 297.744 229.701 297.555 229.929 297.453L235.921 294.777C236.149 294.675 236.407 294.67 236.639 294.761C236.871 294.852 237.058 295.032 237.159 295.262L237.307 295.602C237.408 295.833 237.413 296.094 237.323 296.329C237.233 296.564 237.055 296.753 236.827 296.855Z" fill="#CCCCCC"/>
<path d="M222.774 293.424C222.361 293.155 222.01 292.798 221.748 292.377C221.486 291.956 221.319 291.482 221.257 290.989C221.195 290.496 221.242 289.994 221.392 289.521C221.543 289.047 221.794 288.613 222.129 288.249L219.602 251.97L226.881 252.684L227.08 288.212C227.649 288.821 227.976 289.62 228.001 290.457C228.026 291.294 227.747 292.111 227.216 292.753C226.685 293.396 225.94 293.819 225.121 293.943C224.302 294.066 223.467 293.882 222.774 293.424Z" fill="#A0616A"/>
<path d="M221.249 264.161C221.079 264.037 220.938 263.876 220.838 263.689C220.737 263.503 220.679 263.296 220.668 263.084L220.134 253.306C220.082 252.337 220.385 251.383 220.987 250.627C221.588 249.871 222.445 249.368 223.392 249.213C224.338 249.059 225.308 249.264 226.114 249.79C226.92 250.316 227.505 251.126 227.756 252.062L230.098 260.804C230.196 261.169 230.146 261.558 229.96 261.886C229.775 262.213 229.468 262.453 229.108 262.552L222.443 264.381C222.24 264.437 222.028 264.446 221.821 264.408C221.615 264.37 221.419 264.285 221.249 264.161Z" fill="#3F3D56"/>
<path d="M208.843 338.026L205.006 338.025L203.18 323.051H208.844L208.843 338.026Z" fill="#A0616A"/>
<path d="M201.408 336.917H209.666V341.631H197.604V340.764C197.604 340.259 197.703 339.759 197.894 339.292C198.085 338.825 198.365 338.401 198.718 338.044C199.072 337.687 199.491 337.403 199.952 337.21C200.414 337.017 200.908 336.917 201.408 336.917Z" fill="#2F2E41"/>
<path d="M223.243 338.026L219.406 338.025L217.58 323.051H223.244L223.243 338.026Z" fill="#A0616A"/>
<path d="M215.807 336.917H224.065V341.631H212.004V340.764C212.004 340.259 212.102 339.759 212.293 339.292C212.484 338.825 212.765 338.401 213.118 338.044C213.471 337.687 213.89 337.403 214.352 337.21C214.813 337.017 215.308 336.917 215.807 336.917Z" fill="#2F2E41"/>
<path d="M208.662 330.482L204.437 330.278C204.077 330.261 203.738 330.104 203.488 329.842C203.239 329.579 203.098 329.229 203.096 328.865C201.982 311.472 200.439 292.823 202.801 285.619C202.799 285.414 202.842 285.21 202.925 285.023C203.009 284.836 203.131 284.669 203.284 284.534C203.437 284.4 203.617 284.3 203.812 284.242C204.006 284.184 204.211 284.169 204.412 284.198L221.314 286.68C221.648 286.728 221.953 286.895 222.175 287.153C222.397 287.41 222.519 287.739 222.52 288.08C224.678 296.611 224.775 312.079 224.694 328.152C224.695 328.34 224.66 328.526 224.59 328.701C224.519 328.875 224.416 329.033 224.285 329.167C224.154 329.3 223.998 329.406 223.827 329.478C223.655 329.551 223.471 329.588 223.285 329.588H218.73C218.394 329.589 218.069 329.468 217.814 329.248C217.558 329.027 217.39 328.72 217.339 328.384L214.529 310.312C214.488 310.047 214.353 309.807 214.151 309.635C213.948 309.463 213.691 309.371 213.426 309.375C213.162 309.38 212.908 309.482 212.712 309.662C212.515 309.841 212.39 310.086 212.359 310.352L210.128 329.228C210.086 329.573 209.921 329.892 209.663 330.123C209.405 330.354 209.073 330.482 208.729 330.483C208.707 330.483 208.684 330.483 208.662 330.482Z" fill="#2F2E41"/>
<path d="M211.636 288.082C209.169 286.616 206.435 285.668 203.597 285.297C203.411 285.278 203.23 285.222 203.066 285.131C202.901 285.04 202.757 284.916 202.642 284.767C202.523 284.617 202.437 284.444 202.387 284.258C202.337 284.073 202.324 283.88 202.35 283.69L206.4 253.272C206.633 251.492 207.313 249.802 208.374 248.364C209.435 246.925 210.842 245.784 212.461 245.051C214.029 244.322 215.755 244.011 217.476 244.148C219.196 244.284 220.853 244.863 222.289 245.831C222.428 245.924 222.564 246.019 222.698 246.117C224.352 247.343 225.61 249.037 226.314 250.985C227.018 252.934 227.136 255.049 226.654 257.066C224.17 267.344 223.317 284.194 223.171 287.467C223.16 287.746 223.067 288.016 222.904 288.241C222.742 288.467 222.517 288.639 222.258 288.735C220.73 289.297 219.117 289.588 217.492 289.594C215.444 289.607 213.427 289.086 211.636 288.082Z" fill="#3F3D56"/>
<path d="M215.024 240.922C219.27 240.922 222.712 237.439 222.712 233.143C222.712 228.848 219.27 225.365 215.024 225.365C210.778 225.365 207.335 228.848 207.335 233.143C207.335 237.439 210.778 240.922 215.024 240.922Z" fill="#A0616A"/>
<path d="M220.465 239.297C220.143 239.648 219.729 239.899 219.272 240.02C218.815 240.141 218.333 240.127 217.883 239.981C217.433 239.834 217.033 239.56 216.732 239.192C216.43 238.824 216.239 238.376 216.18 237.902C216.165 237.738 216.166 237.573 216.183 237.409C216.463 236.51 216.632 235.578 216.686 234.637C216.657 234.391 216.566 234.157 216.423 233.956C215.28 232.408 212.597 234.649 211.518 233.247C210.857 232.388 211.634 231.035 211.126 230.074C210.457 228.806 208.472 229.431 207.228 228.737C205.843 227.965 205.926 225.816 206.838 224.508C207.431 223.736 208.185 223.106 209.047 222.662C209.908 222.218 210.856 221.972 211.822 221.941C213.757 221.895 215.679 222.275 217.454 223.053C219.551 223.743 221.402 225.041 222.776 226.786C223.487 227.93 223.938 229.22 224.095 230.562C224.253 231.904 224.113 233.265 223.687 234.546C222.935 236.33 221.84 237.945 220.465 239.297Z" fill="#2F2E41"/>
<path d="M226.553 246.859C226.419 246.219 225.264 245.345 223.611 244.633C220.954 243.544 218.081 243.106 215.225 243.353C212.369 243.601 209.611 244.528 207.177 246.058C207.007 246.067 206.845 246.132 206.715 246.244C206.586 246.356 206.496 246.507 206.46 246.675L200.9 271.551L200.177 274.791L199.698 276.935L198.975 280.165L198.59 281.891C198.565 282.001 198.564 282.116 198.587 282.226C198.61 282.337 198.655 282.442 198.721 282.533C198.787 282.625 198.871 282.701 198.969 282.757C199.066 282.812 199.174 282.847 199.285 282.857L223.292 284.953C223.313 284.953 223.339 284.956 223.36 284.956C223.559 284.955 223.749 284.878 223.893 284.741C224.037 284.603 224.124 284.415 224.137 284.215L224.365 280.697L224.61 276.935L224.716 275.304L224.957 271.551L226.557 246.9V246.878L226.553 246.859Z" fill="#FF9C77"/>
<path d="M187.163 248.425C187.201 248.596 187.226 248.769 187.238 248.944L200.685 256.792L203.953 254.889L207.438 259.504L200.446 264.545L185.104 252.302C184.479 252.536 183.797 252.572 183.151 252.405C182.505 252.238 181.924 251.875 181.486 251.366C181.048 250.857 180.773 250.225 180.699 249.554C180.625 248.884 180.754 248.206 181.07 247.611C181.386 247.017 181.873 246.533 182.467 246.226C183.06 245.918 183.733 245.801 184.394 245.889C185.056 245.977 185.675 246.267 186.169 246.72C186.664 247.173 187.01 247.768 187.163 248.425Z" fill="#A0616A"/>
<path d="M201.165 256.125C201.143 255.914 201.168 255.7 201.238 255.5C201.308 255.3 201.421 255.118 201.57 254.968L208.414 248.043C209.092 247.357 209.997 246.949 210.955 246.898C211.913 246.847 212.855 247.157 213.601 247.767C214.346 248.378 214.842 249.246 214.992 250.204C215.142 251.162 214.936 252.143 214.414 252.957L209.54 260.555C209.337 260.871 209.017 261.093 208.652 261.172C208.287 261.251 207.905 261.179 207.592 260.974L201.799 257.171C201.623 257.056 201.475 256.902 201.365 256.721C201.255 256.54 201.187 256.336 201.165 256.125Z" fill="#3F3D56"/>
<path d="M224.957 271.551L224.716 275.304L200.176 274.791L200.9 271.551H224.957Z" fill="#CCCCCC"/>
<path d="M224.609 276.935L224.365 280.697L198.975 280.165L199.699 276.935H224.609Z" fill="#CCCCCC"/>
<path d="M215.174 218.031C212.572 218.032 210.072 219.056 208.204 220.889C206.336 222.721 205.246 225.217 205.165 227.849H203.279C203.113 227.849 202.954 227.915 202.836 228.034C202.719 228.153 202.653 228.314 202.653 228.482V231.015C202.653 231.183 202.719 231.344 202.836 231.463C202.954 231.582 203.113 231.649 203.279 231.649H224.565C224.731 231.649 224.891 231.582 225.008 231.463C225.125 231.344 225.191 231.183 225.191 231.015V228.165C225.191 226.834 224.932 225.517 224.429 224.287C223.925 223.058 223.188 221.94 222.257 220.999C221.327 220.058 220.223 219.312 219.008 218.803C217.792 218.293 216.49 218.031 215.174 218.031Z" fill="#FF9C77"/>
<path d="M271.552 321.129H269.405C269.391 320.866 266.509 314.023 266.509 314.023L264.766 309.759L263.615 306.917L261.872 302.653L259.877 297.75C259.826 297.528 259.703 297.331 259.527 297.19C259.351 297.049 259.133 296.972 258.908 296.972C258.684 296.972 258.465 297.049 258.29 297.19C258.114 297.331 257.99 297.528 257.939 297.75L255.944 302.653L254.202 306.917L253.05 309.759L251.308 314.023C251.308 314.023 248.425 320.866 248.412 321.129H246.265C245.706 321.129 245.17 321.354 244.774 321.754C244.379 322.154 244.157 322.696 244.157 323.261C244.157 323.827 244.379 324.369 244.774 324.769C245.17 325.168 245.706 325.393 246.265 325.393H271.552C272.111 325.393 272.647 325.168 273.042 324.769C273.437 324.369 273.659 323.827 273.659 323.261C273.659 322.696 273.437 322.154 273.042 321.754C272.647 321.354 272.111 321.129 271.552 321.129Z" fill="#FF9C77"/>
<path d="M270.147 358.082H269.315C269.391 357.9 265.693 348.332 265.693 348.332L263.474 342.86L261.984 339.194L259.765 333.722L257.349 327.795C257.281 327.515 257.122 327.267 256.898 327.089C256.674 326.911 256.397 326.814 256.112 326.814C255.827 326.814 255.551 326.911 255.327 327.089C255.103 327.267 254.944 327.515 254.876 327.795L252.46 333.722L250.24 339.194L248.736 342.86L246.517 348.332C246.517 348.332 242.834 357.9 242.91 358.082H242.05C241.491 358.082 240.955 358.306 240.56 358.706C240.164 359.106 239.942 359.648 239.942 360.214C239.942 360.779 240.164 361.321 240.56 361.721C240.955 362.121 241.491 362.346 242.05 362.346H270.147C270.706 362.346 271.242 362.121 271.637 361.721C272.032 361.321 272.254 360.779 272.254 360.214C272.254 359.648 272.032 359.106 271.637 358.706C271.242 358.306 270.706 358.082 270.147 358.082Z" fill="#FF9C77"/>
<path d="M263.614 306.917H254.202L255.944 302.653H261.872L263.614 306.917Z" fill="#F2F2F2"/>
<path d="M266.508 314.024H251.308L253.05 309.76H264.766L266.508 314.024Z" fill="#F2F2F2"/>
<path d="M261.984 339.193H250.24L252.459 333.722H259.765L261.984 339.193Z" fill="#F2F2F2"/>
<path d="M265.693 348.332H246.517L248.736 342.86H263.473L265.693 348.332Z" fill="#F2F2F2"/>
<path d="M580.177 237.864C580.394 237.647 580.561 237.385 580.667 237.095C580.773 236.806 580.815 236.496 580.789 236.189C580.764 235.881 580.673 235.583 580.521 235.315C580.37 235.047 580.162 234.816 579.913 234.638L578.859 227.608L574.529 228.987L576.901 235.258C576.633 235.702 576.536 236.229 576.627 236.741C576.718 237.252 576.991 237.712 577.395 238.033C577.799 238.355 578.305 238.515 578.818 238.484C579.331 238.453 579.814 238.232 580.177 237.864Z" fill="#FFB8B8"/>
<path d="M575.717 234.557L573.046 221.939C572.786 220.731 572.837 219.475 573.194 218.292C573.551 217.108 574.203 216.038 575.086 215.182C578.504 211.85 582.898 207.649 584.416 206.563C585.84 205.535 587.564 205.021 589.311 205.101L589.348 205.105L591.645 207.301L586.64 215.636L579.043 220.451L579.889 232.818L575.717 234.557Z" fill="#FF9C77"/>
<path d="M585.07 217.41H573.862C573.377 217.41 572.983 217.808 572.983 218.299C572.983 218.791 573.377 219.189 573.862 219.189H585.07C585.555 219.189 585.949 218.791 585.949 218.299C585.949 217.808 585.555 217.41 585.07 217.41Z" fill="#CCCCCC"/>
<path d="M585.07 236.751H573.862C573.377 236.751 572.983 237.149 572.983 237.64C572.983 238.131 573.377 238.53 573.862 238.53H585.07C585.555 238.53 585.949 238.131 585.949 237.64C585.949 237.149 585.555 236.751 585.07 236.751Z" fill="#CCCCCC"/>
<path d="M579.576 285.217C579.466 285.217 579.36 285.176 579.279 285.101C579.198 285.026 579.148 284.923 579.138 284.812L573.536 218.339C573.53 218.281 573.536 218.222 573.554 218.166C573.571 218.111 573.599 218.059 573.636 218.014C573.673 217.969 573.718 217.932 573.77 217.905C573.821 217.878 573.877 217.861 573.934 217.856C573.992 217.851 574.05 217.857 574.105 217.875C574.16 217.892 574.211 217.921 574.256 217.958C574.3 217.996 574.337 218.042 574.363 218.094C574.39 218.146 574.406 218.202 574.411 218.261L579.57 279.676L584.582 218.262C584.587 218.203 584.603 218.147 584.629 218.095C584.656 218.042 584.692 217.996 584.736 217.958C584.78 217.921 584.832 217.892 584.887 217.874C584.942 217.857 585 217.85 585.058 217.855C585.115 217.86 585.171 217.877 585.223 217.904C585.274 217.931 585.32 217.968 585.357 218.013C585.394 218.057 585.422 218.109 585.439 218.165C585.457 218.221 585.463 218.28 585.458 218.338L580.014 284.811C580.005 284.922 579.954 285.025 579.873 285.1C579.792 285.175 579.686 285.217 579.576 285.217Z" fill="#CCCCCC"/>
<path d="M592.153 202.44C595.338 202.44 597.919 199.828 597.919 196.607C597.919 193.385 595.338 190.773 592.153 190.773C588.969 190.773 586.387 193.385 586.387 196.607C586.387 199.828 588.969 202.44 592.153 202.44Z" fill="#FFB8B8"/>
<path d="M574.969 284.445L572.227 283.561L574.293 272.439L578.34 273.744L574.969 284.445Z" fill="#FFB8B8"/>
<path d="M574.816 285.012L565.989 282.166L566.062 281.934C566.342 281.046 566.96 280.308 567.778 279.88C568.596 279.452 569.549 279.37 570.427 279.652L575.945 281.432L574.816 285.012Z" fill="#2F2E41"/>
<path d="M594.921 282.492H592.042L590.672 271.262H594.921V282.492Z" fill="#FFB8B8"/>
<path d="M586.602 285.086H595.427V281.772H589.856C588.993 281.773 588.166 282.121 587.556 282.738C586.946 283.355 586.603 284.192 586.602 285.065V285.086Z" fill="#2F2E41"/>
<path d="M594.836 278.848L593.865 278.702C592.645 278.628 591.438 278.4 590.274 278.023C590.035 277.917 590.018 276.313 590.162 267.295C590.267 260.676 590.398 252.438 590.144 248.015C590.133 247.841 590.065 247.675 589.95 247.545C589.835 247.414 589.68 247.327 589.51 247.296C589.339 247.266 589.164 247.295 589.012 247.377C588.86 247.46 588.74 247.592 588.671 247.753C586.479 252.874 582.801 264.336 580.367 271.92C579.52 274.558 578.852 276.641 578.429 277.89C578.347 278.127 578.181 278.324 577.964 278.443C577.746 278.562 577.492 278.595 577.252 278.535C575.249 278.028 575.383 277.813 572.531 277.066C572.284 277.003 572.071 276.845 571.937 276.626C571.802 276.407 571.757 276.144 571.81 275.892C572.326 273.431 581.768 233.519 582.49 229.725C582.515 229.595 582.564 229.471 582.636 229.361C582.708 229.25 582.801 229.156 582.91 229.082C583.018 229.008 583.14 228.957 583.268 228.931C583.396 228.905 583.528 228.905 583.656 228.931C585.782 229.364 587.075 229.824 589.176 230.268C591.443 230.748 593.787 231.244 596.073 231.707C596.301 231.753 596.505 231.88 596.649 232.064C597.286 232.753 598.07 233.286 598.942 233.622C599.54 233.912 598.184 233.886 598.705 234.303C600.817 235.994 597.78 270.338 595.945 278.095C595.886 278.337 595.74 278.549 595.535 278.689C595.33 278.828 595.08 278.885 594.836 278.848Z" fill="#2F2E41"/>
<path d="M594.611 201.711C594.274 200.266 595.976 197.156 595.639 195.711C595.411 194.733 593.137 195.398 592.606 194.548C592.359 194.11 592.01 193.739 591.59 193.469C591.169 193.199 590.689 193.037 590.192 192.998C589.05 192.985 587.926 193.842 586.844 193.472C586.588 193.343 586.36 193.164 586.172 192.946C585.985 192.727 585.843 192.474 585.754 192.199C585.664 191.924 585.63 191.635 585.652 191.346C585.674 191.058 585.753 190.777 585.884 190.52C586.463 189.498 587.362 188.701 588.439 188.253C590.136 187.204 592.167 186.859 594.109 187.289C595.221 187.725 596.239 188.372 597.11 189.196C597.982 189.85 598.749 190.637 599.382 191.53C599.919 192.46 600.211 193.515 600.228 194.592C600.245 195.67 599.987 196.733 599.479 197.681C598.429 199.572 596.755 201.029 594.751 201.798" fill="#2F2E41"/>
<path d="M580.453 235.339C581.075 234.288 582.02 229.36 583.185 221.088C583.978 215.442 584.669 209.704 585.012 206.773C585.039 206.536 585.125 206.31 585.262 206.115C585.398 205.921 585.582 205.765 585.795 205.662C586.017 205.553 586.238 205.45 586.458 205.353C589.099 204.13 592.03 203.698 594.905 204.107C597.781 204.515 600.48 205.748 602.685 207.66L602.711 207.684L602.718 207.719C602.73 207.784 603.921 214.277 601.482 218.664C599.076 222.992 599.048 234.454 599.048 234.57V234.717L598.908 234.676C595.165 233.595 580.707 235.487 580.561 235.507L580.336 235.536L580.453 235.339Z" fill="#FF9C77"/>
<path d="M602.21 220.301H591.003C590.518 220.301 590.124 220.699 590.124 221.19C590.124 221.681 590.518 222.079 591.003 222.079H602.21C602.696 222.079 603.089 221.681 603.089 221.19C603.089 220.699 602.696 220.301 602.21 220.301Z" fill="#CCCCCC"/>
<path d="M602.21 239.642H591.003C590.518 239.642 590.124 240.04 590.124 240.531C590.124 241.022 590.518 241.42 591.003 241.42H602.21C602.696 241.42 603.089 241.022 603.089 240.531C603.089 240.04 602.696 239.642 602.21 239.642Z" fill="#CCCCCC"/>
<path d="M596.717 285.438C596.607 285.438 596.501 285.397 596.42 285.321C596.339 285.246 596.289 285.143 596.279 285.033L590.676 221.228C590.666 221.111 590.702 220.994 590.777 220.903C590.852 220.813 590.959 220.756 591.075 220.746C591.191 220.735 591.307 220.772 591.396 220.848C591.485 220.923 591.541 221.032 591.552 221.149L596.71 279.897L601.722 221.15C601.727 221.092 601.743 221.035 601.77 220.983C601.796 220.931 601.833 220.885 601.877 220.847C601.921 220.809 601.972 220.781 602.027 220.763C602.083 220.745 602.141 220.739 602.198 220.744C602.256 220.749 602.312 220.765 602.363 220.792C602.415 220.819 602.46 220.856 602.497 220.901C602.535 220.946 602.563 220.998 602.58 221.054C602.597 221.11 602.603 221.169 602.598 221.227L597.155 285.032C597.145 285.143 597.095 285.246 597.014 285.321C596.933 285.396 596.827 285.438 596.717 285.438Z" fill="#CCCCCC"/>
<path d="M593.098 239.924C593.032 239.623 593.033 239.31 593.1 239.009C593.166 238.708 593.298 238.425 593.484 238.181C593.67 237.936 593.907 237.736 594.179 237.595C594.45 237.453 594.748 237.373 595.053 237.361L599.713 232.039L602.607 235.576L597.248 239.537C597.234 240.057 597.033 240.553 596.682 240.933C596.331 241.312 595.854 241.548 595.343 241.596C594.831 241.643 594.32 241.499 593.906 241.191C593.493 240.883 593.205 240.432 593.098 239.924Z" fill="#FFB8B8"/>
<path d="M595.812 236.219L603.164 226.302L599.373 218.083L599.648 208.335L602.756 207.754L602.789 207.771C604.299 208.664 605.469 210.044 606.113 211.689C606.804 213.435 608.236 219.377 609.316 224.054C609.598 225.257 609.57 226.514 609.234 227.704C608.898 228.893 608.266 229.976 607.399 230.847L598.38 239.972L595.812 236.219Z" fill="#FF9C77"/>
<path d="M564.991 282.681L575.05 285.131C575.245 285.183 575.452 285.165 575.635 285.078C575.818 284.992 575.965 284.843 576.051 284.659L584.692 261.417C584.73 261.328 584.749 261.231 584.75 261.134C584.75 261.037 584.73 260.941 584.692 260.851C584.649 260.751 584.585 260.66 584.506 260.585C584.427 260.51 584.334 260.453 584.232 260.415L576.669 257.493C576.55 257.447 576.422 257.427 576.294 257.434C576.166 257.441 576.041 257.476 575.928 257.535C575.829 257.584 575.742 257.654 575.672 257.741C575.602 257.827 575.551 257.928 575.523 258.036L570.185 278.52L570.106 278.526C568.449 278.624 566.875 279.288 565.639 280.409C565.382 280.722 565.192 281.086 565.081 281.477C564.969 281.868 564.939 282.278 564.991 282.681Z" fill="#CCCCCC"/>
<path d="M572.276 269.652L572.229 270.095L581.4 271.077L581.446 270.635L572.276 269.652Z" fill="#B3B3B3"/>
<path d="M571.476 273.315L571.296 273.721L578.676 277.08L578.856 276.674L571.476 273.315Z" fill="#B3B3B3"/>
<path d="M582.412 267.521L573.713 264.606L573.894 264.201L582.592 267.115L582.412 267.521Z" fill="#B3B3B3"/>
<path d="M583.292 265.52L574.593 261.272L574.773 260.865L583.471 265.113L583.292 265.52Z" fill="#B3B3B3"/>
<path d="M570.709 276.797L570.424 277.135L576.695 282.555L576.981 282.217L570.709 276.797Z" fill="#B3B3B3"/>
<path d="M568.928 278.595L568.528 278.778L571.045 284.394L571.445 284.211L568.928 278.595Z" fill="#B3B3B3"/>
<path d="M814.073 239.725C813.701 239.638 813.352 239.469 813.05 239.23C812.749 238.991 812.504 238.688 812.331 238.343C812.158 237.998 812.062 237.618 812.05 237.231C812.037 236.844 812.109 236.459 812.26 236.103L802.611 214.05L808.13 212.644L815.879 234.764C816.453 235.059 816.9 235.558 817.135 236.165C817.371 236.772 817.377 237.444 817.155 238.056C816.932 238.668 816.496 239.175 815.928 239.483C815.36 239.791 814.7 239.877 814.073 239.725Z" fill="#A0616A"/>
<path d="M804.401 222.854C804.247 222.784 804.11 222.682 803.999 222.553C803.888 222.425 803.805 222.274 803.757 222.111L802.07 216.401C801.701 215.61 801.658 214.704 801.95 213.88C802.242 213.057 802.845 212.385 803.627 212.012C804.409 211.639 805.305 211.596 806.119 211.891C806.932 212.187 807.597 212.797 807.965 213.588L811.228 218.573C811.321 218.715 811.383 218.876 811.409 219.044C811.435 219.213 811.425 219.385 811.379 219.549C811.334 219.714 811.253 219.866 811.144 219.996C811.035 220.126 810.9 220.231 810.747 220.303L805.379 222.845C805.226 222.918 805.06 222.956 804.891 222.957C804.722 222.959 804.555 222.924 804.401 222.854Z" fill="#FF9C77"/>
<path d="M824.043 218.115L818.125 222.355C818.049 222.41 817.958 222.44 817.864 222.44C817.77 222.44 817.679 222.41 817.603 222.355L816.004 221.14C815.951 221.1 815.907 221.049 815.876 220.991C815.845 220.932 815.827 220.867 815.825 220.8C815.822 220.734 815.834 220.667 815.86 220.606C815.886 220.545 815.925 220.49 815.975 220.447L820.529 216.338C820.589 216.285 820.662 216.249 820.74 216.234C820.818 216.219 820.899 216.224 820.974 216.251L823.937 217.324C824.013 217.352 824.08 217.401 824.131 217.465C824.182 217.529 824.214 217.606 824.225 217.687C824.236 217.769 824.225 217.852 824.193 217.927C824.161 218.002 824.109 218.067 824.043 218.115Z" fill="#3F3D56"/>
<path d="M823.561 217.714C823.575 217.674 823.574 217.631 823.557 217.592C823.54 217.553 823.508 217.523 823.469 217.508L820.8 216.542C820.773 216.532 820.744 216.53 820.717 216.535C820.689 216.54 820.663 216.553 820.642 216.571L816.534 220.277L816.511 220.302C816.5 220.318 816.491 220.337 816.487 220.357C816.482 220.377 816.481 220.397 816.484 220.417C816.488 220.437 816.495 220.457 816.506 220.474C816.516 220.491 816.53 220.506 816.547 220.518L817.985 221.611C818.012 221.631 818.045 221.641 818.078 221.641C818.112 221.641 818.144 221.629 818.171 221.609L823.505 217.789C823.531 217.77 823.55 217.744 823.561 217.714Z" fill="white"/>
<path d="M802.473 283.209H805.459L806.881 271.554H802.473V283.209Z" fill="#A0616A"/>
<path d="M801.711 280.329L807.593 280.329C808.086 280.329 808.573 280.427 809.028 280.618C809.483 280.808 809.896 281.088 810.244 281.44C810.593 281.792 810.869 282.21 811.057 282.67C811.246 283.13 811.342 283.624 811.342 284.122V284.245L801.711 284.245L801.711 280.329Z" fill="#2F2E41"/>
<path d="M792.483 283.209H795.471L796.891 271.554H792.483V283.209Z" fill="#A0616A"/>
<path d="M791.721 280.329L797.604 280.329C798.096 280.329 798.584 280.427 799.038 280.618C799.493 280.808 799.907 281.088 800.255 281.44C800.603 281.792 800.879 282.21 801.067 282.67C801.256 283.13 801.353 283.624 801.353 284.122V284.245L791.721 284.245L791.721 280.329Z" fill="#2F2E41"/>
<path d="M791.849 277.754C791.645 277.517 791.53 277.214 791.526 276.899C790.814 269.488 792.751 230.53 797.228 227.204L797.256 227.176L810.358 224.888L810.602 225.134C810.621 225.478 813.003 259.626 806.425 277.054C806.344 277.262 806.204 277.44 806.022 277.566C805.839 277.692 805.624 277.759 805.403 277.759H802.787C802.636 277.759 802.487 277.727 802.348 277.666C802.21 277.605 802.085 277.515 801.982 277.403C801.88 277.29 801.801 277.158 801.752 277.013C801.702 276.869 801.683 276.715 801.694 276.563L803.812 243.93C803.82 243.837 803.791 243.744 803.734 243.67C803.676 243.597 803.593 243.549 803.501 243.535C803.41 243.521 803.316 243.543 803.24 243.597C803.164 243.65 803.111 243.731 803.091 243.822L797.126 276.943C797.075 277.176 796.951 277.386 796.773 277.543C796.595 277.7 796.372 277.794 796.136 277.813L792.701 278.07C792.674 278.072 792.647 278.073 792.62 278.073C792.332 278.073 792.055 277.959 791.849 277.754Z" fill="#2F2E41"/>
<path d="M809.091 204.912C812.395 204.912 815.075 202.201 815.075 198.858C815.075 195.514 812.395 192.804 809.091 192.804C805.786 192.804 803.106 195.514 803.106 198.858C803.106 202.201 805.786 204.912 809.091 204.912Z" fill="#A0616A"/>
<path d="M794.677 232.506C794.424 232.245 794.279 231.897 794.271 231.533L796.714 219.959C794.765 211.578 797.36 210.007 800.289 208.419L800.27 208.409L801.493 205.06C801.532 204.911 801.603 204.773 801.7 204.655C801.798 204.537 801.921 204.442 802.059 204.377C802.197 204.312 802.348 204.279 802.5 204.28C802.652 204.281 802.802 204.316 802.94 204.383L809.177 207.735C809.457 207.895 809.665 208.16 809.756 208.472C809.861 208.804 809.854 209.162 809.735 209.49L809.275 210.751C810.465 212.36 812.307 218.726 810.358 221.191L811.829 229.405C811.861 229.707 811.787 230.011 811.62 230.264C811.453 230.517 811.204 230.702 810.916 230.788L795.547 232.783C795.488 232.795 795.427 232.801 795.366 232.801C795.107 232.797 794.86 232.691 794.677 232.506Z" fill="#FF9C77"/>
<path d="M817.05 219.232C816.952 219.325 816.861 219.426 816.779 219.534L804.724 218.691L803.431 216.025L799.199 217.474L801.035 222.419C801.184 222.818 801.456 223.158 801.811 223.388C802.167 223.617 802.587 223.724 803.007 223.691L816.715 222.64C817.018 223.066 817.443 223.389 817.932 223.565C818.421 223.742 818.952 223.763 819.453 223.627C819.955 223.491 820.404 223.203 820.74 222.803C821.076 222.402 821.284 221.907 821.335 221.384C821.387 220.862 821.279 220.335 821.028 219.876C820.777 219.416 820.393 219.044 819.928 218.811C819.463 218.577 818.938 218.492 818.424 218.567C817.91 218.642 817.431 218.874 817.05 219.232Z" fill="#A0616A"/>
<path d="M804.274 218.734L799.021 220.504C798.871 220.554 798.713 220.571 798.556 220.554C798.399 220.537 798.248 220.486 798.113 220.404C797.978 220.322 797.861 220.212 797.772 220.081C797.682 219.95 797.622 219.801 797.595 219.644L796.637 214.143C796.387 213.368 796.45 212.524 796.814 211.796C797.178 211.068 797.812 210.516 798.578 210.26C799.344 210.005 800.178 210.067 800.899 210.434C801.619 210.8 802.166 211.44 802.421 212.214L804.906 217.181C804.978 217.323 805.018 217.479 805.024 217.639C805.03 217.798 805.002 217.957 804.942 218.104C804.882 218.251 804.791 218.384 804.676 218.493C804.561 218.601 804.424 218.684 804.274 218.734Z" fill="#FF9C77"/>
<path d="M805.729 194.077C808.42 194.077 810.602 191.87 810.602 189.148C810.602 186.425 808.42 184.218 805.729 184.218C803.038 184.218 800.856 186.425 800.856 189.148C800.856 191.87 803.038 194.077 805.729 194.077Z" fill="#2F2E41"/>
<path d="M814.755 199.606C815.227 199.702 815.716 199.66 816.166 199.486C816.395 199.355 816.59 199.171 816.736 198.948C816.881 198.726 816.973 198.473 817.003 198.208C817.911 192.105 812.782 192.607 812.175 192.343C811.792 192.116 811.433 191.851 811.102 191.551C810.248 191.071 809.274 190.855 808.3 190.927C807.148 190.82 805.986 190.963 804.894 191.349C803.943 191.8 803.152 192.537 802.631 193.459C802.114 194.378 801.736 195.369 801.508 196.401C801.149 197.568 801.083 198.807 801.317 200.006C801.566 200.902 802.086 201.695 802.803 202.277C803.521 202.859 804.4 203.199 805.318 203.25C805.17 202.532 805.261 201.785 805.576 201.124C805.89 200.464 806.411 199.927 807.058 199.596C808.087 199.084 809.257 198.943 810.376 199.196C811.101 199.345 811.837 199.437 812.576 199.473C813.302 199.501 814.173 199.544 814.755 199.606Z" fill="#2F2E41"/>
<path d="M1283.08 284.412C1283.09 277.945 1285.63 271.744 1290.15 267.173C1294.67 262.602 1300.8 260.034 1307.2 260.034C1313.59 260.034 1319.72 262.602 1324.24 267.173C1328.76 271.744 1331.31 277.945 1331.31 284.412" fill="#F2F2F2"/>
<path d="M1307.2 284.412C1307.02 284.412 1306.86 284.343 1306.74 284.219C1306.61 284.096 1306.54 283.928 1306.54 283.753V270.896C1306.54 270.721 1306.61 270.553 1306.74 270.429C1306.86 270.306 1307.02 270.236 1307.2 270.236C1307.37 270.236 1307.53 270.306 1307.65 270.429C1307.78 270.553 1307.85 270.721 1307.85 270.896V283.753C1307.85 283.928 1307.78 284.096 1307.65 284.219C1307.53 284.343 1307.37 284.412 1307.2 284.412Z" fill="#CCCCCC"/>
<path d="M1307.2 279.994C1307.04 279.994 1306.89 279.938 1306.77 279.835L1298.95 273.044C1298.89 272.988 1298.83 272.919 1298.79 272.842C1298.75 272.765 1298.73 272.68 1298.72 272.593C1298.71 272.506 1298.72 272.419 1298.75 272.336C1298.78 272.254 1298.82 272.177 1298.88 272.111C1298.93 272.045 1299 271.991 1299.08 271.951C1299.15 271.912 1299.24 271.889 1299.32 271.883C1299.41 271.876 1299.5 271.887 1299.58 271.915C1299.66 271.943 1299.74 271.986 1299.8 272.044L1307.62 278.835C1307.72 278.922 1307.79 279.039 1307.83 279.17C1307.86 279.3 1307.85 279.438 1307.81 279.564C1307.76 279.69 1307.68 279.799 1307.57 279.876C1307.46 279.953 1307.33 279.994 1307.2 279.994Z" fill="#CCCCCC"/>
<path d="M1357.38 284.412C1357.39 277.945 1359.93 271.744 1364.45 267.173C1368.97 262.602 1375.1 260.034 1381.5 260.034C1387.89 260.034 1394.02 262.602 1398.54 267.173C1403.06 271.744 1405.61 277.945 1405.61 284.412" fill="#F2F2F2"/>
<path d="M1381.49 284.412C1381.32 284.412 1381.16 284.343 1381.04 284.219C1380.91 284.096 1380.84 283.928 1380.84 283.753V270.896C1380.84 270.721 1380.91 270.553 1381.04 270.429C1381.16 270.306 1381.32 270.236 1381.49 270.236C1381.67 270.236 1381.83 270.306 1381.95 270.429C1382.08 270.553 1382.15 270.721 1382.15 270.896V283.753C1382.15 283.928 1382.08 284.096 1381.95 284.219C1381.83 284.343 1381.67 284.412 1381.49 284.412Z" fill="#CCCCCC"/>
<path d="M1381.5 279.994C1381.34 279.994 1381.19 279.937 1381.07 279.835L1373.25 273.044C1373.18 272.988 1373.13 272.919 1373.09 272.841C1373.05 272.764 1373.03 272.679 1373.02 272.593C1373.01 272.506 1373.02 272.418 1373.05 272.335C1373.08 272.253 1373.12 272.176 1373.18 272.11C1373.23 272.044 1373.3 271.989 1373.38 271.95C1373.45 271.911 1373.54 271.888 1373.62 271.882C1373.71 271.875 1373.8 271.887 1373.88 271.914C1373.96 271.942 1374.03 271.986 1374.1 272.043L1381.92 278.834C1382.02 278.922 1382.09 279.039 1382.13 279.169C1382.16 279.3 1382.15 279.437 1382.11 279.564C1382.06 279.69 1381.98 279.799 1381.87 279.876C1381.76 279.953 1381.63 279.994 1381.5 279.994Z" fill="#CCCCCC"/>
<path d="M917.083 183.362C917.083 158.261 896.955 98.6982 872.127 98.6982C847.299 98.6982 827.172 158.261 827.172 183.362C827.172 195.424 831.908 206.992 840.339 215.522C848.77 224.051 860.204 228.842 872.127 228.842C884.05 228.842 895.485 224.051 903.916 215.522C912.346 206.992 917.083 195.424 917.083 183.362Z" fill="#E6E6E6"/>
<path d="M905.844 183.362C905.844 158.261 885.717 98.6982 860.889 98.6982C836.06 98.6982 815.933 158.261 815.933 183.362C815.933 195.424 820.67 206.992 829.1 215.522C837.531 224.051 848.966 228.842 860.889 228.842C872.812 228.842 884.246 224.051 892.677 215.522C901.108 206.992 905.844 195.424 905.844 183.362Z" fill="#F2F2F2"/>
<path d="M862.293 285.054C861.92 285.054 861.563 284.904 861.3 284.637C861.036 284.371 860.888 284.009 860.888 283.633V156.942C860.888 156.565 861.036 156.203 861.3 155.937C861.563 155.67 861.92 155.521 862.293 155.521C862.666 155.521 863.023 155.67 863.286 155.937C863.55 156.203 863.698 156.565 863.698 156.942V283.633C863.698 284.009 863.55 284.371 863.286 284.637C863.023 284.904 862.666 285.054 862.293 285.054Z" fill="#CCCCCC"/>
<path d="M862.293 177.71C862.015 177.71 861.744 177.626 861.513 177.47C861.282 177.314 861.102 177.092 860.996 176.832C860.889 176.573 860.861 176.287 860.916 176.011C860.97 175.736 861.104 175.483 861.3 175.284L879.672 156.697C879.936 156.43 880.293 156.28 880.665 156.28C881.038 156.28 881.395 156.43 881.659 156.697C881.922 156.963 882.07 157.325 882.07 157.701C882.07 158.078 881.922 158.44 881.659 158.706L863.287 177.294C863.156 177.426 863.001 177.531 862.831 177.602C862.66 177.673 862.478 177.71 862.293 177.71Z" fill="#CCCCCC"/>
<path d="M304.566 183.362C304.566 158.261 284.439 98.6982 259.611 98.6982C234.782 98.6982 214.655 158.261 214.655 183.362C214.655 195.424 219.392 206.992 227.822 215.522C236.253 224.051 247.688 228.842 259.611 228.842C271.534 228.842 282.968 224.051 291.399 215.522C299.83 206.992 304.566 195.424 304.566 183.362Z" fill="#E6E6E6"/>
<path d="M293.327 183.362C293.327 158.261 273.2 98.6982 248.372 98.6982C223.544 98.6982 203.417 158.261 203.417 183.362C203.417 195.424 208.153 206.992 216.584 215.522C225.014 224.051 236.449 228.842 248.372 228.842C260.295 228.842 271.729 224.051 280.16 215.522C288.591 206.992 293.327 195.424 293.327 183.362Z" fill="#F2F2F2"/>
<path d="M249.776 285.054C249.404 285.054 249.047 284.904 248.783 284.637C248.52 284.371 248.372 284.009 248.372 283.633V156.942C248.372 156.565 248.52 156.203 248.783 155.937C249.047 155.67 249.404 155.521 249.776 155.521C250.149 155.521 250.506 155.67 250.77 155.937C251.033 156.203 251.181 156.565 251.181 156.942V283.633C251.181 284.009 251.033 284.371 250.77 284.637C250.506 284.904 250.149 285.054 249.776 285.054Z" fill="#CCCCCC"/>
<path d="M249.777 177.71C249.499 177.71 249.227 177.626 248.996 177.47C248.765 177.314 248.585 177.092 248.479 176.832C248.373 176.573 248.345 176.287 248.399 176.011C248.453 175.736 248.587 175.483 248.783 175.284L267.156 156.697C267.419 156.43 267.776 156.28 268.149 156.28C268.521 156.28 268.879 156.43 269.142 156.697C269.406 156.963 269.554 157.325 269.554 157.701C269.554 158.078 269.406 158.44 269.142 158.706L250.77 177.294C250.64 177.426 250.485 177.531 250.314 177.602C250.144 177.673 249.961 177.71 249.777 177.71Z" fill="#CCCCCC"/>
<path d="M627.665 159.566H653.752V162.21H627.665V159.566Z" fill="#7E1CC4"/>
<path d="M627.665 168.819H653.752V171.463H627.665V168.819Z" fill="#7E1CC4"/>
<path d="M627.665 176.75H653.752V179.394H627.665V176.75Z" fill="#7E1CC4"/>
<path d="M621.796 164.853C622.441 164.853 623.071 164.66 623.607 164.297C624.144 163.933 624.562 163.417 624.808 162.813C625.055 162.21 625.12 161.545 624.994 160.904C624.868 160.263 624.558 159.674 624.102 159.212C623.646 158.75 623.064 158.435 622.432 158.308C621.799 158.18 621.144 158.246 620.548 158.496C619.952 158.746 619.443 159.169 619.084 159.713C618.726 160.256 618.535 160.895 618.535 161.549C618.535 161.983 618.619 162.413 618.783 162.813C618.947 163.214 619.187 163.579 619.49 163.886C619.793 164.192 620.152 164.436 620.548 164.602C620.944 164.768 621.368 164.853 621.796 164.853Z" fill="#7E1CC4"/>
<path d="M621.796 172.785C622.441 172.785 623.071 172.591 623.607 172.228C624.144 171.865 624.562 171.348 624.808 170.745C625.055 170.141 625.12 169.476 624.994 168.835C624.868 168.194 624.558 167.605 624.102 167.143C623.646 166.681 623.064 166.366 622.432 166.239C621.799 166.111 621.144 166.177 620.548 166.427C619.952 166.677 619.443 167.101 619.084 167.644C618.726 168.187 618.535 168.826 618.535 169.48C618.535 169.914 618.619 170.344 618.783 170.745C618.947 171.146 619.187 171.51 619.49 171.817C619.793 172.124 620.152 172.367 620.548 172.533C620.944 172.699 621.368 172.785 621.796 172.785Z" fill="#7E1CC4"/>
<path d="M621.796 180.716C622.441 180.716 623.071 180.522 623.607 180.159C624.144 179.796 624.562 179.28 624.808 178.676C625.055 178.072 625.12 177.407 624.994 176.766C624.868 176.125 624.558 175.537 624.102 175.074C623.646 174.612 623.064 174.297 622.432 174.17C621.799 174.042 621.144 174.108 620.548 174.358C619.952 174.608 619.443 175.032 619.084 175.575C618.726 176.119 618.535 176.758 618.535 177.411C618.535 177.845 618.619 178.275 618.783 178.676C618.947 179.077 619.187 179.441 619.49 179.748C619.793 180.055 620.152 180.298 620.548 180.464C620.944 180.63 621.368 180.716 621.796 180.716Z" fill="#7E1CC4"/>
<path d="M594.127 182.038L603.593 169.315H615.926V168.819H603.361L603.289 168.915L593.752 181.734L594.127 182.038Z" fill="#7E1CC4"/>
<path d="M896.569 76.7905H922.656V79.4343H896.569V76.7905Z" fill="#7E1CC4"/>
<path d="M896.569 86.0439H922.656V88.6877H896.569V86.0439Z" fill="#7E1CC4"/>
<path d="M896.569 93.9751H922.656V96.6188H896.569V93.9751Z" fill="#7E1CC4"/>
<path d="M890.7 82.0781C891.345 82.0781 891.975 81.8843 892.511 81.5212C893.047 81.158 893.465 80.6419 893.712 80.0381C893.959 79.4342 894.024 78.7698 893.898 78.1287C893.772 77.4877 893.461 76.8988 893.005 76.4367C892.549 75.9745 891.968 75.6598 891.336 75.5323C890.703 75.4047 890.048 75.4702 889.452 75.7203C888.856 75.9704 888.347 76.394 887.988 76.9374C887.63 77.4809 887.439 78.1198 887.439 78.7734C887.439 79.2074 887.523 79.6371 887.687 80.0381C887.851 80.439 888.091 80.8033 888.394 81.1102C888.697 81.417 889.056 81.6605 889.452 81.8265C889.847 81.9926 890.271 82.0781 890.7 82.0781Z" fill="#7E1CC4"/>
<path d="M890.7 90.0092C891.345 90.0092 891.975 89.8154 892.511 89.4523C893.047 89.0892 893.465 88.5731 893.712 87.9692C893.959 87.3654 894.024 86.7009 893.898 86.0599C893.772 85.4188 893.461 84.83 893.005 84.3678C892.549 83.9056 891.968 83.5909 891.336 83.4634C890.703 83.3359 890.048 83.4013 889.452 83.6515C888.856 83.9016 888.347 84.3252 887.988 84.8686C887.63 85.4121 887.439 86.051 887.439 86.7046C887.439 87.1386 887.523 87.5683 887.687 87.9692C887.851 88.3702 888.091 88.7345 888.394 89.0413C888.697 89.3482 889.056 89.5916 889.452 89.7577C889.847 89.9238 890.271 90.0092 890.7 90.0092Z" fill="#7E1CC4"/>
<path d="M890.7 97.9404C891.345 97.9404 891.975 97.7466 892.511 97.3835C893.047 97.0203 893.465 96.5042 893.712 95.9004C893.959 95.2965 894.024 94.6321 893.898 93.991C893.772 93.35 893.461 92.7611 893.005 92.299C892.549 91.8368 891.968 91.5221 891.336 91.3946C890.703 91.267 890.048 91.3325 889.452 91.5826C888.856 91.8327 888.347 92.2563 887.988 92.7998C887.63 93.3432 887.439 93.9821 887.439 94.6357C887.439 95.0697 887.523 95.4994 887.687 95.9004C887.851 96.3013 888.091 96.6656 888.394 96.9725C888.697 97.2793 889.056 97.5228 889.452 97.6888C889.847 97.8549 890.271 97.9404 890.7 97.9404Z" fill="#7E1CC4"/>
<path d="M863.031 99.2621L872.497 86.5394H884.83V86.0435H872.264L872.193 86.1394L862.656 98.9581L863.031 99.2621Z" fill="#7E1CC4"/>
<path d="M145.913 171.468H172V174.112H145.913V171.468Z" fill="#7E1CC4"/>
<path d="M145.913 180.722H172V183.365H145.913V180.722Z" fill="#7E1CC4"/>
<path d="M145.913 188.653H172V191.297H145.913V188.653Z" fill="#7E1CC4"/>
<path d="M140.044 176.756C140.689 176.756 141.319 176.562 141.855 176.199C142.392 175.836 142.81 175.32 143.056 174.716C143.303 174.112 143.368 173.447 143.242 172.806C143.116 172.165 142.806 171.577 142.35 171.114C141.894 170.652 141.313 170.337 140.68 170.21C140.047 170.082 139.392 170.148 138.796 170.398C138.2 170.648 137.691 171.072 137.333 171.615C136.974 172.159 136.783 172.798 136.783 173.451C136.783 173.885 136.867 174.315 137.031 174.716C137.195 175.117 137.435 175.481 137.738 175.788C138.041 176.095 138.4 176.338 138.796 176.504C139.192 176.67 139.616 176.756 140.044 176.756Z" fill="#7E1CC4"/>
<path d="M140.044 184.687C140.689 184.687 141.319 184.493 141.855 184.13C142.392 183.767 142.81 183.251 143.056 182.647C143.303 182.043 143.368 181.379 143.242 180.738C143.116 180.097 142.806 179.508 142.35 179.046C141.894 178.583 141.313 178.269 140.68 178.141C140.047 178.014 139.392 178.079 138.796 178.329C138.2 178.579 137.691 179.003 137.333 179.546C136.974 180.09 136.783 180.729 136.783 181.382C136.783 181.816 136.867 182.246 137.031 182.647C137.195 183.048 137.435 183.412 137.738 183.719C138.041 184.026 138.4 184.269 138.796 184.435C139.192 184.601 139.616 184.687 140.044 184.687Z" fill="#7E1CC4"/>
<path d="M140.044 192.618C140.689 192.618 141.319 192.424 141.855 192.061C142.392 191.698 142.81 191.182 143.056 190.578C143.303 189.974 143.368 189.31 143.242 188.669C143.116 188.028 142.806 187.439 142.35 186.977C141.894 186.515 141.313 186.2 140.68 186.072C140.047 185.945 139.392 186.01 138.796 186.26C138.2 186.51 137.691 186.934 137.333 187.477C136.974 188.021 136.783 188.66 136.783 189.313C136.783 189.747 136.867 190.177 137.031 190.578C137.195 190.979 137.435 191.343 137.738 191.65C138.041 191.957 138.4 192.2 138.796 192.367C139.192 192.533 139.616 192.618 140.044 192.618Z" fill="#7E1CC4"/>
<path d="M112.375 193.94L121.841 181.217H134.174V180.721H121.608L121.537 180.817L112 193.636L112.375 193.94Z" fill="#7E1CC4"/>
<path d="M1131.61 165.624H1157.7V168.267H1131.61V165.624Z" fill="#7E1CC4"/>
<path d="M1131.61 174.877H1157.7V177.521H1131.61V174.877Z" fill="#7E1CC4"/>
<path d="M1131.61 182.808H1157.7V185.452H1131.61V182.808Z" fill="#7E1CC4"/>
<path d="M1125.74 170.911C1126.39 170.911 1127.02 170.717 1127.55 170.354C1128.09 169.991 1128.51 169.475 1128.75 168.871C1129 168.267 1129.07 167.603 1128.94 166.962C1128.81 166.321 1128.5 165.732 1128.05 165.27C1127.59 164.808 1127.01 164.493 1126.38 164.365C1125.74 164.238 1125.09 164.303 1124.49 164.553C1123.9 164.803 1123.39 165.227 1123.03 165.77C1122.67 166.314 1122.48 166.953 1122.48 167.606C1122.48 168.04 1122.56 168.47 1122.73 168.871C1122.89 169.272 1123.13 169.636 1123.44 169.943C1123.74 170.25 1124.1 170.493 1124.49 170.66C1124.89 170.826 1125.31 170.911 1125.74 170.911Z" fill="#7E1CC4"/>
<path d="M1125.74 178.842C1126.39 178.842 1127.02 178.648 1127.55 178.285C1128.09 177.922 1128.51 177.406 1128.75 176.802C1129 176.198 1129.07 175.534 1128.94 174.893C1128.81 174.252 1128.5 173.663 1128.05 173.201C1127.59 172.739 1127.01 172.424 1126.38 172.296C1125.74 172.169 1125.09 172.234 1124.49 172.484C1123.9 172.735 1123.39 173.158 1123.03 173.702C1122.67 174.245 1122.48 174.884 1122.48 175.538C1122.48 175.972 1122.56 176.401 1122.73 176.802C1122.89 177.203 1123.13 177.567 1123.44 177.874C1123.74 178.181 1124.1 178.425 1124.49 178.591C1124.89 178.757 1125.31 178.842 1125.74 178.842Z" fill="#7E1CC4"/>
<path d="M1125.74 186.773C1126.39 186.773 1127.02 186.58 1127.55 186.216C1128.09 185.853 1128.51 185.337 1128.75 184.733C1129 184.13 1129.07 183.465 1128.94 182.824C1128.81 182.183 1128.5 181.594 1128.05 181.132C1127.59 180.67 1127.01 180.355 1126.38 180.228C1125.74 180.1 1125.09 180.165 1124.49 180.416C1123.9 180.666 1123.39 181.089 1123.03 181.633C1122.67 182.176 1122.48 182.815 1122.48 183.469C1122.48 183.903 1122.56 184.332 1122.73 184.733C1122.89 185.134 1123.13 185.499 1123.44 185.805C1123.74 186.112 1124.1 186.356 1124.49 186.522C1124.89 186.688 1125.31 186.773 1125.74 186.773Z" fill="#7E1CC4"/>
<path d="M1098.07 188.095L1107.54 175.372H1119.87V174.876H1107.31L1107.23 174.972L1097.7 187.791L1098.07 188.095Z" fill="#7E1CC4"/>
<path d="M520.185 49.5503H546.272V52.194H520.185V49.5503Z" fill="#7E1CC4"/>
<path d="M520.185 58.8037H546.272V61.4474H520.185V58.8037Z" fill="#7E1CC4"/>
<path d="M520.185 66.7349H546.272V69.3786H520.185V66.7349Z" fill="#7E1CC4"/>
<path d="M514.315 54.8379C514.96 54.8379 515.591 54.644 516.127 54.2809C516.663 53.9178 517.081 53.4017 517.328 52.7978C517.575 52.194 517.639 51.5295 517.514 50.8885C517.388 50.2474 517.077 49.6586 516.621 49.1964C516.165 48.7343 515.584 48.4195 514.951 48.292C514.319 48.1645 513.663 48.2299 513.067 48.4801C512.472 48.7302 511.962 49.1538 511.604 49.6972C511.246 50.2407 511.054 50.8796 511.054 51.5332C511.054 51.9672 511.139 52.3969 511.303 52.7978C511.467 53.1988 511.707 53.5631 512.01 53.8699C512.312 54.1768 512.672 54.4202 513.067 54.5863C513.463 54.7524 513.887 54.8379 514.315 54.8379Z" fill="#7E1CC4"/>
<path d="M514.315 62.769C514.96 62.769 515.591 62.5752 516.127 62.2121C516.663 61.8489 517.081 61.3328 517.328 60.729C517.575 60.1251 517.639 59.4607 517.514 58.8196C517.388 58.1786 517.077 57.5897 516.621 57.1276C516.165 56.6654 515.584 56.3507 514.951 56.2232C514.319 56.0957 513.663 56.1611 513.067 56.4112C512.472 56.6614 511.962 57.0849 511.604 57.6284C511.246 58.1718 511.054 58.8107 511.054 59.4643C511.054 59.8983 511.139 60.328 511.303 60.729C511.467 61.1299 511.707 61.4942 512.01 61.8011C512.312 62.108 512.672 62.3514 513.067 62.5175C513.463 62.6835 513.887 62.769 514.315 62.769Z" fill="#7E1CC4"/>
<path d="M514.315 70.7002C514.96 70.7002 515.591 70.5063 516.127 70.1432C516.663 69.7801 517.081 69.264 517.328 68.6601C517.575 68.0563 517.639 67.3918 517.514 66.7508C517.388 66.1097 517.077 65.5209 516.621 65.0587C516.165 64.5966 515.584 64.2818 514.951 64.1543C514.319 64.0268 513.663 64.0922 513.067 64.3424C512.472 64.5925 511.962 65.0161 511.604 65.5595C511.246 66.103 511.054 66.7419 511.054 67.3955C511.054 67.8295 511.139 68.2592 511.303 68.6601C511.467 69.0611 511.707 69.4254 512.01 69.7322C512.312 70.0391 512.672 70.2825 513.067 70.4486C513.463 70.6147 513.887 70.7002 514.315 70.7002Z" fill="#7E1CC4"/>
<path d="M486.647 72.0219L496.113 59.2992H508.446V58.8032H495.881L495.809 58.8992L486.272 71.7179L486.647 72.0219Z" fill="#7E1CC4"/>
</svg>
