<svg width="504" height="413" viewBox="0 0 504 413" fill="none" xmlns="http://www.w3.org/2000/svg">
<path d="M240.336 9.74861C148.903 50.8836 231.899 124.198 179.113 164.128C126.327 204.058 -17.2309 157.907 37.4862 261.6C101.768 383.424 383.246 366.486 443.925 217.083C504.604 67.6798 331.821 -31.3994 240.336 9.74861Z" fill="#FF9C77"/>
<path opacity="0.9" d="M240.336 9.74861C148.903 50.8836 231.899 124.198 179.113 164.128C126.327 204.058 -17.2309 157.907 37.4862 261.6C101.768 383.424 383.246 366.486 443.925 217.083C504.604 67.6798 331.821 -31.3994 240.336 9.74861Z" fill="#FFE5C4"/>
<path d="M252 412.118C390.779 412.118 503.282 405.549 503.282 397.447C503.282 389.345 390.779 382.776 252 382.776C113.221 382.776 0.71875 389.345 0.71875 397.447C0.71875 405.549 113.221 412.118 252 412.118Z" fill="#FFE5C4"/>
<path d="M456.729 127.904L425.651 129.822L433.699 134.358L262.925 222.007L217.151 205.211L78.6341 274.404L69.2251 279.109L80.1245 285.252L91.5422 279.549L217.786 216.486L263.599 233.308L444.547 140.45L451.001 144.078L456.729 127.904Z" fill="#FF9C77"/>
<path d="M451.571 212.442L420.48 214.36L427.75 218.443L219.885 321.864L210.411 326.581L221.349 332.724L232.715 327.074L438.676 224.586L445.83 228.616L451.571 212.442Z" fill="#FF9C77"/>
<path d="M323.85 90.5928L292.772 92.5108L300.043 96.5933L92.1642 200.014L82.6904 204.731L93.6287 210.875L104.995 205.224L310.955 102.736L318.122 106.767L323.85 90.5928Z" fill="#FF9C77"/>
<path d="M456.729 127.904L425.651 129.822L433.699 134.358L262.925 222.007L217.151 205.211L78.6341 274.404L69.2251 279.109L80.1245 285.252L91.5422 279.549L217.786 216.486L263.599 233.308L444.547 140.45L451.001 144.078L456.729 127.904Z" fill="#FF9C77"/>
<path d="M451.571 212.442L420.48 214.36L427.75 218.443L219.885 321.864L210.411 326.581L221.349 332.724L232.715 327.074L438.676 224.586L445.83 228.616L451.571 212.442Z" fill="white"/>
<path d="M323.85 90.5928L292.772 92.5108L300.043 96.5933L92.1642 200.014L82.6904 204.731L93.6287 210.875L104.995 205.224L310.955 102.736L318.122 106.767L323.85 90.5928Z" fill="white"/>
<path d="M52.3901 398.315H431.068L418.627 384.707L392.474 378.292L382.222 361.263L363.767 338.687H341.204L317.331 367.989L283.817 372.201L234.426 384.707L203.97 391.097L192.241 386.172L119.043 392.237L95.7932 388.323L52.3901 398.315Z" fill="#1E1E1E"/>
<path opacity="0.7" d="M52.3901 398.315H431.068L418.627 384.707L392.474 378.292L382.222 361.263L363.767 338.687H341.204L317.331 367.989L283.817 372.201L234.426 384.707L203.97 391.097L192.241 386.172L119.043 392.237L95.7932 388.323L52.3901 398.315Z" fill="white"/>
<path opacity="0.2" d="M95.7932 388.323L89.4039 394.816L115.376 397.447L122.219 394.816H175.873L190.233 386.911L205.02 392.496L202.428 396.177L272.723 392.496L267.824 381.506L283.817 372.201L302.272 378.24L307.132 386.003L316.696 390.371L317.331 367.989L341.204 338.687L345.999 351.75L361.823 347.564L345.999 364.749L335.501 368.87L332.43 388.595L359.089 379.511L383.35 384.902L392.474 378.292L387.795 388.595L364.895 392.496L357.261 398.315H52.3901L95.7932 388.323Z" fill="#1E1E1E"/>
<path d="M280.745 131.158C280.745 131.158 304.773 129.732 310.022 128.255C315.271 126.777 338.832 115.398 338.832 115.398L342.189 122.202C342.189 122.202 316.502 138.649 310.32 140.748C304.138 142.848 277.337 148.122 277.337 148.122L280.745 131.158Z" fill="#1E1E1E"/>
<path opacity="0.4" d="M342.137 122.202C342.137 122.202 316.502 138.649 310.32 140.748C306.432 142.044 294.133 144.714 285.696 146.438C280.875 147.423 277.324 148.122 277.324 148.122L279.618 136.653L280.706 131.158C280.706 131.158 304.734 129.732 309.983 128.255C315.232 126.777 338.832 115.398 338.832 115.398L342.137 122.202Z" fill="white"/>
<path opacity="0.2" d="M285.696 146.437C280.875 147.422 277.324 148.122 277.324 148.122L280.201 140.463C281.465 141.048 282.601 141.877 283.544 142.902C284.487 143.927 285.219 145.129 285.696 146.437Z" fill="#1E1E1E"/>
<path d="M271.868 113.791C269.276 118.003 263.159 120.517 260.36 123.083C257.56 125.65 258.856 134.501 240.608 131.87C222.361 129.239 215.531 132.907 215.531 132.907C215.531 132.907 214.507 128.941 222.529 125.662C222.529 125.662 216.334 126.868 214.559 130.095C214.559 130.095 214.157 120.129 222.335 117.135C230.513 114.141 229.346 101.44 235.152 94.7788C240.958 88.1174 255.992 84.5534 264.714 90.7742C273.436 96.995 275.251 108.322 271.868 113.791Z" fill="#1E1E1E"/>
<path d="M214.559 211.808C214.559 211.808 259.646 212.106 269.055 207.453C278.464 202.801 277.311 156.909 277.311 156.909L237.252 169.688C237.252 169.688 236.098 192.471 214.559 211.808Z" fill="#1E1E1E"/>
<path opacity="0.1" d="M214.559 211.808C214.559 211.808 259.646 212.106 269.055 207.453C278.464 202.801 277.311 156.909 277.311 156.909L237.252 169.688C237.252 169.688 236.098 192.471 214.559 211.808Z" fill="white"/>
<path d="M244.509 134.476C248.98 133.62 256.717 131.884 260.929 131.884C265.141 131.884 268.252 134.281 269.055 136.264C269.859 138.247 246.596 146.088 243.006 144.17C239.416 142.252 238.936 135.539 244.509 134.476Z" fill="#1E1E1E"/>
<path opacity="0.1" d="M244.509 134.476C248.98 133.62 256.717 131.884 260.929 131.884C265.141 131.884 268.252 134.281 269.055 136.264C269.859 138.247 246.596 146.088 243.006 144.17C239.416 142.252 238.936 135.539 244.509 134.476Z" fill="white"/>
<path d="M180.941 392.017H182.794L183.312 389.723L189.455 392.497H205.007C205.007 392.497 207.483 390.008 200.07 388.025C199.707 387.927 199.355 387.793 199.02 387.624C195.132 385.77 189.442 379.511 189.442 379.511H180.902C180.639 379.926 180.406 380.359 180.202 380.807C179.282 382.621 177.662 386.574 180.941 392.017Z" fill="#1E1E1E"/>
<path d="M180.215 380.742C181.342 379.446 186.475 385.006 190.233 386.885C193.59 388.557 197.361 389.295 199.033 387.598C195.145 385.744 188.859 377.657 188.859 377.657H182.016C182.016 377.657 180.617 379.938 180.215 380.742Z" fill="#A0616A"/>
<path d="M188.133 381.507L202.428 350.947L190.064 347.564L181.472 377.709" fill="#A0616A"/>
<path d="M193.291 375.247C191.137 375.035 189.006 374.623 186.928 374.015C185.213 373.541 183.603 372.745 182.185 371.67C186.993 346.19 197.97 306.546 214.209 286.976C234.478 209.371 258.947 197.111 258.947 197.111L280.136 202.658C280.136 202.658 280.136 214.089 272.71 228.449C263.988 245.297 247.036 270.841 234.958 292.069C220.987 316.628 205.344 345.62 193.291 375.247Z" fill="#1E1E1E"/>
<path opacity="0.2" d="M254.177 260.136C247.607 270.815 240.725 281.922 234.958 292.069C221 316.629 205.409 345.607 193.304 375.234C191.15 375.024 189.02 374.616 186.941 374.015C185.223 373.538 183.609 372.742 182.185 371.67C187.006 346.177 197.97 306.546 214.209 286.963C220.391 263.324 226.948 245.737 233.104 232.726C239.121 242.594 246.187 251.784 254.177 260.136Z" fill="white"/>
<path d="M278.192 377.76H280.058L280.564 375.48L286.707 378.253H302.259C302.259 378.253 304.747 375.752 297.36 373.808C296.997 373.709 296.646 373.575 296.31 373.406C292.357 371.553 286.733 365.293 286.733 365.293H278.192C277.93 365.709 277.696 366.142 277.492 366.589C276.533 368.364 274.926 372.304 278.192 377.76Z" fill="#1E1E1E"/>
<path d="M277.466 366.485C278.594 365.189 283.726 370.749 287.484 372.628C290.841 374.3 294.612 375.039 296.284 373.341C292.331 371.488 286.124 363.388 286.124 363.388H279.216C279.216 363.388 277.92 365.682 277.466 366.485Z" fill="#A0616A"/>
<path d="M285.865 367.289L294.911 334.785L282.171 333.502L278.672 364.658" fill="#A0616A"/>
<path d="M309.62 260.123C285.359 232.298 241.477 193.664 241.477 193.664C238.187 196.672 235.594 200.362 233.879 204.476C232.165 208.591 231.37 213.03 231.55 217.484C231.73 221.938 232.881 226.298 234.923 230.261C236.964 234.223 239.847 237.692 243.369 240.424C259.045 252.38 275.682 263.022 293.109 272.241C282.534 303.345 278.983 336.898 278.607 358.515C280.298 359.364 282.113 359.937 283.985 360.213C286.234 360.672 288.553 360.672 290.802 360.213C296.932 334.876 306.575 302.126 312.679 277.982C314.791 269.973 314.428 264.789 309.62 260.123Z" fill="#1E1E1E"/>
<path opacity="0.2" d="M309.62 260.123C285.359 232.298 241.477 193.664 241.477 193.664C238.187 196.672 235.594 200.362 233.879 204.476C232.165 208.591 231.37 213.03 231.55 217.484C231.73 221.938 232.881 226.298 234.923 230.261C236.964 234.223 239.847 237.692 243.369 240.424C259.045 252.38 275.682 263.022 293.109 272.241C282.534 303.345 278.983 336.898 278.607 358.515C280.298 359.364 282.113 359.937 283.985 360.213C286.234 360.672 288.553 360.672 290.802 360.213C296.932 334.876 306.575 302.126 312.679 277.982C314.791 269.973 314.428 264.789 309.62 260.123Z" fill="white"/>
<path d="M339.662 115.476L346.142 107.622L351.248 115.994C351.248 115.994 343.951 122.384 341.541 120.53L339.662 115.476Z" fill="#A0616A"/>
<path d="M355.317 107.338L357.365 114.077L351.3 115.995L346.193 107.623L355.317 107.338Z" fill="#A0616A"/>
<path d="M336.072 115.541L339.804 124.237L343.265 122.267L339.843 114.103L336.072 115.541Z" fill="#FF9C77"/>
<path opacity="0.4" d="M336.072 115.541L339.804 124.237L343.265 122.267L339.843 114.103L336.072 115.541Z" fill="white"/>
<path d="M244.419 137.081C244.419 137.081 261.759 144.3 259.789 133.919C259.789 133.919 271.207 132.856 280.227 131.871C280.227 131.871 282.677 155.199 279.385 192.291L281.731 210.227L268.174 214.4L263.664 201.311L258.247 215.009L229.968 206.145L238.522 188.908C238.522 188.908 237.148 162.042 229.968 147.514C229.968 147.514 231.161 142.33 244.419 137.081Z" fill="#FF9C77"/>
<path d="M245.844 117.343C247.425 123.201 249.369 133.919 245.572 137.833C245.572 137.833 240.245 143.017 255.707 142.485C257.003 145.712 262.252 151.557 262.252 151.557C262.252 151.557 263.262 142.485 262.187 140.139C266.515 135.979 257.703 132.856 257.703 132.856C257.703 132.856 256.925 131.378 257.703 126.829L245.844 117.343Z" fill="#A0616A"/>
<path opacity="0.2" d="M250.704 121.23L257.728 126.868C257.523 127.932 257.419 129.012 257.417 130.095C254.89 129.745 251.261 126.998 250.808 124.393C250.578 123.354 250.543 122.282 250.704 121.23Z" fill="#1E1E1E"/>
<path d="M240.855 105.536C242.63 114.997 243.174 119.015 248.566 123.551C256.679 130.368 267.824 126.765 268.887 117.135C269.846 108.452 266.788 94.4554 257.042 91.332C254.973 90.5902 252.744 90.4156 250.585 90.8262C248.426 91.2369 246.417 92.2178 244.765 93.6672C243.113 95.1165 241.88 96.9815 241.192 99.0686C240.504 101.156 240.388 103.389 240.855 105.536Z" fill="#A0616A"/>
<path d="M248.98 98.7709C243.796 105.497 254.475 113.234 243.796 112.794C233.117 112.353 237.433 97.2416 243.796 93.7683C250.16 90.2951 248.98 98.7709 248.98 98.7709Z" fill="#1E1E1E"/>
<path d="M255.888 107.168C256.005 107.972 256.51 108.581 257.016 108.542C257.521 108.503 257.858 107.829 257.741 107.026C257.625 106.222 257.119 105.613 256.601 105.652C256.082 105.691 255.707 106.365 255.888 107.168Z" fill="#1E1E1E"/>
<path d="M265.479 106.599C265.582 107.403 266.101 108.012 266.606 107.986C267.112 107.96 267.448 107.26 267.332 106.469C267.215 105.679 266.71 105.044 266.191 105.083C265.673 105.122 265.362 105.796 265.479 106.599Z" fill="#1E1E1E"/>
<path d="M265.971 105.147L267.772 104.447C267.772 104.447 267.02 106.028 265.971 105.147Z" fill="#1E1E1E"/>
<path d="M262.977 108.128C263.939 109.9 265.123 111.542 266.502 113.014C266.135 113.336 265.699 113.572 265.228 113.702C264.756 113.832 264.262 113.854 263.781 113.766L262.977 108.128Z" fill="#8A4952"/>
<path d="M259.776 117.031C260.207 117.069 260.641 117.069 261.072 117.031C261.102 117.028 261.132 117.019 261.158 117.004C261.185 116.989 261.208 116.969 261.226 116.944C261.244 116.92 261.257 116.892 261.264 116.862C261.271 116.833 261.272 116.802 261.266 116.772C261.257 116.71 261.226 116.654 261.178 116.613C261.13 116.573 261.07 116.551 261.007 116.552C260.005 116.63 258.997 116.482 258.06 116.118C257.122 115.755 256.278 115.186 255.59 114.452C255.546 114.41 255.488 114.387 255.428 114.387C255.367 114.387 255.309 114.41 255.266 114.452C255.243 114.473 255.226 114.498 255.213 114.526C255.201 114.554 255.195 114.584 255.195 114.614C255.195 114.645 255.201 114.675 255.213 114.703C255.226 114.73 255.243 114.756 255.266 114.776C256.443 116.054 258.047 116.856 259.776 117.031Z" fill="#1E1E1E"/>
<path d="M253.127 102.866C253.189 102.872 253.251 102.862 253.308 102.837C253.365 102.812 253.414 102.773 253.451 102.724C253.827 102.294 254.302 101.962 254.835 101.759C255.369 101.556 255.944 101.486 256.51 101.557C256.569 101.57 256.63 101.571 256.689 101.558C256.749 101.546 256.805 101.521 256.854 101.486C256.903 101.45 256.944 101.405 256.974 101.352C257.004 101.3 257.022 101.241 257.028 101.181C257.044 101.056 257.01 100.93 256.936 100.829C256.861 100.728 256.75 100.659 256.627 100.637C255.91 100.527 255.177 100.602 254.497 100.854C253.816 101.105 253.212 101.526 252.739 102.076C252.662 102.173 252.626 102.296 252.638 102.419C252.65 102.542 252.709 102.656 252.803 102.736C252.846 102.778 252.897 102.811 252.952 102.834C253.008 102.856 253.067 102.867 253.127 102.866Z" fill="#1E1E1E"/>
<path d="M267.643 102.011C267.759 102.016 267.874 101.979 267.967 101.908C268.01 101.864 268.045 101.813 268.068 101.756C268.092 101.699 268.104 101.638 268.104 101.577C268.104 101.516 268.092 101.455 268.068 101.398C268.045 101.341 268.01 101.29 267.967 101.247C267.485 100.66 266.873 100.194 266.181 99.8835C265.488 99.5732 264.733 99.4276 263.975 99.4581C263.915 99.464 263.856 99.4826 263.804 99.5127C263.751 99.5428 263.706 99.5837 263.67 99.6327C263.635 99.6817 263.61 99.7377 263.598 99.7969C263.585 99.8562 263.586 99.9174 263.599 99.9765C263.621 100.101 263.69 100.213 263.79 100.29C263.891 100.367 264.017 100.403 264.143 100.391C264.745 100.373 265.342 100.495 265.889 100.746C266.435 100.998 266.916 101.374 267.293 101.843C267.384 101.941 267.509 102.001 267.643 102.011Z" fill="#1E1E1E"/>
<path d="M256.316 105.717L258.117 105.018C258.117 105.018 257.366 106.599 256.316 105.717Z" fill="#1E1E1E"/>
<path d="M252.635 93.5223C252.635 93.5223 250.782 104.668 243.382 106.482C235.982 108.297 241.982 95.0257 241.982 95.0257C241.982 95.0257 243.537 88.9863 253.542 88.9863C263.547 88.9863 275.069 99.147 271.868 113.74C272.136 110.738 271.556 107.72 270.196 105.031C267.98 101.246 265.699 104.551 252.635 93.5223Z" fill="#1E1E1E"/>
<path d="M239.934 114.711C240.322 115.545 240.879 116.288 241.571 116.893C242.263 117.498 243.074 117.951 243.952 118.223C246.142 118.807 247.101 116.292 246.376 113.778C245.715 111.51 243.784 108.465 241.619 109.022C239.455 109.579 238.82 112.495 239.934 114.711Z" fill="#A0616A"/>
<path d="M242.384 136.809C242.384 136.809 245.442 172.176 232.871 195.245C220.3 218.314 214.416 221.787 214.416 221.787L209.232 211.808C209.232 211.808 232.482 185.694 233.208 182.285C233.934 178.877 228.957 146.425 228.957 146.425C232.986 142.638 237.501 139.404 242.384 136.809Z" fill="#1E1E1E"/>
<path opacity="0.4" d="M232.871 195.246C220.313 218.288 214.416 221.788 214.416 221.788L209.232 211.808C209.232 211.808 232.482 185.694 233.208 182.286C233.279 179.224 233.08 176.162 232.612 173.136C232.08 168.392 231.316 162.612 230.603 157.649C229.722 151.389 228.957 146.425 228.957 146.425C232.973 142.637 237.475 139.398 242.345 136.796C242.345 136.796 245.442 172.177 232.871 195.246Z" fill="white"/>
<path d="M244.509 134.476C244.509 134.476 240.738 134.942 239.882 136.795C239.027 138.649 231.16 148.459 231.16 148.459L239.403 146.438L234.556 150.74C237.1 158.919 238.836 167.327 239.74 175.844C239.74 175.844 247.088 156.08 242.332 136.808L244.509 134.476Z" fill="#1E1E1E"/>
<path opacity="0.25" d="M244.509 134.476C244.509 134.476 240.738 134.942 239.882 136.795C239.027 138.649 231.16 148.459 231.16 148.459L239.403 146.438L234.556 150.74C237.1 158.919 238.836 167.327 239.74 175.844C239.74 175.844 247.088 156.08 242.332 136.808L244.509 134.476Z" fill="white"/>
<path d="M265.349 132.623C265.349 132.623 278.309 137.366 280.136 182.687C280.136 182.687 283.052 148.084 280.745 131.158L265.349 132.623Z" fill="#1E1E1E"/>
<path opacity="0.4" d="M265.349 132.623C265.349 132.623 278.309 137.366 280.136 182.687C280.136 182.687 283.052 148.084 280.745 131.158L265.349 132.623Z" fill="white"/>
<path d="M260.359 131.871L264.973 131.158C266.852 130.86 281.419 139.064 281.419 139.064L274.382 140.528L279.566 142.395C279.566 142.395 281.368 159.243 279.1 169.766C279.1 169.766 274.913 144.689 266.243 134.541C265.531 133.677 264.63 132.987 263.61 132.525C262.591 132.062 261.479 131.838 260.359 131.871Z" fill="#1E1E1E"/>
<path opacity="0.25" d="M260.359 131.871L264.973 131.158C266.852 130.86 281.419 139.064 281.419 139.064L274.382 140.528L279.566 142.395C279.566 142.395 281.368 159.243 279.1 169.766C279.1 169.766 274.913 144.689 266.243 134.541C265.531 133.677 264.63 132.987 263.61 132.525C262.591 132.062 261.479 131.838 260.359 131.871Z" fill="white"/>
<path d="M257.703 132.907C257.703 132.907 262.796 136.458 262.187 140.191L272.412 140.463C272.412 140.463 265.738 133.529 257.703 132.907Z" fill="#FF9C77"/>
<path d="M243.537 146.438L255.707 142.485C255.707 142.485 249.227 137.301 247.257 134.476L243.239 137.495C243.136 137.729 241.943 140.683 243.537 146.438Z" fill="#FF9C77"/>
<path opacity="0.1" d="M257.703 132.907C257.703 132.907 262.796 136.458 262.187 140.191L272.412 140.463C272.412 140.463 265.738 133.529 257.703 132.907Z" fill="white"/>
<path opacity="0.1" d="M243.537 146.438L255.707 142.485C255.707 142.485 249.227 137.301 247.257 134.476L243.239 137.495C243.136 137.729 241.943 140.683 243.537 146.438Z" fill="white"/>
<path d="M184.258 173.615L175.018 169.261L173.929 179.007C173.929 179.007 183.247 181.715 184.647 179.007L184.258 173.615Z" fill="#A0616A"/>
<path d="M166.632 172.864L167.63 179.836L173.929 179.007L175.017 169.261L166.632 172.864Z" fill="#A0616A"/>
<path d="M181.77 82.947C181.77 82.947 158.507 73.2789 137.278 88.5328C124.94 97.3845 117.099 117.783 89.4946 109.852C89.4946 109.852 114.637 137.833 131.109 134.333C147.581 130.834 144.277 121.555 177.636 130.666L181.77 82.947Z" fill="#7E1CC4"/>
<path d="M183.276 80.8056L180.185 80.6084L160.095 395.531L163.187 395.728L183.276 80.8056Z" fill="#1E1E1E"/>
<path d="M183.831 80.6657C183.724 81.0727 183.5 81.439 183.186 81.7183C182.871 81.9976 182.481 82.1774 182.064 82.2349C181.648 82.2923 181.223 82.2249 180.845 82.0412C180.467 81.8574 180.152 81.5656 179.939 81.2026C179.727 80.8396 179.627 80.4217 179.652 80.002C179.677 79.5822 179.827 79.1793 180.081 78.8443C180.335 78.5093 180.683 78.2573 181.081 78.1201C181.478 77.983 181.907 77.9668 182.314 78.0737C182.857 78.2199 183.32 78.5737 183.604 79.0588C183.888 79.5439 183.969 80.1211 183.831 80.6657Z" fill="#1E1E1E"/>
<path d="M217.41 113.96C217.367 113.959 217.326 113.948 217.287 113.931C217.248 113.913 217.213 113.888 217.185 113.856C217.156 113.825 217.133 113.788 217.119 113.748C217.104 113.708 217.097 113.666 217.099 113.623C217.108 113.542 217.145 113.466 217.204 113.409C217.264 113.352 217.341 113.318 217.423 113.312C217.786 113.312 226.495 113.312 229.605 102.789C230.487 99.6713 232.218 96.8605 234.605 94.6703C236.992 92.4801 239.941 90.9967 243.123 90.386C243.208 90.3739 243.296 90.3965 243.365 90.4488C243.434 90.5011 243.48 90.5787 243.492 90.6646C243.504 90.7505 243.481 90.8377 243.429 90.907C243.377 90.9763 243.299 91.0219 243.213 91.034C240.162 91.6337 237.336 93.0662 235.049 95.1729C232.761 97.2796 231.102 99.9783 230.253 102.97C226.948 113.844 217.721 113.96 217.41 113.96Z" fill="#1E1E1E"/>
<path d="M269.872 118.639C269.802 118.637 269.735 118.613 269.681 118.571C269.626 118.528 269.586 118.47 269.567 118.403C269.548 118.336 269.551 118.265 269.576 118.2C269.6 118.135 269.645 118.08 269.703 118.042C270.066 117.809 278.425 112.327 272.114 99.5874C266.282 87.8068 252.181 89.349 252.039 89.362C251.996 89.3674 251.953 89.3643 251.912 89.3529C251.87 89.3414 251.831 89.3219 251.798 89.2954C251.764 89.2688 251.736 89.2359 251.715 89.1983C251.694 89.1608 251.681 89.1196 251.676 89.0769C251.669 89.0296 251.671 88.9812 251.684 88.9351C251.697 88.8889 251.719 88.846 251.75 88.8092C251.781 88.7724 251.819 88.7426 251.862 88.7217C251.905 88.7008 251.952 88.6893 252 88.6881C252.142 88.6881 266.697 87.081 272.736 99.2764C279.32 112.547 270.144 118.509 270.079 118.561C270.052 118.588 270.02 118.61 269.984 118.623C269.948 118.636 269.91 118.642 269.872 118.639Z" fill="#1E1E1E"/>
<path opacity="0.2" d="M232.651 173.148C232.12 168.405 231.355 162.625 230.642 157.661C231.098 157.123 231.676 156.701 232.327 156.43C232.327 156.43 236.448 166.072 232.651 173.148Z" fill="#1E1E1E"/>
<path d="M228.996 146.438C228.996 146.438 213.742 170.284 210.321 171.956C206.899 173.628 185.904 172.928 185.904 172.928L184.608 180.859C184.608 180.859 208.545 184.981 215.038 182.687C221.531 180.393 232.314 165.774 232.314 165.774C232.314 165.774 233.856 151.933 228.996 146.438Z" fill="#1E1E1E"/>
<path opacity="0.4" d="M228.996 146.438C228.996 146.438 213.742 170.284 210.321 171.956C206.899 173.628 185.904 172.928 185.904 172.928L184.608 180.859C184.608 180.859 208.545 184.981 215.038 182.687C221.531 180.393 232.314 165.774 232.314 165.774C232.314 165.774 233.856 151.933 228.996 146.438Z" fill="white"/>
<path d="M185.982 181.857L187.2 172.474L183.221 172.396L181.99 181.157L185.982 181.857Z" fill="#FF9C77"/>
<path opacity="0.4" d="M185.982 181.857L187.2 172.474L183.221 172.396L181.99 181.157L185.982 181.857Z" fill="white"/>
</svg>
