<svg width="665" height="361" viewBox="0 0 665 361" fill="none" xmlns="http://www.w3.org/2000/svg">
<path d="M130.998 73.6057C217.098 82.2356 223.078 106.426 270.258 106.426C309.318 106.426 325.568 89.8657 360.258 71.9857C384.668 59.4157 405.568 41.0757 428.448 25.8857C451.328 10.6957 477.748 -1.67434 505.138 0.185657C546.048 2.95566 579.958 39.1157 587.458 79.4156C594.958 119.716 579.558 161.876 553.758 193.736C527.958 225.596 496.158 261.446 459.758 280.396C408.148 307.316 348.968 314.646 291.048 320.396C233.128 326.146 172.778 316.706 122.448 287.466C87.1781 266.966 56.5081 235.466 45.6981 196.096C34.8881 156.726 47.9581 109.656 82.5381 88.0057C82.6281 88.0357 108.388 71.3456 130.998 73.6057Z" fill="#FFE5C4"/>
<path d="M655.5 360C655.5 360.15 508.95 360.26 328.22 360.26C147.49 360.26 0.910156 360.18 0.910156 360C0.910156 359.82 147.43 359.74 328.22 359.74C509.01 359.74 655.5 359.89 655.5 360Z" fill="#263238"/>
<path d="M467.08 311.77H80.1997V110.771H464.79C464.79 110.771 467.08 314 467.08 311.77Z" fill="#FFE5C4"/>
<path d="M324.47 122.73V212.73H391.47V122.73C391.47 122.73 324.47 123.45 324.47 122.73Z" fill="#AAAAAA"/>
<path d="M324.47 122.91V136.91L391.45 137.32V122.73L324.47 122.91Z" fill="#1E1E1E"/>
<path d="M348.69 129.17V131.91H370.14V129.53L348.69 129.17Z" fill="white"/>
<path d="M349.17 143.35H328.2V165.83H349.17V143.35Z" fill="white"/>
<path d="M346.24 189.39H347.17H349.83H359.57L359.49 189.47C359.49 182.77 359.49 173.93 359.49 164.25V158.51H359.59H378.87L378.79 158.58C378.86 154.43 378.92 151.04 378.96 148.58C378.96 147.44 378.96 146.58 379.01 145.86C379.06 145.14 379.01 144.91 379.01 144.91C379.01 144.91 379.01 145.24 379.01 145.86C379.01 146.48 379.01 147.44 379.01 148.58C379.01 151 378.95 154.39 378.91 158.58V158.65H378.83H359.55L359.66 158.55V164.18C359.66 173.86 359.66 182.7 359.66 189.4V189.48H359.58H349.84H347.18L346.24 189.39Z" fill="#FF9C77"/>
<path d="M385.71 196.05H384.12H379.64H363.64H363.55V195.96C363.55 189.49 363.55 181.871 363.55 173.741V163.361H376.87L376.78 163.451C376.78 157.251 376.78 152.081 376.78 148.451C376.78 146.671 376.78 145.261 376.78 144.251C376.78 143.241 376.78 142.771 376.78 142.771C376.78 142.771 376.78 143.281 376.78 144.251C376.78 145.221 376.78 146.671 376.78 148.451C376.78 152.111 376.78 157.281 376.78 163.451V163.54H363.62L363.72 163.441V173.811C363.72 181.941 363.72 189.561 363.72 196.031L363.63 195.941H379.63H384.11L385.71 196.05Z" fill="#1E1E1E"/>
<path d="M328.34 170.87V172.99H345.3V170.45L328.34 170.87Z" fill="white"/>
<path d="M328.2 174.43V176.54H345.17V174.01L328.2 174.43Z" fill="white"/>
<path d="M55.3798 17.48V83.2H488.49V18.28C488.49 18.28 53.7998 15.9 55.3798 17.48Z" fill="#1E1E1E"/>
<path d="M408.68 77.5996L408.73 360H415.54L415.6 79.1596C415.6 79.1596 407.54 77.5996 408.68 77.5996Z" fill="#1E1E1E"/>
<path d="M456.47 79.7198L457.61 359.48H471.23V79.7198C471.23 79.7198 455.34 78.5398 456.47 79.7198Z" fill="#1E1E1E"/>
<path d="M55.3799 47.7398V63.3298H488.49V46.7998L55.3799 47.7398Z" fill="#FF9C77"/>
<path d="M68.2196 75.9103L69.3596 360.11H82.9996V75.9103C82.9996 75.9103 67.0896 74.7103 68.2196 75.9103Z" fill="#1E1E1E"/>
<path d="M130.62 82.5898V360.26H137.43V81.2598C137.43 81.2598 129.48 82.5898 130.62 82.5898Z" fill="#1E1E1E"/>
<path d="M88.02 120.31L88.42 301.64H125.53L124.79 120.31H88.02Z" fill="#FF9C77"/>
<path d="M247.07 285.391H240.08V359.591H247.07V285.391Z" fill="#263238"/>
<path d="M326.57 285.89H157C156.234 285.89 155.476 285.739 154.769 285.446C154.062 285.153 153.419 284.724 152.877 284.183C152.336 283.641 151.907 282.999 151.614 282.291C151.321 281.584 151.17 280.826 151.17 280.06C151.173 278.516 151.788 277.035 152.881 275.944C153.974 274.853 155.455 274.24 157 274.24H326.6C328.143 274.243 329.621 274.857 330.712 275.948C331.803 277.039 332.417 278.517 332.42 280.06C332.42 280.828 332.268 281.587 331.974 282.296C331.68 283.005 331.249 283.648 330.705 284.19C330.162 284.731 329.517 285.16 328.807 285.452C328.097 285.744 327.337 285.893 326.57 285.89Z" fill="#455A64"/>
<path d="M626.4 120.131H617.44V360.041H626.4V120.131Z" fill="#1E1E1E"/>
<path d="M664.13 53.4004H585.56V120.12H664.13V53.4004Z" fill="#7E1CC4"/>
<path d="M659.55 115.631H591V57.3408H659.51L659.55 115.631ZM591.79 114.881H658.79V58.0908H591.79V114.881Z" fill="white"/>
<path d="M601.49 76.2804L601.31 96.5904H651.49V88.8804C651.49 88.3267 651.381 87.7785 651.169 87.267C650.956 86.7556 650.645 86.291 650.253 85.9C649.861 85.5089 649.396 85.199 648.884 84.988C648.372 84.7771 647.824 84.6691 647.27 84.6704C646.153 84.6678 645.082 84.222 644.293 83.4309C643.503 82.6398 643.06 81.5679 643.06 80.4504V76.1504C643.061 75.5972 642.953 75.0492 642.742 74.5378C642.531 74.0264 642.221 73.5618 641.83 73.1706C641.439 72.7794 640.974 72.4693 640.463 72.2582C639.951 72.0471 639.403 71.9391 638.85 71.9404L605.65 72.1004C604.545 72.1057 603.487 72.5485 602.707 73.3318C601.928 74.1151 601.49 75.1753 601.49 76.2804Z" fill="white"/>
<path d="M648.2 96.6004C648.2 97.5383 647.922 98.4551 647.401 99.2348C646.879 100.015 646.139 100.622 645.272 100.98C644.405 101.339 643.452 101.432 642.532 101.249C641.612 101.065 640.768 100.612 640.105 99.9485C639.443 99.2846 638.992 98.4391 638.81 97.5189C638.628 96.5988 638.724 95.6455 639.084 94.7795C639.444 93.9136 640.053 93.174 640.834 92.6543C641.615 92.1347 642.532 91.8584 643.47 91.8604C644.092 91.8604 644.708 91.983 645.283 92.2214C645.857 92.4597 646.379 92.809 646.818 93.2493C647.258 93.6896 647.606 94.2122 647.843 94.7872C648.08 95.3622 648.202 95.9784 648.2 96.6004Z" fill="#7E1CC4"/>
<path d="M643.4 99.9501C645.228 99.9501 646.71 98.4681 646.71 96.6401C646.71 94.812 645.228 93.3301 643.4 93.3301C641.572 93.3301 640.09 94.812 640.09 96.6401C640.09 98.4681 641.572 99.9501 643.4 99.9501Z" fill="white"/>
<path d="M614.79 95.8904C614.79 96.8283 614.512 97.7451 613.991 98.5249C613.469 99.3046 612.728 99.9121 611.862 100.271C610.995 100.629 610.041 100.722 609.122 100.539C608.202 100.355 607.357 99.9024 606.695 99.2385C606.032 98.5746 605.582 97.7291 605.4 96.809C605.218 95.8889 605.313 94.9355 605.674 94.0695C606.034 93.2036 606.643 92.464 607.424 91.9444C608.205 91.4247 609.122 91.1484 610.06 91.1504C610.682 91.1504 611.298 91.2731 611.872 91.5114C612.447 91.7497 612.969 92.0991 613.408 92.5393C613.848 92.9796 614.196 93.5022 614.433 94.0773C614.67 94.6523 614.791 95.2684 614.79 95.8904Z" fill="#7E1CC4"/>
<path d="M613.3 95.9301C613.3 96.5852 613.106 97.2256 612.742 97.7701C612.377 98.3147 611.86 98.7389 611.255 98.9891C610.649 99.2393 609.983 99.3043 609.341 99.1758C608.698 99.0473 608.109 98.731 607.646 98.2671C607.184 97.8032 606.869 97.2125 606.743 96.5697C606.616 95.927 606.683 95.2612 606.935 94.6565C607.187 94.0519 607.613 93.5356 608.159 93.1731C608.704 92.8106 609.345 92.6182 610 92.6201C610.876 92.6228 611.716 92.9727 612.334 93.5931C612.953 94.2136 613.3 95.054 613.3 95.9301Z" fill="white"/>
<path d="M603.52 77.6902V84.5502H608.18V77.6902C606.628 77.5902 605.072 77.5902 603.52 77.6902Z" fill="#7E1CC4"/>
<path d="M610.27 77.6902V84.5502H614.94V77.6902C613.385 77.5902 611.825 77.5902 610.27 77.6902Z" fill="#7E1CC4"/>
<path d="M617 77.6902V84.5502H621.67V77.6902C620.115 77.5902 618.555 77.5902 617 77.6902Z" fill="#7E1CC4"/>
<path d="M624.17 77.6902V84.5502H628.84V77.6902C627.285 77.5902 625.725 77.5902 624.17 77.6902Z" fill="#7E1CC4"/>
<path d="M630.83 77.6902V84.5502H635.5V77.6902C633.945 77.5902 632.385 77.5902 630.83 77.6902Z" fill="#7E1CC4"/>
<path d="M638 77.6902V84.5502H642.67V77.6902C641.115 77.5902 639.555 77.5902 638 77.6902Z" fill="#7E1CC4"/>
<path d="M631.93 177.05C630.8 176.41 626.21 181.26 626.44 179.77C626.67 178.28 632.92 174.35 631.7 173.77C630.12 172.96 625.42 178.1 624.98 178.51C624.54 178.92 623.79 178.44 624.21 178.09C624.81 177.58 630.98 172.09 629.44 171.27C628.58 170.82 627.68 172.13 627.68 172.13C627.68 172.13 622.38 177.6 621.68 177.2C620.98 176.8 623.94 173.49 625.04 172.44C626.14 171.39 625.95 170.56 624.98 170.57C624.32 170.57 620.85 173.75 619.79 174.81C618.73 175.87 615.88 178.81 615.79 176.49C615.7 174.17 614.55 172.37 613.79 172.07C613.03 171.77 612.24 172.48 612.65 173.13C612.99 173.859 613.207 174.64 613.29 175.44C613.368 175.997 613.341 176.564 613.21 177.11C610.56 179.3 591.56 194.9 589.35 194.23C586.98 193.52 577.86 163.82 577.86 163.82L568.55 190.88C568.55 190.88 575.08 210.42 587.18 210.62C601.69 210.87 622.32 184.74 622.32 184.73C625.06 183.07 627.99 181.22 629.47 180.05C632.62 177.51 632.35 177.28 631.93 177.05Z" fill="#B78876"/>
<path d="M573.69 192.05L586.63 183.63C586.63 183.63 580.23 157.26 569.63 156.42L568.63 166.07L573.69 192.05Z" fill="#FF9C77"/>
<path d="M544.349 227.471C545.179 228.631 551.71 277.101 551.71 277.101L507.77 320.101L518.07 331.001C518.07 331.001 569.77 287.421 570.82 282.431C572.08 276.431 568.57 230.951 568.57 230.951L544.349 227.471Z" fill="#A36957"/>
<path d="M545.14 254.051H554.69L542.3 234.431L545.14 254.051Z" fill="#263238"/>
<path d="M541.72 133.07C541.582 135.568 540.647 137.956 539.053 139.884C537.458 141.811 535.288 143.177 532.86 143.78C530.35 144.39 527.46 144.1 525.46 145.78C522.05 148.67 524.05 154.67 521.75 158.56C520.33 160.94 517.52 162.12 515.93 164.38C513.28 168.15 515.06 173.84 518.67 176.65C522.28 179.46 527.09 179.99 531.61 179.87C541.61 179.62 551.76 176.45 558.96 169.4C562.34 166.08 573.29 153.48 568.32 135.31" fill="#263238"/>
<path d="M564.4 156.48C564.14 155.09 563.95 147.6 563.95 147.6C563.95 147.6 569.16 146.94 569.38 141.6C569.6 136.26 569.08 124.06 569.08 124.06L559.5 119.46L549.2 127.76L550.98 154.76L564.4 156.48Z" fill="#B78876"/>
<path d="M568.2 133.001C568.211 133.095 568.203 133.19 568.175 133.281C568.146 133.372 568.099 133.455 568.037 133.526C567.974 133.597 567.896 133.654 567.81 133.693C567.723 133.732 567.63 133.752 567.535 133.752C567.44 133.752 567.346 133.732 567.26 133.693C567.173 133.654 567.096 133.597 567.033 133.526C566.97 133.455 566.923 133.372 566.895 133.281C566.867 133.19 566.858 133.095 566.87 133.001C566.858 132.907 566.867 132.811 566.895 132.72C566.923 132.63 566.97 132.546 567.033 132.475C567.096 132.404 567.173 132.347 567.26 132.308C567.346 132.269 567.44 132.249 567.535 132.249C567.63 132.249 567.723 132.269 567.81 132.308C567.896 132.347 567.974 132.404 568.037 132.475C568.099 132.546 568.146 132.63 568.175 132.72C568.203 132.811 568.211 132.907 568.2 133.001Z" fill="#263238"/>
<path d="M568.82 132.27C568.74 132.36 568.24 131.95 567.53 131.92C566.82 131.89 566.29 132.25 566.21 132.16C566.13 132.07 566.21 131.95 566.49 131.78C566.799 131.565 567.173 131.459 567.55 131.48C567.917 131.504 568.267 131.644 568.55 131.88C568.79 132.06 568.86 132.23 568.82 132.27Z" fill="#263238"/>
<path d="M560.53 133.16C560.533 133.337 560.466 133.508 560.345 133.637C560.223 133.766 560.057 133.843 559.88 133.85C559.791 133.852 559.703 133.835 559.62 133.802C559.538 133.769 559.463 133.72 559.4 133.658C559.336 133.595 559.286 133.521 559.252 133.439C559.217 133.357 559.2 133.269 559.2 133.18C559.197 133.003 559.263 132.832 559.385 132.703C559.506 132.575 559.673 132.498 559.85 132.49C559.939 132.489 560.027 132.505 560.109 132.538C560.192 132.571 560.267 132.621 560.33 132.683C560.393 132.745 560.444 132.82 560.478 132.902C560.512 132.984 560.53 133.071 560.53 133.16Z" fill="#263238"/>
<path d="M560.93 132.41C560.84 132.5 560.35 132.08 559.63 132.06C558.91 132.04 558.39 132.39 558.31 132.29C558.23 132.19 558.36 132.09 558.59 131.92C558.899 131.702 559.272 131.593 559.65 131.61C560.018 131.631 560.369 131.771 560.65 132.01C560.89 132.2 561 132.37 560.93 132.41Z" fill="#263238"/>
<path d="M563.6 138.54C563.98 138.429 564.374 138.369 564.77 138.36C564.95 138.36 565.12 138.36 565.15 138.19C565.172 137.99 565.134 137.788 565.04 137.61L564.53 136.1C564.049 134.821 563.664 133.507 563.38 132.17C563.954 133.409 564.436 134.689 564.82 136C564.99 136.53 565.15 137 565.31 137.51C565.418 137.751 565.446 138.021 565.39 138.28C565.365 138.346 565.325 138.404 565.273 138.451C565.22 138.498 565.158 138.532 565.09 138.55C564.987 138.568 564.882 138.568 564.78 138.55C564.388 138.604 563.991 138.6 563.6 138.54Z" fill="#263238"/>
<path d="M561.26 139.271C562.311 139.922 563.499 140.319 564.73 140.43C564.476 140.797 564.106 141.067 563.68 141.2C563.255 141.332 562.797 141.318 562.38 141.161C561.982 141.057 561.641 140.8 561.431 140.446C561.221 140.092 561.16 139.67 561.26 139.271Z" fill="white"/>
<path d="M564 147.6C561.532 147.535 559.137 146.749 557.11 145.34C557.773 146.562 558.789 147.557 560.024 148.196C561.26 148.834 562.659 149.086 564.04 148.92L564 147.6Z" fill="#A36957"/>
<path d="M569.35 131.541C570.09 129.617 570.245 127.517 569.797 125.505C569.349 123.493 568.317 121.658 566.83 120.231C561.61 114.851 558.11 116.051 556.1 116.081C554.09 116.111 544.79 118.341 542.16 129.451C542.029 130.165 541.935 130.886 541.88 131.611C541.82 132.211 541.77 132.771 541.72 133.151H541.84C541.84 137.751 542.49 151.341 550.84 153.031L550.03 131.891C550.03 131.891 558.54 130.891 559.91 122.951C559.94 122.931 566.11 131.831 569.35 131.541Z" fill="#263238"/>
<path d="M573.26 281.05C576.17 295.1 586.82 354.05 586.82 354.05L601.59 351.43L594.68 277C594.51 275.037 594.111 273.1 593.49 271.23L576.49 220.23L543.18 198.63C542.86 198.63 539.26 213.02 539.96 222.14C540.299 226.2 541.692 230.102 544 233.46C546 236.46 548.87 240.57 549.51 241.53C550.55 243.06 573.26 281.05 573.26 281.05Z" fill="#B78876"/>
<path d="M509.56 140.64C508.05 128.73 511.56 115.8 512.98 111.26C513.47 110.79 514.07 110.26 514.8 109.64C515.432 109.126 516.145 108.721 516.91 108.44C517.849 108.063 518.834 107.814 519.84 107.7C520.035 107.712 520.228 107.662 520.393 107.558C520.559 107.455 520.688 107.302 520.762 107.122C520.837 106.942 520.854 106.743 520.811 106.552C520.767 106.362 520.665 106.19 520.52 106.06C519.83 105.57 517.26 105.53 514.52 106.8C511.78 108.07 513.85 103.8 514.57 102.26C515.29 100.72 517.28 95.7603 516.97 95.1603C516.53 94.2803 515.5 94.6003 514.82 96.1603C514.14 97.7203 511.77 102.33 510.96 101.91C510.15 101.49 513.96 93.5903 513.96 93.5903C513.96 93.5903 515.04 92.0303 514.13 91.5203C512.47 90.5903 509.13 99.2903 508.79 100.12C508.58 100.7 507.69 100.28 507.95 99.6703C508.21 99.0603 511.88 91.8703 510.21 90.9103C508.92 90.1703 507.36 98.0403 505.77 99.1003C504.18 100.16 507.57 93.2603 506.31 92.6003C505.84 92.3603 505.46 92.2403 504.09 96.4903C503.236 99.5983 502.549 102.749 502.03 105.93C502.03 105.93 484.76 148.5 503.14 156.93C522.65 165.85 539.99 172.11 539.99 172.11L545 154C545 154 509.84 142.79 509.56 140.64Z" fill="#B78876"/>
<path d="M540.06 172.111L543 199.831L541.74 205.511L572.74 205.661L578.55 176.171L579.14 172.891C579.505 170.884 579.448 168.823 578.972 166.839C578.496 164.856 577.611 162.993 576.374 161.371C575.138 159.749 573.577 158.402 571.79 157.417C570.004 156.432 568.032 155.83 566 155.651H565.61L538.07 151.721L540.06 172.111Z" fill="#B78876"/>
<path d="M572.54 212.811L572.77 205.661L542.99 200.801L572.54 212.811Z" fill="#B78876"/>
<path d="M507.77 320.141L503.12 324.281L503.71 325.001C506.37 328.201 517.46 341.071 519.96 342.531C522.76 344.151 516.16 332.831 516.16 332.831L518.07 331.041" fill="#FF9C77"/>
<g opacity="0.5">
<path d="M506.92 328.19C507.69 327.16 508.046 325.88 507.92 324.6C507.824 323.334 507.256 322.149 506.33 321.28L503.25 324.15L506.92 328.19Z" fill="white"/>
</g>
<path opacity="0.5" d="M519.22 338.52C519.22 338.52 521.33 342.68 520.41 342.77C519.49 342.86 507.79 330.28 503.12 324.28L503.38 324.07L516.9 338.86C516.9 338.86 518.6 337.9 519.22 338.52Z" fill="white"/>
<path d="M503.229 323.891C503.272 323.966 503.322 324.036 503.38 324.101L503.859 324.671L505.63 326.761C507.14 328.501 509.26 330.891 511.63 333.481C514 336.071 516.25 338.351 517.88 339.991L519.88 341.921L520.419 342.431C520.475 342.495 520.539 342.552 520.609 342.601C520.554 342.536 520.49 342.478 520.419 342.431C520.269 342.261 520.099 342.091 519.909 341.891L518.01 339.891C516.4 338.231 514.189 335.891 511.799 333.341C509.409 330.791 507.259 328.341 505.729 326.661L503.909 324.661C503.729 324.451 503.559 324.271 503.409 324.111C503.355 324.033 503.295 323.959 503.229 323.891Z" fill="#263238"/>
<path d="M516.72 339C517.134 338.776 517.574 338.602 518.03 338.48C518.495 338.43 518.964 338.43 519.43 338.48C518.985 338.252 518.472 338.199 517.99 338.33C517.498 338.389 517.046 338.628 516.72 339Z" fill="#263238"/>
<path d="M515.35 334.23C515.596 334.289 515.853 334.289 516.1 334.23C516.5 334.15 516.82 334.05 516.81 334C516.56 333.955 516.302 333.972 516.06 334.05C515.66 334.08 515.34 334.18 515.35 334.23Z" fill="#263238"/>
<path d="M515 332.901C515 332.951 515.28 333.021 515.62 333.051C515.96 333.081 516.26 333.051 516.26 333.051C516.26 333.051 515.99 332.931 515.64 332.901C515.29 332.871 515 332.851 515 332.901Z" fill="#263238"/>
<path d="M515.51 331.371C515.51 331.371 515.68 331.691 515.97 332.011C516.26 332.331 516.53 332.571 516.57 332.531C516.46 332.287 516.3 332.068 516.1 331.891C515.81 331.571 515.55 331.341 515.51 331.371Z" fill="#263238"/>
<path d="M516.06 330.5C516.115 330.804 516.258 331.085 516.47 331.31C516.79 331.71 517.15 331.93 517.18 331.89C517.21 331.85 516.92 331.58 516.61 331.2C516.3 330.82 516.11 330.47 516.06 330.5Z" fill="#263238"/>
<path d="M516.66 333.71C516.831 333.988 517.056 334.229 517.32 334.42C517.592 334.645 517.883 334.845 518.19 335.02C518.373 335.128 518.567 335.216 518.77 335.28C518.83 335.307 518.894 335.32 518.96 335.32C519.025 335.32 519.09 335.307 519.15 335.28C519.213 335.243 519.264 335.188 519.296 335.122C519.328 335.057 519.34 334.983 519.33 334.91C519.211 334.517 518.96 334.178 518.619 333.95C518.278 333.722 517.868 333.619 517.46 333.66C517.218 333.683 516.983 333.755 516.77 333.87C516.63 333.95 516.56 334.02 516.57 334.03C516.853 333.897 517.158 333.815 517.47 333.79C517.803 333.779 518.132 333.862 518.42 334.03C518.595 334.124 518.75 334.252 518.876 334.406C519.001 334.561 519.094 334.739 519.15 334.93C519.15 335.12 519 335.19 518.81 335.14C518.624 335.075 518.443 334.994 518.27 334.9C517.968 334.736 517.677 334.552 517.4 334.35C516.93 334 516.68 333.69 516.66 333.71Z" fill="#263238"/>
<path d="M516.79 333.93C516.79 333.93 517.07 333.88 517.36 333.55C517.524 333.356 517.64 333.127 517.7 332.88C517.748 332.722 517.755 332.554 517.722 332.391C517.689 332.229 517.616 332.077 517.51 331.95C517.427 331.894 517.325 331.873 517.227 331.889C517.128 331.906 517.04 331.96 516.98 332.04C516.885 332.162 516.817 332.301 516.78 332.45C516.71 332.691 516.67 332.94 516.66 333.19C516.636 333.418 516.667 333.647 516.75 333.86C516.75 333.86 516.75 333.6 516.75 333.2C516.777 332.963 516.827 332.728 516.9 332.5C516.96 332.27 517.16 331.95 517.36 332.1C517.438 332.207 517.491 332.329 517.515 332.459C517.54 332.589 517.534 332.723 517.5 332.85C517.454 333.075 517.358 333.287 517.22 333.47C517.093 333.638 516.949 333.793 516.79 333.93Z" fill="#263238"/>
<path d="M506.45 321.311C506.45 321.311 506.78 321.601 507.18 322.151C507.704 322.872 508.022 323.722 508.1 324.611C508.162 325.501 507.975 326.391 507.56 327.181C507.25 327.791 506.94 328.101 506.97 328.121C507 328.141 507.06 328.061 507.19 327.911C507.375 327.704 507.539 327.48 507.68 327.241C508.134 326.439 508.343 325.52 508.28 324.601C508.208 323.679 507.86 322.8 507.28 322.081C507.109 321.86 506.915 321.658 506.7 321.481C506.55 321.361 506.46 321.301 506.45 321.311Z" fill="#263238"/>
<path d="M509.29 328.58C510.081 329.839 511.098 330.941 512.29 331.83C512.29 331.83 511.61 331.11 510.8 330.22C509.99 329.33 509.33 328.55 509.29 328.58Z" fill="#263238"/>
<path d="M507.28 326.42C507.28 326.42 507.18 326.62 507.09 326.85C507 327.08 506.88 327.25 506.92 327.29C506.96 327.33 507.15 327.18 507.25 326.92C507.35 326.66 507.33 326.42 507.28 326.42Z" fill="#263238"/>
<path d="M507.54 324.66C507.54 324.66 507.44 324.84 507.43 325.06C507.42 325.28 507.43 325.46 507.5 325.47C507.57 325.48 507.6 325.29 507.61 325.07C507.62 324.85 507.59 324.67 507.54 324.66Z" fill="#263238"/>
<path d="M506.92 323.071C506.92 323.071 507.03 323.261 507.12 323.471C507.21 323.681 507.23 323.881 507.29 323.891C507.35 323.901 507.4 323.661 507.29 323.401C507.18 323.141 506.94 323.001 506.92 323.071Z" fill="#263238"/>
<path d="M506.37 322C506.37 322 506.37 322.13 506.37 322.26C506.37 322.39 506.5 322.47 506.55 322.45C506.6 322.43 506.55 322.31 506.55 322.19C506.55 322.07 506.41 322 506.37 322Z" fill="#263238"/>
<path d="M543 199.83C543 199.83 536.1 219.03 539.86 229.06C543.62 239.09 554.65 256.29 554.65 256.29L589.26 240.71L572.78 211.26V205.66L543 199.83Z" fill="#455A64"/>
<path d="M550.87 153L524.75 147.12L520.42 170.83L538.73 174.9L543 199.83L572.78 205.66C572.78 205.66 578.26 180.23 579.27 175.58C581.27 166.49 577.61 162.15 577.61 162.15C576.739 160.699 575.58 159.441 574.204 158.455C572.828 157.47 571.264 156.777 569.61 156.42L550.87 153Z" fill="#FF9C77"/>
<path d="M573.93 168.28C573.68 169.427 573.68 170.614 573.93 171.76C574.259 172.99 574.75 174.17 575.39 175.27C576.207 176.639 576.916 178.07 577.51 179.55C578.48 182.336 578.515 185.363 577.61 188.17C577.341 189.012 576.979 189.82 576.53 190.58C576.385 190.868 576.196 191.131 575.97 191.36C576.463 190.286 576.894 189.184 577.26 188.06C578.027 185.324 577.944 182.418 577.02 179.73C576.457 178.273 575.789 176.86 575.02 175.5C574.381 174.353 573.91 173.121 573.62 171.84C573.443 170.966 573.443 170.065 573.62 169.19C573.656 168.868 573.762 168.558 573.93 168.28Z" fill="#263238"/>
<path d="M585.57 234.101C585.64 234.221 578.12 238.101 568.79 242.811C559.46 247.521 551.79 251.191 551.79 251.061C551.79 250.931 559.24 247.061 568.57 242.351C577.9 237.641 585.51 234.001 585.57 234.101Z" fill="#263238"/>
<path d="M567.31 204.851C567.487 205.563 567.487 206.308 567.31 207.021C567.034 208.796 566.212 210.44 564.957 211.726C563.702 213.011 562.077 213.873 560.31 214.191C559.597 214.366 558.852 214.366 558.14 214.191C558.14 214.101 558.97 214.121 560.23 213.791C561.883 213.412 563.396 212.574 564.594 211.372C565.792 210.171 566.626 208.655 567 207.001C567.27 205.681 567.22 204.851 567.31 204.851Z" fill="#263238"/>
<path d="M533.61 220.88C533.61 220.88 527.83 219.8 523.3 228.06C520.175 234.008 517.633 240.243 515.71 246.68C515.108 248.626 515.294 250.73 516.23 252.539C517.165 254.348 518.774 255.717 520.71 256.35L525 257.76C526.94 258.396 529.053 258.241 530.88 257.329C532.707 256.418 534.101 254.823 534.76 252.89C538.37 242.12 543.4 222.85 533.61 220.88Z" fill="#263238"/>
<path d="M537.73 222.561C537.405 223.653 536.99 224.717 536.49 225.741C536.05 226.741 535.55 227.901 535 229.141C534.874 229.517 534.675 229.864 534.414 230.163C534.153 230.461 533.836 230.705 533.48 230.881C532.683 231.162 531.821 231.204 531 231.001C530.554 230.912 530.145 230.688 529.83 230.361C529.683 230.183 529.576 229.976 529.517 229.753C529.458 229.53 529.449 229.297 529.49 229.071C529.668 228.331 529.972 227.627 530.39 226.991L532.21 223.761C532.726 222.746 533.322 221.773 533.99 220.851C533.585 221.917 533.097 222.951 532.53 223.941L530.81 227.221C530.44 227.815 530.164 228.463 529.99 229.141C529.965 229.296 529.973 229.455 530.014 229.607C530.056 229.758 530.129 229.9 530.23 230.021C530.471 230.266 530.782 230.43 531.12 230.491C531.826 230.692 532.574 230.692 533.28 230.491C533.884 230.189 534.344 229.66 534.56 229.021L536.14 225.671C536.592 224.596 537.124 223.557 537.73 222.561Z" fill="#455A64"/>
<path d="M531.72 230.75C531.683 231.141 531.603 231.527 531.48 231.9C531.29 232.63 531 233.68 530.6 234.97C529.8 237.55 528.6 241.07 527.17 244.97L525.39 249.97V250.11H525.24C522.45 250.45 520.07 250.71 518.38 250.88C517.494 251.021 516.597 251.084 515.7 251.07C516.57 250.844 517.456 250.684 518.35 250.59C520.02 250.33 522.4 250 525.18 249.59L524.98 249.75C525.5 248.2 526.1 246.5 526.73 244.75C528.13 240.88 529.42 237.39 530.3 234.85L531.3 231.85C531.391 231.467 531.533 231.097 531.72 230.75Z" fill="#455A64"/>
<path d="M525.16 249.86C526.434 250.83 527.598 251.936 528.63 253.16C529.787 254.271 530.822 255.501 531.72 256.83C530.45 255.852 529.287 254.743 528.25 253.52C527.092 252.415 526.056 251.187 525.16 249.86Z" fill="#455A64"/>
<path d="M525.33 224.75C525.33 224.75 525.44 224.75 525.64 224.75C525.932 224.843 526.201 224.996 526.43 225.2C526.834 225.595 527.137 226.083 527.311 226.622C527.485 227.16 527.526 227.732 527.43 228.29C527.26 229.73 526.31 231.16 525.54 232.75C525.116 233.555 524.89 234.45 524.88 235.36C524.967 236.34 525.26 237.291 525.74 238.15C526.268 239.074 526.608 240.094 526.74 241.15C526.811 241.658 526.758 242.176 526.583 242.659C526.409 243.142 526.119 243.575 525.74 243.92C525.351 244.185 524.898 244.34 524.428 244.37C523.958 244.4 523.489 244.303 523.07 244.09C522.37 243.757 521.736 243.3 521.2 242.74C520.515 241.922 519.721 241.202 518.84 240.6C518.493 240.42 518.132 240.27 517.76 240.15C517.76 240.15 517.87 240.15 518.08 240.15C518.378 240.198 518.668 240.289 518.94 240.42C519.883 240.97 520.733 241.665 521.46 242.48C521.975 242.987 522.578 243.397 523.24 243.69C523.588 243.864 523.977 243.941 524.365 243.915C524.754 243.889 525.128 243.759 525.45 243.54C525.768 243.243 526.009 242.873 526.152 242.461C526.294 242.05 526.335 241.61 526.27 241.18C526.15 240.198 525.837 239.25 525.35 238.39C524.846 237.464 524.543 236.441 524.46 235.39C524.475 234.399 524.725 233.426 525.19 232.55C526.03 230.92 526.96 229.55 527.19 228.25C527.293 227.741 527.276 227.215 527.141 226.713C527.005 226.211 526.755 225.748 526.41 225.36C526.089 225.094 525.723 224.888 525.33 224.75Z" fill="#E0E0E0"/>
<path d="M536.6 246.89C536.356 247.036 536.088 247.137 535.81 247.19C535.07 247.416 534.303 247.54 533.53 247.56C532.935 247.587 532.342 247.494 531.784 247.288C531.225 247.082 530.714 246.767 530.28 246.36C529.735 245.867 529.381 245.198 529.28 244.47C529.222 243.69 529.441 242.915 529.9 242.28C530.785 241.134 532.021 240.308 533.42 239.93C534.493 239.623 535.537 239.222 536.54 238.73C537.446 238.261 538.196 237.538 538.7 236.65C538.7 236.65 538.7 236.97 538.41 237.45C537.984 238.113 537.404 238.662 536.72 239.05C535.719 239.596 534.668 240.042 533.58 240.38C532.293 240.751 531.156 241.517 530.33 242.57C529.938 243.105 529.747 243.759 529.79 244.42C529.856 245.03 530.136 245.597 530.58 246.02C531.36 246.775 532.404 247.195 533.49 247.19C534.241 247.203 534.992 247.136 535.73 246.99C536.012 246.91 536.306 246.876 536.6 246.89Z" fill="#E0E0E0"/>
<path d="M535 254.16C534.428 253.713 533.834 253.296 533.22 252.91C531.713 252.04 529.927 251.789 528.238 252.21C526.549 252.632 525.091 253.693 524.17 255.17C523.803 255.802 523.469 256.453 523.17 257.12C523.182 256.358 523.411 255.616 523.83 254.98C524.278 254.172 524.887 253.464 525.62 252.901C526.353 252.338 527.194 251.932 528.091 251.708C528.987 251.484 529.92 251.447 530.832 251.598C531.744 251.75 532.614 252.088 533.39 252.59C534.062 252.954 534.62 253.497 535 254.16Z" fill="#E0E0E0"/>
<path opacity="0.7" d="M551.35 176.4C551.6 176.84 551.35 182.51 551.35 182.51L572 183.63V177.68L551.35 176.4Z" fill="white"/>
<path d="M565.61 155.62L533.1 221.93L536.85 224.46L569.59 156.46C569.016 156.062 568.368 155.783 567.684 155.638C567.001 155.494 566.296 155.488 565.61 155.62Z" fill="#263238"/>
<path d="M547.26 120.6C547.84 119.955 548.22 119.155 548.355 118.298C548.49 117.441 548.374 116.563 548.02 115.77C547.649 114.988 547.089 114.311 546.391 113.799C545.692 113.288 544.878 112.958 544.02 112.84C543.158 112.741 542.284 112.821 541.455 113.075C540.625 113.33 539.857 113.754 539.2 114.32C538.696 114.682 538.3 115.173 538.054 115.742C537.807 116.311 537.72 116.936 537.8 117.55C538.033 118.278 538.483 118.916 539.09 119.38C540.36 120.585 541.99 121.341 543.73 121.53C544.597 121.612 545.47 121.454 546.253 121.073C547.036 120.692 547.699 120.103 548.17 119.37" fill="#263238"/>
<path d="M601.73 350.601L602.29 353.221C602.29 353.221 615.67 353.501 612.76 355.071C610.15 356.481 593.03 359.291 588.83 359.901L587.83 360.031L586.7 353.771L601.73 350.601Z" fill="#FF9C77"/>
<g opacity="0.5">
<path d="M593.32 358.801C592.837 357.575 591.918 356.571 590.74 355.981C589.585 355.389 588.25 355.253 587 355.601L587.85 359.811L593.32 358.801Z" fill="white"/>
</g>
<path opacity="0.5" d="M608.87 353.58C608.87 353.58 613.62 353.96 613.21 354.82C612.8 355.68 595.6 359.16 587.88 360.03V359.69L607.97 355.79C607.97 355.79 608 353.8 608.87 353.58Z" fill="white"/>
<path d="M587.6 359.731H587.86L588.62 359.621L591.38 359.181C593.71 358.801 596.92 358.181 600.45 357.511C603.98 356.841 607.16 356.081 609.45 355.511L612.16 354.841L612.9 354.641C612.987 354.629 613.072 354.602 613.15 354.561L612.89 354.611L612.15 354.771L609.42 355.381C607.12 355.901 603.93 356.591 600.42 357.301C596.91 358.011 593.69 358.611 591.42 359.031L588.66 359.531L587.92 359.671L587.6 359.731Z" fill="#263238"/>
<path d="M608 356.001C608.009 355.027 608.363 354.088 609 353.351C608.565 353.613 608.247 354.032 608.11 354.521C607.895 354.984 607.856 355.51 608 356.001Z" fill="#263238"/>
<path d="M603.07 354.671C603.07 354.671 603.28 354.391 603.43 354.001C603.58 353.611 603.66 353.281 603.61 353.261C603.445 353.456 603.326 353.684 603.26 353.931C603.145 354.161 603.081 354.414 603.07 354.671Z" fill="#263238"/>
<path d="M601.72 354.28C601.72 354.28 601.97 354.1 602.18 353.82C602.39 353.54 602.53 353.27 602.49 353.24C602.45 353.21 602.24 353.42 602.03 353.7C601.82 353.98 601.68 354.25 601.72 354.28Z" fill="#263238"/>
<path d="M600.66 353.001C600.931 353.045 601.208 353.025 601.47 352.941C601.741 352.92 602.004 352.838 602.24 352.701C601.969 352.662 601.692 352.682 601.43 352.761C601.158 352.782 600.895 352.864 600.66 353.001Z" fill="#263238"/>
<path d="M600.2 352.06C600.49 352.184 600.812 352.212 601.12 352.14C601.437 352.131 601.743 352.026 602 351.84C601.697 351.853 601.395 351.893 601.1 351.96C600.797 351.967 600.496 352 600.2 352.06Z" fill="#263238"/>
<path d="M603.32 353.26C603.663 353.252 604.002 353.181 604.32 353.05C604.667 352.941 605.002 352.797 605.32 352.62C605.509 352.515 605.69 352.395 605.86 352.26C605.958 352.167 606.021 352.044 606.04 351.91C606.04 351.834 606.019 351.76 605.978 351.696C605.937 351.632 605.879 351.581 605.81 351.55C605.399 351.448 604.966 351.492 604.585 351.674C604.203 351.857 603.897 352.166 603.719 352.55C603.607 352.77 603.546 353.013 603.54 353.26C603.54 353.44 603.54 353.53 603.54 353.53C603.569 353.212 603.661 352.903 603.81 352.62C603.975 352.318 604.225 352.071 604.53 351.91C604.704 351.808 604.898 351.741 605.099 351.713C605.299 351.686 605.504 351.698 605.7 351.75C605.87 351.84 605.85 352.03 605.7 352.17C605.545 352.3 605.377 352.414 605.2 352.51C604.899 352.688 604.584 352.841 604.26 352.97C603.68 353.15 603.31 353.23 603.32 353.26Z" fill="#263238"/>
<path d="M603.58 353.251C603.662 353.028 603.662 352.783 603.58 352.561C603.506 352.313 603.368 352.089 603.18 351.911C603.068 351.783 602.927 351.686 602.767 351.628C602.608 351.571 602.437 351.554 602.27 351.581C602.223 351.599 602.18 351.627 602.144 351.663C602.108 351.698 602.079 351.74 602.06 351.787C602.04 351.833 602.03 351.883 602.03 351.934C602.03 351.984 602.04 352.034 602.06 352.081C602.112 352.231 602.197 352.368 602.31 352.481C602.484 352.668 602.679 352.836 602.89 352.981C603.25 353.211 603.52 353.281 603.52 353.251C603.52 353.221 603.3 353.121 602.97 352.871C602.776 352.723 602.598 352.556 602.44 352.371C602.27 352.191 602.1 351.841 602.34 351.751C602.58 351.661 602.87 351.871 603.06 352.031C603.229 352.193 603.365 352.386 603.46 352.601C603.513 352.815 603.553 353.032 603.58 353.251Z" fill="#263238"/>
<path d="M587.07 355.551C587.07 355.551 587.49 355.421 588.19 355.361C589.096 355.278 590.007 355.455 590.818 355.869C591.629 356.283 592.305 356.918 592.77 357.701C593.13 358.301 593.24 358.701 593.28 358.701C593.274 358.598 593.254 358.497 593.22 358.401C593.136 358.13 593.025 357.869 592.89 357.621C592.427 356.792 591.732 356.118 590.89 355.681C590.046 355.257 589.096 355.094 588.16 355.211C587.877 355.245 587.599 355.309 587.33 355.401C587.234 355.432 587.145 355.483 587.07 355.551Z" fill="#263238"/>
<path d="M594.92 357.001C595.674 357.022 596.427 356.945 597.16 356.771C597.908 356.662 598.638 356.454 599.33 356.151C599.33 356.101 598.33 356.361 597.12 356.591C595.91 356.821 594.91 356.901 594.92 357.001Z" fill="#263238"/>
<path d="M592 357.54C592 357.54 592.13 357.74 592.27 357.94C592.41 358.14 592.51 358.34 592.56 358.32C592.61 358.3 592.56 358.07 592.42 357.83C592.28 357.59 592 357.5 592 357.54Z" fill="#263238"/>
<path d="M590.57 356.39C590.57 356.39 590.67 356.57 590.86 356.69C591.05 356.81 591.22 356.89 591.25 356.84C591.28 356.79 591.15 356.66 590.96 356.54C590.77 356.42 590.6 356.34 590.57 356.39Z" fill="#263238"/>
<path d="M588.85 356.08C588.85 356.08 589.07 356.08 589.31 356.08C589.55 356.08 589.73 356.19 589.76 356.15C589.79 356.11 589.62 355.93 589.33 355.89C589.04 355.85 588.82 356 588.85 356.08Z" fill="#263238"/>
<path d="M587.66 356C587.66 356.05 587.75 356.11 587.88 356.13C588.01 356.15 588.13 356.13 588.14 356.08C588.15 356.03 588.05 355.97 587.92 355.95C587.79 355.93 587.66 356 587.66 356Z" fill="#263238"/>
<path d="M310.16 354.27L311.23 346.27L296.33 344.17L294.64 355.79L295.56 355.98C299.64 356.79 316.35 359.81 319.22 359.37C322.41 358.91 310.16 354.27 310.16 354.27Z" fill="#FF9C77"/>
<g opacity="0.3">
<path d="M300.06 356.48C300.014 355.194 299.498 353.97 298.61 353.04C297.736 352.116 296.548 351.552 295.28 351.46L294.69 355.62L300.06 356.48Z" fill="white"/>
</g>
<g opacity="0.3">
<path d="M316.11 356.76C316.11 356.76 320.37 358.66 319.71 359.32C319.05 359.98 302.05 357.56 294.64 355.83L294.71 355.51L314.53 358.51C314.53 358.51 315.24 356.67 316.11 356.76Z" fill="white"/>
</g>
<path d="M294.48 355.46C294.561 355.492 294.644 355.516 294.73 355.53L295.46 355.68L298.15 356.18C300.43 356.58 303.58 357.1 307.07 357.6C310.56 358.1 313.73 358.48 316.07 358.73L318.79 359L319.53 359.06H319.79L319.54 359.01L318.8 358.92L316 358.6C313.71 358.32 310.54 357.92 307 357.42C303.46 356.92 300.36 356.42 298.08 356.05L295.38 355.61L294.65 355.49L294.48 355.46Z" fill="#263238"/>
<path d="M314.49 358.72C314.669 358.287 314.901 357.877 315.18 357.5C315.501 357.157 315.86 356.852 316.25 356.59C315.764 356.698 315.334 356.979 315.04 357.38C314.695 357.742 314.499 358.22 314.49 358.72Z" fill="#263238"/>
<path d="M310.41 355.87C310.41 355.87 310.69 355.67 310.96 355.36C311.23 355.05 311.41 354.77 311.37 354.74C311.33 354.71 311.09 354.93 310.82 355.24C310.55 355.55 310.37 355.83 310.41 355.87Z" fill="#263238"/>
<path d="M309.29 355.06C309.29 355.06 309.58 354.98 309.87 354.78C310.16 354.58 310.37 354.4 310.34 354.35C310.31 354.3 310.06 354.44 309.77 354.63C309.48 354.82 309.27 355 309.29 355.06Z" fill="#263238"/>
<path d="M308.73 353.54C308.963 353.669 309.224 353.741 309.49 353.75C309.753 353.812 310.027 353.812 310.29 353.75C310.051 353.627 309.788 353.556 309.52 353.54C309.26 353.484 308.99 353.484 308.73 353.54Z" fill="#263238"/>
<path d="M308.61 352.51C308.839 352.721 309.13 352.854 309.44 352.89C309.736 352.983 310.054 352.983 310.35 352.89C310.066 352.802 309.775 352.739 309.48 352.7C309.195 352.616 308.904 352.552 308.61 352.51Z" fill="#263238"/>
<path d="M311.1 354.64C311.422 354.744 311.761 354.789 312.1 354.77C312.451 354.77 312.802 354.743 313.15 354.69C313.362 354.662 313.57 354.608 313.77 354.53C313.89 354.483 313.988 354.389 314.04 354.27C314.065 354.2 314.07 354.125 314.054 354.052C314.039 353.979 314.002 353.913 313.95 353.86C313.61 353.63 313.201 353.525 312.792 353.563C312.383 353.602 312.001 353.781 311.71 354.07C311.536 354.236 311.4 354.437 311.31 354.66C311.269 354.741 311.249 354.83 311.25 354.92C311.384 354.635 311.571 354.377 311.8 354.16C312.049 353.938 312.359 353.795 312.69 353.75C313.083 353.677 313.49 353.763 313.82 353.99C313.96 354.12 313.87 354.29 313.69 354.37C313.505 354.44 313.314 354.49 313.12 354.52C312.79 354.588 312.456 354.628 312.12 354.64C311.47 354.66 311.1 354.61 311.1 354.64Z" fill="#263238"/>
<path d="M311.34 354.719C311.484 354.534 311.558 354.304 311.55 354.069C311.55 353.816 311.492 353.566 311.38 353.339C311.318 353.188 311.22 353.054 311.095 352.95C310.969 352.845 310.82 352.773 310.66 352.739C310.61 352.742 310.561 352.754 310.516 352.776C310.471 352.797 310.43 352.827 310.397 352.865C310.363 352.902 310.338 352.945 310.321 352.992C310.304 353.039 310.297 353.089 310.3 353.139C310.3 353.295 310.334 353.448 310.4 353.589C310.496 353.817 310.62 354.032 310.77 354.229C311.03 354.569 311.25 354.709 311.26 354.689C311.27 354.669 311.1 354.499 310.88 354.159C310.749 353.959 310.642 353.744 310.56 353.519C310.45 353.299 310.41 352.929 310.66 352.919C310.91 352.909 311.11 353.199 311.23 353.409C311.338 353.614 311.403 353.838 311.42 354.069C311.41 354.288 311.384 354.505 311.34 354.719Z" fill="#263238"/>
<path d="M295.36 351.429C295.36 351.429 295.8 351.429 296.46 351.629C297.323 351.851 298.107 352.312 298.719 352.959C299.331 353.607 299.748 354.415 299.92 355.289C300.05 355.959 300.01 356.389 300.05 356.389C300.067 356.29 300.067 356.189 300.05 356.089C300.081 355.817 300.081 355.542 300.05 355.269C299.908 354.355 299.493 353.505 298.86 352.829C298.223 352.162 297.401 351.699 296.5 351.499C296.23 351.441 295.956 351.407 295.68 351.399L295.36 351.429Z" fill="#263238"/>
<path d="M297.79 345.449C297.539 346.437 297.349 347.439 297.22 348.449C297.033 349.464 296.906 350.489 296.84 351.519C297.085 350.531 297.272 349.529 297.4 348.519C297.587 347.504 297.717 346.479 297.79 345.449Z" fill="#263238"/>
<path d="M302.14 355.289C302.825 355.563 303.545 355.741 304.28 355.819C305.008 355.958 305.75 356.002 306.49 355.949C306.49 355.899 305.49 355.819 304.31 355.639C303.13 355.459 302.15 355.239 302.14 355.289Z" fill="#263238"/>
<path d="M299.22 354.88C299.22 354.88 299.22 355.09 299.34 355.33C299.46 355.57 299.43 355.77 299.49 355.78C299.55 355.79 299.6 355.55 299.49 355.28C299.38 355.01 299.26 354.84 299.22 354.88Z" fill="#263238"/>
<path d="M298.32 353.349C298.27 353.349 298.32 353.549 298.48 353.729C298.64 353.909 298.75 354.029 298.79 353.999C298.83 353.969 298.79 353.799 298.63 353.619C298.47 353.439 298.36 353.319 298.32 353.349Z" fill="#263238"/>
<path d="M296.83 352.5C296.83 352.55 297.03 352.58 297.24 352.69C297.45 352.8 297.59 352.94 297.63 352.91C297.67 352.88 297.58 352.66 297.32 352.53C297.06 352.4 296.82 352.45 296.83 352.5Z" fill="#263238"/>
<path d="M295.75 352.05C295.75 352.05 295.8 352.18 295.92 352.25C296.04 352.32 296.15 352.33 296.17 352.25C296.19 352.17 296.12 352.12 296.01 352.06C295.9 352 295.78 352 295.75 352.05Z" fill="#263238"/>
<path d="M350.14 313.729L346.14 306.729L333.06 314.159L338.82 324.399L339.66 323.999C343.38 322.149 358.46 314.329 360.46 312.229C362.68 309.929 350.14 313.729 350.14 313.729Z" fill="#FF9C77"/>
<g opacity="0.3">
<path d="M343.49 321.65C342.673 320.653 341.514 319.997 340.24 319.81C338.984 319.611 337.7 319.889 336.64 320.59L338.71 324.25L343.49 321.65Z" fill="white"/>
</g>
<g opacity="0.3">
<path d="M356.38 312.069C356.38 312.069 360.91 310.979 360.79 311.899C360.67 312.819 345.72 321.279 338.79 324.439L338.64 324.139L356.16 314.409C356.16 314.409 355.63 312.529 356.38 312.069Z" fill="white"/>
</g>
<path d="M338.45 324.25L338.69 324.15L339.36 323.82L341.8 322.57C343.85 321.51 346.66 319.99 349.73 318.26C352.8 316.53 355.54 314.89 357.51 313.68L359.83 312.23L360.46 311.83L360.67 311.68C360.587 311.708 360.51 311.748 360.44 311.8L359.8 312.17L357.44 313.57C355.44 314.75 352.71 316.36 349.64 318.1C346.57 319.84 343.77 321.36 341.74 322.46L339.33 323.76L338.67 324.11L338.45 324.25Z" fill="#263238"/>
<path d="M356.29 314.609C356.166 314.16 356.099 313.696 356.09 313.229C356.134 312.763 356.231 312.304 356.38 311.859C356.06 312.239 355.892 312.723 355.91 313.219C355.852 313.714 355.989 314.212 356.29 314.609Z" fill="#263238"/>
<path d="M351.31 314.839C351.37 314.839 351.42 314.519 351.44 314.109C351.481 313.859 351.464 313.602 351.39 313.359C351.244 313.839 351.216 314.347 351.31 314.839Z" fill="#263238"/>
<path d="M349.94 314.88C349.99 314.88 350.11 314.64 350.22 314.31C350.33 313.98 350.39 313.7 350.34 313.69C350.29 313.68 350.16 313.93 350.05 314.26C349.94 314.59 349.89 314.87 349.94 314.88Z" fill="#263238"/>
<path d="M348.57 314C348.832 313.953 349.081 313.851 349.3 313.7C349.68 313.49 349.97 313.28 349.94 313.24C349.91 313.2 349.59 313.33 349.21 313.54C348.83 313.75 348.54 314 348.57 314Z" fill="#263238"/>
<path d="M347.84 313.289C348.151 313.314 348.462 313.24 348.73 313.079C349.02 312.968 349.273 312.778 349.46 312.529C349.179 312.633 348.908 312.76 348.65 312.909C348.369 313.011 348.098 313.138 347.84 313.289Z" fill="#263238"/>
<path d="M351.11 313.449C351.431 313.353 351.732 313.201 352 312.999C352.282 312.789 352.543 312.551 352.78 312.289C352.93 312.138 353.064 311.97 353.18 311.789C353.246 311.675 353.268 311.539 353.24 311.409C353.216 311.341 353.173 311.28 353.117 311.234C353.06 311.188 352.992 311.159 352.92 311.149C352.51 311.174 352.121 311.339 351.82 311.618C351.519 311.898 351.325 312.273 351.27 312.679C351.215 312.916 351.215 313.163 351.27 313.399C351.288 313.486 351.326 313.568 351.38 313.639C351.325 313.328 351.325 313.01 351.38 312.699C351.45 312.373 351.609 312.071 351.84 311.829C351.965 311.684 352.118 311.566 352.29 311.48C352.461 311.394 352.648 311.343 352.84 311.329C353.03 311.329 353.06 311.539 352.97 311.709C352.864 311.877 352.744 312.034 352.61 312.179C352.381 312.437 352.134 312.678 351.87 312.899C351.42 313.239 351.1 313.419 351.11 313.449Z" fill="#263238"/>
<path d="M351.35 313.37C351.356 313.135 351.274 312.907 351.12 312.73C350.968 312.525 350.769 312.361 350.54 312.25C350.397 312.167 350.235 312.124 350.07 312.124C349.905 312.124 349.743 312.167 349.6 312.25C349.53 312.323 349.491 312.419 349.491 312.52C349.491 312.621 349.53 312.717 349.6 312.79C349.693 312.912 349.812 313.011 349.95 313.08C350.168 313.202 350.4 313.299 350.64 313.37C351.05 313.48 351.31 313.46 351.31 313.43C351.31 313.4 351.06 313.38 350.68 313.24C350.455 313.166 350.241 313.065 350.04 312.94C349.82 312.83 349.56 312.55 349.75 312.39C349.868 312.332 349.998 312.301 350.13 312.301C350.262 312.301 350.392 312.332 350.51 312.39C350.722 312.482 350.911 312.623 351.06 312.8C351.176 312.98 351.273 313.171 351.35 313.37Z" fill="#263238"/>
<path d="M336.69 320.52C337.014 320.329 337.348 320.156 337.69 320C338.513 319.647 339.419 319.533 340.304 319.673C341.189 319.813 342.016 320.2 342.69 320.79C343.21 321.24 343.44 321.61 343.47 321.59C343.438 321.491 343.387 321.399 343.32 321.32C343.161 321.096 342.98 320.888 342.78 320.7C342.109 320.065 341.262 319.647 340.35 319.5C339.435 319.359 338.5 319.492 337.66 319.88C337.412 320.004 337.175 320.148 336.95 320.31C336.76 320.43 336.68 320.51 336.69 320.52Z" fill="#263238"/>
<path d="M335 314.3C335.412 315.245 335.883 316.164 336.41 317.05C336.877 317.971 337.402 318.863 337.98 319.72C337.563 318.777 337.093 317.859 336.57 316.97C336.098 316.051 335.574 315.159 335 314.3Z" fill="#263238"/>
<path d="M344.42 319.44C345.817 318.965 347.117 318.244 348.26 317.31C348.26 317.26 347.41 317.8 346.35 318.39C345.29 318.98 344.39 319.39 344.42 319.44Z" fill="#263238"/>
<path d="M341.85 320.889C341.85 320.939 342.02 321.029 342.22 321.179C342.42 321.329 342.56 321.469 342.61 321.439C342.66 321.409 342.56 321.199 342.33 321.029C342.1 320.859 341.86 320.839 341.85 320.889Z" fill="#263238"/>
<path d="M340.2 320.23C340.2 320.23 340.35 320.37 340.56 320.43C340.77 320.49 340.96 320.5 340.97 320.43C340.98 320.36 340.82 320.3 340.61 320.24C340.4 320.18 340.21 320.19 340.2 320.23Z" fill="#263238"/>
<path d="M338.51 320.469C338.51 320.469 338.71 320.409 338.94 320.369C339.17 320.329 339.37 320.369 339.39 320.299C339.41 320.229 339.19 320.129 338.91 320.189C338.63 320.249 338.47 320.439 338.51 320.469Z" fill="#263238"/>
<path d="M337.37 320.77C337.37 320.82 337.49 320.84 337.63 320.82C337.77 320.8 337.86 320.75 337.85 320.7C337.84 320.65 337.73 320.62 337.6 320.64C337.47 320.66 337.37 320.72 337.37 320.77Z" fill="#263238"/>
<path d="M299.88 202.5C299.88 202.5 305.66 225.73 307.47 224.74C317.31 219.35 327.06 209.42 330.71 205.51C330.85 204.98 330.99 204.39 331.13 203.72C331.283 202.939 331.307 202.138 331.2 201.35C331.111 200.367 330.885 199.401 330.53 198.48C330.13 197.67 330.89 196.78 331.61 197.15C332.33 197.52 333.5 199.73 333.61 202.65C333.72 205.57 336.41 201.9 337.41 200.57C338.41 199.24 341.69 195.3 342.33 195.3C343.27 195.3 343.45 196.3 342.43 197.62C341.41 198.94 338.59 203.04 339.3 203.55C340.01 204.06 344.99 197.24 344.99 197.24C344.99 197.24 345.83 195.6 346.67 196.17C348.18 197.17 342.35 204.02 341.78 204.65C341.38 205.1 342.13 205.65 342.54 205.18C342.95 204.71 347.36 198.27 348.91 199.29C350.1 200.07 344.17 204.96 343.97 206.81C343.77 208.66 348.11 202.63 349.21 203.43C349.63 203.72 349.89 204 346.92 207.09C344.419 209.467 341.789 211.704 339.04 213.79C331.16 222.59 302.04 250.9 296.09 235.72C289.01 217.66 290.09 205.99 290.09 205.99L299.88 202.5Z" fill="#FFBE9D"/>
<path d="M258.42 210.83L260.2 229.2L258.1 242.05L255.1 249.13L294.4 244.91L291.14 228.42L291.45 222.83C292.261 226.503 293.263 230.131 294.45 233.7C296.52 239.49 300.36 240.7 300.36 240.7C313.36 243.57 338.36 215.59 338.36 215.59L329.46 204.84L308.33 223C308.482 222.819 308.566 222.591 308.566 222.355C308.566 222.119 308.482 221.89 308.33 221.71C307.79 221.06 306.82 223 306.82 223L301.88 205.25C301.88 205.25 300.44 189.31 284.82 188.55H271.82C265.851 189.766 260.403 192.794 256.221 197.222C252.038 201.65 249.324 207.262 248.45 213.29C248.201 215.113 248.061 216.95 248.03 218.79C247.66 240.79 258.44 245.69 258.44 245.69L264.44 227.63L258.42 210.83Z" fill="#455A64"/>
<path d="M290 223.44C290.617 222.969 291.13 222.377 291.51 221.7C292.53 220.134 293.172 218.352 293.387 216.496C293.603 214.639 293.384 212.758 292.75 211C292.528 210.267 292.161 209.587 291.67 209C291.6 209 292.02 209.81 292.43 211.14C292.957 212.868 293.127 214.685 292.93 216.48C292.722 218.275 292.147 220.007 291.24 221.57C290.55 222.73 290 223.39 290 223.44Z" fill="#263238"/>
<path d="M293.79 240.999C293.174 240.727 292.577 240.416 292 240.069C287.998 237.9 283.719 236.288 279.28 235.279C277.79 234.949 276.2 234.659 274.55 234.459C273.73 234.359 272.88 234.269 272.02 234.219C271.16 234.169 270.29 234.159 269.38 234.009C268.439 233.897 267.571 233.446 266.94 232.739C266.389 232.032 266.009 231.208 265.83 230.329C265.47 228.659 265.33 227.059 265.15 225.519C264.872 222.802 264.735 220.071 264.74 217.339C264.74 215.009 264.86 213.129 264.97 211.829C264.97 211.179 265.07 210.669 265.12 210.329C265.124 210.156 265.155 209.984 265.21 209.819C265.245 210.486 265.245 211.153 265.21 211.819C265.21 213.119 265.11 214.999 265.15 217.319C265.19 219.639 265.33 222.399 265.67 225.449C265.85 226.969 266.02 228.599 266.37 230.189C266.524 230.988 266.867 231.739 267.37 232.379C267.92 232.996 268.679 233.388 269.5 233.479C270.34 233.609 271.22 233.609 272.09 233.679C272.96 233.749 273.81 233.829 274.64 233.929C276.248 234.132 277.844 234.423 279.42 234.799C282.084 235.421 284.687 236.278 287.2 237.359C288.898 238.084 290.545 238.923 292.13 239.869C292.69 240.189 293.13 240.479 293.4 240.669C293.541 240.766 293.671 240.876 293.79 240.999Z" fill="#263238"/>
<path d="M264.08 236.85C264.309 235.884 264.837 235.016 265.59 234.369C266.343 233.723 267.281 233.331 268.27 233.25C268.27 233.4 267.08 233.76 265.93 234.76C264.78 235.76 264.22 236.91 264.08 236.85Z" fill="#263238"/>
<path d="M278.27 153.75C280.763 152.876 283.471 152.834 285.99 153.63C287.238 154.045 288.356 154.779 289.233 155.76C290.11 156.74 290.716 157.933 290.99 159.22C291.2 160.51 290.99 161.9 291.63 163.04C292.27 164.18 293.63 164.88 294.7 165.79C295.503 166.517 296.107 167.436 296.457 168.461C296.807 169.486 296.891 170.583 296.7 171.65C296.33 172.773 296.109 173.939 296.04 175.12C296.229 176.32 296.809 177.424 297.69 178.26C298.571 179.085 299.335 180.027 299.96 181.06C300.268 181.579 300.419 182.177 300.394 182.78C300.369 183.384 300.17 183.967 299.82 184.46C298.94 185.46 297.39 185.46 296.05 185.46C291.372 185.439 286.696 185.702 282.05 186.25" fill="#FF9C77"/>
<path d="M284.83 188.34C284.83 186.05 284.77 184.09 284.77 184.09C284.77 184.09 290.36 183.38 290.61 177.68C290.86 171.98 290.28 158.82 290.28 158.82L280 153.88L271 164.12L271.32 188.56C271.341 190.329 272.056 192.02 273.311 193.267C274.566 194.515 276.26 195.22 278.03 195.23C278.933 195.237 279.827 195.063 280.661 194.718C281.495 194.373 282.252 193.864 282.886 193.222C283.52 192.579 284.018 191.816 284.352 190.978C284.686 190.139 284.849 189.242 284.83 188.34Z" fill="#FFBE9D"/>
<path d="M288.84 168.43C288.84 168.572 288.798 168.711 288.719 168.829C288.641 168.947 288.529 169.039 288.398 169.094C288.267 169.149 288.122 169.164 287.983 169.137C287.844 169.11 287.715 169.042 287.614 168.943C287.513 168.843 287.444 168.716 287.415 168.577C287.386 168.438 287.399 168.293 287.452 168.161C287.505 168.03 287.596 167.916 287.713 167.836C287.83 167.756 287.968 167.712 288.11 167.71C288.205 167.709 288.3 167.726 288.389 167.762C288.477 167.798 288.558 167.85 288.625 167.917C288.693 167.984 288.747 168.064 288.784 168.152C288.821 168.24 288.84 168.335 288.84 168.43Z" fill="#263238"/>
<path d="M290 167.619C289.91 167.719 289.38 167.269 288.62 167.239C287.86 167.209 287.28 167.599 287.2 167.489C287.12 167.379 287.25 167.269 287.5 167.089C287.832 166.857 288.232 166.741 288.637 166.759C289.042 166.777 289.43 166.928 289.74 167.189C290 167.389 290.05 167.579 290 167.619Z" fill="#263238"/>
<path d="M280.5 168.43C280.498 168.569 280.455 168.705 280.376 168.821C280.297 168.936 280.186 169.025 280.057 169.078C279.928 169.13 279.786 169.143 279.649 169.116C279.512 169.088 279.387 169.021 279.288 168.922C279.189 168.823 279.122 168.698 279.094 168.561C279.067 168.424 279.08 168.282 279.132 168.153C279.185 168.024 279.274 167.913 279.389 167.834C279.505 167.755 279.64 167.712 279.78 167.71C279.971 167.71 280.154 167.786 280.289 167.921C280.424 168.056 280.5 168.239 280.5 168.43Z" fill="#263238"/>
<path d="M281.52 167.77C281.43 167.86 280.89 167.41 280.13 167.38C279.37 167.35 278.79 167.74 278.71 167.64C278.63 167.54 278.76 167.42 279.01 167.24C279.344 167.008 279.744 166.892 280.15 166.91C280.554 166.928 280.941 167.079 281.25 167.34C281.48 167.54 281.56 167.72 281.52 167.77Z" fill="#263238"/>
<path d="M284.39 174.36C284.795 174.237 285.216 174.173 285.64 174.17C285.84 174.17 286.03 174.17 286.06 173.98C286.08 173.763 286.039 173.544 285.94 173.35C285.76 172.83 285.58 172.35 285.39 171.73C284.875 170.352 284.46 168.938 284.15 167.5C284.77 168.832 285.288 170.21 285.7 171.62C285.88 172.19 286.06 172.73 286.23 173.25C286.348 173.51 286.379 173.801 286.32 174.08C286.291 174.15 286.246 174.213 286.188 174.263C286.131 174.313 286.063 174.35 285.99 174.37C285.88 174.383 285.77 174.383 285.66 174.37C285.238 174.42 284.811 174.416 284.39 174.36Z" fill="#263238"/>
<path d="M284.77 184.09C282.118 184.022 279.545 183.177 277.37 181.66C277.37 181.66 279.11 185.82 284.68 185.49L284.77 184.09Z" fill="#EB996E"/>
<path d="M257.72 181.71C258.337 181.244 258.863 180.667 259.27 180.01C259.8 178.87 259.27 177.53 258.69 176.41C258.11 175.29 257.42 174.11 257.64 172.87C258.02 170.69 260.84 169.79 261.64 167.74C262.37 165.9 261.28 163.63 262.26 161.9C263.05 160.51 264.88 160.06 265.93 158.84C266.596 157.792 267.124 156.663 267.5 155.48C267.969 154.492 268.668 153.63 269.539 152.968C270.409 152.306 271.426 151.862 272.503 151.674C273.581 151.486 274.688 151.559 275.731 151.887C276.774 152.215 277.724 152.789 278.5 153.56C280.067 153.161 281.699 153.083 283.297 153.33C284.895 153.577 286.427 154.145 287.8 155C289.06 155.677 290.083 156.724 290.73 158C291.169 159.185 291.356 160.448 291.28 161.71V164.42C291.302 164.65 291.261 164.882 291.16 165.09C291.032 165.223 290.876 165.326 290.702 165.39C290.529 165.454 290.344 165.478 290.16 165.46L285.98 165.62C285.693 165.653 285.403 165.608 285.14 165.49C284.924 165.345 284.751 165.145 284.637 164.912C284.523 164.678 284.472 164.419 284.49 164.16C284.49 163.76 284.49 162.96 284.49 162.73C284.3 163.63 284.13 163.8 283.99 164.36C283.947 164.65 283.845 164.928 283.69 165.178C283.535 165.427 283.331 165.642 283.09 165.81C282.712 165.972 282.3 166.04 281.89 166.01H280.08C279.778 166.02 279.48 165.944 279.22 165.79C279.058 165.611 278.945 165.395 278.89 165.16C278.836 164.925 278.843 164.681 278.91 164.45C279.064 163.837 279.158 163.211 279.19 162.58C278.65 163.64 278.39 164.96 277.73 165.14C277.061 165.238 276.379 165.19 275.73 165C275.06 164.79 274.58 164.61 274.09 164.46C274.135 164.739 274.205 165.013 274.3 165.28C274.81 166.65 275.95 167.97 275.55 169.38C275.15 170.79 273.75 171.28 273.02 172.38C272.676 173.018 272.483 173.727 272.455 174.451C272.427 175.176 272.566 175.897 272.86 176.56C273.443 177.865 273.957 179.2 274.4 180.56C274.619 181.258 274.635 182.005 274.448 182.713C274.26 183.421 273.876 184.061 273.34 184.56C272.38 185.131 271.263 185.383 270.15 185.28L260 185.3C259.346 185.346 258.689 185.275 258.06 185.09C257.744 184.994 257.459 184.819 257.231 184.581C257.003 184.343 256.841 184.049 256.76 183.73C256.748 183.341 256.829 182.955 256.996 182.604C257.163 182.252 257.411 181.946 257.72 181.71Z" fill="#FF9C77"/>
<path d="M295.45 178.62C295.45 178.62 295.35 178.52 295.24 178.28C295.09 177.922 295.008 177.538 295 177.15C295.06 175.72 295.517 174.335 296.32 173.15C296.81 172.341 297.196 171.475 297.47 170.57C297.754 169.548 297.636 168.457 297.14 167.52C296.896 167.019 296.557 166.57 296.14 166.2C295.675 165.821 295.147 165.526 294.58 165.33C293.94 165.1 293.345 164.761 292.82 164.33C292.551 164.072 292.338 163.761 292.195 163.417C292.052 163.073 291.982 162.703 291.99 162.33C291.99 161.62 292.04 160.96 291.99 160.33C291.965 159.709 291.848 159.095 291.64 158.51C291.248 157.374 290.594 156.346 289.73 155.51C288.261 154.099 286.358 153.229 284.33 153.04C282.957 152.899 281.57 152.973 280.22 153.26C279.22 153.45 278.74 153.62 278.73 153.58C278.72 153.54 278.85 153.5 279.09 153.41C279.446 153.271 279.81 153.155 280.18 153.06C281.543 152.687 282.962 152.559 284.37 152.68C286.498 152.827 288.511 153.703 290.07 155.16C290.985 156.033 291.69 157.104 292.13 158.29C292.351 158.935 292.479 159.609 292.51 160.29C292.51 160.97 292.46 161.64 292.51 162.29C292.504 162.589 292.559 162.887 292.672 163.164C292.786 163.441 292.955 163.691 293.17 163.9C293.655 164.282 294.199 164.582 294.78 164.79C295.394 165.023 295.963 165.361 296.46 165.79C296.934 166.205 297.325 166.708 297.61 167.27C298.146 168.317 298.261 169.531 297.93 170.66C297.631 171.591 297.211 172.478 296.68 173.3C295.876 174.422 295.383 175.736 295.25 177.11C295.234 177.621 295.301 178.131 295.45 178.62Z" fill="#FF9C77"/>
<path d="M255.92 171.29C256.261 171.476 256.624 171.62 257 171.72C257.504 171.822 258.026 171.797 258.518 171.646C259.011 171.496 259.458 171.226 259.82 170.86C260.324 170.286 260.656 169.582 260.778 168.829C260.9 168.075 260.807 167.303 260.51 166.6C260.075 165.694 259.962 164.668 260.19 163.69C260.671 162.707 261.513 161.947 262.54 161.57C263.461 161.245 264.308 160.739 265.03 160.08C265.579 159.365 265.924 158.515 266.03 157.62C266.144 156.754 266.369 155.907 266.7 155.1C267.039 154.399 267.539 153.789 268.16 153.32C269.053 152.658 270.138 152.307 271.25 152.32C271.549 152.324 271.848 152.361 272.14 152.43C272.241 152.454 272.338 152.491 272.43 152.54C272.43 152.54 272 152.48 271.26 152.54C270.208 152.604 269.203 153 268.39 153.67C267.835 154.118 267.393 154.69 267.1 155.34C266.802 156.122 266.6 156.938 266.5 157.77C266.395 158.755 266.021 159.692 265.42 160.48C264.652 161.195 263.747 161.746 262.76 162.1C261.86 162.428 261.114 163.081 260.67 163.93C260.48 164.799 260.585 165.707 260.97 166.51C261.28 167.292 261.362 168.147 261.204 168.974C261.047 169.801 260.656 170.566 260.08 171.18C259.672 171.573 259.169 171.853 258.62 171.993C258.072 172.133 257.496 172.129 256.95 171.98C256.659 171.892 256.386 171.757 256.14 171.58C256 171.39 255.91 171.3 255.92 171.29Z" fill="#FF9C77"/>
<path d="M284.12 176.369C284.071 176.128 283.965 175.902 283.81 175.71C283.655 175.519 283.456 175.368 283.23 175.269C283.073 175.196 282.903 175.158 282.73 175.158C282.557 175.158 282.386 175.196 282.23 175.269C282.08 175.348 281.956 175.471 281.876 175.62C281.796 175.77 281.762 175.94 281.78 176.109C281.827 176.295 281.926 176.464 282.066 176.595C282.206 176.727 282.381 176.815 282.57 176.849C282.951 176.902 283.34 176.875 283.71 176.769C283.813 176.754 283.912 176.716 284 176.659C284.045 176.631 284.081 176.591 284.104 176.543C284.127 176.495 284.136 176.442 284.13 176.389" fill="#EB996E"/>
<path d="M282.22 174.329C282.36 174.329 282.37 175.199 283.06 175.849C283.75 176.499 284.62 176.459 284.63 176.599C284.64 176.739 284.43 176.779 284.05 176.779C283.547 176.772 283.065 176.576 282.7 176.229C282.336 175.881 282.111 175.412 282.07 174.909C282.05 174.529 282.15 174.319 282.22 174.329Z" fill="#263238"/>
<path d="M255.74 248.609C255.74 248.609 313.92 236.419 319.55 239.089C325.18 241.759 350.69 309.999 350.69 309.999L332.39 320.999L307.74 260.409C307.74 260.409 267.01 275.279 259.89 273.809C252.77 272.339 255.74 248.609 255.74 248.609Z" fill="#263238"/>
<path d="M281.74 252C282.63 252.3 316.28 266.13 318.65 270.58C321.02 275.03 315 351.87 315 351.87L293.92 350.11L297.27 283.27L259.91 273.81L281.74 252Z" fill="#263238"/>
<path d="M259.7 274C259.868 274.008 260.036 273.991 260.2 273.95L261.64 273.71L266.92 272.71C271.37 271.86 277.52 270.71 284.24 268.99C287.59 268.14 290.76 267.22 293.61 266.29C296.46 265.36 299 264.42 301.09 263.54C303.18 262.66 304.86 261.92 305.99 261.34L307.3 260.68C307.453 260.609 307.6 260.525 307.74 260.43C307.571 260.459 307.409 260.516 307.26 260.6L305.92 261.18C304.77 261.71 303.08 262.42 300.97 263.25C298.86 264.08 296.33 264.98 293.49 265.9C290.65 266.82 287.49 267.7 284.12 268.55C277.43 270.23 271.29 271.46 266.86 272.39L261.61 273.5L260.19 273.83C260.021 273.869 259.857 273.926 259.7 274Z" fill="#455A64"/>
<path d="M318.65 287.57C318.745 287.21 318.805 286.842 318.83 286.47C318.91 285.66 319.02 284.65 319.15 283.47C319.28 282.29 319.41 280.64 319.57 278.97C319.825 277.122 319.825 275.248 319.57 273.4C319.187 271.534 318.203 269.844 316.77 268.59C315.651 267.567 314.379 266.727 313 266.1C312.073 265.677 311.125 265.303 310.16 264.98C309.812 264.836 309.45 264.732 309.08 264.67C309.08 264.75 310.56 265.28 312.86 266.39C314.203 267.03 315.446 267.862 316.55 268.86C317.894 270.074 318.815 271.686 319.18 273.46C319.414 275.269 319.414 277.101 319.18 278.91C319.06 280.58 318.95 282.1 318.86 283.41C318.77 284.72 318.73 285.64 318.68 286.41C318.628 286.794 318.618 287.183 318.65 287.57Z" fill="#455A64"/>
<path d="M301.86 281.229C301.031 281.346 300.231 281.614 299.5 282.019C298.711 282.288 297.976 282.695 297.33 283.219C298.155 283.102 298.951 282.834 299.68 282.429C300.47 282.159 301.208 281.753 301.86 281.229Z" fill="#455A64"/>
<path d="M300.17 279.21C299.621 279.901 299.11 280.622 298.64 281.37C298.047 282.024 297.493 282.711 296.98 283.43C297.797 283.027 298.489 282.408 298.98 281.64C299.6 280.96 300.012 280.117 300.17 279.21Z" fill="#455A64"/>
<path d="M197.06 356L196.49 348L211.49 346.83L212.44 358.54L211.52 358.67C207.4 359.23 190.52 361.18 187.69 360.56C184.54 359.88 197.06 356 197.06 356Z" fill="#FF9C77"/>
<g opacity="0.3">
<path d="M207 358.87C207.12 357.587 207.711 356.393 208.66 355.52C209.586 354.648 210.809 354.162 212.08 354.16L212.41 358.35L207 358.87Z" fill="white"/>
</g>
<g opacity="0.3">
<path d="M191 358.13C191 358.13 186.63 359.77 187.24 360.46C187.85 361.15 204.98 359.81 212.48 358.56L212.43 358.23L192.43 359.96C192.43 359.96 191.83 358.1 191 358.13Z" fill="white"/>
</g>
<path d="M212.63 358.2L212.37 358.25L211.64 358.35L208.92 358.68C206.62 358.95 203.45 359.27 199.92 359.54C196.39 359.81 193.22 360 190.92 360.1L188.18 360.2H187.44C187.353 360.212 187.266 360.212 187.18 360.2H187.44L188.18 360.15L190.91 360C193.22 359.86 196.4 359.66 199.91 359.38C203.42 359.1 206.6 358.8 208.91 358.57L211.63 358.3L212.37 358.23L212.63 358.2Z" fill="#263238"/>
<path d="M192.46 360.19C192.297 359.749 192.09 359.327 191.84 358.93C191.547 358.558 191.211 358.222 190.84 357.93C191.303 358.097 191.705 358.398 191.996 358.796C192.286 359.193 192.451 359.668 192.47 360.16L192.46 360.19Z" fill="#263238"/>
<path d="M196.7 357.6C196.7 357.6 196.43 357.39 196.19 357.06C195.95 356.73 195.77 356.45 195.82 356.42C195.87 356.39 196.09 356.63 196.33 356.95C196.57 357.27 196.75 357.57 196.7 357.6Z" fill="#263238"/>
<path d="M197.87 356.87C197.87 356.87 197.59 356.77 197.31 356.55C197.03 356.33 196.84 356.14 196.87 356.1C196.9 356.06 197.15 356.2 197.42 356.41C197.69 356.62 197.9 356.83 197.87 356.87Z" fill="#263238"/>
<path d="M198.53 355.39C198.284 355.499 198.018 355.553 197.75 355.55C197.49 355.611 197.22 355.611 196.96 355.55C197.205 355.44 197.471 355.386 197.74 355.39C198 355.331 198.27 355.331 198.53 355.39Z" fill="#263238"/>
<path d="M198.71 354.37C198.466 354.561 198.169 354.673 197.86 354.69C197.559 354.77 197.24 354.752 196.95 354.64C197.239 354.573 197.533 354.529 197.83 354.51C198.118 354.436 198.413 354.39 198.71 354.37Z" fill="#263238"/>
<path d="M196.09 356.33C195.764 356.418 195.424 356.442 195.09 356.4C194.753 356.385 194.418 356.338 194.09 356.26C193.879 356.219 193.674 356.152 193.48 356.06C193.36 356.004 193.267 355.903 193.22 355.78C193.199 355.71 193.198 355.635 193.217 355.564C193.237 355.493 193.276 355.43 193.33 355.38C193.685 355.172 194.101 355.092 194.507 355.156C194.914 355.22 195.286 355.423 195.56 355.73C195.724 355.908 195.847 356.119 195.92 356.35C195.961 356.43 195.978 356.52 195.97 356.61C195.851 356.319 195.681 356.052 195.47 355.82C195.23 355.584 194.928 355.421 194.6 355.35C194.408 355.298 194.208 355.286 194.012 355.315C193.816 355.344 193.628 355.414 193.46 355.52C193.31 355.64 193.39 355.82 193.57 355.91C193.748 355.992 193.936 356.053 194.13 356.09C194.458 356.179 194.792 356.243 195.13 356.28C195.72 356.33 196.09 356.3 196.09 356.33Z" fill="#263238"/>
<path d="M195.85 356.4C195.718 356.207 195.658 355.973 195.68 355.74C195.694 355.487 195.766 355.241 195.89 355.02C195.962 354.87 196.069 354.74 196.204 354.642C196.338 354.545 196.495 354.482 196.66 354.46C196.758 354.475 196.847 354.527 196.908 354.605C196.969 354.683 196.999 354.781 196.99 354.88C196.977 355.037 196.933 355.19 196.86 355.33C196.748 355.552 196.61 355.76 196.45 355.95C196.17 356.27 195.94 356.4 195.93 356.38C195.92 356.36 196.11 356.19 196.35 355.87C196.489 355.678 196.609 355.474 196.71 355.26C196.82 355.04 196.88 354.67 196.64 354.64C196.4 354.61 196.17 354.9 196.04 355.1C195.918 355.298 195.84 355.52 195.81 355.75C195.802 355.967 195.815 356.185 195.85 356.4Z" fill="#263238"/>
<path d="M212 354.12C212 354.12 211.57 354.12 210.9 354.25C210.025 354.416 209.214 354.825 208.56 355.43C207.914 356.047 207.447 356.828 207.21 357.69C207.03 358.35 207.05 358.78 207.01 358.78C206.995 358.68 206.995 358.579 207.01 358.48C207.012 358.2 207.045 357.922 207.11 357.65C207.311 356.75 207.778 355.931 208.45 355.299C209.13 354.676 209.979 354.266 210.89 354.12C211.166 354.088 211.444 354.088 211.72 354.12C211.813 354.105 211.907 354.105 212 354.12Z" fill="#263238"/>
<path d="M210 348C210.18 349.016 210.303 350.041 210.37 351.07C210.491 352.096 210.554 353.127 210.56 354.16C210.375 353.145 210.251 352.12 210.19 351.09C210.063 350.065 210 349.033 210 348Z" fill="#263238"/>
<path d="M205 357.55C204.298 357.779 203.568 357.911 202.83 357.94C202.096 358.031 201.354 358.031 200.62 357.94C200.62 357.88 201.62 357.87 202.82 357.76C204.02 357.65 205 357.5 205 357.55Z" fill="#263238"/>
<path d="M207.93 357.32C207.93 357.32 207.87 357.53 207.79 357.76C207.71 357.99 207.67 358.2 207.61 358.2C207.55 358.2 207.52 357.97 207.61 357.7C207.7 357.43 207.9 357.28 207.93 357.32Z" fill="#263238"/>
<path d="M208.93 355.85C208.93 355.85 208.93 356.05 208.74 356.22C208.55 356.39 208.45 356.5 208.42 356.47C208.39 356.44 208.42 356.27 208.61 356.1C208.8 355.93 208.9 355.82 208.93 355.85Z" fill="#263238"/>
<path d="M210.47 355.1C210.47 355.1 210.26 355.16 210.05 355.26C209.84 355.36 209.69 355.48 209.64 355.45C209.59 355.42 209.71 355.2 209.98 355.09C210.25 354.98 210.48 355.05 210.47 355.1Z" fill="#263238"/>
<path d="M211.57 354.71C211.57 354.76 211.57 354.84 211.4 354.9C211.23 354.96 211.16 354.97 211.14 354.9C211.12 354.83 211.2 354.77 211.32 354.72C211.44 354.67 211.55 354.67 211.57 354.71Z" fill="#263238"/>
<path d="M163.74 356L163.94 348L178.99 348.28L178.81 360L177.88 360.05C173.72 360.2 156.74 360.53 153.98 359.63C150.91 358.67 163.74 356 163.74 356Z" fill="#FF9C77"/>
<g opacity="0.3">
<path d="M173.36 359.81C173.615 358.543 174.327 357.415 175.36 356.64C176.375 355.88 177.637 355.523 178.9 355.64L178.82 359.85L173.36 359.81Z" fill="white"/>
</g>
<g opacity="0.3">
<path d="M157.47 357.54C157.47 357.54 152.96 358.75 153.47 359.54C153.98 360.33 171.19 360.6 178.77 360.07V359.74L158.77 359.54C158.77 359.54 158.34 357.59 157.47 357.54Z" fill="white"/>
</g>
<path d="M179 359.69C178.914 359.705 178.826 359.705 178.74 359.69H178L175.26 359.75C172.95 359.75 169.76 359.81 166.26 359.75C162.76 359.69 159.55 359.56 157.26 359.44L154.53 359.28L153.79 359.22H154.53L157.27 359.33C159.57 359.42 162.76 359.52 166.27 359.59C169.78 359.66 172.98 359.65 175.27 359.65H179V359.69Z" fill="#263238"/>
<path d="M158.76 359.74C158.65 359.282 158.486 358.839 158.27 358.42C158.013 358.03 157.707 357.674 157.36 357.36C157.83 357.546 158.212 357.904 158.43 358.36C158.705 358.765 158.822 359.255 158.76 359.74Z" fill="#263238"/>
<path d="M163.24 357.57C163.24 357.57 162.99 357.33 162.78 356.98C162.57 356.63 162.43 356.33 162.47 356.3C162.51 356.27 162.72 356.53 162.93 356.88C163.084 357.084 163.19 357.32 163.24 357.57Z" fill="#263238"/>
<path d="M164.47 356.94C164.47 356.94 164.2 356.82 163.95 356.58C163.7 356.34 163.51 356.12 163.55 356.08C163.59 356.04 163.82 356.21 164.07 356.45C164.32 356.69 164.5 356.91 164.47 356.94Z" fill="#263238"/>
<path d="M165.27 355.54C165.016 355.626 164.746 355.653 164.48 355.62C164.213 355.649 163.943 355.619 163.69 355.53C163.943 355.442 164.213 355.412 164.48 355.44C164.747 355.412 165.018 355.446 165.27 355.54Z" fill="#263238"/>
<path d="M165.55 354.54C165.288 354.708 164.981 354.792 164.67 354.78C164.363 354.831 164.047 354.781 163.77 354.64C164.066 354.615 164.364 354.615 164.66 354.64C164.953 354.578 165.251 354.544 165.55 354.54Z" fill="#263238"/>
<path d="M162.75 356.24C162.419 356.3 162.081 356.3 161.75 356.24C161.409 356.188 161.075 356.105 160.75 355.99C160.548 355.929 160.353 355.845 160.17 355.74C160.055 355.674 159.97 355.567 159.93 355.44C159.919 355.367 159.928 355.292 159.956 355.223C159.984 355.154 160.03 355.094 160.09 355.05C160.462 354.878 160.882 354.84 161.28 354.942C161.677 355.044 162.027 355.28 162.27 355.61C162.415 355.803 162.517 356.025 162.57 356.26C162.57 356.43 162.57 356.52 162.57 356.52C162.483 356.22 162.34 355.938 162.15 355.69C161.936 355.43 161.651 355.239 161.33 355.14C161.144 355.073 160.946 355.043 160.749 355.054C160.551 355.064 160.358 355.114 160.18 355.2C160.02 355.31 160.08 355.49 160.25 355.59C160.42 355.693 160.601 355.777 160.79 355.84C161.115 355.959 161.449 356.049 161.79 356.11C162.39 356.21 162.75 356.21 162.75 356.24Z" fill="#263238"/>
<path d="M162.5 356.29C162.387 356.082 162.352 355.841 162.4 355.61C162.436 355.357 162.532 355.118 162.68 354.91C162.765 354.769 162.884 354.652 163.025 354.568C163.166 354.485 163.326 354.437 163.49 354.43C163.589 354.454 163.674 354.515 163.728 354.601C163.782 354.687 163.801 354.79 163.78 354.89C163.754 355.043 163.696 355.19 163.61 355.32C163.479 355.53 163.321 355.721 163.14 355.89C162.99 356.063 162.797 356.194 162.58 356.27C162.58 356.27 162.78 356.1 163.05 355.8C163.209 355.624 163.349 355.433 163.47 355.23C163.6 355.03 163.7 354.66 163.47 354.61C163.24 354.56 162.98 354.82 162.83 355.01C162.687 355.195 162.587 355.41 162.54 355.64C162.506 355.855 162.493 356.072 162.5 356.29Z" fill="#263238"/>
<path d="M178.8 355.57C178.8 355.57 178.37 355.52 177.69 355.57C176.799 355.669 175.954 356.016 175.25 356.57C174.546 357.122 174.007 357.855 173.69 358.69C173.572 359.042 173.472 359.399 173.39 359.76C173.371 359.658 173.371 359.553 173.39 359.45C173.422 359.175 173.483 358.904 173.57 358.64C173.856 357.761 174.402 356.989 175.136 356.427C175.87 355.865 176.757 355.538 177.68 355.49C177.956 355.462 178.234 355.462 178.51 355.49C178.61 355.501 178.708 355.528 178.8 355.57Z" fill="#263238"/>
<path d="M177.36 349.28C177.442 350.308 177.466 351.34 177.43 352.37C177.454 353.405 177.417 354.44 177.32 355.47C177.237 354.439 177.214 353.404 177.25 352.37C177.22 351.339 177.257 350.307 177.36 349.28Z" fill="#263238"/>
<path d="M171.5 358.31C170.778 358.466 170.038 358.526 169.3 358.49C168.56 358.516 167.82 358.442 167.1 358.27C167.1 358.27 168.1 358.27 169.3 358.27C170.5 358.27 171.49 358.26 171.5 358.31Z" fill="#263238"/>
<path d="M174.44 358.36C174.44 358.36 174.36 358.57 174.26 358.79C174.16 359.01 174.09 359.21 174.04 359.21C173.99 359.21 173.97 358.97 174.09 358.71C174.21 358.45 174.41 358.32 174.44 358.36Z" fill="#263238"/>
<path d="M175.58 357C175.58 357 175.52 357.19 175.36 357.34C175.2 357.49 175.04 357.6 175.01 357.56C174.98 357.52 175.07 357.37 175.23 357.21C175.39 357.05 175.55 357 175.58 357Z" fill="#263238"/>
<path d="M177.18 356.4C177.18 356.45 176.97 356.4 176.75 356.51C176.53 356.62 176.36 356.7 176.33 356.67C176.3 356.64 176.42 356.43 176.69 356.34C176.96 356.25 177.2 356.35 177.18 356.4Z" fill="#263238"/>
<path d="M178.32 356.12C178.32 356.17 178.25 356.24 178.12 356.29C177.99 356.34 177.88 356.29 177.86 356.29C177.84 356.29 177.93 356.17 178.06 356.13C178.19 356.09 178.3 356.07 178.32 356.12Z" fill="#263238"/>
<path d="M176.21 255.51C189.453 254.185 202.787 254.018 216.06 255.01L199.22 279.18L184.02 279.24L180.84 353.55H160.68L162.6 270.67C162.687 266.935 164.107 263.354 166.602 260.574C169.098 257.794 172.506 255.998 176.21 255.51Z" fill="#263238"/>
<path d="M181.51 347.82C178.033 348.083 174.546 348.17 171.06 348.08C167.578 348.17 164.093 348.083 160.62 347.82C160.62 347.68 165.29 347.56 171.06 347.56C176.83 347.56 181.51 347.68 181.51 347.82Z" fill="#455A64"/>
<path d="M189.49 264.26C189.155 264.261 188.821 264.241 188.49 264.2C187.84 264.15 186.89 264.07 185.67 264.03C184.186 263.966 182.7 263.993 181.22 264.11C180.301 264.179 179.391 264.329 178.5 264.56C177.503 264.75 176.59 265.246 175.89 265.98C175.569 266.414 175.338 266.906 175.21 267.43C175.03 267.97 174.89 268.53 174.75 269.11C174.47 270.312 174.276 271.531 174.17 272.76C173.94 275.33 173.73 278.08 173.53 280.97C173.13 286.75 172.84 293.12 172.6 299.81C172.15 313.19 171.6 325.31 171.27 334.07C171.07 338.42 170.91 341.96 170.8 344.45C170.73 345.64 170.68 346.59 170.64 347.27C170.64 347.57 170.64 347.81 170.64 348.01C170.649 348.093 170.649 348.177 170.64 348.26C170.631 348.174 170.631 348.087 170.64 348C170.64 347.81 170.64 347.57 170.64 347.27C170.64 346.58 170.64 345.64 170.69 344.44C170.77 341.95 170.87 338.44 171 334.06C171.3 325.25 171.72 313.15 172.18 299.79C172.42 293.1 172.72 286.72 173.18 280.93C173.39 278.04 173.62 275.29 173.87 272.72C173.988 271.474 174.196 270.237 174.49 269.02C174.63 268.434 174.79 267.864 174.97 267.31C175.124 266.742 175.385 266.21 175.74 265.74C176.495 264.962 177.473 264.438 178.54 264.24C179.456 264.02 180.389 263.879 181.33 263.82C182.821 263.719 184.318 263.719 185.81 263.82C187.04 263.89 187.99 264 188.63 264.08L189.36 264.19L189.49 264.26Z" fill="#455A64"/>
<path d="M213.21 281.09L214.67 352.45L191.35 353.59C191.35 353.59 187.64 283.68 189.49 263.84C190.76 250.26 242.57 256.1 242.57 256.1C243.32 283.1 213.21 281.1 213.21 281.1" fill="#263238"/>
<path d="M214.67 346.82C213.574 347.022 212.464 347.139 211.35 347.17C209.29 347.32 206.44 347.49 203.35 347.65C200.26 347.81 197.35 347.92 195.29 347.98C194.178 348.066 193.061 348.066 191.95 347.98C193.045 347.769 194.155 347.649 195.27 347.62C197.33 347.47 200.17 347.3 203.32 347.14C206.47 346.98 209.32 346.87 211.32 346.81C212.435 346.716 213.555 346.72 214.67 346.82Z" fill="#455A64"/>
<path d="M237.54 255.58C237.561 255.682 237.561 255.788 237.54 255.89C237.54 256.1 237.54 256.4 237.44 256.8C237.228 257.953 236.815 259.06 236.22 260.07C235.446 261.377 234.386 262.491 233.12 263.329C231.854 264.168 230.415 264.708 228.91 264.91C227.609 265.018 226.304 265.049 225 265H211.26C210.42 265 209.54 265 208.69 265C207.366 265.04 206.085 265.479 205.015 266.258C203.944 267.038 203.134 268.122 202.69 269.37C202.386 270.237 202.247 271.152 202.28 272.07V275C202.28 278.89 202.28 282.92 202.28 287C202.28 303.49 202.22 318.41 202.2 329.26C202.2 334.64 202.14 339 202.12 342.06C202.12 343.55 202.12 344.71 202.12 345.54C202.12 345.92 202.12 346.22 202.12 346.45C202.132 346.553 202.132 346.657 202.12 346.76C202.107 346.657 202.107 346.553 202.12 346.45C202.12 346.22 202.12 345.92 202.12 345.54C202.12 344.71 202.12 343.54 202.07 342.06C202.07 339 202.02 334.64 201.99 329.26C201.99 318.41 201.99 303.49 201.91 287V275C201.91 274 201.91 273.06 201.91 272.11C201.875 271.134 202.024 270.161 202.35 269.24C202.677 268.348 203.178 267.53 203.826 266.834C204.473 266.139 205.253 265.58 206.12 265.19C206.954 264.812 207.854 264.601 208.77 264.57C209.65 264.57 210.5 264.57 211.35 264.57H216.28L225.12 264.62C226.397 264.665 227.676 264.639 228.95 264.54C230.386 264.348 231.763 263.842 232.981 263.057C234.2 262.272 235.231 261.228 236 260C236.604 259.019 237.04 257.945 237.29 256.82C237.37 256.43 237.4 256.13 237.44 255.93C237.466 255.812 237.499 255.695 237.54 255.58Z" fill="#455A64"/>
<path d="M213.51 275.1C213.699 276.247 213.72 277.416 213.57 278.57C213.587 279.732 213.436 280.891 213.12 282.01C212.918 280.863 212.894 279.693 213.05 278.54C213.033 277.377 213.188 276.217 213.51 275.1Z" fill="#455A64"/>
<path d="M214.41 255C213.852 255.103 213.287 255.167 212.72 255.19L208.09 255.53C206.09 255.68 203.82 255.89 201.27 256.29C198.517 256.686 195.875 257.646 193.51 259.11C192.306 259.846 191.376 260.956 190.86 262.27C190.456 263.542 190.182 264.852 190.04 266.18C189.74 268.74 189.71 271.07 189.66 273.03C189.61 274.99 189.57 276.57 189.51 277.67C189.51 278.22 189.44 278.67 189.41 278.93C189.41 279.08 189.383 279.229 189.33 279.37C189.292 278.801 189.292 278.229 189.33 277.66C189.33 276.48 189.33 274.92 189.33 273.02C189.302 270.72 189.392 268.42 189.6 266.13C189.733 264.772 190.007 263.431 190.42 262.13C190.97 260.712 191.967 259.511 193.26 258.71C195.691 257.195 198.419 256.219 201.26 255.85C203.83 255.47 206.17 255.3 208.13 255.19C210.09 255.08 211.67 255.04 212.77 255.01C213.315 254.963 213.864 254.959 214.41 255Z" fill="#455A64"/>
<path d="M180 213.87C180 213.87 184.51 244.48 199.08 243.49L198.2 226.89L185.37 215.1L180 213.87Z" fill="#EB996E"/>
<path d="M242.72 255.84L239.53 230.68L242.82 204.94C240.66 192.94 223.82 192.07 223.82 192.07L210.57 191.85C210.57 191.85 199.44 190.23 195.38 197.72L187.89 224.55C187.89 224.55 193.05 225.29 197.89 225.46L198.22 228.39H198.3L199.7 254.85L242.72 255.84Z" fill="#FF9C77"/>
<path d="M223.91 191.71C223.933 191.973 223.903 192.239 223.82 192.49C223.631 193.379 223.259 194.219 222.729 194.958C222.199 195.696 221.522 196.316 220.74 196.78C219.598 197.485 218.282 197.856 216.94 197.85C215.722 197.872 214.52 197.579 213.449 196.999C212.379 196.419 211.476 195.572 210.83 194.54C210.473 193.921 210.229 193.244 210.11 192.54C210.036 192.283 210.019 192.014 210.06 191.75C210.328 192.666 210.694 193.551 211.15 194.39C211.792 195.329 212.657 196.095 213.667 196.618C214.678 197.142 215.802 197.407 216.94 197.39C218.074 197.396 219.193 197.126 220.2 196.603C221.207 196.08 222.072 195.321 222.72 194.39C223.195 193.534 223.593 192.637 223.91 191.71Z" fill="#263238"/>
<path d="M199 203.45C199.257 205.577 199.344 207.72 199.26 209.86C199.344 212 199.257 214.144 199 216.27C198.737 214.144 198.65 212 198.74 209.86C198.65 207.72 198.737 205.576 199 203.45Z" fill="#263238"/>
<path d="M173.91 190.81C174.31 191.28 188.8 210.66 188.8 210.66L186.8 211.81L171.93 192.69L173.91 190.81Z" fill="#263238"/>
<path d="M232.11 206.13C232.11 206.13 216.87 228.07 216 228.5C214.19 229.35 193.34 211.33 191.35 209.61C191.08 209.24 190.51 208.47 189.35 206.93C189.35 206.93 187.71 199.4 185.95 199.98C184.19 200.56 186.95 203.81 185.77 206.67C184.59 209.53 179.39 202.67 179.18 202.09L177.83 200.33C177.83 200.33 176.41 204.33 176.51 206.02C176.82 211.39 181.9 217.78 181.9 217.78C181.9 217.78 204.72 246.05 220.35 246.93C227.54 247.33 243.64 214.54 243.64 214.54L232.11 206.13Z" fill="#FFBE9D"/>
<path d="M179.07 207C178.557 206.457 178.15 205.823 177.87 205.13C177.49 204.483 177.232 203.771 177.11 203.03C177.502 203.666 177.837 204.335 178.11 205.03C178.492 205.655 178.813 206.315 179.07 207Z" fill="#EB996E"/>
<path d="M235.64 195.42C235.64 195.42 250.8 201.82 239.21 228.6L220.87 217.79L235.64 195.42Z" fill="#FF9C77"/>
<path d="M236 195.9C235.835 195.954 235.663 195.985 235.49 195.99C235.011 196.016 234.537 196.104 234.08 196.25C232.383 196.783 230.871 197.785 229.72 199.14C226.64 202.47 224.07 208.27 221.45 214.66C221.06 215.61 220.66 216.56 220.29 217.45L220.18 217.13C225.64 220.13 230.38 222.96 233.71 225.13C235.38 226.21 236.71 227.13 237.59 227.74L238.59 228.48C238.713 228.561 238.824 228.659 238.92 228.77C238.414 228.513 237.927 228.223 237.46 227.9L233.51 225.43C230.14 223.35 225.37 220.57 219.91 217.6L219.71 217.49L219.8 217.27L220.95 214.48C223.57 208.09 226.21 202.25 229.44 198.91C230.645 197.534 232.232 196.549 234 196.08C234.478 195.948 234.974 195.887 235.47 195.9C235.646 195.877 235.824 195.877 236 195.9Z" fill="#263238"/>
<path d="M217 197.45C216.074 197.45 215.157 197.266 214.303 196.909C213.448 196.553 212.673 196.03 212.022 195.371C211.371 194.713 210.857 193.932 210.51 193.073C210.163 192.215 209.989 191.296 210 190.37C210 187.93 210.06 185.83 210.06 185.83C210.06 185.83 204.43 185.3 204.06 179.73C203.69 174.16 203.82 161.3 203.82 161.3C206.907 159.741 210.354 159.034 213.805 159.254C217.256 159.474 220.586 160.612 223.45 162.55L224.31 163.13L224 190.52C223.982 192.364 223.236 194.127 221.925 195.424C220.614 196.722 218.844 197.45 217 197.45Z" fill="#FFBE9D"/>
<path d="M209.87 176.3C209.46 176.411 209.033 176.452 208.61 176.42C208.493 176.434 208.376 176.434 208.26 176.42C208.181 176.401 208.107 176.364 208.045 176.312C207.982 176.26 207.933 176.194 207.9 176.12C207.821 175.842 207.842 175.545 207.96 175.28C208.11 174.76 208.27 174.28 208.43 173.67C208.792 172.276 209.288 170.92 209.91 169.62C209.693 171.045 209.338 172.445 208.85 173.8C208.67 174.35 208.5 174.88 208.34 175.4C208.245 175.578 208.207 175.78 208.23 175.98C208.23 176.09 208.41 176.13 208.61 176.14C209.036 176.118 209.462 176.173 209.87 176.3Z" fill="#263238"/>
<path d="M212.42 177C213.19 176.48 210.29 178.31 208.72 178.33C209.006 178.718 209.414 178.997 209.879 179.122C210.344 179.247 210.838 179.211 211.28 179.02C212.91 178.3 212.42 177 212.42 177Z" fill="white"/>
<path d="M210 185.75C212.577 185.638 215.063 184.76 217.14 183.23C217.14 183.23 215.67 187.35 210.07 187.23L210 185.75Z" fill="#EB996E"/>
<path d="M222.78 169.29C222.89 169.29 226.31 168.81 225.99 172.85C225.67 176.89 221.69 175.23 221.69 175.11C221.69 174.99 222.78 169.29 222.78 169.29Z" fill="#FFBE9D"/>
<path d="M223 173.79C223 173.79 223.07 173.85 223.18 173.91C223.26 173.954 223.348 173.983 223.439 173.993C223.53 174.003 223.622 173.995 223.71 173.97C223.983 173.823 224.212 173.607 224.375 173.344C224.539 173.081 224.63 172.779 224.64 172.47C224.674 172.132 224.633 171.79 224.52 171.47C224.491 171.342 224.433 171.223 224.35 171.122C224.266 171.021 224.16 170.942 224.04 170.89C223.959 170.862 223.872 170.862 223.791 170.891C223.711 170.92 223.644 170.976 223.6 171.05C223.54 171.16 223.6 171.24 223.54 171.25C223.48 171.26 223.46 171.17 223.54 171.01C223.573 170.913 223.636 170.829 223.72 170.77C223.84 170.696 223.981 170.668 224.12 170.69C224.284 170.736 224.434 170.824 224.555 170.945C224.676 171.066 224.763 171.215 224.81 171.38C224.949 171.746 225 172.14 224.96 172.53C224.951 172.891 224.835 173.242 224.626 173.537C224.418 173.832 224.127 174.06 223.79 174.19C223.68 174.214 223.566 174.211 223.456 174.184C223.347 174.156 223.246 174.103 223.16 174.03C223 173.89 223 173.8 223 173.79Z" fill="#EB996E"/>
<path d="M204.17 161.63C203.488 161.427 202.892 161.004 202.476 160.427C202.06 159.85 201.847 159.151 201.87 158.44C201.928 157.732 202.173 157.052 202.581 156.47C202.989 155.889 203.544 155.426 204.19 155.13C204.845 154.854 205.551 154.718 206.262 154.73C206.973 154.742 207.674 154.902 208.32 155.2C208.52 154.161 209.083 153.226 209.909 152.564C210.734 151.902 211.768 151.555 212.826 151.585C213.884 151.615 214.897 152.02 215.683 152.728C216.47 153.436 216.979 154.401 217.12 155.45C217.26 154.37 218.47 153.77 219.56 153.7C220.1 153.647 220.644 153.716 221.153 153.904C221.663 154.091 222.123 154.39 222.5 154.78C222.862 155.184 223.063 155.707 223.063 156.25C223.063 156.793 222.862 157.316 222.5 157.72C223.716 157.554 224.951 157.85 225.96 158.55C226.457 158.9 226.858 159.369 227.127 159.914C227.396 160.459 227.524 161.063 227.5 161.67C227.456 162.279 227.222 162.858 226.831 163.327C226.44 163.795 225.911 164.128 225.32 164.28C224.91 164.36 224.42 164.38 224.2 164.74C224.098 164.948 224.06 165.181 224.09 165.41L224.21 169.41C223.836 169.277 223.426 169.292 223.064 169.452C222.701 169.612 222.413 169.904 222.26 170.27C221.986 171.018 221.91 171.824 222.04 172.61C221.7 173.12 220.83 172.97 220.46 172.48C220.138 171.945 219.994 171.322 220.05 170.7C220.05 168.55 220.05 166.4 219.97 164.25C219.652 164.428 219.294 164.522 218.93 164.522C218.566 164.522 218.208 164.429 217.89 164.252C217.572 164.074 217.305 163.818 217.114 163.508C216.923 163.198 216.815 162.844 216.8 162.48C216.344 162.919 215.796 163.251 215.196 163.451C214.595 163.652 213.958 163.716 213.33 163.64C212.701 163.563 212.098 163.347 211.564 163.008C211.029 162.669 210.577 162.216 210.24 161.68C209.594 162.236 208.882 162.71 208.12 163.09C207.35 163.472 206.463 163.547 205.64 163.3C205.234 163.17 204.878 162.92 204.619 162.582C204.36 162.244 204.21 161.835 204.19 161.41L204.48 161.17" fill="#263238"/>
<path d="M205.63 169.76C205.627 169.855 205.643 169.949 205.677 170.037C205.71 170.126 205.761 170.206 205.826 170.275C205.891 170.344 205.969 170.399 206.056 170.438C206.142 170.476 206.235 170.497 206.33 170.5C206.523 170.5 206.709 170.423 206.846 170.286C206.983 170.149 207.06 169.964 207.06 169.77C207.06 169.576 206.983 169.391 206.846 169.254C206.709 169.117 206.523 169.04 206.33 169.04C206.143 169.048 205.966 169.127 205.836 169.261C205.706 169.394 205.632 169.573 205.63 169.76Z" fill="#263238"/>
<path d="M204.46 169C204.55 169.1 205.08 168.65 205.85 168.62C206.62 168.59 207.19 168.98 207.27 168.88C207.35 168.78 207.22 168.65 206.97 168.47C206.636 168.239 206.236 168.123 205.83 168.14C205.427 168.163 205.041 168.313 204.73 168.57C204.49 168.73 204.42 168.91 204.46 169Z" fill="#263238"/>
<path d="M214 169.76C213.997 169.95 214.069 170.134 214.2 170.272C214.33 170.411 214.51 170.492 214.7 170.5C214.795 170.501 214.89 170.484 214.979 170.448C215.067 170.413 215.148 170.36 215.216 170.293C215.284 170.226 215.338 170.146 215.374 170.058C215.411 169.97 215.43 169.875 215.43 169.78C215.433 169.59 215.361 169.406 215.23 169.268C215.1 169.13 214.92 169.048 214.73 169.04C214.539 169.043 214.356 169.119 214.22 169.253C214.084 169.387 214.005 169.569 214 169.76Z" fill="#263238"/>
<path d="M213 169.1C213.09 169.2 213.62 168.75 214.39 168.72C215.16 168.69 215.72 169.08 215.81 168.97C215.9 168.86 215.75 168.75 215.5 168.57C215.17 168.337 214.773 168.221 214.37 168.24C213.963 168.258 213.573 168.409 213.26 168.67C213 168.87 212.91 169.06 213 169.1Z" fill="#263238"/>
</svg>
