<svg width="15" height="14" viewBox="0 0 15 14" fill="none" xmlns="http://www.w3.org/2000/svg">
<path id="icon" d="M1.5 13.5C1.0875 13.5 0.734375 13.3586 0.440625 13.0757C0.146875 12.7928 0 12.4528 0 12.0556V9.88889H15V12.0556C15 12.4528 14.8531 12.7928 14.5594 13.0757C14.2656 13.3586 13.9125 13.5 13.5 13.5H1.5ZM1.5 11.3333V12.0556H13.5V11.3333H1.5ZM7.5 8.08333C7.05 8.08333 6.69375 8.2037 6.43125 8.44444C6.16875 8.68519 5.6875 8.80556 4.9875 8.80556C4.2875 8.80556 3.8125 8.68519 3.5625 8.44444C3.3125 8.2037 2.9625 8.08333 2.5125 8.08333C2.0625 8.08333 1.70625 8.2037 1.44375 8.44444C1.18125 8.68519 0.7 8.80556 0 8.80556V7.36111C0.45 7.36111 0.80625 7.24074 1.06875 7C1.33125 6.75926 1.8125 6.63889 2.5125 6.63889C3.2125 6.63889 3.6875 6.75926 3.9375 7C4.1875 7.24074 4.5375 7.36111 4.9875 7.36111C5.4375 7.36111 5.79375 7.24074 6.05625 7C6.31875 6.75926 6.8 6.63889 7.5 6.63889C8.2 6.63889 8.68125 6.75926 8.94375 7C9.20625 7.24074 9.5625 7.36111 10.0125 7.36111C10.4625 7.36111 10.8125 7.24074 11.0625 7C11.3125 6.75926 11.7875 6.63889 12.4875 6.63889C13.1875 6.63889 13.6813 6.75926 13.9688 7C14.2563 7.24074 14.6 7.36111 15 7.36111V8.80556C14.3 8.80556 13.8313 8.68519 13.5938 8.44444C13.3563 8.2037 13.0125 8.08333 12.5625 8.08333C12.1125 8.08333 11.75 8.2037 11.475 8.44444C11.2 8.68519 10.7125 8.80556 10.0125 8.80556C9.3125 8.80556 8.83125 8.68519 8.56875 8.44444C8.30625 8.2037 7.95 8.08333 7.5 8.08333ZM0 5.55556V4.83333C0 3.44907 0.678125 2.38079 2.03438 1.62847C3.39063 0.876157 5.2125 0.5 7.5 0.5C9.7875 0.5 11.6094 0.876157 12.9656 1.62847C14.3219 2.38079 15 3.44907 15 4.83333V5.55556H0ZM7.5 1.94444C5.95 1.94444 4.65313 2.13102 3.60938 2.50417C2.56563 2.87731 1.9 3.41296 1.6125 4.11111H13.3875C13.1 3.41296 12.4344 2.87731 11.3906 2.50417C10.3469 2.13102 9.05 1.94444 7.5 1.94444Z" fill="#FF9C77"/>
</svg>
