<svg width="13" height="16" viewBox="0 0 13 16" fill="none" xmlns="http://www.w3.org/2000/svg">
<path id="icon" d="M0.8 16V14.4H5.6V11.2H4C2.89333 11.2 1.95 10.81 1.17 10.03C0.39 9.25 0 8.30667 0 7.2C0 6.4 0.22 5.66333 0.66 4.99C1.1 4.31667 1.69333 3.82667 2.44 3.52C2.56 2.52 2.99667 1.68333 3.75 1.01C4.50333 0.336667 5.38667 0 6.4 0C7.41333 0 8.29667 0.336667 9.05 1.01C9.80333 1.68333 10.24 2.52 10.36 3.52C11.1067 3.82667 11.7 4.31667 12.14 4.99C12.58 5.66333 12.8 6.4 12.8 7.2C12.8 8.30667 12.41 9.25 11.63 10.03C10.85 10.81 9.90667 11.2 8.8 11.2H7.2V14.4H12V16H0.8ZM4 9.6H8.8C9.46667 9.6 10.0333 9.36667 10.5 8.9C10.9667 8.43333 11.2 7.86667 11.2 7.2C11.2 6.72 11.0633 6.28 10.79 5.88C10.5167 5.48 10.16 5.18667 9.72 5L8.88 4.64L8.76 3.72C8.68 3.12 8.41667 2.61667 7.97 2.21C7.52333 1.80333 7 1.6 6.4 1.6C5.8 1.6 5.27667 1.80333 4.83 2.21C4.38333 2.61667 4.12 3.12 4.04 3.72L3.92 4.64L3.08 5C2.64 5.18667 2.28333 5.48 2.01 5.88C1.73667 6.28 1.6 6.72 1.6 7.2C1.6 7.86667 1.83333 8.43333 2.3 8.9C2.76667 9.36667 3.33333 9.6 4 9.6Z" fill="#FF9C77"/>
</svg>
