<svg width="12" height="14" viewBox="0 0 12 14" fill="none" xmlns="http://www.w3.org/2000/svg">
<path id="Vector" d="M1.42105 13.75C1.21974 13.75 1.05099 13.6819 0.914803 13.5457C0.778618 13.4095 0.710526 13.2408 0.710526 13.0395V11.5829C0.497368 11.3461 0.325658 11.0826 0.195395 10.7924C0.0651316 10.5023 0 10.1855 0 9.84211V3.09211C0 2.10921 0.455921 1.3898 1.36776 0.933882C2.27961 0.477961 3.71842 0.25 5.68421 0.25C7.72105 0.25 9.17763 0.469079 10.0539 0.907237C10.9303 1.34539 11.3684 2.07368 11.3684 3.09211V9.84211C11.3684 10.1855 11.3033 10.5023 11.173 10.7924C11.0428 11.0826 10.8711 11.3461 10.6579 11.5829V13.0395C10.6579 13.2408 10.5898 13.4095 10.4536 13.5457C10.3174 13.6819 10.1487 13.75 9.94737 13.75H9.23684C9.03553 13.75 8.86678 13.6819 8.73059 13.5457C8.59441 13.4095 8.52631 13.2408 8.52631 13.0395V12.3289H2.8421V13.0395C2.8421 13.2408 2.77401 13.4095 2.63783 13.5457C2.50164 13.6819 2.33289 13.75 2.13158 13.75H1.42105ZM5.71974 2.38158H9.69868H1.74079H5.71974ZM8.52631 7.35526H1.42105H9.94737H8.52631ZM1.42105 5.93421H9.94737V3.80263H1.42105V5.93421ZM3.19737 10.1974C3.49342 10.1974 3.74507 10.0938 3.9523 9.88651C4.15954 9.67928 4.26316 9.42763 4.26316 9.13158C4.26316 8.83553 4.15954 8.58388 3.9523 8.37665C3.74507 8.16941 3.49342 8.06579 3.19737 8.06579C2.90132 8.06579 2.64967 8.16941 2.44243 8.37665C2.2352 8.58388 2.13158 8.83553 2.13158 9.13158C2.13158 9.42763 2.2352 9.67928 2.44243 9.88651C2.64967 10.0938 2.90132 10.1974 3.19737 10.1974ZM8.17105 10.1974C8.4671 10.1974 8.71875 10.0938 8.92599 9.88651C9.13322 9.67928 9.23684 9.42763 9.23684 9.13158C9.23684 8.83553 9.13322 8.58388 8.92599 8.37665C8.71875 8.16941 8.4671 8.06579 8.17105 8.06579C7.875 8.06579 7.62335 8.16941 7.41612 8.37665C7.20888 8.58388 7.10526 8.83553 7.10526 9.13158C7.10526 9.42763 7.20888 9.67928 7.41612 9.88651C7.62335 10.0938 7.875 10.1974 8.17105 10.1974ZM1.74079 2.38158H9.69868C9.52105 2.18026 9.13914 2.01151 8.55296 1.87533C7.96678 1.73914 7.02237 1.67105 5.71974 1.67105C4.45263 1.67105 3.52599 1.74507 2.9398 1.89309C2.35362 2.04112 1.95395 2.20395 1.74079 2.38158ZM2.8421 10.9079H8.52631C8.9171 10.9079 9.25164 10.7688 9.52993 10.4905C9.80822 10.2122 9.94737 9.87763 9.94737 9.48684V7.35526H1.42105V9.48684C1.42105 9.87763 1.5602 10.2122 1.83849 10.4905C2.11678 10.7688 2.45132 10.9079 2.8421 10.9079Z" fill="#FF9C77"/>
</svg>
