<svg width="24" height="24" viewBox="0 0 24 24" fill="none" xmlns="http://www.w3.org/2000/svg">
<g id="data_exploration_FILL0_wght400_GRAD0_opsz24 1">
<path id="Vector" d="M16.8922 19.9762C16.7586 19.9762 16.6332 19.9564 16.5163 19.9167C16.3993 19.877 16.2907 19.8095 16.1905 19.7143L11.0777 14.8571C10.9774 14.7619 10.9064 14.6587 10.8647 14.5476C10.8229 14.4365 10.802 14.3175 10.802 14.1905C10.802 14.0635 10.8229 13.9444 10.8647 13.8333C10.9064 13.7222 10.9774 13.619 11.0777 13.5238L13.208 11.5C13.3083 11.4048 13.4169 11.3373 13.5338 11.2976C13.6508 11.2579 13.7761 11.2381 13.9098 11.2381C14.0434 11.2381 14.1688 11.2579 14.2857 11.2976C14.4027 11.3373 14.5113 11.4048 14.6115 11.5L19.7243 16.3571C19.8246 16.4524 19.8956 16.5556 19.9373 16.6667C19.9791 16.7778 20 16.8968 20 17.0238C20 17.1508 19.9791 17.2698 19.9373 17.381C19.8956 17.4921 19.8246 17.5952 19.7243 17.6905L17.594 19.7143C17.4937 19.8095 17.3851 19.877 17.2682 19.9167C17.1512 19.9564 17.0259 19.9762 16.8922 19.9762ZM16.8922 17.7143L17.619 17.0238L13.9348 13.5238L13.208 14.2143L16.8922 17.7143ZM3.13283 20C2.99916 20 2.86967 19.9762 2.74436 19.9286C2.61905 19.881 2.50627 19.8095 2.40601 19.7143L0.300752 17.7143C0.200501 17.619 0.125313 17.5119 0.075188 17.3929C0.0250627 17.2738 0 17.1508 0 17.0238C0 16.8968 0.0250627 16.7778 0.075188 16.6667C0.125313 16.5556 0.200501 16.4524 0.300752 16.3571L5.61404 11.3095H7.74436L8.59649 10.5L4.46115 6.57143H3.03258L0 3.69048L2.83208 1L5.86466 3.88095V5.2381L10 9.16667L12.9073 6.40476L11.8296 5.38095L13.2331 4.04762H10.401L9.69925 3.38095L13.2581 0L13.9599 0.666667V3.35714L15.3634 2.02381L18.9223 5.40476C19.2063 5.6746 19.4236 5.98016 19.5739 6.32143C19.7243 6.6627 19.7995 7.02381 19.7995 7.40476C19.7995 7.78571 19.7243 8.15079 19.5739 8.5C19.4236 8.84921 19.2063 9.15873 18.9223 9.42857L16.792 7.40476L15.3885 8.7381L14.3358 7.7381L9.14787 12.6667V14.6667L3.83459 19.7143C3.73434 19.8095 3.62573 19.881 3.50877 19.9286C3.39181 19.9762 3.2665 20 3.13283 20ZM3.13283 17.7143L7.39348 13.6667V12.9762H6.66667L2.40601 17.0238L3.13283 17.7143ZM3.13283 17.7143L2.40601 17.0238L2.78195 17.3571L3.13283 17.7143Z" fill="#1E1E1E"/>
</g>
</svg>
