<svg width="58" height="60" viewBox="0 0 58 60" fill="none" xmlns="http://www.w3.org/2000/svg">
<g id="Vector" filter="url(#filter0_d_314_301)">
<path d="M47.2982 55.9333C46.924 55.9333 46.5731 55.8778 46.2456 55.7667C45.9181 55.6556 45.614 55.4667 45.3333 55.2L31.0175 41.6C30.7368 41.3333 30.538 41.0444 30.4211 40.7333C30.3041 40.4222 30.2456 40.0889 30.2456 39.7333C30.2456 39.3778 30.3041 39.0444 30.4211 38.7333C30.538 38.4222 30.7368 38.1333 31.0175 37.8667L36.9825 32.2C37.2632 31.9333 37.5673 31.7444 37.8947 31.6333C38.2222 31.5222 38.5731 31.4667 38.9474 31.4667C39.3216 31.4667 39.6725 31.5222 40 31.6333C40.3275 31.7444 40.6316 31.9333 40.9123 32.2L55.2281 45.8C55.5088 46.0667 55.7076 46.3556 55.8246 46.6667C55.9415 46.9778 56 47.3111 56 47.6667C56 48.0222 55.9415 48.3556 55.8246 48.6667C55.7076 48.9778 55.5088 49.2667 55.2281 49.5333L49.2632 55.2C48.9825 55.4667 48.6784 55.6556 48.3509 55.7667C48.0234 55.8778 47.6725 55.9333 47.2982 55.9333ZM47.2982 49.6L49.3333 47.6667L39.0175 37.8667L36.9825 39.8L47.2982 49.6ZM8.77193 56C8.39766 56 8.03509 55.9333 7.68421 55.8C7.33333 55.6667 7.01754 55.4667 6.73684 55.2L0.842105 49.6C0.561404 49.3333 0.350877 49.0333 0.210526 48.7C0.0701754 48.3667 0 48.0222 0 47.6667C0 47.3111 0.0701754 46.9778 0.210526 46.6667C0.350877 46.3556 0.561404 46.0667 0.842105 45.8L15.7193 31.6667H21.6842L24.0702 29.4L12.4912 18.4H8.49123L0 10.3333L7.92982 2.8L16.4211 10.8667V14.6667L28 25.6667L36.1404 17.9333L33.1228 15.0667L37.0526 11.3333H29.1228L27.1579 9.46667L37.1228 0L39.0877 1.86667V9.4L43.0175 5.66667L52.9825 15.1333C53.7778 15.8889 54.386 16.7444 54.807 17.7C55.2281 18.6556 55.4386 19.6667 55.4386 20.7333C55.4386 21.8 55.2281 22.8222 54.807 23.8C54.386 24.7778 53.7778 25.6444 52.9825 26.4L47.0175 20.7333L43.0877 24.4667L40.1404 21.6667L25.614 35.4667V41.0667L10.7368 55.2C10.4561 55.4667 10.152 55.6667 9.82456 55.8C9.49708 55.9333 9.1462 56 8.77193 56ZM8.77193 49.6L20.7018 38.2667V36.3333H18.6667L6.73684 47.6667L8.77193 49.6ZM8.77193 49.6L6.73684 47.6667L7.78947 48.6L8.77193 49.6Z" fill="#7E1CC4"/>
</g>
<defs>
<filter id="filter0_d_314_301" x="0" y="0" width="58" height="60" filterUnits="userSpaceOnUse" color-interpolation-filters="sRGB">
<feFlood flood-opacity="0" result="BackgroundImageFix"/>
<feColorMatrix in="SourceAlpha" type="matrix" values="0 0 0 0 0 0 0 0 0 0 0 0 0 0 0 0 0 0 127 0" result="hardAlpha"/>
<feOffset dx="2" dy="4"/>
<feComposite in2="hardAlpha" operator="out"/>
<feColorMatrix type="matrix" values="0 0 0 0 1 0 0 0 0 0.611765 0 0 0 0 0.466667 0 0 0 1 0"/>
<feBlend mode="normal" in2="BackgroundImageFix" result="effect1_dropShadow_314_301"/>
<feBlend mode="normal" in="SourceGraphic" in2="effect1_dropShadow_314_301" result="shape"/>
</filter>
</defs>
</svg>
