<svg width="58" height="60" viewBox="0 0 58 60" fill="none" xmlns="http://www.w3.org/2000/svg">
<g id="Vector" filter="url(#filter0_d_314_302)">
<path d="M28 56C24.1267 56 20.4867 55.265 17.08 53.795C13.6733 52.325 10.71 50.33 8.19 47.81C5.67 45.29 3.675 42.3267 2.205 38.92C0.735 35.5133 0 31.8733 0 28C0 24.1267 0.735 20.4867 2.205 17.08C3.675 13.6733 5.67 10.71 8.19 8.19C10.71 5.67 13.6733 3.675 17.08 2.205C20.4867 0.735 24.1267 0 28 0C31.8733 0 35.5133 0.735 38.92 2.205C42.3267 3.675 45.29 5.67 47.81 8.19C50.33 10.71 52.325 13.6733 53.795 17.08C55.265 20.4867 56 24.1267 56 28V50.4C56 51.94 55.4517 53.2583 54.355 54.355C53.2583 55.4517 51.94 56 50.4 56H28ZM28 50.4C34.2533 50.4 39.55 48.23 43.89 43.89C48.23 39.55 50.4 34.2533 50.4 28C50.4 21.7467 48.23 16.45 43.89 12.11C39.55 7.77 34.2533 5.6 28 5.6C21.7467 5.6 16.45 7.77 12.11 12.11C7.77 16.45 5.6 21.7467 5.6 28C5.6 29.0733 5.67 30.1233 5.81 31.15C5.95 32.1767 6.16 33.18 6.44 34.16L16.8 23.8L26.04 31.57L35.21 22.4H30.8V16.8H44.8V30.8H39.2V26.39L26.32 39.2L17.15 31.36L8.89 39.62C10.85 42.84 13.4983 45.4417 16.835 47.425C20.1717 49.4083 23.8933 50.4 28 50.4ZM49 51.8C49.7933 51.8 50.4583 51.5317 50.995 50.995C51.5317 50.4583 51.8 49.7933 51.8 49C51.8 48.2067 51.5317 47.5417 50.995 47.005C50.4583 46.4683 49.7933 46.2 49 46.2C48.2067 46.2 47.5417 46.4683 47.005 47.005C46.4683 47.5417 46.2 48.2067 46.2 49C46.2 49.7933 46.4683 50.4583 47.005 50.995C47.5417 51.5317 48.2067 51.8 49 51.8Z" fill="#7E1CC4"/>
</g>
<defs>
<filter id="filter0_d_314_302" x="0" y="0" width="58" height="60" filterUnits="userSpaceOnUse" color-interpolation-filters="sRGB">
<feFlood flood-opacity="0" result="BackgroundImageFix"/>
<feColorMatrix in="SourceAlpha" type="matrix" values="0 0 0 0 0 0 0 0 0 0 0 0 0 0 0 0 0 0 127 0" result="hardAlpha"/>
<feOffset dx="2" dy="4"/>
<feComposite in2="hardAlpha" operator="out"/>
<feColorMatrix type="matrix" values="0 0 0 0 1 0 0 0 0 0.611765 0 0 0 0 0.466667 0 0 0 1 0"/>
<feBlend mode="normal" in2="BackgroundImageFix" result="effect1_dropShadow_314_302"/>
<feBlend mode="normal" in="SourceGraphic" in2="effect1_dropShadow_314_302" result="shape"/>
</filter>
</defs>
</svg>
