<svg width="24" height="24" viewBox="0 0 24 24" fill="none" xmlns="http://www.w3.org/2000/svg">
<g id="data_exploration_FILL0_wght400_GRAD0_opsz24 1">
<path id="Vector" d="M12 22C10.6167 22 9.31667 21.7375 8.1 21.2125C6.88333 20.6875 5.825 19.975 4.925 19.075C4.025 18.175 3.3125 17.1167 2.7875 15.9C2.2625 14.6833 2 13.3833 2 12C2 10.6167 2.2625 9.31667 2.7875 8.1C3.3125 6.88333 4.025 5.825 4.925 4.925C5.825 4.025 6.88333 3.3125 8.1 2.7875C9.31667 2.2625 10.6167 2 12 2C13.3833 2 14.6833 2.2625 15.9 2.7875C17.1167 3.3125 18.175 4.025 19.075 4.925C19.975 5.825 20.6875 6.88333 21.2125 8.1C21.7375 9.31667 22 10.6167 22 12V20C22 20.55 21.8042 21.0208 21.4125 21.4125C21.0208 21.8042 20.55 22 20 22H12ZM12 20C14.2333 20 16.125 19.225 17.675 17.675C19.225 16.125 20 14.2333 20 12C20 9.76667 19.225 7.875 17.675 6.325C16.125 4.775 14.2333 4 12 4C9.76667 4 7.875 4.775 6.325 6.325C4.775 7.875 4 9.76667 4 12C4 12.3833 4.025 12.7583 4.075 13.125C4.125 13.4917 4.2 13.85 4.3 14.2L8 10.5L11.3 13.275L14.575 10H13V8H18V13H16V11.425L11.4 16L8.125 13.2L5.175 16.15C5.875 17.3 6.82083 18.2292 8.0125 18.9375C9.20417 19.6458 10.5333 20 12 20ZM19.5 20.5C19.7833 20.5 20.0208 20.4042 20.2125 20.2125C20.4042 20.0208 20.5 19.7833 20.5 19.5C20.5 19.2167 20.4042 18.9792 20.2125 18.7875C20.0208 18.5958 19.7833 18.5 19.5 18.5C19.2167 18.5 18.9792 18.5958 18.7875 18.7875C18.5958 18.9792 18.5 19.2167 18.5 19.5C18.5 19.7833 18.5958 20.0208 18.7875 20.2125C18.9792 20.4042 19.2167 20.5 19.5 20.5Z" fill="#1E1E1E"/>
</g>
</svg>
