<svg width="65" height="52" viewBox="0 0 65 52" fill="none" xmlns="http://www.w3.org/2000/svg">
<g id="Vector" filter="url(#filter0_d_334_441)">
<path d="M60.5816 12.3162L34.0699 0.54411C32.4255 -0.18137 30.5718 -0.18137 28.9274 0.54411L2.41573 12.3162C1.45523 12.743 0.694042 13.55 0.297464 14.5623C-0.0991548 15.5747 -0.0991548 16.7107 0.297464 17.7231C0.694083 18.7354 1.45523 19.5425 2.41573 19.9693L11.7023 24.0928V37.3521C11.6883 39.7746 12.8921 42.0253 14.8697 43.2743C19.9147 46.3691 25.6532 48 31.4966 48C37.34 48 43.0783 46.3692 48.1234 43.2743C50.101 42.0253 51.3048 39.7745 51.2909 37.3521V24.0928L55.2502 22.3347V28.9019C54.5399 29.2243 53.9609 29.8 53.6156 30.5267C53.2703 31.2537 53.1807 32.0854 53.3626 32.8749C53.5446 33.6644 53.9866 34.361 54.6103 34.8419C53.7712 35.4905 53.2751 36.5182 53.2728 37.6121V41.0744C53.2728 41.4418 53.4119 41.794 53.6594 42.0538C53.9071 42.3135 54.2427 42.4594 54.5926 42.4594H58.5519C58.9023 42.4599 59.2384 42.3142 59.4863 42.0542C59.7342 41.7945 59.8738 41.442 59.874 41.0743V37.6121C59.8717 36.5184 59.3754 35.4907 58.5366 34.8419C59.1605 34.3612 59.6027 33.6646 59.7849 32.8749C59.9668 32.0852 59.8772 31.2537 59.5319 30.5267C59.1864 29.7996 58.6071 29.2241 57.8966 28.9018V21.162L60.584 19.969C61.5445 19.5422 62.3059 18.7352 62.7025 17.7228C63.0992 16.7105 63.0991 15.5745 62.7025 14.5621C62.3059 13.5497 61.5445 12.7427 60.584 12.3159L60.5816 12.3162ZM57.2347 32.0719C57.2347 32.352 57.0736 32.6048 56.8271 32.712C56.5803 32.8192 56.2964 32.7598 56.1074 32.5617C55.9186 32.3635 55.8622 32.0656 55.9644 31.8066C56.0666 31.5476 56.3074 31.3788 56.5743 31.3788C56.7494 31.3788 56.9173 31.4519 57.0413 31.5818C57.165 31.7116 57.2347 31.8879 57.2347 32.0718L57.2347 32.0719ZM57.2347 39.6893H55.9149V37.6121C55.909 37.4243 55.9759 37.2423 56.1003 37.1074C56.2247 36.9727 56.3959 36.8965 56.5748 36.8965C56.7535 36.8965 56.9247 36.9727 57.0491 37.1074C57.1735 37.2423 57.2404 37.4243 57.2347 37.6121V39.6893ZM48.6556 37.3519C48.6712 38.793 47.9616 40.1361 46.7889 40.886C42.149 43.7305 36.8718 45.2296 31.4983 45.2296C26.1247 45.2296 20.848 43.7305 16.2076 40.886C15.035 40.136 14.3253 38.793 14.3409 37.3519V25.2659L28.9265 31.7426C30.571 32.4686 32.4246 32.4686 34.0691 31.7426L48.6546 25.2659L48.6556 37.3519ZM59.5534 17.4183L33.0418 29.1897C32.0551 29.6254 30.9425 29.6254 29.9559 29.1897L3.44422 17.4183C3.12436 17.2759 2.87072 17.0068 2.73876 16.6692C2.60655 16.3318 2.60655 15.9533 2.73876 15.616C2.87073 15.2784 3.12438 15.0093 3.44422 14.8669L29.9559 3.09551C30.9425 2.65931 32.0551 2.65931 33.0418 3.09551L59.5534 14.8669C59.8733 15.0093 60.1269 15.2784 60.2589 15.616C60.3911 15.9534 60.3911 16.3319 60.2589 16.6692C60.1269 17.0068 59.8733 17.2759 59.5534 17.4183Z" fill="#7E1BC3"/>
</g>
<defs>
<filter id="filter0_d_334_441" x="0" y="0" width="65" height="52" filterUnits="userSpaceOnUse" color-interpolation-filters="sRGB">
<feFlood flood-opacity="0" result="BackgroundImageFix"/>
<feColorMatrix in="SourceAlpha" type="matrix" values="0 0 0 0 0 0 0 0 0 0 0 0 0 0 0 0 0 0 127 0" result="hardAlpha"/>
<feOffset dx="2" dy="4"/>
<feComposite in2="hardAlpha" operator="out"/>
<feColorMatrix type="matrix" values="0 0 0 0 1 0 0 0 0 0.611765 0 0 0 0 0.466667 0 0 0 1 0"/>
<feBlend mode="normal" in2="BackgroundImageFix" result="effect1_dropShadow_334_441"/>
<feBlend mode="normal" in="SourceGraphic" in2="effect1_dropShadow_334_441" result="shape"/>
</filter>
</defs>
</svg>
