<svg width="30" height="20" viewBox="0 0 30 20" fill="none" xmlns="http://www.w3.org/2000/svg">
<path fill-rule="evenodd" clip-rule="evenodd" d="M2.50732 0.000163578H27.4927C28.8697 0.000163578 30 1.08506 30 2.42466V17.5754C30 18.9111 28.8737 19.9999 27.4927 19.9999L2.50732 20C1.12596 20 7.03356e-08 18.9109 7.03356e-08 17.5755V2.42449C-0.000325549 1.08489 1.12998 0 2.50732 0V0.000163578ZM27.9506 3.0956L16.8402 11.9851C15.7637 12.8465 14.2359 12.8462 13.1592 11.9851L2.04913 3.0956V17.5755C2.04913 17.8169 2.25752 18.0182 2.50696 18.0182H27.4923C27.7421 18.0182 27.9501 17.817 27.9501 17.5755V3.0956H27.9506ZM3.86881 1.98196L14.4646 10.4598C14.78 10.7122 15.2198 10.7122 15.5352 10.4598L26.1309 1.98196H3.86881Z" fill="#7E1CC4"/>
</svg>
