<svg width="70" height="20" viewBox="0 0 70 20" fill="none" xmlns="http://www.w3.org/2000/svg">
<g id="Group" filter="url(#filter0_d_334_479)">
<path id="Vector" d="M8.44321 15.6482C3.8624 15.6482 0 12.2152 0 7.96446C0 3.71404 3.77235 0.280762 8.44321 0.280762C13.1138 0.280762 16.8864 3.71377 16.8864 7.96446C16.8864 12.2149 13.1138 15.6482 8.44321 15.6482ZM8.44321 2.89649C5.38921 2.89649 2.87443 5.18539 2.87443 7.96432C2.87443 10.7436 5.38958 13.0322 8.44321 13.0322C11.4972 13.0322 14.012 10.7433 14.012 7.96432C14.012 5.18505 11.587 2.89649 8.44321 2.89649Z" fill="#7E1BC3"/>
<path id="Vector_2" d="M33.683 15.6482C29.1021 15.6482 25.2397 12.2152 25.2397 7.96446C25.2397 3.71404 29.0121 0.280762 33.683 0.280762C38.3535 0.280762 42.1262 3.71377 42.1262 7.96446C42.1262 12.2149 38.2637 15.6482 33.683 15.6482ZM33.683 2.89649C30.629 2.89649 28.1142 5.18539 28.1142 7.96432C28.1142 10.7436 30.6293 13.0322 33.683 13.0322C36.737 13.0322 39.2517 10.7433 39.2517 7.96432C39.2517 5.18505 36.7369 2.89649 33.683 2.89649Z" fill="#7E1BC3"/>
<path id="Vector_3" d="M58.9232 15.6482C54.3424 15.6482 50.48 12.2152 50.48 7.96446C50.48 3.71404 54.2523 0.280762 58.9232 0.280762C63.5938 0.280762 67.3664 3.71377 67.3664 7.96446C67.3664 12.2149 63.5039 15.6482 58.9232 15.6482ZM58.9232 2.89649C55.8692 2.89649 53.3544 5.18539 53.3544 7.96432C53.3544 10.7436 55.8696 13.0322 58.9232 13.0322C61.9772 13.0322 64.492 10.7433 64.492 7.96432C64.4923 5.18505 61.9771 2.89649 58.9232 2.89649Z" fill="#7E1BC3"/>
</g>
<defs>
<filter id="filter0_d_334_479" x="0" y="0.280762" width="69.3662" height="19.3672" filterUnits="userSpaceOnUse" color-interpolation-filters="sRGB">
<feFlood flood-opacity="0" result="BackgroundImageFix"/>
<feColorMatrix in="SourceAlpha" type="matrix" values="0 0 0 0 0 0 0 0 0 0 0 0 0 0 0 0 0 0 127 0" result="hardAlpha"/>
<feOffset dx="2" dy="4"/>
<feComposite in2="hardAlpha" operator="out"/>
<feColorMatrix type="matrix" values="0 0 0 0 1 0 0 0 0 0.611765 0 0 0 0 0.466667 0 0 0 1 0"/>
<feBlend mode="normal" in2="BackgroundImageFix" result="effect1_dropShadow_334_479"/>
<feBlend mode="normal" in="SourceGraphic" in2="effect1_dropShadow_334_479" result="shape"/>
</filter>
</defs>
</svg>
