<svg xmlns="http://www.w3.org/2000/svg" xmlns:xlink="http://www.w3.org/1999/xlink" version="1.1" width="179.32813pt" height="213.09326pt" viewBox="0 0 179.32813 213.09326">
<defs>
<mask id="mask_0">
<g>
<clipPath id="clip_1">
<path transform="matrix(1,0,0,-1,0,213.09326)" d="M0 0H179.32813V213.09326H0Z"/>
</clipPath>
<g clip-path="url(#clip_1)">
<path transform="matrix(-.708613,-.705598,-.705598,.708613,256.2354,70.119647)" d="M0 222.34447 52.998567 240.64063 121.984699 40.808229 68.98613 22.51207 0 222.34447Z" fill="#d9d9d9"/>
</g>
</g>
"/>
</mask>
<clipPath id="clip_2">
<path transform="matrix(1,0,0,-1,0,213.09326)" d="M0 0H179.32813V213.09326H0Z"/>
</clipPath>
</defs>
<g>
<g mask="url(#mask_0)">
<g>
<g clip-path="url(#clip_2)">
<path transform="matrix(.184291,-.982872,-.982872,-.184291,862.9998,579.1425)" d="M537.7145 648.58139 536.96078 644.653 537.7145 648.58139ZM8.470543 732.953C10.090458 734.4551 10.186 736.9859 8.683944 738.60586 7.181888 740.2257 4.651031 740.3213 3.031116 738.8192L8.470543 732.953ZM15.128594 749.5236C13.443892 748.0946 13.236615 745.57046 14.665627 743.88577 16.094639 742.20108 18.618802 741.9937 20.303503 743.4227L15.128594 749.5236ZM32.525175 753.406C34.260885 754.77267 34.560098 757.28756 33.19349 759.02328 31.826882 760.759 29.311959 761.05819 27.576252 759.6916L32.525175 753.406ZM40.428907 769.4542C38.646989 768.14846 38.261 765.6454 39.56678 763.86349 40.87256 762.08157 43.375635 761.69558 45.15755 763.00137L40.428907 769.4542ZM58.08453 772.1397C59.90992 773.38406 60.381 775.8725 59.136716 777.6979 57.892435 779.52328 55.40397 779.9943 53.57858 778.75009L58.08453 772.1397ZM67.036 787.58859C65.1688 786.4079 64.612209 783.9372 65.79281 782.06997 66.97342 780.20278 69.44416 779.6462 71.31137 780.8268L67.036 787.58859ZM84.85733 789.06088C86.76523 790.1745 87.4091 792.62399 86.29545 794.53189 85.1818 796.43978 82.73235 797.0836 80.824459 795.97L84.85733 789.06088ZM94.894359 803.84219C92.94685 802.79928 92.21349 800.3751 93.25635 798.4276 94.2992 796.4801 96.72336 795.74679 98.67086 796.7896L94.894359 803.84219ZM112.74832 803.9872C114.7343 804.9548 115.55989 807.3491 114.59233 809.3351 113.62477 811.32107 111.23045 812.14669 109.24447 811.1791L112.74832 803.9872ZM123.90353 817.9629C121.88029 817.07589 120.95918 814.7166 121.84619 812.69338 122.7332 810.67019 125.09242 809.749 127.11567 810.63607L123.90353 817.9629ZM141.72769 816.68099C143.78655 817.4819 144.80635 819.8001 144.00547 821.85897 143.20459 823.91787 140.88632 824.9376 138.82746 824.1367L141.72769 816.68099ZM153.99257 829.6553C151.90024 828.9464 150.7787 826.6756 151.48754 824.5833 152.19638 822.49099 154.46718 821.36947 156.55951 822.07827L153.99257 829.6553ZM171.6236 826.7959C173.74674 827.4063 174.97306 829.6223 174.36264 831.7454 173.75225 833.8685 171.53627 835.09487 169.41313 834.48446L171.6236 826.7959ZM185.06311 838.574C182.91257 838.06857 181.57897 835.9154 182.08443 833.7649 182.58988 831.6144 184.74298 830.28079 186.89353 830.7862L185.06311 838.574ZM202.33948 834.00247C204.51319 834.39657 205.95587 836.4781 205.5618 838.65188 205.16774 840.82559 203.08615 842.26828 200.91245 841.87417L202.33948 834.00247ZM216.91748 844.33609C214.72573 844.05947 213.17319 842.0584 213.4498 839.8667 213.72641 837.6749 215.72742 836.1224 217.91916 836.399L216.91748 844.33609ZM233.58336 837.9354C235.78714 838.08926 237.44899 840.0004 237.29521 842.20419 237.14142 844.40798 235.23024 846.0698 233.02646 845.916L233.58336 837.9354ZM249.2091 846.5789C247.00012 846.55258 245.23078 844.7405 245.25714 842.5315 245.28353 840.3225 247.09563 838.55319 249.30461 838.5795L249.2091 846.5789ZM265.0324 838.30337C267.23908 838.199 269.11256 839.9032 269.21696 842.10989 269.32133 844.3165 267.61708 846.19 265.4104 846.2944L265.0324 838.30337ZM281.57087 845.04257C279.37449 845.27957 277.40187 843.6911 277.1649 841.4947 276.92793 839.29837 278.51637 837.3257 280.71275 837.08877L281.57087 845.04257ZM296.68843 834.8571C298.8653 834.4809 300.93498 835.9406 301.31117 838.1175 301.68739 840.2944 300.22764 842.3641 298.05076 842.74026L296.68843 834.8571ZM314.3881 839.29586C312.24598 839.8358 310.0717 838.53707 309.53169 836.39498 308.99168 834.2528 310.29045 832.07858 312.43257 831.5385L314.3881 839.29586ZM327.7549 826.94009C329.83818 826.20498 332.1229 827.29788 332.85798 829.3811 333.59306 831.46438 332.50013 833.7491 330.41688 834.4842L327.7549 826.94009ZM346.0648 827.98898C344.0762 828.95126 341.6841 828.1192 340.72187 826.1306 339.75965 824.1421 340.59165 821.74996 342.5802 820.7877L346.0648 827.98898ZM356.39988 813.00326C358.25059 811.79696 360.7288 812.3194 361.93507 814.17019 363.14134 816.0209 362.61888 818.4991 360.76817 819.7053L356.39988 813.00326ZM374.34046 809.488C372.66978 810.93338 370.1437 810.75076 368.6983 809.0801 367.25294 807.4094 367.43556 804.88339 369.10624 803.4379L374.34046 809.488ZM380.42829 792.2603C381.89915 790.61209 384.4277 790.4682 386.076 791.939 387.7243 793.4099 387.86814 795.9385 386.39729 797.5868L380.42829 792.2603ZM396.89796 784.4045C395.61207 786.2008 393.11347 786.6146 391.3171 785.3288 389.52076 784.0429 389.10694 781.5443 390.3928 779.7479L396.89796 784.4045ZM399.24079 766.2594C400.38746 764.3712 402.84776 763.77 404.73597 764.91677 406.6242 766.0634 407.22535 768.5237 406.07868 770.4119L399.24079 766.2594ZM414.36845 756.03158C413.2974 757.9637 410.86286 758.66177 408.9307 757.59078 406.99858 756.5197 406.30049 754.08517 407.37153 752.153L414.36845 756.03158ZM415.2713 737.7466C416.3363 735.81118 418.7687 735.1055 420.70417 736.17056 422.63963 737.2356 423.34526 739.66799 422.2802 741.6034L415.2713 737.7466ZM430.33338 727.42178C429.2056 729.3213 426.75144 729.947 424.85185 728.8192 422.95228 727.69149 422.32658 725.2373 423.45436 723.3377L430.33338 727.42178ZM432.4181 709.2451C433.67027 707.4252 436.16075 706.96487 437.98075 708.21707 439.80073 709.4692 440.26106 711.95968 439.00889 713.77969L432.4181 709.2451ZM448.69984 700.9991C447.27763 702.6896 444.75434 702.907 443.06388 701.4848 441.3734 700.0626 441.15596 697.5393 442.57817 695.8488L448.69984 700.9991ZM454.18739 683.5666C455.7989 682.05557 458.33024 682.1369 459.8413 683.7484 461.35243 685.35989 461.27104 687.89126 459.65956 689.40237L454.18739 683.5666ZM471.95216 679.25656C470.16255 680.55178 467.6618 680.151 466.36656 678.3614 465.07133 676.5718 465.47209 674.07107 467.26167 672.7758L471.95216 679.25656ZM481.50633 663.7502C483.44013 662.6821 485.8736 663.384 486.94163 665.3178 488.00965 667.2516 487.3078 669.68508 485.374 670.7531L481.50633 663.7502ZM499.8339 663.79678C497.7947 664.64657 495.4528 663.6823 494.60304 661.6431 493.75328 659.604 494.7175 657.262 496.75666 656.4123L499.8339 663.79678ZM512.5127 650.7151C514.622 650.0586 516.8642 651.2364 517.5206 653.3457 518.1771 655.4551 516.9993 657.6972 514.88998 658.35366L512.5127 650.7151ZM530.42306 654.1949C528.2691 654.6855 526.12527 653.33706 525.63467 651.1831 525.14407 649.0291 526.49246 646.88528 528.6464 646.39468L530.42306 654.1949ZM545.2386 643.188C547.41928 642.8344 549.4737 644.31558 549.8273 646.4962 550.18087 648.6769 548.6997 650.73129 546.51907 651.08486L545.2386 643.188ZM562.63 648.94686C560.4326 649.17416 558.467 647.577 558.23977 645.3796 558.01248 643.1822 559.60958 641.21658 561.80697 640.98928L562.63 648.94686ZM578.4681 639.7512C580.6749 639.65127 582.54507 641.35916 582.6451 643.56607 582.7451 645.7729 581.0372 647.643 578.83029 647.74307L578.4681 639.7512ZM595.0774 647.47457C592.8684 647.44778 591.0994 645.63528 591.1263 643.4263 591.15316 641.2173 592.96566 639.4483 595.17459 639.47518L595.0774 647.47457ZM611.8994 640.155C614.1033 640.30728 615.76657 642.2172 615.6143 644.4211 615.46218 646.625 613.5522 648.2882 611.34829 648.13607L611.8994 640.155ZM627.5474 649.71C625.3554 649.43557 623.8009 647.4361 624.0754 645.2441 624.3498 643.05209 626.3493 641.49758 628.5413 641.77206L627.5474 649.71ZM645.0461 644.296C647.2201 644.6887 648.6641 646.76937 648.2715 648.9433 647.8788 651.1173 645.79818 652.56137 643.6242 652.1687L645.0461 644.296ZM659.55886 655.48336C657.4085 654.9771 656.0757 652.8235 656.5819 650.67318 657.08816 648.5228 659.2417 647.18997 661.392 647.69619L659.55886 655.48336ZM677.559 651.94107C679.68087 652.55587 680.9025 654.7744 680.2877 656.89627 679.67288 659.01809 677.45437 660.2398 675.3325 659.62496L677.559 651.94107ZM690.85208 664.53909C688.7628 663.82119 687.65109 661.54556 688.36898 659.4563 689.0868 657.36709 691.3624 656.2553 693.45169 656.9732L690.85208 664.53909ZM709.1107 662.77359C711.16378 663.58938 712.1666 665.91506 711.3508 667.968 710.53506 670.021 708.2094 671.0239 706.15646 670.20809L709.1107 662.77359ZM721.1628 676.5735C719.1491 675.6649 718.25326 673.296 719.1618 671.28237 720.0704 669.2687 722.4393 668.3728 724.45297 669.2814L721.1628 676.5735ZM739.51016 676.4824C741.48159 677.47927 742.27169 679.88558 741.27487 681.857 740.27798 683.8284 737.8717 684.6185 735.90029 683.6217L739.51016 676.4824ZM750.2753 691.28518C748.34878 690.2042 747.66317 687.7661 748.7441 685.83956 749.825 683.9129 752.2631 683.2273 754.18978 684.3082L750.2753 691.28518ZM768.5455 692.77108C770.42416 693.93338 771.00497 696.3985 769.84268 698.27719 768.68038 700.1559 766.2152 700.7366 764.33657 699.57437L768.5455 692.77108ZM778.02096 708.4528C776.1942 707.2105 775.72048 704.72256 776.96279 702.8958 778.2051 701.0691 780.693 700.59536 782.5198 701.83767L778.02096 708.4528ZM796.14498 711.5608C797.91287 712.8855 798.27206 715.3926 796.9473 717.1604 795.6226 718.9283 793.11557 719.28756 791.34768 717.9628L796.14498 711.5608ZM804.1113 728.055C802.4188 726.63528 802.1977 724.11227 803.61746 722.41976 805.0372 720.72726 807.5602 720.5061 809.2527 721.9259L804.1113 728.055ZM0 730.3695C2.856705 727.56967 2.856594 727.5695 2.85649 727.5694 2.856465 727.5694 2.856369 727.5693 2.85632 727.5692 2.856222 727.56918 2.856154 727.5691 2.856116 727.56906 2.85604 727.569 2.856085 727.569 2.85625 727.56918 2.85658 727.5695 2.857391 727.5703 2.858684 727.57168 2.861268 727.5743 2.865774 727.57888 2.872198 727.5854 2.885045 727.5984 2.90556 727.6192 2.933697 727.6476 2.98997 727.70437 3.076728 727.7916 3.193606 727.90829 3.427364 728.1415 3.781582 728.4923 4.253337 728.9522 5.196878 729.8721 6.610404 731.2282 8.470543 732.953L3.031116 738.8192C1.119711 737.0469-.342178 735.64468-1.331166 734.68057-1.825675 734.1984-2.202 733.8258-2.457218 733.5711-2.584829 733.4438-2.682168 733.34597-2.748869 733.2786-2.78222 733.24496-2.807912 733.21896-2.8259 733.2007-2.834894 733.1915-2.841961 733.1844-2.847098 733.17916-2.849666 733.1765-2.851751 733.17446-2.853352 733.1728-2.854153 733.17196-2.854833 733.17129-2.855392 733.1707-2.855671 733.1704-2.85592 733.17019-2.856139 733.1699-2.856248 733.1698-2.85639 733.1697-2.856445 733.1696-2.856578 733.1695-2.856705 733.1694 0 730.3695ZM20.303503 743.4227C23.87555 746.45266 27.960356 749.8119 32.525175 753.406L27.576252 759.6916C22.930535 756.03378 18.77039 752.6127 15.128594 749.5236L20.303503 743.4227ZM45.15755 763.00137C49.21257 765.97286 53.5263 769.0326 58.08453 772.1397L53.57858 778.75009C48.941705 775.5893 44.55373 772.47689 40.428907 769.4542L45.15755 763.00137ZM71.31137 780.8268C75.655429 783.5735 80.17385 786.3271 84.85733 789.06088L80.824459 795.97C76.055828 793.1865 71.45655 790.3836 67.036 787.58859L71.31137 780.8268ZM98.67086 796.7896C103.23546 799.2339 107.93032 801.6399 112.74832 803.9872L109.24447 811.1791C104.33109 808.7853 99.54533 806.33267 94.894359 803.84219L98.67086 796.7896ZM127.11567 810.63607C131.88512 812.727 136.7578 814.74777 141.72769 816.68099L138.82746 824.1367C133.74881 822.1612 128.77214 820.0973 123.90353 817.9629L127.11567 810.63607ZM156.55951 822.07827C161.49906 823.75167 166.52217 825.3292 171.6236 826.7959L169.41313 834.48446C164.18793 832.98226 159.04596 831.36727 153.99257 829.6553L156.55951 822.07827ZM186.89353 830.7862C191.97544 831.98068 197.12566 833.05728 202.33948 834.00247L200.91245 841.87417C195.55934 840.9037 190.2746 839.7989 185.06311 838.574L186.89353 830.7862ZM217.91916 836.399C223.08669 837.05117 228.30951 837.56747 233.58336 837.9354L233.02646 845.916C227.60019 845.5374 222.22902 845.0064 216.91748 844.33609L217.91916 836.399ZM249.30461 838.5795C254.50434 838.6416 259.7482 838.5533 265.0324 838.30337L265.4104 846.2944C259.96546 846.55197 254.56365 846.6429 249.2091 846.5789L249.30461 838.5795ZM280.71275 837.08877C283.31806 836.8076 285.9321 836.4858 288.55445 836.12179L289.65437 844.0458C286.95106 844.421 284.2564 844.7528 281.57087 845.04257L280.71275 837.08877ZM288.55445 836.12179C291.33723 835.7355 294.04768 835.3135 296.68843 834.8571L298.05076 842.74026C295.32035 843.2121 292.52235 843.64767 289.65437 844.0458L288.55445 836.12179ZM312.43257 831.5385C317.8711 830.16757 322.96794 828.62918 327.7549 826.94009L330.41688 834.4842C325.38667 836.2591 320.0535 837.8676 314.3881 839.29586L312.43257 831.5385ZM342.5802 820.7877C347.55949 818.37838 352.14787 815.7746 356.39988 813.00326L360.76817 819.7053C356.22917 822.66378 351.34535 825.4338 346.0648 827.98898L342.5802 820.7877ZM369.10624 803.4379C373.20375 799.89297 376.95216 796.1558 380.42829 792.2603L386.39729 797.5868C382.71003 801.7188 378.71788 805.70089 374.34046 809.488L369.10624 803.4379ZM390.3928 779.7479C393.5221 775.37637 396.44169 770.86868 399.24079 766.2594L406.07868 770.4119C403.20088 775.15078 400.17024 779.8331 396.89796 784.4045L390.3928 779.7479ZM407.37153 752.153C410.028 747.3606 412.59754 742.6056 415.2713 737.7466L422.2802 741.6034C419.65989 746.3653 417.01814 751.25149 414.36845 756.03158L407.37153 752.153ZM423.45436 723.3377C426.27214 718.5915 429.23173 713.87649 432.4181 709.2451L439.00889 713.77969C435.9473 718.2296 433.08433 722.7881 430.33338 727.42178L423.45436 723.3377ZM442.57817 695.8488C446.1359 691.62 449.98014 687.5118 454.18739 683.5666L459.65956 689.40237C455.70118 693.1141 452.07237 696.9905 448.69984 700.9991L442.57817 695.8488ZM467.26167 672.7758C471.6589 669.59329 476.38999 666.57589 481.50633 663.7502L485.374 670.7531C480.54197 673.4218 476.08567 676.26486 471.95216 679.25656L467.26167 672.7758ZM496.75666 656.4123C501.69676 654.3537 506.93876 652.44979 512.5127 650.7151L514.88998 658.35366C509.54335 660.01766 504.5354 661.8376 499.8339 663.79678L496.75666 656.4123ZM528.6464 646.39468C531.34896 645.7791 534.11959 645.1982 536.96078 644.653L538.4682 652.50979C535.7147 653.038 533.03396 653.6002 530.42306 654.1949L528.6464 646.39468ZM536.96078 644.653C539.7318 644.12136 542.4913 643.6335 545.2386 643.188L546.51907 651.08486C543.8473 651.51809 541.1635 651.99258 538.4682 652.50979L536.96078 644.653ZM561.80697 640.98928C567.4187 640.4088 572.97378 640.00027 578.4681 639.7512L578.83029 647.74307C573.48776 647.98519 568.0864 648.38247 562.63 648.94686L561.80697 640.98928ZM595.17459 639.47518C600.82327 639.5438 606.3997 639.77529 611.8994 640.155L611.34829 648.13607C605.9966 647.7665 600.5715 647.5413 595.0774 647.47457L595.17459 639.47518ZM628.5413 641.77206C634.13436 642.4723 639.6377 643.3192 645.0461 644.296L643.6242 652.1687C638.354 651.2168 632.9934 650.3919 627.5474 649.71L628.5413 641.77206ZM661.392 647.69619C666.895 648.99166 672.2861 650.41317 677.559 651.94107L675.3325 659.62496C670.18557 658.13357 664.92568 656.7467 659.55886 655.48336L661.392 647.69619ZM693.45169 656.9732C698.81539 658.81619 704.03756 660.75759 709.1107 662.77359L706.15646 670.20809C701.19607 668.23696 696.0921 666.33956 690.85208 664.53909L693.45169 656.9732ZM724.45297 669.2814C729.66287 671.632 734.6852 674.0428 739.51016 676.4824L735.90029 683.6217C731.17636 681.2331 726.26058 678.87356 721.1628 676.5735L724.45297 669.2814ZM754.18978 684.3082C759.255 687.15017 764.0452 689.98696 768.5455 692.77108L764.33657 699.57437C759.9285 696.8473 755.2365 694.0686 750.2753 691.28518L754.18978 684.3082ZM782.5198 701.83767C787.61276 705.3012 792.16616 708.57937 796.14498 711.5608L791.34768 717.9628C787.46066 715.0501 783.0067 711.8435 778.02096 708.4528L782.5198 701.83767ZM809.2527 721.9259C811.30307 723.6458 812.87106 725.01748 813.9326 725.96499 814.4635 726.4388 814.8678 726.80667 815.1426 727.059 815.28 727.18527 815.385 727.2826 815.45736 727.3499 815.49349 727.38357 815.5214 727.40969 815.54116 727.42819 815.551 727.43746 815.5588 727.44479 815.5645 727.45016 815.5674 727.4529 815.56979 727.4551 815.5716 727.4568 815.5725 727.45767 815.5733 727.45846 815.574 727.45907 815.5743 727.45938 815.5746 727.45968 815.5749 727.4599 815.575 727.46 815.5752 727.4602 815.57528 727.4602 815.5754 727.4604 815.57559 727.4606 812.83 730.3695 810.0845 733.27847 810.0846 733.27859 810.0848 733.2787 810.0848 733.27877 810.0849 733.2789 810.08499 733.27896 810.08517 733.27908 810.0852 733.2792 810.08529 733.27926 810.08547 733.27938 810.08547 733.27938 810.0853 733.27926 810.08517 733.27908 810.08438 733.2783 810.0831 733.27719 810.0806 733.27487 810.07608 733.2705 810.06948 733.26437 810.0563 733.25198 810.0349 733.232 810.0054 733.20449 809.94638 733.1495 809.85476 733.0646 809.731 732.9509 809.48348 732.72366 809.10739 732.3813 808.6055 731.9334 807.60189 731.0376 806.0958 729.7197 804.1113 728.055L809.2527 721.9259Z" fill="#ff9c77"/>
</g>
</g>
</g>
</g>
</svg>
