<svg xmlns="http://www.w3.org/2000/svg" xmlns:xlink="http://www.w3.org/1999/xlink" version="1.1" width="154.39258pt" height="149.90186pt" viewBox="0 0 154.39258 149.90186">
<defs>
<mask id="mask_0">
<g>
<clipPath id="clip_1">
<path transform="matrix(1,0,0,-1,0,149.90186)" d="M0 0H154.39258V149.90186H0Z"/>
</clipPath>
<g clip-path="url(#clip_1)">
<path transform="matrix(.629031,.77738,.77738,-.629031,-18.215989,92.30973)" d="M0 129.47455 32.329786 146.74903 88.990139 40.707216 56.66035 23.432732 0 129.47455Z" fill="#d9d9d9"/>
</g>
</g>
"/>
</mask>
<clipPath id="clip_2">
<path transform="matrix(1,0,0,-1,0,149.90186)" d="M0 0H154.39258V149.90186H0Z"/>
</clipPath>
</defs>
<g>
<g mask="url(#mask_0)">
<g>
<g clip-path="url(#clip_2)">
<path transform="matrix(-.288418,.957505,-.957505,-.288418,1757.7869,2.5798646)" d="M1074.306 1496.0234 1074.1292 1492.0274 1074.306 1496.0234ZM8.601274 1531.5322C10.759776 1532.0026 12.128352 1534.1336 11.658073 1536.2921 11.187795 1538.4506 9.056746 1539.8192 6.898244 1539.3489L8.601274 1531.5322ZM22.7423 1542.6797C20.577597 1542.2388 19.180142 1540.1266 19.620995 1537.9619 20.06185 1535.7973 22.174073 1534.3998 24.338776 1534.8406L22.7423 1542.6797ZM40.117658 1537.9685C42.286706 1538.3875 43.705427 1540.4855 43.286458 1542.6546 42.867494 1544.8236 40.769495 1546.2423 38.600446 1545.8234L40.117658 1537.9685ZM54.581975 1548.8363C52.40934 1548.4364 50.972288 1546.3508 51.372224 1544.1782 51.772165 1542.0056 53.857648 1540.5686 56.03028 1540.9685L54.581975 1548.8363ZM71.89779 1543.8235C74.07353 1544.2062 75.52711 1546.2802 75.14443 1548.4559 74.76176 1550.6316 72.68775 1552.0852 70.51201 1551.7025L71.89779 1543.8235ZM86.4092 1554.4373C84.23068 1554.0708 82.76178 1552.0076 83.12831 1549.8291 83.49484 1547.6505 85.55802 1546.1817 87.73654 1546.5482L86.4092 1554.4373ZM103.63097 1549.1642C105.81203 1549.5153 107.2955 1551.568 106.944408 1553.749 106.5933 1555.93 104.54058 1557.4136 102.35952 1557.0625L103.63097 1549.1642ZM118.343128 1559.5792C116.15972 1559.243 114.662258 1557.2005 114.99844 1555.0171 115.33463 1552.8336 117.377178 1551.3362 119.560588 1551.6724L118.343128 1559.5792ZM135.5229 1554.0757C137.7085 1554.3973 139.21952 1556.4298 138.89785 1558.6155 138.57617 1560.801 136.54364 1562.312 134.35805 1561.9904L135.5229 1554.0757ZM150.40937 1564.2992C148.22171 1563.9918 146.6975 1561.9691 147.00492 1559.7815 147.31235 1557.5939 149.33499 1556.0696 151.52265 1556.3771L150.40937 1564.2992ZM167.47022 1558.5662C169.65978 1558.8596 171.19686 1560.8724 170.9034 1563.062 170.60993 1565.2516 168.59705 1566.7887 166.40749 1566.4953L167.47022 1558.5662ZM182.38939 1568.586C180.19803 1568.3064 178.64832 1566.3032 178.92801 1564.1118 179.20772 1561.9204 181.2109 1560.3707 183.40227 1560.6505L182.38939 1568.586ZM199.38477 1562.6397C201.57784 1562.9058 203.14002 1564.8992 202.874 1567.0923 202.60797 1569.2853 200.61449 1570.8475 198.42142 1570.5814L199.38477 1562.6397ZM214.5123 1572.4826C212.31763 1572.2302 210.74309 1570.2465 210.99549 1568.0518 211.24787 1565.857 213.23162 1564.2826 215.42629 1564.5349L214.5123 1572.4826ZM231.50354 1566.3334C233.69974 1566.5722 235.28653 1568.5462 235.04775 1570.7423 234.80895 1572.9385 232.835 1574.5253 230.63881 1574.2865L231.50354 1566.3334ZM246.64511 1575.9772C244.44748 1575.752 242.84864 1573.7877 243.07396 1571.5901 243.29929 1569.3925 245.26348 1567.7936 247.46109 1568.0189L246.64511 1575.9772ZM263.49909 1569.6135C265.69807 1569.8255 267.30897 1571.7797 267.09715 1573.9786 266.88536 1576.1776 264.93104 1577.7886 262.73207 1577.5767L263.49909 1569.6135ZM278.8996 1579.0836C276.69938 1578.8854 275.07646 1576.9412 275.27467 1574.7409 275.47288 1572.5407 277.4172 1570.9177 279.61744 1571.116L278.8996 1579.0836ZM295.6221 1572.5083C297.8235 1572.693 299.45835 1574.6273 299.27366 1576.8287 299.08897 1579.0302 297.15464 1580.665 294.95323 1580.4802L295.6221 1572.5083ZM311.06083 1581.7816C308.8583 1581.6106 307.21156 1579.6864 307.38264 1577.4839 307.55375 1575.2814 309.4779 1573.6347 311.68043 1573.8057L311.06083 1581.7816ZM327.82798 1575.0095C330.0315 1575.1669 331.69026 1577.0807 331.5329 1579.2842 331.37553 1581.4878 329.46168 1583.1465 327.25813 1582.9891L327.82798 1575.0095ZM343.32139 1584.0862C341.1169 1583.9425 339.4463 1582.039 339.58998 1579.8345 339.7336 1577.63 341.63716 1575.9595 343.8416 1576.103L343.32139 1584.0862ZM359.9416 1577.1016C362.1469 1577.2315 363.82945 1579.1244 363.69963 1581.3297 363.5698 1583.535 361.67683 1585.2175 359.4715 1585.0878L359.9416 1577.1016ZM375.64533 1585.9885C373.4392 1585.8727 371.74473 1583.9904 371.86058 1581.7842 371.9764 1579.5781 373.85874 1577.8837 376.06483 1577.9995L375.64533 1585.9885ZM392.12153 1578.7916C394.3283 1578.8934 396.03474 1580.7649 395.9329 1582.9717 395.83106 1585.1785 393.95954 1586.8849 391.75276 1586.7831L392.12153 1578.7916ZM407.95729 1587.4786C405.74986 1587.391 404.03144 1585.5305 404.11906 1583.3231 404.20668 1581.1157 406.06715 1579.3973 408.27458 1579.4849L407.95729 1587.4786ZM424.3439 1580.0708C426.55183 1580.1442 428.28224 1581.9935 428.20887 1584.2014 428.13554 1586.4094 426.2862 1588.1398 424.07829 1588.0664L424.3439 1580.0708ZM440.2505 1588.5508C438.0421 1588.492 436.29966 1586.6539 436.35856 1584.4456 436.41746 1582.2373 438.25544 1580.4948 440.46379 1580.5537L440.2505 1588.5508ZM456.5911 1580.9306C458.7998 1580.9749 460.55439 1582.8013 460.51008 1585.01 460.46577 1587.2188 458.63935 1588.9733 456.43067 1588.929L456.5911 1580.9306ZM472.57505 1589.1991C470.3661 1589.1696 468.59938 1587.3549 468.62898 1585.1459 468.65855 1582.937 470.4732 1581.1703 472.68217 1581.1998L472.57505 1589.1991ZM488.84965 1581.3617C491.05873 1581.3764 492.83769 1583.1791 492.82307 1585.3881 492.80845 1587.5972 491.00575 1589.3762 488.79667 1589.3616L488.84965 1581.3617ZM504.91737 1589.4136C502.70823 1589.414 500.91703 1587.6234 500.91664 1585.4143 500.91624 1583.2051 502.70677 1581.414 504.9159 1581.4136L504.91737 1589.4136ZM521.07 1581.3547C523.2791 1581.339 525.08267 1583.1171 525.0983 1585.3262 525.1141 1587.5353 523.336 1589.3389 521.1269 1589.3545L521.07 1581.3547ZM537.2664 1589.1836C535.0575 1589.2147 533.2416 1587.4492 533.21047 1585.2404 533.1793 1583.0314 534.9448 1581.2155 537.15377 1581.1843L537.2664 1589.1836ZM553.28457 1580.8999C555.4932 1580.8532 557.3216 1582.6057 557.3684 1584.8143 557.41519 1587.023 555.66268 1588.8513 553.45407 1588.8982L553.28457 1580.8999ZM569.6127 1588.4979C567.4044 1588.5606 565.5635 1586.8213 565.50088 1584.613 565.43826 1582.4048 567.1776 1580.5639 569.38589 1580.5012L569.6127 1588.4979ZM585.65048 1579.98C587.85818 1579.901 589.7119 1581.6267 589.79098 1583.8345 589.86996 1586.0421 588.1443 1587.8959 585.9365 1587.9749L585.65048 1579.98ZM601.74606 1587.3478C599.539 1587.4442 597.67166 1585.7333 597.5752 1583.5263 597.4787 1581.3192 599.18966 1579.4518 601.39669 1579.3554L601.74606 1587.3478ZM617.3252 1578.5886C619.53128 1578.4722 621.414 1580.1663 621.53036 1582.3723 621.6467 1584.5784 619.9527 1586.4612 617.74667 1586.5775L617.3252 1578.5886ZM633.3702 1585.6769C631.16537 1585.8152 629.26589 1584.14 629.1275 1581.9352 628.98916 1579.7305 630.6643 1577.8309 632.8691 1577.6925L633.3702 1585.6769ZM648.8559 1576.5973C651.05899 1576.433 652.97799 1578.0858 653.1422 1580.2888 653.3064 1582.4918 651.6536 1584.4109 649.4506 1584.5751L648.8559 1576.5973ZM665.3332 1583.287C663.13259 1583.4807 661.19168 1581.8536 660.998 1579.6531 660.8044 1577.4524 662.4314 1575.5115 664.632 1575.3179L665.3332 1583.287ZM680.23678 1573.827C682.43417 1573.5996 684.39987 1575.1965 684.62728 1577.3939 684.8547 1579.5913 683.2577 1581.5571 681.0603 1581.7846L680.23678 1573.827ZM696.83816 1580.0114C694.6452 1580.2783 692.651 1578.7172 692.3839 1576.5242 692.1169 1574.3313 693.6781 1572.337 695.87106 1572.07L696.83816 1580.0114ZM711.59146 1569.9885C713.7781 1569.6743 715.8055 1571.1923 716.1197 1573.3789 716.43386 1575.5657 714.9159 1577.593 712.72927 1577.9072L711.59146 1569.9885ZM728.51718 1575.4389C726.3392 1575.8087 724.2738 1574.3429 723.90396 1572.1649 723.53408 1569.9869 724.9998 1567.9216 727.1778 1567.5518L728.51718 1575.4389ZM742.6303 1564.6932C744.7961 1564.2576 746.90499 1565.6602 747.3406 1567.8258 747.77627 1569.9916 746.3737 1572.1005 744.208 1572.5361L742.6303 1564.6932ZM759.767 1569.1238C757.61819 1569.6365 755.4606 1568.3102 754.9479 1566.1614 754.4352 1564.0126 755.76156 1561.855 757.91036 1561.3423L759.767 1569.1238ZM773.1732 1557.3706C775.2989 1556.7692 777.5097 1558.0048 778.1112 1560.1304 778.7127 1562.2561 777.4771 1564.4669 775.35147 1565.0684L773.1732 1557.3706ZM790.6821 1560.3594C788.58547 1561.0553 786.32168 1559.9198 785.62576 1557.8231 784.9298 1555.7265 786.06539 1553.4627 788.16207 1552.7667L790.6821 1560.3594ZM802.9165 1547.5127C804.982 1546.7291 807.2916 1547.7684 808.07516 1549.834 808.85867 1551.8995 807.81936 1554.2091 805.7538 1554.9926L802.9165 1547.5127ZM820.5822 1549.0905C818.54067 1549.9345 816.2014 1548.9636 815.3575 1546.9221 814.5135 1544.8805 815.4843 1542.5413 817.5259 1541.6973L820.5822 1549.0905ZM832.1177 1535.5706C834.1535 1534.7129 836.49917 1535.6681 837.3568 1537.7039 838.2145 1539.7398 837.25936 1542.0855 835.22348 1542.9431L832.1177 1535.5706ZM849.7968 1536.9285C847.74557 1537.7485 845.41787 1536.7505 844.5978 1534.6992 843.7777 1532.648 844.77578 1530.3202 846.8271 1529.5001L849.7968 1536.9285ZM861.81478 1523.8029C863.8943 1523.0575 866.18447 1524.1389 866.9299 1526.2185 867.67538 1528.2981 866.5938 1530.5883 864.5143 1531.3336L861.81478 1523.8029ZM879.32327 1526.3764C877.21377 1527.0324 874.97189 1525.8541 874.31588 1523.7446 873.65988 1521.6351 874.83816 1519.3932 876.9476 1518.7372L879.32327 1526.3764ZM892.35989 1514.3016C894.49508 1513.7349 896.6855 1515.0062 897.2523 1517.1414 897.8192 1519.2766 896.5478 1521.467 894.41268 1522.0338L892.35989 1514.3016ZM909.74508 1518.2782C907.5901 1518.7643 905.44906 1517.4113 904.963 1515.2562 904.477 1513.1013 905.82998 1510.9603 907.9849 1510.4743L909.74508 1518.2782ZM923.6517 1507.2117C925.8212 1506.7952 927.9176 1508.2163 928.3341 1510.3859 928.75057 1512.5554 927.32949 1514.6517 925.1599 1515.0682L923.6517 1507.2117ZM940.6834 1512.3126C938.50338 1512.67 936.4464 1511.1924 936.08908 1509.0123 935.7317 1506.8323 937.2092 1504.7754 939.3893 1504.418L940.6834 1512.3126ZM955.13137 1502.0271C957.319 1501.7196 959.3416 1503.2439 959.64907 1505.4315 959.9565 1507.6192 958.43228 1509.6419 956.2446 1509.9492L955.13137 1502.0271ZM971.79049 1507.9215C969.5973 1508.1867 967.60446 1506.6237 967.3393 1504.4306 967.07418 1502.2373 968.6371 1500.2445 970.83029 1499.9794L971.79049 1507.9215ZM986.58779 1498.2096C988.78506 1497.9807 990.75186 1499.5763 990.9807 1501.7736 991.2096 1503.9708 989.61398 1505.9376 987.4167 1506.1665L986.58779 1498.2096ZM1003.20657 1504.6388C1001.0062 1504.836 999.06259 1503.2124 998.8652 1501.0121 998.6678 1498.8118 1000.2915 1496.8682 1002.4918 1496.6708L1003.20657 1504.6388ZM1018.47689 1495.3396C1020.67947 1495.1697 1022.6028 1496.8175 1022.77267 1499.0202 1022.94259 1501.2228 1021.29476 1503.146 1019.09219 1503.3159L1018.47689 1495.3396ZM1034.6658 1502.2002C1032.4614 1502.3464 1030.5559 1500.6782 1030.4096 1498.4739 1030.2632 1496.2697 1031.9315 1494.364 1034.1358 1494.2177L1034.6658 1502.2002ZM1050.1437 1493.2339C1052.3494 1493.1089 1054.2388 1494.7954 1054.3639 1497.001 1054.4889 1499.2066 1052.8024 1501.096 1050.5968 1501.2211L1050.1437 1493.2339ZM1066.3156 1500.3972C1064.109 1500.5037 1062.2339 1498.8013 1062.1273 1496.5947 1062.0209 1494.3882 1063.7233 1492.5131 1065.9298 1492.4065L1066.3156 1500.3972ZM1082.3032 1491.6798C1084.5105 1491.5897 1086.3729 1493.306 1086.4629 1495.5133 1086.553 1497.7207 1084.8367 1499.583 1082.6294 1499.6731L1082.3032 1491.6798ZM1098.8163 1499.0675C1096.6084 1499.1427 1094.7577 1497.4137 1094.6825 1495.2059 1094.6074 1492.998 1096.3363 1491.1473 1098.5442 1491.0722L1098.8163 1499.0675ZM1114.8308 1490.573C1117.0391 1490.5127 1118.8782 1492.254 1118.9384 1494.4624 1118.9987 1496.6708 1117.2573 1498.5098 1115.049 1498.5701L1114.8308 1490.573ZM1131.2059 1498.1831C1128.9972 1498.2286 1127.1698 1496.4751 1127.1243 1494.2664 1127.0787 1492.0578 1128.8323 1490.2304 1131.0409 1490.1848L1131.2059 1498.1831ZM1147.3624 1489.9025C1149.5713 1489.8716 1151.3871 1491.6373 1151.418 1493.8462 1151.4487 1496.0552 1149.6831 1497.8709 1147.4743 1497.9017L1147.3624 1489.9025ZM1163.6517 1497.7289C1161.4426 1497.7453 1159.6386 1495.9677 1159.6222 1493.7586 1159.6058 1491.5494 1161.3834 1489.7454 1163.5925 1489.729L1163.6517 1497.7289ZM1179.8855 1489.6619C1182.0946 1489.6599 1183.8871 1491.4494 1183.8889 1493.6585 1183.8909 1495.8676 1182.1015 1497.6599 1179.8923 1497.6619L1179.8855 1489.6619ZM1196.1111 1497.7008C1193.902 1497.6884 1192.1212 1495.8873 1192.1337 1493.6782 1192.1463 1491.4691 1193.9472 1489.6885 1196.1563 1489.7009L1196.1111 1497.7008ZM1212.3845 1489.845C1214.5935 1489.8717 1216.3626 1491.6842 1216.3358 1493.8931 1216.3091 1496.102 1214.4967 1497.8712 1212.2877 1497.8445L1212.3845 1489.845ZM1228.5512 1498.0938C1226.3424 1498.0529 1224.5851 1496.229 1224.6261 1494.0203 1224.6671 1491.8115 1226.4909 1490.0542 1228.6996 1490.0952L1228.5512 1498.0938ZM1244.9235 1490.4483C1247.1318 1490.5033 1248.8776 1492.3383 1248.8224 1494.5468 1248.7673 1496.7551 1246.9324 1498.5009 1244.7239 1498.4457L1244.9235 1490.4483ZM1260.9513 1498.9026C1258.7433 1498.8334 1257.0094 1496.9873 1257.0786 1494.7792 1257.1478 1492.5712 1258.9939 1490.8373 1261.202 1490.9065L1260.9513 1498.9026ZM1277.4805 1491.4688C1279.6881 1491.5521 1281.4102 1493.4092 1281.3268 1495.6168 1281.2435 1497.8244 1279.3865 1499.5464 1277.1788 1499.4631L1277.4805 1491.4688ZM1293.3178 1500.1232C1291.1109 1500.026 1289.4005 1498.158 1289.4978 1495.9509 1289.5951 1493.744 1291.463 1492.0337 1293.67 1492.131L1293.3178 1500.1232ZM1309.9706 1492.9013C1312.177 1493.0126 1313.8754 1494.8914 1313.764 1497.0978 1313.6527 1499.3041 1311.7739 1501.0025 1309.5676 1500.8911L1309.9706 1492.9013ZM1325.7736 1501.7603C1323.568 1501.6349 1321.8816 1499.7454 1322.007 1497.5398 1322.1322 1495.3342 1324.0217 1493.6478 1326.2274 1493.7731L1325.7736 1501.7603ZM1342.4039 1494.7433C1344.6087 1494.8826 1346.2831 1496.7827 1346.1439 1498.9876 1346.0046 1501.1923 1344.1045 1502.8667 1341.8998 1502.7274L1342.4039 1494.7433ZM1358.1184 1503.8035C1355.9146 1503.6503 1354.2523 1501.7394 1354.4055 1499.5357 1354.5588 1497.3318 1356.4696 1495.6696 1358.6735 1495.8228L1358.1184 1503.8035ZM1374.928 1497.0054C1377.1307 1497.1727 1378.7808 1499.0941 1378.6134 1501.2969 1378.446 1503.4996 1376.5248 1505.1497 1374.3219 1504.9824L1374.928 1497.0054ZM1390.4607 1506.2603C1388.259 1506.0789 1386.6212 1504.147 1386.8027 1501.9453 1386.9841 1499.7435 1388.916 1498.1058 1391.1177 1498.2872L1390.4607 1506.2603ZM1407.2586 1499.6693C1409.459 1499.8649 1411.0844 1501.8071 1410.8888 1504.0077 1410.6932 1506.2081 1408.751 1507.8335 1406.5504 1507.638L1407.2586 1499.6693ZM1422.7643 1509.1318C1420.5652 1508.922 1418.9525 1506.9691 1419.1624 1504.77 1419.3723 1502.5708 1421.3252 1500.9583 1423.5243 1501.1681L1422.7643 1509.1318ZM1439.743 1502.7697C1441.9408 1502.994 1443.5405 1504.9574 1443.3163 1507.1552 1443.0919 1509.3529 1441.1284 1510.9526 1438.9307 1510.7283L1439.743 1502.7697ZM1455.0576 1512.4285C1452.8613 1512.1896 1451.2748 1510.2155 1451.5137 1508.0193 1451.7526 1505.8231 1453.7267 1504.2365 1455.9229 1504.4755L1455.0576 1512.4285ZM1472.0735 1506.2876C1474.2681 1506.5414 1475.8413 1508.5261 1475.5877 1510.7206 1475.3339 1512.9152 1473.3491 1514.4884 1471.1546 1514.2346L1472.0735 1506.2876ZM1487.2332 1516.1498C1485.0404 1515.881 1483.4808 1513.8854 1483.7496 1511.6928 1484.0186 1509.5 1486.014 1507.9404 1488.2068 1508.2092L1487.2332 1516.1498ZM1504.3347 1510.2445C1506.5255 1510.5289 1508.0709 1512.5354 1507.7866 1514.7261 1507.5022 1516.9169 1505.4957 1518.4623 1503.305 1518.178L1504.3347 1510.2445ZM1519.3798 1520.3239C1517.1912 1520.0234 1515.6604 1518.0057 1515.9607 1515.8171 1516.2611 1513.6286 1518.2788 1512.0978 1520.4674 1512.3982L1519.3798 1520.3239ZM1536.6072 1514.6752C1538.7935 1514.9922 1540.3088 1517.0215 1539.9918 1519.2078 1539.6748 1521.394 1537.6455 1522.9094 1535.4592 1522.5924L1536.6072 1514.6752ZM1551.5253 1524.9872C1549.3417 1524.6527 1547.8427 1522.6112 1548.1773 1520.4276 1548.5117 1518.2439 1550.5531 1516.7449 1552.7368 1517.0795L1551.5253 1524.9872ZM1568.794 1519.609C1570.9746 1519.9623 1572.456 1522.0165 1572.1028 1524.1972 1571.7495 1526.3778 1569.6954 1527.8593 1567.5147 1527.5061L1568.794 1519.609ZM1583.4805 1530.1683C1581.3032 1529.7944 1579.8413 1527.7263 1580.2151 1525.5491 1580.589 1523.3718 1582.6571 1521.9099 1584.8344 1522.2837L1583.4805 1530.1683ZM1600.774 1525.1077C1602.9472 1525.5054 1604.3864 1527.5894 1603.9888 1529.7623 1603.5911 1531.9354 1601.5071 1533.3746 1599.334 1532.977L1600.774 1525.1077ZM1615.3817 1536.0292C1613.215 1535.5988 1611.8073 1533.4934 1612.2376 1531.3265 1612.668 1529.1598 1614.7733 1527.7521 1616.9402 1528.1824L1615.3817 1536.0292ZM0 1533.7059C.916138 1529.8123 .916087 1529.8123 .916047 1529.8123 .916047 1529.8123 .916017 1529.8123 .916018 1529.8123 .916018 1529.8123 .916059 1529.8123 .91614 1529.8123 .916303 1529.8123 .916627 1529.8124 .917113 1529.8125 .918085 1529.8128 .919703 1529.8131 .921967 1529.8136 .926494 1529.8147 .933604 1529.8164 .94329 1529.8186 .962662 1529.8231 .992338 1529.8301 1.032269 1529.8395 1.112129 1529.858 1.233007 1529.8861 1.3945 1529.9235 1.717487 1529.998 2.202935 1530.1096 2.847641 1530.2557 4.137055 1530.5481 6.063479 1530.9794 8.601274 1531.5322L6.898244 1539.3489C4.337924 1538.791 2.389469 1538.355 1.078532 1538.0578 .423062 1537.909-.073032 1537.7952-.406545 1537.7182-.573301 1537.6796-.699413 1537.6503-.784478 1537.6304-.827011 1537.6205-.859282 1537.6129-.881242 1537.6078-.892222 1537.6052-.900624 1537.6033-.906442 1537.6019-.909351 1537.6012-.911614 1537.6007-.91323 1537.6004-.914039 1537.6001-.914685 1537.6-.915169 1537.5999-.915412 1537.5997-.915614 1537.5997-.915775 1537.5997-.915856 1537.5997-.915946 1537.5996-.915987 1537.5996-.916067 1537.5996-.916138 1537.5996 0 1533.7059ZM24.338776 1534.8406C28.959563 1535.7816 34.229516 1536.8312 40.117658 1537.9685L38.600446 1545.8234C32.685216 1544.6808 27.388834 1543.626 22.7423 1542.6797L24.338776 1534.8406ZM56.03028 1540.9685C61.013654 1541.8859 66.306728 1542.8401 71.89779 1543.8235L70.51201 1551.7025C64.89971 1550.7155 59.585794 1549.7575 54.581975 1548.8363L56.03028 1540.9685ZM87.73654 1546.5482C92.83722 1547.4064 98.13762 1548.2799 103.63097 1549.1642L102.35952 1557.0625C96.847248 1556.1752 91.52821 1555.2986 86.4092 1554.4373L87.73654 1546.5482ZM119.560588 1551.6724C124.73678 1552.4694 130.05913 1553.2715 135.5229 1554.0757L134.35805 1561.9904C128.87648 1561.1836 123.536609 1560.3789 118.343128 1559.5792L119.560588 1551.6724ZM151.52265 1556.3771C156.72667 1557.1084 162.0437 1557.8389 167.47022 1558.5662L166.40749 1566.4953C160.9639 1565.7656 155.63002 1565.0328 150.40937 1564.2992L151.52265 1556.3771ZM183.40227 1560.6505C188.63904 1561.3189 193.96749 1561.9826 199.38477 1562.6397L198.42142 1570.5814C192.98743 1569.9224 187.64247 1569.2566 182.38939 1568.586L183.40227 1560.6505ZM215.42629 1564.5349C220.70922 1565.1425 226.06909 1565.7424 231.50354 1566.3334L230.63881 1574.2865C225.18775 1573.6939 219.81145 1573.0919 214.5123 1572.4826L215.42629 1564.5349ZM247.46109 1568.0189C252.74295 1568.5606 258.08964 1569.0925 263.49909 1569.6135L262.73207 1577.5767C257.3061 1577.0541 251.94309 1576.5205 246.64511 1575.9772L247.46109 1568.0189ZM279.61744 1571.116C284.89753 1571.5917 290.233 1572.0562 295.6221 1572.5083L294.95323 1580.4802C289.5476 1580.0267 284.19584 1579.5608 278.8996 1579.0836L279.61744 1571.116ZM311.68043 1573.8057C317.01457 1574.2201 322.3976 1574.6217 327.82798 1575.0095L327.25813 1582.9891C321.811 1582.6002 316.41136 1582.1973 311.06083 1581.7816L311.68043 1573.8057ZM343.8416 1576.103C349.16624 1576.4501 354.53337 1576.7832 359.9416 1577.1016L359.4715 1585.0878C354.0464 1584.7684 348.66255 1584.4342 343.32139 1584.0862L343.8416 1576.103ZM376.06483 1577.9995C381.3803 1578.2786 386.733 1578.543 392.12153 1578.7916L391.75276 1586.7831C386.34715 1586.5337 380.97755 1586.2684 375.64533 1585.9885L376.06483 1577.9995ZM408.27458 1579.4849C413.59855 1579.6963 418.9554 1579.8919 424.3439 1580.0708L424.07829 1588.0664C418.67237 1587.8869 413.29829 1587.6907 407.95729 1587.4786L408.27458 1579.4849ZM440.46379 1580.5537C445.81068 1580.6963 451.18684 1580.8222 456.5911 1580.9306L456.43067 1588.929C451.00859 1588.8202 445.6148 1588.694 440.2505 1588.5508L440.46379 1580.5537ZM472.68217 1581.1998C478.04566 1581.2716 483.43519 1581.3259 488.84965 1581.3617L488.79667 1589.3616C483.36396 1589.3256 477.9564 1589.2713 472.57505 1589.1991L472.68217 1581.1998ZM504.9159 1581.4136C510.27796 1581.4126 515.663 1581.3932 521.07 1581.3547L521.1269 1589.3545C515.70126 1589.3931 510.2977 1589.4126 504.91737 1589.4136L504.9159 1581.4136ZM537.15377 1581.1843C542.5108 1581.1089 547.88809 1581.0143 553.28457 1580.8999L553.45407 1588.8982C548.0384 1589.013 542.6422 1589.1078 537.2664 1589.1836L537.15377 1581.1843ZM569.38589 1580.5012C572.0785 1580.4248 574.7756 1580.3434 577.47708 1580.257L577.73306 1588.2528C575.0218 1588.3396 572.31497 1588.4213 569.6127 1588.4979L569.38589 1580.5012ZM577.47708 1580.257C580.2355 1580.1686 582.9597 1580.0763 585.65048 1579.98L585.9365 1587.9749C583.2356 1588.0715 580.5013 1588.1642 577.73306 1588.2528L577.47708 1580.257ZM601.39669 1579.3554C606.8515 1579.117 612.1591 1578.8611 617.3252 1578.5886L617.74667 1586.5775C612.5557 1586.8513 607.22409 1587.1083 601.74606 1587.3478L601.39669 1579.3554ZM632.8691 1577.6925C638.3677 1577.3474 643.6939 1576.982 648.8559 1576.5973L649.4506 1584.5751C644.2562 1584.9623 638.8988 1585.3298 633.3702 1585.6769L632.8691 1577.6925ZM664.632 1575.3179C670.0244 1574.8434 675.22219 1574.346 680.23678 1573.827L681.0603 1581.7846C676.0033 1582.3079 670.7647 1582.8091 665.3332 1583.287L664.632 1575.3179ZM695.87106 1572.07C701.34378 1571.4035 706.57766 1570.709 711.59146 1569.9885L712.72927 1577.9072C707.6562 1578.6361 702.36538 1579.3383 696.83816 1580.0114L695.87106 1572.07ZM727.1778 1567.5518C732.6008 1566.6309 737.74118 1565.6768 742.6303 1564.6932L744.208 1572.5361C739.2366 1573.5361 734.0167 1574.5049 728.51718 1575.4389L727.1778 1567.5518ZM757.91036 1561.3423C763.3055 1560.0549 768.3734 1558.7289 773.1732 1557.3706L775.35147 1565.0684C770.4442 1566.4569 765.2691 1567.811 759.767 1569.1238L757.91036 1561.3423ZM788.16207 1552.7667C793.3345 1551.0499 798.2177 1549.295 802.9165 1547.5127L805.7538 1554.9926C800.96359 1556.8097 795.97396 1558.603 790.6821 1560.3594L788.16207 1552.7667ZM817.5259 1541.6973C822.4332 1539.6686 827.2348 1537.6276 832.1177 1535.5706L835.22348 1542.9431C830.37179 1544.9869 825.5226 1547.0481 820.5822 1549.0905L817.5259 1541.6973ZM846.8271 1529.5001C851.6172 1527.5851 856.5756 1525.6809 861.81478 1523.8029L864.5143 1531.3336C859.3834 1533.1729 854.5167 1535.0415 849.7968 1536.9285L846.8271 1529.5001ZM876.9476 1518.7372C881.8017 1517.2277 886.9172 1515.7466 892.35989 1514.3016L894.41268 1522.0338C889.07949 1523.4497 884.0716 1524.8998 879.32327 1526.3764L876.9476 1518.7372ZM907.9849 1510.4743C912.9407 1509.3565 918.15109 1508.2677 923.6517 1507.2117L925.1599 1515.0682C919.7408 1516.1085 914.6144 1517.1799 909.74508 1518.2782L907.9849 1510.4743ZM939.3893 1504.418C944.4087 1503.5952 949.6493 1502.7975 955.13137 1502.0271L956.2446 1509.9492C950.82046 1510.7114 945.6402 1511.5001 940.6834 1512.3126L939.3893 1504.418ZM970.83029 1499.9794C975.8901 1499.3676 981.1384 1498.7772 986.58779 1498.2096L987.4167 1506.1665C982.00936 1506.7297 976.8048 1507.3153 971.79049 1507.9215L970.83029 1499.9794ZM1002.4918 1496.6708C1007.65109 1496.2079 1012.97659 1495.7639 1018.47689 1495.3396L1019.09219 1503.3159C1013.6237 1503.7378 1008.3314 1504.1791 1003.20657 1504.6388L1002.4918 1496.6708ZM1034.1358 1494.2177C1039.3248 1493.8732 1044.6588 1493.545 1050.1437 1493.2339L1050.5968 1501.2211C1045.1366 1501.5308 1039.8284 1501.8574 1034.6658 1502.2002L1034.1358 1494.2177ZM1065.9298 1492.4065C1068.6286 1492.2763 1071.3615 1492.1499 1074.1292 1492.0274L1074.4828 1500.0195C1071.7256 1500.1416 1069.0034 1500.2675 1066.3156 1500.3972L1065.9298 1492.4065ZM1074.1292 1492.0274C1076.8598 1491.9066 1079.5844 1491.7908 1082.3032 1491.6798L1082.6294 1499.6731C1079.9197 1499.7837 1077.2041 1499.8992 1074.4828 1500.0195L1074.1292 1492.0274ZM1098.5442 1491.0722C1103.9984 1490.8866 1109.4276 1490.7205 1114.8308 1490.573L1115.049 1498.5701C1109.6636 1498.7169 1104.2523 1498.8826 1098.8163 1499.0675L1098.5442 1491.0722ZM1131.0409 1490.1848C1136.5098 1490.0719 1141.9506 1489.978 1147.3624 1489.9025L1147.4743 1497.9017C1142.08 1497.977 1136.6569 1498.0707 1131.2059 1498.1831L1131.0409 1490.1848ZM1163.5925 1489.729C1169.0549 1489.6886 1174.4863 1489.6665 1179.8855 1489.6619L1179.8923 1497.6619C1174.5105 1497.6664 1169.0966 1497.6885 1163.6517 1497.7289L1163.5925 1489.729ZM1196.1563 1489.7009C1201.6006 1489.7317 1207.0104 1489.78 1212.3845 1489.845L1212.2877 1497.8445C1206.9306 1497.7796 1201.538 1497.7315 1196.1111 1497.7008L1196.1563 1489.7009ZM1228.6996 1490.0952C1234.1467 1490.1963 1239.555 1490.3142 1244.9235 1490.4483L1244.7239 1498.4457C1239.3723 1498.3121 1233.9811 1498.1946 1228.5512 1498.0938L1228.6996 1490.0952ZM1261.202 1490.9065C1266.6726 1491.078 1272.0991 1491.2658 1277.4805 1491.4688L1277.1788 1499.4631C1271.8143 1499.2608 1266.4048 1499.0735 1260.9513 1498.9026L1261.202 1490.9065ZM1293.67 1492.131C1299.154 1492.3727 1304.5881 1492.6298 1309.9706 1492.9013L1309.5676 1500.8911C1304.2019 1500.6205 1298.7848 1500.3641 1293.3178 1500.1232L1293.67 1492.131ZM1326.2274 1493.7731C1331.6765 1494.0827 1337.0692 1494.4065 1342.4039 1494.7433L1341.8998 1502.7274C1336.5817 1502.3916 1331.2058 1502.0689 1325.7736 1501.7603L1326.2274 1493.7731ZM1358.6735 1495.8228C1364.1582 1496.2042 1369.577 1496.5989 1374.928 1497.0054L1374.3219 1504.9824C1368.9878 1504.5772 1363.586 1504.1837 1358.1184 1503.8035L1358.6735 1495.8228ZM1391.1177 1498.2872C1396.5752 1498.7369 1401.9562 1499.1981 1407.2586 1499.6693L1406.5504 1507.638C1401.2649 1507.1682 1395.901 1506.7085 1390.4607 1506.2603L1391.1177 1498.2872ZM1423.5243 1501.1681C1429.024 1501.693 1434.4312 1502.2274 1439.743 1502.7697L1438.9307 1510.7283C1433.636 1510.1879 1428.2463 1509.655 1422.7643 1509.1318L1423.5243 1501.1681ZM1455.9229 1504.4755C1461.4205 1505.0736 1466.8052 1505.6785 1472.0735 1506.2876L1471.1546 1514.2346C1465.9039 1513.6275 1460.5372 1513.0247 1455.0576 1512.4285L1455.9229 1504.4755ZM1488.2068 1508.2092C1493.7289 1508.8865 1499.1063 1509.5659 1504.3347 1510.2445L1503.305 1518.178C1498.095 1517.5017 1492.7363 1516.8246 1487.2332 1516.1498L1488.2068 1508.2092ZM1520.4674 1512.3982C1526.048 1513.164 1531.4299 1513.9246 1536.6072 1514.6752L1535.4592 1522.5924C1530.3018 1521.8446 1524.9398 1521.0869 1519.3798 1520.3239L1520.4674 1512.3982ZM1552.7368 1517.0795C1558.3963 1517.9465 1563.7522 1518.7922 1568.794 1519.609L1567.5147 1527.5061C1562.4951 1526.693 1557.1618 1525.8507 1551.5253 1524.9872L1552.7368 1517.0795ZM1584.8344 1522.2837C1590.7782 1523.3043 1596.1008 1524.2525 1600.774 1525.1077L1599.334 1532.977C1594.6889 1532.127 1589.3949 1531.1838 1583.4805 1530.1683L1584.8344 1522.2837ZM1616.9402 1528.1824C1619.5211 1528.695 1621.4837 1529.0975 1622.8038 1529.3726 1623.4639 1529.51 1623.9634 1529.6156 1624.2993 1529.6871 1624.4673 1529.7229 1624.5942 1529.7503 1624.68 1529.7687 1624.7229 1529.778 1624.7555 1529.7849 1624.7777 1529.7898 1624.7888 1529.7921 1624.7974 1529.794 1624.8032 1529.7953 1624.8062 1529.7959 1624.8085 1529.7964 1624.8102 1529.7968 1624.811 1529.797 1624.8117 1529.7971 1624.8121 1529.7973 1624.8124 1529.7973 1624.8126 1529.7974 1624.8128 1529.7974 1624.8129 1529.7974 1624.813 1529.7974 1624.813 1529.7974 1624.8131 1529.7975 1624.8132 1529.7975 1623.9625 1533.7059 1623.1118 1537.6144 1623.1118 1537.6145 1623.1119 1537.6145H1623.1118C1623.1117 1537.6144 1623.1113 1537.6144 1623.111 1537.6143 1623.11 1537.614 1623.1084 1537.6137 1623.1061 1537.6132 1623.1017 1537.6122 1623.0946 1537.6107 1623.085 1537.6087 1623.0656 1537.6044 1623.0359 1537.598 1622.9959 1537.5894 1622.9159 1537.5722 1622.7947 1537.5462 1622.6326 1537.5116 1622.3084 1537.4425 1621.8206 1537.3394 1621.1725 1537.2044 1619.8761 1536.9343 1617.9379 1536.5368 1615.3817 1536.0292L1616.9402 1528.1824Z" fill="#ff9c77"/>
</g>
</g>
</g>
<path transform="matrix(.629031,.77738,.77738,-.629031,41.156877,133.08579)" d="M24 21.753907C24 15.12649 18.627417 9.753906 12 9.753906 5.372583 9.753906 0 15.12649 0 21.753907 0 28.381323 5.372583 33.753908 12 33.753908 18.627417 33.753908 24 28.381323 24 21.753907Z" fill="#7e1cc4"/>
</g>
</svg>
