<svg xmlns="http://www.w3.org/2000/svg" xmlns:xlink="http://www.w3.org/1999/xlink" version="1.1" width="120.99805pt" height="91.05664pt" viewBox="0 0 120.99805 91.05664">
<defs>
<mask id="mask_0">
<g>
<clipPath id="clip_1">
<path transform="matrix(1,0,0,-1,0,91.05664)" d="M0 0H120.99805V91.05664H0Z"/>
</clipPath>
<g clip-path="url(#clip_1)">
<path transform="matrix(-.083491,.996509,-.996529,-.083247,69.786899,28.249554)" d="M0 38.74756H31.21809V-53.010759H0V38.74756Z" fill="#d9d9d9"/>
</g>
</g>
"/>
</mask>
<clipPath id="clip_2">
<path transform="matrix(1,0,0,-1,0,91.05664)" d="M0 0H120.99805V91.05664H0Z"/>
</clipPath>
</defs>
<g>
<g mask="url(#mask_0)">
<g>
<g clip-path="url(#clip_2)">
<path transform="matrix(-.754409,-.656405,-.656678,.754171,513.0294,-382.09028)" d="M549.20388 503.23744 548.43429 499.31214 549.20388 503.23744ZM305.83766 694.79067 305.2759 690.83029 305.83766 694.79067ZM8.258265 572.28C9.889628 573.76968 10.004537 576.2997 8.514922 577.931 7.025307 579.5624 4.495255 579.6773 2.863893 578.1877L8.258265 572.28ZM14.598961 588.5174C12.917151 587.08499 12.714976 584.5604 14.147391 582.8786 15.579805 581.1968 18.104384 580.9946 19.786192 582.427L14.598961 588.5174ZM31.640694 592.232C33.362485 593.6161 33.636236 596.1339 32.252134 597.8557 30.86803 599.5775 28.350209 599.85128 26.628418 598.46719L31.640694 592.232ZM38.934217 608.0904C37.176076 606.75277 36.83518 604.24319 38.172803 602.485 39.510427 600.72689 42.02004 600.386 43.77818 601.7236L38.934217 608.0904ZM56.150514 610.8823C57.943235 612.1732 58.350027 614.673 57.059114 616.4657 55.768198 618.2584 53.26842 618.6652 51.475706 617.37429L56.150514 610.8823ZM64.24945 626.318C62.423055 625.0752 61.949964 622.5871 63.192773 620.7607 64.43558 618.9343 66.92366 618.4612 68.75005 619.704L64.24945 626.318ZM81.568149 628.17428C83.427768 629.36679 83.96856 631.841 82.77603 633.7006 81.58351 635.56027 79.10926 636.1011 77.24964 634.9085L81.568149 628.17428ZM90.52029 643.1568C88.62754 642.0176 88.01668 639.5597 89.15588 637.66696 90.2951 635.7742 92.75298 635.1633 94.64573 636.30258L90.52029 643.1568ZM107.937808 644.03817C109.86359 645.1206 110.54726 647.5592 109.46483 649.485 108.3824 651.41079 105.94376 652.0945 104.017978 651.012L107.937808 644.03817ZM117.72862 658.4411C115.76991 657.41946 115.01028 655.0034 116.03192 653.0447 117.053569 651.086 119.46962 650.32638 121.42833 651.348L117.72862 658.4411ZM135.15256 658.22207C137.14409 659.1781 137.98349 661.5676 137.02742 663.55917 136.07134 665.55068 133.68183 666.3901 131.69029 665.434L135.15256 658.22207ZM145.89655 671.95089C143.87248 671.0658 142.94916 668.7074 143.83426 666.68338 144.71936 664.6593 147.07772 663.73599 149.10179 664.62106L145.89655 671.95089ZM163.26834 670.5035C165.32439 671.3116 166.33606 673.63339 165.52797 675.68948 164.7199 677.7455 162.39807 678.75717 160.34203 677.94906L163.26834 670.5035ZM175.02066 683.38217C172.93364 682.65786 171.82897 680.3788 172.5533 678.29177 173.27764 676.2048 175.55669 675.1001 177.6437 675.8244L175.02066 683.38217ZM192.21695 680.53518C194.33339 681.1684 195.53578 683.3974 194.90256 685.51388 194.26934 687.6303 192.0403 688.8327 189.92386 688.19949L192.21695 680.53518ZM205.03748 692.34548C202.89389 691.8113 201.58917 689.64059 202.12334 687.49697 202.65749 685.3534 204.82822 684.04867 206.97182 684.5828L205.03748 692.34548ZM221.88663 687.9114C224.05417 688.338 225.46546 690.44107 225.03879 692.6086 224.61214 694.7761 222.50913 696.18746 220.34157 695.76077L221.88663 687.9114ZM235.8158 698.3845C233.62859 698.0741 232.10712 696.0494 232.41753 693.8621 232.72794 691.6749 234.75266 690.15347 236.93988 690.46389L235.8158 698.3845ZM252.09644 692.1809C254.29778 692.36636 255.932 694.3012 255.74658 696.5025 255.56118 698.70388 253.62631 700.3381 251.42498 700.15267L252.09644 692.1809ZM267.1241 701.00277C264.9156 700.9506 263.16749 699.118 263.21958 696.9095 263.2717 694.7009 265.1043 692.9528 267.31285 693.00497L267.1241 701.00277ZM282.53706 692.88327C284.74443 692.7947 286.60566 694.5123 286.6942 696.71969 286.78279 698.927 285.0652 700.78829 282.85783 700.87686L282.53706 692.88327ZM298.56028 699.7259C296.36369 699.96109 294.39237 698.371 294.15724 696.1744 293.92207 693.97787 295.51213 692.00656 297.7087 691.77139L298.56028 699.7259ZM313.29545 689.5551C315.47084 689.17037 317.54624 690.6219 317.931 692.7973 318.31578 694.97268 316.8642 697.04806 314.6888 697.4328L313.29545 689.5551ZM330.81248 693.9489C328.6737 694.5021 326.49147 693.21676 325.9383 691.07797 325.3851 688.9392 326.67048 686.75698 328.80924 686.2038L330.81248 693.9489ZM343.90245 681.55117C345.97914 680.7977 348.27339 681.8704 349.0268 683.94717 349.7802 686.0238 348.7075 688.31808 346.6308 689.0715L343.90245 681.55117ZM362.02024 682.4999C360.0428 683.4848 357.64134 682.6802 356.65644 680.70278 355.67155 678.7253 356.47615 676.32388 358.45359 675.3389L362.02024 682.4999ZM371.99604 667.4838C373.83015 666.25247 376.31523 666.74099 377.54667 668.5751 378.77809 670.4091 378.28956 672.8942 376.45545 674.1257L371.99604 667.4838ZM389.71058 663.84957C388.06095 665.3189 385.5325 665.1728 384.06315 663.52316 382.59379 661.87356 382.73994 659.3451 384.38957 657.87576L389.71058 663.84957ZM395.4105 646.68118C396.8585 645.01278 399.38487 644.83407 401.05326 646.28207 402.72169 647.73007 402.90037 650.2564 401.45237 651.9248L395.4105 646.68118ZM411.65089 638.7749C410.38688 640.5867 407.89344 641.0307 406.08168 639.76669 404.26988 638.5027 403.82585 636.0092 405.08988 634.19747L411.65089 638.7749ZM413.67875 620.77859C414.80583 618.8786 417.25975 618.252 419.15974 619.379 421.05976 620.5061 421.68635 622.9601 420.55928 624.86007L413.67875 620.77859ZM428.6051 610.5836C427.55198 612.5256 425.12397 613.2461 423.182 612.193 421.24006 611.1399 420.5195 608.7119 421.5726 606.7699L428.6051 610.5836ZM429.24375 592.4741C430.29118 590.52908 432.71705 589.8014 434.66209 590.8488 436.60716 591.89627 437.3348 594.3221 436.2874 596.26718L429.24375 592.4741ZM444.108 582.1885C442.99903 584.0991 440.55116 584.74899 438.64054 583.63998 436.72993 582.531 436.08009 580.0831 437.18907 578.1725L444.108 582.1885ZM445.8916 564.1664C447.12309 562.33236 449.6082 561.8439 451.44224 563.0754 453.27629 564.3069 453.76478 566.792 452.53327 568.62606L445.8916 564.1664ZM461.95014 555.88937C460.5498 557.59799 458.0295 557.84786 456.3209 556.4475 454.6123 555.0472 454.3624 552.52688 455.76274 550.81826L461.95014 555.88937ZM467.06639 538.53457C468.657 537.00149 471.18925 537.0482 472.7223 538.6388 474.2553 540.2295 474.2086 542.7617 472.61796 544.29476L467.06639 538.53457ZM484.60459 534.1231C482.83247 535.44216 480.32658 535.0749 479.0075 533.3028 477.68846 531.5307 478.05574 529.0248 479.82783 527.70578L484.60459 534.1231ZM493.79695 518.60537C495.71809 517.5148 498.1596 518.188 499.25025 520.10916 500.34089 522.0303 499.6676 524.4718 497.74647 525.5625L493.79695 518.60537ZM511.9287 518.5525C509.89775 519.4217 507.5467 518.47988 506.67756 516.44888 505.80839 514.4179 506.7502 512.0669 508.7812 511.1977L511.9287 518.5525ZM524.31558 505.43409C526.42019 504.7626 528.6706 505.9244 529.3421 508.02903 530.01358 510.13365 528.85177 512.3841 526.74716 513.05557L524.31558 505.43409ZM542.0449 508.86076C539.89346 509.36213 537.74288 508.0244 537.2415 505.8729 536.7401 503.7214 538.0778 501.57087 540.2294 501.0695L542.0449 508.86076ZM556.5615 497.84269C558.74099 497.48176 560.80038 498.95594 561.1613 501.13539 561.5222 503.31486 560.04806 505.37425 557.8686 505.73518L556.5615 497.84269ZM573.671 503.5947C571.47409 503.82643 569.50527 502.23326 569.27359 500.0363 569.0418 497.83934 570.635 495.8705 572.8319 495.6388L573.671 503.5947ZM589.1977 494.4012C591.4045 494.29988 593.27566 496.0067 593.377 498.2135 593.47836 500.42033 591.7715 502.29145 589.5647 502.3928L589.1977 494.4012ZM605.5088 502.1312C603.2998 502.1025 601.53237 500.28858 601.56106 498.0796 601.5897 495.87068 603.4037 494.1032 605.6127 494.13188L605.5088 502.1312ZM622.0414 494.8249C624.24496 494.982 625.90396 496.89567 625.7468 499.09919 625.5898 501.30274 623.6761 502.96174 621.47256 502.80464L622.0414 494.8249ZM637.36227 504.39497C635.1712 504.11274 633.62387 502.10777 633.90609 499.91676 634.1883 497.7257 636.19326 496.17829 638.3843 496.4605L637.36227 504.39497ZM654.58596 499.0074C656.75808 499.4104 658.19216 501.49794 657.78909 503.66999 657.38607 505.84205 655.2985 507.27613 653.12649 506.8731L654.58596 499.0074ZM668.7499 510.2104C666.60256 509.69148 665.2825 507.53004 665.8014 505.3827 666.3203 503.23536 668.48178 501.91529 670.6291 502.4342L668.7499 510.2104ZM686.47988 506.70503C688.5975 507.3345 689.8038 509.5614 689.1743 511.67897 688.54489 513.7965 686.31796 515.00289 684.2004 514.3734L686.47988 506.70503ZM699.3925 519.30697C697.3089 518.5729 696.2149 516.2887 696.949 514.2051 697.68307 512.12149 699.9672 511.02748 702.05087 511.76155L699.3925 519.30697ZM717.38888 517.5858C719.4348 518.4191 720.41787 520.75326 719.58456 522.7992 718.7512 524.8451 716.4171 525.8281 714.37118 524.9949L717.38888 517.5858ZM729.0388 531.37039C727.03359 530.4434 726.1594 528.0664 727.08639 526.06118 728.0133 524.0559 730.3903 523.1817 732.39559 524.10867L729.0388 531.37039ZM747.1208 531.3223C749.0825 532.3382 749.84927 534.752 748.8334 536.71377 747.8175 538.6754 745.4037 539.44216 743.44198 538.4263L747.1208 531.3223ZM757.4809 546.0901C755.5653 544.98977 754.9044 542.54489 756.00479 540.6293 757.10519 538.7136 759.55007 538.05276 761.46566 539.15316L757.4809 546.0901ZM775.46786 547.60238C777.33438 548.7841 777.8894 551.2552 776.70767 553.1217 775.52597 554.98818 773.0548 555.5432 771.18838 554.3615L775.46786 547.60238ZM784.5277 563.217C782.7143 561.9553 782.267 559.46249 783.5287 557.64907 784.79037 555.83566 787.2832 555.38839 789.0966 556.65L784.5277 563.217ZM802.38137 566.34707C804.13479 567.6908 804.4669 570.2016 803.12319 571.955 801.77938 573.7085 799.26858 574.0406 797.51516 572.69686L802.38137 566.34707ZM809.9324 582.73587C808.2554 581.2978 808.06167 578.7726 809.4997 577.0956 810.93777 575.4186 813.46298 575.22488 815.13998 576.6629L809.9324 582.73587ZM.000138 570.02017C2.805395 567.1687 2.805308 567.16867 2.805228 567.1686 2.805211 567.1686 2.805138 567.16848 2.805105 567.16848 2.805037 567.1684 2.804999 567.16836 2.80499 567.16836 2.804971 567.16836 2.80507 567.1684 2.805286 567.16867 2.805718 567.16909 2.806617 567.1699 2.807984 567.17129 2.810718 567.17398 2.815319 567.17849 2.821782 567.1848 2.834709 567.19747 2.855083 567.2174 2.882853 567.2445 2.938394 567.29867 3.023519 567.3815 3.137822 567.49197 3.366431 567.713 3.71174 568.0449 4.170504 568.48049 5.088052 569.3516 6.459294 570.6373 8.258265 572.28L2.863893 578.1877C1.024849 576.5084-.38438 575.1873-1.337799 574.2821-1.814519 573.82949-2.177317 573.4808-2.422945 573.2433-2.545759 573.1246-2.639285 573.03359-2.703115 572.9713-2.73503 572.9402-2.759522 572.91629-2.77654 572.8996-2.785048 572.89126-2.791689 572.88479-2.796454 572.88009-2.798837 572.8777-2.800751 572.87588-2.802196 572.8744-2.802918 572.8737-2.803523 572.8731-2.80401 572.8726-2.804254 572.8724-2.804468 572.8722-2.804653 572.872-2.804746 572.8719-2.804862 572.8718-2.804909 572.87179-2.805018 572.87167-2.80512 572.8715 .000138 570.02017ZM19.786192 582.427C23.258107 585.3841 27.222039 588.67996 31.640694 592.232L26.628418 598.46719C22.1474 594.865 18.125126 591.5206 14.598961 588.5174L19.786192 582.427ZM43.77818 601.7236C47.66754 604.6827 51.796979 607.7474 56.150514 610.8823L51.475706 617.37429C47.06259 614.1965 42.87676 611.0899 38.934217 608.0904L43.77818 601.7236ZM68.75005 619.704C72.86935 622.5071 77.14551 625.33816 81.568149 628.17428L77.24964 634.9085C72.763149 632.0315 68.42627 629.16018 64.24945 626.318L68.75005 619.704ZM94.64573 636.30258C98.96393 638.9016 103.397319 641.4861 107.937808 644.03817L104.017978 651.012C99.40552 648.4195 94.90357 645.79507 90.52029 643.1568L94.64573 636.30258ZM121.42833 651.348C125.916797 653.68917 130.49382 655.98556 135.15256 658.22207L131.69029 665.434C126.94854 663.15768 122.29234 660.8215 117.72862 658.4411L121.42833 651.348ZM149.10179 664.62106C153.75638 666.65646 158.48062 668.62179 163.26834 670.5035L160.34203 677.94906C155.45688 676.02908 150.63964 674.02499 145.89655 671.95089L149.10179 664.62106ZM177.6437 675.8244C182.44889 677.4921 187.30855 679.0666 192.21695 680.53518L189.92386 688.19949C184.9004 686.6965 179.93071 685.0863 175.02066 683.38217L177.6437 675.8244ZM206.97182 684.5828C211.90389 685.8118 216.87734 686.92538 221.88663 687.9114L220.34157 695.76077C215.19699 694.7481 210.0937 693.60537 205.03748 692.34548L206.97182 684.5828ZM236.93988 690.46389C241.96437 691.17697 247.01833 691.7532 252.09644 692.1809L251.42498 700.15267C246.19045 699.7118 240.98552 699.11819 235.8158 698.3845L236.93988 690.46389ZM267.31285 693.00497C272.37083 693.1243 277.44725 693.08749 282.53706 692.88327L282.85783 700.87686C277.5935 701.0881 272.3471 701.126 267.1241 701.00277L267.31285 693.00497ZM297.7087 691.77139C300.2292 691.5015 302.75178 691.1883 305.2759 690.83029L306.39939 698.751C303.78385 699.12197 301.1706 699.4465 298.56028 699.7259L297.7087 691.77139ZM305.2759 690.83029C308.02018 690.44107 310.6925 690.0155 313.29545 689.5551L314.6888 697.4328C311.99366 697.90957 309.2313 698.3493 306.39939 698.751L305.2759 690.83029ZM328.80924 686.2038C334.16987 684.8173 339.19023 683.2607 343.90245 681.55117L346.6308 689.0715C341.6693 690.8715 336.40638 692.5021 330.81248 693.9489L328.80924 686.2038ZM358.45359 675.3389C363.3349 672.9077 367.83097 670.28036 371.99604 667.4838L376.45545 674.1257C372.00187 677.11587 367.20738 679.9163 362.02024 682.4999L358.45359 675.3389ZM384.38957 657.87576C388.37648 654.32449 392.02519 650.5818 395.4105 646.68118L401.45237 651.9248C397.8612 656.0626 393.97349 660.0525 389.71058 663.84957L384.38957 657.87576ZM405.08988 634.19747C408.12513 629.8469 410.9595 625.3627 413.67875 620.77859L420.55928 624.86007C417.7647 629.5711 414.82368 634.22726 411.65089 638.7749L405.08988 634.19747ZM421.5726 606.7699C424.1521 602.0133 426.6473 597.2957 429.24375 592.4741L436.2874 596.26718C433.74305 600.992 431.17707 605.8408 428.6051 610.5836L421.5726 606.7699ZM437.18907 578.1725C439.92649 573.4563 442.80015 568.77047 445.8916 564.1664L452.53327 568.62606C449.56199 573.05117 446.78129 577.5828 444.108 582.1885L437.18907 578.1725ZM455.76274 550.81826C459.22743 546.5909 462.9704 542.4822 467.06639 538.53457L472.61796 544.29476C468.7667 548.0065 465.23445 551.8821 461.95014 555.88937L455.76274 550.81826ZM479.82783 527.70578C484.13798 524.4975 488.7773 521.455 493.79695 518.60537L497.74647 525.5625C493.014 528.2491 488.65089 531.11129 484.60459 534.1231L479.82783 527.70578ZM508.7812 511.1977C513.6493 509.11439 518.8174 507.18824 524.31558 505.43409L526.74716 513.05557C521.48196 514.7354 516.5533 516.5734 511.9287 518.5525L508.7812 511.1977ZM540.2294 501.0695C542.8959 500.44813 545.63 499.86195 548.43429 499.31214L549.9734 507.16273C547.2593 507.69483 544.6173 508.2613 542.0449 508.86076L540.2294 501.0695ZM548.43429 499.31214C551.15499 498.77876 553.8642 498.28938 556.5615 497.84269L557.8686 505.73518C555.24856 506.1691 552.61666 506.64448 549.9734 507.16273L548.43429 499.31214ZM572.8319 495.6388C578.34439 495.05744 583.80099 494.64906 589.1977 494.4012L589.5647 502.3928C584.3235 502.63349 579.02438 503.0301 573.671 503.5947L572.8319 495.6388ZM605.6127 494.13188C611.1617 494.20393 616.63949 494.43983 622.0414 494.8249L621.47256 502.80464C616.2221 502.43037 610.8994 502.20118 605.5088 502.1312L605.6127 494.13188ZM638.3843 496.4605C643.87509 497.1678 649.27737 498.02235 654.58596 499.0074L653.12649 506.8731C647.95907 505.9143 642.70266 505.0829 637.36227 504.39497L638.3843 496.4605ZM670.6291 502.4342C676.02499 503.73823 681.3106 505.1684 686.47988 506.70503L684.2004 514.3734C679.1592 512.8748 674.007 511.48085 668.7499 510.2104L670.6291 502.4342ZM702.05087 511.76155C707.3052 513.61276 712.42037 515.56216 717.38888 517.5858L714.37118 524.9949C709.5168 523.01766 704.5215 521.11398 699.3925 519.30697L702.05087 511.76155ZM732.39559 524.10867C737.4913 526.4642 742.4029 528.87918 747.1208 531.3223L743.44198 538.4263C738.8257 536.0357 734.0214 533.6736 729.0388 531.37039L732.39559 524.10867ZM761.46566 539.15316C766.4066 541.9913 771.07888 544.8235 775.46786 547.60238L771.18838 554.3615C766.89157 551.641 762.31759 548.8684 757.4809 546.0901L761.46566 539.15316ZM789.0966 556.65C794.06326 560.1055 798.50289 563.37478 802.38137 566.34707L797.51516 572.69686C793.72799 569.7945 789.38748 566.59817 784.5277 563.217L789.0966 556.65ZM815.13998 576.6629C817.1351 578.3737 818.66079 579.73788 819.6939 580.68026 820.21047 581.1515 820.60397 581.51736 820.87149 581.7684 821.0052 581.8939 821.1075 581.9908 821.17788 582.05776 821.2131 582.09127 821.2403 582.1173 821.2595 582.13577 821.26919 582.14498 821.2768 582.1522 821.2824 582.15768 821.28518 582.16036 821.2875 582.16256 821.2893 582.1643 821.29019 582.16519 821.29098 582.1659 821.2916 582.1665 821.29196 582.1668 821.29226 582.1671 821.2925 582.16738 821.2926 582.1675 821.2928 582.16769 821.29287 582.1677 821.293 582.16787 821.29318 582.168 818.5164 585.04727 815.7397 587.9264 815.7398 587.9265 815.74 587.92666 815.74 587.9267 815.7401 587.9268 815.7402 587.9269 815.74038 587.927 815.7404 587.9271 815.7405 587.9272 815.74069 587.9273 815.74069 587.92739 815.7406 587.92727 815.74038 587.92709 815.7397 587.9264 815.73849 587.92526 815.736 587.9229 815.7316 587.91867 815.7252 587.91256 815.71249 587.90029 815.6917 587.88046 815.663 587.85317 815.6057 587.79867 815.5167 587.71438 815.3965 587.60147 815.15597 587.37576 814.79037 587.03567 814.3024 586.59066 813.3267 585.7005 811.86227 584.39077 809.9324 582.73587L815.13998 576.6629Z" fill="#ff9c77"/>
</g>
</g>
</g>
<path transform="matrix(-.967244,.253848,.253848,.967244,21.875014,18.700264)" d="M24.009322 17.308594C24.009322 10.681177 18.634652 5.308594 12.004661 5.308594 5.37467 5.308594 0 10.681177 0 17.308594 0 23.93601 5.37467 29.308594 12.004661 29.308594 18.634652 29.308594 24.009322 23.93601 24.009322 17.308594Z" fill="#7e1cc4"/>
</g>
</svg>
