<svg xmlns="http://www.w3.org/2000/svg" xmlns:xlink="http://www.w3.org/1999/xlink" version="1.1" width="148.96387pt" height="133.4126pt" viewBox="0 0 148.96387 133.4126">
<defs>
<mask id="mask_0">
<g>
<clipPath id="clip_1">
<path transform="matrix(1,0,0,-1,0,133.4126)" d="M0 0H148.96387V133.4126H0Z"/>
</clipPath>
<g clip-path="url(#clip_1)">
<path transform="matrix(.183839,.982956,.982956,-.183839,-2.631927,24.52642)" d="M0 103.48454 64.50209 133.4126 111.275157 32.605516 46.773065 2.67746 0 103.48454Z" fill="#d9d9d9"/>
</g>
</g>
"/>
</mask>
<clipPath id="clip_2">
<path transform="matrix(1,0,0,-1,0,133.4126)" d="M0 0H148.96387V133.4126H0Z"/>
</clipPath>
</defs>
<g>
<g mask="url(#mask_0)">
<g>
<g clip-path="url(#clip_2)">
<path transform="matrix(-.708937,.705271,-.705271,-.708937,1375.4224,557.4429)" d="M1114.8358 1171.0723 1114.6654 1167.0759 1114.8358 1171.0723ZM8.478874 1206.4938C10.64069 1206.9486 12.024493 1209.0698 11.569686 1211.2317 11.11488 1213.3934 8.993688 1214.7772 6.831872 1214.3224L8.478874 1206.4938ZM22.357926 1217.4783C20.190506 1217.051 18.77987 1214.9475 19.207179 1212.7802 19.634488 1210.6127 21.73793 1209.202 23.905348 1209.6294L22.357926 1217.4783ZM39.498868 1212.6245C41.67024 1213.0313 43.100759 1215.1212 42.69402 1217.2925 42.28728 1219.4639 40.19731 1220.8944 38.02594 1220.4877L39.498868 1212.6245ZM53.63256 1223.3444C51.45796 1222.9552 50.01052 1220.877 50.39962 1218.7024 50.78872 1216.5277 52.867013 1215.0803 55.041616 1215.4694L53.63256 1223.3444ZM70.70256 1218.2109C72.87999 1218.5839 74.342807 1220.6514 73.96985 1222.8287 73.59689 1225.0062 71.529399 1226.469 69.35197 1226.0961L70.70256 1218.2109ZM85.071178 1228.7319C82.89121 1228.374 81.41411 1226.3168 81.77197 1224.1369 82.129848 1221.9568 84.18716 1220.4797 86.36712 1220.8377L85.071178 1228.7319ZM102.009929 1223.3524C104.19219 1223.6959 105.682788 1225.7435 105.33925 1227.9258 104.99572 1230.108 102.94816 1231.5986 100.76589 1231.2551L102.009929 1223.3524ZM116.44453 1233.6723C114.26013 1233.3425 112.756649 1231.3045 113.086399 1229.12 113.416149 1226.9357 115.454257 1225.4321 117.63865 1225.7619L116.44453 1233.6723ZM133.2712 1228.0725C135.45757 1228.3889 136.97351 1230.4179 136.65715 1232.6041 136.34078 1234.7905 134.3119 1236.3065 132.12555 1235.9901L133.2712 1228.0725ZM147.82857 1238.2142C145.64035 1237.9109 144.11229 1235.8911 144.41556 1233.7029 144.71883 1231.5148 146.73859 1229.9867 148.9268 1230.2899L147.82857 1238.2142ZM164.62236 1232.418C166.81233 1232.7084 168.35225 1234.7191 168.06188 1236.909 167.77149 1239.099 165.76078 1240.6389 163.5708 1240.3486L164.62236 1232.418ZM179.36585 1242.3961C177.17423 1242.1185 175.62264 1240.1167 175.90027 1237.9252 176.17789 1235.7335 178.17963 1234.1819 180.37125 1234.4595L179.36585 1242.3961ZM196.15958 1236.4133C198.35277 1236.6782 199.91588 1238.671 199.65088 1240.8643 199.3859 1243.0574 197.39315 1244.6205 195.19995 1244.3555L196.15958 1236.4133ZM210.8951 1246.2068C208.70046 1245.9542 207.12609 1243.9703 207.37865 1241.7756 207.63123 1239.581 209.6151 1238.0067 211.80974 1238.2593L210.8951 1246.2068ZM227.54228 1240.0248C229.73833 1240.2649 231.32389 1242.2399 231.08373 1244.4359 230.84357 1246.632 228.86864 1248.2175 226.67259 1247.9773L227.54228 1240.0248ZM242.536 1249.6668C240.33863 1249.439 238.74192 1247.473 238.96964 1245.2756 239.19738 1243.0783 241.1633 1241.4816 243.36067 1241.7094L242.536 1249.6668ZM259.08763 1243.2947C261.28623 1243.51 262.89396 1245.4669 262.67854 1247.6657 262.46315 1249.8643 260.5062 1251.4719 258.3076 1251.2565L259.08763 1243.2947ZM274.09815 1252.7588C271.89836 1252.5558 270.2797 1250.6079 270.48277 1248.4081 270.68583 1246.2083 272.63374 1244.5896 274.8335 1244.7927L274.09815 1252.7588ZM290.68107 1246.2106C292.88197 1246.4011 294.5116 1248.34 294.32093 1250.5408 294.13029 1252.7417 292.19157 1254.3713 289.99067 1254.1807L290.68107 1246.2106ZM305.77085 1255.503C303.5689 1255.3247 301.92845 1253.3952 302.10673 1251.1932 302.28504 1248.9913 304.21458 1247.3508 306.4165 1247.5292L305.77085 1255.503ZM322.20838 1248.763C324.4113 1248.9288 326.06263 1250.8491 325.89677 1253.052 325.7309 1255.2549 323.81065 1256.9063 321.60774 1256.7404L322.20838 1248.763ZM337.51075 1257.8923C335.30696 1257.739 333.64469 1255.8283 333.79804 1253.6244 333.95137 1251.4205 335.8622 1249.7583 338.066 1249.9116L337.51075 1257.8923ZM353.8085 1250.9622C356.01316 1251.103 357.6862 1253.0044 357.54536 1255.2091 357.4045 1257.4137 355.50315 1259.0868 353.2985 1258.9459L353.8085 1250.9622ZM369.20317 1259.9161C366.99775 1259.788 365.3138 1257.8963 365.442 1255.6908 365.5702 1253.4854 367.46195 1251.8014 369.66737 1251.9297L369.20317 1259.9161ZM385.455 1252.8018C387.6611 1252.9172 389.35588 1254.7993 389.24037 1257.0054 389.12489 1259.2116 387.24284 1260.9063 385.0367 1260.7908L385.455 1252.8018ZM400.90766 1261.5757C398.7009 1261.4729 396.99525 1259.6007 397.09794 1257.394 397.20066 1255.1873 399.07286 1253.4816 401.27958 1253.5844L400.90766 1261.5757ZM417.12974 1254.2756C419.33708 1254.3654 421.05366 1256.2276 420.96388 1258.4348 420.87406 1260.6422 419.0119 1262.3588 416.80458 1262.2689L417.12974 1254.2756ZM432.64848 1262.867C430.44068 1262.7902 428.71318 1260.9381 428.78999 1258.7302 428.8668 1256.5225 430.71885 1254.7949 432.92668 1254.8718L432.64848 1262.867ZM448.82008 1255.3775C451.0283 1255.441 452.7668 1257.2827 452.70317 1259.491 452.63954 1261.6992 450.7978 1263.4378 448.58958 1263.374L448.82008 1255.3775ZM464.41297 1263.783C462.2044 1263.7324 460.4549 1261.9011 460.50538 1259.6926 460.55583 1257.484 462.38713 1255.7346 464.59568 1255.785L464.41297 1263.783ZM480.48307 1256.0999C482.6919 1256.1369 484.45246 1257.9575 484.4154 1260.1664 484.37837 1262.3751 482.55775 1264.1358 480.3489 1264.0986L480.48307 1256.0999ZM496.19136 1264.3162C493.98234 1264.2926 492.2107 1262.4827 492.23429 1260.2737 492.25785 1258.0647 494.06773 1256.2931 496.27674 1256.3167L496.19136 1264.3162ZM512.1471 1256.4369C514.3562 1256.4468 516.13906 1258.2457 516.12918 1260.4548 516.1192 1262.664 514.3204 1264.4468 512.11129 1264.4369L512.1471 1256.4369ZM527.9762 1264.4585C525.7671 1264.4624 523.9731 1262.6747 523.9692 1260.4656 523.9653 1258.2564 525.753 1256.4624 527.9621 1256.4585L527.9762 1264.4585ZM543.81826 1256.3805C546.0273 1256.3627 547.8326 1258.1389 547.85049 1260.348 547.86837 1262.5571 546.092 1264.3623 543.88296 1264.3803L543.81826 1256.3805ZM559.7609 1264.2012C557.552 1264.2332 555.7354 1262.4684 555.7034 1260.2595 555.67147 1258.0505 557.43618 1256.234 559.6451 1256.202L559.7609 1264.2012ZM575.4889 1255.9213C577.6975 1255.875 579.5255 1257.6279 579.57186 1259.8367 579.6181 1262.0453 577.8652 1263.8733 575.65658 1263.9196L575.4889 1255.9213ZM591.53958 1263.5347C589.33126 1263.5955 587.4918 1261.8545 587.431 1259.6463 587.37026 1257.4379 589.1112 1255.5985 591.3195 1255.5377L591.53958 1263.5347ZM607.7432 1255.029C609.95108 1254.953 611.80258 1256.681 611.8787 1258.8889 611.95486 1261.0967 610.22677 1262.9483 608.0189 1263.0243L607.7432 1255.029ZM624.39956 1262.3983C622.1923 1262.4912 620.3277 1260.7774 620.2348 1258.5701 620.14187 1256.3629 621.8558 1254.4983 624.063 1254.4054L624.39956 1262.3983ZM640.57 1253.6401C642.7763 1253.5281 644.6557 1255.2257 644.7678 1257.432 644.8799 1259.6383 643.1822 1261.5177 640.9759 1261.6298L640.57 1253.6401ZM657.15927 1260.7315C654.9541 1260.8648 653.05856 1259.1852 652.9253 1256.98 652.79208 1254.7749 654.4716 1252.8793 656.67678 1252.7461L657.15927 1260.7315ZM673.2538 1251.6527C675.4572 1251.4946 677.3717 1253.1527 677.5298 1255.3561 677.6879 1257.5596 676.02987 1259.474 673.82638 1259.6322L673.2538 1251.6527ZM690.2799 1258.3478C688.0786 1258.5342 686.14309 1256.9009 685.9566 1254.6996 685.7702 1252.4983 687.40359 1250.5628 689.60488 1250.3764L690.2799 1258.3478ZM705.7793 1248.8893C707.9776 1248.6704 709.9371 1250.275 710.156 1252.4733 710.3749 1254.6715 708.7703 1256.6311 706.572 1256.85L705.7793 1248.8893ZM722.9342 1255.0807C720.74008 1255.3378 718.7529 1253.7675 718.49588 1251.5734 718.2388 1249.3793 719.809 1247.3922 722.0032 1247.135L722.9342 1255.0807ZM738.3074 1245.0582C740.4957 1244.7557 742.5149 1246.2846 742.8174 1248.4729 743.1199 1250.6613 741.59109 1252.6804 739.4028 1252.9829L738.3074 1245.0582ZM755.768 1250.5217C753.58779 1250.8779 751.5317 1249.399 751.17556 1247.2189 750.81948 1245.0386 752.2982 1242.9826 754.47848 1242.6264L755.768 1250.5217ZM770.51876 1239.7726C772.6877 1239.353 774.7861 1240.7711 775.2057 1242.9401 775.6253 1245.1089 774.2072 1247.2074 772.03829 1247.627L770.51876 1239.7726ZM788.1793 1244.2224C786.0261 1244.7166 783.8801 1243.3716 783.386 1241.2184 782.8919 1239.0652 784.2368 1236.9192 786.39 1236.425L788.1793 1244.2224ZM802.24307 1232.4575C804.37466 1231.8773 806.573 1233.135 807.15316 1235.2666 807.7333 1237.3982 806.4756 1239.5966 804.344 1240.1766L802.24307 1232.4575ZM820.2739 1235.4694C818.1695 1236.1415 815.91867 1234.9804 815.2465 1232.876 814.5744 1230.7716 815.7355 1228.5208 817.8399 1227.8486L820.2739 1235.4694ZM833.1978 1222.5844C835.2729 1221.8264 837.56948 1222.8943 838.32736 1224.9692 839.0852 1227.0443 838.0174 1229.341 835.9423 1230.0989L833.1978 1222.5844ZM851.3784 1224.181C849.32608 1224.9984 846.99966 1223.9973 846.18228 1221.9451 845.3648 1219.8927 846.3659 1217.5663 848.4182 1216.7489L851.3784 1224.181ZM863.6197 1210.5985C865.66659 1209.7676 867.9996 1210.7533 868.8305 1212.8002 869.66146 1214.847 868.6757 1217.18 866.6288 1218.011L863.6197 1210.5985ZM881.81137 1211.9735C879.7498 1212.7675 877.435 1211.7399 876.64108 1209.6784 875.8471 1207.6168 876.8747 1205.302 878.9362 1204.508L881.81137 1211.9735ZM894.53219 1198.7985C896.6204 1198.0778 898.8976 1199.1864 899.6183 1201.2747 900.339 1203.363 899.23037 1205.6401 897.1421 1206.3609L894.53219 1198.7985ZM912.5497 1201.3963C910.4333 1202.0297 908.20419 1200.8274 907.5708 1198.7109 906.93746 1196.5946 908.13967 1194.3655 910.25607 1193.732L912.5497 1201.3963ZM926.26437 1189.2992C928.4048 1188.7526 930.5831 1190.0446 931.1298 1192.1849 931.67648 1194.3253 930.38449 1196.5037 928.2441 1197.0504L926.26437 1189.2992ZM944.1785 1193.2957C942.0196 1193.764 939.8898 1192.3936 939.4214 1190.2346 938.953 1188.0757 940.3234 1185.9459 942.48239 1185.4776L944.1785 1193.2957ZM958.7174 1182.2251C960.88986 1181.8239 962.97616 1183.2597 963.3774 1185.4321 963.7786 1187.6045 962.3428 1189.6908 960.1704 1190.092L958.7174 1182.2251ZM976.28109 1187.3405C974.0989 1187.6847 972.05087 1186.1947 971.70669 1184.0126 971.3625 1181.8303 972.8525 1179.7824 975.0346 1179.4382L976.28109 1187.3405ZM991.3662 1177.0515C993.5554 1176.7555 995.57009 1178.2902 995.8661 1180.4794 996.1621 1182.6687 994.6274 1184.6834 992.4382 1184.9794L991.3662 1177.0515ZM1008.55819 1182.9559C1006.36386 1183.2113 1004.378 1181.6394 1004.1227 1179.4451 1003.8674 1177.2507 1005.4393 1175.2649 1007.6336 1175.0097L1008.55819 1182.9559ZM1023.95999 1173.2446C1026.1581 1173.0243 1028.1187 1174.6276 1028.3391 1176.8257 1028.5596 1179.0238 1026.9563 1180.9844 1024.7582 1181.2048L1023.95999 1173.2446ZM1041.1261 1179.6802C1038.925 1179.8703 1036.9868 1178.2401 1036.7968 1176.0392 1036.6066 1173.8383 1038.2367 1171.8999 1040.4378 1171.7098L1041.1261 1179.6802ZM1057.007 1170.3814C1059.21 1170.2178 1061.1286 1171.8711 1061.2922 1174.0741 1061.4558 1176.2772 1059.8026 1178.1958 1057.5995 1178.3594L1057.007 1170.3814ZM1073.7387 1177.2459C1071.5339 1177.3869 1069.6325 1175.7139 1069.4916 1173.5093 1069.3506 1171.3047 1071.0234 1169.4031 1073.2282 1169.2622L1073.7387 1177.2459ZM1089.813 1168.2804C1092.0189 1168.1599 1093.9048 1169.8504 1094.0253 1172.0563 1094.1459 1174.2621 1092.4553 1176.148 1090.2495 1176.2686L1089.813 1168.2804ZM1106.5416 1175.4458C1104.3348 1175.5485 1102.4628 1173.8428 1102.3601 1171.636 1102.2575 1169.4292 1103.9633 1167.5571 1106.1699 1167.4545L1106.5416 1175.4458ZM1122.6743 1166.747C1124.8818 1166.6598 1126.742 1168.3786 1126.8292 1170.5859 1126.9164 1172.7933 1125.1976 1174.6536 1122.9902 1174.7407L1122.6743 1166.747ZM1138.86 1174.1629C1136.6521 1174.2365 1134.8026 1172.5062 1134.729 1170.2984 1134.6554 1168.0905 1136.3856 1166.2409 1138.5935 1166.1672L1138.86 1174.1629ZM1154.5374 1165.6848C1156.7457 1165.6248 1158.5846 1167.3663 1158.6447 1169.5746 1158.7047 1171.783 1156.9631 1173.6218 1154.7549 1173.6819L1154.5374 1165.6848ZM1170.613 1173.2988C1168.4044 1173.3455 1166.576 1171.5928 1166.5294 1169.3842 1166.4828 1167.1755 1168.2355 1165.3473 1170.4441 1165.3007L1170.613 1173.2988ZM1186.4103 1165.0119C1188.6192 1164.9785 1190.4368 1166.7422 1190.4701 1168.951 1190.5033 1171.1599 1188.7396 1172.9776 1186.5308 1173.0109L1186.4103 1165.0119ZM1202.3665 1172.8197C1200.1574 1172.8399 1198.3504 1171.0653 1198.3302 1168.8562 1198.3102 1166.6472 1200.0847 1164.8401 1202.2937 1164.8201L1202.3665 1172.8197ZM1218.2858 1164.7227C1220.4949 1164.7158 1222.2913 1166.5011 1222.2981 1168.7102 1222.3049 1170.9193 1220.5197 1172.7158 1218.3106 1172.7227L1218.2858 1164.7227ZM1234.1426 1172.7203C1231.9335 1172.7141 1230.1476 1170.9182 1230.1538 1168.7091 1230.16 1166.5 1231.9559 1164.7141 1234.165 1164.7203L1234.1426 1172.7203ZM1250.1547 1164.8126C1252.3637 1164.8319 1254.1388 1166.6383 1254.1195 1168.8474 1254.1004 1171.0564 1252.2938 1172.8316 1250.0848 1172.8123L1250.1547 1164.8126ZM1265.9501 1172.9973C1263.7412 1172.9651 1261.9767 1171.1483 1262.0089 1168.9393 1262.0411 1166.7305 1263.8579 1164.966 1266.0668 1164.9982L1265.9501 1172.9973ZM1282.0053 1165.2772C1284.2139 1165.3224 1285.9678 1167.1494 1285.9226 1169.3582 1285.8776 1171.5668 1284.0504 1173.3207 1281.8418 1173.2756L1282.0053 1165.2772ZM1297.7461 1173.647C1295.5377 1173.589 1293.7946 1171.7517 1293.8526 1169.5433 1293.9105 1167.335 1295.7478 1165.5917 1297.9562 1165.6497L1297.7461 1173.647ZM1313.822 1166.1123C1316.03 1166.1831 1317.7627 1168.0304 1317.6919 1170.2384 1317.6211 1172.4464 1315.7738 1174.179 1313.5658 1174.1083L1313.822 1166.1123ZM1329.5147 1174.6659C1327.307 1174.5823 1325.5852 1172.7249 1325.6688 1170.5173 1325.7525 1168.3098 1327.6098 1166.588 1329.8174 1166.6716L1329.5147 1174.6659ZM1345.7066 1167.3192C1347.9136 1167.4155 1349.6246 1169.2827 1349.5283 1171.4898 1349.4319 1173.6968 1347.5647 1175.408 1345.3577 1175.3115L1345.7066 1167.3192ZM1361.2332 1176.0504C1359.0267 1175.9413 1357.3264 1174.0642 1357.4356 1171.8578 1357.5446 1169.6514 1359.4218 1167.951 1361.6282 1168.0602L1361.2332 1176.0504ZM1377.5759 1168.8947C1379.7817 1169.0165 1381.4711 1170.9033 1381.3493 1173.1091 1381.2274 1175.315 1379.3406 1177.0043 1377.1348 1176.8825L1377.5759 1168.8947ZM1392.9362 1177.8008C1390.7312 1177.6663 1389.0526 1175.7697 1389.1871 1173.5646 1389.3217 1171.3596 1391.2183 1169.6812 1393.4234 1169.8156L1392.9362 1177.8008ZM1409.3661 1170.8345C1411.5703 1170.9817 1413.2378 1172.8881 1413.0905 1175.0923 1412.9432 1177.2965 1411.0369 1178.964 1408.8327 1178.8167L1409.3661 1170.8345ZM1424.7086 1179.9238C1422.5054 1179.7637 1420.849 1177.8478 1421.009 1175.6444 1421.1692 1173.4412 1423.0851 1171.7848 1425.2885 1171.9448L1424.7086 1179.9238ZM1441.1244 1173.1416C1443.3268 1173.3145 1444.972 1175.24 1444.7992 1177.4424 1444.6262 1179.6448 1442.7008 1181.2899 1440.4984 1181.1171L1441.1244 1173.1416ZM1456.3463 1182.4077C1454.1449 1182.2219 1452.511 1180.2869 1452.6968 1178.0856 1452.8826 1175.8843 1454.8178 1174.2504 1457.019 1174.4362L1456.3463 1182.4077ZM1472.942 1175.8274C1475.1422 1176.0261 1476.7645 1177.971 1476.5658 1180.1712 1476.367 1182.3713 1474.4223 1183.9937 1472.222 1183.7949L1472.942 1175.8274ZM1488.0326 1185.2709C1485.8336 1185.0591 1484.2228 1183.1046 1484.4347 1180.9057 1484.6466 1178.7068 1486.601 1177.096 1488.7999 1177.3079L1488.0326 1185.2709ZM1504.6011 1178.8783C1506.7987 1179.1034 1508.3977 1181.0674 1508.1726 1183.2651 1507.9475 1185.4628 1505.9835 1187.0618 1503.7859 1186.8367L1504.6011 1178.8783ZM1519.5833 1188.5034C1517.387 1188.2649 1515.7999 1186.2911 1516.0385 1184.095 1516.277 1181.8987 1518.2509 1180.3118 1520.447 1180.5503L1519.5833 1188.5034ZM1536.3351 1182.3259C1538.5298 1182.5781 1540.1045 1184.5618 1539.8522 1186.7565 1539.6 1188.9512 1537.6163 1190.5259 1535.4216 1190.2736L1536.3351 1182.3259ZM1551.223 1192.1405C1549.0299 1191.8743 1547.4679 1189.8806 1547.7341 1187.6876 1548.0004 1185.4946 1549.994 1183.9326 1552.187 1184.1987L1551.223 1192.1405ZM1568.0127 1186.1721C1570.204 1186.4526 1571.7529 1188.4564 1571.4724 1190.6477 1571.1918 1192.839 1569.188 1194.388 1566.9968 1194.1073L1568.0127 1186.1721ZM1582.7505 1196.178C1580.5612 1195.8827 1579.0258 1193.8685 1579.3212 1191.6792 1579.6165 1189.4899 1581.6307 1187.9545 1583.82 1188.2499L1582.7505 1196.178ZM1599.6095 1190.436C1601.7968 1190.7467 1603.3179 1192.7717 1603.0071 1194.9589 1602.6964 1197.146 1600.6714 1198.6672 1598.4843 1198.3565L1599.6095 1190.436ZM1614.1798 1200.6452C1611.995 1200.3182 1610.4889 1198.2821 1610.8158 1196.0973 1611.1428 1193.9125 1613.179 1192.4064 1615.3638 1192.7333L1614.1798 1200.6452ZM1631.0231 1195.1393C1633.2052 1195.4835 1634.6951 1197.5315 1634.3508 1199.7138 1634.0066 1201.8959 1631.9585 1203.3858 1629.7764 1203.0415L1631.0231 1195.1393ZM1645.5836 1205.6057C1643.4047 1205.2422 1641.933 1203.1809 1642.2966 1201.002 1642.6603 1198.8229 1644.7214 1197.3513 1646.9004 1197.7149L1645.5836 1205.6057ZM1662.5687 1200.4094C1664.7439 1200.7953 1666.1943 1202.8715 1665.8084 1205.0466 1665.4225 1207.2218 1663.3463 1208.6724 1661.1712 1208.2864L1662.5687 1200.4094ZM1676.8108 1211.1657C1674.6412 1210.7493 1673.22 1208.653 1673.6364 1206.4834 1674.0526 1204.3139 1676.1489 1202.8926 1678.3185 1203.309L1676.8108 1211.1657ZM0 1208.7548C.884489 1204.8538 .884442 1204.8538 .884405 1204.8538 .884406 1204.8538 .884379 1204.8538 .884381 1204.8538 .884385 1204.8538 .884428 1204.8538 .884512 1204.8538 .884679 1204.8539 .885006 1204.8539 .885493 1204.854 .886466 1204.8543 .888077 1204.8546 .890325 1204.8551 .894822 1204.8561 .901868 1204.8577 .911458 1204.8599 .930637 1204.8643 .95999 1204.8709 .999468 1204.8796 1.078425 1204.8975 1.197883 1204.9242 1.357456 1204.9597 1.676604 1205.0309 2.156213 1205.1371 2.793196 1205.2764 4.067166 1205.555 5.970621 1205.9661 8.478874 1206.4938L6.831872 1214.3224C4.302393 1213.7903 2.378161 1213.3748 1.083878 1213.0917 .436735 1212.9501-.052925 1212.8417-.382014 1212.7683-.546559 1212.7317-.670961 1212.7039-.754836 1212.6849-.796773 1212.6755-.828578 1212.6683-.850203 1212.6635-.861016 1212.661-.869283 1212.6592-.874999 1212.658-.877858 1212.6572-.880078 1212.6567-.88166 1212.6564-.882451 1212.6563-.883082 1212.6561-.883554 1212.656-.883789 1212.6559-.883985 1212.6559-.884141 1212.6559-.884219 1212.6558-.884306 1212.6558-.884345 1212.6558-.884422 1212.6558-.884489 1212.6558 0 1208.7548ZM23.905348 1209.6294C28.468106 1210.5289 33.67592 1211.5337 39.498868 1212.6245L38.02594 1220.4877C32.17755 1219.3922 26.944903 1218.3826 22.357926 1217.4783L23.905348 1209.6294ZM55.041616 1215.4694C59.958 1216.3491 65.18207 1217.2654 70.70256 1218.2109L69.35197 1226.0961C63.811635 1225.1471 58.568078 1224.2274 53.63256 1223.3444L55.041616 1215.4694ZM86.36712 1220.8377C91.386287 1221.6616 96.6027 1222.5012 102.009929 1223.3524L100.76589 1231.2551C95.341098 1230.4011 90.107379 1229.5587 85.071178 1228.7319L86.36712 1220.8377ZM117.63865 1225.7619C122.70773 1226.5271 127.920047 1227.2982 133.2712 1228.0725L132.12555 1235.9901C126.758 1235.2134 121.52953 1234.4398 116.44453 1233.6723L117.63865 1225.7619ZM148.9268 1230.2899C154.04764 1230.9996 159.28061 1231.7097 164.62236 1232.418L163.5708 1240.3486C158.21329 1239.6382 152.96475 1238.926 147.82857 1238.2142L148.9268 1230.2899ZM180.37125 1234.4595C185.5432 1235.1148 190.80689 1235.7666 196.15958 1236.4133L195.19995 1244.3555C189.8318 1243.7069 184.55287 1243.0532 179.36585 1242.3961L180.37125 1234.4595ZM211.80974 1238.2593C216.9789 1238.8541 222.22382 1239.4431 227.54228 1240.0248L226.67259 1247.9773C221.33898 1247.394 216.07907 1246.8034 210.8951 1246.2068L211.80974 1238.2593ZM243.36067 1241.7094C248.53942 1242.2461 253.78237 1242.7749 259.08763 1243.2947L258.3076 1251.2565C252.98729 1250.7352 247.72946 1250.205 242.536 1249.6668L243.36067 1241.7094ZM274.8335 1244.7927C280.0605 1245.2753 285.34358 1245.7482 290.68107 1246.2106L289.99067 1254.1807C284.638 1253.717 279.33995 1253.2427 274.09815 1252.7588L274.8335 1244.7927ZM306.4165 1247.5292C311.6325 1247.9514 316.89695 1248.363 322.20838 1248.763L321.60774 1256.7404C316.28114 1256.3394 311.00169 1255.9266 305.77085 1255.503L306.4165 1247.5292ZM338.066 1249.9116C343.27174 1250.2738 348.51966 1250.6243 353.8085 1250.9622L353.2985 1258.9459C347.9944 1258.607 342.73139 1258.2556 337.51075 1257.8923L338.066 1249.9116ZM369.66737 1251.9297C374.8928 1252.2333 380.15577 1252.5243 385.455 1252.8018L385.0367 1260.7908C379.72203 1260.5126 374.44377 1260.2207 369.20317 1259.9161L369.66737 1251.9297ZM401.27958 1253.5844C406.52986 1253.8286 411.81364 1254.0593 417.12974 1254.2756L416.80458 1262.2689C411.47273 1262.0521 406.17335 1261.8207 400.90766 1261.5757L401.27958 1253.5844ZM432.92668 1254.8718C438.19486 1255.055 443.49305 1255.2239 448.82008 1255.3775L448.58958 1263.374C443.2465 1263.2201 437.93244 1263.0508 432.64848 1262.867L432.92668 1254.8718ZM464.59568 1255.785C469.86518 1255.9054 475.1613 1256.0106 480.48307 1256.0999L480.3489 1264.0986C475.01078 1264.0092 469.69847 1263.9037 464.41297 1263.783L464.59568 1255.785ZM496.27674 1256.3167C501.5435 1256.3728 506.83393 1256.4131 512.1471 1256.4369L512.11129 1264.4369C506.7814 1264.413 501.47447 1264.3726 496.19136 1264.3162L496.27674 1256.3167ZM527.9621 1256.4585C533.22677 1256.4492 538.51248 1256.4235 543.81826 1256.3805L543.88296 1264.3803C538.5601 1264.4234 533.25759 1264.4492 527.9762 1264.4585L527.9621 1256.4585ZM559.6451 1256.202C564.908 1256.1257 570.1896 1256.0324 575.4889 1255.9213L575.65658 1263.9196C570.3398 1264.031 565.04098 1264.1246 559.7609 1264.2012L559.6451 1256.202ZM591.3195 1255.5377C593.96646 1255.4649 596.61758 1255.3876 599.2727 1255.3057L599.51937 1263.3018C596.8553 1263.384 594.1953 1263.4616 591.53958 1263.5347L591.3195 1255.5377ZM599.2727 1255.3057C602.13137 1255.2174 604.95468 1255.1253 607.7432 1255.029L608.0189 1263.0243C605.2205 1263.1209 602.3875 1263.2134 599.51937 1263.3018L599.2727 1255.3057ZM624.063 1254.4054C629.71566 1254.1674 635.216 1253.9121 640.57 1253.6401L640.9759 1261.6298C635.598 1261.903 630.07449 1262.1594 624.39956 1262.3983L624.063 1254.4054ZM656.67678 1252.7461C662.378 1252.4016 667.9009 1252.0368 673.2538 1251.6527L673.82638 1259.6322C668.4423 1260.0186 662.8894 1260.3853 657.15927 1260.7315L656.67678 1252.7461ZM689.60488 1250.3764C695.19357 1249.9031 700.5812 1249.407 705.7793 1248.8893L706.572 1256.85C701.33309 1257.3717 695.90628 1257.8713 690.2799 1258.3478L689.60488 1250.3764ZM722.0032 1247.135C727.6785 1246.4701 733.1068 1245.7771 738.3074 1245.0582L739.4028 1252.9829C734.1451 1253.7096 728.662 1254.4096 722.9342 1255.0807L722.0032 1247.135ZM754.47848 1242.6264C760.1072 1241.707 765.44308 1240.7545 770.51876 1239.7726L772.03829 1247.627C766.8832 1248.6243 761.4706 1249.5903 755.768 1250.5217L754.47848 1242.6264ZM786.39 1236.425C791.9935 1235.1392 797.2575 1233.8145 802.24307 1232.4575L804.344 1240.1766C799.2542 1241.562 793.88638 1242.9129 788.1793 1244.2224L786.39 1236.425ZM817.8399 1227.8486C823.2254 1226.1286 828.3083 1224.3701 833.1978 1222.5844L835.9423 1230.0989C830.9631 1231.9174 825.77609 1233.712 820.2739 1235.4694L817.8399 1227.8486ZM848.4182 1216.7489C853.5316 1214.7122 858.53439 1212.6629 863.6197 1210.5985L866.6288 1218.011C861.5741 1220.063 856.5245 1222.1314 851.3784 1224.181L848.4182 1216.7489ZM878.9362 1204.508C883.9202 1202.5886 889.07968 1200.6803 894.53219 1198.7985L897.1421 1206.3609C891.7957 1208.2059 886.7263 1210.0807 881.81137 1211.9735L878.9362 1204.508ZM910.25607 1193.732C915.29739 1192.2234 920.61068 1190.7432 926.26437 1189.2992L928.2441 1197.0504C922.69668 1198.4672 917.48806 1199.9183 912.5497 1201.3963L910.25607 1193.732ZM942.48239 1185.4776C947.6181 1184.3633 953.0176 1183.2778 958.7174 1182.2251L960.1704 1190.092C954.54916 1191.1303 949.2308 1192.1995 944.1785 1193.2957L942.48239 1185.4776ZM975.0346 1179.4382C980.242 1178.6168 985.6789 1177.8206 991.3662 1177.0515L992.4382 1184.9794C986.8067 1185.7409 981.428 1186.5287 976.28109 1187.3405L975.0346 1179.4382ZM1007.6336 1175.0097C1012.87637 1174.3995 1018.31417 1173.8108 1023.95999 1173.2446L1024.7582 1181.2048C1019.1528 1181.7669 1013.75717 1182.3511 1008.55819 1182.9559L1007.6336 1175.0097ZM1040.4378 1171.7098C1045.7857 1171.248 1051.3058 1170.8048 1057.007 1170.3814L1057.5995 1178.3594C1051.9291 1178.7807 1046.4409 1179.2212 1041.1261 1179.6802L1040.4378 1171.7098ZM1073.2282 1169.2622C1078.6044 1168.9185 1084.1306 1168.591 1089.813 1168.2804L1090.2495 1176.2686C1084.591 1176.5778 1079.0894 1176.9037 1073.7387 1177.2459L1073.2282 1169.2622ZM1106.1699 1167.4545C1108.9661 1167.3245 1111.7977 1167.1983 1114.6654 1167.0759L1115.0062 1175.0687C1112.1487 1175.1906 1109.3274 1175.3163 1106.5416 1175.4458L1106.1699 1167.4545ZM1114.6654 1167.0759C1117.3405 1166.9619 1120.0101 1166.8523 1122.6743 1166.747L1122.9902 1174.7407C1120.3342 1174.8457 1117.6729 1174.955 1115.0062 1175.0687L1114.6654 1167.0759ZM1138.5935 1166.1672C1143.9314 1165.9894 1149.2462 1165.8287 1154.5374 1165.6848L1154.7549 1173.6819C1149.48 1173.8253 1144.1814 1173.9855 1138.86 1174.1629L1138.5935 1166.1672ZM1170.4441 1165.3007C1175.792 1165.1876 1181.1143 1165.0916 1186.4103 1165.0119L1186.5308 1173.0109C1181.2509 1173.0905 1175.9446 1173.1863 1170.613 1173.2988L1170.4441 1165.3007ZM1202.2937 1164.8201C1207.6531 1164.7714 1212.984 1164.7391 1218.2858 1164.7227L1218.3106 1172.7227C1213.0247 1172.739 1207.7097 1172.7711 1202.3665 1172.8197L1202.2937 1164.8201ZM1234.165 1164.7203C1239.5267 1164.7355 1244.8569 1164.7664 1250.1547 1164.8126L1250.0848 1172.8123C1244.8027 1172.7662 1239.4884 1172.7354 1234.1426 1172.7203L1234.165 1164.7203ZM1266.0668 1164.9982C1271.4148 1165.0762 1276.728 1165.1694 1282.0053 1165.2772L1281.8418 1173.2756C1276.58 1173.1681 1271.2825 1173.0751 1265.9501 1172.9973L1266.0668 1164.9982ZM1297.9562 1165.6497C1303.2838 1165.7897 1308.5729 1165.9441 1313.822 1166.1123L1313.5658 1174.1083C1308.3318 1173.9406 1303.0582 1173.7865 1297.7461 1173.647L1297.9562 1165.6497ZM1329.8174 1166.6716C1335.1577 1166.8738 1340.4546 1167.09 1345.7066 1167.3192L1345.3577 1175.3115C1340.121 1175.083 1334.8395 1174.8676 1329.5147 1174.6659L1329.8174 1166.6716ZM1361.6282 1168.0602C1366.9943 1168.3255 1372.3107 1168.6039 1377.5759 1168.8947L1377.1348 1176.8825C1371.8848 1176.5925 1366.5838 1176.3148 1361.2332 1176.0504L1361.6282 1168.0602ZM1393.4234 1169.8156C1398.7948 1170.1433 1404.1096 1170.4833 1409.3661 1170.8345L1408.8327 1178.8167C1403.5916 1178.4664 1398.2922 1178.1275 1392.9362 1177.8008L1393.4234 1169.8156ZM1425.2885 1171.9448C1430.6325 1172.3331 1435.9116 1172.7324 1441.1244 1173.1416L1440.4984 1181.1171C1435.3009 1180.7091 1430.0371 1180.3109 1424.7086 1179.9238L1425.2885 1171.9448ZM1457.019 1174.4362C1462.4042 1174.8906 1467.7124 1175.3549 1472.942 1175.8274L1472.222 1183.7949C1467.008 1183.3237 1461.7155 1182.861 1456.3463 1182.4077L1457.019 1174.4362ZM1488.7999 1177.3079C1494.1582 1177.8242 1499.426 1178.3483 1504.6011 1178.8783L1503.7859 1186.8367C1498.6267 1186.3082 1493.3748 1185.7858 1488.0326 1185.2709L1488.7999 1177.3079ZM1520.447 1180.5503C1525.8566 1181.1378 1531.1536 1181.7304 1536.3351 1182.3259L1535.4216 1190.2736C1530.2565 1189.6799 1524.9761 1189.0892 1519.5833 1188.5034L1520.447 1180.5503ZM1552.187 1184.1987C1557.6067 1184.8567 1562.8833 1185.5154 1568.0127 1186.1721L1566.9968 1194.1073C1561.8844 1193.4528 1556.6251 1192.7963 1551.223 1192.1405L1552.187 1184.1987ZM1583.82 1188.2499C1589.28 1188.9863 1594.5452 1189.7164 1599.6095 1190.436L1598.4843 1198.3565C1593.4382 1197.6395 1588.1917 1196.912 1582.7505 1196.178L1583.82 1188.2499ZM1615.3638 1192.7333C1620.8821 1193.5591 1626.1051 1194.3634 1631.0231 1195.1393L1629.7764 1203.0415C1624.879 1202.2689 1619.6768 1201.4678 1614.1798 1200.6452L1615.3638 1192.7333ZM1646.9004 1197.7149C1652.7474 1198.6906 1657.9793 1199.5951 1662.5687 1200.4094L1661.1712 1208.2864C1656.6079 1207.4768 1651.4031 1206.5769 1645.5836 1205.6057L1646.9004 1197.7149ZM1678.3185 1203.309C1680.8544 1203.7957 1682.7819 1204.1773 1684.0781 1204.4378 1684.7262 1204.568 1685.2166 1204.668 1685.5462 1204.7357 1685.7109 1204.7695 1685.8356 1204.7953 1685.9197 1204.8128 1685.9617 1204.8215 1685.9937 1204.8281 1686.0154 1204.8328 1686.0263 1204.835 1686.0346 1204.8367 1686.0403 1204.8379 1686.0432 1204.8385 1686.0454 1204.839 1686.0471 1204.8394 1686.0479 1204.8395 1686.0486 1204.8396 1686.0491 1204.8397 1686.0493 1204.8399 1686.0494 1204.8399 1686.0497 1204.8399L1686.0498 1204.84C1686.0499 1204.84 1686.05 1204.84 1685.2289 1208.7548 1684.4078 1212.6696 1684.4078 1212.6696 1684.408 1212.6696 1684.408 1212.6697 1684.408 1212.6696 1684.4078 1212.6696 1684.4077 1212.6696 1684.4074 1212.6694 1684.4069 1212.6694 1684.406 1212.6692 1684.4044 1212.6688 1684.4022 1212.6685 1684.3977 1212.6675 1684.3908 1212.666 1684.3812 1212.6641 1684.3622 1212.66 1684.333 1212.6539 1684.2937 1212.6458 1684.215 1212.6295 1684.0958 1212.6049 1683.9365 1212.5722 1683.6179 1212.5067 1683.1387 1212.4089 1682.5018 1212.2809 1681.228 1212.0249 1679.3234 1211.6478 1676.8108 1211.1657L1678.3185 1203.309Z" fill="#ff9c77"/>
</g>
</g>
</g>
<path transform="matrix(.183839,.982956,.982956,-.183839,21.683814,101.76033)" d="M24 16.00293C24 9.375513 18.627417 4.00293 12 4.00293 5.372583 4.00293 0 9.375513 0 16.00293 0 22.630347 5.372583 28.00293 12 28.00293 18.627417 28.00293 24 22.630347 24 16.00293Z" fill="#7e1cc4"/>
</g>
</svg>
