<svg xmlns="http://www.w3.org/2000/svg" xmlns:xlink="http://www.w3.org/1999/xlink" version="1.1" width="36.751466pt" height="122pt" viewBox="0 0 36.751466 122">
<defs>
<mask id="mask_0">
<g>
<clipPath id="clip_1">
<path transform="matrix(1,0,0,-1,0,122)" d="M0 0H36.751466V122H0Z"/>
</clipPath>
<g clip-path="url(#clip_1)">
<path transform="matrix(1,0,0,-1,0,126.14453)" d="M0 102.62067 23.766509 105.62793 36.751504 3.007103 12.984998-.00016 0 102.62067Z" fill="#d9d9d9"/>
</g>
</g>
"/>
</mask>
<clipPath id="clip_2">
<path transform="matrix(1,0,0,-1,0,122)" d="M0 0H36.751466V122H0Z"/>
</clipPath>
</defs>
<g>
<g mask="url(#mask_0)">
<g>
<g clip-path="url(#clip_2)">
<path transform="matrix(.170206,.985408,-.985408,.170206,1303.7306,-1499.9507)" d="M1074.306 1529.5962 1074.4828 1533.5923 1074.306 1529.5962ZM577.60507 1617.8276 577.73306 1621.8256 577.60507 1617.8276ZM8.601274 1565.105C10.759776 1565.5753 12.128352 1567.7063 11.658073 1569.8649 11.187796 1572.0233 9.056747 1573.392 6.898245 1572.9216L8.601274 1565.105ZM22.742302 1576.2525C20.577599 1575.8115 19.180142 1573.6994 19.620997 1571.5347 20.061852 1569.37 22.174075 1567.9725 24.338778 1568.4133L22.742302 1576.2525ZM40.117658 1571.5413C42.2867 1571.9602 43.70542 1574.0582 43.286458 1576.2273 42.86749 1578.3964 40.76949 1579.8151 38.600446 1579.3961L40.117658 1571.5413ZM54.581979 1582.409C52.409345 1582.0092 50.972288 1579.9236 51.372228 1577.751 51.772169 1575.5784 53.85765 1574.1414 56.030286 1574.5413L54.581979 1582.409ZM71.8978 1577.3963C74.07354 1577.7789 75.52711 1579.8529 75.14443 1582.0287 74.761768 1584.2044 72.68775 1585.658 70.51201 1585.2753L71.8978 1577.3963ZM86.40921 1588.01C84.23069 1587.6436 82.76178 1585.5803 83.12832 1583.4019 83.49485 1581.2233 85.55802 1579.7544 87.73654 1580.121L86.40921 1588.01ZM103.630977 1582.7369C105.812038 1583.088 107.29551 1585.1408 106.944408 1587.3218 106.59331 1589.5028 104.54059 1590.9863 102.35953 1590.6353L103.630977 1582.7369ZM118.34313 1593.152C116.15973 1592.8158 114.66226 1590.7732 114.99845 1588.5899 115.33464 1586.4064 117.37718 1584.9089 119.560588 1585.2451L118.34313 1593.152ZM135.5229 1587.6484C137.7085 1587.9701 139.21952 1590.0026 138.89785 1592.1882 138.57619 1594.3738 136.54364 1595.8848 134.35805 1595.5631L135.5229 1587.6484ZM150.40935 1597.872C148.22171 1597.5646 146.69748 1595.5419 147.00492 1593.3543 147.31233 1591.1666 149.33498 1589.6423 151.52263 1589.9498L150.40935 1597.872ZM167.4702 1592.1389C169.65976 1592.4324 171.19686 1594.4452 170.90338 1596.6348 170.60993 1598.8244 168.59703 1600.3615 166.40747 1600.068L167.4702 1592.1389ZM182.38936 1602.1588C180.198 1601.8792 178.64829 1599.876 178.92798 1597.6846 179.20769 1595.4932 181.21088 1593.9435 183.40224 1594.2232L182.38936 1602.1588ZM199.38474 1596.2124C201.5778 1596.4785 203.13997 1598.4719 202.87397 1600.665 202.60794 1602.858 200.61446 1604.4203 198.42139 1604.1542L199.38474 1596.2124ZM214.51227 1606.0553C212.3176 1605.803 210.74306 1603.8192 210.99546 1601.6245 211.24784 1599.4298 213.23157 1597.8554 215.42626 1598.1077L214.51227 1606.0553ZM231.50351 1599.9061C233.6997 1600.1449 235.2865 1602.1189 235.04772 1604.3151 234.80892 1606.5112 232.83498 1608.098 230.63878 1607.8593L231.50351 1599.9061ZM246.64507 1609.5499C244.44745 1609.3247 242.8486 1607.3605 243.07393 1605.1629 243.29926 1602.9652 245.26345 1601.3663 247.46106 1601.5917L246.64507 1609.5499ZM263.4991 1603.1863C265.69807 1603.3982 267.30897 1605.3524 267.09718 1607.5514 266.88536 1609.7504 264.93104 1611.3613 262.73207 1611.1494L263.4991 1603.1863ZM278.89958 1612.6564C276.69935 1612.4581 275.07643 1610.5139 275.27464 1608.3136 275.47285 1606.1134 277.41719 1604.4905 279.6174 1604.6887L278.89958 1612.6564ZM295.62205 1606.081C297.82347 1606.2658 299.4583 1608.2001 299.27363 1610.4015 299.0889 1612.6029 297.1546 1614.2377 294.9532 1614.053L295.62205 1606.081ZM311.0608 1615.3544C308.85829 1615.1834 307.2115 1613.2592 307.3826 1611.0567 307.55369 1608.8541 309.47789 1607.2074 311.6804 1607.3784L311.0608 1615.3544ZM327.82795 1608.5823C330.03147 1608.7396 331.69023 1610.6535 331.53288 1612.8569 331.3755 1615.0606 329.4616 1616.7192 327.2581 1616.5619L327.82795 1608.5823ZM343.32139 1617.6589C341.1169 1617.5153 339.44633 1615.6117 339.58998 1613.4072 339.73365 1611.2028 341.63719 1609.5322 343.84165 1609.6758L343.32139 1617.6589ZM359.94154 1610.6743C362.14686 1610.8041 363.8294 1612.6972 363.6996 1614.9025 363.56977 1617.1078 361.67677 1618.7903 359.47145 1618.6605L359.94154 1610.6743ZM375.6453 1619.5613C373.43919 1619.4454 371.7447 1617.5631 371.86054 1615.3569 371.97639 1613.1509 373.8587 1611.4564 376.0648 1611.5723L375.6453 1619.5613ZM392.1215 1612.3644C394.32829 1612.4662 396.03468 1614.3377 395.93284 1616.5444 395.83103 1618.7512 393.9595 1620.4577 391.75273 1620.3558L392.1215 1612.3644ZM407.9572 1621.0514C405.74983 1620.9638 404.0314 1619.1033 404.11903 1616.8959 404.20664 1614.6885 406.0671 1612.9701 408.2745 1613.0576L407.9572 1621.0514ZM424.34385 1613.6436C426.5518 1613.7169 428.2822 1615.5663 428.20884 1617.7742 428.13548 1619.9822 426.28614 1621.7125 424.07823 1621.6392L424.34385 1613.6436ZM440.25044 1622.1235C438.04209 1622.0647 436.29963 1620.2267 436.35853 1618.0183 436.41743 1615.81 438.2554 1614.0675 440.46376 1614.1265L440.25044 1622.1235ZM456.591 1614.5033C458.79969 1614.5476 460.5543 1616.374 460.50999 1618.5828 460.46568 1620.7915 458.63926 1622.546 456.43058 1622.5017L456.591 1614.5033ZM472.57499 1622.7719C470.36607 1622.7423 468.59934 1620.9276 468.6289 1618.7186 468.6585 1616.5098 470.47319 1614.743 472.68214 1614.7726L472.57499 1622.7719ZM488.84959 1614.9345C491.0587 1614.9491 492.83766 1616.7518 492.82304 1618.9608 492.80839 1621.1699 491.0057 1622.949 488.79664 1622.9343L488.84959 1614.9345ZM504.91734 1622.9863C502.7082 1622.9867 500.917 1621.1962 500.9166 1618.987 500.91618 1616.7778 502.7067 1614.9867 504.91584 1614.9863L504.91734 1622.9863ZM521.06997 1614.9275C523.27908 1614.9118 525.0826 1616.6898 525.0983 1618.8989 525.114 1621.108 523.33596 1622.9116 521.12686 1622.9273L521.06997 1614.9275ZM537.2664 1622.7564C535.0575 1622.7875 533.2416 1621.022 533.21047 1618.8131 533.1793 1616.6041 534.94479 1614.7882 537.1537 1614.7571L537.2664 1622.7564ZM553.28457 1614.4727C555.49319 1614.4259 557.32156 1616.1785 557.36837 1618.3871 557.41519 1620.5957 555.6626 1622.4241 553.454 1622.471L553.28457 1614.4727ZM569.6126 1622.0707C567.40438 1622.1333 565.5635 1620.394 565.5008 1618.1858 565.4382 1615.9776 567.17758 1614.1366 569.3858 1614.074L569.6126 1622.0707ZM585.65048 1613.5527C587.8582 1613.4738 589.712 1615.1995 589.79098 1617.4072 589.86996 1619.6149 588.1443 1621.4686 585.9366 1621.5476L585.65048 1613.5527ZM601.74606 1620.9205C599.539 1621.017 597.67166 1619.306 597.5752 1617.099 597.4787 1614.892 599.18966 1613.0245 601.39669 1612.9281L601.74606 1620.9205ZM617.3252 1612.1614C619.5313 1612.0449 621.414 1613.739 621.5304 1615.9451 621.6467 1618.1511 619.9527 1620.0339 617.74667 1620.1503L617.3252 1612.1614ZM633.3702 1619.2496C631.1654 1619.388 629.26589 1617.7128 629.1275 1615.5079 628.98916 1613.3032 630.6643 1611.4037 632.8691 1611.2653L633.3702 1619.2496ZM648.8559 1610.17C651.05899 1610.0057 652.97799 1611.6586 653.1422 1613.8616 653.3064 1616.0646 651.6536 1617.9837 649.4506 1618.1478L648.8559 1610.17ZM665.3332 1616.8598C663.13259 1617.0535 661.19168 1615.4264 660.998 1613.2258 660.8044 1611.0252 662.4314 1609.0842 664.632 1608.8906L665.3332 1616.8598ZM680.23678 1607.3998C682.43417 1607.1724 684.39987 1608.7693 684.62728 1610.9667 684.8547 1613.1641 683.2577 1615.1299 681.0603 1615.3573L680.23678 1607.3998ZM696.8382 1613.5841C694.6452 1613.8511 692.651 1612.2899 692.384 1610.0969 692.1169 1607.904 693.6781 1605.9098 695.87106 1605.6427L696.8382 1613.5841ZM711.59146 1603.5613C713.77816 1603.2471 715.8055 1604.765 716.1197 1606.9517 716.4339 1609.1384 714.91598 1611.1658 712.72927 1611.48L711.59146 1603.5613ZM728.51718 1609.0116C726.3392 1609.3815 724.2738 1607.9157 723.90396 1605.7377 723.5341 1603.5597 724.9999 1601.4944 727.1778 1601.1245L728.51718 1609.0116ZM742.6303 1598.266C744.7961 1597.8303 746.90499 1599.2329 747.34066 1601.3986 747.7763 1603.5643 746.3738 1605.6732 744.208 1606.1089L742.6303 1598.266ZM759.767 1602.6965C757.6182 1603.2092 755.46066 1601.8829 754.9479 1599.7341 754.4352 1597.5853 755.76156 1595.4277 757.91036 1594.915L759.767 1602.6965ZM773.1732 1590.9434C775.2989 1590.3419 777.5097 1591.5775 778.1112 1593.7031 778.7127 1595.8289 777.4771 1598.0397 775.35147 1598.6411L773.1732 1590.9434ZM790.6821 1593.9321C788.58547 1594.628 786.32168 1593.4926 785.62576 1591.3959 784.9299 1589.2992 786.06539 1587.0354 788.16207 1586.3395L790.6821 1593.9321ZM802.9165 1581.0855C804.98208 1580.3019 807.2916 1581.3412 808.07516 1583.4067 808.85867 1585.4723 807.81936 1587.7819 805.7538 1588.5653L802.9165 1581.0855ZM820.5822 1582.6632C818.54067 1583.5072 816.2015 1582.5364 815.3575 1580.4949 814.5135 1578.4533 815.4843 1576.114 817.5259 1575.27L820.5822 1582.6632ZM832.1177 1569.1433C834.15359 1568.2857 836.4992 1569.2409 837.3568 1571.2766 838.2145 1573.3125 837.25936 1575.6582 835.2235 1576.5159L832.1177 1569.1433ZM849.7968 1570.5012C847.74557 1571.3213 845.41787 1570.3233 844.5978 1568.272 843.7777 1566.2207 844.7758 1563.893 846.8271 1563.0729L849.7968 1570.5012ZM861.81478 1557.3756C863.89437 1556.6303 866.18447 1557.7117 866.92996 1559.7913 867.67538 1561.8709 866.5939 1564.161 864.5143 1564.9064L861.81478 1557.3756ZM879.32327 1559.9491C877.21377 1560.6051 874.97189 1559.4269 874.31588 1557.3174 873.65988 1555.2079 874.83816 1552.966 876.94766 1552.3099L879.32327 1559.9491ZM892.3599 1547.8744C894.49508 1547.3076 896.6855 1548.579 897.2524 1550.7141 897.8192 1552.8494 896.54788 1555.0398 894.41268 1555.6066L892.3599 1547.8744ZM909.74508 1551.851C907.5901 1552.337 905.4491 1550.984 904.963 1548.829 904.477 1546.6741 905.82998 1544.5331 907.985 1544.047L909.74508 1551.851ZM923.65176 1540.7844C925.8212 1540.3679 927.9176 1541.7891 928.3341 1543.9586 928.7506 1546.1282 927.32949 1548.2245 925.16 1548.641L923.65176 1540.7844ZM940.6834 1545.8854C938.5034 1546.2428 936.4464 1544.7651 936.08908 1542.5851 935.7317 1540.405 937.2092 1538.3482 939.3893 1537.9907L940.6834 1545.8854ZM955.13137 1535.5999C957.319 1535.2924 959.3416 1536.8167 959.64907 1539.0043 959.9565 1541.1919 958.43228 1543.2146 956.2446 1543.522L955.13137 1535.5999ZM971.7905 1541.4943C969.59738 1541.7594 967.6045 1540.1964 967.3393 1538.0033 967.07418 1535.81 968.63717 1533.8173 970.8303 1533.5521L971.7905 1541.4943ZM986.5878 1531.7824C988.7851 1531.5535 990.75186 1533.149 990.9807 1535.3463 991.2096 1537.5436 989.61398 1539.5104 987.4167 1539.7393L986.5878 1531.7824ZM1003.2066 1538.2116C1001.0063 1538.4088 999.06259 1536.7852 998.8652 1534.5848 998.66787 1532.3845 1000.2915 1530.4409 1002.4918 1530.2435L1003.2066 1538.2116ZM1018.47689 1528.9124C1020.6795 1528.7424 1022.6028 1530.3903 1022.7727 1532.5929 1022.94259 1534.7955 1021.29476 1536.7188 1019.09219 1536.8887L1018.47689 1528.9124ZM1034.6658 1535.773C1032.4614 1535.9192 1030.5559 1534.251 1030.4096 1532.0466 1030.2632 1529.8424 1031.9315 1527.9368 1034.1359 1527.7904L1034.6658 1535.773ZM1050.1438 1526.8067C1052.3494 1526.6817 1054.2388 1528.3682 1054.3639 1530.5737 1054.489 1532.7793 1052.8024 1534.6687 1050.5968 1534.7938L1050.1438 1526.8067ZM1066.3156 1533.97C1064.109 1534.0764 1062.2339 1532.374 1062.1273 1530.1675 1062.0209 1527.9609 1063.7233 1526.0858 1065.9298 1525.9793L1066.3156 1533.97ZM1082.3032 1525.2526C1084.5105 1525.1625 1086.3729 1526.8788 1086.463 1529.086 1086.5531 1531.2935 1084.8367 1533.1558 1082.6294 1533.2459L1082.3032 1525.2526ZM1098.8163 1532.6403C1096.6084 1532.7155 1094.7577 1530.9865 1094.6825 1528.7787 1094.6074 1526.5708 1096.3363 1524.7201 1098.5442 1524.6449L1098.8163 1532.6403ZM1114.8308 1524.1458C1117.0391 1524.0855 1118.8782 1525.8268 1118.9384 1528.0352 1118.9987 1530.2435 1117.2573 1532.0825 1115.049 1532.1428L1114.8308 1524.1458ZM1131.2059 1531.7559C1128.9972 1531.8014 1127.1698 1530.0479 1127.1243 1527.8391 1127.0787 1525.6305 1128.8323 1523.8031 1131.0409 1523.7576L1131.2059 1531.7559ZM1147.3624 1523.4752C1149.5714 1523.4443 1151.3871 1525.2101 1151.418 1527.419 1151.4489 1529.6279 1149.6831 1531.4436 1147.4743 1531.4745L1147.3624 1523.4752ZM1163.6517 1531.3016C1161.4426 1531.318 1159.6386 1529.5404 1159.6222 1527.3313 1159.6058 1525.1222 1161.3834 1523.3181 1163.5925 1523.3018L1163.6517 1531.3016ZM1179.8855 1523.2346C1182.0947 1523.2327 1183.8871 1525.0221 1183.8889 1527.2312 1183.8909 1529.4403 1182.1015 1531.2327 1179.8923 1531.2346L1179.8855 1523.2346ZM1196.1111 1531.2736C1193.902 1531.2611 1192.1212 1529.4601 1192.1337 1527.251 1192.1463 1525.0419 1193.9472 1523.2612 1196.1563 1523.2737L1196.1111 1531.2736ZM1212.3845 1523.4177C1214.5935 1523.4445 1216.3626 1525.257 1216.3358 1527.4658 1216.3091 1529.6748 1214.4967 1531.444 1212.2877 1531.4172L1212.3845 1523.4177ZM1228.5512 1531.6665C1226.3424 1531.6256 1224.5851 1529.8018 1224.6261 1527.593 1224.6671 1525.3843 1226.4909 1523.627 1228.6997 1523.668L1228.5512 1531.6665ZM1244.9235 1524.021C1247.132 1524.076 1248.8776 1525.911 1248.8224 1528.1195 1248.7673 1530.3279 1246.9324 1532.0736 1244.7239 1532.0184L1244.9235 1524.021ZM1260.9513 1532.4754C1258.7433 1532.4061 1257.0094 1530.56 1257.0786 1528.3519 1257.1478 1526.1439 1258.9939 1524.41 1261.202 1524.4793L1260.9513 1532.4754ZM1277.4805 1525.0415C1279.6881 1525.1249 1281.4102 1526.9819 1281.3269 1529.1896 1281.2435 1531.3971 1279.3865 1533.1192 1277.1788 1533.0359L1277.4805 1525.0415ZM1293.3179 1533.6959C1291.1109 1533.5988 1289.4005 1531.7307 1289.4978 1529.5237 1289.5951 1527.3168 1291.463 1525.6065 1293.67 1525.7037L1293.3179 1533.6959ZM1309.9707 1526.474C1312.177 1526.5853 1313.8754 1528.4641 1313.764 1530.6705 1313.6527 1532.8768 1311.7739 1534.5752 1309.5676 1534.4639L1309.9707 1526.474ZM1325.7737 1535.333C1323.568 1535.2077 1321.8816 1533.3181 1322.007 1531.1126 1322.1322 1528.907 1324.0217 1527.2206 1326.2274 1527.3458L1325.7737 1535.333ZM1342.4039 1528.316C1344.6087 1528.4553 1346.2831 1530.3555 1346.1439 1532.5603 1346.0046 1534.765 1344.1045 1536.4395 1341.8998 1536.3002L1342.4039 1528.316ZM1358.1184 1537.3762C1355.9146 1537.223 1354.2523 1535.3121 1354.4055 1533.1084 1354.5588 1530.9046 1356.4696 1529.2423 1358.6735 1529.3955L1358.1184 1537.3762ZM1374.928 1530.5781C1377.1307 1530.7455 1378.7808 1532.6669 1378.6134 1534.8696 1378.4462 1537.0724 1376.5248 1538.7224 1374.3219 1538.5552L1374.928 1530.5781ZM1390.4607 1539.833C1388.259 1539.6516 1386.6213 1537.7197 1386.8027 1535.5181 1386.9841 1533.3163 1388.916 1531.6786 1391.1177 1531.86L1390.4607 1539.833ZM1407.2586 1533.2421C1409.459 1533.4376 1411.0844 1535.3799 1410.8888 1537.5805 1410.6932 1539.7809 1408.751 1541.4063 1406.5505 1541.2107L1407.2586 1533.2421ZM1422.7643 1542.7046C1420.5652 1542.4948 1418.9525 1540.5419 1419.1625 1538.3428 1419.3723 1536.1436 1421.3252 1534.531 1423.5243 1534.7409L1422.7643 1542.7046ZM1439.7432 1536.3424C1441.9408 1536.5668 1443.5405 1538.5302 1443.3163 1540.7279 1443.0919 1542.9257 1441.1284 1544.5254 1438.9308 1544.301L1439.7432 1536.3424ZM1455.0576 1546.0012C1452.8615 1545.7623 1451.2748 1543.7882 1451.5137 1541.592 1451.7526 1539.3959 1453.7267 1537.8092 1455.9229 1538.0482L1455.0576 1546.0012ZM1472.0736 1539.8604C1474.2681 1540.1141 1475.8414 1542.0989 1475.5877 1544.2933 1475.3339 1546.4879 1473.3491 1548.0612 1471.1547 1547.8074L1472.0736 1539.8604ZM1487.2332 1549.7225C1485.0404 1549.4537 1483.4808 1547.4581 1483.7498 1545.2655 1484.0186 1543.0728 1486.014 1541.5132 1488.2068 1541.782L1487.2332 1549.7225ZM1504.3348 1543.8173C1506.5255 1544.1017 1508.071 1546.1082 1507.7866 1548.2988 1507.5023 1550.4896 1505.4957 1552.035 1503.305 1551.7507L1504.3348 1543.8173ZM1519.3798 1553.8966C1517.1912 1553.5962 1515.6604 1551.5785 1515.9608 1549.3899 1516.2611 1547.2013 1518.2788 1545.6705 1520.4675 1545.971L1519.3798 1553.8966ZM1536.6072 1548.2479C1538.7935 1548.565 1540.3088 1550.5942 1539.9918 1552.7805 1539.6748 1554.9668 1537.6455 1556.4822 1535.4592 1556.1652L1536.6072 1548.2479ZM1551.5254 1558.5599C1549.3417 1558.2255 1547.8427 1556.184 1548.1773 1554.0004 1548.5117 1551.8167 1550.5532 1550.3176 1552.7368 1550.6522L1551.5254 1558.5599ZM1568.794 1553.1818C1570.9746 1553.535 1572.456 1555.5892 1572.1029 1557.7699 1571.7496 1559.9506 1569.6954 1561.432 1567.5147 1561.0789L1568.794 1553.1818ZM1583.4806 1563.7411C1581.3032 1563.3672 1579.8413 1561.2991 1580.2152 1559.1218 1580.589 1556.9446 1582.6571 1555.4827 1584.8344 1555.8565L1583.4806 1563.7411ZM1600.7742 1558.6804C1602.9472 1559.0781 1604.3864 1561.1621 1603.9888 1563.3351 1603.5911 1565.5082 1601.5071 1566.9474 1599.3341 1566.5498L1600.7742 1558.6804ZM1615.3818 1569.6019C1613.215 1569.1715 1611.8073 1567.0662 1612.2377 1564.8993 1612.668 1562.7326 1614.7734 1561.3248 1616.9402 1561.7551L1615.3818 1569.6019ZM0 1567.2787C.916138 1563.385 .916087 1563.385 .916047 1563.385 .916047 1563.385 .916017 1563.385 .916018 1563.385 .916018 1563.385 .916059 1563.385 .91614 1563.385 .916303 1563.385 .916627 1563.3851 .917113 1563.3853 .918085 1563.3855 .919703 1563.3859 .921967 1563.3864 .926494 1563.3875 .933604 1563.3892 .94329 1563.3914 .962662 1563.3959 .992338 1563.4028 1.032269 1563.4122 1.112129 1563.4308 1.233007 1563.4589 1.3945 1563.4962 1.717487 1563.5708 2.202935 1563.6824 2.847641 1563.8285 4.137055 1564.1209 6.063479 1564.5521 8.601274 1565.105L6.898245 1572.9216C4.337925 1572.3638 2.38947 1571.9277 1.078532 1571.6305 .423062 1571.4818-.073032 1571.3679-.406545 1571.2909-.573301 1571.2523-.699413 1571.223-.784478 1571.2031-.827011 1571.1932-.859282 1571.1857-.881242 1571.1806-.892222 1571.178-.900624 1571.176-.906442 1571.1747-.909351 1571.174-.911614 1571.1735-.91323 1571.1731-.914038 1571.1729-.914685 1571.1727-.915169 1571.1726-.915412 1571.1725-.915613 1571.1725-.915775 1571.1725-.915856 1571.1725-.915946 1571.1724-.915987 1571.1724-.916067 1571.1724-.916138 1571.1724 0 1567.2787ZM24.338778 1568.4133C28.959563 1569.3544 34.229516 1570.4039 40.117658 1571.5413L38.600446 1579.3961C32.685216 1578.2536 27.388836 1577.1987 22.742302 1576.2525L24.338778 1568.4133ZM56.030286 1574.5413C61.013658 1575.4586 66.30673 1576.4129 71.8978 1577.3963L70.51201 1585.2753C64.89971 1584.2882 59.585798 1583.3302 54.581979 1582.409L56.030286 1574.5413ZM87.73654 1580.121C92.83723 1580.9791 98.13763 1581.8527 103.630977 1582.7369L102.35953 1590.6353C96.84725 1589.7479 91.52821 1588.8713 86.40921 1588.01L87.73654 1580.121ZM119.560588 1585.2451C124.736789 1586.0421 130.05913 1586.8442 135.5229 1587.6484L134.35805 1595.5631C128.87648 1594.7564 123.536609 1593.9517 118.34313 1593.152L119.560588 1585.2451ZM151.52263 1589.9498C156.72666 1590.6812 162.04369 1591.4116 167.4702 1592.1389L166.40747 1600.068C160.96389 1599.3384 155.63 1598.6056 150.40935 1597.872L151.52263 1589.9498ZM183.40224 1594.2232C188.639 1594.8916 193.96746 1595.5553 199.38474 1596.2124L198.42139 1604.1542C192.98738 1603.4951 187.64244 1602.8294 182.38936 1602.1588L183.40224 1594.2232ZM215.42626 1598.1077C220.70919 1598.7152 226.06906 1599.3152 231.50351 1599.9061L230.63878 1607.8593C225.18772 1607.2666 219.81142 1606.6647 214.51227 1606.0553L215.42626 1598.1077ZM247.46106 1601.5917C252.74294 1602.1333 258.08964 1602.6653 263.4991 1603.1863L262.73207 1611.1494C257.3061 1610.6268 251.94307 1610.0932 246.64507 1609.5499L247.46106 1601.5917ZM279.6174 1604.6887C284.8975 1605.1643 290.23295 1605.6289 295.62205 1606.081L294.9532 1614.053C289.54759 1613.5995 284.1958 1613.1336 278.89958 1612.6564L279.6174 1604.6887ZM311.6804 1607.3784C317.01454 1607.7929 322.39759 1608.1945 327.82795 1608.5823L327.2581 1616.5619C321.81098 1616.173 316.41133 1615.77 311.0608 1615.3544L311.6804 1607.3784ZM343.84165 1609.6758C349.16624 1610.0228 354.53337 1610.356 359.94154 1610.6743L359.47145 1618.6605C354.04637 1618.3412 348.6625 1618.007 343.32139 1617.6589L343.84165 1609.6758ZM376.0648 1611.5723C381.38029 1611.8513 386.73295 1612.1157 392.1215 1612.3644L391.75273 1620.3558C386.34709 1620.1065 380.9775 1619.8412 375.6453 1619.5613L376.0648 1611.5723ZM408.2745 1613.0576C413.5985 1613.269 418.95536 1613.4646 424.34385 1613.6436L424.07823 1621.6392C418.67234 1621.4596 413.29826 1621.2634 407.9572 1621.0514L408.2745 1613.0576ZM440.46376 1614.1265C445.8106 1614.269 451.18675 1614.3949 456.591 1614.5033L456.43058 1622.5017C451.00849 1622.393 445.61476 1622.2667 440.25044 1622.1235L440.46376 1614.1265ZM472.68214 1614.7726C478.0456 1614.8444 483.43513 1614.8987 488.84959 1614.9345L488.79664 1622.9343C483.36393 1622.8983 477.95634 1622.844 472.57499 1622.7719L472.68214 1614.7726ZM504.91584 1614.9863C510.27793 1614.9854 515.66299 1614.966 521.06997 1614.9275L521.12686 1622.9273C515.7012 1622.9658 510.29768 1622.9854 504.91734 1622.9863L504.91584 1614.9863ZM537.1537 1614.7571C542.51077 1614.6817 547.888 1614.587 553.28457 1614.4727L553.454 1622.471C548.0384 1622.5857 542.6422 1622.6806 537.2664 1622.7564L537.1537 1614.7571ZM569.3858 1614.074C572.0784 1613.9976 574.7756 1613.9161 577.47708 1613.8297L577.73306 1621.8256C575.0218 1621.9124 572.31497 1621.994 569.6126 1622.0707L569.3858 1614.074ZM577.47708 1613.8297C580.2355 1613.7413 582.9598 1613.649 585.65048 1613.5527L585.9366 1621.5476C583.23568 1621.6443 580.50137 1621.7369 577.73306 1621.8256L577.47708 1613.8297ZM601.39669 1612.9281C606.85159 1612.6897 612.1592 1612.4338 617.3252 1612.1614L617.74667 1620.1503C612.5557 1620.4241 607.22409 1620.681 601.74606 1620.9205L601.39669 1612.9281ZM632.8691 1611.2653C638.36776 1610.9202 643.6939 1610.5548 648.8559 1610.17L649.4506 1618.1478C644.2562 1618.535 638.8988 1618.9026 633.3702 1619.2496L632.8691 1611.2653ZM664.632 1608.8906C670.0244 1608.4161 675.22219 1607.9187 680.23678 1607.3998L681.0603 1615.3573C676.00338 1615.8806 670.7647 1616.3818 665.3332 1616.8598L664.632 1608.8906ZM695.87106 1605.6427C701.3438 1604.9762 706.57766 1604.2817 711.59146 1603.5613L712.72927 1611.48C707.6562 1612.2089 702.36538 1612.911 696.8382 1613.5841L695.87106 1605.6427ZM727.1778 1601.1245C732.6008 1600.2036 737.74118 1599.2495 742.6303 1598.266L744.208 1606.1089C739.2366 1607.1089 734.0167 1608.0776 728.51718 1609.0116L727.1778 1601.1245ZM757.91036 1594.915C763.3055 1593.6277 768.3734 1592.3016 773.1732 1590.9434L775.35147 1598.6411C770.4443 1600.0297 765.2691 1601.3838 759.767 1602.6965L757.91036 1594.915ZM788.16207 1586.3395C793.33456 1584.6227 798.2177 1582.8678 802.9165 1581.0855L805.7538 1588.5653C800.96359 1590.3825 795.974 1592.1758 790.6821 1593.9321L788.16207 1586.3395ZM817.5259 1575.27C822.4333 1573.2413 827.2348 1571.2003 832.1177 1569.1433L835.2235 1576.5159C830.37179 1578.5597 825.52267 1580.6209 820.5822 1582.6632L817.5259 1575.27ZM846.8271 1563.0729C851.6172 1561.1578 856.5757 1559.2537 861.81478 1557.3756L864.5143 1564.9064C859.3835 1566.7456 854.5167 1568.6143 849.7968 1570.5012L846.8271 1563.0729ZM876.94766 1552.3099C881.8017 1550.8004 886.91726 1549.3193 892.3599 1547.8744L894.41268 1555.6066C889.07949 1557.0225 884.0716 1558.4725 879.32327 1559.9491L876.94766 1552.3099ZM907.985 1544.047C912.9407 1542.9292 918.1511 1541.8405 923.65176 1540.7844L925.16 1548.641C919.7408 1549.6813 914.6144 1550.7527 909.74508 1551.851L907.985 1544.047ZM939.3893 1537.9907C944.4087 1537.168 949.64938 1536.3703 955.13137 1535.5999L956.2446 1543.522C950.8205 1544.2842 945.6402 1545.0729 940.6834 1545.8854L939.3893 1537.9907ZM970.8303 1533.5521C975.8901 1532.9403 981.1384 1532.35 986.5878 1531.7824L987.4167 1539.7393C982.00936 1540.3025 976.8048 1540.8881 971.7905 1541.4943L970.8303 1533.5521ZM1002.4918 1530.2435C1007.65109 1529.7807 1012.97659 1529.3367 1018.47689 1528.9124L1019.09219 1536.8887C1013.6237 1537.3106 1008.3314 1537.7518 1003.2066 1538.2116L1002.4918 1530.2435ZM1034.1359 1527.7904C1039.3248 1527.4459 1044.6588 1527.1178 1050.1438 1526.8067L1050.5968 1534.7938C1045.1366 1535.1035 1039.8284 1535.4302 1034.6658 1535.773L1034.1359 1527.7904ZM1065.9298 1525.9793C1068.6286 1525.849 1071.3615 1525.7227 1074.1293 1525.6001L1074.4828 1533.5923C1071.7256 1533.7144 1069.0034 1533.8402 1066.3156 1533.97L1065.9298 1525.9793ZM1074.1293 1525.6001C1076.8598 1525.4794 1079.5844 1525.3635 1082.3032 1525.2526L1082.6294 1533.2459C1079.9197 1533.3565 1077.2041 1533.4719 1074.4828 1533.5923L1074.1293 1525.6001ZM1098.5442 1524.6449C1103.9984 1524.4594 1109.4276 1524.2932 1114.8308 1524.1458L1115.049 1532.1428C1109.6636 1532.2897 1104.2523 1532.4553 1098.8163 1532.6403L1098.5442 1524.6449ZM1131.0409 1523.7576C1136.5098 1523.6447 1141.9506 1523.5508 1147.3624 1523.4752L1147.4743 1531.4745C1142.08 1531.5498 1136.6569 1531.6434 1131.2059 1531.7559L1131.0409 1523.7576ZM1163.5925 1523.3018C1169.055 1523.2614 1174.4863 1523.2393 1179.8855 1523.2346L1179.8923 1531.2346C1174.5105 1531.2391 1169.0966 1531.2612 1163.6517 1531.3016L1163.5925 1523.3018ZM1196.1563 1523.2737C1201.6006 1523.3045 1207.0104 1523.3528 1212.3845 1523.4177L1212.2877 1531.4172C1206.9306 1531.3523 1201.538 1531.3042 1196.1111 1531.2736L1196.1563 1523.2737ZM1228.6997 1523.668C1234.1467 1523.769 1239.555 1523.887 1244.9235 1524.021L1244.7239 1532.0184C1239.3723 1531.8849 1233.9811 1531.7673 1228.5512 1531.6665L1228.6997 1523.668ZM1261.202 1524.4793C1266.6726 1524.6508 1272.0993 1524.8385 1277.4805 1525.0415L1277.1788 1533.0359C1271.8143 1532.8335 1266.4048 1532.6463 1260.9513 1532.4754L1261.202 1524.4793ZM1293.67 1525.7037C1299.1542 1525.9454 1304.5881 1526.2025 1309.9707 1526.474L1309.5676 1534.4639C1304.2019 1534.1932 1298.7848 1533.9369 1293.3179 1533.6959L1293.67 1525.7037ZM1326.2274 1527.3458C1331.6765 1527.6554 1337.0692 1527.9793 1342.4039 1528.316L1341.8998 1536.3002C1336.5817 1535.9644 1331.2058 1535.6416 1325.7737 1535.333L1326.2274 1527.3458ZM1358.6735 1529.3955C1364.1582 1529.777 1369.577 1530.1716 1374.928 1530.5781L1374.3219 1538.5552C1368.9878 1538.1499 1363.586 1537.7565 1358.1184 1537.3762L1358.6735 1529.3955ZM1391.1177 1531.86C1396.5752 1532.3097 1401.9562 1532.7709 1407.2586 1533.2421L1406.5505 1541.2107C1401.2649 1540.741 1395.901 1540.2813 1390.4607 1539.833L1391.1177 1531.86ZM1423.5243 1534.7409C1429.024 1535.2658 1434.4312 1535.8002 1439.7432 1536.3424L1438.9308 1544.301C1433.636 1543.7606 1428.2463 1543.2278 1422.7643 1542.7046L1423.5243 1534.7409ZM1455.9229 1538.0482C1461.4207 1538.6464 1466.8053 1539.2512 1472.0736 1539.8604L1471.1547 1547.8074C1465.9039 1547.2002 1460.5372 1546.5974 1455.0576 1546.0012L1455.9229 1538.0482ZM1488.2068 1541.782C1493.7289 1542.4592 1499.1063 1543.1387 1504.3348 1543.8173L1503.305 1551.7507C1498.0951 1551.0745 1492.7363 1550.3973 1487.2332 1549.7225L1488.2068 1541.782ZM1520.4675 1545.971C1526.048 1546.7367 1531.4299 1547.4973 1536.6072 1548.2479L1535.4592 1556.1652C1530.3018 1555.4174 1524.9398 1554.6597 1519.3798 1553.8966L1520.4675 1545.971ZM1552.7368 1550.6522C1558.3963 1551.5193 1563.7522 1552.365 1568.794 1553.1818L1567.5147 1561.0789C1562.4951 1560.2658 1557.1618 1559.4235 1551.5254 1558.5599L1552.7368 1550.6522ZM1584.8344 1555.8565C1590.7782 1556.8771 1596.101 1557.8252 1600.7742 1558.6804L1599.3341 1566.5498C1594.6889 1565.6997 1589.395 1564.7566 1583.4806 1563.7411L1584.8344 1555.8565ZM1616.9402 1561.7551C1619.5213 1562.2677 1621.4838 1562.6703 1622.8038 1562.9453 1623.464 1563.0828 1623.9635 1563.1884 1624.2993 1563.2599 1624.4673 1563.2957 1624.5944 1563.323 1624.68 1563.3414 1624.723 1563.3507 1624.7555 1563.3577 1624.7777 1563.3626 1624.7888 1563.3649 1624.7974 1563.3667 1624.8032 1563.368 1624.8063 1563.3687 1624.8086 1563.3692 1624.8102 1563.3695 1624.811 1563.3698 1624.8117 1563.3699 1624.8123 1563.37 1624.8125 1563.37 1624.8126 1563.3701 1624.8129 1563.3701 1624.8129 1563.3701 1624.813 1563.3701 1624.8131 1563.3701 1624.8131 1563.3703 1624.8132 1563.3703 1623.9625 1567.2787 1623.1118 1571.1871 1623.1119 1571.1873 1623.1119 1571.1873H1623.1118C1623.1117 1571.1871 1623.1115 1571.1871 1623.111 1571.187 1623.11 1571.1868 1623.1084 1571.1864 1623.1062 1571.1859 1623.1017 1571.1849 1623.0946 1571.1835 1623.085 1571.1814 1623.0656 1571.1771 1623.0359 1571.1708 1622.996 1571.1621 1622.9159 1571.1449 1622.7947 1571.1189 1622.6326 1571.0844 1622.3084 1571.0153 1621.8207 1570.9121 1621.1725 1570.7771 1619.8761 1570.5071 1617.9379 1570.1095 1615.3818 1569.6019L1616.9402 1561.7551Z" fill="#ff9c77"/>
</g>
</g>
</g>
<path transform="matrix(1,0,0,-1,.780273,24)" d="M24 12C24 5.372583 18.627417 0 12 0 5.372583 0 0 5.372583 0 12 0 18.627417 5.372583 24 12 24 18.627417 24 24 18.627417 24 12Z" fill="#7e1cc4"/>
</g>
</svg>
