<svg xmlns="http://www.w3.org/2000/svg" xmlns:xlink="http://www.w3.org/1999/xlink" version="1.1" width="87.03369pt" height="122pt" viewBox="0 0 87.03369 122">
<defs>
<mask id="mask_0">
<g>
<clipPath id="clip_1">
<path transform="matrix(1,0,0,-1,0,122)" d="M0 0H87.03369V122H0Z"/>
</clipPath>
<g clip-path="url(#clip_1)">
<path transform="matrix(1,0,0,-1,0,126.89502)" d="M0 90.13641 54.91524 109.70459 87.033878 19.568314 32.118635 .000137 0 90.13641Z" fill="#d9d9d9"/>
</g>
</g>
"/>
</mask>
<clipPath id="clip_2">
<path transform="matrix(1,0,0,-1,0,122)" d="M0 0H87.03369V122H0Z"/>
</clipPath>
</defs>
<g>
<path transform="matrix(1,0,0,-1,9,24)" d="M24 12C24 5.372583 18.627417 0 12 0 5.372583 0 0 5.372583 0 12 0 18.627417 5.372583 24 12 24 18.627417 24 24 18.627417 24 12Z" fill="#7e1cc4"/>
<g mask="url(#mask_0)">
<g>
<g clip-path="url(#clip_2)">
<path transform="matrix(.562921,.826511,.826511,-.562921,-775.66049,-6.340637)" d="M549.1362 603.76638 549.9057 607.69168 549.1362 603.76638ZM8.257603 672.7899C9.889071 674.2794 10.004162 676.80947 8.514664 678.4409 7.025166 680.0724 4.495122 680.18746 2.863653 678.69796L8.257603 672.7899ZM14.597706 689.02529C12.915793 687.59298 12.713437 685.0684 14.145731 683.3865 15.578024 681.7046 18.102587 681.5022 19.7845 682.9345L14.597706 689.02529ZM31.637913 692.7372C33.359804 694.12118 33.63373 696.639 32.249757 698.36087 30.865778 700.08279 28.347975 700.3567 26.626088 698.97268L31.637913 692.7372ZM38.930715 708.59359C37.172479 707.2561 36.8314 704.74649 38.1689 702.9883 39.5064 701.23007 42.015989 700.8889 43.774225 702.22647L38.930715 708.59359ZM56.145395 711.38296C57.938207 712.6737 58.345178 715.17349 57.05439 716.96627 55.763605 718.7591 53.263856 719.166 51.471048 717.87527L56.145395 711.38296ZM64.24346 726.81668C62.416978 725.574 61.943716 723.08596 63.186395 721.25949 64.42907 719.433 66.91712 718.9597 68.74361 720.2024L64.24346 726.81668ZM81.56038 728.6705C83.42008 729.86288 83.961048 732.3371 82.768657 734.1968 81.57626 736.05648 79.10205 736.5974 77.24235 735.405L81.56038 728.6705ZM90.51159 743.6512C88.61876 742.5121 88.00773 740.05429 89.14681 738.16146 90.2859 736.2686 92.74374 735.65756 94.636569 736.79666L90.51159 743.6512ZM107.92712 744.53018C109.852977 745.6125 110.536808 748.0511 109.454509 749.9769 108.3722 751.9028 105.93361 752.5866 104.00775 751.50436L107.92712 744.53018ZM117.71686 758.9314C115.75809 757.90988 114.99829 755.49386 116.019809 753.5351 117.04133 751.5763 119.45733 750.8165 121.41611 751.838L117.71686 758.9314ZM135.13869 758.71017C137.13028 759.6661 137.96984 762.05557 137.01389 764.0472 136.05794 766.03878 133.66847 766.8783 131.67688 765.92239L135.13869 758.71017ZM145.8814 772.4374C143.85727 771.55239 142.9338 769.1941 143.81879 767.17 144.70377 765.1458 147.06208 764.22238 149.0862 765.10739L145.8814 772.4374ZM163.25098 770.9881C165.30707 771.796 166.31887 774.1178 165.51091 776.1739 164.70294 778.23 162.38118 779.2418 160.32509 778.43386L163.25098 770.9881ZM175.00179 783.86538C172.91474 783.1411 171.80994 780.8621 172.53417 778.775 173.25839 776.688 175.53739 775.5832 177.62444 776.30746L175.00179 783.86538ZM192.19574 781.0168C194.31221 781.6499 195.51471 783.87887 194.88158 785.99539 194.24846 788.1118 192.01947 789.31436 189.903 788.68118L192.19574 781.0168ZM205.0145 792.82589C202.87088 792.2918 201.56609 790.1211 202.10016 787.9775 202.63422 785.83389 204.8049 784.52908 206.94852 785.0632L205.0145 792.82589ZM221.86122 788.3907C224.02878 788.81729 225.44013 790.9202 225.01354 793.08779 224.58696 795.2554 222.484 796.6667 220.31642 796.2401L221.86122 788.3907ZM235.78842 798.863C233.6012 798.5526 232.07968 796.52798 232.39003 794.3407 232.70038 792.1535 234.72507 790.63198 236.91231 790.9423L235.78842 798.863ZM252.06664 792.6588C254.26798 792.8442 255.90224 794.779 255.71686 796.98037 255.53147 799.1817 253.59664 800.816 251.3953 800.63058L252.06664 792.6588ZM267.0921 801.4803C264.88359 801.4282 263.13548 799.5956 263.18757 797.3871 263.23966 795.1785 265.07228 793.4304 267.2808 793.48257L267.0921 801.4803ZM282.50276 793.36087C284.71009 793.2723 286.57133 794.98989 286.65989 797.19729 286.74845 799.4046 285.03083 801.2658 282.82347 801.3544L282.50276 793.36087ZM298.52363 800.2038C296.32704 800.4389 294.35575 798.8488 294.1206 796.6522 293.8855 794.4556 295.4756 792.4843 297.67219 792.2492L298.52363 800.2038ZM313.25648 790.0336C315.43186 789.6489 317.5072 791.1006 317.89195 793.27597 318.27665 795.45138 316.825 797.5267 314.64964 797.91146L313.25648 790.0336ZM330.7705 794.42868C328.6317 794.98178 326.44953 793.6963 325.89646 791.5575 325.34336 789.41879 326.6288 787.2366 328.76759 786.6835L330.7705 794.42868ZM343.85823 782.0324C345.93495 781.2791 348.22917 782.352 348.98246 784.4287 349.73573 786.50546 348.66288 788.7996 346.58613 789.5529L343.85823 782.0324ZM361.9733 782.9835C359.9958 783.96829 357.5944 783.16348 356.60966 781.186 355.6249 779.20846 356.4297 776.80709 358.4072 775.8223L361.9733 782.9835ZM371.94779 767.9698C373.78199 766.7385 376.26704 767.2273 377.49833 769.0615 378.72959 770.8957 378.2408 773.38076 376.40663 774.612L371.94779 767.9698ZM389.6604 764.3389C388.01066 765.8081 385.4822 765.66177 384.013 764.01199 382.54383 762.3622 382.6902 759.8338 384.33998 758.36459L389.6604 764.3389ZM395.35987 747.17318C396.808 745.5049 399.33439 745.3264 401.0027 746.7746 402.67097 748.2227 402.8494 750.7491 401.40129 752.41738L395.35987 747.17318ZM411.59916 739.2706C410.33497 741.0823 407.8415 741.5261 406.02983 740.26199 404.21815 738.9978 403.7743 736.50436 405.03849 734.6926L411.59916 739.2706ZM413.62675 721.2769C414.75395 719.37698 417.2079 718.75057 419.10783 719.87777 421.00776 721.00497 421.6342 723.4589 420.507 725.3588L413.62675 721.2769ZM428.5523 711.08547C427.49906 713.02737 425.071 713.74777 423.12913 712.69448 421.18724 711.64126 420.4668 709.2132 421.52006 707.2713L428.5523 711.08547ZM429.19065 692.9786C430.2382 691.03359 432.6641 690.306 434.60908 691.3536 436.55409 692.4011 437.2816 694.827 436.23408 696.77206L429.19065 692.9786ZM444.0541 682.6964C442.945 684.60696 440.4971 685.25668 438.58656 684.1475 436.67604 683.03848 436.0263 680.5905 437.1354 678.68L444.0541 682.6964ZM445.8374 664.67697C447.06904 662.843 449.55418 662.35476 451.38813 663.5863 453.22209 664.818 453.71037 667.3031 452.47874 669.1371L445.8374 664.67697ZM461.89488 656.40359C460.49436 658.11209 457.97404 658.3617 456.26557 656.96127 454.55708 655.5607 454.30738 653.0404 455.7079 651.3319L461.89488 656.40359ZM467.01066 639.05136C468.6014 637.51846 471.13365 637.56539 472.66654 639.1561 474.1994 640.74697 474.15248 643.2792 472.5617 644.812L467.01066 639.05136ZM484.54704 634.6434C482.7748 635.9623 480.26896 635.5948 478.95005 633.8226 477.63114 632.05038 477.99864 629.5445 479.77085 628.2256L484.54704 634.6434ZM493.7382 619.12808C495.65943 618.03756 498.10093 618.711 499.1914 620.6322 500.2819 622.55349 499.60844 624.99496 497.6872 626.08547L493.7382 619.12808ZM511.86747 619.0777C509.83644 619.9468 507.48545 619.00479 506.61643 616.97378 505.7474 614.9427 506.6894 612.59176 508.72044 611.7227L511.86747 619.0777ZM524.2522 605.961C526.3568 605.2897 528.60726 606.45156 529.2786 608.5562 529.94998 610.6608 528.7881 612.91128 526.6834 613.58267L524.2522 605.961ZM541.97866 609.38919C539.8271 609.89047 537.6766 608.5527 537.1753 606.4011 536.674 604.24966 538.0118 602.0991 540.1633 601.59786L541.97866 609.38919ZM556.49288 598.3721C558.6723 598.0111 560.7317 599.48538 561.0926 601.66488 561.4535 603.8443 559.97927 605.9037 557.79977 606.2646L556.49288 598.3721ZM573.6 604.12466C571.403 604.3563 569.4342 602.7632 569.2025 600.56619 568.9709 598.36929 570.564 596.40048 572.761 596.16879L573.6 604.12466ZM589.12448 594.9315C591.33126 594.83016 593.20236 596.537 593.3037 598.7438 593.405 600.9506 591.69827 602.8218 589.4914 602.9231L589.12448 594.9315ZM605.43319 602.6615C603.22427 602.6328 601.4568 600.81887 601.4854 598.6099 601.5141 596.401 603.32809 594.6335 605.537 594.6622L605.43319 602.6615ZM621.96347 595.3549C624.167 595.51199 625.826 597.42568 625.66897 599.62918 625.5119 601.83279 623.5982 603.49179 621.39468 603.3347L621.96347 595.3549ZM637.28219 604.92446C635.0911 604.64236 633.5437 602.6373 633.82589 600.4463 634.10806 598.25527 636.113 596.7078 638.304 596.99L637.28219 604.92446ZM654.5034 599.536C656.6755 599.93899 658.1097 602.0265 657.7067 604.19857 657.3038 606.3706 655.21627 607.8048 653.0442 607.4018L654.5034 599.536ZM668.6654 610.73806C666.51809 610.2192 665.19796 608.05789 665.71676 605.91049 666.2356 603.7631 668.397 602.443 670.5443 602.9618L668.6654 610.73806ZM686.39309 607.2313C688.5107 607.8607 689.7171 610.0875 689.08779 612.20516 688.4584 614.32278 686.2315 615.5292 684.11398 614.8998L686.39309 607.2313ZM699.30416 619.8319C697.22048 619.0979 696.12637 616.8138 696.86038 614.73019 697.5943 612.6465 699.8785 611.55239 701.9621 612.2864L699.30416 619.8319ZM717.2982 618.109C719.3442 618.94216 720.32736 621.27627 719.49417 623.3222 718.66098 625.36819 716.3269 626.3514 714.28097 625.5182L717.2982 618.109ZM728.9469 631.8919C726.9416 630.9651 726.06729 628.58816 726.9941 626.5828 727.9209 624.5775 730.29788 623.7032 732.30319 624.63L728.9469 631.8919ZM747.02676 631.8417C748.9885 632.8574 749.75546 635.27127 748.7397 637.233 747.7239 639.19479 745.3101 639.9617 743.3484 638.9459L747.02676 631.8417ZM757.3858 646.60769C755.4701 645.50747 754.8091 643.0626 755.9093 641.1469 757.0095 639.23129 759.4544 638.5702 761.37008 639.6704L757.3858 646.60769ZM775.3709 648.11758C777.2375 649.2992 777.7927 651.77029 776.6111 653.6368 775.42947 655.50338 772.95846 656.0586 771.09188 654.87698L775.3709 648.11758ZM784.42996 663.7303C782.6164 662.46878 782.16897 659.9759 783.4305 658.1624 784.692 656.3489 787.1849 655.9014 788.99838 657.16299L784.42996 663.7303ZM802.28189 666.85769C804.0354 668.2013 804.3677 670.71206 803.02407 672.4656 801.6804 674.2191 799.1697 674.55148 797.4161 673.20779L802.28189 666.85769ZM809.8323 683.2445C808.15518 681.8066 807.96127 679.2814 809.3992 677.60427 810.8371 675.9271 813.36239 675.7332 815.0394 677.17117L809.8323 683.2445ZM.000138 670.5314C2.805193 667.6798 2.805105 667.6797 2.805025 667.6796 2.805008 667.67959 2.804936 667.6795 2.804902 667.6795 2.804834 667.67947 2.804796 667.6794 2.804787 667.6794 2.804769 667.6793 2.804868 667.67947 2.805083 667.6797 2.805515 667.68008 2.806414 667.68099 2.807781 667.6823 2.810514 667.685 2.815114 667.6895 2.821577 667.69589 2.834502 667.7085 2.854874 667.7284 2.882642 667.7555 2.938178 667.8097 3.023295 667.89248 3.137588 668.0029 3.366178 668.22396 3.711457 668.5557 4.170182 668.9912 5.087653 669.8622 6.45878 671.1476 8.257603 672.7899L2.863653 678.69796C1.024755 677.0191-.384362 675.69827-1.337706 674.7932-1.814389 674.3407-2.17716 673.9921-2.422769 673.75466-2.545574 673.6359-2.639093 673.54507-2.702919 673.4828-2.734832 673.45169-2.759322 673.4277-2.776338 673.411-2.784847 673.4027-2.791487 673.3962-2.796252 673.3915-2.798635 673.38919-2.800549 673.38729-2.801993 673.38589-2.802715 673.38516-2.80332 673.3846-2.803807 673.3841-2.804051 673.38388-2.804265 673.3836-2.804451 673.3834-2.804543 673.38339-2.80466 673.38327-2.804706 673.3832-2.804815 673.38308-2.804917 673.383 .000138 670.5314ZM19.7845 682.9345C23.256098 685.89089 27.219666 689.186 31.637913 692.7372L26.626088 698.97268C22.145472 695.37136 18.123558 692.02786 14.597706 689.02529L19.7845 682.9345ZM43.774225 702.22647C47.663225 705.1848 51.79227 708.2488 56.145395 711.38296L51.471048 717.87527C47.058347 714.6982 42.872896 711.5924 38.930715 708.59359L43.774225 702.22647ZM68.74361 720.2024C72.86248 723.00479 77.1382 725.8351 81.56038 728.6705L77.24235 735.405C72.7563 732.5287 68.41986 729.65817 64.24346 726.81668L68.74361 720.2024ZM94.636569 736.79666C98.95427 739.395 103.387149 741.97879 107.92712 744.53018L104.00775 751.50436C99.39581 748.9125 94.89438 746.2887 90.51159 743.6512L94.636569 736.79666ZM121.41611 751.838C125.90404 754.1785 130.48052 756.47427 135.13869 758.71017L131.67688 765.92239C126.935688 763.6466 122.280048 761.3111 117.71686 758.9314L121.41611 751.838ZM149.0862 765.10739C153.7402 767.14218 158.46385 769.10696 163.25098 770.9881L160.32509 778.43386C155.44055 776.5144 150.62389 774.51089 145.8814 772.4374L149.0862 765.10739ZM177.62444 776.30746C182.42897 777.9747 187.288 779.54867 192.19574 781.0168L189.903 788.68118C184.88024 787.17868 179.91118 785.5689 175.00179 783.86538L177.62444 776.30746ZM206.94852 785.0632C211.8799 786.29177 216.85263 787.40499 221.86122 788.3907L220.31642 796.2401C215.17258 795.2278 210.07 794.0854 205.0145 792.82589L206.94852 785.0632ZM236.91231 790.9423C241.93605 791.65518 246.98926 792.2312 252.06664 792.6588L251.3953 800.63058C246.16155 800.1898 240.95738 799.59646 235.78842 798.863L236.91231 790.9423ZM267.2808 793.48257C272.338 793.60189 277.41368 793.565 282.50276 793.36087L282.82347 801.3544C277.55995 801.5656 272.31434 801.6035 267.0921 801.4803L267.2808 793.48257ZM297.67219 792.2492C300.1923 791.9795 302.71455 791.6663 305.23835 791.3084L306.36164 799.2291C303.74647 799.60006 301.13359 799.92446 298.52363 800.2038L297.67219 792.2492ZM305.23835 791.3084C307.98213 790.9193 310.65397 790.4939 313.25648 790.0336L314.64964 797.91146C311.95494 798.38796 309.19309 798.8276 306.36164 799.2291L305.23835 791.3084ZM328.76759 786.6835C334.1273 785.2974 339.1468 783.7414 343.85823 782.0324L346.58613 789.5529C341.6255 791.3523 336.36344 792.98239 330.7705 794.42868L328.76759 786.6835ZM358.4072 775.8223C363.28785 773.3919 367.7833 770.7654 371.94779 767.9698L376.40663 774.612C371.95359 777.60128 367.15974 780.4008 361.9733 782.9835L358.4072 775.8223ZM384.33998 758.36459C388.3265 754.8144 391.97489 751.07278 395.35987 747.17318L401.40129 752.41738C397.81044 756.5541 393.92298 760.5429 389.6604 764.3389L384.33998 758.36459ZM405.03849 734.6926C408.07353 730.34317 410.9077 725.8599 413.62675 721.2769L420.507 725.3588C417.71263 730.06887 414.77174 734.72396 411.59916 739.2706L405.03849 734.6926ZM421.52006 707.2713C424.09938 702.5157 426.59437 697.7992 429.19065 692.9786L436.23408 696.77206C433.6899 701.49588 431.12409 706.3437 428.5523 711.08547L421.52006 707.2713ZM437.1354 678.68C439.87266 673.96487 442.74613 669.27999 445.8374 664.67697L452.47874 669.1371C449.50767 673.56118 446.72718 678.0918 444.0541 682.6964L437.1354 678.68ZM455.7079 651.3319C459.17228 647.10568 462.91499 642.9979 467.01066 639.05136L472.5617 644.812C468.71076 648.5228 465.17884 652.39736 461.89488 656.40359L455.7079 651.3319ZM479.77085 628.2256C484.08049 625.0183 488.71925 621.9768 493.7382 619.12808L497.6872 626.08547C492.95536 628.7712 488.5928 631.63247 484.54704 634.6434L479.77085 628.2256ZM508.72044 611.7227C513.5877 609.6401 518.755 607.7146 524.2522 605.961L526.6834 613.58267C521.4191 615.2619 516.4913 617.09927 511.86747 619.0777L508.72044 611.7227ZM540.1633 601.59786C542.82937 600.9767 545.563 600.3907 548.36679 599.84109L549.9057 607.69168C547.192 608.22366 544.55056 608.7899 541.97866 609.38919L540.1633 601.59786ZM548.36679 599.84109C551.08706 599.30789 553.7959 598.8186 556.49288 598.3721L557.79977 606.2646C555.18008 606.69839 552.5486 607.1736 549.9057 607.69168L548.36679 599.84109ZM572.761 596.16879C578.27267 595.5875 583.72848 595.1793 589.12448 594.9315L589.4914 602.9231C584.2509 603.1637 578.9526 603.56027 573.6 604.12466L572.761 596.16879ZM605.537 594.6622C611.0852 594.7342 616.5622 594.97 621.96347 595.3549L621.39468 603.3347C616.145 602.9605 610.82308 602.73147 605.43319 602.6615L605.537 594.6622ZM638.304 596.99C643.794 597.697 649.19558 598.55136 654.5034 599.536L653.0442 607.4018C647.8775 606.4433 642.6218 605.6122 637.28219 604.92446L638.304 596.99ZM670.5443 602.9618C675.9395 604.2654 681.2245 605.6952 686.39309 607.2313L684.11398 614.8998C679.07339 613.40176 673.92196 612.0081 668.6654 610.73806L670.5443 602.9618ZM701.9621 612.2864C707.21578 614.137 712.33029 616.0859 717.2982 618.109L714.28097 625.5182C709.4271 623.5415 704.4325 621.6384 699.30416 619.8319L701.9621 612.2864ZM732.30319 624.63C737.3983 626.98489 742.3093 629.3992 747.02676 631.8417L743.3484 638.9459C738.7326 636.55599 733.92898 634.1945 728.9469 631.8919L732.30319 624.63ZM761.37008 639.6704C766.3105 642.5079 770.9823 645.33938 775.3709 648.11758L771.09188 654.87698C766.7955 652.15719 762.222 649.38528 757.3858 646.60769L761.37008 639.6704ZM788.99838 657.16299C793.96456 660.6176 798.40377 663.88607 802.28189 666.85769L797.4161 673.20779C793.6293 670.30618 789.2892 667.1106 784.42996 663.7303L788.99838 657.16299ZM815.0394 677.17117C817.03439 678.8816 818.56 680.2454 819.593 681.1876 820.10958 681.65878 820.503 682.0245 820.7705 682.2755 820.90426 682.401 821.0065 682.49789 821.0769 682.5648 821.11209 682.5983 821.13937 682.6244 821.15859 682.6428 821.16818 682.652 821.1758 682.6593 821.1814 682.6647 821.1842 682.6674 821.1865 682.6696 821.1883 682.6713 821.1892 682.67227 821.18997 682.673 821.1906 682.6736 821.1909 682.6739 821.1912 682.6742 821.19149 682.67446 821.19168 682.67459 821.1918 682.67477 821.1919 682.6748 821.192 682.6749 821.1922 682.6751 818.41567 685.55447 815.6391 688.43386 815.6393 688.43399 815.6394 688.43417 815.6394 688.43417 815.6395 688.43429 815.6396 688.4343 815.6398 688.43447 815.63986 688.4346 815.63998 688.43466 815.6401 688.4348 815.6401 688.4348 815.64 688.4347 815.6398 688.4345 815.6391 688.43386 815.6379 688.4327 815.63546 688.43038 815.63107 688.42617 815.6247 688.42 815.6119 688.4077 815.5911 688.38796 815.5625 688.36068 815.5051 688.3061 815.4162 688.22189 815.29598 688.109 815.0554 687.8833 814.6898 687.54336 814.202 687.0984 813.2263 686.2085 811.762 684.899 809.8323 683.2445L815.0394 677.17117Z" fill="#ff9c77"/>
</g>
</g>
</g>
</g>
</svg>
