<svg width="22" height="22" viewBox="0 0 22 22" fill="none" xmlns="http://www.w3.org/2000/svg">
<path id="Vector" d="M11 0C4.92525 0 0 5.00237 0 11.1722C0 16.4074 3.54933 20.7878 8.33433 22C8.283 21.8492 8.25 21.6741 8.25 21.4572V19.5477C7.80358 19.5477 7.05558 19.5477 6.86767 19.5477C6.11508 19.5477 5.44592 19.219 5.12142 18.6083C4.76117 17.9296 4.69883 16.8915 3.806 16.2565C3.54108 16.0452 3.74275 15.8041 4.048 15.8366C4.61175 15.9986 5.07925 16.3915 5.51925 16.9744C5.95742 17.5581 6.16367 17.6903 6.98225 17.6903C7.37917 17.6903 7.97317 17.667 8.53233 17.5777C8.833 16.8021 9.35275 16.088 9.988 15.751C6.325 15.3683 4.57692 13.5175 4.57692 11.0047C4.57692 9.92281 5.03067 8.87634 5.80158 7.99467C5.54858 7.11951 5.2305 5.33474 5.89875 4.6551C7.54692 4.6551 8.54333 5.74067 8.78258 6.03394C9.60392 5.74812 10.5059 5.58612 11.4538 5.58612C12.4034 5.58612 13.3091 5.74812 14.1322 6.0358C14.3688 5.74439 15.3661 4.6551 17.0179 4.6551C17.6889 5.33568 17.3672 7.12789 17.1114 8.00118C17.8778 8.881 18.3288 9.92467 18.3288 11.0047C18.3288 13.5156 16.5834 15.3656 12.9259 15.7501C13.9324 16.2835 14.6667 17.7825 14.6667 18.9118V21.4572C14.6667 21.554 14.6456 21.6239 14.6346 21.7067C18.9209 20.1808 22 16.0471 22 11.1722C22 5.00237 17.0748 0 11 0Z" fill="#7E1CC4"/>
</svg>
