<svg width="63" height="52" viewBox="0 0 63 52" fill="none" xmlns="http://www.w3.org/2000/svg">
<g id="Vector" filter="url(#filter0_d_334_450)">
<path d="M40.7423 30.109V35.5042H48.2496C50.928 35.5042 53.3802 34.3539 55.1532 32.529C56.8886 30.6645 57.9825 28.0861 57.9825 25.2695C57.9825 22.8101 57.1902 20.5489 55.7944 18.764C54.3987 16.9788 52.437 15.6697 50.2109 15.1937L48.966 14.916C48.966 14.4797 49.0037 14.0431 49.0037 13.6069V13.4086C49.0037 10.592 47.9098 8.01345 46.1367 6.14901C44.3636 4.32418 41.9116 3.17388 39.2331 3.17388C36.5546 3.17388 34.1025 4.32418 32.3294 6.14901C30.5563 8.01356 29.4624 10.5919 29.4624 13.4086L29.5001 14.9557L28.2552 15.1937C26.0294 15.6697 24.0679 16.9788 22.6717 18.764C21.2759 20.5491 20.4837 22.8103 20.4837 25.2695C20.4837 28.0861 21.5776 30.6646 23.3129 32.5291C25.0861 34.3539 27.538 35.5042 30.2166 35.5042H37.7238V29.8709L32.895 24.7932C32.3291 24.1586 32.3291 23.1667 32.895 22.5717C33.4985 21.9371 34.4418 21.9371 35.0453 22.5717L39.4967 27.2526L44.9289 23.9203C45.6457 23.484 46.551 23.7617 46.9659 24.5154C47.3809 25.2692 47.1545 26.2212 46.4377 26.6575L40.7413 30.1086L40.7423 30.109ZM15.2028 47.9997V41.8113H9.95915C7.20537 41.8113 4.7155 40.6213 2.94258 38.717C1.13189 36.8524 0 34.2344 0 31.3387C0 28.8395 0.867603 26.5387 2.26356 24.7138C3.43301 23.2064 5.01735 22.0561 6.82825 21.4213C7.05458 18.9619 8.11095 16.7404 9.69529 15.0743C11.4684 13.1703 13.9581 11.98 16.7119 11.98C18.1076 11.98 19.4281 12.2974 20.6353 12.8529C21.4276 13.21 22.2196 13.686 22.8989 14.2809C23.9928 13.4875 25.2 12.8529 26.5204 12.4164C26.7467 9.12382 28.1047 6.1489 30.2175 3.92718C32.5186 1.50742 35.7254 0 39.2334 0C42.7414 0 45.9484 1.50742 48.2493 3.92718C50.3618 6.14863 51.7198 9.12376 51.9464 12.4164C54.3985 13.2098 56.5488 14.7569 58.133 16.78C59.9061 19.0809 61 22.056 61 25.2692C61 28.9584 59.5665 32.3304 57.2654 34.7499C54.9642 37.1697 51.7575 38.6771 48.2495 38.6771H40.7422V47.9993L15.2028 47.9997ZM18.2207 48H37.7239V38.6778H30.5561C29.726 39.5507 28.7454 40.3043 27.6512 40.8198C26.3685 41.4544 24.935 41.8115 23.4639 41.8115H18.2203L18.2207 48ZM20.4465 33.8775L18.2207 35.1866V38.6378H23.4644C24.483 38.6378 25.4261 38.3998 26.2936 38.0032C24.3319 37.3686 22.5965 36.2181 21.2008 34.7504C20.9367 34.4727 20.6728 34.1553 20.4465 33.8775ZM16.976 32.3304L18.7867 31.2196C17.9566 29.4345 17.4664 27.4113 17.4664 25.2692C17.4664 22.056 18.5603 19.0808 20.3335 16.78C20.4467 16.6609 20.522 16.542 20.6353 16.4229C20.2581 16.1452 19.8808 15.9469 19.4659 15.7486C18.5983 15.352 17.6927 15.1535 16.7121 15.1535C14.7881 15.1535 13.0528 15.9866 11.808 17.2955C10.5631 18.6047 9.77104 20.4295 9.77104 22.4524V23.9201L8.56388 24.1581C6.97954 24.5152 5.58358 25.4275 4.56516 26.7367C3.5843 27.9664 3.01839 29.5929 3.01839 31.3384C3.01839 33.3615 3.81066 35.1864 5.05538 36.4953C6.30032 37.8044 8.03568 38.6373 9.95942 38.6373H15.2031V34.9481L11.6948 31.259C11.1289 30.6639 11.1289 29.6324 11.6948 29.0375C12.2983 28.4029 13.2416 28.4029 13.8451 29.0375L16.976 32.3304Z" fill="#7E1BC3"/>
</g>
<defs>
<filter id="filter0_d_334_450" x="0" y="0" width="63" height="52" filterUnits="userSpaceOnUse" color-interpolation-filters="sRGB">
<feFlood flood-opacity="0" result="BackgroundImageFix"/>
<feColorMatrix in="SourceAlpha" type="matrix" values="0 0 0 0 0 0 0 0 0 0 0 0 0 0 0 0 0 0 127 0" result="hardAlpha"/>
<feOffset dx="2" dy="4"/>
<feComposite in2="hardAlpha" operator="out"/>
<feColorMatrix type="matrix" values="0 0 0 0 1 0 0 0 0 0.611765 0 0 0 0 0.466667 0 0 0 1 0"/>
<feBlend mode="normal" in2="BackgroundImageFix" result="effect1_dropShadow_334_450"/>
<feBlend mode="normal" in="SourceGraphic" in2="effect1_dropShadow_334_450" result="shape"/>
</filter>
</defs>
</svg>
