<svg width="718" height="502" viewBox="0 0 718 502" fill="none" xmlns="http://www.w3.org/2000/svg">
<path d="M405.408 494.216C403.744 494.216 402.32 493.864 401.136 493.16C399.952 492.456 399.04 491.456 398.4 490.16C397.776 488.864 397.464 487.32 397.464 485.528C397.464 484.184 397.64 482.984 397.992 481.928C398.36 480.856 398.88 479.952 399.552 479.216C400.24 478.464 401.08 477.888 402.072 477.488C403.064 477.072 404.176 476.864 405.408 476.864C406.4 476.864 407.344 477.008 408.24 477.296C409.136 477.568 409.912 477.976 410.568 478.52C410.776 478.68 410.912 478.864 410.976 479.072C411.056 479.264 411.064 479.456 411 479.648C410.952 479.824 410.856 479.976 410.712 480.104C410.584 480.216 410.424 480.272 410.232 480.272C410.04 480.272 409.824 480.192 409.584 480.032C409.008 479.568 408.376 479.224 407.688 479C407 478.776 406.256 478.664 405.456 478.664C404.192 478.664 403.12 478.936 402.24 479.48C401.36 480.008 400.696 480.784 400.248 481.808C399.8 482.832 399.576 484.072 399.576 485.528C399.576 486.984 399.8 488.232 400.248 489.272C400.696 490.296 401.36 491.08 402.24 491.624C403.12 492.152 404.192 492.416 405.456 492.416C406.24 492.416 406.984 492.304 407.688 492.08C408.392 491.84 409.04 491.488 409.632 491.024C409.872 490.864 410.088 490.792 410.28 490.808C410.472 490.808 410.632 490.864 410.76 490.976C410.888 491.088 410.976 491.232 411.024 491.408C411.088 491.584 411.088 491.768 411.024 491.96C410.976 492.152 410.856 492.32 410.664 492.464C409.992 493.04 409.2 493.48 408.288 493.784C407.392 494.072 406.432 494.216 405.408 494.216ZM432.848 494.216C431.28 494.216 429.912 493.864 428.744 493.16C427.592 492.44 426.696 491.432 426.056 490.136C425.432 488.84 425.12 487.304 425.12 485.528C425.12 484.184 425.296 482.984 425.648 481.928C426.016 480.856 426.536 479.952 427.208 479.216C427.88 478.464 428.688 477.888 429.632 477.488C430.592 477.072 431.664 476.864 432.848 476.864C434.448 476.864 435.824 477.216 436.976 477.92C438.144 478.624 439.04 479.624 439.664 480.92C440.304 482.2 440.624 483.728 440.624 485.504C440.624 486.848 440.44 488.056 440.072 489.128C439.704 490.2 439.184 491.112 438.512 491.864C437.84 492.616 437.024 493.2 436.064 493.616C435.12 494.016 434.048 494.216 432.848 494.216ZM432.848 492.464C434.064 492.464 435.088 492.192 435.92 491.648C436.768 491.104 437.416 490.312 437.864 489.272C438.312 488.232 438.536 486.984 438.536 485.528C438.536 483.336 438.04 481.64 437.048 480.44C436.072 479.224 434.672 478.616 432.848 478.616C431.664 478.616 430.648 478.888 429.8 479.432C428.968 479.976 428.328 480.768 427.88 481.808C427.432 482.832 427.208 484.072 427.208 485.528C427.208 487.704 427.704 489.408 428.696 490.64C429.688 491.856 431.072 492.464 432.848 492.464ZM457.103 494.168C456.815 494.168 456.591 494.088 456.431 493.928C456.271 493.752 456.191 493.512 456.191 493.208V477.872C456.191 477.552 456.271 477.312 456.431 477.152C456.591 476.992 456.815 476.912 457.103 476.912C457.359 476.912 457.559 476.968 457.703 477.08C457.863 477.176 458.007 477.344 458.135 477.584L464.711 489.968H463.991L470.543 477.584C470.671 477.344 470.807 477.176 470.951 477.08C471.095 476.968 471.303 476.912 471.575 476.912C471.847 476.912 472.063 476.992 472.223 477.152C472.383 477.312 472.463 477.552 472.463 477.872V493.208C472.463 493.512 472.383 493.752 472.223 493.928C472.079 494.088 471.855 494.168 471.551 494.168C471.263 494.168 471.039 494.088 470.879 493.928C470.719 493.752 470.639 493.512 470.639 493.208V479.72H471.215L465.215 490.976C465.103 491.184 464.983 491.336 464.855 491.432C464.743 491.512 464.575 491.552 464.351 491.552C464.127 491.552 463.951 491.504 463.823 491.408C463.695 491.312 463.583 491.168 463.487 490.976L457.415 479.696H457.991V493.208C457.991 493.512 457.911 493.752 457.751 493.928C457.607 494.088 457.391 494.168 457.103 494.168ZM489.658 494.168C489.338 494.168 489.09 494.08 488.914 493.904C488.754 493.712 488.674 493.456 488.674 493.136V477.944C488.674 477.608 488.754 477.352 488.914 477.176C489.09 477 489.338 476.912 489.658 476.912C489.978 476.912 490.218 477 490.378 477.176C490.554 477.352 490.642 477.608 490.642 477.944V493.136C490.642 493.456 490.562 493.712 490.402 493.904C490.242 494.08 489.994 494.168 489.658 494.168ZM507.774 494.168C507.47 494.168 507.238 494.088 507.078 493.928C506.918 493.752 506.838 493.504 506.838 493.184V477.92C506.838 477.6 506.918 477.352 507.078 477.176C507.238 477 507.446 476.912 507.702 476.912C507.958 476.912 508.142 476.96 508.254 477.056C508.382 477.136 508.526 477.288 508.686 477.512L519.15 491.456H518.574V477.872C518.574 477.568 518.654 477.336 518.814 477.176C518.974 477 519.206 476.912 519.51 476.912C519.798 476.912 520.014 477 520.158 477.176C520.318 477.336 520.398 477.568 520.398 477.872V493.208C520.398 493.512 520.326 493.752 520.182 493.928C520.054 494.088 519.862 494.168 519.606 494.168C519.366 494.168 519.174 494.12 519.03 494.024C518.886 493.928 518.734 493.776 518.574 493.568L508.134 479.624H508.686V493.184C508.686 493.504 508.606 493.752 508.446 493.928C508.286 494.088 508.062 494.168 507.774 494.168ZM544.332 494.216C542.524 494.216 540.996 493.872 539.748 493.184C538.516 492.496 537.58 491.504 536.94 490.208C536.3 488.912 535.98 487.36 535.98 485.552C535.98 484.208 536.156 483 536.508 481.928C536.876 480.856 537.404 479.952 538.092 479.216C538.796 478.464 539.644 477.888 540.636 477.488C541.644 477.072 542.78 476.864 544.044 476.864C545.052 476.864 546.028 477.008 546.972 477.296C547.916 477.568 548.756 478.008 549.492 478.616C549.684 478.76 549.804 478.92 549.852 479.096C549.9 479.272 549.892 479.448 549.828 479.624C549.78 479.8 549.692 479.952 549.564 480.08C549.452 480.192 549.3 480.256 549.108 480.272C548.932 480.288 548.748 480.232 548.556 480.104C547.9 479.592 547.204 479.224 546.468 479C545.732 478.76 544.916 478.64 544.02 478.64C542.74 478.64 541.652 478.912 540.756 479.456C539.876 480 539.204 480.784 538.74 481.808C538.292 482.832 538.068 484.08 538.068 485.552C538.068 487.792 538.588 489.504 539.628 490.688C540.684 491.872 542.268 492.464 544.38 492.464C545.148 492.464 545.9 492.392 546.636 492.248C547.372 492.088 548.068 491.872 548.724 491.6L548.292 492.728V486.752H544.86C544.572 486.752 544.356 486.68 544.212 486.536C544.068 486.392 543.996 486.2 543.996 485.96C543.996 485.704 544.068 485.512 544.212 485.384C544.356 485.256 544.572 485.192 544.86 485.192H549.156C549.428 485.192 549.636 485.264 549.78 485.408C549.924 485.552 549.996 485.76 549.996 486.032V492.296C549.996 492.536 549.956 492.736 549.876 492.896C549.796 493.056 549.66 493.176 549.468 493.256C548.796 493.528 547.988 493.76 547.044 493.952C546.116 494.128 545.212 494.216 544.332 494.216ZM589.677 494.216C588.925 494.216 588.189 494.152 587.469 494.024C586.749 493.896 586.077 493.712 585.453 493.472C584.845 493.232 584.293 492.928 583.797 492.56C583.605 492.416 583.469 492.256 583.389 492.08C583.325 491.888 583.309 491.704 583.341 491.528C583.389 491.336 583.469 491.176 583.581 491.048C583.709 490.92 583.861 490.848 584.037 490.832C584.213 490.816 584.405 490.872 584.613 491C585.333 491.512 586.101 491.888 586.917 492.128C587.733 492.352 588.653 492.464 589.677 492.464C591.117 492.464 592.181 492.2 592.869 491.672C593.573 491.128 593.925 490.416 593.925 489.536C593.925 488.816 593.669 488.256 593.157 487.856C592.661 487.44 591.821 487.112 590.637 486.872L588.141 486.368C586.637 486.048 585.509 485.528 584.757 484.808C584.021 484.072 583.653 483.096 583.653 481.88C583.653 481.128 583.805 480.448 584.109 479.84C584.413 479.216 584.837 478.688 585.381 478.256C585.925 477.808 586.573 477.464 587.325 477.224C588.077 476.984 588.909 476.864 589.821 476.864C590.829 476.864 591.765 477.008 592.629 477.296C593.509 477.568 594.301 477.984 595.005 478.544C595.181 478.688 595.301 478.856 595.365 479.048C595.429 479.224 595.437 479.4 595.389 479.576C595.341 479.736 595.253 479.872 595.125 479.984C595.013 480.096 594.861 480.16 594.669 480.176C594.493 480.192 594.293 480.128 594.069 479.984C593.429 479.504 592.765 479.16 592.077 478.952C591.389 478.728 590.629 478.616 589.797 478.616C588.949 478.616 588.213 478.744 587.589 479C586.981 479.256 586.501 479.632 586.149 480.128C585.813 480.608 585.645 481.168 585.645 481.808C585.645 482.576 585.877 483.184 586.341 483.632C586.821 484.08 587.597 484.408 588.669 484.616L591.165 485.144C592.781 485.48 593.973 485.992 594.741 486.68C595.525 487.352 595.917 488.272 595.917 489.44C595.917 490.144 595.773 490.792 595.485 491.384C595.197 491.976 594.781 492.488 594.237 492.92C593.693 493.336 593.037 493.656 592.269 493.88C591.501 494.104 590.637 494.216 589.677 494.216ZM618.075 494.216C616.507 494.216 615.139 493.864 613.971 493.16C612.819 492.44 611.923 491.432 611.283 490.136C610.659 488.84 610.347 487.304 610.347 485.528C610.347 484.184 610.523 482.984 610.875 481.928C611.243 480.856 611.763 479.952 612.435 479.216C613.107 478.464 613.915 477.888 614.859 477.488C615.819 477.072 616.891 476.864 618.075 476.864C619.675 476.864 621.051 477.216 622.203 477.92C623.371 478.624 624.267 479.624 624.891 480.92C625.531 482.2 625.851 483.728 625.851 485.504C625.851 486.848 625.667 488.056 625.299 489.128C624.931 490.2 624.411 491.112 623.739 491.864C623.067 492.616 622.251 493.2 621.291 493.616C620.347 494.016 619.275 494.216 618.075 494.216ZM618.075 492.464C619.291 492.464 620.315 492.192 621.147 491.648C621.995 491.104 622.643 490.312 623.091 489.272C623.539 488.232 623.763 486.984 623.763 485.528C623.763 483.336 623.267 481.64 622.275 480.44C621.299 479.224 619.899 478.616 618.075 478.616C616.891 478.616 615.875 478.888 615.027 479.432C614.195 479.976 613.555 480.768 613.107 481.808C612.659 482.832 612.435 484.072 612.435 485.528C612.435 487.704 612.931 489.408 613.923 490.64C614.915 491.856 616.299 492.464 618.075 492.464ZM648.473 494.216C646.905 494.216 645.537 493.864 644.369 493.16C643.217 492.44 642.321 491.432 641.681 490.136C641.057 488.84 640.745 487.304 640.745 485.528C640.745 484.184 640.921 482.984 641.273 481.928C641.641 480.856 642.161 479.952 642.833 479.216C643.505 478.464 644.313 477.888 645.257 477.488C646.217 477.072 647.289 476.864 648.473 476.864C650.073 476.864 651.449 477.216 652.601 477.92C653.769 478.624 654.665 479.624 655.289 480.92C655.929 482.2 656.249 483.728 656.249 485.504C656.249 486.848 656.065 488.056 655.697 489.128C655.329 490.2 654.809 491.112 654.137 491.864C653.465 492.616 652.649 493.2 651.689 493.616C650.745 494.016 649.673 494.216 648.473 494.216ZM648.473 492.464C649.689 492.464 650.713 492.192 651.545 491.648C652.393 491.104 653.041 490.312 653.489 489.272C653.937 488.232 654.161 486.984 654.161 485.528C654.161 483.336 653.665 481.64 652.673 480.44C651.697 479.224 650.297 478.616 648.473 478.616C647.289 478.616 646.273 478.888 645.425 479.432C644.593 479.976 643.953 480.768 643.505 481.808C643.057 482.832 642.833 484.072 642.833 485.528C642.833 487.704 643.329 489.408 644.321 490.64C645.313 491.856 646.697 492.464 648.473 492.464ZM672.704 494.168C672.4 494.168 672.168 494.088 672.008 493.928C671.848 493.752 671.768 493.504 671.768 493.184V477.92C671.768 477.6 671.848 477.352 672.008 477.176C672.168 477 672.376 476.912 672.632 476.912C672.888 476.912 673.072 476.96 673.184 477.056C673.312 477.136 673.456 477.288 673.616 477.512L684.08 491.456H683.504V477.872C683.504 477.568 683.584 477.336 683.744 477.176C683.904 477 684.136 476.912 684.44 476.912C684.728 476.912 684.944 477 685.088 477.176C685.248 477.336 685.328 477.568 685.328 477.872V493.208C685.328 493.512 685.256 493.752 685.112 493.928C684.984 494.088 684.792 494.168 684.536 494.168C684.296 494.168 684.104 494.12 683.96 494.024C683.816 493.928 683.664 493.776 683.504 493.568L673.064 479.624H673.616V493.184C673.616 493.504 673.536 493.752 673.376 493.928C673.216 494.088 672.992 494.168 672.704 494.168Z" fill="#1E1E1E"/>
<path d="M442.96 22.96C443.653 22.96 444.213 23.04 444.64 23.2C445.12 23.36 445.493 23.68 445.76 24.16C446.027 24.5867 446.16 25.3067 446.16 26.32C446.16 27.28 446 28 445.68 28.48C445.413 28.96 445.04 29.28 444.56 29.44C444.08 29.5467 443.493 29.6 442.8 29.6H426.24V75.28C426.24 75.9733 426.133 76.5867 425.92 77.12C425.76 77.6533 425.413 78.0533 424.88 78.32C424.4 78.64 423.653 78.8 422.64 78.8C421.573 78.8 420.773 78.64 420.24 78.32C419.76 78.0533 419.44 77.6533 419.28 77.12C419.173 76.5333 419.12 75.8933 419.12 75.2V29.6H402.32C401.627 29.6 401.04 29.5467 400.56 29.44C400.08 29.28 399.707 28.96 399.44 28.48C399.173 28 399.04 27.28 399.04 26.32C399.04 25.3067 399.147 24.5867 399.36 24.16C399.627 23.68 400 23.36 400.48 23.2C401.013 23.04 401.6 22.96 402.24 22.96H442.96ZM465.125 78.8C464.112 78.8 463.338 78.64 462.805 78.32C462.272 78.0533 461.925 77.6533 461.765 77.12C461.658 76.5333 461.605 75.8667 461.605 75.12V25.84C461.605 25.0933 461.685 24.4533 461.845 23.92C462.005 23.3867 462.352 22.9867 462.885 22.72C463.418 22.4 464.192 22.24 465.205 22.24C466.272 22.24 467.045 22.4 467.525 22.72C468.058 22.9867 468.378 23.3867 468.485 23.92C468.645 24.4533 468.725 25.12 468.725 25.92V45.68C470.005 44.1867 471.552 42.8533 473.365 41.68C475.232 40.5067 477.498 39.92 480.165 39.92C483.312 39.92 486.112 40.6667 488.565 42.16C491.072 43.6 493.045 45.6533 494.485 48.32C495.978 50.9867 496.725 54.16 496.725 57.84V75.2C496.725 75.9467 496.645 76.5867 496.485 77.12C496.325 77.6533 496.005 78.0533 495.525 78.32C495.045 78.64 494.272 78.8 493.205 78.8C492.192 78.8 491.418 78.64 490.885 78.32C490.352 78.0533 490.005 77.6533 489.845 77.12C489.685 76.5333 489.605 75.8667 489.605 75.12V57.76C489.605 55.52 489.232 53.5733 488.485 51.92C487.738 50.2667 486.618 48.9867 485.125 48.08C483.685 47.1733 481.845 46.72 479.605 46.72C476.565 46.72 474.058 47.6 472.085 49.36C470.165 51.0667 469.045 53.36 468.725 56.24V75.2C468.725 75.9467 468.645 76.5867 468.485 77.12C468.325 77.6533 467.978 78.0533 467.445 78.32C466.965 78.64 466.192 78.8 465.125 78.8ZM531.218 79.2C528.018 79.2 525.164 78.6667 522.658 77.6C520.151 76.5333 518.018 75.0933 516.258 73.28C514.551 71.4133 513.244 69.28 512.338 66.88C511.431 64.48 510.978 61.8933 510.978 59.12C510.978 55.44 511.831 52.16 513.538 49.28C515.244 46.4 517.591 44.1333 520.578 42.48C523.618 40.7733 527.084 39.92 530.978 39.92C533.644 39.92 536.018 40.3467 538.098 41.2C540.231 42 542.044 43.0933 543.538 44.48C545.031 45.8667 546.178 47.4133 546.978 49.12C547.778 50.8267 548.178 52.5333 548.178 54.24C548.178 56.96 547.538 58.88 546.258 60C544.978 61.0667 543.404 61.6 541.538 61.6H518.418C518.364 63.9467 518.978 65.9733 520.258 67.68C521.591 69.3333 523.244 70.6133 525.218 71.52C527.244 72.4267 529.271 72.88 531.298 72.88C532.791 72.88 534.071 72.8 535.138 72.64C536.204 72.48 537.138 72.2667 537.938 72C538.738 71.7333 539.431 71.4667 540.018 71.2C540.604 70.9333 541.111 70.6667 541.538 70.4C542.018 70.1333 542.471 69.9467 542.898 69.84C543.378 69.7333 543.831 69.7867 544.258 70C544.738 70.16 545.111 70.5067 545.378 71.04C545.698 71.4667 545.911 71.8667 546.018 72.24C546.124 72.6133 546.178 73.0133 546.178 73.44C546.178 74.1867 545.538 75.0133 544.258 75.92C542.978 76.8267 541.191 77.6 538.898 78.24C536.658 78.88 534.098 79.2 531.218 79.2ZM518.418 56.88H538.498C539.511 56.88 540.258 56.7467 540.738 56.48C541.271 56.2133 541.538 55.4933 541.538 54.32C541.538 52.8267 541.084 51.4933 540.178 50.32C539.271 49.0933 538.018 48.1067 536.418 47.36C534.871 46.6133 533.084 46.24 531.058 46.24C528.711 46.24 526.551 46.72 524.578 47.68C522.658 48.5867 521.138 49.84 520.018 51.44C518.898 53.04 518.364 54.8533 518.418 56.88ZM680.137 175.96C676.51 175.96 673.417 175.4 670.857 174.28C668.297 173.107 666.324 171.4 664.937 169.16C663.604 166.92 662.937 164.227 662.937 161.08C662.937 159.373 663.337 157.667 664.137 155.96C664.937 154.2 666.084 152.44 667.577 150.68C669.124 148.867 670.964 147.107 673.097 145.4C672.35 143.853 671.657 142.307 671.017 140.76C670.43 139.16 669.977 137.613 669.657 136.12C669.337 134.573 669.177 133.107 669.177 131.72C669.177 129 669.79 126.653 671.017 124.68C672.244 122.707 673.977 121.187 676.217 120.12C678.457 119.053 681.124 118.52 684.217 118.52C686.884 118.52 689.177 119.027 691.097 120.04C693.07 121 694.59 122.36 695.657 124.12C696.724 125.88 697.257 127.987 697.257 130.44C697.257 131.613 696.884 132.867 696.137 134.2C695.39 135.48 694.324 136.84 692.937 138.28C691.55 139.667 689.95 141.133 688.137 142.68C686.324 144.173 684.35 145.747 682.217 147.4C683.657 149.533 685.124 151.56 686.617 153.48C688.164 155.347 689.737 157.053 691.337 158.6C692.99 160.093 694.564 161.373 696.057 162.44C698.137 160.733 699.577 159.16 700.377 157.72C701.177 156.227 701.737 154.733 702.057 153.24C702.217 152.6 702.59 152.067 703.177 151.64C703.764 151.16 704.75 150.92 706.137 150.92C707.044 150.92 707.71 151.08 708.137 151.4C708.617 151.667 708.937 152.04 709.097 152.52C709.31 152.947 709.39 153.373 709.337 153.8C709.23 155.827 708.51 157.853 707.177 159.88C705.897 161.907 704.11 163.96 701.817 166.04C702.67 166.307 703.417 166.547 704.057 166.76C704.75 166.973 705.524 167.133 706.377 167.24C707.23 167.293 708.324 167.32 709.657 167.32C710.884 167.32 711.737 167.587 712.217 168.12C712.75 168.6 713.017 169.48 713.017 170.76C713.017 172.307 712.777 173.347 712.297 173.88C711.817 174.413 710.91 174.68 709.577 174.68C708.084 174.68 706.537 174.573 704.937 174.36C703.39 174.147 701.844 173.773 700.297 173.24C698.75 172.707 697.15 171.987 695.497 171.08C694.057 172.093 692.484 172.973 690.777 173.72C689.07 174.467 687.31 175.027 685.497 175.4C683.737 175.773 681.95 175.96 680.137 175.96ZM680.137 169.16C681.95 169.16 683.684 168.92 685.337 168.44C686.99 167.96 688.377 167.347 689.497 166.6C688.59 165.747 687.577 164.787 686.457 163.72C685.337 162.6 684.217 161.4 683.097 160.12C681.977 158.84 680.857 157.48 679.737 156.04C678.617 154.6 677.55 153.133 676.537 151.64C675.417 152.707 674.457 153.667 673.657 154.52C672.857 155.32 672.217 156.067 671.737 156.76C671.257 157.4 670.91 158.093 670.697 158.84C670.484 159.533 670.377 160.28 670.377 161.08C670.377 162.733 670.777 164.173 671.577 165.4C672.377 166.627 673.497 167.56 674.937 168.2C676.43 168.84 678.164 169.16 680.137 169.16ZM678.937 141.72C680.697 140.387 682.27 139.187 683.657 138.12C685.097 137 686.297 135.96 687.257 135C688.217 134.04 688.964 133.16 689.497 132.36C690.03 131.56 690.297 130.867 690.297 130.28C690.297 128.52 689.737 127.107 688.617 126.04C687.497 124.92 686.004 124.36 684.137 124.36C682.484 124.36 681.044 124.653 679.817 125.24C678.59 125.773 677.63 126.547 676.937 127.56C676.297 128.573 675.977 129.8 675.977 131.24C675.977 132.147 676.084 133.107 676.297 134.12C676.51 135.08 676.83 136.173 677.257 137.4C677.684 138.627 678.244 140.067 678.937 141.72ZM405.04 369.8C404.027 369.8 403.253 369.64 402.72 369.32C402.24 369.053 401.92 368.653 401.76 368.12C401.6 367.533 401.52 366.867 401.52 366.12V317.56C401.52 316.867 401.6 316.253 401.76 315.72C401.973 315.187 402.347 314.76 402.88 314.44C403.413 314.12 404.16 313.96 405.12 313.96H422.64C425.2 313.96 427.547 314.36 429.68 315.16C431.867 315.907 433.76 317.08 435.36 318.68C437.013 320.227 438.293 322.12 439.2 324.36C440.107 326.6 440.56 329.187 440.56 332.12C440.56 335 440.107 337.56 439.2 339.8C438.293 342.04 437.013 343.933 435.36 345.48C433.707 346.973 431.787 348.12 429.6 348.92C427.467 349.72 425.12 350.12 422.56 350.12H408.8V366.2C408.8 366.947 408.693 367.587 408.48 368.12C408.32 368.653 407.973 369.053 407.44 369.32C406.96 369.64 406.16 369.8 405.04 369.8ZM408.8 342.84H422.64C424.773 342.84 426.64 342.44 428.24 341.64C429.84 340.787 431.093 339.56 432 337.96C432.907 336.307 433.36 334.307 433.36 331.96C433.36 329.72 432.933 327.8 432.08 326.2C431.227 324.6 429.973 323.373 428.32 322.52C426.72 321.667 424.8 321.24 422.56 321.24H408.8V342.84ZM460.607 369.8C459.594 369.8 458.82 369.64 458.287 369.32C457.807 369.053 457.487 368.653 457.327 368.12C457.22 367.533 457.167 366.867 457.167 366.12V334.6C457.167 333.8 457.247 333.133 457.407 332.6C457.567 332.067 457.887 331.693 458.367 331.48C458.847 331.213 459.62 331.08 460.687 331.08C461.647 331.08 462.367 331.213 462.847 331.48C463.38 331.693 463.727 332.04 463.887 332.52C464.1 332.947 464.207 333.453 464.207 334.04L463.887 336.44C464.26 335.747 464.687 335.053 465.167 334.36C465.7 333.667 466.34 333.053 467.087 332.52C467.887 331.933 468.82 331.453 469.887 331.08C471.007 330.707 472.367 330.52 473.967 330.52C474.767 330.52 475.514 330.6 476.207 330.76C476.954 330.867 477.647 331.053 478.287 331.32C478.98 331.587 479.567 331.907 480.047 332.28C480.527 332.6 480.9 332.973 481.167 333.4C481.487 333.773 481.647 334.227 481.647 334.76C481.647 335.933 481.274 336.947 480.527 337.8C479.78 338.6 479.007 339 478.207 339C477.514 339 477.007 338.92 476.687 338.76C476.367 338.547 476.047 338.333 475.727 338.12C475.46 337.907 475.06 337.72 474.527 337.56C473.994 337.347 473.14 337.24 471.967 337.24C471.167 337.24 470.314 337.4 469.407 337.72C468.554 338.04 467.727 338.52 466.927 339.16C466.127 339.747 465.46 340.52 464.927 341.48C464.447 342.44 464.207 343.56 464.207 344.84V366.28C464.207 367.027 464.127 367.667 463.967 368.2C463.807 368.733 463.46 369.133 462.927 369.4C462.447 369.667 461.674 369.8 460.607 369.8ZM513.935 370.28C511.322 370.28 508.815 369.773 506.415 368.76C504.068 367.747 501.962 366.36 500.095 364.6C498.228 362.787 496.762 360.68 495.695 358.28C494.628 355.88 494.095 353.267 494.095 350.44C494.095 347.667 494.602 345.107 495.615 342.76C496.628 340.36 498.042 338.253 499.855 336.44C501.668 334.627 503.748 333.213 506.095 332.2C508.495 331.133 511.055 330.6 513.775 330.6C517.455 330.6 520.762 331.48 523.695 333.24C526.682 334.947 529.055 337.293 530.815 340.28C532.575 343.267 533.455 346.627 533.455 350.36C533.455 353.293 532.922 355.987 531.855 358.44C530.788 360.84 529.348 362.92 527.535 364.68C525.722 366.44 523.642 367.827 521.295 368.84C518.948 369.8 516.495 370.28 513.935 370.28ZM513.775 363.32C516.015 363.32 518.095 362.76 520.015 361.64C521.935 360.52 523.482 358.973 524.655 357C525.828 355.027 526.415 352.787 526.415 350.28C526.415 347.773 525.855 345.56 524.735 343.64C523.668 341.72 522.175 340.227 520.255 339.16C518.335 338.093 516.148 337.56 513.695 337.56C511.348 337.56 509.215 338.12 507.295 339.24C505.428 340.36 503.908 341.88 502.735 343.8C501.615 345.72 501.055 347.907 501.055 350.36C501.055 352.92 501.642 355.187 502.815 357.16C503.988 359.08 505.535 360.6 507.455 361.72C509.428 362.787 511.535 363.32 513.775 363.32ZM540.861 385.4C540.167 385.4 539.554 385.293 539.021 385.08C538.487 384.92 538.087 384.6 537.821 384.12C537.501 383.64 537.341 382.893 537.341 381.88C537.341 380.92 537.501 380.2 537.821 379.72C538.087 379.24 538.514 378.893 539.101 378.68C539.634 378.52 540.247 378.44 540.941 378.44C542.167 378.44 543.341 378.333 544.461 378.12C545.634 377.907 546.647 377.48 547.501 376.84C548.407 376.2 549.101 375.24 549.581 373.96C550.114 372.733 550.381 371.133 550.381 369.16V334.36C550.381 333.667 550.461 333.08 550.621 332.6C550.781 332.12 551.101 331.747 551.581 331.48C552.114 331.16 552.887 331 553.901 331C554.861 331 555.581 331.16 556.061 331.48C556.594 331.747 556.941 332.173 557.101 332.76C557.261 333.293 557.341 333.933 557.341 334.68V369.16C557.341 371.933 556.914 374.333 556.061 376.36C555.207 378.44 554.034 380.147 552.541 381.48C551.047 382.813 549.314 383.8 547.341 384.44C545.367 385.08 543.207 385.4 540.861 385.4ZM553.741 321.4C552.194 321.4 551.127 321.107 550.541 320.52C550.007 319.88 549.741 318.787 549.741 317.24C549.741 315.693 550.034 314.653 550.621 314.12C551.207 313.533 552.274 313.24 553.821 313.24C555.367 313.24 556.407 313.56 556.941 314.2C557.527 314.787 557.821 315.853 557.821 317.4C557.821 318.893 557.527 319.933 556.941 320.52C556.354 321.107 555.287 321.4 553.741 321.4ZM594.639 370.2C591.439 370.2 588.586 369.667 586.079 368.6C583.573 367.533 581.439 366.093 579.679 364.28C577.973 362.413 576.666 360.28 575.759 357.88C574.853 355.48 574.399 352.893 574.399 350.12C574.399 346.44 575.253 343.16 576.959 340.28C578.666 337.4 581.013 335.133 583.999 333.48C587.039 331.773 590.506 330.92 594.399 330.92C597.066 330.92 599.439 331.347 601.519 332.2C603.653 333 605.466 334.093 606.959 335.48C608.453 336.867 609.599 338.413 610.399 340.12C611.199 341.827 611.599 343.533 611.599 345.24C611.599 347.96 610.959 349.88 609.679 351C608.399 352.067 606.826 352.6 604.959 352.6H581.839C581.786 354.947 582.399 356.973 583.679 358.68C585.013 360.333 586.666 361.613 588.639 362.52C590.666 363.427 592.693 363.88 594.719 363.88C596.213 363.88 597.493 363.8 598.559 363.64C599.626 363.48 600.559 363.267 601.359 363C602.159 362.733 602.853 362.467 603.439 362.2C604.026 361.933 604.533 361.667 604.959 361.4C605.439 361.133 605.893 360.947 606.319 360.84C606.799 360.733 607.253 360.787 607.679 361C608.159 361.16 608.533 361.507 608.799 362.04C609.119 362.467 609.333 362.867 609.439 363.24C609.546 363.613 609.599 364.013 609.599 364.44C609.599 365.187 608.959 366.013 607.679 366.92C606.399 367.827 604.613 368.6 602.319 369.24C600.079 369.88 597.519 370.2 594.639 370.2ZM581.839 347.88H601.919C602.933 347.88 603.679 347.747 604.159 347.48C604.693 347.213 604.959 346.493 604.959 345.32C604.959 343.827 604.506 342.493 603.599 341.32C602.693 340.093 601.439 339.107 599.839 338.36C598.293 337.613 596.506 337.24 594.479 337.24C592.133 337.24 589.973 337.72 587.999 338.68C586.079 339.587 584.559 340.84 583.439 342.44C582.319 344.04 581.786 345.853 581.839 347.88ZM645.843 369.96C643.069 369.96 640.456 369.507 638.003 368.6C635.603 367.693 633.469 366.387 631.603 364.68C629.789 362.973 628.349 360.947 627.283 358.6C626.269 356.2 625.763 353.48 625.763 350.44C625.763 347.4 626.269 344.707 627.283 342.36C628.349 339.96 629.789 337.907 631.603 336.2C633.416 334.493 635.523 333.187 637.923 332.28C640.376 331.373 642.963 330.92 645.683 330.92C647.496 330.92 649.283 331.213 651.043 331.8C652.803 332.333 654.349 333.053 655.683 333.96C657.069 334.813 658.056 335.72 658.643 336.68C659.176 337.373 659.549 337.96 659.763 338.44C660.029 338.867 660.056 339.373 659.843 339.96C659.629 340.387 659.336 340.787 658.963 341.16C658.589 341.48 658.216 341.747 657.843 341.96C656.883 342.707 655.923 342.813 654.963 342.28C654.376 341.693 653.709 341.16 652.963 340.68C652.269 340.147 651.523 339.667 650.723 339.24C649.923 338.813 649.096 338.493 648.243 338.28C647.443 338.013 646.589 337.88 645.683 337.88C643.176 337.88 640.963 338.413 639.043 339.48C637.123 340.493 635.629 341.96 634.563 343.88C633.549 345.747 633.043 347.933 633.043 350.44C633.043 352.947 633.549 355.133 634.563 357C635.629 358.867 637.096 360.333 638.963 361.4C640.883 362.467 643.069 363 645.523 363C646.643 363 647.709 362.867 648.723 362.6C649.789 362.28 650.776 361.88 651.683 361.4C652.589 360.867 653.336 360.307 653.923 359.72C654.456 359.347 654.909 359.027 655.283 358.76C655.656 358.493 656.109 358.36 656.643 358.36C657.069 358.36 657.523 358.547 658.003 358.92C658.483 359.24 658.989 359.747 659.523 360.44C659.949 360.92 660.189 361.427 660.243 361.96C660.349 362.493 660.269 363 660.003 363.48C659.736 363.96 659.309 364.44 658.723 364.92C657.869 365.773 656.723 366.6 655.283 367.4C653.896 368.147 652.376 368.76 650.723 369.24C649.069 369.72 647.443 369.96 645.843 369.96ZM693.686 369.8C691.18 369.8 689.046 369.56 687.286 369.08C685.58 368.6 684.166 367.853 683.046 366.84C681.926 365.827 681.126 364.52 680.646 362.92C680.166 361.267 679.926 359.24 679.926 356.84V321.48C679.926 320.733 680.006 320.093 680.166 319.56C680.326 319.027 680.646 318.627 681.126 318.36C681.606 318.04 682.353 317.88 683.366 317.88C684.38 317.88 685.153 318.04 685.686 318.36C686.22 318.627 686.566 319.027 686.726 319.56C686.886 320.04 686.966 320.653 686.966 321.4V356.84C686.966 358.227 687.073 359.347 687.286 360.2C687.553 361 687.926 361.613 688.406 362.04C688.94 362.467 689.633 362.733 690.486 362.84C691.34 362.947 692.38 363 693.606 363C694.46 363 695.153 363.08 695.686 363.24C696.22 363.4 696.62 363.72 696.886 364.2C697.153 364.68 697.286 365.4 697.286 366.36C697.286 367.373 697.126 368.147 696.806 368.68C696.54 369.16 696.113 369.453 695.526 369.56C694.993 369.72 694.38 369.8 693.686 369.8ZM675.766 331.96L683.446 332.04L694.566 331.88C695.313 331.88 695.953 331.96 696.486 332.12C697.02 332.227 697.42 332.547 697.686 333.08C698.006 333.56 698.166 334.307 698.166 335.32C698.166 336.333 698.033 337.107 697.766 337.64C697.5 338.12 697.1 338.44 696.566 338.6C696.033 338.76 695.393 338.84 694.646 338.84L683.686 338.68L675.606 338.76C674.486 338.76 673.713 338.493 673.286 337.96C672.913 337.427 672.726 336.547 672.726 335.32C672.726 334.147 672.966 333.293 673.446 332.76C673.926 332.227 674.7 331.96 675.766 331.96Z" fill="#AAAAAA"/>
<path d="M417.68 176.52C414.427 176.52 411.653 176.12 409.36 175.32C407.12 174.52 405.28 173.587 403.84 172.52C402.4 171.4 401.307 170.387 400.56 169.48C399.813 168.573 399.36 168.013 399.2 167.8C398.133 166.467 397.467 165.267 397.2 164.2C396.987 163.133 397.147 162.067 397.68 161C398.267 159.933 399.227 158.76 400.56 157.48C401.787 156.307 402.987 155.667 404.16 155.56C405.333 155.4 406.48 155.64 407.6 156.28C408.773 156.92 409.893 157.853 410.96 159.08C412.24 160.52 413.333 161.507 414.24 162.04C415.147 162.52 416.187 162.76 417.36 162.76C418.8 162.76 419.973 162.6 420.88 162.28C421.787 161.907 422.453 161.373 422.88 160.68C423.307 159.933 423.52 159 423.52 157.88C423.52 156.973 423.067 156.28 422.16 155.8C421.253 155.267 420.053 154.813 418.56 154.44C417.12 154.067 415.493 153.667 413.68 153.24C411.867 152.76 410.08 152.147 408.32 151.4C407.253 150.973 406.213 150.44 405.2 149.8C404.187 149.16 403.227 148.44 402.32 147.64C401.467 146.787 400.72 145.8 400.08 144.68C399.44 143.507 398.933 142.2 398.56 140.76C398.24 139.32 398.08 137.693 398.08 135.88C398.08 132.627 398.88 129.72 400.48 127.16C402.133 124.6 404.373 122.573 407.2 121.08C410.08 119.587 413.333 118.84 416.96 118.84C419.573 118.84 421.813 119.053 423.68 119.48C425.547 119.907 427.067 120.413 428.24 121C429.467 121.587 430.4 122.147 431.04 122.68C431.68 123.16 432.08 123.48 432.24 123.64C434 125.24 434.96 126.627 435.12 127.8C435.28 128.92 434.64 130.547 433.2 132.68C431.6 134.973 430.027 136.28 428.48 136.6C426.933 136.867 425.147 136.36 423.12 135.08C422.693 134.76 422.267 134.413 421.84 134.04C421.413 133.613 420.827 133.267 420.08 133C419.387 132.68 418.32 132.52 416.88 132.52C416.347 132.52 415.813 132.627 415.28 132.84C414.747 133 414.293 133.24 413.92 133.56C413.547 133.827 413.227 134.173 412.96 134.6C412.747 135.027 412.64 135.48 412.64 135.96C412.64 137.08 413.067 137.96 413.92 138.6C414.773 139.187 415.893 139.64 417.28 139.96C418.72 140.28 420.293 140.6 422 140.92C423.707 141.24 425.44 141.667 427.2 142.2C428.64 142.68 430.027 143.293 431.36 144.04C432.693 144.787 433.867 145.747 434.88 146.92C435.893 148.093 436.693 149.56 437.28 151.32C437.92 153.027 438.24 155.133 438.24 157.64C438.24 161.107 437.573 164.067 436.24 166.52C434.907 168.92 433.173 170.867 431.04 172.36C428.96 173.8 426.72 174.84 424.32 175.48C421.973 176.173 419.76 176.52 417.68 176.52ZM456.879 175.64C454.586 175.64 452.933 175.293 451.919 174.6C450.906 173.907 450.266 173 449.999 171.88C449.733 170.76 449.599 169.56 449.599 168.28V126.92C449.599 125.747 449.706 124.6 449.919 123.48C450.133 122.36 450.746 121.453 451.759 120.76C452.773 120.013 454.506 119.667 456.959 119.72H470.719C474.506 119.72 478.079 120.44 481.439 121.88C484.799 123.32 487.759 125.32 490.319 127.88C492.933 130.387 494.959 133.32 496.399 136.68C497.893 140.04 498.639 143.613 498.639 147.4C498.639 151.293 497.893 154.947 496.399 158.36C494.959 161.773 492.933 164.787 490.319 167.4C487.759 169.96 484.773 171.987 481.359 173.48C477.999 174.92 474.373 175.64 470.479 175.64H456.879ZM464.239 161H470.719C473.119 161 475.333 160.413 477.359 159.24C479.386 158.013 480.986 156.413 482.159 154.44C483.386 152.413 483.999 150.173 483.999 147.72C483.999 145.267 483.386 143.027 482.159 141C480.986 138.973 479.386 137.373 477.359 136.2C475.333 134.973 473.093 134.36 470.639 134.36H464.239V161ZM536.981 176.6C533.088 176.6 529.435 175.88 526.021 174.44C522.661 172.947 519.701 170.893 517.141 168.28C514.581 165.667 512.555 162.653 511.061 159.24C509.621 155.773 508.901 152.093 508.901 148.2C508.901 144.147 509.595 140.36 510.981 136.84C512.421 133.32 514.395 130.227 516.901 127.56C519.408 124.893 522.315 122.813 525.621 121.32C528.981 119.827 532.555 119.08 536.341 119.08C540.235 119.08 543.861 119.827 547.221 121.32C550.635 122.76 553.621 124.787 556.181 127.4C558.741 130.013 560.741 133.08 562.181 136.6C563.621 140.067 564.341 143.827 564.341 147.88C564.341 151.827 563.621 155.533 562.181 159C560.795 162.467 558.821 165.533 556.261 168.2C553.755 170.813 550.848 172.867 547.541 174.36C544.288 175.853 540.768 176.6 536.981 176.6ZM536.581 161.96C538.395 161.96 540.101 161.613 541.701 160.92C543.301 160.173 544.688 159.187 545.861 157.96C547.088 156.68 548.021 155.187 548.661 153.48C549.355 151.72 549.701 149.853 549.701 147.88C549.701 145.907 549.355 144.067 548.661 142.36C547.968 140.653 547.008 139.16 545.781 137.88C544.608 136.547 543.221 135.533 541.621 134.84C540.075 134.093 538.421 133.72 536.661 133.72C534.848 133.72 533.141 134.093 531.541 134.84C529.995 135.533 528.608 136.547 527.381 137.88C526.208 139.16 525.275 140.653 524.581 142.36C523.888 144.067 523.541 145.907 523.541 147.88C523.541 149.8 523.888 151.613 524.581 153.32C525.275 155.027 526.208 156.547 527.381 157.88C528.608 159.16 529.995 160.173 531.541 160.92C533.141 161.613 534.821 161.96 536.581 161.96ZM615.838 175.64C613.438 175.64 611.731 175.293 610.718 174.6C609.704 173.853 609.091 172.92 608.878 171.8C608.664 170.627 608.558 169.453 608.558 168.28V127C608.558 125.827 608.664 124.68 608.878 123.56C609.091 122.44 609.704 121.533 610.718 120.84C611.731 120.093 613.464 119.72 615.918 119.72C618.371 119.72 620.078 120.093 621.038 120.84C622.051 121.533 622.664 122.44 622.878 123.56C623.091 124.68 623.198 125.853 623.198 127.08V168.36C623.198 169.533 623.091 170.68 622.878 171.8C622.664 172.92 622.051 173.853 621.038 174.6C620.024 175.293 618.291 175.64 615.838 175.64ZM582.958 175.64C580.558 175.64 578.851 175.293 577.838 174.6C576.824 173.853 576.211 172.92 575.998 171.8C575.784 170.627 575.678 169.453 575.678 168.28V127C575.678 125.827 575.784 124.68 575.998 123.56C576.211 122.44 576.824 121.533 577.838 120.84C578.851 120.093 580.584 119.72 583.038 119.72C585.491 119.72 587.198 120.093 588.158 120.84C589.171 121.533 589.784 122.44 589.998 123.56C590.211 124.68 590.318 125.853 590.318 127.08V168.36C590.318 169.533 590.211 170.68 589.998 171.8C589.784 172.92 589.171 173.853 588.158 174.6C587.144 175.293 585.411 175.64 582.958 175.64ZM589.038 153.96V141.48H609.838V153.96H589.038ZM406.08 272.64C403.68 272.64 401.973 272.293 400.96 271.6C399.947 270.853 399.333 269.92 399.12 268.8C398.907 267.627 398.8 266.453 398.8 265.28V224C398.8 222.827 398.907 221.68 399.12 220.56C399.333 219.44 399.947 218.533 400.96 217.84C401.973 217.093 403.707 216.72 406.16 216.72H422.08C424.107 216.72 426.293 217.147 428.64 218C430.987 218.8 433.2 220.053 435.28 221.76C437.413 223.467 439.147 225.6 440.48 228.16C441.813 230.72 442.48 233.76 442.48 237.28C442.48 240.747 441.813 243.76 440.48 246.32C439.147 248.88 437.413 251.013 435.28 252.72C433.2 254.373 430.987 255.627 428.64 256.48C426.293 257.28 424.08 257.68 422 257.68H413.44V265.36C413.44 266.533 413.333 267.68 413.12 268.8C412.907 269.92 412.293 270.853 411.28 271.6C410.267 272.293 408.533 272.64 406.08 272.64ZM413.44 243.04H422.08C422.773 243.04 423.573 242.88 424.48 242.56C425.387 242.187 426.187 241.573 426.88 240.72C427.573 239.867 427.92 238.693 427.92 237.2C427.92 236.08 427.653 235.093 427.12 234.24C426.587 233.333 425.867 232.64 424.96 232.16C424.107 231.627 423.12 231.36 422 231.36H413.44V243.04ZM470.938 272.72C468.485 272.72 466.325 272.613 464.458 272.4C462.645 272.187 461.098 271.76 459.818 271.12C458.538 270.48 457.498 269.573 456.698 268.4C455.898 267.173 455.311 265.6 454.938 263.68C454.565 261.707 454.378 259.253 454.378 256.32V220.88C454.378 219.653 454.485 218.507 454.698 217.44C454.911 216.32 455.525 215.413 456.538 214.72C457.551 213.973 459.258 213.6 461.658 213.6C464.058 213.6 465.738 213.973 466.698 214.72C467.711 215.413 468.325 216.32 468.538 217.44C468.751 218.56 468.858 219.733 468.858 220.96V255.44C468.858 256.24 468.858 256.88 468.858 257.36C468.911 257.787 468.991 258.107 469.098 258.32C469.258 258.533 469.471 258.667 469.738 258.72C470.058 258.72 470.485 258.72 471.018 258.72C471.711 258.72 472.431 258.827 473.178 259.04C473.978 259.2 474.645 259.76 475.178 260.72C475.765 261.627 476.058 263.227 476.058 265.52C476.058 267.92 475.765 269.627 475.178 270.64C474.645 271.653 473.978 272.24 473.178 272.4C472.378 272.613 471.631 272.72 470.938 272.72ZM519.302 272.56C516.902 272.56 515.115 272.16 513.942 271.36C512.822 270.56 512.289 269.653 512.342 268.64H513.462C513.195 269.013 512.662 269.52 511.862 270.16C511.115 270.747 510.102 271.307 508.822 271.84C507.542 272.32 505.969 272.56 504.102 272.56C501.702 272.56 499.382 272.027 497.142 270.96C494.955 269.84 492.982 268.32 491.222 266.4C489.515 264.48 488.155 262.32 487.142 259.92C486.129 257.467 485.622 254.907 485.622 252.24C485.622 249.627 486.129 247.12 487.142 244.72C488.155 242.32 489.542 240.187 491.302 238.32C493.062 236.4 495.035 234.907 497.222 233.84C499.409 232.72 501.702 232.16 504.102 232.16C505.915 232.16 507.435 232.427 508.662 232.96C509.942 233.493 510.955 234.08 511.702 234.72C512.502 235.36 513.035 235.893 513.302 236.32H512.422C512.369 234.987 512.902 233.947 514.022 233.2C515.195 232.453 516.982 232.08 519.382 232.08C521.782 232.08 523.462 232.453 524.422 233.2C525.435 233.893 526.049 234.8 526.262 235.92C526.475 237.04 526.582 238.187 526.582 239.36V265.36C526.582 266.533 526.475 267.68 526.262 268.8C526.049 269.92 525.435 270.827 524.422 271.52C523.462 272.213 521.755 272.56 519.302 272.56ZM506.102 258.08C507.115 258.08 508.022 257.813 508.822 257.28C509.675 256.747 510.342 256.053 510.822 255.2C511.355 254.293 511.622 253.333 511.622 252.32C511.622 251.253 511.355 250.293 510.822 249.44C510.342 248.587 509.675 247.893 508.822 247.36C507.969 246.827 507.009 246.56 505.942 246.56C504.875 246.56 503.889 246.827 502.982 247.36C502.129 247.893 501.435 248.613 500.902 249.52C500.369 250.373 500.102 251.333 500.102 252.4C500.102 253.413 500.369 254.347 500.902 255.2C501.489 256.053 502.235 256.747 503.142 257.28C504.049 257.813 505.035 258.08 506.102 258.08ZM559.913 273.12C557.726 273.12 555.406 272.693 552.953 271.84C550.553 270.933 548.286 269.627 546.153 267.92C544.02 266.16 542.286 263.973 540.953 261.36C539.62 258.747 538.953 255.707 538.953 252.24C538.953 248.827 539.62 245.84 540.953 243.28C542.286 240.667 543.993 238.507 546.073 236.8C548.206 235.093 550.473 233.813 552.873 232.96C555.326 232.053 557.62 231.6 559.753 231.6C561.78 231.6 563.54 231.813 565.033 232.24C566.526 232.667 567.753 233.147 568.713 233.68C569.673 234.16 570.366 234.533 570.793 234.8C571.86 235.44 572.846 236.187 573.753 237.04C574.713 237.84 575.193 238.933 575.193 240.32C575.193 241.013 575.06 241.733 574.793 242.48C574.526 243.173 574.1 243.973 573.513 244.88C571.593 247.813 569.673 249.28 567.753 249.28C566.9 249.28 566.153 249.147 565.513 248.88C564.873 248.56 564.286 248.213 563.753 247.84C563.22 247.467 562.633 247.147 561.993 246.88C561.406 246.56 560.66 246.4 559.753 246.4C558.686 246.4 557.7 246.667 556.793 247.2C555.886 247.733 555.166 248.453 554.633 249.36C554.1 250.213 553.833 251.2 553.833 252.32C553.833 253.44 554.1 254.453 554.633 255.36C555.166 256.267 555.86 256.987 556.713 257.52C557.62 258.053 558.58 258.32 559.593 258.32C560.34 258.32 560.953 258.24 561.433 258.08C561.966 257.92 562.366 257.76 562.633 257.6C562.9 257.387 563.06 257.28 563.113 257.28C563.86 256.853 564.553 256.453 565.193 256.08C565.886 255.707 566.58 255.52 567.273 255.52C568.18 255.52 569.113 255.867 570.073 256.56C571.033 257.2 572.1 258.267 573.273 259.76C574.393 261.147 575.006 262.453 575.113 263.68C575.273 264.853 574.98 265.973 574.233 267.04C573.486 268.053 572.34 269.04 570.793 270C570.633 270.107 570.073 270.427 569.113 270.96C568.206 271.44 566.98 271.92 565.433 272.4C563.886 272.88 562.046 273.12 559.913 273.12ZM608.228 273.6C604.228 273.6 600.841 272.96 598.068 271.68C595.294 270.347 593.054 268.64 591.348 266.56C589.641 264.427 588.388 262.133 587.588 259.68C586.788 257.227 586.388 254.853 586.388 252.56C586.388 248.347 587.321 244.64 589.188 241.44C591.054 238.24 593.641 235.733 596.947 233.92C600.254 232.107 604.041 231.2 608.308 231.2C611.614 231.2 614.441 231.733 616.788 232.8C619.134 233.867 621.028 235.227 622.468 236.88C623.961 238.533 625.054 240.293 625.748 242.16C626.441 244.027 626.788 245.76 626.788 247.36C626.788 250.4 626.041 252.72 624.548 254.32C623.054 255.92 621.134 256.72 618.788 256.72H601.748C601.961 257.573 602.388 258.32 603.028 258.96C603.721 259.547 604.574 260.027 605.588 260.4C606.601 260.72 607.694 260.88 608.868 260.88C610.041 260.88 611.081 260.827 611.988 260.72C612.894 260.56 613.668 260.373 614.308 260.16C615.001 259.947 615.614 259.733 616.148 259.52C616.734 259.307 617.241 259.147 617.668 259.04C618.148 258.88 618.601 258.8 619.028 258.8C619.988 258.8 620.868 259.12 621.668 259.76C622.468 260.4 623.188 261.36 623.828 262.64C624.201 263.333 624.468 264 624.628 264.64C624.788 265.227 624.868 265.787 624.868 266.32C624.868 267.92 624.201 269.253 622.868 270.32C621.588 271.387 619.721 272.187 617.268 272.72C614.814 273.307 611.801 273.6 608.228 273.6ZM601.748 249.2H610.708C611.454 249.2 611.988 249.04 612.308 248.72C612.681 248.4 612.868 247.92 612.868 247.28C612.868 246.587 612.654 246 612.228 245.52C611.854 245.04 611.321 244.693 610.628 244.48C609.934 244.213 609.108 244.08 608.148 244.08C606.868 244.08 605.748 244.347 604.788 244.88C603.828 245.36 603.081 246 602.548 246.8C602.068 247.547 601.801 248.347 601.748 249.2Z" fill="#7E1CC4"/>
<g filter="url(#filter0_d_1020_53)">
<path fill-rule="evenodd" clip-rule="evenodd" d="M141.839 100.596C142.065 100.89 142.264 101.205 142.431 101.537C149.015 111.906 156.259 122.362 162.843 131.859C167.05 137.926 170.987 143.609 174.367 148.698C177.73 143.609 181.673 137.914 185.891 131.859C188.233 128.478 190.66 124.973 193.113 121.398V121.399C193.257 121.156 193.416 120.924 193.59 120.703C209.888 96.8583 227.095 69.8709 227.095 54.1516C227.095 35.1634 217.042 17.615 200.725 8.12058C184.407 -1.37353 164.304 -1.37353 147.986 8.12058C131.669 17.6147 121.616 35.162 121.616 54.1516C121.616 65.5453 130.669 82.8524 141.84 100.604L141.839 100.596ZM179.022 30.5088C180.47 31.9669 181.162 34.0217 180.896 36.0672C180.629 38.114 179.434 39.9179 177.661 40.9506C175.888 41.9821 173.739 42.1252 171.848 41.3354C169.956 40.5456 168.536 38.9133 168.007 36.9207C167.478 34.928 167.899 32.8001 169.144 31.1625C170.392 29.5261 172.323 28.5675 174.37 28.5675C176.115 28.5689 177.788 29.2666 179.022 30.5088ZM174.37 16.527C180.128 16.527 185.558 19.2259 189.062 23.8284C192.567 28.4322 193.748 34.4161 192.259 40.0205C190.77 45.6249 186.778 50.2124 181.46 52.4335C176.141 54.6544 170.101 54.2575 165.115 51.3574C160.127 48.4574 156.763 43.3851 156.01 37.6321C155.258 31.8805 157.201 26.1022 161.271 21.9979C164.741 18.4904 169.455 16.5215 174.37 16.527ZM219.353 283.08C210.482 279.049 202.21 273.793 194.776 267.465C191.204 264.719 187.652 261.99 184.487 259.825C179.287 256.176 173.668 253.177 167.754 250.887C162.295 248.828 156.574 247.558 150.761 247.112C144.55 246.696 138.311 246.854 132.127 247.585C126.2 248.223 120.472 249.244 115.665 250.169V337.748L219.374 371.999L219.375 283.079L219.353 283.08ZM115.645 237.931V103.515L133.284 109.322C139.741 119.459 146.712 129.521 153.087 138.711C159.54 148.023 165.359 156.413 169.211 162.808V162.81C170.268 164.635 172.202 165.765 174.3 165.783C176.397 165.8 178.35 164.704 179.438 162.896C183.289 156.488 189.13 148.06 195.615 138.711C197.232 136.372 198.908 133.979 200.553 131.545L219.327 137.766L219.328 269.925C213.246 266.375 207.448 262.354 201.985 257.897C198.458 255.188 194.952 252.504 191.141 249.884H191.142C185.155 245.696 178.69 242.25 171.886 239.623C165.391 237.165 158.586 235.641 151.671 235.098C144.729 234.627 137.757 234.801 130.847 235.617C125.328 236.213 120.147 237.064 115.621 237.906L115.645 237.931ZM293.595 214.206C291.274 211.868 288.005 210.75 284.749 211.182C281.495 211.614 278.625 213.547 276.983 216.414C275.342 219.279 275.117 222.751 276.374 225.808C277.63 228.863 280.226 231.157 283.397 232.013C286.568 232.87 289.954 232.191 292.558 230.177C295.162 228.163 296.69 225.043 296.69 221.735C296.695 218.91 295.581 216.2 293.595 214.206ZM303.509 207.321C305.566 204.699 307.59 202.244 309.595 200.016L309.596 200.018C312.102 197.184 314.82 194.55 317.728 192.137C322.739 188.048 328.668 185.258 334.996 184.012V337.748L231.287 371.998V285.338C235.517 285.295 239.698 284.434 243.604 282.8C250.728 279.657 257.069 274.957 262.165 269.038C268.862 261.125 274.789 252.583 279.862 243.527C286.059 245.332 292.728 244.369 298.175 240.885C303.622 237.4 307.323 231.728 308.34 225.307C309.357 218.887 307.593 212.335 303.492 207.314L303.509 207.321ZM286.125 199.046V199.047C280.236 199.047 274.581 201.372 270.375 205.525C266.167 209.678 263.742 215.327 263.619 221.261C263.496 227.194 265.686 232.94 269.717 237.266C265.016 245.665 259.535 253.596 253.35 260.953C249.452 265.534 244.596 269.19 239.131 271.658C236.643 272.699 233.984 273.262 231.292 273.317V137.761L335 103.514V171.779C325.925 173.134 317.38 176.931 310.267 182.771C306.875 185.588 303.704 188.664 300.781 191.97C298.428 194.583 296.086 197.411 293.786 200.386H293.785C291.333 199.493 288.746 199.038 286.139 199.042L286.125 199.046ZM40.7433 251.834C38.4203 249.493 35.1491 248.372 31.891 248.806C28.633 249.238 25.7608 251.172 24.1184 254.04C22.4746 256.908 22.2496 260.383 23.5075 263.442C24.7641 266.502 27.363 268.797 30.5366 269.653C33.7103 270.51 37.0997 269.83 39.7051 267.814C42.3121 265.797 43.8394 262.674 43.8394 259.363C43.8421 256.538 42.7273 253.829 40.7433 251.834ZM54.6743 266.421C56.5096 266.807 58.3127 267.217 60.0034 267.598C62.2058 268.096 64.2581 268.561 65.1436 268.739V268.74C68.5115 269.541 71.9786 269.844 75.4321 269.639C78.5227 269.379 81.4859 268.282 84.0087 266.467C86.0155 265.004 87.9217 263.407 89.7171 261.689C91.7828 259.698 94.0067 257.88 96.3631 256.252C98.5548 254.885 100.918 253.822 103.388 253.087L103.7 252.991L103.702 337.75L0 372V298.484C5.41212 290.534 11.3819 282.981 17.8602 275.885C23.4733 281.195 31.3893 283.247 38.8485 281.327C46.3077 279.407 52.2771 273.78 54.6764 266.407L54.6743 266.421ZM33.2748 236.675C26.2618 236.682 19.6504 239.979 15.393 245.595C11.1342 251.21 9.71305 258.505 11.5496 265.326C11.0003 265.832 10.5194 266.299 10.1054 266.727L10.1041 266.729C6.5072 270.41 3.13256 274.308 0.0017583 278.399V137.766L103.71 103.519V240.495C102.32 240.856 101.023 241.226 99.8051 241.611V241.612C96.3248 242.665 93.0023 244.189 89.9277 246.14C87.018 248.125 84.2797 250.354 81.7425 252.802C80.3453 254.14 78.8649 255.386 77.3095 256.535C76.4535 257.176 75.4407 257.575 74.3797 257.688C72.0567 257.745 69.7378 257.488 67.4819 256.924C65.3425 256.509 64.0297 256.197 62.6257 255.879C60.3295 255.36 57.847 254.8 55.2173 254.286L55.2186 254.287C54.0718 249.286 51.2788 244.824 47.2947 241.628C43.3093 238.433 38.3674 236.691 33.2752 236.688L33.2748 236.675Z" fill="#7E1CC4"/>
</g>
<defs>
<filter id="filter0_d_1020_53" x="0" y="1" width="339" height="379" filterUnits="userSpaceOnUse" color-interpolation-filters="sRGB">
<feFlood flood-opacity="0" result="BackgroundImageFix"/>
<feColorMatrix in="SourceAlpha" type="matrix" values="0 0 0 0 0 0 0 0 0 0 0 0 0 0 0 0 0 0 127 0" result="hardAlpha"/>
<feOffset dx="4" dy="8"/>
<feComposite in2="hardAlpha" operator="out"/>
<feColorMatrix type="matrix" values="0 0 0 0 1 0 0 0 0 0.611765 0 0 0 0 0.466667 0 0 0 1 0"/>
<feBlend mode="normal" in2="BackgroundImageFix" result="effect1_dropShadow_1020_53"/>
<feBlend mode="normal" in="SourceGraphic" in2="effect1_dropShadow_1020_53" result="shape"/>
</filter>
</defs>
</svg>
