<svg width="168" height="38" viewBox="0 0 168 38" fill="none" xmlns="http://www.w3.org/2000/svg">
<g clip-path="url(#clip0_140_32)">
<path d="M14.1238 0.964844V17.7224H10.9802V10.3968H3.12337V17.7224H0V0.964844H3.12337V8.1813H10.9802V0.964844H14.1238Z" fill="white"/>
<path d="M18.8693 12.1353C18.9018 12.6761 19.0105 13.2097 19.1922 13.7201C19.3397 14.1288 19.569 14.503 19.8661 14.8197C20.1434 15.1044 20.4814 15.3228 20.8547 15.4585C21.261 15.6048 21.6901 15.6773 22.1218 15.6727C22.5312 15.6803 22.9393 15.6257 23.3324 15.511C23.6345 15.419 23.9287 15.3028 24.2121 15.1633C24.4664 15.0299 24.6843 14.9127 24.8739 14.8035C25.0401 14.7046 25.2295 14.6516 25.4227 14.6499C25.5271 14.6434 25.6314 14.6646 25.7249 14.7115C25.8185 14.7584 25.898 14.8292 25.9554 14.9167L26.7625 15.9598C26.4552 16.3205 26.0978 16.635 25.7012 16.8937C25.311 17.1341 24.8955 17.3307 24.4623 17.4799C24.0382 17.6286 23.6001 17.7343 23.1549 17.7952C22.7286 17.8574 22.2984 17.8884 21.8676 17.8882C21.0813 17.896 20.3003 17.7589 19.5634 17.4839C18.8664 17.2173 18.2347 16.8037 17.7112 16.2711C17.1653 15.6987 16.7448 15.0185 16.4764 14.2739C16.1588 13.393 16.0056 12.4612 16.0244 11.5248C16.0223 10.7428 16.1589 9.96661 16.4279 9.23252C16.6734 8.5443 17.0534 7.91206 17.5457 7.37281C18.0481 6.83223 18.6586 6.40381 19.3374 6.11549C20.764 5.53091 22.3553 5.49206 23.8086 6.00633C24.4148 6.23656 24.965 6.59351 25.4227 7.05343C25.8925 7.53772 26.2567 8.11457 26.4921 8.74737C26.7671 9.47845 26.904 10.2544 26.8957 11.0356C26.9205 11.3348 26.8735 11.6357 26.7584 11.9129C26.697 11.9936 26.6154 12.0566 26.5219 12.0956C26.4283 12.1346 26.3262 12.1483 26.2258 12.1353H18.8693ZM24.3211 10.409C24.3232 10.0539 24.2701 9.70062 24.1637 9.36189C24.065 9.04587 23.906 8.75205 23.6956 8.49672C23.4744 8.24253 23.1985 8.04207 22.8885 7.91051C22.5414 7.76391 22.1676 7.69096 21.7909 7.69624C21.4352 7.67672 21.0793 7.72932 20.7444 7.85089C20.4095 7.97246 20.1025 8.16049 19.8418 8.40373C19.3254 8.95907 19.0063 9.6696 18.9339 10.4252L24.3211 10.409Z" fill="white"/>
<path d="M28.4049 7.49026C29.7419 6.24729 31.5085 5.57324 33.3321 5.61034C33.97 5.60072 34.6036 5.7175 35.1964 5.95398C35.7215 6.16778 36.1948 6.49173 36.5846 6.90405C36.9691 7.32392 37.2619 7.81965 37.4441 8.35947C37.6455 8.95289 37.7452 9.57623 37.7387 10.203V17.7227H36.4433C36.2281 17.7339 36.0134 17.6922 35.8178 17.6014C35.645 17.4859 35.5212 17.3101 35.4708 17.1082L35.2166 16.2672C34.9369 16.5221 34.6432 16.761 34.3369 16.9828C34.058 17.1775 33.7606 17.344 33.4491 17.4801C33.1311 17.6233 32.7981 17.7304 32.4564 17.7995C32.0737 17.8753 31.6843 17.9119 31.2942 17.9086C30.8239 17.9125 30.3558 17.8443 29.906 17.7065C29.5023 17.5825 29.1285 17.3761 28.8084 17.1001C28.4939 16.8236 28.248 16.4775 28.0901 16.0894C27.915 15.643 27.8312 15.1659 27.844 14.6865C27.8443 14.3812 27.8947 14.0779 27.9933 13.789C28.1029 13.4764 28.2699 13.1871 28.4856 12.936C28.7436 12.6401 29.0426 12.3828 29.3734 12.1719C29.7898 11.9061 30.2387 11.6955 30.7091 11.5452C31.3105 11.3492 31.9274 11.2045 32.5532 11.1126C33.3548 10.9899 34.1637 10.9224 34.9745 10.9105V10.203C35.025 9.5705 34.8443 8.94117 34.466 8.43224C34.2777 8.23507 34.0487 8.08153 33.795 7.98236C33.5412 7.8832 33.2689 7.8408 32.9971 7.85816C32.6072 7.84756 32.2182 7.90361 31.847 8.02391C31.5661 8.11669 31.2956 8.23864 31.04 8.38777L30.4064 8.75162C30.2147 8.86069 29.9974 8.91651 29.7769 8.91333C29.5953 8.9189 29.4167 8.86497 29.2685 8.75971C29.1334 8.66067 29.0196 8.53559 28.9335 8.39181L28.4049 7.49026ZM34.9502 12.6489C34.2521 12.6727 33.5564 12.7443 32.868 12.8632C32.4013 12.9367 31.9467 13.0727 31.5161 13.2675C31.2266 13.3912 30.9746 13.5892 30.7858 13.8415C30.6104 14.1193 30.5371 14.4496 30.5783 14.7757C30.6195 15.1018 30.7728 15.4033 31.0117 15.6285C31.3552 15.8567 31.7621 15.9699 32.1739 15.9519C32.6989 15.9657 33.2199 15.8563 33.6952 15.6325C34.1682 15.3818 34.5931 15.0492 34.9502 14.6501V12.6489Z" fill="white"/>
<path d="M42.9685 0.5V17.7225H40.1115V0.5H42.9685Z" fill="white"/>
<path d="M49.4372 17.9083C49.0021 17.9375 48.5657 17.8749 48.1562 17.7245C47.7468 17.574 47.3734 17.3392 47.0603 17.035C46.477 16.3669 46.1798 15.4954 46.2331 14.6093V7.97506H45.0225C44.9487 7.97842 44.8749 7.96691 44.8056 7.94121C44.7363 7.91552 44.6728 7.87617 44.619 7.82548C44.5616 7.76572 44.5176 7.69447 44.4898 7.61642C44.462 7.53837 44.451 7.4553 44.4575 7.37268V6.23664L46.3663 5.92535L46.9675 2.69108C46.9942 2.54183 47.0757 2.40799 47.1959 2.31594C47.3162 2.2239 47.4665 2.18032 47.6172 2.19381H49.0982V5.93747H52.266V7.95889H49.0982V14.4193C49.0783 14.7326 49.1746 15.0421 49.3686 15.2885C49.4615 15.3938 49.5768 15.4767 49.706 15.5313C49.8352 15.5859 49.975 15.6107 50.1151 15.6039C50.2656 15.6068 50.4156 15.5849 50.559 15.5392C50.6663 15.5006 50.7714 15.4561 50.8738 15.4058C50.9625 15.3613 51.0392 15.3168 51.1118 15.2724C51.1733 15.2325 51.2445 15.2101 51.3176 15.2077C51.3927 15.2062 51.4662 15.2289 51.5275 15.2724C51.5919 15.3294 51.6501 15.3931 51.701 15.4624L52.5565 16.8531C52.1322 17.2052 51.6446 17.4728 51.1199 17.6415C50.577 17.8206 50.0088 17.9107 49.4372 17.9083Z" fill="white"/>
<path d="M56.5959 7.10599C57.0453 6.68098 57.5553 6.32535 58.1092 6.05081C58.7208 5.76828 59.3889 5.62998 60.0623 5.64653C60.6535 5.63453 61.2406 5.74749 61.7854 5.97804C62.2707 6.18516 62.7017 6.50203 63.0444 6.90385C63.3921 7.32317 63.6515 7.80861 63.8071 8.33097C63.9857 8.92194 64.0728 9.53686 64.0653 10.1543V17.7225H61.2083V10.1543C61.2457 9.55136 61.0699 8.95452 60.712 8.46842C60.5205 8.26052 60.2845 8.09871 60.0217 7.99509C59.759 7.89147 59.4762 7.84874 59.1947 7.87008C58.7112 7.86776 58.2345 7.98437 57.8065 8.20968C57.3591 8.45105 56.9509 8.75913 56.5959 9.12336V17.7225H53.7389V0.5H56.5959V7.10599Z" fill="white"/>
<path d="M76.9018 5.83269L70.4452 20.9933C70.376 21.1705 70.2637 21.3276 70.1184 21.4501C69.9337 21.5687 69.7156 21.6241 69.4969 21.6078H67.3703L69.5897 16.8332L64.7877 5.83269H67.2977C67.4874 5.82257 67.6746 5.87984 67.8263 5.9944C67.9486 6.09414 68.0454 6.22164 68.1088 6.36634L70.6187 12.5317C70.7026 12.736 70.774 12.9453 70.8326 13.1583C70.8932 13.3645 70.9456 13.5626 71.0021 13.793L71.2079 13.1502C71.2806 12.94 71.3572 12.7459 71.442 12.5195L73.8228 6.36634C73.8858 6.21129 73.9923 6.07787 74.1295 5.98227C74.2696 5.88244 74.4378 5.83004 74.6097 5.83269H76.9018Z" fill="white"/>
<path d="M96.1868 17.7223H93.362C93.13 17.7388 92.898 17.6891 92.6931 17.5789C92.4881 17.4687 92.3185 17.3025 92.2039 17.0997L88.685 11.7308C88.5798 11.5535 88.4312 11.406 88.2533 11.3023C88.0377 11.2065 87.8028 11.1622 87.5672 11.1729H86.2396V17.7223H83.1284V0.964779H88.2331C89.2185 0.946217 90.2017 1.06459 91.1547 1.31651C91.8872 1.50664 92.5735 1.84359 93.1724 2.307C93.6769 2.71073 94.0723 3.23476 94.3224 3.83115C94.5745 4.45085 94.7007 5.11469 94.6937 5.78384C94.6983 6.3329 94.6138 6.87905 94.4435 7.40097C94.2834 7.89409 94.0405 8.35622 93.7252 8.76745C93.4032 9.18915 93.0131 9.55398 92.5711 9.84688C92.0865 10.1667 91.5576 10.4132 91.0013 10.5786C91.2023 10.6908 91.3892 10.8265 91.5582 10.9829C91.7285 11.148 91.8789 11.3325 92.0061 11.5327L96.1868 17.7223ZM88.1806 8.93725C88.7001 8.94702 89.2178 8.87332 89.7141 8.71893C90.1128 8.5926 90.4811 8.38472 90.7955 8.10846C91.0741 7.85445 91.2896 7.53883 91.4251 7.1867C91.5669 6.8137 91.6381 6.41746 91.6349 6.01832C91.6562 5.64868 91.5915 5.27914 91.4458 4.93886C91.3001 4.59858 91.0775 4.29687 90.7955 4.05755C90.2346 3.60071 89.3832 3.37431 88.2331 3.37431H86.2437V8.93725H88.1806Z" fill="white"/>
<path d="M98.6282 12.1351C98.6606 12.676 98.7693 13.2095 98.951 13.7199C99.0985 14.1286 99.3278 14.5028 99.6249 14.8195C99.9023 15.1043 100.24 15.3226 100.614 15.4583C101.02 15.6046 101.449 15.6772 101.881 15.6726C102.29 15.6805 102.698 15.626 103.091 15.5109C103.392 15.4148 103.685 15.2944 103.967 15.1511C104.221 15.0176 104.439 14.9004 104.629 14.7912C104.794 14.6895 104.984 14.6337 105.178 14.6295C105.282 14.623 105.386 14.6443 105.48 14.6911C105.573 14.738 105.653 14.8088 105.71 14.8964L106.517 15.9394C106.21 16.3001 105.853 16.6146 105.456 16.8733C105.068 17.1205 104.654 17.3239 104.221 17.4797C103.797 17.6285 103.359 17.7341 102.914 17.7951C102.487 17.8572 102.057 17.8883 101.626 17.8881C100.84 17.8958 100.059 17.7588 99.3223 17.4838C98.6252 17.2171 97.9935 16.8035 97.47 16.2709C96.9242 15.6985 96.5036 15.0183 96.2352 14.2738C95.9177 13.3929 95.7645 12.461 95.7832 11.5246C95.7811 10.7426 95.9177 9.96645 96.1868 9.23235C96.4353 8.54171 96.8195 7.90798 97.3167 7.36861C97.8191 6.82802 98.4296 6.3996 99.1084 6.11129C99.8635 5.79075 100.677 5.63237 101.497 5.64636C102.203 5.63919 102.905 5.76112 103.567 6.00617C104.181 6.23327 104.739 6.59044 105.202 7.05327C105.67 7.53864 106.034 8.11519 106.271 8.74721C106.546 9.47829 106.683 10.2542 106.675 11.0355C106.7 11.3347 106.652 11.6355 106.537 11.9128C106.476 11.9934 106.394 12.0564 106.301 12.0954C106.207 12.1345 106.105 12.1481 106.005 12.1351H98.6282ZM104.076 10.4088C104.079 10.0539 104.028 9.70066 103.923 9.36172C103.824 9.04571 103.665 8.75189 103.454 8.49656C103.233 8.24237 102.957 8.04191 102.647 7.91035C102.295 7.76154 101.916 7.68854 101.534 7.69608C101.178 7.67656 100.822 7.72916 100.487 7.85073C100.152 7.9723 99.8452 8.16033 99.5846 8.40357C99.0681 8.95891 98.749 9.66944 98.6766 10.425L104.076 10.4088Z" fill="white"/>
<path d="M118.853 6.23683V7.30414C118.853 7.64374 118.648 7.85396 118.24 7.93078L117.175 8.12484C117.34 8.55422 117.422 9.01104 117.417 9.4711C117.428 10.0102 117.313 10.5445 117.082 11.0315C116.85 11.5185 116.509 11.9448 116.085 12.2768C115.641 12.6167 115.14 12.8729 114.604 13.0328C114.009 13.2161 113.39 13.3075 112.768 13.3037C112.544 13.304 112.321 13.2918 112.098 13.2673C111.884 13.2471 111.67 13.2148 111.465 13.1743C111.093 13.4007 110.908 13.6514 110.908 13.9303C110.904 14.0411 110.934 14.1503 110.993 14.244C111.052 14.3377 111.137 14.4115 111.239 14.4559C111.514 14.584 111.808 14.6646 112.11 14.6944C112.522 14.7443 112.935 14.7727 113.349 14.7793C113.809 14.7793 114.285 14.8198 114.77 14.8561C115.248 14.894 115.724 14.9615 116.194 15.0583C116.629 15.1501 117.045 15.3111 117.429 15.5353C117.788 15.7377 118.089 16.0303 118.301 16.3843C118.538 16.8066 118.652 17.2869 118.631 17.771C118.625 18.306 118.487 18.8311 118.228 19.2992C117.953 19.8155 117.57 20.2664 117.106 20.6212C116.564 21.0355 115.953 21.3516 115.302 21.5551C114.519 21.7991 113.702 21.9178 112.881 21.9069C112.094 21.9202 111.309 21.8332 110.545 21.6481C109.96 21.5061 109.401 21.2713 108.89 20.9527C108.489 20.6998 108.151 20.3565 107.905 19.9501C107.696 19.5905 107.585 19.182 107.583 18.7656C107.568 18.2534 107.749 17.7549 108.087 17.3708C108.468 16.9644 108.942 16.6564 109.467 16.4733C109.167 16.3223 108.909 16.0986 108.717 15.8224C108.518 15.5032 108.421 15.1309 108.438 14.7551C108.444 14.5666 108.482 14.3805 108.551 14.2053C108.621 14.0061 108.718 13.8171 108.838 13.6433C108.974 13.4481 109.136 13.2714 109.318 13.1177C109.527 12.9416 109.756 12.7909 110 12.669C109.423 12.3678 108.934 11.9204 108.583 11.3712C108.233 10.8008 108.055 10.1408 108.071 9.4711C108.057 8.92761 108.171 8.38847 108.403 7.89698C108.635 7.4055 108.979 6.97536 109.407 6.64112C109.851 6.29158 110.358 6.02957 110.9 5.86893C111.977 5.55488 113.117 5.51735 114.213 5.75978C114.635 5.85755 115.042 6.01118 115.423 6.21662L118.853 6.23683ZM116.004 18.2562C116.011 18.048 115.937 17.8452 115.799 17.6902C115.64 17.5305 115.445 17.4125 115.23 17.3465C114.957 17.2575 114.676 17.1979 114.39 17.1687C114.071 17.1282 113.733 17.0999 113.373 17.0797L112.264 17.0272C111.89 17.0151 111.517 16.984 111.146 16.9342C110.853 17.0932 110.593 17.3058 110.379 17.5608C110.183 17.7948 110.077 18.0918 110.081 18.3977C110.08 18.6024 110.134 18.8035 110.238 18.9798C110.359 19.1781 110.531 19.3411 110.734 19.4529C111.013 19.5991 111.312 19.7026 111.622 19.7601C112.518 19.9137 113.434 19.9137 114.33 19.7601C114.662 19.697 114.983 19.5839 115.282 19.4246C115.503 19.2992 115.686 19.118 115.815 18.899C115.937 18.7068 116.003 18.484 116.004 18.2562ZM112.776 11.4885C113.092 11.495 113.406 11.4457 113.704 11.3429C113.948 11.2562 114.171 11.1184 114.358 10.9386C114.537 10.7668 114.675 10.5567 114.762 10.3241C114.853 10.0715 114.898 9.80444 114.895 9.53578C114.908 9.27962 114.868 9.02347 114.778 8.78344C114.688 8.5434 114.549 8.32468 114.37 8.14101C113.912 7.80494 113.358 7.62379 112.79 7.62379C112.222 7.62379 111.669 7.80494 111.21 8.14101C111.032 8.32468 110.893 8.5434 110.803 8.78344C110.712 9.02347 110.673 9.27962 110.686 9.53578C110.683 9.80044 110.728 10.0634 110.819 10.312C110.906 10.547 111.044 10.7597 111.223 10.9346C111.411 11.1164 111.637 11.2545 111.884 11.3389C112.171 11.4397 112.473 11.4903 112.776 11.4885Z" fill="white"/>
<path d="M123.664 2.36756C123.666 2.60758 123.615 2.84511 123.514 3.06292C123.415 3.2744 123.278 3.46614 123.111 3.62892C122.943 3.79942 122.744 3.93659 122.526 4.0332C122.3 4.13091 122.057 4.18048 121.811 4.17875C121.57 4.1801 121.33 4.13051 121.109 4.0332C120.68 3.84851 120.337 3.50751 120.149 3.0791C120.052 2.86024 120.002 2.62321 120.003 2.38373C120.002 2.13637 120.051 1.89132 120.149 1.6641C120.245 1.44617 120.382 1.2486 120.552 1.08194C120.716 0.912537 120.911 0.775415 121.125 0.677653C121.347 0.583517 121.586 0.535384 121.827 0.536154C122.073 0.534971 122.315 0.583087 122.542 0.677653C122.983 0.861095 123.336 1.20894 123.526 1.64793C123.623 1.87521 123.67 2.12061 123.664 2.36756ZM123.26 5.83226V17.7222H120.391V5.83226H123.26Z" fill="white"/>
<path d="M131.093 5.6466C131.913 5.63534 132.728 5.78078 133.494 6.07514C134.199 6.34349 134.836 6.76404 135.36 7.30694C135.885 7.84984 136.284 8.50177 136.528 9.21642C136.812 10.0322 136.948 10.8918 136.932 11.7553C136.949 12.6229 136.812 13.4865 136.528 14.3064C136.275 15.0268 135.872 15.6854 135.346 16.2388C134.823 16.7724 134.191 17.1862 133.494 17.4517C131.938 18.0231 130.231 18.0231 128.675 17.4517C127.976 17.1882 127.342 16.7742 126.819 16.2388C126.285 15.6866 125.873 15.0282 125.609 14.3064C125.325 13.4865 125.188 12.6229 125.205 11.7553C125.189 10.8918 125.325 10.0322 125.609 9.21642C125.871 8.49603 126.284 7.83998 126.819 7.29204C127.345 6.75993 127.978 6.34643 128.675 6.07919C129.446 5.78266 130.267 5.63586 131.093 5.6466ZM131.093 15.6971C131.512 15.7279 131.933 15.6526 132.316 15.4781C132.698 15.3037 133.031 15.0356 133.284 14.6985C133.76 14.0355 133.998 13.0625 133.998 11.7796C133.998 10.494 133.76 9.51964 133.284 8.84448C133.033 8.5051 132.701 8.23483 132.317 8.05881C131.934 7.8828 131.513 7.80677 131.093 7.83782C130.666 7.80557 130.238 7.88166 129.849 8.05904C129.46 8.23641 129.121 8.50935 128.865 8.85257C128.384 9.52637 128.143 10.502 128.143 11.7796C128.143 13.0571 128.384 14.0287 128.865 14.6945C129.124 15.0341 129.463 15.3036 129.852 15.4787C130.241 15.6538 130.667 15.7288 131.093 15.6971Z" fill="white"/>
<path d="M141.459 7.2922C141.697 7.05493 141.949 6.83218 142.214 6.62513C142.479 6.42394 142.763 6.24926 143.061 6.1036C143.366 5.95812 143.685 5.84563 144.014 5.76805C144.379 5.68426 144.753 5.64356 145.128 5.64676C145.719 5.63549 146.306 5.74842 146.851 5.97828C147.332 6.1865 147.759 6.50335 148.098 6.90409C148.445 7.32341 148.705 7.80885 148.86 8.33121C149.04 8.92195 149.129 9.53688 149.123 10.1545V17.7227H146.262V10.1545C146.299 9.5516 146.123 8.95475 145.765 8.46866C145.574 8.26084 145.339 8.09904 145.077 7.9954C144.815 7.89177 144.533 7.849 144.252 7.87032C143.767 7.86799 143.289 7.98459 142.86 8.20992C142.412 8.45005 142.003 8.75826 141.649 9.1236V17.7227H138.788V5.83273H140.535C140.699 5.82067 140.861 5.86619 140.994 5.96143C141.128 6.05667 141.224 6.19563 141.266 6.35426L141.459 7.2922Z" fill="white"/>
<path d="M158.731 8.14897C158.672 8.25434 158.589 8.34435 158.489 8.41175C158.389 8.46352 158.278 8.48859 158.166 8.48452C158.01 8.48157 157.857 8.44285 157.718 8.37133L157.169 8.10854C156.939 8.00437 156.702 7.91787 156.459 7.8498C156.151 7.76696 155.833 7.7275 155.515 7.73256C155.046 7.70636 154.582 7.83257 154.191 8.09237C154.04 8.1967 153.917 8.337 153.833 8.5007C153.749 8.66439 153.707 8.84637 153.711 9.03031C153.707 9.1488 153.728 9.26681 153.771 9.37726C153.813 9.48771 153.878 9.58834 153.961 9.67312C154.15 9.86478 154.373 10.0197 154.619 10.13C154.92 10.2729 155.231 10.3918 155.551 10.4857C155.898 10.5908 156.249 10.704 156.608 10.8294C156.967 10.9464 157.32 11.0813 157.665 11.2337C158.003 11.3924 158.314 11.6009 158.59 11.8522C158.865 12.099 159.09 12.3969 159.251 12.7295C159.423 13.1101 159.508 13.5247 159.498 13.9423C159.504 14.4847 159.4 15.0226 159.191 15.5231C158.989 16.0056 158.678 16.4346 158.283 16.7764C157.846 17.1421 157.342 17.417 156.798 17.5849C156.138 17.7929 155.448 17.8925 154.756 17.8801C154.35 17.8815 153.945 17.845 153.545 17.7709C153.163 17.701 152.788 17.5982 152.424 17.4637C152.078 17.339 151.744 17.1834 151.427 16.9987C151.138 16.8347 150.868 16.6409 150.62 16.4206L151.326 15.3614C151.4 15.2377 151.502 15.1336 151.625 15.0582C151.759 14.9842 151.911 14.9479 152.064 14.9531C152.243 14.9545 152.418 15.0063 152.569 15.1026C152.726 15.2037 152.908 15.3129 153.118 15.4301C153.354 15.5563 153.599 15.6644 153.852 15.7535C154.198 15.8632 154.559 15.9138 154.921 15.9031C155.218 15.909 155.513 15.8681 155.797 15.7818C156.016 15.7137 156.219 15.6054 156.398 15.4625C156.55 15.3411 156.669 15.1842 156.745 15.0056C156.817 14.8355 156.854 14.6527 156.854 14.4679C156.863 14.2161 156.774 13.9708 156.604 13.7847C156.417 13.5891 156.193 13.4313 155.946 13.3198C155.644 13.1762 155.331 13.0572 155.01 12.964C154.659 12.8629 154.3 12.7457 153.933 12.6244C153.566 12.4991 153.206 12.3534 152.855 12.1878C152.513 12.0272 152.197 11.8145 151.919 11.5571C151.63 11.2911 151.399 10.9675 151.241 10.607C151.065 10.1808 150.979 9.7221 150.991 9.26075C150.989 8.78189 151.088 8.30807 151.282 7.87001C151.476 7.42825 151.765 7.03485 152.129 6.71781C152.542 6.3692 153.017 6.10174 153.529 5.92945C154.155 5.72173 154.811 5.62194 155.47 5.63433C156.233 5.62376 156.991 5.76104 157.702 6.03861C158.333 6.28166 158.909 6.64866 159.397 7.11805L158.731 8.14897Z" fill="white"/>
<path d="M33.0899 27.2068H37.4037V22.8486H41.0356V27.2068H45.3857V30.8454H41.0517V35.1995H37.4199V30.8656H33.0899V27.2068Z" fill="#00E59E"/>
<path d="M59.1462 20.5564C60.1297 20.5407 61.1097 20.6771 62.0517 20.9607C62.7934 21.1843 63.4805 21.5602 64.0694 22.0644C64.5945 22.524 65.0015 23.1037 65.2557 23.7543C65.5249 24.442 65.6618 25.1745 65.6593 25.9131C65.6687 26.6747 65.5317 27.431 65.2557 28.1407C64.994 28.8097 64.5794 29.4079 64.0451 29.8872C63.4571 30.4 62.7704 30.7867 62.0275 31.0233C61.104 31.3093 60.1409 31.4457 59.1745 31.4276H56.8501V37.3301H53.7348V20.5564H59.1462ZM59.1462 28.9816C59.6523 28.9926 60.1567 28.9202 60.6393 28.7674C61.0323 28.6423 61.3931 28.4326 61.6966 28.1529C61.9807 27.8844 62.1966 27.5517 62.3261 27.1826C62.4717 26.7727 62.5428 26.34 62.5359 25.9051C62.5423 25.4912 62.4711 25.0798 62.3261 24.6922C62.1941 24.338 61.9813 24.0195 61.7046 23.7624C61.3997 23.4933 61.0405 23.2934 60.6514 23.1761C60.1626 23.0335 59.6552 22.9653 59.1462 22.974H56.8218V28.9816H59.1462Z" fill="white"/>
<path d="M71.9423 25.2379C72.7624 25.2286 73.577 25.374 74.3434 25.6664C75.0379 25.9357 75.6677 26.349 76.1916 26.8793C76.7183 27.428 77.1227 28.0826 77.378 28.7996C77.9322 30.4508 77.9322 32.2383 77.378 33.8895C77.1214 34.6108 76.7173 35.2704 76.1916 35.8261C75.6695 36.3585 75.0391 36.7721 74.3434 37.0389C73.5777 37.3347 72.7629 37.4815 71.9423 37.4715C71.1152 37.4819 70.2937 37.3351 69.5211 37.0389C68.8224 36.7733 68.1892 36.3595 67.6649 35.8261C67.132 35.2714 66.7198 34.612 66.4543 33.8895C65.8891 32.2401 65.8891 30.449 66.4543 28.7996C66.718 28.0799 67.1305 27.4241 67.6649 26.8752C68.191 26.3439 68.8237 25.9305 69.5211 25.6624C70.2947 25.3709 71.1159 25.227 71.9423 25.2379ZM71.9423 35.2884C72.3618 35.3192 72.7824 35.2439 73.1652 35.0694C73.5481 34.8949 73.8811 34.6268 74.1335 34.2898C74.6097 33.6268 74.8438 32.6727 74.8438 31.3709C74.8438 30.0691 74.6097 29.1109 74.1335 28.4358C73.8822 28.0969 73.5497 27.8271 73.1667 27.6511C72.7837 27.4752 72.3626 27.3988 71.9423 27.4291C71.5159 27.3976 71.0884 27.474 70.6992 27.6513C70.3099 27.8287 69.9714 28.1012 69.7148 28.4439C69.2306 29.119 68.9925 30.0933 68.9925 31.3709C68.9925 32.6484 69.2306 33.6187 69.7148 34.2857C69.9735 34.6254 70.3127 34.8949 70.7017 35.07C71.0907 35.2451 71.5171 35.3201 71.9423 35.2884Z" fill="white"/>
<path d="M82.5271 20.0918V37.3183H79.67V20.0918H82.5271Z" fill="white"/>
<path d="M88.3945 21.9595C88.3956 22.1998 88.3432 22.4373 88.2411 22.6548C88.0434 23.0835 87.694 23.4234 87.2606 23.609C87.0336 23.7063 86.7891 23.7558 86.5423 23.7545C86.3006 23.7555 86.0615 23.7059 85.8401 23.609C85.6262 23.5101 85.432 23.3731 85.2671 23.2047C85.099 23.0424 84.9622 22.8506 84.8635 22.6387C84.7678 22.4195 84.7196 22.1825 84.7223 21.9433C84.7192 21.6962 84.7673 21.4512 84.8635 21.2237C84.9601 21.007 85.0971 20.8108 85.2671 20.6456C85.432 20.4771 85.6262 20.3401 85.8401 20.2413C86.0615 20.1443 86.3006 20.0947 86.5423 20.0957C86.7891 20.0944 87.0336 20.1439 87.2606 20.2413C87.4775 20.339 87.6745 20.4761 87.8416 20.6456C88.0111 20.8113 88.1479 21.0074 88.2452 21.2237C88.3481 21.455 88.3991 21.7062 88.3945 21.9595ZM87.9909 25.4242V37.3182H85.146V25.4242H87.9909Z" fill="white"/>
<path d="M99.072 27.9387C99.0002 28.0342 98.916 28.1199 98.8218 28.1934C98.7186 28.2631 98.5949 28.2959 98.4708 28.2864C98.3237 28.282 98.1809 28.2357 98.0592 28.153C97.9179 28.064 97.7525 27.9629 97.5588 27.8538C97.3412 27.7293 97.1113 27.6277 96.8728 27.5506C96.5523 27.4541 96.2186 27.409 95.8841 27.4172C95.4291 27.4073 94.9779 27.5013 94.5645 27.6921C94.189 27.8681 93.8642 28.1365 93.6203 28.4723C93.3587 28.8376 93.1684 29.2491 93.0594 29.6852C92.8016 30.782 92.8016 31.9237 93.0594 33.0205C93.1742 33.4689 93.3727 33.8914 93.6445 34.2657C93.8878 34.5917 94.2062 34.8539 94.5726 35.0298C94.9514 35.2072 95.3651 35.297 95.7832 35.2926C96.1591 35.3055 96.5341 35.2479 96.8889 35.1228C97.1406 35.0271 97.3803 34.9023 97.6032 34.7509C97.7928 34.6174 97.9623 34.4921 98.1036 34.3789C98.2406 34.2715 98.4097 34.2131 98.5838 34.2132C98.6865 34.2067 98.789 34.2281 98.8806 34.275C98.9722 34.322 99.0495 34.3928 99.1043 34.48L99.9114 35.523C99.6212 35.8851 99.2848 36.2072 98.9106 36.4812C98.551 36.7268 98.1636 36.929 97.7565 37.0836C97.3651 37.2319 96.9594 37.3389 96.5459 37.403C96.1303 37.4641 95.7109 37.4951 95.2909 37.4959C94.5807 37.503 93.8764 37.3654 93.2208 37.0917C92.5741 36.8143 91.9947 36.4006 91.5219 35.8788C91.0138 35.3194 90.6227 34.6637 90.3718 33.9504C90.084 33.1134 89.9473 32.2318 89.9683 31.3468C89.9613 30.5232 90.088 29.7039 90.3436 28.9211C90.575 28.2074 90.9514 27.5494 91.4492 26.9886C91.9367 26.4349 92.5403 25.9959 93.2167 25.703C94.002 25.3792 94.8454 25.2209 95.6944 25.2381C96.4914 25.2227 97.2833 25.3685 98.0228 25.6666C98.6949 25.9514 99.3059 26.3632 99.8226 26.8795L99.072 27.9387Z" fill="white"/>
<path d="M104.73 21.9594C104.731 22.1997 104.678 22.4373 104.576 22.6548C104.48 22.8679 104.343 23.0601 104.173 23.2208C104.006 23.3903 103.809 23.5273 103.592 23.6251C103.365 23.7224 103.12 23.772 102.873 23.7706C102.632 23.7716 102.393 23.722 102.171 23.6251C101.958 23.5273 101.765 23.3901 101.602 23.2208C101.432 23.0608 101.294 22.8684 101.199 22.6548C101.102 22.4359 101.052 22.1989 101.053 21.9594C101.052 21.7121 101.101 21.467 101.199 21.2398C101.292 21.0214 101.43 20.8246 101.602 20.6617C101.765 20.4923 101.958 20.3552 102.171 20.2574C102.393 20.1604 102.632 20.1109 102.873 20.1118C103.12 20.1105 103.365 20.16 103.592 20.2574C103.809 20.3551 104.006 20.4922 104.173 20.6617C104.345 20.8252 104.482 21.0218 104.576 21.2398C104.678 21.4659 104.731 21.7113 104.73 21.9594ZM104.326 25.4241V37.3181H101.457V25.4241H104.326Z" fill="white"/>
<path d="M109.1 31.731C109.134 32.2708 109.244 32.803 109.427 33.3117C109.573 33.7202 109.801 34.0944 110.097 34.4114C110.372 34.7018 110.71 34.9246 111.085 35.0623C111.492 35.2086 111.921 35.2811 112.352 35.2765C112.762 35.2867 113.17 35.2321 113.563 35.1148C113.865 35.0187 114.16 34.8984 114.443 34.755C114.693 34.6216 114.911 34.5044 115.1 34.3952C115.266 34.2935 115.455 34.2377 115.649 34.2335C115.754 34.2266 115.858 34.2476 115.952 34.2945C116.045 34.3414 116.125 34.4125 116.182 34.5003L116.989 35.5434C116.683 35.9064 116.325 36.2224 115.928 36.4813C115.548 36.7273 115.142 36.9293 114.717 37.0837C114.292 37.2309 113.855 37.3378 113.41 37.4031C112.982 37.4632 112.55 37.4943 112.118 37.4961C111.332 37.5058 110.551 37.3687 109.814 37.0918C109.118 36.8255 108.488 36.4118 107.966 35.8789C107.419 35.3086 106.996 34.6296 106.727 33.8858C106.41 33.0034 106.257 32.0703 106.275 31.1326C106.273 30.3506 106.41 29.5745 106.679 28.8404C106.927 28.1507 107.31 27.5172 107.805 26.9766C108.309 26.4361 108.92 26.0078 109.6 25.7193C111.024 25.138 112.61 25.1006 114.059 25.6142C114.666 25.8444 115.216 26.2014 115.674 26.6613C116.143 27.1456 116.507 27.7224 116.743 28.3552C117.018 29.0863 117.155 29.8622 117.146 30.6435C117.171 30.9427 117.124 31.2435 117.009 31.5208C116.948 31.6021 116.867 31.6659 116.773 31.7057C116.68 31.7454 116.577 31.7597 116.477 31.7472L109.1 31.731ZM114.552 30.0128C114.554 29.6577 114.501 29.3044 114.394 28.9657C114.296 28.6494 114.137 28.3554 113.926 28.1005C113.705 27.8468 113.429 27.6476 113.119 27.5184C112.766 27.368 112.385 27.295 112.001 27.3041C111.65 27.2841 111.298 27.3345 110.966 27.4526C110.634 27.5706 110.329 27.7537 110.068 27.9914C109.552 28.5467 109.233 29.2572 109.16 30.0128H114.552Z" fill="white"/>
<path d="M126.153 27.7404C126.095 27.8466 126.012 27.9369 125.911 28.0032C125.812 28.0565 125.701 28.083 125.588 28.08C125.433 28.0755 125.282 28.0354 125.145 27.9628L124.592 27.7C124.361 27.5969 124.124 27.5105 123.881 27.4412C123.574 27.3584 123.256 27.3189 122.937 27.324C122.469 27.2978 122.004 27.424 121.614 27.6838C121.463 27.7889 121.341 27.9294 121.257 28.0929C121.173 28.2564 121.131 28.438 121.133 28.6217C121.131 28.7401 121.151 28.8579 121.194 28.9682C121.237 29.0785 121.302 29.1792 121.384 29.2646C121.574 29.4563 121.796 29.6124 122.041 29.7254C122.343 29.8652 122.655 29.9827 122.973 30.0772C123.321 30.1823 123.672 30.2955 124.031 30.4208C124.391 30.5378 124.745 30.6727 125.092 30.8251C125.429 30.9788 125.742 31.1818 126.02 31.4275C126.296 31.6737 126.521 31.9718 126.682 32.3048C126.854 32.6854 126.938 33.0999 126.928 33.5176C126.935 34.06 126.83 34.5979 126.621 35.0984C126.421 35.5815 126.11 36.0107 125.713 36.3516C125.278 36.7188 124.773 36.9938 124.228 37.1602C123.568 37.3681 122.879 37.4678 122.187 37.4553C121.781 37.4566 121.375 37.4201 120.976 37.3462C120.594 37.2758 120.219 37.173 119.854 37.0389C119.51 36.9164 119.177 36.7621 118.861 36.578C118.573 36.4124 118.303 36.2173 118.054 35.9959L118.716 34.9084C118.791 34.7856 118.893 34.6818 119.015 34.6051C119.149 34.5312 119.301 34.4949 119.455 34.5C119.634 34.5011 119.809 34.5545 119.959 34.6537C120.116 34.7547 120.302 34.8598 120.508 34.9771C120.743 35.105 120.989 35.2131 121.242 35.3005C121.588 35.4102 121.949 35.4607 122.312 35.4501C122.608 35.4564 122.904 35.4155 123.187 35.3288C123.406 35.2615 123.61 35.1531 123.789 35.0094C123.94 34.8881 124.059 34.7312 124.136 34.5526C124.208 34.3825 124.245 34.1996 124.245 34.0149C124.255 33.7636 124.167 33.5182 123.998 33.3316C123.807 33.1382 123.583 32.9807 123.337 32.8667C123.035 32.7246 122.721 32.607 122.4 32.515C122.049 32.4099 121.69 32.2967 121.323 32.1714C120.959 32.0636 120.602 31.934 120.254 31.7832C119.91 31.6198 119.593 31.4059 119.313 31.1485C119.034 30.8831 118.81 30.5642 118.656 30.2106C118.479 29.7857 118.394 29.3284 118.405 28.8684C118.404 28.3882 118.503 27.913 118.696 27.4736C118.89 27.0305 119.181 26.6368 119.547 26.3214C119.959 25.9711 120.435 25.7034 120.948 25.533C121.572 25.325 122.227 25.2252 122.885 25.2379C123.647 25.2293 124.405 25.3665 125.116 25.6422C125.741 25.8826 126.312 26.2454 126.795 26.7095L126.153 27.7404Z" fill="white"/>
<path d="M144.26 34.7429V37.3182H134.462V20.5566H137.573V34.7429H144.26Z" fill="white"/>
<path d="M145.406 27.0816C146.743 25.8397 148.51 25.1671 150.333 25.2057C150.971 25.1948 151.604 25.3102 152.198 25.5453C152.723 25.7581 153.197 26.0822 153.586 26.4953C153.97 26.9154 154.263 27.4111 154.445 27.9508C154.649 28.5479 154.75 29.1754 154.744 29.8064V37.318H153.444C153.23 37.3283 153.017 37.2852 152.823 37.1927C152.649 37.0803 152.525 36.9051 152.476 36.7035L152.222 35.8424C151.919 36.1132 151.625 36.3518 151.342 36.558C151.062 36.7574 150.763 36.9293 150.45 37.0714C150.134 37.2146 149.802 37.3217 149.462 37.3908C149.079 37.4666 148.689 37.5032 148.299 37.4999C147.829 37.5061 147.36 37.4379 146.911 37.2978C146.506 37.1754 146.13 36.9688 145.81 36.6914C145.498 36.4127 145.252 36.0672 145.091 35.6807C144.913 35.2349 144.827 34.7578 144.837 34.2778C144.839 33.9722 144.891 33.669 144.99 33.3803C145.098 33.0666 145.265 32.7769 145.483 32.5272C145.739 32.2316 146.037 31.9743 146.366 31.7632C146.781 31.4988 147.227 31.2883 147.694 31.1365C148.296 30.9424 148.913 30.7977 149.538 30.7039C150.34 30.5813 151.149 30.5138 151.959 30.5018V29.8064C152.012 29.1744 151.829 28.5453 151.447 28.0397C151.259 27.8416 151.03 27.6875 150.777 27.5883C150.523 27.489 150.25 27.4471 149.978 27.4656C149.588 27.4546 149.2 27.5092 148.828 27.6273C148.549 27.7244 148.279 27.8461 148.021 27.9912C147.791 28.1286 147.577 28.2499 147.391 28.355C147.198 28.4646 146.98 28.5205 146.758 28.5168C146.576 28.5245 146.397 28.4703 146.249 28.3631C146.115 28.2629 146.002 28.1381 145.914 27.9952L145.406 27.0816ZM151.955 32.2402C151.257 32.2636 150.562 32.3352 149.873 32.4545C149.401 32.5248 148.94 32.6552 148.501 32.8426C148.214 32.964 147.963 33.1592 147.775 33.4086C147.629 33.6154 147.551 33.8628 147.553 34.1161C147.534 34.3186 147.564 34.5227 147.642 34.7107C147.719 34.8988 147.841 35.0652 147.997 35.1955C148.342 35.424 148.75 35.5373 149.163 35.5189C149.688 35.5323 150.209 35.4229 150.684 35.1996C151.156 34.954 151.581 34.6269 151.939 34.2333L151.955 32.2402Z" fill="white"/>
<path d="M159.937 26.8838C160.394 26.3909 160.932 25.9806 161.527 25.6709C162.154 25.3596 162.846 25.2056 163.545 25.2222C164.186 25.2139 164.821 25.3521 165.401 25.6264C165.956 25.9011 166.439 26.301 166.814 26.7948C167.224 27.3454 167.527 27.9679 167.709 28.6303C167.925 29.4204 168.03 30.2368 168.02 31.056C168.032 31.9463 167.911 32.8334 167.661 33.6878C167.45 34.4199 167.104 35.1057 166.64 35.7093C166.204 36.2703 165.644 36.7223 165.004 37.0296C164.364 37.3369 163.661 37.4911 162.952 37.48C162.614 37.482 162.276 37.444 161.947 37.3668C161.658 37.2994 161.379 37.1962 161.116 37.0596C160.862 36.9299 160.626 36.7683 160.414 36.5785C160.196 36.3843 159.993 36.1734 159.808 35.9478L159.679 36.7564C159.654 36.9233 159.569 37.0755 159.441 37.1849C159.308 37.2776 159.147 37.3231 158.985 37.3143H157.1V20.0918H159.958L159.937 26.8838ZM159.937 34.2336C160.222 34.5945 160.591 34.8804 161.011 35.0664C161.393 35.2313 161.805 35.3152 162.221 35.3131C162.629 35.319 163.034 35.2376 163.408 35.0745C163.766 34.9095 164.075 34.653 164.304 34.3307C164.573 33.9429 164.765 33.5063 164.869 33.045C165.011 32.4316 165.078 31.8029 165.066 31.1732C165.066 29.8687 164.851 28.9254 164.421 28.3432C164.205 28.0556 163.923 27.8255 163.597 27.6732C163.272 27.5209 162.915 27.4511 162.556 27.47C162.052 27.4585 161.554 27.5888 161.12 27.8459C160.674 28.1307 160.28 28.4888 159.953 28.9052L159.937 34.2336Z" fill="white"/>
</g>
<defs>
<clipPath id="clip0_140_32">
<rect width="168" height="37" fill="white" transform="translate(0 0.5)"/>
</clipPath>
</defs>
</svg>
