<svg width="51" height="52" viewBox="0 0 51 52" fill="none" xmlns="http://www.w3.org/2000/svg">
<g id="Vector" filter="url(#filter0_d_334_428)">
<path fill-rule="evenodd" clip-rule="evenodd" d="M43.8726 24.1514L25.224 8.38579C25.0193 8.21279 24.7638 8.1184 24.5004 8.1184C24.2369 8.1184 23.9814 8.21279 23.7767 8.38579L5.12893 24.1514L2.76369 21.1132L24.5002 2.73799L46.2358 21.1132L43.8726 24.1514ZM40.2896 44.6066V24.2035L24.5004 10.8575L8.71112 24.2035V44.6066C8.71145 44.8719 8.81264 45.1259 8.99263 45.3135C9.17261 45.5009 9.41658 45.6062 9.67097 45.6063H17.7358V32.2352C17.737 31.7254 17.9318 31.2366 18.2778 30.876C18.6238 30.5153 19.0927 30.3121 19.582 30.3107H29.4158C29.9056 30.3116 30.375 30.5144 30.7215 30.8751C31.0678 31.2358 31.2629 31.7248 31.2641 32.2352V45.6063H39.329C39.5836 45.6065 39.8277 45.5012 40.0077 45.3136C40.1877 45.1262 40.2889 44.8718 40.2889 44.6066L40.2896 44.6066ZM48.5756 20.0087L25.224 0.268095C25.0195 0.0947459 24.7641 0 24.5004 0C24.2367 0 23.9813 0.0947459 23.7768 0.268095L0.424787 20.0087C0.188397 20.2088 0.0378751 20.4984 0.00622511 20.8141C-0.0254249 21.1298 0.0644822 21.4456 0.256085 21.6921L4.06728 26.5888C4.25888 26.835 4.5367 26.9918 4.83924 27.0246C4.87897 27.0294 4.91905 27.0317 4.95911 27.0315C5.22244 27.0313 5.47785 26.9369 5.68259 26.7643L6.41382 26.1447V44.6066C6.41516 45.5065 6.7588 46.369 7.36965 47.0051C7.98033 47.6411 8.80836 47.9988 9.67175 47.9995H18.8849C19.1891 47.9994 19.4811 47.8732 19.696 47.6488C19.9111 47.4244 20.0318 47.1201 20.0314 46.8029V32.7047H28.9648V46.8034C28.9652 47.1208 29.0862 47.425 29.3017 47.6494C29.5171 47.8738 29.8092 47.9998 30.1136 48H39.3297C40.1926 47.9984 41.0196 47.6401 41.6296 47.0041C42.2394 46.3679 42.5824 45.5059 42.5833 44.6065V26.1447L43.3155 26.7642L43.3157 26.7644C43.5524 26.9639 43.8554 27.0575 44.1583 27.0247C44.4612 26.9918 44.7394 26.8351 44.9315 26.5889L48.7427 21.6922C48.935 21.446 49.0252 21.1302 48.9939 20.8144C48.9626 20.4987 48.8121 20.2089 48.5755 20.0088L48.5756 20.0087Z" fill="#7E1BC3"/>
</g>
<defs>
<filter id="filter0_d_334_428" x="0" y="0" width="51" height="52" filterUnits="userSpaceOnUse" color-interpolation-filters="sRGB">
<feFlood flood-opacity="0" result="BackgroundImageFix"/>
<feColorMatrix in="SourceAlpha" type="matrix" values="0 0 0 0 0 0 0 0 0 0 0 0 0 0 0 0 0 0 127 0" result="hardAlpha"/>
<feOffset dx="2" dy="4"/>
<feComposite in2="hardAlpha" operator="out"/>
<feColorMatrix type="matrix" values="0 0 0 0 1 0 0 0 0 0.611765 0 0 0 0 0.466667 0 0 0 1 0"/>
<feBlend mode="normal" in2="BackgroundImageFix" result="effect1_dropShadow_334_428"/>
<feBlend mode="normal" in="SourceGraphic" in2="effect1_dropShadow_334_428" result="shape"/>
</filter>
</defs>
</svg>
