<svg xmlns="http://www.w3.org/2000/svg" xmlns:xlink="http://www.w3.org/1999/xlink" version="1.1" width="289.59803" height="115.34961" viewBox="0 0 289.59803 115.34961">
<defs>
<mask id="mask_0">
<g>
<clipPath id="clip_1">
<path transform="matrix(1,0,0,-1,0,115.34961)" d="M0 0H289.59803V115.34961H0Z"/>
</clipPath>
<g clip-path="url(#clip_1)">
<path transform="matrix(.629031,.77738,.77738,-.629031,-27.494446,10.106461)" d="M61 275.1953H0V238.19532H19.238924L127.61374 35.368074 159.94353 52.642564 60.798826 238.19532H61V275.1953Z" fill="#d9d9d9" fill-rule="evenodd"/>
</g>
</g>
"/>
</mask>
<clipPath id="clip_2">
<path transform="matrix(1,0,0,-1,0,115.34961)" d="M0 0H289.59803V115.34961H0Z"/>
</clipPath>
</defs>
<g>
<g mask="url(#mask_0)">
<g>
<g clip-path="url(#clip_2)">
<path transform="matrix(-.288418,.957505,-.957505,-.288418,1802.4197,-31.972229)" d="M1074.306 1496.0239 1074.1292 1492.0278 1074.306 1496.0239ZM8.601274 1531.5327C10.759776 1532.003 12.128352 1534.134 11.658073 1536.2926 11.187795 1538.451 9.056746 1539.8197 6.898244 1539.3494L8.601274 1531.5327ZM22.7423 1542.6802C20.577597 1542.2393 19.180142 1540.1271 19.620995 1537.9624 20.06185 1535.7977 22.174073 1534.4003 24.338776 1534.8411L22.7423 1542.6802ZM40.117658 1537.969C42.286706 1538.388 43.705427 1540.486 43.286458 1542.655 42.867494 1544.8241 40.769495 1546.2428 38.600446 1545.8239L40.117658 1537.969ZM54.581975 1548.8368C52.40934 1548.4369 50.972288 1546.3513 51.372224 1544.1787 51.772165 1542.0061 53.857648 1540.5691 56.03028 1540.969L54.581975 1548.8368ZM71.89779 1543.824C74.07353 1544.2067 75.52711 1546.2807 75.14443 1548.4564 74.76176 1550.6321 72.68775 1552.0857 70.51201 1551.703L71.89779 1543.824ZM86.4092 1554.4378C84.23068 1554.0713 82.76178 1552.008 83.12831 1549.8296 83.49484 1547.651 85.55802 1546.1821 87.73654 1546.5487L86.4092 1554.4378ZM103.63097 1549.1647C105.81203 1549.5158 107.2955 1551.5685 106.944408 1553.7495 106.5933 1555.9306 104.54058 1557.4141 102.35952 1557.063L103.63097 1549.1647ZM118.343128 1559.5797C116.15972 1559.2435 114.662258 1557.2009 114.99844 1555.0176 115.33463 1552.8341 117.377178 1551.3367 119.560588 1551.6729L118.343128 1559.5797ZM135.5229 1554.0762C137.7085 1554.3978 139.21952 1556.4303 138.89785 1558.616 138.57617 1560.8015 136.54364 1562.3125 134.35805 1561.9909L135.5229 1554.0762ZM150.40937 1564.2997C148.22171 1563.9923 146.6975 1561.9696 147.00492 1559.782 147.31235 1557.5944 149.33499 1556.0701 151.52265 1556.3776L150.40937 1564.2997ZM167.47022 1558.5667C169.65978 1558.8601 171.19686 1560.8729 170.9034 1563.0625 170.60993 1565.2521 168.59705 1566.7892 166.40749 1566.4957L167.47022 1558.5667ZM182.38939 1568.5866C180.19803 1568.3069 178.64832 1566.3037 178.92801 1564.1123 179.20772 1561.9209 181.2109 1560.3712 183.40227 1560.651L182.38939 1568.5866ZM199.38477 1562.6401C201.57784 1562.9063 203.14002 1564.8997 202.874 1567.0928 202.60797 1569.2858 200.61449 1570.848 198.42142 1570.5819L199.38477 1562.6401ZM214.5123 1572.483C212.31763 1572.2307 210.74309 1570.247 210.99549 1568.0523 211.24787 1565.8576 213.23162 1564.2831 215.42629 1564.5354L214.5123 1572.483ZM231.50354 1566.3339C233.69974 1566.5726 235.28653 1568.5466 235.04775 1570.7428 234.80895 1572.939 232.835 1574.5258 230.63881 1574.287L231.50354 1566.3339ZM246.64511 1575.9777C244.44748 1575.7525 242.84864 1573.7882 243.07396 1571.5906 243.29929 1569.393 245.26348 1567.7941 247.46109 1568.0194L246.64511 1575.9777ZM263.49909 1569.614C265.69807 1569.8259 267.30897 1571.7802 267.09715 1573.9791 266.88536 1576.1781 264.93104 1577.7891 262.73207 1577.5772L263.49909 1569.614ZM278.8996 1579.0841C276.69938 1578.8859 275.07646 1576.9417 275.27467 1574.7413 275.47288 1572.5411 277.4172 1570.9182 279.61744 1571.1165L278.8996 1579.0841ZM295.6221 1572.5088C297.8235 1572.6935 299.45835 1574.6278 299.27366 1576.8292 299.08897 1579.0307 297.15464 1580.6655 294.95323 1580.4807L295.6221 1572.5088ZM311.06083 1581.7821C308.8583 1581.6111 307.21156 1579.6869 307.38264 1577.4844 307.55375 1575.2819 309.4779 1573.6351 311.68043 1573.8062L311.06083 1581.7821ZM327.82798 1575.01C330.0315 1575.1674 331.69026 1577.0812 331.5329 1579.2847 331.37553 1581.4883 329.46168 1583.147 327.25813 1582.9896L327.82798 1575.01ZM343.32139 1584.0867C341.1169 1583.943 339.4463 1582.0394 339.58998 1579.835 339.7336 1577.6305 341.63716 1575.96 343.8416 1576.1035L343.32139 1584.0867ZM359.9416 1577.102C362.1469 1577.2319 363.82945 1579.1249 363.69963 1581.3302 363.5698 1583.5355 361.67683 1585.218 359.4715 1585.0883L359.9416 1577.102ZM375.64533 1585.989C373.4392 1585.8732 371.74473 1583.9909 371.86058 1581.7847 371.9764 1579.5786 373.85874 1577.8842 376.06483 1578L375.64533 1585.989ZM392.12153 1578.7921C394.3283 1578.8939 396.03474 1580.7654 395.9329 1582.9722 395.83106 1585.179 393.95954 1586.8854 391.75276 1586.7836L392.12153 1578.7921ZM407.95729 1587.4791C405.74986 1587.3915 404.03144 1585.531 404.11906 1583.3236 404.20668 1581.1162 406.06715 1579.3978 408.27458 1579.4854L407.95729 1587.4791ZM424.3439 1580.0713C426.55183 1580.1447 428.28224 1581.994 428.20887 1584.2019 428.13554 1586.4099 426.2862 1588.1403 424.07829 1588.0669L424.3439 1580.0713ZM440.2505 1588.5513C438.0421 1588.4924 436.29966 1586.6544 436.35856 1584.446 436.41746 1582.2378 438.25544 1580.4953 440.46379 1580.5542L440.2505 1588.5513ZM456.5911 1580.931C458.7998 1580.9754 460.55439 1582.8018 460.51008 1585.0105 460.46577 1587.2192 458.63935 1588.9738 456.43067 1588.9295L456.5911 1580.931ZM472.57505 1589.1996C470.3661 1589.17 468.59938 1587.3554 468.62898 1585.1464 468.65855 1582.9375 470.4732 1581.1708 472.68217 1581.2003L472.57505 1589.1996ZM488.84965 1581.3622C491.05873 1581.3768 492.83769 1583.1796 492.82307 1585.3886 492.80845 1587.5977 491.00575 1589.3767 488.79667 1589.362L488.84965 1581.3622ZM504.91737 1589.4141C502.70823 1589.4144 500.91703 1587.6239 500.91664 1585.4148 500.91624 1583.2056 502.70677 1581.4144 504.9159 1581.4141L504.91737 1589.4141ZM521.07 1581.3552C523.2791 1581.3395 525.08267 1583.1176 525.0983 1585.3267 525.1141 1587.5358 523.336 1589.3394 521.1269 1589.355L521.07 1581.3552ZM537.2664 1589.1841C535.0575 1589.2152 533.2416 1587.4497 533.21047 1585.2409 533.1793 1583.0319 534.9448 1581.216 537.15377 1581.1848L537.2664 1589.1841ZM553.28457 1580.9004C555.4932 1580.8536 557.3216 1582.6062 557.3684 1584.8148 557.41519 1587.0234 555.66268 1588.8518 553.45407 1588.8987L553.28457 1580.9004ZM569.6127 1588.4984C567.4044 1588.561 565.5635 1586.8218 565.50088 1584.6135 565.43826 1582.4053 567.1776 1580.5643 569.38589 1580.5017L569.6127 1588.4984ZM585.65048 1579.9805C587.85818 1579.9015 589.7119 1581.6272 589.79098 1583.835 589.86996 1586.0426 588.1443 1587.8964 585.9365 1587.9754L585.65048 1579.9805ZM601.74606 1587.3483C599.539 1587.4447 597.67166 1585.7338 597.5752 1583.5267 597.4787 1581.3197 599.18966 1579.4523 601.39669 1579.3558L601.74606 1587.3483ZM617.3252 1578.5891C619.53128 1578.4727 621.414 1580.1668 621.53036 1582.3728 621.6467 1584.5789 619.9527 1586.4617 617.74667 1586.578L617.3252 1578.5891ZM633.3702 1585.6774C631.16537 1585.8157 629.26589 1584.1405 629.1275 1581.9357 628.98916 1579.731 630.6643 1577.8314 632.8691 1577.693L633.3702 1585.6774ZM648.8559 1576.5978C651.05899 1576.4335 652.97799 1578.0863 653.1422 1580.2893 653.3064 1582.4923 651.6536 1584.4114 649.4506 1584.5756L648.8559 1576.5978ZM665.3332 1583.2875C663.13259 1583.4812 661.19168 1581.8541 660.998 1579.6536 660.8044 1577.4529 662.4314 1575.512 664.632 1575.3184L665.3332 1583.2875ZM680.23678 1573.8275C682.43417 1573.6001 684.39987 1575.197 684.62728 1577.3944 684.8547 1579.5918 683.2577 1581.5576 681.0603 1581.785L680.23678 1573.8275ZM696.83816 1580.0119C694.6452 1580.2788 692.651 1578.7177 692.3839 1576.5247 692.1169 1574.3318 693.6781 1572.3375 695.87106 1572.0704L696.83816 1580.0119ZM711.59146 1569.989C713.7781 1569.6748 715.8055 1571.1928 716.1197 1573.3794 716.43386 1575.5662 714.9159 1577.5935 712.72927 1577.9077L711.59146 1569.989ZM728.51718 1575.4393C726.3392 1575.8092 724.2738 1574.3434 723.90396 1572.1654 723.53408 1569.9874 724.9998 1567.9221 727.1778 1567.5523L728.51718 1575.4393ZM742.6303 1564.6937C744.7961 1564.258 746.90499 1565.6607 747.3406 1567.8263 747.77627 1569.9921 746.3737 1572.101 744.208 1572.5366L742.6303 1564.6937ZM759.767 1569.1243C757.61819 1569.637 755.4606 1568.3107 754.9479 1566.1619 754.4352 1564.0131 755.76156 1561.8555 757.91036 1561.3428L759.767 1569.1243ZM773.1732 1557.3711C775.2989 1556.7697 777.5097 1558.0053 778.1112 1560.1309 778.7127 1562.2566 777.4771 1564.4674 775.35147 1565.0689L773.1732 1557.3711ZM790.6821 1560.3599C788.58547 1561.0558 786.32168 1559.9203 785.62576 1557.8236 784.9298 1555.7269 786.06539 1553.4631 788.16207 1552.7672L790.6821 1560.3599ZM802.9165 1547.5132C804.982 1546.7296 807.2916 1547.7689 808.07516 1549.8345 808.85867 1551.9 807.81936 1554.2096 805.7538 1554.993L802.9165 1547.5132ZM820.5822 1549.091C818.54067 1549.9349 816.2014 1548.9641 815.3575 1546.9226 814.5135 1544.881 815.4843 1542.5418 817.5259 1541.6978L820.5822 1549.091ZM832.1177 1535.571C834.1535 1534.7134 836.49917 1535.6686 837.3568 1537.7044 838.2145 1539.7402 837.25936 1542.0859 835.22348 1542.9436L832.1177 1535.571ZM849.7968 1536.929C847.74557 1537.749 845.41787 1536.751 844.5978 1534.6997 843.7777 1532.6484 844.77578 1530.3207 846.8271 1529.5006L849.7968 1536.929ZM861.81478 1523.8034C863.8943 1523.058 866.18447 1524.1394 866.9299 1526.219 867.67538 1528.2986 866.5938 1530.5888 864.5143 1531.3341L861.81478 1523.8034ZM879.32327 1526.3768C877.21377 1527.0328 874.97189 1525.8546 874.31588 1523.7451 873.65988 1521.6356 874.83816 1519.3937 876.9476 1518.7377L879.32327 1526.3768ZM892.35989 1514.3021C894.49508 1513.7354 896.6855 1515.0067 897.2523 1517.1419 897.8192 1519.2771 896.5478 1521.4675 894.41268 1522.0343L892.35989 1514.3021ZM909.74508 1518.2787C907.5901 1518.7648 905.44906 1517.4118 904.963 1515.2567 904.477 1513.1018 905.82998 1510.9608 907.9849 1510.4747L909.74508 1518.2787ZM923.6517 1507.2122C925.8212 1506.7957 927.9176 1508.2168 928.3341 1510.3864 928.75057 1512.5559 927.32949 1514.6522 925.1599 1515.0687L923.6517 1507.2122ZM940.6834 1512.3131C938.50338 1512.6705 936.4464 1511.1929 936.08908 1509.0128 935.7317 1506.8328 937.2092 1504.7759 939.3893 1504.4185L940.6834 1512.3131ZM955.13137 1502.0276C957.319 1501.7201 959.3416 1503.2444 959.64907 1505.432 959.9565 1507.6196 958.43228 1509.6423 956.2446 1509.9497L955.13137 1502.0276ZM971.79049 1507.922C969.5973 1508.1871 967.60446 1506.6242 967.3393 1504.431 967.07418 1502.2378 968.6371 1500.245 970.83029 1499.9799L971.79049 1507.922ZM986.58779 1498.2101C988.78506 1497.9812 990.75186 1499.5768 990.9807 1501.774 991.2096 1503.9713 989.61398 1505.9381 987.4167 1506.167L986.58779 1498.2101ZM1003.20657 1504.6393C1001.0062 1504.8366 999.06259 1503.2129 998.8652 1501.0126 998.6678 1498.8123 1000.2915 1496.8687 1002.4918 1496.6713L1003.20657 1504.6393ZM1018.47689 1495.3401C1020.67947 1495.1702 1022.6028 1496.818 1022.77267 1499.0206 1022.94259 1501.2233 1021.29476 1503.1465 1019.09219 1503.3164L1018.47689 1495.3401ZM1034.6658 1502.2007C1032.4614 1502.3469 1030.5559 1500.6787 1030.4096 1498.4744 1030.2632 1496.2702 1031.9315 1494.3645 1034.1358 1494.2182L1034.6658 1502.2007ZM1050.1437 1493.2344C1052.3494 1493.1094 1054.2388 1494.7959 1054.3639 1497.0015 1054.4889 1499.207 1052.8024 1501.0964 1050.5968 1501.2216L1050.1437 1493.2344ZM1066.3156 1500.3977C1064.109 1500.5042 1062.2339 1498.8018 1062.1273 1496.5952 1062.0209 1494.3887 1063.7233 1492.5136 1065.9298 1492.407L1066.3156 1500.3977ZM1082.3032 1491.6803C1084.5105 1491.5902 1086.3729 1493.3065 1086.4629 1495.5138 1086.553 1497.7212 1084.8367 1499.5835 1082.6294 1499.6736L1082.3032 1491.6803ZM1098.8163 1499.068C1096.6084 1499.1432 1094.7577 1497.4142 1094.6825 1495.2064 1094.6074 1492.9985 1096.3363 1491.1478 1098.5442 1491.0726L1098.8163 1499.068ZM1114.8308 1490.5735C1117.0391 1490.5132 1118.8782 1492.2545 1118.9384 1494.4629 1118.9987 1496.6713 1117.2573 1498.5103 1115.049 1498.5706L1114.8308 1490.5735ZM1131.2059 1498.1836C1128.9972 1498.2291 1127.1698 1496.4756 1127.1243 1494.2669 1127.0787 1492.0582 1128.8323 1490.2308 1131.0409 1490.1853L1131.2059 1498.1836ZM1147.3624 1489.903C1149.5713 1489.8721 1151.3871 1491.6378 1151.418 1493.8467 1151.4487 1496.0557 1149.6831 1497.8713 1147.4743 1497.9022L1147.3624 1489.903ZM1163.6517 1497.7294C1161.4426 1497.7457 1159.6386 1495.9682 1159.6222 1493.759 1159.6058 1491.5499 1161.3834 1489.7459 1163.5925 1489.7295L1163.6517 1497.7294ZM1179.8855 1489.6624C1182.0946 1489.6604 1183.8871 1491.4498 1183.8889 1493.6589 1183.8909 1495.868 1182.1015 1497.6604 1179.8923 1497.6624L1179.8855 1489.6624ZM1196.1111 1497.7013C1193.902 1497.6889 1192.1212 1495.8878 1192.1337 1493.6787 1192.1463 1491.4696 1193.9472 1489.689 1196.1563 1489.7014L1196.1111 1497.7013ZM1212.3845 1489.8455C1214.5935 1489.8722 1216.3626 1491.6847 1216.3358 1493.8936 1216.3091 1496.1026 1214.4967 1497.8717 1212.2877 1497.845L1212.3845 1489.8455ZM1228.5512 1498.0942C1226.3424 1498.0534 1224.5851 1496.2295 1224.6261 1494.0208 1224.6671 1491.812 1226.4909 1490.0547 1228.6996 1490.0957L1228.5512 1498.0942ZM1244.9235 1490.4487C1247.1318 1490.5038 1248.8776 1492.3388 1248.8224 1494.5473 1248.7673 1496.7556 1246.9324 1498.5014 1244.7239 1498.4462L1244.9235 1490.4487ZM1260.9513 1498.9031C1258.7433 1498.8339 1257.0094 1496.9878 1257.0786 1494.7797 1257.1478 1492.5717 1258.9939 1490.8378 1261.202 1490.907L1260.9513 1498.9031ZM1277.4805 1491.4692C1279.6881 1491.5526 1281.4102 1493.4097 1281.3268 1495.6173 1281.2435 1497.8248 1279.3865 1499.5469 1277.1788 1499.4636L1277.4805 1491.4692ZM1293.3178 1500.1237C1291.1109 1500.0265 1289.4005 1498.1585 1289.4978 1495.9514 1289.5951 1493.7445 1291.463 1492.0342 1293.67 1492.1315L1293.3178 1500.1237ZM1309.9706 1492.9017C1312.177 1493.0131 1313.8754 1494.8919 1313.764 1497.0983 1313.6527 1499.3046 1311.7739 1501.0029 1309.5676 1500.8916L1309.9706 1492.9017ZM1325.7736 1501.7608C1323.568 1501.6354 1321.8816 1499.7459 1322.007 1497.5403 1322.1322 1495.3347 1324.0217 1493.6483 1326.2274 1493.7736L1325.7736 1501.7608ZM1342.4039 1494.7438C1344.6087 1494.883 1346.2831 1496.7832 1346.1439 1498.988 1346.0046 1501.1928 1344.1045 1502.8672 1341.8998 1502.7279L1342.4039 1494.7438ZM1358.1184 1503.804C1355.9146 1503.6508 1354.2523 1501.7399 1354.4055 1499.5361 1354.5588 1497.3323 1356.4696 1495.67 1358.6735 1495.8233L1358.1184 1503.804ZM1374.928 1497.0059C1377.1307 1497.1732 1378.7808 1499.0946 1378.6134 1501.2974 1378.446 1503.5001 1376.5248 1505.1502 1374.3219 1504.9829L1374.928 1497.0059ZM1390.4607 1506.2608C1388.259 1506.0794 1386.6212 1504.1475 1386.8027 1501.9458 1386.9841 1499.744 1388.916 1498.1063 1391.1177 1498.2877L1390.4607 1506.2608ZM1407.2586 1499.6698C1409.459 1499.8654 1411.0844 1501.8076 1410.8888 1504.0082 1410.6932 1506.2086 1408.751 1507.834 1406.5504 1507.6384L1407.2586 1499.6698ZM1422.7643 1509.1323C1420.5652 1508.9225 1418.9525 1506.9696 1419.1624 1504.7705 1419.3723 1502.5713 1421.3252 1500.9588 1423.5243 1501.1686L1422.7643 1509.1323ZM1439.743 1502.7702C1441.9408 1502.9945 1443.5405 1504.9579 1443.3163 1507.1557 1443.0919 1509.3534 1441.1284 1510.9531 1438.9307 1510.7288L1439.743 1502.7702ZM1455.0576 1512.429C1452.8613 1512.1901 1451.2748 1510.216 1451.5137 1508.0198 1451.7526 1505.8236 1453.7267 1504.2369 1455.9229 1504.476L1455.0576 1512.429ZM1472.0735 1506.2881C1474.2681 1506.5419 1475.8413 1508.5266 1475.5877 1510.7211 1475.3339 1512.9157 1473.3491 1514.4889 1471.1546 1514.2351L1472.0735 1506.2881ZM1487.2332 1516.1503C1485.0404 1515.8815 1483.4808 1513.8859 1483.7496 1511.6932 1484.0186 1509.5005 1486.014 1507.9409 1488.2068 1508.2097L1487.2332 1516.1503ZM1504.3347 1510.245C1506.5255 1510.5294 1508.0709 1512.5359 1507.7866 1514.7266 1507.5022 1516.9174 1505.4957 1518.4628 1503.305 1518.1785L1504.3347 1510.245ZM1519.3798 1520.3244C1517.1912 1520.0239 1515.6604 1518.0062 1515.9607 1515.8176 1516.2611 1513.629 1518.2788 1512.0983 1520.4674 1512.3987L1519.3798 1520.3244ZM1536.6072 1514.6757C1538.7935 1514.9927 1540.3088 1517.022 1539.9918 1519.2083 1539.6748 1521.3945 1537.6455 1522.9099 1535.4592 1522.5929L1536.6072 1514.6757ZM1551.5253 1524.9877C1549.3417 1524.6532 1547.8427 1522.6117 1548.1773 1520.4281 1548.5117 1518.2444 1550.5531 1516.7454 1552.7368 1517.08L1551.5253 1524.9877ZM1568.794 1519.6095C1570.9746 1519.9628 1572.456 1522.017 1572.1028 1524.1976 1571.7495 1526.3783 1569.6954 1527.8598 1567.5147 1527.5066L1568.794 1519.6095ZM1583.4805 1530.1688C1581.3032 1529.7949 1579.8413 1527.7268 1580.2151 1525.5496 1580.589 1523.3723 1582.6571 1521.9104 1584.8344 1522.2842L1583.4805 1530.1688ZM1600.774 1525.1082C1602.9472 1525.5059 1604.3864 1527.5899 1603.9888 1529.7628 1603.5911 1531.9359 1601.5071 1533.3751 1599.334 1532.9776L1600.774 1525.1082ZM1615.3817 1536.0297C1613.215 1535.5993 1611.8073 1533.4939 1612.2376 1531.327 1612.668 1529.1603 1614.7733 1527.7526 1616.9402 1528.1829L1615.3817 1536.0297ZM0 1533.7064C.916138 1529.8128 .916087 1529.8128 .916047 1529.8128 .916047 1529.8128 .916017 1529.8128 .916018 1529.8128 .916018 1529.8128 .916059 1529.8128 .91614 1529.8128 .916303 1529.8128 .916627 1529.8129 .917113 1529.813 .918085 1529.8132 .919703 1529.8136 .921967 1529.8141 .926494 1529.8152 .933604 1529.8169 .94329 1529.8191 .962662 1529.8236 .992338 1529.8306 1.032269 1529.84 1.112129 1529.8585 1.233007 1529.8866 1.3945 1529.924 1.717487 1529.9985 2.202935 1530.1101 2.847641 1530.2562 4.137055 1530.5486 6.063479 1530.9799 8.601274 1531.5327L6.898244 1539.3494C4.337924 1538.7915 2.389469 1538.3555 1.078532 1538.0582 .423062 1537.9096-.073032 1537.7957-.406545 1537.7186-.573301 1537.68-.699413 1537.6508-.784478 1537.6309-.827011 1537.621-.859282 1537.6134-.881242 1537.6083-.892222 1537.6057-.900624 1537.6038-.906442 1537.6024-.909351 1537.6017-.911614 1537.6012-.91323 1537.6008-.914039 1537.6006-.914685 1537.6005-.915169 1537.6004-.915412 1537.6002-.915614 1537.6002-.915775 1537.6002-.915856 1537.6002-.915946 1537.6001-.915987 1537.6001-.916067 1537.6001-.916138 1537.6001 0 1533.7064ZM24.338776 1534.8411C28.959563 1535.7821 34.229516 1536.8317 40.117658 1537.969L38.600446 1545.8239C32.685216 1544.6813 27.388834 1543.6265 22.7423 1542.6802L24.338776 1534.8411ZM56.03028 1540.969C61.013654 1541.8864 66.306728 1542.8406 71.89779 1543.824L70.51201 1551.703C64.89971 1550.716 59.585794 1549.7579 54.581975 1548.8368L56.03028 1540.969ZM87.73654 1546.5487C92.83722 1547.4069 98.13762 1548.2804 103.63097 1549.1647L102.35952 1557.063C96.847248 1556.1757 91.52821 1555.2991 86.4092 1554.4378L87.73654 1546.5487ZM119.560588 1551.6729C124.73678 1552.4699 130.05913 1553.272 135.5229 1554.0762L134.35805 1561.9909C128.87648 1561.1841 123.536609 1560.3794 118.343128 1559.5797L119.560588 1551.6729ZM151.52265 1556.3776C156.72667 1557.1089 162.0437 1557.8394 167.47022 1558.5667L166.40749 1566.4957C160.9639 1565.7661 155.63002 1565.0333 150.40937 1564.2997L151.52265 1556.3776ZM183.40227 1560.651C188.63904 1561.3193 193.96749 1561.983 199.38477 1562.6401L198.42142 1570.5819C192.98743 1569.9229 187.64247 1569.2571 182.38939 1568.5866L183.40227 1560.651ZM215.42629 1564.5354C220.70922 1565.143 226.06909 1565.7429 231.50354 1566.3339L230.63881 1574.287C225.18775 1573.6943 219.81145 1573.0924 214.5123 1572.483L215.42629 1564.5354ZM247.46109 1568.0194C252.74295 1568.561 258.08964 1569.093 263.49909 1569.614L262.73207 1577.5772C257.3061 1577.0546 251.94309 1576.521 246.64511 1575.9777L247.46109 1568.0194ZM279.61744 1571.1165C284.89753 1571.5922 290.233 1572.0567 295.6221 1572.5088L294.95323 1580.4807C289.5476 1580.0272 284.19584 1579.5613 278.8996 1579.0841L279.61744 1571.1165ZM311.68043 1573.8062C317.01457 1574.2206 322.3976 1574.6222 327.82798 1575.01L327.25813 1582.9896C321.811 1582.6007 316.41136 1582.1978 311.06083 1581.7821L311.68043 1573.8062ZM343.8416 1576.1035C349.16624 1576.4506 354.53337 1576.7837 359.9416 1577.102L359.4715 1585.0883C354.0464 1584.7689 348.66255 1584.4347 343.32139 1584.0867L343.8416 1576.1035ZM376.06483 1578C381.3803 1578.279 386.733 1578.5435 392.12153 1578.7921L391.75276 1586.7836C386.34715 1586.5342 380.97755 1586.2689 375.64533 1585.989L376.06483 1578ZM408.27458 1579.4854C413.59855 1579.6968 418.9554 1579.8923 424.3439 1580.0713L424.07829 1588.0669C418.67237 1587.8873 413.29829 1587.6912 407.95729 1587.4791L408.27458 1579.4854ZM440.46379 1580.5542C445.81068 1580.6968 451.18684 1580.8226 456.5911 1580.931L456.43067 1588.9295C451.00859 1588.8207 445.6148 1588.6945 440.2505 1588.5513L440.46379 1580.5542ZM472.68217 1581.2003C478.04566 1581.2721 483.43519 1581.3264 488.84965 1581.3622L488.79667 1589.362C483.36396 1589.326 477.9564 1589.2717 472.57505 1589.1996L472.68217 1581.2003ZM504.9159 1581.4141C510.27796 1581.4131 515.663 1581.3937 521.07 1581.3552L521.1269 1589.355C515.70126 1589.3936 510.2977 1589.4131 504.91737 1589.4141L504.9159 1581.4141ZM537.15377 1581.1848C542.5108 1581.1094 547.88809 1581.0148 553.28457 1580.9004L553.45407 1588.8987C548.0384 1589.0134 542.6422 1589.1083 537.2664 1589.1841L537.15377 1581.1848ZM569.38589 1580.5017C572.0785 1580.4253 574.7756 1580.3439 577.47708 1580.2575L577.73306 1588.2533C575.0218 1588.3401 572.31497 1588.4218 569.6127 1588.4984L569.38589 1580.5017ZM577.47708 1580.2575C580.2355 1580.1691 582.9597 1580.0768 585.65048 1579.9805L585.9365 1587.9754C583.2356 1588.072 580.5013 1588.1647 577.73306 1588.2533L577.47708 1580.2575ZM601.39669 1579.3558C606.8515 1579.1174 612.1591 1578.8616 617.3252 1578.5891L617.74667 1586.578C612.5557 1586.8518 607.22409 1587.1088 601.74606 1587.3483L601.39669 1579.3558ZM632.8691 1577.693C638.3677 1577.3479 643.6939 1576.9826 648.8559 1576.5978L649.4506 1584.5756C644.2562 1584.9628 638.8988 1585.3303 633.3702 1585.6774L632.8691 1577.693ZM664.632 1575.3184C670.0244 1574.8439 675.22219 1574.3464 680.23678 1573.8275L681.0603 1581.785C676.0033 1582.3084 670.7647 1582.8096 665.3332 1583.2875L664.632 1575.3184ZM695.87106 1572.0704C701.34378 1571.4039 706.57766 1570.7095 711.59146 1569.989L712.72927 1577.9077C707.6562 1578.6366 702.36538 1579.3388 696.83816 1580.0119L695.87106 1572.0704ZM727.1778 1567.5523C732.6008 1566.6314 737.74118 1565.6773 742.6303 1564.6937L744.208 1572.5366C739.2366 1573.5366 734.0167 1574.5054 728.51718 1575.4393L727.1778 1567.5523ZM757.91036 1561.3428C763.3055 1560.0554 768.3734 1558.7294 773.1732 1557.3711L775.35147 1565.0689C770.4442 1566.4574 765.2691 1567.8115 759.767 1569.1243L757.91036 1561.3428ZM788.16207 1552.7672C793.3345 1551.0504 798.2177 1549.2955 802.9165 1547.5132L805.7538 1554.993C800.96359 1556.8102 795.97396 1558.6035 790.6821 1560.3599L788.16207 1552.7672ZM817.5259 1541.6978C822.4332 1539.6691 827.2348 1537.628 832.1177 1535.571L835.22348 1542.9436C830.37179 1544.9874 825.5226 1547.0486 820.5822 1549.091L817.5259 1541.6978ZM846.8271 1529.5006C851.6172 1527.5856 856.5756 1525.6814 861.81478 1523.8034L864.5143 1531.3341C859.3834 1533.1734 854.5167 1535.042 849.7968 1536.929L846.8271 1529.5006ZM876.9476 1518.7377C881.8017 1517.2282 886.9172 1515.7471 892.35989 1514.3021L894.41268 1522.0343C889.07949 1523.4502 884.0716 1524.9003 879.32327 1526.3768L876.9476 1518.7377ZM907.9849 1510.4747C912.9407 1509.3569 918.15109 1508.2682 923.6517 1507.2122L925.1599 1515.0687C919.7408 1516.109 914.6144 1517.1804 909.74508 1518.2787L907.9849 1510.4747ZM939.3893 1504.4185C944.4087 1503.5957 949.6493 1502.798 955.13137 1502.0276L956.2446 1509.9497C950.82046 1510.7119 945.6402 1511.5006 940.6834 1512.3131L939.3893 1504.4185ZM970.83029 1499.9799C975.8901 1499.368 981.1384 1498.7777 986.58779 1498.2101L987.4167 1506.167C982.00936 1506.7302 976.8048 1507.3158 971.79049 1507.922L970.83029 1499.9799ZM1002.4918 1496.6713C1007.65109 1496.2084 1012.97659 1495.7644 1018.47689 1495.3401L1019.09219 1503.3164C1013.6237 1503.7383 1008.3314 1504.1796 1003.20657 1504.6393L1002.4918 1496.6713ZM1034.1358 1494.2182C1039.3248 1493.8737 1044.6588 1493.5455 1050.1437 1493.2344L1050.5968 1501.2216C1045.1366 1501.5313 1039.8284 1501.8579 1034.6658 1502.2007L1034.1358 1494.2182ZM1065.9298 1492.407C1068.6286 1492.2767 1071.3615 1492.1504 1074.1292 1492.0278L1074.4828 1500.02C1071.7256 1500.1421 1069.0034 1500.268 1066.3156 1500.3977L1065.9298 1492.407ZM1074.1292 1492.0278C1076.8598 1491.9071 1079.5844 1491.7913 1082.3032 1491.6803L1082.6294 1499.6736C1079.9197 1499.7842 1077.2041 1499.8997 1074.4828 1500.02L1074.1292 1492.0278ZM1098.5442 1491.0726C1103.9984 1490.8871 1109.4276 1490.721 1114.8308 1490.5735L1115.049 1498.5706C1109.6636 1498.7174 1104.2523 1498.883 1098.8163 1499.068L1098.5442 1491.0726ZM1131.0409 1490.1853C1136.5098 1490.0724 1141.9506 1489.9785 1147.3624 1489.903L1147.4743 1497.9022C1142.08 1497.9776 1136.6569 1498.0712 1131.2059 1498.1836L1131.0409 1490.1853ZM1163.5925 1489.7295C1169.0549 1489.6891 1174.4863 1489.667 1179.8855 1489.6624L1179.8923 1497.6624C1174.5105 1497.6669 1169.0966 1497.689 1163.6517 1497.7294L1163.5925 1489.7295ZM1196.1563 1489.7014C1201.6006 1489.7322 1207.0104 1489.7805 1212.3845 1489.8455L1212.2877 1497.845C1206.9306 1497.78 1201.538 1497.7319 1196.1111 1497.7013L1196.1563 1489.7014ZM1228.6996 1490.0957C1234.1467 1490.1968 1239.555 1490.3147 1244.9235 1490.4487L1244.7239 1498.4462C1239.3723 1498.3126 1233.9811 1498.1951 1228.5512 1498.0942L1228.6996 1490.0957ZM1261.202 1490.907C1266.6726 1491.0785 1272.0991 1491.2662 1277.4805 1491.4692L1277.1788 1499.4636C1271.8143 1499.2612 1266.4048 1499.074 1260.9513 1498.9031L1261.202 1490.907ZM1293.67 1492.1315C1299.154 1492.3732 1304.5881 1492.6303 1309.9706 1492.9017L1309.5676 1500.8916C1304.2019 1500.621 1298.7848 1500.3646 1293.3178 1500.1237L1293.67 1492.1315ZM1326.2274 1493.7736C1331.6765 1494.0831 1337.0692 1494.407 1342.4039 1494.7438L1341.8998 1502.7279C1336.5817 1502.3921 1331.2058 1502.0693 1325.7736 1501.7608L1326.2274 1493.7736ZM1358.6735 1495.8233C1364.1582 1496.2047 1369.577 1496.5994 1374.928 1497.0059L1374.3219 1504.9829C1368.9878 1504.5776 1363.586 1504.1842 1358.1184 1503.804L1358.6735 1495.8233ZM1391.1177 1498.2877C1396.5752 1498.7374 1401.9562 1499.1986 1407.2586 1499.6698L1406.5504 1507.6384C1401.2649 1507.1687 1395.901 1506.709 1390.4607 1506.2608L1391.1177 1498.2877ZM1423.5243 1501.1686C1429.024 1501.6935 1434.4312 1502.2279 1439.743 1502.7702L1438.9307 1510.7288C1433.636 1510.1884 1428.2463 1509.6555 1422.7643 1509.1323L1423.5243 1501.1686ZM1455.9229 1504.476C1461.4205 1505.0741 1466.8052 1505.679 1472.0735 1506.2881L1471.1546 1514.2351C1465.9039 1513.6279 1460.5372 1513.0252 1455.0576 1512.429L1455.9229 1504.476ZM1488.2068 1508.2097C1493.7289 1508.887 1499.1063 1509.5664 1504.3347 1510.245L1503.305 1518.1785C1498.095 1517.5022 1492.7363 1516.8251 1487.2332 1516.1503L1488.2068 1508.2097ZM1520.4674 1512.3987C1526.048 1513.1644 1531.4299 1513.925 1536.6072 1514.6757L1535.4592 1522.5929C1530.3018 1521.8451 1524.9398 1521.0874 1519.3798 1520.3244L1520.4674 1512.3987ZM1552.7368 1517.08C1558.3963 1517.947 1563.7522 1518.7927 1568.794 1519.6095L1567.5147 1527.5066C1562.4951 1526.6935 1557.1618 1525.8512 1551.5253 1524.9877L1552.7368 1517.08ZM1584.8344 1522.2842C1590.7782 1523.3048 1596.1008 1524.2529 1600.774 1525.1082L1599.334 1532.9776C1594.6889 1532.1275 1589.3949 1531.1843 1583.4805 1530.1688L1584.8344 1522.2842ZM1616.9402 1528.1829C1619.5211 1528.6954 1621.4837 1529.098 1622.8038 1529.373 1623.4639 1529.5105 1623.9634 1529.6161 1624.2993 1529.6876 1624.4673 1529.7234 1624.5942 1529.7507 1624.68 1529.7692 1624.7229 1529.7785 1624.7555 1529.7854 1624.7777 1529.7903 1624.7888 1529.7926 1624.7974 1529.7944 1624.8032 1529.7958 1624.8062 1529.7964 1624.8085 1529.7969 1624.8102 1529.7973 1624.811 1529.7975 1624.8117 1529.7976 1624.8121 1529.7977 1624.8124 1529.7977 1624.8126 1529.7979 1624.8128 1529.7979 1624.8129 1529.7979 1624.813 1529.7979 1624.813 1529.7979 1624.8131 1529.798 1624.8132 1529.798 1623.9625 1533.7064 1623.1118 1537.6149 1623.1118 1537.615 1623.1119 1537.615H1623.1118C1623.1117 1537.6149 1623.1113 1537.6149 1623.111 1537.6148 1623.11 1537.6145 1623.1084 1537.6141 1623.1061 1537.6137 1623.1017 1537.6127 1623.0946 1537.6112 1623.085 1537.6091 1623.0656 1537.6049 1623.0359 1537.5985 1622.9959 1537.5899 1622.9159 1537.5726 1622.7947 1537.5466 1622.6326 1537.5121 1622.3084 1537.443 1621.8206 1537.3399 1621.1725 1537.2048 1619.8761 1536.9348 1617.9379 1536.5372 1615.3817 1536.0297L1616.9402 1528.1829Z" fill="#ff9c77"/>
</g>
</g>
</g>
<path transform="matrix(.629031,.77738,.77738,-.629031,85.7892,98.53304)" d="M24 21.753907C24 15.12649 18.627417 9.753906 12 9.753906 5.372583 9.753906 0 15.12649 0 21.753907 0 28.381323 5.372583 33.753908 12 33.753908 18.627417 33.753908 24 28.381323 24 21.753907Z" fill="#7e1cc4"/>
</g>
</svg>
