<svg xmlns="http://www.w3.org/2000/svg" xmlns:xlink="http://www.w3.org/1999/xlink" version="1.1" width="280.82716" height="170.50562" viewBox="0 0 280.82716 170.50562">
<defs>
<mask id="mask_0">
<g>
<clipPath id="clip_1">
<path transform="matrix(1,0,0,-1,0,170.50562)" d="M0 0H280.82716V170.50562H0Z"/>
</clipPath>
<g clip-path="url(#clip_1)">
<path transform="matrix(.625158,.780498,.808151,-.588975,-26.18599,65.08081)" d="M66.66953 256.49293H0V118.82687H59.297426L98.95733 32.402406 159.52527 60.816728 72.749057 249.91422 66.66953 247.06212V256.49293Z" fill="#d9d9d9" fill-rule="evenodd"/>
</g>
</g>
"/>
</mask>
<clipPath id="clip_2">
<path transform="matrix(1,0,0,-1,0,170.50562)" d="M0 0H280.82716V170.50562H0Z"/>
</clipPath>
</defs>
<g>
<g mask="url(#mask_0)">
<g>
<g clip-path="url(#clip_2)">
<path transform="matrix(-.321003,.924535,-.973237,-.308778,1761.3511,55.2818)" d="M567.10879 1503.7734 566.9859 1499.7753 567.10879 1503.7734ZM8.437683 1453.8615C10.600059 1454.3136 11.986478 1456.4331 11.534339 1458.5955 11.0822 1460.7578 8.962717 1462.1443 6.800343 1461.6921L8.437683 1453.8615ZM22.375906 1464.8345C20.207787 1464.4108 18.793684 1462.3096 19.217419 1460.1415 19.641154 1457.9734 21.742268 1456.5592 23.910387 1456.983L22.375906 1464.8345ZM39.41763 1459.933C41.589769 1460.3356 43.024244 1462.4229 42.62162 1464.595 42.218999 1466.7671 40.13174 1468.2017 37.9596 1467.799L39.41763 1459.933ZM53.666463 1470.6406C51.491 1470.2564 50.03896 1468.1813 50.423234 1466.0057 50.80751 1463.8303 52.882585 1462.3783 55.058046 1462.7626L53.666463 1470.6406ZM70.64525 1465.4537C72.823589 1465.8214 74.29144 1467.8853 73.923809 1470.0636 73.55616 1472.242 71.49224 1473.7098 69.31391 1473.3422L70.64525 1465.4537ZM84.93263 1475.9204C82.75173 1475.5682 81.26919 1473.5149 81.62128 1471.334 81.973369 1469.1531 84.026767 1467.6705 86.207668 1468.0226L84.93263 1475.9204ZM101.822879 1470.4887C104.00612 1470.8259 105.50262 1472.8692 105.16539 1475.0524 104.82816 1477.2356 102.78492 1478.732 100.60167 1478.3949L101.822879 1470.4887ZM116.30171 1480.7669C114.116298 1480.444 112.6064 1478.4107 112.929279 1476.2252 113.252147 1474.0398 115.285518 1472.5299 117.47093 1472.8528L116.30171 1480.7669ZM133.1496 1475.1177C135.33704 1475.4266 136.85991 1477.4503 136.55101 1479.6377 136.24213 1481.8252 134.21845 1483.348 132.031 1483.0391L133.1496 1475.1177ZM147.79474 1485.2146C145.60541 1484.9194 144.0699 1482.9054 144.36508 1480.7161 144.66027 1478.5267 146.67436 1476.9912 148.8637 1477.2864L147.79474 1485.2146ZM164.53049 1479.3497C166.72159 1479.6315 168.26943 1481.6361 167.98767 1483.8272 167.70592 1486.0183 165.70127 1487.5662 163.51018 1487.2844L164.53049 1479.3497ZM179.20287 1489.254C177.0101 1488.9856 175.4502 1486.9902 175.71872 1484.7975 175.98723 1482.6047 177.98249 1481.0448 180.17525 1481.3134L179.20287 1489.254ZM195.86867 1483.1873C198.063 1483.4426 199.63484 1485.4286 199.37947 1487.6229 199.12412 1489.8173 197.13825 1491.389 194.94391 1491.1337L195.86867 1483.1873ZM210.74193 1492.9243C208.54611 1492.6821 206.96245 1490.7057 207.20471 1488.5098 207.44696 1486.314 209.42342 1484.7304 211.61923 1484.9727L210.74193 1492.9243ZM227.40842 1486.667C229.60564 1486.8963 231.20105 1488.8632 230.97187 1491.0604 230.74268 1493.2576 228.77568 1494.853 226.57846 1494.6239L227.40842 1486.667ZM242.29126 1496.2161C240.09273 1495.9999 238.48578 1494.0422 238.70203 1491.8438 238.91828 1489.6452 240.87584 1488.0382 243.07437 1488.2545L242.29126 1496.2161ZM258.81883 1489.7562C261.0186 1489.9595 262.6371 1491.9076 262.4338 1494.1073 262.23054 1496.3071 260.2825 1497.9255 258.08274 1497.7223L258.81883 1489.7562ZM273.9529 1499.1414C271.75196 1498.951 270.12196 1497.0127 270.31217 1494.8118 270.50239 1492.6109 272.4408 1490.9808 274.64173 1491.171L273.9529 1499.1414ZM290.35539 1492.4824C292.5574 1492.6597 294.19883 1494.5884 294.0216 1496.7904 293.84437 1498.9924 291.91563 1500.6338 289.7136 1500.4566L290.35539 1492.4824ZM305.52336 1501.6819C303.3203 1501.5177 301.66749 1499.5988 301.83164 1497.3956 301.9958 1495.1926 303.9148 1493.5398 306.11784 1493.704L305.52336 1501.6819ZM321.96763 1494.8374C324.1716 1494.9884 325.83589 1496.8975 325.6849 1499.1015 325.53395 1501.3053 323.62489 1502.9696 321.4209 1502.8187L321.96763 1494.8374ZM337.18858 1503.8516C334.98374 1503.7138 333.3081 1501.8146 333.44593 1499.6098 333.58375 1497.4049 335.48283 1495.7294 337.68769 1495.8672L337.18858 1503.8516ZM353.48957 1496.8071C355.6952 1496.9317 357.38227 1498.8206 357.25773 1501.0263 357.1332 1503.2318 355.24424 1504.919 353.0386 1504.7944L353.48957 1496.8071ZM368.91368 1505.6423C366.7073 1505.5313 365.0088 1503.6526 365.11994 1501.4462 365.23106 1499.2399 367.1097 1497.5414 369.31608 1497.6525L368.91368 1505.6423ZM385.07456 1498.3981C387.28157 1498.4957 388.9915 1500.364 388.8938 1502.571 388.79615 1504.778 386.92787 1506.4879 384.72087 1506.3903L385.07456 1498.3981ZM400.62336 1507.0448C398.41584 1506.9608 396.69438 1505.1032 396.7784 1502.8956 396.86247 1500.6881 398.72013 1498.9667 400.92768 1499.0507L400.62336 1507.0448ZM416.69966 1499.6022C418.90766 1499.6725 420.6406 1501.5194 420.57026 1503.7274 420.4999 1505.9356 418.65293 1507.6685 416.44493 1507.598L416.69966 1499.6022ZM432.31517 1508.0538C430.10676 1507.9974 428.36225 1506.1614 428.41874 1503.9529 428.47523 1501.7445 430.31129 1500 432.51969 1500.0565L432.31517 1508.0538ZM448.34788 1500.4111C450.5566 1500.4536 452.3127 1502.2786 452.27024 1504.4873 452.22776 1506.696 450.4028 1508.4522 448.19407 1508.4097L448.34788 1500.4111ZM464.03663 1508.6638C461.82768 1508.6354 460.05995 1506.8218 460.0883 1504.6128 460.11665 1502.4038 461.93034 1500.6361 464.13929 1500.6644L464.03663 1508.6638ZM480.00645 1500.8167C482.21556 1500.8307 483.99504 1502.6328 483.98103 1504.8419 483.967 1507.051 482.16484 1508.8305 479.95576 1508.8164L480.00645 1500.8167ZM495.77503 1508.8652C493.5659 1508.8656 491.77467 1507.0751 491.77427 1504.866 491.77384 1502.6569 493.56437 1500.8656 495.7735 1500.8652L495.77503 1508.8652ZM511.62693 1500.8096C513.836 1500.7946 515.6391 1502.5731 515.6542 1504.7822 515.66928 1506.9913 513.8907 1508.7943 511.6816 1508.8095L511.62693 1500.8096ZM527.51998 1508.6483C525.311 1508.6781 523.4961 1506.9118 523.4662 1504.7028 523.4363 1502.4938 525.20278 1500.6788 527.4117 1500.649L527.51998 1508.6483ZM543.24258 1500.381C545.45126 1500.336 547.27816 1502.0902 547.32308 1504.2988 547.368 1506.5076 545.61398 1508.3345 543.4053 1508.3794L543.24258 1500.381ZM559.26248 1508.0023C557.05416 1508.0625 555.21517 1506.321 555.155 1504.1127 555.0949 1501.9044 556.83639 1500.0654 559.04476 1500.0054L559.26248 1508.0023ZM574.9982 1499.5148C577.20608 1499.439 579.0573 1501.1674 579.1331 1503.3751 579.2089 1505.583 577.4806 1507.4342 575.27279 1507.51L574.9982 1499.5148ZM590.77029 1506.9202C588.56307 1507.0127 586.6987 1505.2985 586.6062 1503.0913 586.5136 1500.884 588.2279 1499.0198 590.43508 1498.9273L590.77029 1506.9202ZM606.0487 1498.2063C608.25509 1498.0946 610.1341 1499.7927 610.2457 1501.999 610.35739 1504.2053 608.65927 1506.0845 606.45297 1506.196L606.0487 1498.2063ZM621.7638 1505.3497C619.55868 1505.4824 617.66348 1503.8024 617.53079 1501.5972 617.3981 1499.392 619.0781 1497.4968 621.28329 1497.3641L621.7638 1505.3497ZM636.9635 1496.3342C639.167 1496.1768 641.081 1497.8353 641.2384 1500.039 641.3959 1502.2424 639.73727 1504.1564 637.5337 1504.3139L636.9635 1496.3342ZM653.1011 1503.1036C650.8998 1503.2893 648.9648 1501.6553 648.7791 1499.454 648.5935 1497.2527 650.22756 1495.3176 652.42886 1495.132L653.1011 1503.1036ZM667.7268 1493.7315C669.9252 1493.5134 671.88406 1495.1189 672.102 1497.3173 672.32 1499.5155 670.7146 1501.4744 668.51626 1501.6924L667.7268 1493.7315ZM683.9999 1500.0252C681.80569 1500.2811 679.8193 1498.71 679.5633 1496.5156 679.30728 1494.3214 680.8785 1492.3351 683.07278 1492.0791L683.9999 1500.0252ZM698.49307 1490.123C700.6816 1489.8219 702.6999 1491.3518 703.0011 1493.5403 703.3023 1495.7288 701.7724 1497.7472 699.58389 1498.0484L698.49307 1490.123ZM715.0714 1495.7291C712.89089 1496.0838 710.83578 1494.6035 710.48117 1492.4231 710.1265 1490.2426 711.6066 1488.1875 713.7872 1487.8329L715.0714 1495.7291ZM728.9573 1485.1453C731.1265 1484.7274 733.2238 1486.1472 733.64169 1488.3164 734.0596 1490.4857 732.63986 1492.583 730.4706 1493.0009L728.9573 1485.1453ZM745.7494 1489.7919C743.59579 1490.2839 741.4509 1488.937 740.95889 1486.7833 740.46676 1484.6298 741.81369 1482.485 743.9673 1481.9928L745.7494 1489.7919ZM758.95889 1478.2567C761.09109 1477.6788 763.288 1478.939 763.8659 1481.0712 764.4438 1483.2034 763.1837 1485.4003 761.0515 1485.9782L758.95889 1478.2567ZM776.13497 1481.5397C774.0297 1482.2092 771.78036 1481.0454 771.1107 1478.9402 770.44119 1476.835 771.605 1474.5856 773.7102 1473.916L776.13497 1481.5397ZM788.2366 1468.9574C790.3126 1468.2023 792.6078 1469.2732 793.3629 1471.3493 794.11807 1473.4253 793.0472 1475.7205 790.9711 1476.4756L788.2366 1468.9574ZM805.58676 1470.8952C803.53329 1471.7097 801.20828 1470.7055 800.3937 1468.652 799.5791 1466.5985 800.58346 1464.2734 802.6369 1463.4589L805.58676 1470.8952ZM817.024 1457.6615C819.0721 1456.8335 821.4036 1457.8225 822.2317 1459.8705 823.0598 1461.9186 822.0708 1464.2501 820.0227 1465.0783L817.024 1457.6615ZM834.3895 1459.3883C832.3269 1460.1795 830.0134 1459.1487 829.2223 1457.086 828.43118 1455.0234 829.4619 1452.71 831.52456 1451.9188L834.3895 1459.3883ZM846.29226 1446.5347C848.3815 1445.8167 850.65719 1446.9281 851.3752 1449.0173 852.09329 1451.1066 850.98178 1453.3822 848.8925 1454.1004L846.29226 1446.5347ZM863.4651 1449.4243C861.34799 1450.0552 859.12026 1448.8505 858.48928 1446.7333 857.85836 1444.6162 859.0631 1442.3884 861.18026 1441.7575L863.4651 1449.4243ZM876.33676 1437.578C878.4777 1437.0336 880.6547 1438.3278 881.1993 1440.4688 881.7438 1442.6096 880.4496 1444.7868 878.3086 1445.3312L876.33676 1437.578ZM893.37899 1441.795C891.2196 1442.2616 889.091 1440.8893 888.6245 1438.73 888.15798 1436.5706 889.5303 1434.442 891.68966 1433.9755L893.37899 1441.795ZM907.0549 1430.9103C909.22756 1430.5106 911.3128 1431.948 911.7124 1434.1207 912.112 1436.2935 910.6746 1438.3787 908.50198 1438.7783L907.0549 1430.9103ZM923.73898 1436.1869C921.5566 1436.5297 919.5095 1435.0383 919.16677 1432.856 918.824 1430.6736 920.31527 1428.6265 922.4976 1428.2837L923.73898 1436.1869ZM937.95407 1426.0344C940.14346 1425.7396 942.1573 1427.2755 942.4521 1429.4649 942.7469 1431.6543 941.211 1433.6681 939.0216 1433.9629L937.95407 1426.0344ZM954.2678 1432.0571C952.07339 1432.3114 950.0883 1430.7387 949.83407 1428.5442 949.5798 1426.3497 951.1526 1424.3646 953.34707 1424.1104L954.2678 1432.0571ZM968.79507 1422.4474C970.9932 1422.2278 972.9532 1423.8319 973.1727 1426.03 973.3922 1428.2283 971.78817 1430.1882 969.58999 1430.4077L968.79507 1422.4474ZM985.0713 1428.9717C982.87026 1429.161 980.9325 1427.5303 980.7432 1425.3292 980.5539 1423.1282 982.1847 1421.1904 984.38577 1421.0011L985.0713 1428.9717ZM1000.0633 1419.7493C1002.2664 1419.5864 1004.1845 1421.2402 1004.3475 1423.4434 1004.51046 1425.6465 1002.85659 1427.5646 1000.65347 1427.7276L1000.0633 1419.7493ZM1015.91879 1426.6786C1013.71408 1426.819 1011.813 1425.1455 1011.6726 1422.9409 1011.5322 1420.7362 1013.2056 1418.8352 1015.41036 1418.6948L1015.91879 1426.6786ZM1031.1013 1417.7698C1033.3071 1417.6497 1035.1926 1419.3406 1035.3128 1421.5465 1035.4328 1423.7523 1033.7418 1425.6378 1031.536 1425.7579L1031.1013 1417.7698ZM1046.9467 1424.9829C1044.74 1425.0851 1042.8682 1423.379 1042.7659 1421.1723 1042.6637 1418.9655 1044.3698 1417.0936 1046.5765 1416.9915L1046.9467 1424.9829ZM1062.6367 1416.3074C1064.8441 1416.2208 1066.7037 1417.9403 1066.7902 1420.1477 1066.8766 1422.3552 1065.1572 1424.2147 1062.9498 1424.3013L1062.6367 1416.3074ZM1078.8384 1423.7307C1076.6304 1423.8027 1074.782 1422.0713 1074.71 1419.8634 1074.6378 1417.6554 1076.3693 1415.807 1078.5773 1415.735L1078.8384 1423.7307ZM1094.5621 1415.2647C1096.7705 1415.2068 1098.6077 1416.9502 1098.6654 1419.1586 1098.7233 1421.367 1096.98 1423.2041 1094.7715 1423.262L1094.5621 1415.2647ZM1110.6304 1422.8972C1108.4216 1422.941 1106.5957 1421.1859 1106.552 1418.9773 1106.5082 1416.7686 1108.2633 1414.9426 1110.472 1414.8988L1110.6304 1422.8972ZM1126.4906 1414.6328C1128.6996 1414.6032 1130.5143 1416.3699 1130.544 1418.5787 1130.5736 1420.7877 1128.8069 1422.6024 1126.598 1422.6321L1126.4906 1414.6328ZM1142.4763 1422.4691C1140.2672 1422.4849 1138.4636 1420.7068 1138.448 1418.4977 1138.4323 1416.2886 1140.2103 1414.485 1142.4193 1414.4694L1142.4763 1422.4691ZM1158.4104 1414.4058C1160.6195 1414.4039 1162.4119 1416.1934 1162.4137 1418.4025 1162.4157 1420.6116 1160.6262 1422.4039 1158.4171 1422.4058L1158.4104 1414.4058ZM1174.3357 1422.4423C1172.1266 1422.4303 1170.3455 1420.6298 1170.3573 1418.4207 1170.3693 1416.2116 1172.1698 1414.4304 1174.3789 1414.4424L1174.3357 1422.4423ZM1190.3067 1414.5779C1192.5156 1414.6035 1194.2857 1416.415 1194.26 1418.624 1194.2344 1420.833 1192.4229 1422.6029 1190.2139 1422.5773L1190.3067 1414.5779ZM1206.1765 1422.8119C1203.9678 1422.7726 1202.209 1420.9502 1202.2483 1418.7415 1202.2876 1416.5326 1204.1101 1414.7739 1206.3189 1414.8132L1206.1765 1422.8119ZM1222.2413 1415.1454C1224.4498 1415.1983 1226.1974 1417.0314 1226.1445 1419.2399 1226.0917 1421.4484 1224.2584 1423.1959 1222.0499 1423.1431L1222.2413 1415.1454ZM1237.9789 1423.5731C1235.7706 1423.5067 1234.0344 1421.6629 1234.1008 1419.4547 1234.1672 1417.2466 1236.0111 1415.5104 1238.2192 1415.5768L1237.9789 1423.5731ZM1254.1959 1416.1061C1256.4037 1416.1859 1258.1286 1418.0404 1258.0487 1420.248 1257.9688 1422.4558 1256.1143 1424.1807 1253.9066 1424.1008L1254.1959 1416.1061ZM1269.7474 1424.7222C1267.5403 1424.6289 1265.8267 1422.764 1265.9199 1420.5569 1266.0132 1418.3497 1267.8782 1416.636 1270.0853 1416.7294L1269.7474 1424.7222ZM1286.0863 1417.4546C1288.2929 1417.5614 1289.9951 1419.4368 1289.8883 1421.6433 1289.7815 1423.8499 1287.9063 1425.552 1285.6997 1425.4453L1286.0863 1417.4546ZM1301.6072 1426.2636C1299.4014 1426.1433 1297.7106 1424.2577 1297.8307 1422.0519 1297.9509 1419.846 1299.8366 1418.1552 1302.0425 1418.2754L1301.6072 1426.2636ZM1317.9203 1419.189C1320.1254 1419.3225 1321.8046 1421.2184 1321.671 1423.4235 1321.5375 1425.6286 1319.6416 1427.3079 1317.4365 1427.1743L1317.9203 1419.189ZM1333.36 1428.1878C1331.1558 1428.0407 1329.488 1426.1345 1329.6351 1423.9303 1329.7822 1421.7261 1331.6884 1420.0584 1333.8926 1420.2055L1333.36 1428.1878ZM1349.848 1421.3191C1352.0514 1421.4796 1353.7073 1423.3959 1353.5468 1425.5993 1353.3862 1427.8025 1351.4699 1429.4585 1349.2666 1429.2979L1349.848 1421.3191ZM1365.11 1430.5014C1362.9077 1430.3273 1361.2636 1428.4009 1361.4376 1426.1986 1361.6117 1423.9963 1363.5381 1422.3522 1365.7404 1422.5263L1365.11 1430.5014ZM1381.5889 1423.8281C1383.7899 1424.0158 1385.4223 1425.9523 1385.2346 1428.1533 1385.047 1430.3545 1383.1105 1431.9868 1380.9093 1431.7992L1381.5889 1423.8281ZM1396.8281 1433.2063C1394.6282 1433.0049 1393.008 1431.0582 1393.2095 1428.8583 1393.4109 1426.6583 1395.3576 1425.0382 1397.5575 1425.2396L1396.8281 1433.2063ZM1413.4808 1426.7482C1415.6795 1426.9635 1417.2872 1428.9204 1417.0719 1431.119 1416.8566 1433.3176 1414.8997 1434.9254 1412.701 1434.7101L1413.4808 1426.7482ZM1428.536 1436.3118C1426.3388 1436.0825 1424.7435 1434.1154 1424.9729 1431.9181 1425.2023 1429.721 1427.1693 1428.1257 1429.3666 1428.355L1428.536 1436.3118ZM1445.2247 1430.0623C1447.4204 1430.3058 1449.0028 1432.2832 1448.7593 1434.4789 1448.5156 1436.6746 1446.5382 1438.2571 1444.3425 1438.0134L1445.2247 1430.0623ZM1460.1321 1439.8179C1457.9381 1439.5598 1456.3688 1437.5719 1456.627 1435.3779 1456.885 1433.184 1458.8729 1431.6146 1461.0669 1431.8727L1460.1321 1439.8179ZM1476.905 1433.7904C1479.0973 1434.0634 1480.6531 1436.0619 1480.3801 1438.254 1480.107 1440.4463 1478.1087 1442.0021 1475.9164 1441.729L1476.905 1433.7904ZM1491.705 1443.7514C1489.5148 1443.4629 1487.973 1441.4536 1488.2615 1439.2634 1488.5498 1437.0731 1490.5592 1435.5314 1492.7494 1435.8198L1491.705 1443.7514ZM1508.6023 1437.966C1510.7903 1438.2703 1512.3174 1440.2909 1512.013 1442.479 1511.7085 1444.667 1509.6879 1446.194 1507.4999 1445.8895L1508.6023 1437.966ZM1523.2835 1448.1471C1521.0978 1447.8258 1519.5864 1445.7935 1519.9077 1443.6078 1520.2291 1441.4221 1522.2614 1439.9108 1524.447 1440.2322L1523.2835 1448.1471ZM1540.2225 1442.6168C1542.4055 1442.9562 1543.9 1445.0009 1543.5608 1447.1837 1543.2214 1449.3667 1541.1768 1450.8612 1538.9938 1450.5219L1540.2225 1442.6168ZM1554.679 1453.0317C1552.4993 1452.6725 1551.0233 1450.6144 1551.3826 1448.4346 1551.7417 1446.2549 1553.7998 1444.7789 1555.9796 1445.1382L1554.679 1453.0317ZM1571.6452 1447.8015C1573.821 1448.1836 1575.2752 1450.2572 1574.8931 1452.4331 1574.5109 1454.6089 1572.4373 1456.063 1570.2615 1455.6809L1571.6452 1447.8015ZM1586.0335 1458.5597C1583.8634 1458.146 1582.4396 1456.0515 1582.8532 1453.8815 1583.2667 1451.7114 1585.3612 1450.2875 1587.5314 1450.7012L1586.0335 1458.5597ZM0 1456.1401C.881097 1452.2384 .881049 1452.2384 .88101 1452.2383 .881011 1452.2383 .880982 1452.2383 .880983 1452.2383 .880985 1452.2383 .881027 1452.2384 .881108 1452.2384 .88127 1452.2384 .881592 1452.2385 .882072 1452.2385 .883033 1452.2388 .884629 1452.2391 .88686 1452.2396 .891322 1452.2407 .898323 1452.2422 .907857 1452.2444 .926924 1452.2487 .956122 1452.2553 .995401 1452.264 1.073959 1452.2816 1.192843 1452.3081 1.351658 1452.3434 1.669289 1452.4138 2.146642 1452.519 2.780566 1452.657 4.048416 1452.9329 5.94253 1453.3397 8.437683 1453.8615L6.800343 1461.6921C4.283438 1461.1659 2.368046 1460.7544 1.079404 1460.474 .435081 1460.3338-.052557 1460.2263-.380358 1460.1536-.544258 1460.1173-.6682 1460.0896-.751787 1460.0709-.793581 1460.0615-.825287 1460.0545-.846855 1460.0496-.857639 1460.0471-.865889 1460.0453-.871598 1460.044-.874452 1460.0433-.876672 1460.0429-.878255 1460.0425-.879047 1460.0424-.87968 1460.0422-.880153 1460.0421-.88039 1460.042-.880587 1460.042-.880745 1460.042-.880823 1460.0419-.880911 1460.0419-.880951 1460.0419-.881029 1460.0419-.881097 1460.0419 0 1456.1401ZM23.910387 1456.983C28.451859 1457.8706 33.63109 1458.8604 39.41763 1459.933L37.9596 1467.799C32.14694 1466.7216 26.942219 1465.7269 22.375906 1464.8345L23.910387 1456.983ZM55.058046 1462.7626C59.953584 1463.6273 65.153148 1464.5269 70.64525 1465.4537L69.31391 1473.3422C63.80135 1472.4118 58.5817 1471.5088 53.666463 1470.6406L55.058046 1462.7626ZM86.207668 1468.0226C91.21882 1468.8317 96.42611 1469.655 101.822879 1470.4887L100.60167 1478.3949C95.186679 1477.5585 89.96144 1476.7322 84.93263 1475.9204L86.207668 1468.0226ZM117.47093 1472.8528C122.55522 1473.6039 127.78299 1474.3599 133.1496 1475.1177L132.031 1483.0391C126.64727 1482.2788 121.40263 1481.5205 116.30171 1480.7669L117.47093 1472.8528ZM148.8637 1477.2864C153.97614 1477.9757 159.19956 1478.6642 164.53049 1479.3497L163.51018 1487.2844C158.1628 1486.5968 152.92317 1485.9061 147.79474 1485.2146L148.8637 1477.2864ZM180.17525 1481.3134C185.31737 1481.943 190.54944 1482.5682 195.86867 1483.1873L194.94391 1491.1337C189.6086 1490.5128 184.36066 1489.8856 179.20287 1489.254L180.17525 1481.3134ZM211.61923 1484.9727C216.80754 1485.545 222.07138 1486.1104 227.40842 1486.667L226.57846 1494.6239C221.22545 1494.0654 215.94582 1493.4985 210.74193 1492.9243L211.61923 1484.9727ZM243.07437 1488.2545C248.25962 1488.7645 253.50843 1489.2655 258.81883 1489.7562L258.08274 1497.7223C252.75647 1497.2301 247.49198 1496.7277 242.29126 1496.2161L243.07437 1488.2545ZM274.64173 1491.171C279.82585 1491.619 285.0643 1492.0565 290.35539 1492.4824L289.7136 1500.4566C284.40666 1500.0296 279.1525 1499.5907 273.9529 1499.1414L274.64173 1491.171ZM306.11784 1493.704C311.35365 1494.0941 316.63743 1494.4723 321.96763 1494.8374L321.4209 1502.8187C316.07463 1502.4525 310.7749 1502.0733 305.52336 1501.6819L306.11784 1493.704ZM337.68769 1495.8672C342.91374 1496.1939 348.18153 1496.5075 353.48957 1496.8071L353.0386 1504.7944C347.71437 1504.4938 342.4305 1504.1792 337.18858 1503.8516L337.68769 1495.8672ZM369.31608 1497.6525C374.53288 1497.9152 379.78614 1498.1641 385.07456 1498.3981L384.72087 1506.3903C379.41603 1506.1555 374.1465 1505.9059 368.91368 1505.6423L369.31608 1497.6525ZM400.92768 1499.0507C406.15318 1499.2495 411.4109 1499.4336 416.69966 1499.6022L416.44493 1507.598C411.13948 1507.4291 405.8652 1507.2444 400.62336 1507.0448L400.92768 1499.0507ZM432.51969 1500.0565C437.76744 1500.1907 443.04386 1500.3092 448.34788 1500.4111L448.19407 1508.4097C442.87297 1508.3074 437.57963 1508.1885 432.31517 1508.0538L432.51969 1500.0565ZM464.13929 1500.6644C469.40318 1500.7319 474.69258 1500.783 480.00645 1500.8167L479.95576 1508.8164C474.62437 1508.7827 469.31764 1508.7316 464.03663 1508.6638L464.13929 1500.6644ZM495.7735 1500.8652C501.03578 1500.8641 506.3206 1500.8458 511.62693 1500.8096L511.6816 1508.8095C506.35737 1508.8458 501.0548 1508.8641 495.77503 1508.8652L495.7735 1500.8652ZM527.4117 1500.649C532.6691 1500.5779 537.9464 1500.4888 543.24258 1500.381L543.4053 1508.3794C538.09078 1508.4874 532.79537 1508.5769 527.51998 1508.6483L527.4117 1500.649ZM559.04476 1500.0054C561.68746 1499.9334 564.33456 1499.8567 566.9859 1499.7753L567.23159 1507.7715C564.5708 1507.8533 561.9144 1507.9302 559.26248 1508.0023L559.04476 1500.0054ZM566.9859 1499.7753C569.6899 1499.6921 572.3605 1499.6054 574.9982 1499.5148L575.27279 1507.51C572.62527 1507.601 569.94509 1507.6881 567.23159 1507.7715L566.9859 1499.7753ZM590.43508 1498.9273C595.7818 1498.703 600.9845 1498.4625 606.0487 1498.2063L606.45297 1506.196C601.3649 1506.4535 596.1392 1506.6951 590.77029 1506.9202L590.43508 1498.9273ZM621.28329 1497.3641C626.67617 1497.0397 631.9002 1496.696 636.9635 1496.3342L637.5337 1504.3139C632.43948 1504.6779 627.1854 1505.0234 621.7638 1505.3497L621.28329 1497.3641ZM652.42886 1495.132C657.7148 1494.6863 662.81039 1494.219 667.7268 1493.7315L668.51626 1501.6924C663.5592 1502.184 658.42446 1502.6548 653.1011 1503.1036L652.42886 1495.132ZM683.07278 1492.0791C688.4405 1491.4528 693.57449 1490.8 698.49307 1490.123L699.58389 1498.0484C694.60848 1498.7332 689.41989 1499.3927 683.9999 1500.0252L683.07278 1492.0791ZM713.7872 1487.8329C719.11068 1486.967 724.15707 1486.07 728.9573 1485.1453L730.4706 1493.0009C725.59127 1493.9408 720.4684 1494.8513 715.0714 1495.7291L713.7872 1487.8329ZM743.9673 1481.9928C749.2665 1480.782 754.2444 1479.5344 758.95889 1478.2567L761.0515 1485.9782C756.23318 1487.284 751.1517 1488.5574 745.7494 1489.7919L743.9673 1481.9928ZM773.7102 1473.916C778.804 1472.2959 783.6117 1470.6397 788.2366 1468.9574L790.9711 1476.4756C786.25668 1478.1903 781.34518 1479.8826 776.13497 1481.5397L773.7102 1473.916ZM802.6369 1463.4589C807.476 1461.5393 812.2099 1459.6079 817.024 1457.6615L820.0227 1465.0783C815.2392 1467.0123 810.45846 1468.9627 805.58676 1470.8952L802.6369 1463.4589ZM831.52456 1451.9188C836.2434 1450.1089 841.12887 1448.3093 846.29226 1446.5347L848.8925 1454.1004C843.835 1455.8385 839.0394 1457.6047 834.3895 1459.3883L831.52456 1451.9188ZM861.18026 1441.7575C865.95339 1440.335 870.98397 1438.9395 876.33676 1437.578L878.3086 1445.3312C873.06179 1446.6657 868.13558 1448.0324 863.4651 1449.4243L861.18026 1441.7575ZM891.68966 1433.9755C896.5504 1432.9253 901.66067 1431.9024 907.0549 1430.9103L908.50198 1438.7783C903.186 1439.756 898.15658 1440.763 893.37899 1441.795L891.68966 1433.9755ZM922.4976 1428.2837C927.4261 1427.5097 932.57168 1426.7592 937.95407 1426.0344L939.0216 1433.9629C933.6948 1434.6802 928.60726 1435.4223 923.73898 1436.1869L922.4976 1428.2837ZM953.34707 1424.1104C958.3078 1423.5355 963.4531 1422.9807 968.79507 1422.4474L969.58999 1430.4077C964.28829 1430.9371 959.185 1431.4874 954.2678 1432.0571L953.34707 1424.1104ZM984.38577 1421.0011C989.4459 1420.5659 994.669 1420.1483 1000.0633 1419.7493L1000.65347 1427.7276C995.28976 1428.1243 990.0985 1428.5393 985.0713 1428.9717L984.38577 1421.0011ZM1015.41036 1418.6948C1020.4969 1418.3709 1025.7252 1418.0623 1031.1013 1417.7698L1031.536 1425.7579C1026.1837 1426.0492 1020.9799 1426.3563 1015.91879 1426.6786L1015.41036 1418.6948ZM1046.5765 1416.9915C1049.2219 1416.8689 1051.9009 1416.75 1054.6139 1416.6348L1054.9534 1424.6276C1052.2504 1424.7424 1049.5817 1424.8609 1046.9467 1424.9829L1046.5765 1416.9915ZM1054.6139 1416.6348C1057.294 1416.521 1059.9682 1416.4119 1062.6367 1416.3074L1062.9498 1424.3013C1060.29 1424.4054 1057.6245 1424.5142 1054.9534 1424.6276L1054.6139 1416.6348ZM1078.5773 1415.735C1083.9304 1415.56 1089.2589 1415.4036 1094.5621 1415.2647L1094.7715 1423.262C1089.4855 1423.4004 1084.1742 1423.5564 1078.8384 1423.7307L1078.5773 1415.735ZM1110.472 1414.8988C1115.8394 1414.7926 1121.1792 1414.7041 1126.4906 1414.6328L1126.598 1422.6321C1121.3035 1422.7031 1115.9806 1422.7914 1110.6304 1422.8972L1110.472 1414.8988ZM1142.4193 1414.4694C1147.7807 1414.4312 1153.1113 1414.4102 1158.4104 1414.4058L1158.4171 1422.4058C1153.1345 1422.4102 1147.8207 1422.431 1142.4763 1422.4691L1142.4193 1414.4694ZM1174.3789 1414.4424C1179.7224 1414.4713 1185.032 1414.5167 1190.3067 1414.5779L1190.2139 1422.5773C1184.9556 1422.5164 1179.6625 1422.4711 1174.3357 1422.4423L1174.3789 1414.4424ZM1206.3189 1414.8132C1211.6647 1414.9083 1216.9727 1415.0193 1222.2413 1415.1454L1222.0499 1423.1431C1216.7975 1423.0173 1211.5059 1422.9067 1206.1765 1422.8119L1206.3189 1414.8132ZM1238.2192 1415.5768C1243.5884 1415.7382 1248.9143 1415.9149 1254.1959 1416.1061L1253.9066 1424.1008C1248.6412 1423.9103 1243.3316 1423.7341 1237.9789 1423.5731L1238.2192 1415.5768ZM1270.0853 1416.7294C1275.4685 1416.9569 1280.8027 1417.199 1286.0863 1417.4546L1285.6997 1425.4453C1280.4321 1425.1904 1275.1143 1424.9491 1269.7474 1424.7222L1270.0853 1416.7294ZM1302.0425 1418.2754C1307.391 1418.5669 1312.6841 1418.8717 1317.9203 1419.189L1317.4365 1427.1743C1312.2163 1426.858 1306.9393 1426.5541 1301.6072 1426.2636L1302.0425 1418.2754ZM1333.8926 1420.2055C1339.2764 1420.5647 1344.5955 1420.9363 1349.848 1421.3191L1349.2666 1429.2979C1344.0302 1428.9163 1338.7274 1428.5458 1333.36 1428.1878L1333.8926 1420.2055ZM1365.7404 1422.5263C1371.099 1422.9498 1376.3825 1423.3843 1381.5889 1423.8281L1380.9093 1431.7992C1375.7191 1431.3567 1370.452 1430.9236 1365.11 1430.5014L1365.7404 1422.5263ZM1397.5575 1425.2396C1402.9569 1425.734 1408.2655 1426.2376 1413.4808 1426.7482L1412.701 1434.7101C1407.5025 1434.201 1402.2106 1433.6992 1396.8281 1433.2063L1397.5575 1425.2396ZM1429.3666 1428.355C1434.7647 1428.9185 1440.0518 1429.4883 1445.2247 1430.0623L1444.3425 1438.0134C1439.1867 1437.4414 1433.9168 1436.8734 1428.536 1436.3118L1429.3666 1428.355ZM1461.0669 1431.8727C1466.4898 1432.5108 1471.7705 1433.1509 1476.905 1433.7904L1475.9164 1441.729C1470.7996 1441.0918 1465.5368 1440.4537 1460.1321 1439.8179L1461.0669 1431.8727ZM1492.7494 1435.8198C1498.2306 1436.5415 1503.517 1437.2583 1508.6023 1437.966L1507.4999 1445.8895C1502.4336 1445.1847 1497.1666 1444.4705 1491.705 1443.7514L1492.7494 1435.8198ZM1524.447 1440.2322C1530.0071 1441.0496 1535.2692 1441.8469 1540.2225 1442.6168L1538.9938 1450.5219C1534.0618 1449.7553 1528.8214 1448.9612 1523.2835 1448.1471L1524.447 1440.2322ZM1555.9796 1445.1382C1561.8212 1446.1007 1567.0524 1446.9949 1571.6452 1447.8015L1570.2615 1455.6809C1565.6957 1454.8792 1560.4922 1453.9895 1554.679 1453.0317L1555.9796 1445.1382ZM1587.5314 1450.7012C1590.0684 1451.1847 1591.9974 1451.5645 1593.2949 1451.8239 1593.9437 1451.9535 1594.4347 1452.0531 1594.7648 1452.1206 1594.9298 1452.1544 1595.0547 1452.18 1595.1389 1452.1975 1595.181 1452.2062 1595.213 1452.2129 1595.2349 1452.2174 1595.2457 1452.2196 1595.2542 1452.2214 1595.2599 1452.2227 1595.2628 1452.2232 1595.265 1452.2236 1595.2667 1452.224 1595.2675 1452.2241 1595.2682 1452.2244 1595.2687 1452.2244 1595.2689 1452.2245 1595.269 1452.2245 1595.2693 1452.2246 1595.2693 1452.2246 1595.2694 1452.2246 1595.2695 1452.2246 1595.2695 1452.2246 1595.2697 1452.2246 1594.4517 1456.1401 1593.6338 1460.0556 1593.6338 1460.0557 1593.6339 1460.0557H1593.6338C1593.6337 1460.0556 1593.6334 1460.0556 1593.6329 1460.0554 1593.632 1460.0552 1593.6304 1460.0549 1593.6282 1460.0545 1593.6238 1460.0535 1593.6168 1460.052 1593.6073 1460.05 1593.5883 1460.0462 1593.5591 1460.04 1593.5197 1460.032 1593.441 1460.0156 1593.3218 1459.9911 1593.1624 1459.9585 1592.8435 1459.8933 1592.364 1459.796 1591.7267 1459.6686 1590.452 1459.4138 1588.5465 1459.0387 1586.0335 1458.5597L1587.5314 1450.7012Z" fill="#ff9c77"/>
</g>
</g>
</g>
<path transform="matrix(.625158,.780498,.808151,-.588975,84.92216,146.90323)" d="M22.92 19.962838C22.92 13.526318 17.789183 8.308487 11.46 8.308487 5.130817 8.308487 0 13.526318 0 19.962838 0 26.399357 5.130817 31.617188 11.46 31.617188 17.789183 31.617188 22.92 26.399357 22.92 19.962838Z" fill="#7e1cc4"/>
</g>
</svg>
