<svg xmlns="http://www.w3.org/2000/svg" xmlns:xlink="http://www.w3.org/1999/xlink" version="1.1" width="235.59033pt" height="345.46388pt" viewBox="0 0 235.59033 345.46388">
<defs>
<mask id="mask_0">
<g>
<clipPath id="clip_1">
<path transform="matrix(1,0,0,-1,0,345.46388)" d="M0 0H235.59033V345.46388H0Z"/>
</clipPath>
<g clip-path="url(#clip_1)">
<path transform="matrix(-.708613,-.705598,-.705598,.708613,378.10035,100.66382)" d="M42.419179 321.3661 18.423928 345.46388 0 327.11833 24.69592 302.3169 29.157382 306.75938 118.1667 48.92572 129.06397 52.687685V46.71991H159.06397V63.04425L189.58422 73.580448 97.481517 340.3747 42.419179 321.3661Z" fill="#d9d9d9" fill-rule="evenodd"/>
</g>
</g>
"/>
</mask>
<clipPath id="clip_2">
<path transform="matrix(1,0,0,-1,0,345.46388)" d="M0 0H235.59033V345.46388H0Z"/>
</clipPath>
</defs>
<g>
<g mask="url(#mask_0)">
<g>
<g clip-path="url(#clip_2)">
<path transform="matrix(.184291,-.982872,-.982872,-.184291,910.6722,583.0487)" d="M537.7145 648.5809 536.96078 644.6525 537.7145 648.5809ZM8.470543 732.9525C10.090458 734.4546 10.186 736.9854 8.683944 738.60537 7.181888 740.2252 4.651031 740.3208 3.031116 738.8187L8.470543 732.9525ZM15.128594 749.52316C13.443892 748.0941 13.236615 745.56997 14.665627 743.88528 16.094639 742.20059 18.618802 741.9932 20.303503 743.42227L15.128594 749.52316ZM32.525175 753.4055C34.260885 754.77218 34.560098 757.28707 33.19349 759.02279 31.826882 760.7585 29.311959 761.0577 27.576252 759.6911L32.525175 753.4055ZM40.428907 769.45376C38.646989 768.14797 38.261 765.6449 39.56678 763.863 40.87256 762.08108 43.375635 761.69509 45.15755 763.00088L40.428907 769.45376ZM58.08453 772.1392C59.90992 773.38357 60.381 775.872 59.136716 777.6974 57.892435 779.52279 55.40397 779.99386 53.57858 778.7496L58.08453 772.1392ZM67.036 787.5881C65.1688 786.4074 64.612209 783.9367 65.79281 782.06948 66.97342 780.2023 69.44416 779.6457 71.31137 780.8263L67.036 787.5881ZM84.85733 789.06039C86.76523 790.174 87.4091 792.6235 86.29545 794.5314 85.1818 796.4393 82.73235 797.0831 80.824459 795.9695L84.85733 789.06039ZM94.894359 803.8417C92.94685 802.79879 92.21349 800.37466 93.25635 798.4271 94.2992 796.4796 96.72336 795.7463 98.67086 796.7891L94.894359 803.8417ZM112.74832 803.9867C114.7343 804.9543 115.55989 807.34866 114.59233 809.3346 113.62477 811.32058 111.23045 812.1462 109.24447 811.1786L112.74832 803.9867ZM123.90353 817.9624C121.88029 817.0754 120.95918 814.7161 121.84619 812.6929 122.7332 810.6697 125.09242 809.74856 127.11567 810.63558L123.90353 817.9624ZM141.72769 816.6805C143.78655 817.4814 144.80635 819.7996 144.00547 821.85848 143.20459 823.91738 140.88632 824.93716 138.82746 824.1362L141.72769 816.6805ZM153.99257 829.6548C151.90024 828.9459 150.7787 826.6751 151.48754 824.5828 152.19638 822.4905 154.46718 821.36898 156.55951 822.07778L153.99257 829.6548ZM171.6236 826.7954C173.74674 827.4058 174.97306 829.6218 174.36264 831.74496 173.75225 833.86807 171.53627 835.09439 169.41313 834.48397L171.6236 826.7954ZM185.06311 838.5735C182.91257 838.06808 181.57897 835.9149 182.08443 833.7644 182.58988 831.6139 184.74298 830.2803 186.89353 830.7857L185.06311 838.5735ZM202.33948 834.00198C204.51319 834.39608 205.95587 836.4776 205.5618 838.65139 205.16774 840.8251 203.08615 842.26779 200.91245 841.87368L202.33948 834.00198ZM216.91748 844.3356C214.72573 844.05899 213.17319 842.0579 213.4498 839.8662 213.72641 837.67446 215.72742 836.1219 217.91916 836.3985L216.91748 844.3356ZM233.58336 837.93496C235.78714 838.08877 237.44899 839.99996 237.29521 842.2037 237.14142 844.4075 235.23024 846.06936 233.02646 845.9155L233.58336 837.93496ZM249.2091 846.5784C247.00012 846.55209 245.23078 844.74 245.25714 842.531 245.28353 840.322 247.09563 838.5527 249.30461 838.57907L249.2091 846.5784ZM265.0324 838.30288C267.23908 838.1985 269.11256 839.9027 269.21696 842.1094 269.32133 844.31607 267.61708 846.1895 265.4104 846.2939L265.0324 838.30288ZM281.57087 845.04208C279.37449 845.27908 277.40187 843.6906 277.1649 841.4942 276.92793 839.29788 278.51637 837.3252 280.71275 837.08828L281.57087 845.04208ZM296.68843 834.8566C298.8653 834.4804 300.93498 835.9401 301.31117 838.117 301.68739 840.2939 300.22764 842.3636 298.05076 842.73977L296.68843 834.8566ZM314.3881 839.29537C312.24598 839.8353 310.0717 838.53659 309.53169 836.3945 308.99168 834.2523 310.29045 832.07809 312.43257 831.538L314.3881 839.29537ZM327.7549 826.9396C329.83818 826.20449 332.1229 827.29739 332.85798 829.3806 333.59306 831.46389 332.50013 833.7486 330.41688 834.4837L327.7549 826.9396ZM346.0648 827.98849C344.0762 828.95077 341.6841 828.1187 340.72187 826.1301 339.75965 824.1416 340.59165 821.74948 342.5802 820.78726L346.0648 827.98849ZM356.39988 813.00277C358.25059 811.79647 360.7288 812.3189 361.93507 814.1697 363.14134 816.0204 362.61888 818.4986 360.76817 819.70486L356.39988 813.00277ZM374.34046 809.4875C372.66978 810.93289 370.1437 810.75027 368.6983 809.0796 367.25294 807.40896 367.43556 804.8829 369.10624 803.43746L374.34046 809.4875ZM380.42829 792.2598C381.89915 790.6116 384.4277 790.4677 386.076 791.93856 387.7243 793.4094 387.86814 795.938 386.39729 797.5863L380.42829 792.2598ZM396.89796 784.404C395.61207 786.2003 393.11347 786.61416 391.3171 785.3283 389.52076 784.0424 389.10694 781.5438 390.3928 779.74746L396.89796 784.404ZM399.24079 766.2589C400.38746 764.3707 402.84776 763.76956 404.73597 764.91629 406.6242 766.0629 407.22535 768.5232 406.07868 770.41146L399.24079 766.2589ZM414.36845 756.03109C413.2974 757.9632 410.86286 758.66128 408.9307 757.5903 406.99858 756.5192 406.30049 754.08468 407.37153 752.1525L414.36845 756.03109ZM415.2713 737.7461C416.3363 735.81069 418.7687 735.10507 420.70417 736.17007 422.63963 737.2351 423.34526 739.6675 422.2802 741.6029L415.2713 737.7461ZM430.33338 727.42129C429.2056 729.3208 426.75144 729.94656 424.85185 728.8187 422.95228 727.691 422.32658 725.2368 423.45436 723.3372L430.33338 727.42129ZM432.4181 709.2446C433.67027 707.4247 436.16075 706.96438 437.98075 708.21658 439.80073 709.4687 440.26106 711.95919 439.00889 713.7792L432.4181 709.2446ZM448.69984 700.9986C447.27763 702.6891 444.75434 702.9065 443.06388 701.4843 441.3734 700.06216 441.15596 697.5388 442.57817 695.8483L448.69984 700.9986ZM454.18739 683.5661C455.7989 682.05508 458.33024 682.1364 459.8413 683.7479 461.35243 685.3594 461.27104 687.89077 459.65956 689.40188L454.18739 683.5661ZM471.95216 679.25607C470.16255 680.5513 467.6618 680.1505 466.36656 678.3609 465.07133 676.5713 465.47209 674.07058 467.26167 672.7753L471.95216 679.25607ZM481.50633 663.7497C483.44013 662.68167 485.8736 663.3835 486.94163 665.3173 488.00965 667.2511 487.3078 669.6846 485.374 670.7526L481.50633 663.7497ZM499.8339 663.79629C497.7947 664.64608 495.4528 663.6818 494.60304 661.64266 493.75328 659.6035 494.7175 657.26156 496.75666 656.4118L499.8339 663.79629ZM512.5127 650.7146C514.622 650.0581 516.8642 651.2359 517.5206 653.3452 518.1771 655.4546 516.9993 657.6967 514.88998 658.35317L512.5127 650.7146ZM530.42306 654.1944C528.2691 654.685 526.12527 653.33657 525.63467 651.1826 525.14407 649.0286 526.49246 646.88479 528.6464 646.39419L530.42306 654.1944ZM545.2386 643.1875C547.41928 642.8339 549.4737 644.31509 549.8273 646.4957 550.18087 648.6764 548.6997 650.7308 546.51907 651.08438L545.2386 643.1875ZM562.63 648.94638C560.4326 649.17367 558.467 647.57656 558.23977 645.3791 558.01248 643.1817 559.60958 641.21609 561.80697 640.9888L562.63 648.94638ZM578.4681 639.75076C580.6749 639.65078 582.54507 641.35867 582.6451 643.56558 582.7451 645.7724 581.0372 647.6425 578.83029 647.74258L578.4681 639.75076ZM595.0774 647.47409C592.8684 647.44729 591.0994 645.63479 591.1263 643.4258 591.15316 641.2168 592.96566 639.4478 595.17459 639.4747L595.0774 647.47409ZM611.8994 640.15457C614.1033 640.30679 615.76657 642.21676 615.6143 644.4206 615.46218 646.6245 613.5522 648.2877 611.34829 648.13558L611.8994 640.15457ZM627.5474 649.70956C625.3554 649.43508 623.8009 647.4356 624.0754 645.2436 624.3498 643.0516 626.3493 641.4971 628.5413 641.77157L627.5474 649.70956ZM645.0461 644.29556C647.2201 644.68826 648.6641 646.76889 648.2715 648.9428 647.8788 651.1168 645.79818 652.56088 643.6242 652.1682L645.0461 644.29556ZM659.55886 655.48287C657.4085 654.9766 656.0757 652.823 656.5819 650.67269 657.08816 648.52236 659.2417 647.18948 661.392 647.6957L659.55886 655.48287ZM677.559 651.94058C679.68087 652.55538 680.9025 654.7739 680.2877 656.89578 679.67288 659.0176 677.45437 660.2393 675.3325 659.62448L677.559 651.94058ZM690.85208 664.5386C688.7628 663.8207 687.65109 661.54507 688.36898 659.4558 689.0868 657.3666 691.3624 656.2548 693.45169 656.9727L690.85208 664.5386ZM709.1107 662.7731C711.16378 663.58889 712.1666 665.91458 711.3508 667.9675 710.53506 670.0205 708.2094 671.02346 706.15646 670.2076L709.1107 662.7731ZM721.1628 676.573C719.1491 675.6644 718.25326 673.29556 719.1618 671.28189 720.0704 669.2682 722.4393 668.3723 724.45297 669.2809L721.1628 676.573ZM739.51016 676.48196C741.48159 677.47879 742.27169 679.8851 741.27487 681.8565 740.27798 683.82797 737.8717 684.61807 735.90029 683.6212L739.51016 676.48196ZM750.2753 691.28469C748.34878 690.20376 747.66317 687.7656 748.7441 685.83908 749.825 683.9124 752.2631 683.2268 754.18978 684.30776L750.2753 691.28469ZM768.5455 692.77059C770.42416 693.93289 771.00497 696.398 769.84268 698.2767 768.68038 700.1554 766.2152 700.7361 764.33657 699.57388L768.5455 692.77059ZM778.02096 708.45236C776.1942 707.21 775.72048 704.72207 776.96279 702.8953 778.2051 701.0686 780.693 700.59487 782.5198 701.83718L778.02096 708.45236ZM796.14498 711.5603C797.91287 712.885 798.27206 715.3921 796.9473 717.1599 795.6226 718.9278 793.11557 719.28707 791.34768 717.96237L796.14498 711.5603ZM804.1113 728.0545C802.4188 726.63479 802.1977 724.11178 803.61746 722.41928 805.0372 720.72677 807.5602 720.5056 809.2527 721.9254L804.1113 728.0545ZM0 730.369C2.856705 727.56918 2.856594 727.56906 2.85649 727.5689 2.856465 727.5689 2.856369 727.5688 2.85632 727.5687 2.856222 727.56869 2.856154 727.5686 2.856116 727.56857 2.85604 727.5685 2.856085 727.5685 2.85625 727.56869 2.85658 727.56906 2.857391 727.5698 2.858684 727.57119 2.861268 727.5738 2.865774 727.57839 2.872198 727.5849 2.885045 727.5979 2.90556 727.6187 2.933697 727.6471 2.98997 727.70388 3.076728 727.79116 3.193606 727.9078 3.427364 728.141 3.781582 728.4918 4.253337 728.9517 5.196878 729.8716 6.610404 731.2277 8.470543 732.9525L3.031116 738.8187C1.119711 737.0464-.342178 735.64419-1.331166 734.68008-1.825675 734.19796-2.202 733.8253-2.457218 733.5706-2.584829 733.4433-2.682168 733.34548-2.748869 733.27816-2.78222 733.24447-2.807912 733.21847-2.8259 733.2002-2.834894 733.19107-2.841961 733.1839-2.847098 733.17868-2.849666 733.176-2.851751 733.17398-2.853352 733.1723-2.854153 733.17147-2.854833 733.1708-2.855392 733.1702-2.855671 733.1699-2.85592 733.1697-2.856139 733.16946-2.856248 733.1693-2.85639 733.1692-2.856445 733.1691-2.856578 733.169-2.856705 733.1689 0 730.369ZM20.303503 743.42227C23.87555 746.45217 27.960356 749.8114 32.525175 753.4055L27.576252 759.6911C22.930535 756.03329 18.77039 752.6122 15.128594 749.52316L20.303503 743.42227ZM45.15755 763.00088C49.21257 765.97238 53.5263 769.0321 58.08453 772.1392L53.57858 778.7496C48.941705 775.5888 44.55373 772.4764 40.428907 769.45376L45.15755 763.00088ZM71.31137 780.8263C75.655429 783.573 80.17385 786.3266 84.85733 789.06039L80.824459 795.9695C76.055828 793.18606 71.45655 790.3831 67.036 787.5881L71.31137 780.8263ZM98.67086 796.7891C103.23546 799.2334 107.93032 801.6394 112.74832 803.9867L109.24447 811.1786C104.33109 808.7848 99.54533 806.33218 94.894359 803.8417L98.67086 796.7891ZM127.11567 810.63558C131.88512 812.7265 136.7578 814.74728 141.72769 816.6805L138.82746 824.1362C133.74881 822.1607 128.77214 820.0968 123.90353 817.9624L127.11567 810.63558ZM156.55951 822.07778C161.49906 823.75119 166.52217 825.32876 171.6236 826.7954L169.41313 834.48397C164.18793 832.98178 159.04596 831.36679 153.99257 829.6548L156.55951 822.07778ZM186.89353 830.7857C191.97544 831.98019 197.12566 833.05679 202.33948 834.00198L200.91245 841.87368C195.55934 840.9032 190.2746 839.7984 185.06311 838.5735L186.89353 830.7857ZM217.91916 836.3985C223.08669 837.05068 228.30951 837.56698 233.58336 837.93496L233.02646 845.9155C227.60019 845.5369 222.22902 845.0059 216.91748 844.3356L217.91916 836.3985ZM249.30461 838.57907C254.50434 838.6411 259.7482 838.5528 265.0324 838.30288L265.4104 846.2939C259.96546 846.55148 254.56365 846.6424 249.2091 846.5784L249.30461 838.57907ZM280.71275 837.08828C283.31806 836.8071 285.9321 836.4853 288.55445 836.1213L289.65437 844.0453C286.95106 844.42056 284.2564 844.7523 281.57087 845.04208L280.71275 837.08828ZM288.55445 836.1213C291.33723 835.735 294.04768 835.313 296.68843 834.8566L298.05076 842.73977C295.32035 843.2116 292.52235 843.64718 289.65437 844.0453L288.55445 836.1213ZM312.43257 831.538C317.8711 830.16708 322.96794 828.62869 327.7549 826.9396L330.41688 834.4837C325.38667 836.2586 320.0535 837.8671 314.3881 839.29537L312.43257 831.538ZM342.5802 820.78726C347.55949 818.37789 352.14787 815.7741 356.39988 813.00277L360.76817 819.70486C356.22917 822.66329 351.34535 825.4333 346.0648 827.98849L342.5802 820.78726ZM369.10624 803.43746C373.20375 799.89248 376.95216 796.15536 380.42829 792.2598L386.39729 797.5863C382.71003 801.7183 378.71788 805.7004 374.34046 809.4875L369.10624 803.43746ZM390.3928 779.74746C393.5221 775.37588 396.44169 770.86819 399.24079 766.2589L406.07868 770.41146C403.20088 775.15029 400.17024 779.83267 396.89796 784.404L390.3928 779.74746ZM407.37153 752.1525C410.028 747.3601 412.59754 742.6051 415.2713 737.7461L422.2802 741.6029C419.65989 746.3648 417.01814 751.251 414.36845 756.03109L407.37153 752.1525ZM423.45436 723.3372C426.27214 718.591 429.23173 713.876 432.4181 709.2446L439.00889 713.7792C435.9473 718.2291 433.08433 722.7876 430.33338 727.42129L423.45436 723.3372ZM442.57817 695.8483C446.1359 691.6195 449.98014 687.5113 454.18739 683.5661L459.65956 689.40188C455.70118 693.1136 452.07237 696.99 448.69984 700.9986L442.57817 695.8483ZM467.26167 672.7753C471.6589 669.5928 476.38999 666.5754 481.50633 663.7497L485.374 670.7526C480.54197 673.4213 476.08567 676.26437 471.95216 679.25607L467.26167 672.7753ZM496.75666 656.4118C501.69676 654.3532 506.93876 652.4493 512.5127 650.7146L514.88998 658.35317C509.54335 660.01718 504.5354 661.8371 499.8339 663.79629L496.75666 656.4118ZM528.6464 646.39419C531.34896 645.7786 534.11959 645.1977 536.96078 644.6525L538.4682 652.5093C535.7147 653.03756 533.03396 653.59976 530.42306 654.1944L528.6464 646.39419ZM536.96078 644.6525C539.7318 644.12088 542.4913 643.633 545.2386 643.1875L546.51907 651.08438C543.8473 651.5176 541.1635 651.99209 538.4682 652.5093L536.96078 644.6525ZM561.80697 640.9888C567.4187 640.4083 572.97378 639.99978 578.4681 639.75076L578.83029 647.74258C573.48776 647.9847 568.0864 648.38198 562.63 648.94638L561.80697 640.9888ZM595.17459 639.4747C600.82327 639.54336 606.3997 639.7748 611.8994 640.15457L611.34829 648.13558C605.9966 647.766 600.5715 647.54086 595.0774 647.47409L595.17459 639.4747ZM628.5413 641.77157C634.13436 642.4718 639.6377 643.3187 645.0461 644.29556L643.6242 652.1682C638.354 651.2163 632.9934 650.3914 627.5474 649.70956L628.5413 641.77157ZM661.392 647.6957C666.895 648.99118 672.2861 650.41268 677.559 651.94058L675.3325 659.62448C670.18557 658.13308 664.92568 656.7462 659.55886 655.48287L661.392 647.6957ZM693.45169 656.9727C698.81539 658.8157 704.03756 660.7571 709.1107 662.7731L706.15646 670.2076C701.19607 668.23648 696.0921 666.33908 690.85208 664.5386L693.45169 656.9727ZM724.45297 669.2809C729.66287 671.63156 734.6852 674.0423 739.51016 676.48196L735.90029 683.6212C731.17636 681.2326 726.26058 678.87307 721.1628 676.573L724.45297 669.2809ZM754.18978 684.30776C759.255 687.14968 764.0452 689.98648 768.5455 692.77059L764.33657 699.57388C759.9285 696.8468 755.2365 694.0681 750.2753 691.28469L754.18978 684.30776ZM782.5198 701.83718C787.61276 705.3007 792.16616 708.57888 796.14498 711.5603L791.34768 717.96237C787.46066 715.0496 783.0067 711.843 778.02096 708.45236L782.5198 701.83718ZM809.2527 721.9254C811.30307 723.6453 812.87106 725.01699 813.9326 725.9645 814.4635 726.4383 814.8678 726.80618 815.1426 727.05856 815.28 727.18478 815.385 727.2821 815.45736 727.3494 815.49349 727.38308 815.5214 727.4092 815.54116 727.4277 815.551 727.43698 815.5588 727.4443 815.5645 727.44967 815.5674 727.4524 815.56979 727.4546 815.5716 727.4563 815.5725 727.45718 815.5733 727.45797 815.574 727.45858 815.5743 727.45889 815.5746 727.45919 815.5749 727.4594 815.575 727.45956 815.5752 727.4597 815.57528 727.4597 815.5754 727.4599 815.57559 727.4601 812.83 730.369 810.0845 733.27798 810.0846 733.2781 810.0848 733.2782 810.0848 733.27828 810.0849 733.2784 810.08499 733.27847 810.08517 733.27859 810.0852 733.2787 810.08529 733.27877 810.08547 733.2789 810.08547 733.2789 810.0853 733.27877 810.08517 733.27859 810.08438 733.27786 810.0831 733.2767 810.0806 733.27438 810.07608 733.27 810.06948 733.26388 810.0563 733.25149 810.0349 733.2315 810.0054 733.204 809.94638 733.149 809.85476 733.0641 809.731 732.95046 809.48348 732.72317 809.10739 732.3808 808.6055 731.9329 807.60189 731.0371 806.0958 729.71926 804.1113 728.0545L809.2527 721.9254Z" fill="#ff9c77"/>
</g>
</g>
</g>
</g>
</svg>
