<svg xmlns="http://www.w3.org/2000/svg" xmlns:xlink="http://www.w3.org/1999/xlink" version="1.1" width="221.09766pt" height="189pt" viewBox="0 0 221.09766 189">
<defs>
<mask id="mask_0">
<g>
<clipPath id="clip_1">
<path transform="matrix(1,0,0,-1,0,189)" d="M0 0H221.09766V189H0Z"/>
</clipPath>
<g clip-path="url(#clip_1)">
<path transform="matrix(.207477,.97824,.986672,-.162725,31.150467,27.808808)" d="M66.66953 192.51905H0V54.852998H59.297426L98.95733-31.571473 159.52527-3.15715 72.749057 185.94034 66.66953 183.08824V192.51905Z" fill="#d9d9d9" fill-rule="evenodd"/>
</g>
</g>
"/>
</mask>
<clipPath id="clip_2">
<path transform="matrix(1,0,0,-1,0,189)" d="M0 0H221.09766V189H0Z"/>
</clipPath>
</defs>
<g>
<g mask="url(#mask_0)">
<g>
<g clip-path="url(#clip_2)">
<path transform="matrix(-.702414,.681485,-.730483,-.713392,1313.6333,583.68569)" d="M567.10879 1154.0496 566.9859 1150.0514 567.10879 1154.0496ZM8.437683 1104.1376C10.600059 1104.5897 11.986478 1106.7092 11.534339 1108.8716 11.0822 1111.0339 8.962717 1112.4204 6.800343 1111.9683L8.437683 1104.1376ZM22.375906 1115.1106C20.207787 1114.6869 18.793684 1112.5857 19.217419 1110.4176 19.641154 1108.2495 21.742268 1106.8353 23.910387 1107.2592L22.375906 1115.1106ZM39.41763 1110.2091C41.589769 1110.6117 43.024244 1112.699 42.62162 1114.8711 42.218999 1117.0432 40.13174 1118.4778 37.9596 1118.0751L39.41763 1110.2091ZM53.666463 1120.9168C51.491 1120.5325 50.03896 1118.4574 50.423234 1116.2819 50.80751 1114.1065 52.882585 1112.6544 55.058046 1113.0387L53.666463 1120.9168ZM70.64525 1115.7299C72.823589 1116.0975 74.29144 1118.1614 73.923809 1120.3397 73.55616 1122.5181 71.49224 1123.986 69.31391 1123.6183L70.64525 1115.7299ZM84.93263 1126.1965C82.75173 1125.8444 81.26919 1123.791 81.62128 1121.6101 81.973369 1119.4292 84.026767 1117.9467 86.207668 1118.2987L84.93263 1126.1965ZM101.822879 1120.7648C104.00612 1121.102 105.50262 1123.1453 105.16539 1125.3285 104.82816 1127.5117 102.78492 1129.0082 100.60167 1128.671L101.822879 1120.7648ZM116.30171 1131.043C114.116298 1130.7201 112.6064 1128.6868 112.929279 1126.5014 113.252147 1124.3159 115.285518 1122.806 117.47093 1123.1289L116.30171 1131.043ZM133.1496 1125.3938C135.33704 1125.7028 136.85991 1127.7265 136.55101 1129.9138 136.24213 1132.1013 134.21845 1133.6242 132.031 1133.3152L133.1496 1125.3938ZM147.79474 1135.4907C145.60541 1135.1956 144.0699 1133.1815 144.36508 1130.9922 144.66027 1128.8029 146.67436 1127.2673 148.8637 1127.5625L147.79474 1135.4907ZM164.53049 1129.6259C166.72159 1129.9076 168.26943 1131.9122 167.98767 1134.1033 167.70592 1136.2944 165.70127 1137.8423 163.51018 1137.5606L164.53049 1129.6259ZM179.20287 1139.5302C177.0101 1139.2617 175.4502 1137.2664 175.71872 1135.0736 175.98723 1132.8809 177.98249 1131.3209 180.17525 1131.5895L179.20287 1139.5302ZM195.86867 1133.4634C198.063 1133.7188 199.63484 1135.7047 199.37947 1137.899 199.12412 1140.0934 197.13825 1141.6652 194.94391 1141.4098L195.86867 1133.4634ZM210.74193 1143.2005C208.54611 1142.9583 206.96245 1140.9818 207.20471 1138.7859 207.44696 1136.5901 209.42342 1135.0065 211.61923 1135.2488L210.74193 1143.2005ZM227.40842 1136.9431C229.60564 1137.1724 231.20105 1139.1393 230.97187 1141.3366 230.74268 1143.5337 228.77568 1145.1292 226.57846 1144.9L227.40842 1136.9431ZM242.29126 1146.4922C240.09273 1146.276 238.48578 1144.3184 238.70203 1142.1199 238.91828 1139.9213 240.87584 1138.3143 243.07437 1138.5307L242.29126 1146.4922ZM258.81883 1140.0324C261.0186 1140.2356 262.6371 1142.1837 262.4338 1144.3834 262.23054 1146.5833 260.2825 1148.2017 258.08274 1147.9984L258.81883 1140.0324ZM273.9529 1149.4175C271.75196 1149.2272 270.12196 1147.2888 270.31217 1145.0879 270.50239 1142.887 272.4408 1141.257 274.64173 1141.4472L273.9529 1149.4175ZM290.35539 1142.7586C292.5574 1142.9358 294.19883 1144.8645 294.0216 1147.0665 293.84437 1149.2686 291.91563 1150.9099 289.7136 1150.7327L290.35539 1142.7586ZM305.52336 1151.958C303.3203 1151.7938 301.66749 1149.8749 301.83164 1147.6718 301.9958 1145.4688 303.9148 1143.8159 306.11784 1143.9801L305.52336 1151.958ZM321.96763 1145.1135C324.1716 1145.2645 325.83589 1147.1736 325.6849 1149.3776 325.53395 1151.5814 323.62489 1153.2457 321.4209 1153.0949L321.96763 1145.1135ZM337.18858 1154.1277C334.98374 1153.9899 333.3081 1152.0907 333.44593 1149.8859 333.58375 1147.681 335.48283 1146.0055 337.68769 1146.1433L337.18858 1154.1277ZM353.48957 1147.0833C355.6952 1147.2078 357.38227 1149.0967 357.25773 1151.3024 357.1332 1153.5079 355.24424 1155.1951 353.0386 1155.0706L353.48957 1147.0833ZM368.91368 1155.9185C366.7073 1155.8074 365.0088 1153.9287 365.11994 1151.7223 365.23106 1149.516 367.1097 1147.8175 369.31608 1147.9286L368.91368 1155.9185ZM385.07456 1148.6742C387.28157 1148.7719 388.9915 1150.6401 388.8938 1152.8472 388.79615 1155.0541 386.92787 1156.764 384.72087 1156.6664L385.07456 1148.6742ZM400.62336 1157.3209C398.41584 1157.2369 396.69438 1155.3793 396.7784 1153.1718 396.86247 1150.9642 398.72013 1149.2428 400.92768 1149.3268L400.62336 1157.3209ZM416.69966 1149.8783C418.90766 1149.9486 420.6406 1151.7955 420.57026 1154.0036 420.4999 1156.2117 418.65293 1157.9446 416.44493 1157.8742L416.69966 1149.8783ZM432.31517 1158.33C430.10676 1158.2736 428.36225 1156.4375 428.41874 1154.229 428.47523 1152.0206 430.31129 1150.2761 432.51969 1150.3327L432.31517 1158.33ZM448.34788 1150.6873C450.5566 1150.7297 452.3127 1152.5547 452.27024 1154.7634 452.22776 1156.9722 450.4028 1158.7283 448.19407 1158.6858L448.34788 1150.6873ZM464.03663 1158.94C461.82768 1158.9115 460.05995 1157.0979 460.0883 1154.8889 460.11665 1152.6799 461.93034 1150.9122 464.13929 1150.9406L464.03663 1158.94ZM480.00645 1151.0928C482.21556 1151.1068 483.99504 1152.9089 483.98103 1155.118 483.967 1157.3272 482.16484 1159.1066 479.95576 1159.0925L480.00645 1151.0928ZM495.77503 1159.1414C493.5659 1159.1417 491.77467 1157.3512 491.77427 1155.1421 491.77384 1152.933 493.56437 1151.1417 495.7735 1151.1414L495.77503 1159.1414ZM511.62693 1151.0857C513.836 1151.0707 515.6391 1152.8493 515.6542 1155.0584 515.66928 1157.2675 513.8907 1159.0704 511.6816 1159.0856L511.62693 1151.0857ZM527.51998 1158.9244C525.311 1158.9542 523.4961 1157.1879 523.4662 1154.9789 523.4363 1152.7699 525.20278 1150.955 527.4117 1150.9252L527.51998 1158.9244ZM543.24258 1150.6571C545.45126 1150.6122 547.27816 1152.3663 547.32308 1154.575 547.368 1156.7837 545.61398 1158.6106 543.4053 1158.6555L543.24258 1150.6571ZM559.26248 1158.2785C557.05416 1158.3386 555.21517 1156.5972 555.155 1154.3888 555.0949 1152.1806 556.83639 1150.3416 559.04476 1150.2815L559.26248 1158.2785ZM574.9982 1149.7909C577.20608 1149.7151 579.0573 1151.4435 579.1331 1153.6513 579.2089 1155.8591 577.4806 1157.7103 575.27279 1157.7861L574.9982 1149.7909ZM590.77029 1157.1963C588.56307 1157.2888 586.6987 1155.5746 586.6062 1153.3674 586.5136 1151.1602 588.2279 1149.2959 590.43508 1149.2034L590.77029 1157.1963ZM606.0487 1148.4824C608.25509 1148.3707 610.1341 1150.0689 610.2457 1152.2752 610.35739 1154.4815 608.65927 1156.3606 606.45297 1156.4722L606.0487 1148.4824ZM621.7638 1155.6259C619.55868 1155.7586 617.66348 1154.0785 617.53079 1151.8733 617.3981 1149.6681 619.0781 1147.773 621.28329 1147.6403L621.7638 1155.6259ZM636.9635 1146.6104C639.167 1146.4529 641.081 1148.1115 641.2384 1150.3151 641.3959 1152.5186 639.73727 1154.4325 637.5337 1154.59L636.9635 1146.6104ZM653.1011 1153.3798C650.8998 1153.5654 648.9648 1151.9314 648.7791 1149.7301 648.5935 1147.5288 650.22756 1145.5938 652.42886 1145.4081L653.1011 1153.3798ZM667.7268 1144.0076C669.9252 1143.7896 671.88406 1145.395 672.102 1147.5934 672.32 1149.7916 670.7146 1151.7505 668.51626 1151.9685L667.7268 1144.0076ZM683.9999 1150.3013C681.80569 1150.5573 679.8193 1148.9861 679.5633 1146.7918 679.30728 1144.5975 680.8785 1142.6112 683.07278 1142.3552L683.9999 1150.3013ZM698.49307 1140.3992C700.6816 1140.098 702.6999 1141.6279 703.0011 1143.8164 703.3023 1146.0049 701.7724 1148.0233 699.58389 1148.3245L698.49307 1140.3992ZM715.0714 1146.0053C712.89089 1146.3599 710.83578 1144.8796 710.48117 1142.6992 710.1265 1140.5187 711.6066 1138.4636 713.7872 1138.109L715.0714 1146.0053ZM728.9573 1135.4214C731.1265 1135.0036 733.2238 1136.4234 733.64169 1138.5925 734.0596 1140.7619 732.63986 1142.8591 730.4706 1143.277L728.9573 1135.4214ZM745.7494 1140.068C743.59579 1140.56 741.4509 1139.2131 740.95889 1137.0595 740.46676 1134.9059 741.81369 1132.7611 743.9673 1132.2689L745.7494 1140.068ZM758.95889 1128.5328C761.09109 1127.955 763.288 1129.2151 763.8659 1131.3473 764.4438 1133.4795 763.1837 1135.6764 761.0515 1136.2543L758.95889 1128.5328ZM776.13497 1131.8158C774.0297 1132.4854 771.78036 1131.3215 771.1107 1129.2163 770.44119 1127.1111 771.605 1124.8617 773.7102 1124.1921L776.13497 1131.8158ZM788.2366 1119.2335C790.3126 1118.4784 792.6078 1119.5493 793.3629 1121.6254 794.11807 1123.7014 793.0472 1125.9966 790.9711 1126.7517L788.2366 1119.2335ZM805.58676 1121.1713C803.53329 1121.9859 801.20828 1120.9816 800.3937 1118.9281 799.5791 1116.8746 800.58346 1114.5496 802.6369 1113.735L805.58676 1121.1713ZM817.024 1107.9376C819.0721 1107.1096 821.4036 1108.0986 822.2317 1110.1466 823.0598 1112.1947 822.0708 1114.5263 820.0227 1115.3544L817.024 1107.9376ZM834.3895 1109.6644C832.3269 1110.4556 830.0134 1109.4248 829.2223 1107.3622 828.43118 1105.2996 829.4619 1102.9861 831.52456 1102.195L834.3895 1109.6644ZM846.29226 1096.8108C848.3815 1096.0928 850.65719 1097.2042 851.3752 1099.2935 852.09329 1101.3827 850.98178 1103.6583 848.8925 1104.3765L846.29226 1096.8108ZM863.4651 1099.7005C861.34799 1100.3313 859.12026 1099.1266 858.48928 1097.0094 857.85836 1094.8923 859.0631 1092.6646 861.18026 1092.0336L863.4651 1099.7005ZM876.33676 1087.8541C878.4777 1087.3097 880.6547 1088.6039 881.1993 1090.7449 881.7438 1092.8858 880.4496 1095.0629 878.3086 1095.6073L876.33676 1087.8541ZM893.37899 1092.0712C891.2196 1092.5377 889.091 1091.1654 888.6245 1089.0061 888.15798 1086.8467 889.5303 1084.7182 891.68966 1084.2516L893.37899 1092.0712ZM907.0549 1081.1864C909.22756 1080.7868 911.3128 1082.2241 911.7124 1084.3969 912.112 1086.5696 910.6746 1088.6548 908.50198 1089.0545L907.0549 1081.1864ZM923.73898 1086.463C921.5566 1086.8058 919.5095 1085.3145 919.16677 1083.1321 918.824 1080.9497 920.31527 1078.9026 922.4976 1078.5598L923.73898 1086.463ZM937.95407 1076.3106C940.14346 1076.0158 942.1573 1077.5516 942.4521 1079.741 942.7469 1081.9304 941.211 1083.9442 939.0216 1084.239L937.95407 1076.3106ZM954.2678 1082.3333C952.07339 1082.5875 950.0883 1081.0148 949.83407 1078.8203 949.5798 1076.6259 951.1526 1074.6408 953.34707 1074.3865L954.2678 1082.3333ZM968.79507 1072.7235C970.9932 1072.5039 972.9532 1074.108 973.1727 1076.3062 973.3922 1078.5044 971.78817 1080.4644 969.58999 1080.6838L968.79507 1072.7235ZM985.0713 1079.2478C982.87026 1079.4371 980.9325 1077.8064 980.7432 1075.6054 980.5539 1073.4043 982.1847 1071.4666 984.38577 1071.2772L985.0713 1079.2478ZM1000.0633 1070.0254C1002.2664 1069.8626 1004.1845 1071.5164 1004.3475 1073.7195 1004.51046 1075.9226 1002.85659 1077.8407 1000.65347 1078.0037L1000.0633 1070.0254ZM1015.91879 1076.9547C1013.71408 1077.0951 1011.813 1075.4216 1011.6726 1073.217 1011.5322 1071.0123 1013.2056 1069.1113 1015.41036 1068.971L1015.91879 1076.9547ZM1031.1013 1068.0459C1033.3071 1067.9258 1035.1926 1069.6167 1035.3128 1071.8226 1035.4328 1074.0285 1033.7418 1075.914 1031.536 1076.034L1031.1013 1068.0459ZM1046.9467 1075.259C1044.74 1075.3612 1042.8682 1073.6552 1042.7659 1071.4484 1042.6637 1069.2416 1044.3698 1067.3698 1046.5765 1067.2676L1046.9467 1075.259ZM1062.6367 1066.5835C1064.8441 1066.497 1066.7037 1068.2164 1066.7902 1070.4238 1066.8766 1072.6314 1065.1572 1074.4909 1062.9498 1074.5774L1062.6367 1066.5835ZM1078.8384 1074.0068C1076.6304 1074.0789 1074.782 1072.3474 1074.71 1070.1395 1074.6378 1067.9315 1076.3693 1066.0831 1078.5773 1066.0111L1078.8384 1074.0068ZM1094.5621 1065.5408C1096.7705 1065.4829 1098.6077 1067.2263 1098.6654 1069.4347 1098.7233 1071.6431 1096.98 1073.4802 1094.7715 1073.5381L1094.5621 1065.5408ZM1110.6304 1073.1734C1108.4216 1073.2172 1106.5957 1071.462 1106.552 1069.2534 1106.5082 1067.0447 1108.2633 1065.2188 1110.472 1065.1749L1110.6304 1073.1734ZM1126.4906 1064.9089C1128.6996 1064.8793 1130.5143 1066.646 1130.544 1068.8549 1130.5736 1071.0639 1128.8069 1072.8786 1126.598 1072.9082L1126.4906 1064.9089ZM1142.4763 1072.7453C1140.2672 1072.761 1138.4636 1070.9829 1138.448 1068.7738 1138.4323 1066.5647 1140.2103 1064.7611 1142.4193 1064.7455L1142.4763 1072.7453ZM1158.4104 1064.6819C1160.6195 1064.68 1162.4119 1066.4695 1162.4137 1068.6786 1162.4157 1070.8877 1160.6262 1072.68 1158.4171 1072.6819L1158.4104 1064.6819ZM1174.3357 1072.7184C1172.1266 1072.7064 1170.3455 1070.9059 1170.3573 1068.6968 1170.3693 1066.4877 1172.1698 1064.7066 1174.3789 1064.7185L1174.3357 1072.7184ZM1190.3067 1064.854C1192.5156 1064.8796 1194.2857 1066.6912 1194.26 1068.9002 1194.2344 1071.1091 1192.4229 1072.879 1190.2139 1072.8534L1190.3067 1064.854ZM1206.1765 1073.088C1203.9678 1073.0487 1202.209 1071.2263 1202.2483 1069.0176 1202.2876 1066.8087 1204.1101 1065.05 1206.3189 1065.0894L1206.1765 1073.088ZM1222.2413 1065.4215C1224.4498 1065.4744 1226.1974 1067.3075 1226.1445 1069.516 1226.0917 1071.7245 1224.2584 1073.472 1222.0499 1073.4192L1222.2413 1065.4215ZM1237.9789 1073.8493C1235.7706 1073.7828 1234.0344 1071.939 1234.1008 1069.7308 1234.1672 1067.5227 1236.0111 1065.7865 1238.2192 1065.8529L1237.9789 1073.8493ZM1254.1959 1066.3822C1256.4037 1066.462 1258.1286 1068.3165 1258.0487 1070.5242 1257.9688 1072.7319 1256.1143 1074.4568 1253.9066 1074.377L1254.1959 1066.3822ZM1269.7474 1074.9983C1267.5403 1074.905 1265.8267 1073.0402 1265.9199 1070.833 1266.0132 1068.6259 1267.8782 1066.9121 1270.0853 1067.0055L1269.7474 1074.9983ZM1286.0863 1067.7307C1288.2929 1067.8375 1289.9951 1069.7129 1289.8883 1071.9194 1289.7815 1074.126 1287.9063 1075.8281 1285.6997 1075.7214L1286.0863 1067.7307ZM1301.6072 1076.5397C1299.4014 1076.4194 1297.7106 1074.5338 1297.8307 1072.328 1297.9509 1070.1221 1299.8366 1068.4313 1302.0425 1068.5515L1301.6072 1076.5397ZM1317.9203 1069.4651C1320.1254 1069.5986 1321.8046 1071.4945 1321.671 1073.6996 1321.5375 1075.9047 1319.6416 1077.584 1317.4365 1077.4505L1317.9203 1069.4651ZM1333.36 1078.4639C1331.1558 1078.3168 1329.488 1076.4107 1329.6351 1074.2064 1329.7822 1072.0022 1331.6884 1070.3345 1333.8926 1070.4816L1333.36 1078.4639ZM1349.848 1071.5952C1352.0514 1071.7557 1353.7073 1073.672 1353.5468 1075.8754 1353.3862 1078.0786 1351.4699 1079.7346 1349.2666 1079.574L1349.848 1071.5952ZM1365.11 1080.7775C1362.9077 1080.6034 1361.2636 1078.677 1361.4376 1076.4747 1361.6117 1074.2725 1363.5381 1072.6283 1365.7404 1072.8024L1365.11 1080.7775ZM1381.5889 1074.1043C1383.7899 1074.2919 1385.4223 1076.2284 1385.2346 1078.4295 1385.047 1080.6306 1383.1105 1082.263 1380.9093 1082.0753L1381.5889 1074.1043ZM1396.8281 1083.4824C1394.6282 1083.281 1393.008 1081.3344 1393.2095 1079.1344 1393.4109 1076.9345 1395.3576 1075.3143 1397.5575 1075.5158L1396.8281 1083.4824ZM1413.4808 1077.0243C1415.6795 1077.2396 1417.2872 1079.1965 1417.0719 1081.3952 1416.8566 1083.5938 1414.8997 1085.2015 1412.701 1084.9862L1413.4808 1077.0243ZM1428.536 1086.5879C1426.3388 1086.3587 1424.7435 1084.3915 1424.9729 1082.1942 1425.2023 1079.9971 1427.1693 1078.4019 1429.3666 1078.6311L1428.536 1086.5879ZM1445.2247 1080.3384C1447.4204 1080.5819 1449.0028 1082.5593 1448.7593 1084.755 1448.5156 1086.9507 1446.5382 1088.5332 1444.3425 1088.2896L1445.2247 1080.3384ZM1460.1321 1090.094C1457.9381 1089.8359 1456.3688 1087.848 1456.627 1085.654 1456.885 1083.4601 1458.8729 1081.8908 1461.0669 1082.1488L1460.1321 1090.094ZM1476.905 1084.0665C1479.0973 1084.3395 1480.6531 1086.338 1480.3801 1088.5302 1480.107 1090.7224 1478.1087 1092.2782 1475.9164 1092.0051L1476.905 1084.0665ZM1491.705 1094.0275C1489.5148 1093.739 1487.973 1091.7297 1488.2615 1089.5396 1488.5498 1087.3493 1490.5592 1085.8075 1492.7494 1086.096L1491.705 1094.0275ZM1508.6023 1088.2421C1510.7903 1088.5464 1512.3174 1090.567 1512.013 1092.7551 1511.7085 1094.9431 1509.6879 1096.4701 1507.4999 1096.1657L1508.6023 1088.2421ZM1523.2835 1098.4232C1521.0978 1098.1019 1519.5864 1096.0696 1519.9077 1093.8839 1520.2291 1091.6983 1522.2614 1090.1869 1524.447 1090.5083L1523.2835 1098.4232ZM1540.2225 1092.893C1542.4055 1093.2323 1543.9 1095.277 1543.5608 1097.4598 1543.2214 1099.6428 1541.1768 1101.1373 1538.9938 1100.798L1540.2225 1092.893ZM1554.679 1103.3079C1552.4993 1102.9486 1551.0233 1100.8905 1551.3826 1098.7107 1551.7417 1096.531 1553.7998 1095.055 1555.9796 1095.4143L1554.679 1103.3079ZM1571.6452 1098.0776C1573.821 1098.4597 1575.2752 1100.5333 1574.8931 1102.7092 1574.5109 1104.885 1572.4373 1106.3391 1570.2615 1105.957L1571.6452 1098.0776ZM1586.0335 1108.8358C1583.8634 1108.4221 1582.4396 1106.3276 1582.8532 1104.1576 1583.2667 1101.9876 1585.3612 1100.5636 1587.5314 1100.9773L1586.0335 1108.8358ZM0 1106.4163C.881097 1102.5145 .881049 1102.5145 .88101 1102.5144 .881011 1102.5144 .880982 1102.5144 .880983 1102.5144 .880985 1102.5144 .881027 1102.5145 .881108 1102.5145 .88127 1102.5145 .881592 1102.5147 .882072 1102.5147 .883033 1102.5149 .884629 1102.5153 .88686 1102.5158 .891322 1102.5169 .898323 1102.5183 .907857 1102.5205 .926924 1102.5248 .956122 1102.5314 .995401 1102.5402 1.073959 1102.5578 1.192843 1102.5842 1.351658 1102.6195 1.669289 1102.69 2.146642 1102.7952 2.780566 1102.9331 4.048416 1103.209 5.94253 1103.6159 8.437683 1104.1376L6.800343 1111.9683C4.283438 1111.442 2.368046 1111.0305 1.079404 1110.7501 .435081 1110.6099-.052557 1110.5025-.380358 1110.4297-.544258 1110.3934-.6682 1110.3657-.751787 1110.347-.793581 1110.3377-.825287 1110.3306-.846855 1110.3257-.857639 1110.3233-.865889 1110.3214-.871598 1110.3201-.874452 1110.3195-.876672 1110.319-.878255 1110.3186-.879047 1110.3185-.87968 1110.3184-.880153 1110.3182-.88039 1110.3181-.880587 1110.3181-.880745 1110.3181-.880823 1110.318-.880911 1110.318-.880951 1110.318-.881029 1110.318-.881097 1110.318 0 1106.4163ZM23.910387 1107.2592C28.451859 1108.1467 33.63109 1109.1365 39.41763 1110.2091L37.9596 1118.0751C32.14694 1116.9977 26.942219 1116.003 22.375906 1115.1106L23.910387 1107.2592ZM55.058046 1113.0387C59.953584 1113.9035 65.153148 1114.803 70.64525 1115.7299L69.31391 1123.6183C63.80135 1122.6879 58.5817 1121.7849 53.666463 1120.9168L55.058046 1113.0387ZM86.207668 1118.2987C91.21882 1119.1078 96.42611 1119.9312 101.822879 1120.7648L100.60167 1128.671C95.186679 1127.8346 89.96144 1127.0083 84.93263 1126.1965L86.207668 1118.2987ZM117.47093 1123.1289C122.55522 1123.88 127.78299 1124.636 133.1496 1125.3938L132.031 1133.3152C126.64727 1132.5549 121.40263 1131.7966 116.30171 1131.043L117.47093 1123.1289ZM148.8637 1127.5625C153.97614 1128.2518 159.19956 1128.9403 164.53049 1129.6259L163.51018 1137.5606C158.1628 1136.8729 152.92317 1136.1823 147.79474 1135.4907L148.8637 1127.5625ZM180.17525 1131.5895C185.31737 1132.2191 190.54944 1132.8444 195.86867 1133.4634L194.94391 1141.4098C189.6086 1140.789 184.36066 1140.1618 179.20287 1139.5302L180.17525 1131.5895ZM211.61923 1135.2488C216.80754 1135.8212 222.07138 1136.3865 227.40842 1136.9431L226.57846 1144.9C221.22545 1144.3416 215.94582 1143.7747 210.74193 1143.2005L211.61923 1135.2488ZM243.07437 1138.5307C248.25962 1139.0407 253.50843 1139.5416 258.81883 1140.0324L258.08274 1147.9984C252.75647 1147.5062 247.49198 1147.0038 242.29126 1146.4922L243.07437 1138.5307ZM274.64173 1141.4472C279.82585 1141.8952 285.0643 1142.3327 290.35539 1142.7586L289.7136 1150.7327C284.40666 1150.3057 279.1525 1149.8668 273.9529 1149.4175L274.64173 1141.4472ZM306.11784 1143.9801C311.35365 1144.3703 316.63743 1144.7484 321.96763 1145.1135L321.4209 1153.0949C316.07463 1152.7286 310.7749 1152.3494 305.52336 1151.958L306.11784 1143.9801ZM337.68769 1146.1433C342.91374 1146.47 348.18153 1146.7836 353.48957 1147.0833L353.0386 1155.0706C347.71437 1154.7699 342.4305 1154.4553 337.18858 1154.1277L337.68769 1146.1433ZM369.31608 1147.9286C374.53288 1148.1913 379.78614 1148.4402 385.07456 1148.6742L384.72087 1156.6664C379.41603 1156.4317 374.1465 1156.182 368.91368 1155.9185L369.31608 1147.9286ZM400.92768 1149.3268C406.15318 1149.5256 411.4109 1149.7097 416.69966 1149.8783L416.44493 1157.8742C411.13948 1157.7052 405.8652 1157.5205 400.62336 1157.3209L400.92768 1149.3268ZM432.51969 1150.3327C437.76744 1150.4668 443.04386 1150.5853 448.34788 1150.6873L448.19407 1158.6858C442.87297 1158.5835 437.57963 1158.4646 432.31517 1158.33L432.51969 1150.3327ZM464.13929 1150.9406C469.40318 1151.008 474.69258 1151.0591 480.00645 1151.0928L479.95576 1159.0925C474.62437 1159.0588 469.31764 1159.0077 464.03663 1158.94L464.13929 1150.9406ZM495.7735 1151.1414C501.03578 1151.1403 506.3206 1151.122 511.62693 1151.0857L511.6816 1159.0856C506.35737 1159.122 501.0548 1159.1403 495.77503 1159.1414L495.7735 1151.1414ZM527.4117 1150.9252C532.6691 1150.854 537.9464 1150.7649 543.24258 1150.6571L543.4053 1158.6555C538.09078 1158.7636 532.79537 1158.853 527.51998 1158.9244L527.4117 1150.9252ZM559.04476 1150.2815C561.68746 1150.2095 564.33456 1150.1328 566.9859 1150.0514L567.23159 1158.0476C564.5708 1158.1294 561.9144 1158.2063 559.26248 1158.2785L559.04476 1150.2815ZM566.9859 1150.0514C569.6899 1149.9683 572.3605 1149.8815 574.9982 1149.7909L575.27279 1157.7861C572.62527 1157.8771 569.94509 1157.9642 567.23159 1158.0476L566.9859 1150.0514ZM590.43508 1149.2034C595.7818 1148.9791 600.9845 1148.7387 606.0487 1148.4824L606.45297 1156.4722C601.3649 1156.7296 596.1392 1156.9712 590.77029 1157.1963L590.43508 1149.2034ZM621.28329 1147.6403C626.67617 1147.3158 631.9002 1146.9722 636.9635 1146.6104L637.5337 1154.59C632.43948 1154.954 627.1854 1155.2996 621.7638 1155.6259L621.28329 1147.6403ZM652.42886 1145.4081C657.7148 1144.9624 662.81039 1144.4951 667.7268 1144.0076L668.51626 1151.9685C663.5592 1152.4601 658.42446 1152.9309 653.1011 1153.3798L652.42886 1145.4081ZM683.07278 1142.3552C688.4405 1141.7289 693.57449 1141.0762 698.49307 1140.3992L699.58389 1148.3245C694.60848 1149.0093 689.41989 1149.6688 683.9999 1150.3013L683.07278 1142.3552ZM713.7872 1138.109C719.11068 1137.2432 724.15707 1136.3461 728.9573 1135.4214L730.4706 1143.277C725.59127 1144.2169 720.4684 1145.1275 715.0714 1146.0053L713.7872 1138.109ZM743.9673 1132.2689C749.2665 1131.0581 754.2444 1129.8106 758.95889 1128.5328L761.0515 1136.2543C756.23318 1137.5602 751.1517 1138.8335 745.7494 1140.068L743.9673 1132.2689ZM773.7102 1124.1921C778.804 1122.572 783.6117 1120.9158 788.2366 1119.2335L790.9711 1126.7517C786.25668 1128.4664 781.34518 1130.1587 776.13497 1131.8158L773.7102 1124.1921ZM802.6369 1113.735C807.476 1111.8154 812.2099 1109.884 817.024 1107.9376L820.0227 1115.3544C815.2392 1117.2885 810.45846 1119.2388 805.58676 1121.1713L802.6369 1113.735ZM831.52456 1102.195C836.2434 1100.385 841.12887 1098.5855 846.29226 1096.8108L848.8925 1104.3765C843.835 1106.1146 839.0394 1107.8809 834.3895 1109.6644L831.52456 1102.195ZM861.18026 1092.0336C865.95339 1090.6111 870.98397 1089.2156 876.33676 1087.8541L878.3086 1095.6073C873.06179 1096.9418 868.13558 1098.3085 863.4651 1099.7005L861.18026 1092.0336ZM891.68966 1084.2516C896.5504 1083.2014 901.66067 1082.1785 907.0549 1081.1864L908.50198 1089.0545C903.186 1090.0321 898.15658 1091.0391 893.37899 1092.0712L891.68966 1084.2516ZM922.4976 1078.5598C927.4261 1077.7858 932.57168 1077.0353 937.95407 1076.3106L939.0216 1084.239C933.6948 1084.9563 928.60726 1085.6984 923.73898 1086.463L922.4976 1078.5598ZM953.34707 1074.3865C958.3078 1073.8117 963.4531 1073.2568 968.79507 1072.7235L969.58999 1080.6838C964.28829 1081.2133 959.185 1081.7636 954.2678 1082.3333L953.34707 1074.3865ZM984.38577 1071.2772C989.4459 1070.842 994.669 1070.4244 1000.0633 1070.0254L1000.65347 1078.0037C995.28976 1078.4004 990.0985 1078.8154 985.0713 1079.2478L984.38577 1071.2772ZM1015.41036 1068.971C1020.4969 1068.647 1025.7252 1068.3384 1031.1013 1068.0459L1031.536 1076.034C1026.1837 1076.3253 1020.9799 1076.6325 1015.91879 1076.9547L1015.41036 1068.971ZM1046.5765 1067.2676C1049.2219 1067.145 1051.9009 1067.0261 1054.6139 1066.9109L1054.9534 1074.9037C1052.2504 1075.0186 1049.5817 1075.137 1046.9467 1075.259L1046.5765 1067.2676ZM1054.6139 1066.9109C1057.294 1066.7971 1059.9682 1066.688 1062.6367 1066.5835L1062.9498 1074.5774C1060.29 1074.6815 1057.6245 1074.7903 1054.9534 1074.9037L1054.6139 1066.9109ZM1078.5773 1066.0111C1083.9304 1065.8362 1089.2589 1065.6797 1094.5621 1065.5408L1094.7715 1073.5381C1089.4855 1073.6765 1084.1742 1073.8325 1078.8384 1074.0068L1078.5773 1066.0111ZM1110.472 1065.1749C1115.8394 1065.0687 1121.1792 1064.9802 1126.4906 1064.9089L1126.598 1072.9082C1121.3035 1072.9793 1115.9806 1073.0675 1110.6304 1073.1734L1110.472 1065.1749ZM1142.4193 1064.7455C1147.7807 1064.7073 1153.1113 1064.6863 1158.4104 1064.6819L1158.4171 1072.6819C1153.1345 1072.6863 1147.8207 1072.7072 1142.4763 1072.7453L1142.4193 1064.7455ZM1174.3789 1064.7185C1179.7224 1064.7474 1185.032 1064.7929 1190.3067 1064.854L1190.2139 1072.8534C1184.9556 1072.7925 1179.6625 1072.7472 1174.3357 1072.7184L1174.3789 1064.7185ZM1206.3189 1065.0894C1211.6647 1065.1845 1216.9727 1065.2954 1222.2413 1065.4215L1222.0499 1073.4192C1216.7975 1073.2935 1211.5059 1073.1829 1206.1765 1073.088L1206.3189 1065.0894ZM1238.2192 1065.8529C1243.5884 1066.0143 1248.9143 1066.191 1254.1959 1066.3822L1253.9066 1074.377C1248.6412 1074.1864 1243.3316 1074.0103 1237.9789 1073.8493L1238.2192 1065.8529ZM1270.0853 1067.0055C1275.4685 1067.233 1280.8027 1067.4751 1286.0863 1067.7307L1285.6997 1075.7214C1280.4321 1075.4666 1275.1143 1075.2252 1269.7474 1074.9983L1270.0853 1067.0055ZM1302.0425 1068.5515C1307.391 1068.843 1312.6841 1069.1478 1317.9203 1069.4651L1317.4365 1077.4505C1312.2163 1077.1342 1306.9393 1076.8302 1301.6072 1076.5397L1302.0425 1068.5515ZM1333.8926 1070.4816C1339.2764 1070.8408 1344.5955 1071.2124 1349.848 1071.5952L1349.2666 1079.574C1344.0302 1079.1924 1338.7274 1078.8219 1333.36 1078.4639L1333.8926 1070.4816ZM1365.7404 1072.8024C1371.099 1073.226 1376.3825 1073.6604 1381.5889 1074.1043L1380.9093 1082.0753C1375.7191 1081.6328 1370.452 1081.1997 1365.11 1080.7775L1365.7404 1072.8024ZM1397.5575 1075.5158C1402.9569 1076.0101 1408.2655 1076.5137 1413.4808 1077.0243L1412.701 1084.9862C1407.5025 1084.4772 1402.2106 1083.9754 1396.8281 1083.4824L1397.5575 1075.5158ZM1429.3666 1078.6311C1434.7647 1079.1946 1440.0518 1079.7644 1445.2247 1080.3384L1444.3425 1088.2896C1439.1867 1087.7175 1433.9168 1087.1495 1428.536 1086.5879L1429.3666 1078.6311ZM1461.0669 1082.1488C1466.4898 1082.7869 1471.7705 1083.427 1476.905 1084.0665L1475.9164 1092.0051C1470.7996 1091.3679 1465.5368 1090.7299 1460.1321 1090.094L1461.0669 1082.1488ZM1492.7494 1086.096C1498.2306 1086.8176 1503.517 1087.5344 1508.6023 1088.2421L1507.4999 1096.1657C1502.4336 1095.4608 1497.1666 1094.7466 1491.705 1094.0275L1492.7494 1086.096ZM1524.447 1090.5083C1530.0071 1091.3257 1535.2692 1092.123 1540.2225 1092.893L1538.9938 1100.798C1534.0618 1100.0314 1528.8214 1099.2373 1523.2835 1098.4232L1524.447 1090.5083ZM1555.9796 1095.4143C1561.8212 1096.3768 1567.0524 1097.271 1571.6452 1098.0776L1570.2615 1105.957C1565.6957 1105.1553 1560.4922 1104.2656 1554.679 1103.3079L1555.9796 1095.4143ZM1587.5314 1100.9773C1590.0684 1101.4608 1591.9974 1101.8406 1593.2949 1102.1 1593.9437 1102.2296 1594.4347 1102.3292 1594.7648 1102.3967 1594.9298 1102.4306 1595.0547 1102.4562 1595.1389 1102.4736 1595.181 1102.4823 1595.213 1102.489 1595.2349 1102.4935 1595.2457 1102.4957 1595.2542 1102.4976 1595.2599 1102.4988 1595.2628 1102.4993 1595.265 1102.4998 1595.2667 1102.5001 1595.2675 1102.5003 1595.2682 1102.5005 1595.2687 1102.5005 1595.2689 1102.5006 1595.269 1102.5006 1595.2693 1102.5007 1595.2693 1102.5007 1595.2694 1102.5007 1595.2695 1102.5007 1595.2695 1102.5007 1595.2697 1102.5007 1594.4517 1106.4163 1593.6338 1110.3317 1593.6338 1110.3318 1593.6339 1110.3318H1593.6338C1593.6337 1110.3317 1593.6334 1110.3317 1593.6329 1110.3316 1593.632 1110.3313 1593.6304 1110.331 1593.6282 1110.3306 1593.6238 1110.3296 1593.6168 1110.3281 1593.6073 1110.3262 1593.5883 1110.3223 1593.5591 1110.3162 1593.5197 1110.3081 1593.441 1110.2918 1593.3218 1110.2672 1593.1624 1110.2346 1592.8435 1110.1694 1592.364 1110.0722 1591.7267 1109.9447 1590.452 1109.69 1588.5465 1109.3148 1586.0335 1108.8358L1587.5314 1100.9773Z" fill="#ff9c77"/>
</g>
</g>
</g>
<path transform="matrix(.207477,.97824,.986672,-.162725,34.48364,159.40732)" d="M22.536179 14.36061C22.536179 8.068401 17.491284 2.967558 11.268089 2.967558 5.044896 2.967558 0 8.068401 0 14.36061 0 20.652819 5.044896 25.753663 11.268089 25.753663 17.491284 25.753663 22.536179 20.652819 22.536179 14.36061Z" fill="#7e1cc4"/>
</g>
</svg>
