<svg xmlns="http://www.w3.org/2000/svg" xmlns:xlink="http://www.w3.org/1999/xlink" version="1.1" width="265.1338pt" height="160.8125pt" viewBox="0 0 265.1338 160.8125">
<defs>
<mask id="mask_0">
<g>
<clipPath id="clip_1">
<path transform="matrix(1,0,0,-1,0,160.8125)" d="M0 0H265.1338V160.8125H0Z"/>
</clipPath>
<g clip-path="url(#clip_1)">
<path transform="matrix(.676105,.736806,.814022,-.580835,-10.842377,65.0488)" d="M52.248525 222.35596H0V190.10622H16.478735L109.30537 13.319031 136.9969 28.375718 52.076166 190.10622H52.248525V222.35596Z" fill="#d9d9d9" fill-rule="evenodd"/>
</g>
</g>
"/>
</mask>
<clipPath id="clip_2">
<path transform="matrix(1,0,0,-1,0,160.8125)" d="M0 0H265.1338V160.8125H0Z"/>
</clipPath>
</defs>
<g>
<g mask="url(#mask_0)">
<g>
<g clip-path="url(#clip_2)">
<path transform="matrix(-.300427,.892517,-1.019384,-.274715,1565.3666,24.45224)" d="M931.2772 1204.9295 931.10159 1200.9334 931.2772 1204.9295ZM500.70503 1280.9268 500.57786 1276.9288 500.70503 1280.9268ZM8.379483 1235.1476C10.53909 1235.6128 11.912695 1237.7406 11.447514 1239.9003 10.982333 1242.0598 8.854523 1243.4335 6.694916 1242.9683L8.379483 1235.1476ZM22.27461 1246.1965C20.10844 1245.763 18.703913 1243.6554 19.137509 1241.4891 19.571103 1239.323 21.678629 1237.9185 23.844799 1238.352L22.27461 1246.1965ZM39.25377 1241.3472C41.424505 1241.7573 42.851747 1243.8495 42.441606 1246.0203 42.031465 1248.191 39.939256 1249.6183 37.76852 1249.2081L39.25377 1241.3472ZM53.205839 1252.049C51.031373 1251.6592 49.58468 1249.5803 49.974554 1247.4059 50.36443 1245.2315 52.443239 1243.7847 54.617704 1244.1746L53.205839 1252.049ZM70.12549 1246.8855C72.30322 1247.2567 73.767719 1249.323 73.39653 1251.5007 73.02535 1253.6785 70.959049 1255.143 68.78131 1254.7719L70.12549 1246.8855ZM84.41735 1257.3713C82.23669 1257.0177 80.755519 1254.9634 81.10907 1252.7827 81.462619 1250.602 83.517009 1249.1209 85.69767 1249.4744L84.41735 1257.3713ZM101.19561 1251.9255C103.37893 1252.2623 104.87585 1254.3053 104.53908 1256.4887 104.2023 1258.6719 102.15936 1260.1688 99.97604 1259.832L101.19561 1251.9255ZM115.56002 1262.1763C113.37426 1261.8557 111.86218 1259.824 112.1827 1257.6382 112.50322 1255.4525 114.534969 1253.9404 116.720729 1254.2609L115.56002 1262.1763ZM132.2821 1256.4849C134.47014 1256.7896 135.99695 1258.8103 135.6923 1260.9983 135.38768 1263.1863 133.36698 1264.7131 131.17894 1264.4085L132.2821 1256.4849ZM146.82823 1266.5302C144.63808 1266.2412 143.0969 1264.2315 143.38591 1262.0413 143.67491 1259.8512 145.68466 1258.3099 147.87482 1258.599L146.82823 1266.5302ZM163.45853 1260.5995C165.65067 1260.8732 167.20594 1262.872 166.93233 1265.0641 166.65872 1267.2562 164.65985 1268.8115 162.46773 1268.538L163.45853 1260.5995ZM178.08519 1270.432C175.89122 1270.1737 174.3221 1268.1857 174.58048 1265.9917 174.83885 1263.7977 176.82688 1262.2286 179.02086 1262.4869L178.08519 1270.432ZM194.60945 1264.2682C196.80516 1264.5115 198.38797 1266.4885 198.14475 1268.6843 197.90152 1270.88 195.92438 1272.4628 193.72867 1272.2196L194.60945 1264.2682ZM209.40544 1273.9015C207.20812 1273.6734 205.61174 1271.7072 205.83983 1269.5099 206.06793 1267.3125 208.03414 1265.7162 210.23146 1265.9442L209.40544 1273.9015ZM225.89203 1267.5154C228.09088 1267.7284 229.70076 1269.6836 229.4878 1271.8825 229.27484 1274.0813 227.31967 1275.6912 225.12082 1275.4782L225.89203 1267.5154ZM240.87816 1276.9495C238.67789 1276.7517 237.05455 1274.8076 237.25234 1272.6074 237.45012 1270.4071 239.39414 1268.7838 241.59439 1268.9816L240.87816 1276.9495ZM257.1988 1270.3303C259.40037 1270.513 261.03703 1272.4458 260.85435 1274.6473 260.67167 1276.8489 258.73887 1278.4856 256.5373 1278.3029L257.1988 1270.3303ZM272.23963 1279.5512C270.03684 1279.3838 268.38688 1277.4623 268.55433 1275.2595 268.7218 1273.0568 270.64326 1271.4067 272.84605 1271.5742L272.23963 1279.5512ZM288.5452 1272.7128C290.74909 1272.865 292.41236 1274.7749 292.26026 1276.9788 292.10813 1279.1826 290.19819 1280.846 287.9943 1280.6939L288.5452 1272.7128ZM303.75926 1281.7266C301.55433 1281.59 299.87773 1279.6917 300.0144 1277.4868 300.1511 1275.2819 302.04933 1273.6052 304.25425 1273.742L303.75926 1281.7266ZM319.89814 1274.6567C322.10395 1274.778 323.79386 1276.6643 323.67265 1278.8701 323.55146 1281.0759 321.665 1282.7659 319.4592 1282.6447L319.89814 1274.6567ZM335.2184 1283.4546C333.01179 1283.349 331.30854 1281.4746 331.41407 1279.2681 331.5196 1277.0614 333.39399 1275.3582 335.6006 1275.4638L335.2184 1283.4546ZM351.34638 1276.1602C353.55369 1276.2499 355.27037 1278.1119 355.18067 1280.3193 355.091 1282.5266 353.2289 1284.2433 351.02159 1284.1536L351.34638 1276.1602ZM366.7328 1284.7354C364.52488 1284.6616 362.7948 1282.8119 362.8686 1280.604 362.94236 1278.3961 364.79203 1276.666 366.9999 1276.7398L366.7328 1284.7354ZM382.71363 1277.2074C384.92204 1277.265 386.66557 1279.102 386.60795 1281.3104 386.5503 1283.5188 384.71336 1285.2623 382.50495 1285.2047L382.71363 1277.2074ZM398.3079 1285.5586C396.09916 1285.5173 394.34205 1283.6934 394.3833 1281.4845 394.42457 1279.2758 396.24858 1277.5187 398.4573 1277.5599L398.3079 1285.5586ZM414.12873 1277.7943C416.3377 1277.8191 418.10838 1279.63 418.0836 1281.839 418.0588 1284.048 416.248 1285.8186 414.03898 1285.7938L414.12873 1277.7943ZM429.828 1285.9111C427.6189 1285.9032 425.83454 1284.1058 425.84257 1281.8967 425.8506 1279.6875 427.64796 1277.9032 429.8571 1277.9113L429.828 1285.9111ZM445.57688 1277.9081C447.78599 1277.8992 449.58409 1279.6828 449.59303 1281.8919 449.60197 1284.101 447.81837 1285.899 445.60926 1285.9081L445.57688 1277.9081ZM461.36198 1285.7832C459.15299 1285.8093 457.34107 1284.0398 457.31498 1281.8308 457.28886 1279.6218 459.0584 1277.8099 461.2674 1277.7838L461.36198 1285.7832ZM477.00779 1277.5357C479.2165 1277.4921 481.04234 1279.2472 481.0859 1281.4559 481.1295 1283.6647 479.3743 1285.4905 477.1656 1285.534L477.00779 1277.5357ZM492.91313 1285.1605C490.70484 1285.2217 488.865 1283.4812 488.80375 1281.273 488.74253 1279.0646 490.48304 1277.2249 492.6913 1277.1636L492.91313 1285.1605ZM508.65669 1276.6547C510.86439 1276.575 512.7187 1278.3 512.7984 1280.5078 512.87808 1282.7155 511.15299 1284.5698 508.94529 1284.6495L508.65669 1276.6547ZM524.49777 1284.0189C522.2909 1284.1187 520.421 1282.4104 520.3213 1280.2036 520.22158 1277.9967 521.92977 1276.1268 524.13668 1276.0271L524.49777 1284.0189ZM539.9779 1275.2288C542.18368 1275.1056 544.0716 1276.7937 544.1948 1278.9995 544.318 1281.2052 542.6298 1283.0932 540.42416 1283.2163L539.9779 1275.2288ZM556.1447 1282.2445C553.9407 1282.3945 552.0323 1280.7295 551.8822 1278.5255 551.7322 1276.3214 553.3972 1274.4131 555.60128 1274.263L556.1447 1282.2445ZM571.09957 1273.1006C573.3013 1272.9193 575.233 1274.5573 575.4142 1276.759 575.5954 1278.9607 573.9575 1280.8925 571.7558 1281.0736L571.09957 1273.1006ZM587.3982 1279.658C585.1998 1279.876 583.24099 1278.2706 583.02297 1276.0724 582.8049 1273.874 584.4102 1271.915 586.6086 1271.697L587.3982 1279.658ZM602.2091 1269.9954C604.4026 1269.733 606.3935 1271.2985 606.6559 1273.492 606.9183 1275.6856 605.3528 1277.6764 603.1593 1277.9387L602.2091 1269.9954ZM618.8321 1275.8766C616.6456 1276.1923 614.61727 1274.6757 614.30166 1272.4891 613.98599 1270.3027 615.50259 1268.2743 617.689 1267.9588L618.8321 1275.8766ZM633.0314 1265.5197C635.2076 1265.1397 637.27987 1266.5956 637.66 1268.7719 638.04006 1270.948 636.58407 1273.0203 634.40786 1273.4004L633.0314 1265.5197ZM650.0607 1270.3816C647.8998 1270.8406 645.7759 1269.4609 645.3169 1267.3 644.85787 1265.1392 646.2375 1263.0153 648.39846 1262.5562L650.0607 1270.3816ZM663.54556 1259.0017C665.6844 1258.4489 667.8664 1259.7346 668.4192 1261.8735 668.972 1264.0123 667.6862 1266.1943 665.54739 1266.7472L663.54556 1259.0017ZM680.79067 1262.4083C678.68179 1263.0663 676.43887 1261.89 675.78097 1259.7811 675.12307 1257.6723 676.2993 1255.4292 678.4082 1254.7714L680.79067 1262.4083ZM693.083 1249.7831C695.1567 1249.0214 697.45529 1250.0848 698.217 1252.1586 698.9787 1254.2322 697.91519 1256.5308 695.8415 1257.2925L693.083 1249.7831ZM710.6133 1251.5293C708.56869 1252.3659 706.23306 1251.3864 705.3966 1249.3417 704.5601 1247.297 705.5396 1244.9614 707.5843 1244.125L710.6133 1251.5293ZM722.04379 1238.098C724.08206 1237.2461 726.425 1238.2078 727.2769 1240.246 728.1289 1242.2843 727.1672 1244.6272 725.1289 1245.4791L722.04379 1238.098ZM739.57266 1239.6087C737.5142 1240.4107 735.1954 1239.3921 734.39346 1237.3338 733.59146 1235.2753 734.61 1232.9564 736.66848 1232.1544L739.57266 1239.6087ZM751.56149 1226.7119C753.6533 1226.0017 755.92489 1227.1217 756.63516 1229.2135 757.34536 1231.3054 756.22537 1233.5769 754.1335 1234.2872L751.56149 1226.7119ZM768.98257 1229.6506C766.85836 1230.2572 764.6446 1229.027 764.03799 1226.9027 763.4314 1224.7786 764.6617 1222.5647 766.7859 1221.9581L768.98257 1229.6506ZM782.07968 1217.9672C784.2289 1217.4563 786.3854 1218.7844 786.89627 1220.9337 787.40719 1223.083 786.079 1225.2394 783.9297 1225.7504L782.07968 1217.9672ZM799.1736 1222.444C797.0063 1222.872 794.9024 1221.462 794.47439 1219.2948 794.0463 1217.1275 795.45626 1215.0236 797.62356 1214.5956L799.1736 1222.444ZM813.27877 1211.7695C815.4585 1211.4107 817.5166 1212.8866 817.87557 1215.0664 818.2345 1217.2462 816.7585 1219.3043 814.5787 1219.6632L813.27877 1211.7695ZM830.03817 1217.3306C827.84976 1217.6326 825.8309 1216.1034 825.5289 1213.915 825.2268 1211.7266 826.75607 1209.7078 828.9444 1209.4057L830.03817 1217.3306ZM844.57608 1207.4244C846.77047 1207.1694 848.756 1208.7417 849.0109 1210.936 849.26589 1213.1305 847.6936 1215.1161 845.49929 1215.371L844.57608 1207.4244ZM860.9631 1213.7188C858.76449 1213.9343 856.8074 1212.3268 856.59188 1210.1282 856.3763 1207.9296 857.9838 1205.9725 860.18246 1205.757L860.9631 1213.7188ZM875.8131 1204.3473C878.0147 1204.165 879.9472 1205.8021 880.1294 1208.0038 880.3116 1210.2053 878.6745 1212.1378 876.4729 1212.32L875.8131 1204.3473ZM892.09988 1211.1318C889.89608 1211.2854 887.9851 1209.6233 887.83169 1207.4194 887.67819 1205.2157 889.3403 1203.3047 891.54409 1203.1513L892.09988 1211.1318ZM907.4657 1202.1355C909.6711 1202.0071 911.56307 1203.6908 911.69149 1205.8961 911.8198 1208.1016 910.1361 1209.9935 907.9307 1210.122L907.4657 1202.1355ZM923.3806 1209.2988C921.1741 1209.4059 919.29849 1207.704 919.19137 1205.4974 919.0842 1203.2909 920.7862 1201.4153 922.99276 1201.3082L923.3806 1209.2988ZM939.1313 1200.5958C941.3387 1200.5073 943.1998 1202.225 943.2883 1204.4324 943.3769 1206.6398 941.6592 1208.501 939.45187 1208.5895L939.1313 1200.5958ZM955.331 1208.0133C953.12307 1208.0851 951.27499 1206.3533 951.2033 1204.1453 951.1316 1201.9373 952.86337 1200.0892 955.07138 1200.0176L955.331 1208.0133ZM971.0914 1199.5581C973.2998 1199.5032 975.1347 1201.2489 975.1897 1203.4574 975.2446 1205.6658 973.4989 1207.5007 971.29049 1207.5557L971.0914 1199.5581ZM987.19949 1207.2194C984.99069 1207.2578 983.1689 1205.4983 983.1305 1203.2896 983.09207 1201.0807 984.85147 1199.259 987.0603 1199.2206L987.19949 1207.2194ZM1003.02407 1199.0022C1005.2331 1198.9801 1007.04177 1200.753 1007.0638 1202.962 1007.0858 1205.1712 1005.31289 1206.9797 1003.1038 1207.0017L1003.02407 1199.0022ZM1019.0647 1206.9017C1016.8556 1206.9074 1015.0601 1205.1211 1015.0544 1202.912 1015.0487 1200.7029 1016.83499 1198.9075 1019.0441 1198.9017L1019.0647 1206.9017ZM1035.0122 1198.9192C1037.2213 1198.9297 1039.0037 1200.729 1038.9932 1202.9381 1038.9827 1205.1472 1037.1834 1206.9296 1034.9743 1206.9191L1035.0122 1198.9192ZM1050.8761 1207.0525C1048.6671 1207.0259 1046.8978 1205.2136 1046.9244 1203.0046 1046.9509 1200.7957 1048.7632 1199.0265 1050.9722 1199.053L1050.8761 1207.0525ZM1066.9951 1199.304C1069.2039 1199.3466 1070.9598 1201.1716 1070.9172 1203.3804 1070.8746 1205.589 1069.0496 1207.345 1066.8408 1207.3025L1066.9951 1199.304ZM1082.757 1207.6669C1080.5486 1207.6083 1078.8059 1205.7706 1078.8644 1203.5623 1078.9229 1201.3539 1080.7605 1199.6111 1082.9689 1199.6697L1082.757 1207.6669ZM1098.8919 1200.1487C1101.0997 1200.2229 1102.8292 1202.073 1102.755 1204.2809 1102.6807 1206.4888 1100.8306 1208.2184 1098.6227 1208.144L1098.8919 1200.1487ZM1114.5856 1208.7389C1112.3783 1208.6487 1110.662 1206.7863 1110.7522 1204.5789 1110.8424 1202.3716 1112.7048 1200.6554 1114.9121 1200.7455L1114.5856 1208.7389ZM1130.8997 1201.4559C1133.1062 1201.5619 1134.8091 1203.4367 1134.7031 1205.6432 1134.5972 1207.8499 1132.7225 1209.5527 1130.5159 1209.4468L1130.8997 1201.4559ZM1146.4042 1210.2665C1144.1984 1210.1448 1142.5089 1208.258 1142.6306 1206.0523 1142.7522 1203.8464 1144.639 1202.157 1146.8449 1202.2787L1146.4042 1210.2665ZM1162.7499 1203.2129C1164.9547 1203.3504 1166.6307 1205.2492 1166.4933 1207.454 1166.356 1209.6588 1164.4572 1211.3348 1162.2523 1211.1975L1162.7499 1203.2129ZM1178.1823 1212.2474C1175.9785 1212.0942 1174.3162 1210.1835 1174.4694 1207.9797 1174.6226 1205.7759 1176.5333 1204.1135 1178.737 1204.2667L1178.1823 1212.2474ZM1194.7073 1205.4347C1196.9099 1205.6038 1198.5585 1207.5264 1198.3895 1209.729 1198.2205 1211.9317 1196.2977 1213.5802 1194.0951 1213.4111L1194.7073 1205.4347ZM1209.9786 1214.688C1207.7772 1214.5029 1206.1427 1212.5685 1206.3276 1210.3671 1206.5126 1208.1657 1208.4472 1206.531 1210.6484 1206.7161L1209.9786 1214.688ZM1226.5658 1208.1117C1228.7658 1208.3126 1230.3862 1210.259 1230.1853 1212.459 1229.9844 1214.6589 1228.038 1216.2794 1225.838 1216.0785L1226.5658 1208.1117ZM1241.6791 1217.5841C1239.4806 1217.3671 1237.8744 1215.4088 1238.0916 1213.2103 1238.3087 1211.012 1240.2669 1209.4058 1242.4653 1209.6229L1241.6791 1217.5841ZM1258.354 1211.2517C1260.5508 1211.4852 1262.1423 1213.4553 1261.9088 1215.6521 1261.6753 1217.8489 1259.7052 1219.4404 1257.5084 1219.2069L1258.354 1211.2517ZM1273.3324 1220.9494C1271.1375 1220.6992 1269.5609 1218.717 1269.811 1216.5221 1270.0612 1214.3272 1272.0433 1212.7506 1274.2382 1213.0007L1273.3324 1220.9494ZM1290.1224 1214.8733C1292.3154 1215.1404 1293.8765 1217.1348 1293.6094 1219.3276 1293.3422 1221.5205 1291.3479 1223.0817 1289.1549 1222.8145L1290.1224 1214.8733ZM1304.9745 1224.8057C1302.7838 1224.521 1301.2387 1222.5143 1301.5233 1220.3236 1301.8081 1218.1328 1303.8148 1216.5878 1306.0055 1216.8724L1304.9745 1224.8057ZM1321.8739 1219.0011C1324.0623 1219.304 1325.5907 1221.3235 1325.2879 1223.5117 1324.985 1225.7 1322.9655 1227.2284 1320.7772 1226.9255L1321.8739 1219.0011ZM1336.5239 1229.1741C1334.3384 1228.8522 1332.8275 1226.8196 1333.1494 1224.6339 1333.4713 1222.4484 1335.504 1220.9376 1337.6896 1221.2594L1336.5239 1229.1741ZM1353.4429 1223.6531C1355.6254 1223.9951 1357.1173 1226.0418 1356.7753 1228.2243 1356.4331 1230.4067 1354.3865 1231.8987 1352.2041 1231.5565L1353.4429 1223.6531ZM1367.9797 1234.1107C1365.8009 1233.7462 1364.3301 1231.6845 1364.6945 1229.5056 1365.059 1227.3267 1367.1207 1225.8558 1369.2996 1226.2203L1367.9797 1234.1107ZM1385.0829 1228.9536C1387.2572 1229.3439 1388.7036 1231.423 1388.3134 1233.5973 1387.923 1235.7717 1385.844 1237.218 1383.6696 1236.8278L1385.0829 1228.9536ZM1399.2976 1239.7521C1397.1298 1239.3272 1395.7168 1237.2252 1396.1417 1235.0573 1396.5667 1232.8894 1398.6686 1231.4765 1400.8366 1231.9015L1399.2976 1239.7521ZM0 1237.387C.910604 1233.492 .91055 1233.492 .910506 1233.492 .910505 1233.492 .910471 1233.492 .910468 1233.492 .910462 1233.492 .910495 1233.492 .910568 1233.492 .910713 1233.492 .911016 1233.4921 .911476 1233.4922 .912397 1233.4923 .913947 1233.4927 .916127 1233.4933 .920485 1233.4943 .927358 1233.4959 .936739 1233.498 .955503 1233.5025 .9843 1233.509 1.02308 1233.5181 1.10064 1233.536 1.21813 1233.5631 1.375135 1233.5991 1.689147 1233.6712 2.161219 1233.7787 2.788043 1233.9197 4.041695 1234.2014 5.914334 1234.6166 8.379483 1235.1476L6.694916 1242.9683C4.205889 1242.4321 2.309928 1242.0119 1.033524 1241.7249 .39532 1241.5814-.087999 1241.4713-.413123 1241.3967-.575685 1241.3595-.698698 1241.331-.781749 1241.3118-.823275 1241.3023-.85481 1241.2949-.876303 1241.2899-.88705 1241.2874-.895286 1241.2854-.901005 1241.2842-.903864 1241.2835-.906094 1241.283-.907694 1241.2826-.908494 1241.2824-.909137 1241.2822-.909622 1241.2821-.909864 1241.2821-.910067 1241.282-.910231 1241.282-.910313 1241.282-.910406 1241.282-.910447 1241.282-.91053 1241.2819-.910604 1241.2819 0 1237.387ZM23.844799 1238.352C28.361027 1239.2561 33.50814 1240.2616 39.25377 1241.3472L37.76852 1249.2081C31.993817 1248.1171 26.81838 1247.106 22.27461 1246.1965L23.844799 1238.352ZM54.617704 1244.1746C59.48945 1245.0481 64.66284 1245.9545 70.12549 1246.8855L68.78131 1254.7719C63.29565 1253.8368 58.099687 1252.9265 53.205839 1252.049L54.617704 1244.1746ZM85.69767 1249.4744C90.673419 1250.2811 95.84178 1251.0997 101.19561 1251.9255L99.97604 1259.832C94.60161 1259.003 89.412998 1258.1813 84.41735 1257.3713L85.69767 1249.4744ZM116.720729 1254.2609C121.76906 1255.0012 126.95784 1255.7437 132.2821 1256.4849L131.17894 1264.4085C125.8352 1263.6646 120.62723 1262.9193 115.56002 1262.1763L116.720729 1254.2609ZM147.87482 1258.599C152.96193 1259.2703 158.15776 1259.938 163.45853 1260.5995L162.46773 1268.538C157.1481 1267.874 151.93367 1267.2039 146.82823 1266.5302L147.87482 1258.599ZM179.02086 1262.4869C184.1306 1263.0888 189.32782 1263.6831 194.60945 1264.2682L193.72867 1272.2196C188.42848 1271.6325 183.21298 1271.0359 178.08519 1270.432L179.02086 1262.4869ZM210.23146 1265.9442C215.37963 1266.4786 220.60066 1267.0029 225.89203 1267.5154L225.12082 1275.4782C219.81095 1274.9639 214.57163 1274.4378 209.40544 1273.9015L210.23146 1265.9442ZM241.59439 1268.9816C246.73572 1269.4437 251.93791 1269.8938 257.1988 1270.3303L256.5373 1278.3029C251.25792 1277.8649 246.03749 1277.4132 240.87816 1276.9495L241.59439 1268.9816ZM272.84605 1271.5742C278.0272 1271.9682 283.2609 1272.348 288.5452 1272.7128L287.9943 1280.6939C282.69126 1280.3278 277.43904 1279.9464 272.23963 1279.5512L272.84605 1271.5742ZM304.25425 1273.742C309.42454 1274.0625 314.63975 1274.3678 319.89814 1274.6567L319.4592 1282.6447C314.1819 1282.3546 308.948 1282.0482 303.75926 1281.7266L304.25425 1273.742ZM335.6006 1275.4638C340.81028 1275.7129 346.05943 1275.9454 351.34638 1276.1602L351.02159 1284.1536C345.71528 1283.938 340.447 1283.7046 335.2184 1283.4546L335.6006 1275.4638ZM366.9999 1276.7398C372.20414 1276.9137 377.44255 1277.0698 382.71363 1277.2074L382.50495 1285.2047C377.21415 1285.0667 371.95628 1284.9099 366.7328 1284.7354L366.9999 1276.7398ZM398.4573 1277.5599C403.65196 1277.657 408.8762 1277.7355 414.12873 1277.7943L414.03898 1285.7938C408.76637 1285.7348 403.5222 1285.656 398.3079 1285.5586L398.4573 1277.5599ZM429.8571 1277.9113C435.07148 1277.9302 440.31184 1277.9295 445.57688 1277.9081L445.60926 1285.9081C440.3235 1285.9295 435.06266 1285.9302 429.828 1285.9111L429.8571 1277.9113ZM461.2674 1277.7838C466.49198 1277.722 471.7392 1277.6395 477.00779 1277.5357L477.1656 1285.534C471.87568 1285.6384 466.6074 1285.7212 461.36198 1285.7832L461.2674 1277.7838ZM492.6913 1277.1636C495.31529 1277.0908 497.94419 1277.0126 500.57786 1276.9288L500.83219 1284.9248C498.1876 1285.0089 495.54786 1285.0874 492.91313 1285.1605L492.6913 1277.1636ZM500.57786 1276.9288C503.3092 1276.8419 506.0019 1276.7505 508.65669 1276.6547L508.94529 1284.6495C506.27888 1284.7457 503.57475 1284.8375 500.83219 1284.9248L500.57786 1276.9288ZM524.13668 1276.0271C529.5866 1275.7809 534.86447 1275.5144 539.9779 1275.2288L540.42416 1283.2163C535.2811 1283.5037 529.9749 1283.7715 524.49777 1284.0189L524.13668 1276.0271ZM555.60128 1274.263C560.9604 1273.8981 566.1228 1273.5101 571.09957 1273.1006L571.7558 1281.0736C566.73989 1281.4865 561.5398 1281.8772 556.1447 1282.2445L555.60128 1274.263ZM586.6086 1271.697C592.04708 1271.1576 597.2411 1270.5897 602.2091 1269.9954L603.1593 1277.9387C598.1352 1278.5398 592.8876 1279.1135 587.3982 1279.658L586.6086 1271.697ZM617.689 1267.9588C623.0898 1267.179 628.1933 1266.3648 633.0314 1265.5197L634.40786 1273.4004C629.48849 1274.2597 624.30709 1275.0862 618.8321 1275.8766L617.689 1267.9588ZM648.39846 1262.5562C653.7888 1261.4111 658.81668 1260.2239 663.54556 1259.0017L665.54739 1266.7472C660.7032 1267.9992 655.562 1269.213 650.0607 1270.3816L648.39846 1262.5562ZM678.4082 1254.7714C683.6088 1253.1489 688.4584 1251.4818 693.083 1249.7831L695.8415 1257.2925C691.106 1259.032 686.1306 1260.7426 680.79067 1262.4083L678.4082 1254.7714ZM707.5843 1244.125C712.4571 1242.1316 717.19326 1240.1254 722.04379 1238.098L725.1289 1245.4791C720.3245 1247.4873 715.5234 1249.5208 710.6133 1251.5293L707.5843 1244.125ZM736.66848 1232.1544C741.3794 1230.3191 746.2985 1228.4989 751.56149 1226.7119L754.1335 1234.2872C749.00106 1236.0299 744.19406 1237.8082 739.57266 1239.6087L736.66848 1232.1544ZM766.7859 1221.9581C771.5678 1220.5927 776.6424 1219.2597 782.07968 1217.9672L783.9297 1225.7504C778.6076 1227.0154 773.6486 1228.3182 768.98257 1229.6506L766.7859 1221.9581ZM797.62356 1214.5956C802.5567 1213.6212 807.76309 1212.6779 813.27877 1211.7695L814.5787 1219.6632C809.1429 1220.5585 804.02 1221.4868 799.1736 1222.444L797.62356 1214.5956ZM828.9444 1209.4057C833.92098 1208.7189 839.12496 1208.0578 844.57608 1207.4244L845.49929 1215.371C840.10238 1215.9979 834.95529 1216.652 830.03817 1217.3306L828.9444 1209.4057ZM860.18246 1205.757C865.1982 1205.2653 870.4045 1204.7948 875.8131 1204.3473L876.4729 1212.32C871.1028 1212.7644 865.9368 1213.2312 860.9631 1213.7188L860.18246 1205.757ZM891.54409 1203.1513C896.6807 1202.7935 901.98519 1202.4546 907.4657 1202.1355L907.9307 1210.122C902.47927 1210.4393 897.2051 1210.7764 892.09988 1211.1318L891.54409 1203.1513ZM922.99276 1201.3082C925.65676 1201.1788 928.35946 1201.054 931.10159 1200.9334L931.45297 1208.9257C928.7228 1209.0457 926.0322 1209.17 923.3806 1209.2988L922.99276 1201.3082ZM931.10159 1200.9334C933.78469 1200.8154 936.4613 1200.7029 939.1313 1200.5958L939.45187 1208.5895C936.79208 1208.696 934.1257 1208.8081 931.45297 1208.9257L931.10159 1200.9334ZM955.07138 1200.0176C960.44 1199.8433 965.7804 1199.6903 971.0914 1199.5581L971.29049 1207.5557C965.9995 1207.6874 960.6793 1207.8396 955.331 1208.0133L955.07138 1200.0176ZM987.0603 1199.2206C992.4137 1199.1275 997.73538 1199.0549 1003.02407 1199.0022L1003.1038 1207.0017C997.8347 1207.0543 992.5329 1207.1266 987.19949 1207.2194L987.0603 1199.2206ZM1019.0441 1198.9017C1024.4032 1198.888 1029.7263 1198.894 1035.0122 1198.9192L1034.9743 1206.9191C1029.7078 1206.894 1024.404 1206.888 1019.0647 1206.9017L1019.0441 1198.9017ZM1050.9722 1199.053C1056.3549 1199.1178 1061.6963 1199.2017 1066.9951 1199.304L1066.8408 1207.3025C1061.5612 1207.2006 1056.2391 1207.117 1050.8761 1207.0525L1050.9722 1199.053ZM1082.9689 1199.6697C1088.3236 1199.8115 1093.6317 1199.9716 1098.8919 1200.1487L1098.6227 1208.144C1093.3815 1207.9677 1088.0924 1207.8082 1082.757 1207.6669L1082.9689 1199.6697ZM1114.9121 1200.7455C1120.2959 1200.9655 1125.6256 1201.2026 1130.8997 1201.4559L1130.5159 1209.4468C1125.2608 1209.1943 1119.9501 1208.958 1114.5856 1208.7389L1114.9121 1200.7455ZM1146.8449 1202.2787C1152.2094 1202.5746 1157.5117 1202.8865 1162.7499 1203.2129L1162.2523 1211.1975C1157.033 1210.8722 1151.7495 1210.5614 1146.4042 1210.2665L1146.8449 1202.2787ZM1178.737 1204.2667C1184.1354 1204.642 1189.4596 1205.0319 1194.7073 1205.4347L1194.0951 1213.4111C1188.8662 1213.0099 1183.5613 1212.6213 1178.1823 1212.2474L1178.737 1204.2667ZM1210.6484 1206.7161C1216.0438 1207.1693 1221.3505 1207.6353 1226.5658 1208.1117L1225.838 1216.0785C1220.6419 1215.6038 1215.3545 1215.1397 1209.9786 1214.688L1210.6484 1206.7161ZM1242.4653 1209.6229C1247.872 1210.1569 1253.1693 1210.7007 1258.354 1211.2517L1257.5084 1219.2069C1252.3433 1218.658 1247.0657 1218.1162 1241.6791 1217.5841L1242.4653 1209.6229ZM1274.2382 1213.0007C1279.675 1213.6204 1284.9714 1214.2456 1290.1224 1214.8733L1289.1549 1222.8145C1284.0242 1222.1895 1278.7484 1221.5665 1273.3324 1220.9494L1274.2382 1213.0007ZM1306.0055 1216.8724C1311.49 1217.5852 1316.7817 1218.2964 1321.8739 1219.0011L1320.7772 1226.9255C1315.7066 1226.2238 1310.4368 1225.5155 1304.9745 1224.8057L1306.0055 1216.8724ZM1337.6896 1221.2594C1343.2385 1222.0767 1348.4935 1222.8773 1353.4429 1223.6531L1352.2041 1231.5565C1347.2786 1230.7846 1342.0481 1229.9877 1336.5239 1229.1741L1337.6896 1221.2594ZM1369.2996 1226.2203C1375.1879 1227.2052 1380.4591 1228.1238 1385.0829 1228.9536L1383.6696 1236.8278C1379.0763 1236.0033 1373.836 1235.0902 1367.9797 1234.1107L1369.2996 1226.2203ZM1400.8366 1231.9015C1403.3787 1232.3998 1405.3135 1232.7924 1406.6159 1233.0612 1407.2671 1233.1956 1407.7601 1233.2988 1408.0918 1233.369 1408.2577 1233.404 1408.3833 1233.4308 1408.4682 1233.449 1408.5106 1233.458 1408.5429 1233.465 1408.5648 1233.4697 1408.5758 1233.472 1408.5844 1233.4739 1408.5902 1233.4751 1408.5932 1233.4758 1408.5955 1233.4763 1408.5972 1233.4767 1408.5979 1233.4768 1408.5986 1233.4769 1408.5991 1233.477 1408.5994 1233.4772 1408.5996 1233.4772 1408.5997 1233.4772 1408.5999 1233.4772 1408.6 1233.4773 1408.6 1233.4773 1408.6001 1233.4773 1408.6002 1233.4773 1407.7546 1237.387 1406.9092 1241.2965 1406.9092 1241.2965 1406.9093 1241.2965 1406.9093 1241.2966 1406.9093 1241.2965 1406.9092 1241.2965 1406.909 1241.2965 1406.9088 1241.2965 1406.9083 1241.2964 1406.9075 1241.2962 1406.9059 1241.2958 1406.9037 1241.2954 1406.8993 1241.2944 1406.8925 1241.293 1406.8829 1241.2909 1406.864 1241.2869 1406.8347 1241.2805 1406.7954 1241.2721 1406.7167 1241.2553 1406.5973 1241.2299 1406.4376 1241.196 1406.1182 1241.1287 1405.6377 1241.0278 1404.9992 1240.8961 1403.7222 1240.6326 1401.8132 1240.2451 1399.2976 1239.7521L1400.8366 1231.9015Z" fill="#ff9c77"/>
</g>
</g>
</g>
<path transform="matrix(.676105,.736806,.814022,-.580835,80.72624,145.9144)" d="M20.556796 16.837256C20.556796 11.060701 15.955 6.37788 10.278398 6.37788 4.601795 6.37788 0 11.060701 0 16.837256 0 22.61381 4.601795 27.29663 10.278398 27.29663 15.955 27.29663 20.556796 22.61381 20.556796 16.837256Z" fill="#7e1cc4"/>
</g>
</svg>
