<svg xmlns="http://www.w3.org/2000/svg" xmlns:xlink="http://www.w3.org/1999/xlink" version="1.1" width="116" height="137.38282" viewBox="0 0 116 137.38282">
<defs>
<mask id="mask_0">
<g>
<clipPath id="clip_1">
<path transform="matrix(1,0,0,-1,0,137.38282)" d="M0 0H116V137.38282H0Z"/>
</clipPath>
<g clip-path="url(#clip_1)">
<path transform="matrix(.183839,.982956,.982956,-.183839,25.208603,-34.323457)" d="M71 210.38282H0V65.38281H63.14882L105.38479-25.645752 169.88687 4.282318 77.47417 203.45369 71 200.44977V210.38282Z" fill="#d9d9d9" fill-rule="evenodd"/>
</g>
</g>
"/>
</mask>
<clipPath id="clip_2">
<path transform="matrix(1,0,0,-1,0,137.38282)" d="M0 0H116V137.38282H0Z"/>
</clipPath>
</defs>
<g>
<g mask="url(#mask_0)">
<g>
<g clip-path="url(#clip_2)">
<path transform="matrix(-.708937,.705271,-.705271,-.708937,1386.1983,561.41348)" d="M1114.8358 1171.0728 1114.6654 1167.0764 1114.8358 1171.0728ZM8.478874 1206.4943C10.64069 1206.9491 12.024493 1209.0703 11.569686 1211.2322 11.11488 1213.3939 8.993688 1214.7777 6.831872 1214.3229L8.478874 1206.4943ZM22.357926 1217.4788C20.190506 1217.0515 18.77987 1214.948 19.207179 1212.7807 19.634488 1210.6132 21.73793 1209.2025 23.905348 1209.6299L22.357926 1217.4788ZM39.498868 1212.625C41.67024 1213.0317 43.100759 1215.1217 42.69402 1217.293 42.28728 1219.4644 40.19731 1220.8949 38.02594 1220.4882L39.498868 1212.625ZM53.63256 1223.3449C51.45796 1222.9557 50.01052 1220.8775 50.39962 1218.7029 50.78872 1216.5282 52.867013 1215.0808 55.041616 1215.4699L53.63256 1223.3449ZM70.70256 1218.2114C72.87999 1218.5844 74.342807 1220.6519 73.96985 1222.8292 73.59689 1225.0067 71.529399 1226.4695 69.35197 1226.0966L70.70256 1218.2114ZM85.071178 1228.7324C82.89121 1228.3745 81.41411 1226.3173 81.77197 1224.1373 82.129848 1221.9573 84.18716 1220.4802 86.36712 1220.8381L85.071178 1228.7324ZM102.009929 1223.3529C104.19219 1223.6964 105.682788 1225.744 105.33925 1227.9263 104.99572 1230.1085 102.94816 1231.5991 100.76589 1231.2556L102.009929 1223.3529ZM116.44453 1233.6727C114.26013 1233.343 112.756649 1231.3049 113.086399 1229.1205 113.416149 1226.9362 115.454257 1225.4326 117.63865 1225.7623L116.44453 1233.6727ZM133.2712 1228.073C135.45757 1228.3894 136.97351 1230.4183 136.65715 1232.6046 136.34078 1234.791 134.3119 1236.307 132.12555 1235.9906L133.2712 1228.073ZM147.82857 1238.2147C145.64035 1237.9114 144.11229 1235.8916 144.41556 1233.7034 144.71883 1231.5153 146.73859 1229.9872 148.9268 1230.2904L147.82857 1238.2147ZM164.62236 1232.4185C166.81233 1232.7089 168.35225 1234.7196 168.06188 1236.9096 167.77149 1239.0995 165.76078 1240.6394 163.5708 1240.3491L164.62236 1232.4185ZM179.36585 1242.3966C177.17423 1242.119 175.62264 1240.1172 175.90027 1237.9257 176.17789 1235.734 178.17963 1234.1824 180.37125 1234.46L179.36585 1242.3966ZM196.15958 1236.4138C198.35277 1236.6787 199.91588 1238.6715 199.65088 1240.8648 199.3859 1243.0579 197.39315 1244.621 195.19995 1244.356L196.15958 1236.4138ZM210.8951 1246.2073C208.70046 1245.9547 207.12609 1243.9708 207.37865 1241.7761 207.63123 1239.5816 209.6151 1238.0072 211.80974 1238.2598L210.8951 1246.2073ZM227.54228 1240.0253C229.73833 1240.2654 231.32389 1242.2404 231.08373 1244.4364 230.84357 1246.6325 228.86864 1248.218 226.67259 1247.9778L227.54228 1240.0253ZM242.536 1249.6672C240.33863 1249.4395 238.74192 1247.4735 238.96964 1245.2761 239.19738 1243.0787 241.1633 1241.482 243.36067 1241.7098L242.536 1249.6672ZM259.08763 1243.2952C261.28623 1243.5105 262.89396 1245.4674 262.67854 1247.6661 262.46315 1249.8648 260.5062 1251.4724 258.3076 1251.257L259.08763 1243.2952ZM274.09815 1252.7593C271.89836 1252.5563 270.2797 1250.6084 270.48277 1248.4086 270.68583 1246.2088 272.63374 1244.5901 274.8335 1244.7932L274.09815 1252.7593ZM290.68107 1246.211C292.88197 1246.4016 294.5116 1248.3405 294.32093 1250.5413 294.13029 1252.7422 292.19157 1254.3718 289.99067 1254.1812L290.68107 1246.211ZM305.77085 1255.5036C303.5689 1255.3252 301.92845 1253.3956 302.10673 1251.1937 302.28504 1248.9918 304.21458 1247.3513 306.4165 1247.5297L305.77085 1255.5036ZM322.20838 1248.7634C324.4113 1248.9293 326.06263 1250.8496 325.89677 1253.0525 325.7309 1255.2554 323.81065 1256.9067 321.60774 1256.7409L322.20838 1248.7634ZM337.51075 1257.8928C335.30696 1257.7395 333.64469 1255.8287 333.79804 1253.6249 333.95137 1251.421 335.8622 1249.7588 338.066 1249.9121L337.51075 1257.8928ZM353.8085 1250.9627C356.01316 1251.1035 357.6862 1253.0049 357.54536 1255.2096 357.4045 1257.4142 355.50315 1259.0873 353.2985 1258.9464L353.8085 1250.9627ZM369.20317 1259.9166C366.99775 1259.7885 365.3138 1257.8967 365.442 1255.6913 365.5702 1253.4859 367.46195 1251.8019 369.66737 1251.9302L369.20317 1259.9166ZM385.455 1252.8023C387.6611 1252.9177 389.35588 1254.7998 389.24037 1257.0059 389.12489 1259.212 387.24284 1260.9067 385.0367 1260.7913L385.455 1252.8023ZM400.90766 1261.5762C398.7009 1261.4734 396.99525 1259.6012 397.09794 1257.3945 397.20066 1255.1878 399.07286 1253.482 401.27958 1253.5848L400.90766 1261.5762ZM417.12974 1254.2761C419.33708 1254.3659 421.05366 1256.228 420.96388 1258.4353 420.87406 1260.6427 419.0119 1262.3593 416.80458 1262.2694L417.12974 1254.2761ZM432.64848 1262.8674C430.44068 1262.7907 428.71318 1260.9386 428.78999 1258.7307 428.8668 1256.523 430.71885 1254.7954 432.92668 1254.8723L432.64848 1262.8674ZM448.82008 1255.3779C451.0283 1255.4415 452.7668 1257.2832 452.70317 1259.4915 452.63954 1261.6997 450.7978 1263.4382 448.58958 1263.3745L448.82008 1255.3779ZM464.41297 1263.7835C462.2044 1263.7329 460.4549 1261.9016 460.50538 1259.6931 460.55583 1257.4845 462.38713 1255.7351 464.59568 1255.7855L464.41297 1263.7835ZM480.48307 1256.1004C482.6919 1256.1373 484.45246 1257.958 484.4154 1260.1669 484.37837 1262.3756 482.55775 1264.1362 480.3489 1264.0991L480.48307 1256.1004ZM496.19136 1264.3167C493.98234 1264.2931 492.2107 1262.4832 492.23429 1260.2742 492.25785 1258.0652 494.06773 1256.2936 496.27674 1256.3171L496.19136 1264.3167ZM512.1471 1256.4374C514.3562 1256.4473 516.13906 1258.2462 516.12918 1260.4553 516.1192 1262.6644 514.3204 1264.4473 512.11129 1264.4374L512.1471 1256.4374ZM527.9762 1264.459C525.7671 1264.4629 523.9731 1262.6752 523.9692 1260.4661 523.9653 1258.2568 525.753 1256.4629 527.9621 1256.459L527.9762 1264.459ZM543.81826 1256.381C546.0273 1256.3632 547.8326 1258.1394 547.85049 1260.3485 547.86837 1262.5576 546.092 1264.3628 543.88296 1264.3807L543.81826 1256.381ZM559.7609 1264.2017C557.552 1264.2337 555.7354 1262.4689 555.7034 1260.26 555.67147 1258.051 557.43618 1256.2345 559.6451 1256.2025L559.7609 1264.2017ZM575.4889 1255.9218C577.6975 1255.8755 579.5255 1257.6284 579.57186 1259.8372 579.6181 1262.0458 577.8652 1263.8738 575.65658 1263.92L575.4889 1255.9218ZM591.53958 1263.5352C589.33126 1263.596 587.4918 1261.855 587.431 1259.6467 587.37026 1257.4384 589.1112 1255.599 591.3195 1255.5382L591.53958 1263.5352ZM607.7432 1255.0296C609.95108 1254.9535 611.80258 1256.6815 611.8787 1258.8894 611.95486 1261.0972 610.22677 1262.9487 608.0189 1263.0248L607.7432 1255.0296ZM624.39956 1262.3988C622.1923 1262.4917 620.3277 1260.7778 620.2348 1258.5706 620.14187 1256.3634 621.8558 1254.4988 624.063 1254.4059L624.39956 1262.3988ZM640.57 1253.6406C642.7763 1253.5286 644.6557 1255.2262 644.7678 1257.4325 644.8799 1259.6388 643.1822 1261.5182 640.9759 1261.6303L640.57 1253.6406ZM657.15927 1260.7319C654.9541 1260.8652 653.05856 1259.1857 652.9253 1256.9805 652.79208 1254.7754 654.4716 1252.8798 656.67678 1252.7466L657.15927 1260.7319ZM673.2538 1251.6532C675.4572 1251.4951 677.3717 1253.1532 677.5298 1255.3566 677.6879 1257.56 676.02987 1259.4745 673.82638 1259.6327L673.2538 1251.6532ZM690.2799 1258.3483C688.0786 1258.5347 686.14309 1256.9014 685.9566 1254.7001 685.7702 1252.4988 687.40359 1250.5632 689.60488 1250.3768L690.2799 1258.3483ZM705.7793 1248.8898C707.9776 1248.6709 709.9371 1250.2755 710.156 1252.4738 710.3749 1254.672 708.7703 1256.6316 706.572 1256.8505L705.7793 1248.8898ZM722.9342 1255.0812C720.74008 1255.3383 718.7529 1253.768 718.49588 1251.5739 718.2388 1249.3798 719.809 1247.3927 722.0032 1247.1355L722.9342 1255.0812ZM738.3074 1245.0587C740.4957 1244.7562 742.5149 1246.285 742.8174 1248.4734 743.1199 1250.6618 741.59109 1252.6809 739.4028 1252.9834L738.3074 1245.0587ZM755.768 1250.5222C753.58779 1250.8784 751.5317 1249.3995 751.17556 1247.2194 750.81948 1245.0391 752.2982 1242.983 754.47848 1242.6268L755.768 1250.5222ZM770.51876 1239.7731C772.6877 1239.3535 774.7861 1240.7716 775.2057 1242.9406 775.6253 1245.1094 774.2072 1247.2079 772.03829 1247.6275L770.51876 1239.7731ZM788.1793 1244.2229C786.0261 1244.717 783.8801 1243.3721 783.386 1241.2189 782.8919 1239.0657 784.2368 1236.9197 786.39 1236.4255L788.1793 1244.2229ZM802.24307 1232.458C804.37466 1231.8778 806.573 1233.1355 807.15316 1235.2671 807.7333 1237.3987 806.4756 1239.597 804.344 1240.1771L802.24307 1232.458ZM820.2739 1235.4699C818.1695 1236.142 815.91867 1234.9808 815.2465 1232.8765 814.5744 1230.7721 815.7355 1228.5213 817.8399 1227.8491L820.2739 1235.4699ZM833.1978 1222.5848C835.2729 1221.8269 837.56948 1222.8948 838.32736 1224.9697 839.0852 1227.0448 838.0174 1229.3414 835.9423 1230.0994L833.1978 1222.5848ZM851.3784 1224.1815C849.32608 1224.9989 846.99966 1223.9978 846.18228 1221.9456 845.3648 1219.8932 846.3659 1217.5668 848.4182 1216.7494L851.3784 1224.1815ZM863.6197 1210.599C865.66659 1209.7681 867.9996 1210.7538 868.8305 1212.8007 869.66146 1214.8475 868.6757 1217.1806 866.6288 1218.0115L863.6197 1210.599ZM881.81137 1211.974C879.7498 1212.768 877.435 1211.7404 876.64108 1209.6788 875.8471 1207.6173 876.8747 1205.3025 878.9362 1204.5086L881.81137 1211.974ZM894.53219 1198.799C896.6204 1198.0783 898.8976 1199.1869 899.6183 1201.2752 900.339 1203.3635 899.23037 1205.6406 897.1421 1206.3613L894.53219 1198.799ZM912.5497 1201.3967C910.4333 1202.0302 908.20419 1200.8279 907.5708 1198.7114 906.93746 1196.5951 908.13967 1194.366 910.25607 1193.7326L912.5497 1201.3967ZM926.26437 1189.2997C928.4048 1188.753 930.5831 1190.045 931.1298 1192.1854 931.67648 1194.3258 930.38449 1196.5042 928.2441 1197.0509L926.26437 1189.2997ZM944.1785 1193.2962C942.0196 1193.7645 939.8898 1192.394 939.4214 1190.2351 938.953 1188.0762 940.3234 1185.9464 942.48239 1185.478L944.1785 1193.2962ZM958.7174 1182.2256C960.88986 1181.8244 962.97616 1183.2601 963.3774 1185.4326 963.7786 1187.605 962.3428 1189.6913 960.1704 1190.0925L958.7174 1182.2256ZM976.28109 1187.341C974.0989 1187.6852 972.05087 1186.1952 971.70669 1184.0131 971.3625 1181.8308 972.8525 1179.7828 975.0346 1179.4387L976.28109 1187.341ZM991.3662 1177.052C993.5554 1176.756 995.57009 1178.2907 995.8661 1180.4799 996.1621 1182.6692 994.6274 1184.6838 992.4382 1184.9799L991.3662 1177.052ZM1008.55819 1182.9564C1006.36386 1183.2118 1004.378 1181.6399 1004.1227 1179.4456 1003.8674 1177.2512 1005.4393 1175.2654 1007.6336 1175.0101L1008.55819 1182.9564ZM1023.95999 1173.2451C1026.1581 1173.0248 1028.1187 1174.628 1028.3391 1176.8262 1028.5596 1179.0243 1026.9563 1180.9849 1024.7582 1181.2053L1023.95999 1173.2451ZM1041.1261 1179.6807C1038.925 1179.8707 1036.9868 1178.2406 1036.7968 1176.0397 1036.6066 1173.8388 1038.2367 1171.9004 1040.4378 1171.7103L1041.1261 1179.6807ZM1057.007 1170.3818C1059.21 1170.2183 1061.1286 1171.8716 1061.2922 1174.0746 1061.4558 1176.2777 1059.8026 1178.1963 1057.5995 1178.3599L1057.007 1170.3818ZM1073.7387 1177.2463C1071.5339 1177.3873 1069.6325 1175.7144 1069.4916 1173.5098 1069.3506 1171.3052 1071.0234 1169.4036 1073.2282 1169.2627L1073.7387 1177.2463ZM1089.813 1168.2809C1092.0189 1168.1604 1093.9048 1169.8508 1094.0253 1172.0568 1094.1459 1174.2626 1092.4553 1176.1484 1090.2495 1176.269L1089.813 1168.2809ZM1106.5416 1175.4463C1104.3348 1175.549 1102.4628 1173.8433 1102.3601 1171.6365 1102.2575 1169.4297 1103.9633 1167.5576 1106.1699 1167.455L1106.5416 1175.4463ZM1122.6743 1166.7474C1124.8818 1166.6603 1126.742 1168.379 1126.8292 1170.5864 1126.9164 1172.7938 1125.1976 1174.654 1122.9902 1174.7412L1122.6743 1166.7474ZM1138.86 1174.1633C1136.6521 1174.2369 1134.8026 1172.5067 1134.729 1170.2988 1134.6554 1168.091 1136.3856 1166.2413 1138.5935 1166.1677L1138.86 1174.1633ZM1154.5374 1165.6853C1156.7457 1165.6253 1158.5846 1167.3668 1158.6447 1169.5751 1158.7047 1171.7835 1156.9631 1173.6223 1154.7549 1173.6824L1154.5374 1165.6853ZM1170.613 1173.2993C1168.4044 1173.346 1166.576 1171.5933 1166.5294 1169.3847 1166.4828 1167.176 1168.2355 1165.3478 1170.4441 1165.3012L1170.613 1173.2993ZM1186.4103 1165.0123C1188.6192 1164.979 1190.4368 1166.7427 1190.4701 1168.9515 1190.5033 1171.1604 1188.7396 1172.978 1186.5308 1173.0114L1186.4103 1165.0123ZM1202.3665 1172.8202C1200.1574 1172.8403 1198.3504 1171.0658 1198.3302 1168.8567 1198.3102 1166.6477 1200.0847 1164.8406 1202.2937 1164.8206L1202.3665 1172.8202ZM1218.2858 1164.7232C1220.4949 1164.7163 1222.2913 1166.5016 1222.2981 1168.7107 1222.3049 1170.9198 1220.5197 1172.7163 1218.3106 1172.7232L1218.2858 1164.7232ZM1234.1426 1172.7208C1231.9335 1172.7146 1230.1476 1170.9187 1230.1538 1168.7096 1230.16 1166.5005 1231.9559 1164.7146 1234.165 1164.7208L1234.1426 1172.7208ZM1250.1547 1164.8131C1252.3637 1164.8324 1254.1388 1166.6388 1254.1195 1168.8479 1254.1004 1171.0569 1252.2938 1172.832 1250.0848 1172.8128L1250.1547 1164.8131ZM1265.9501 1172.9978C1263.7412 1172.9656 1261.9767 1171.1488 1262.0089 1168.9398 1262.0411 1166.731 1263.8579 1164.9664 1266.0668 1164.9987L1265.9501 1172.9978ZM1282.0053 1165.2777C1284.2139 1165.3229 1285.9678 1167.1499 1285.9226 1169.3587 1285.8776 1171.5673 1284.0504 1173.3212 1281.8418 1173.2761L1282.0053 1165.2777ZM1297.7461 1173.6475C1295.5377 1173.5895 1293.7946 1171.7522 1293.8526 1169.5438 1293.9105 1167.3355 1295.7478 1165.5922 1297.9562 1165.6502L1297.7461 1173.6475ZM1313.822 1166.1128C1316.03 1166.1836 1317.7627 1168.0309 1317.6919 1170.2389 1317.6211 1172.4469 1315.7738 1174.1795 1313.5658 1174.1088L1313.822 1166.1128ZM1329.5147 1174.6664C1327.307 1174.5828 1325.5852 1172.7254 1325.6688 1170.5178 1325.7525 1168.3103 1327.6098 1166.5885 1329.8174 1166.6721L1329.5147 1174.6664ZM1345.7066 1167.3197C1347.9136 1167.416 1349.6246 1169.2832 1349.5283 1171.4902 1349.4319 1173.6973 1347.5647 1175.4085 1345.3577 1175.312L1345.7066 1167.3197ZM1361.2332 1176.0509C1359.0267 1175.9418 1357.3264 1174.0647 1357.4356 1171.8583 1357.5446 1169.6519 1359.4218 1167.9515 1361.6282 1168.0607L1361.2332 1176.0509ZM1377.5759 1168.8952C1379.7817 1169.017 1381.4711 1170.9038 1381.3493 1173.1096 1381.2274 1175.3154 1379.3406 1177.0048 1377.1348 1176.8829L1377.5759 1168.8952ZM1392.9362 1177.8013C1390.7312 1177.6668 1389.0526 1175.7702 1389.1871 1173.5651 1389.3217 1171.3601 1391.2183 1169.6817 1393.4234 1169.816L1392.9362 1177.8013ZM1409.3661 1170.835C1411.5703 1170.9822 1413.2378 1172.8886 1413.0905 1175.0928 1412.9432 1177.297 1411.0369 1178.9645 1408.8327 1178.8171L1409.3661 1170.835ZM1424.7086 1179.9243C1422.5054 1179.7642 1420.849 1177.8483 1421.009 1175.6449 1421.1692 1173.4417 1423.0851 1171.7853 1425.2885 1171.9453L1424.7086 1179.9243ZM1441.1244 1173.1421C1443.3268 1173.315 1444.972 1175.2405 1444.7992 1177.4429 1444.6262 1179.6453 1442.7008 1181.2904 1440.4984 1181.1176L1441.1244 1173.1421ZM1456.3463 1182.4082C1454.1449 1182.2224 1452.511 1180.2874 1452.6968 1178.086 1452.8826 1175.8848 1454.8178 1174.2509 1457.019 1174.4367L1456.3463 1182.4082ZM1472.942 1175.8279C1475.1422 1176.0266 1476.7645 1177.9714 1476.5658 1180.1716 1476.367 1182.3718 1474.4223 1183.9942 1472.222 1183.7954L1472.942 1175.8279ZM1488.0326 1185.2714C1485.8336 1185.0596 1484.2228 1183.1051 1484.4347 1180.9061 1484.6466 1178.7073 1486.601 1177.0964 1488.7999 1177.3084L1488.0326 1185.2714ZM1504.6011 1178.8788C1506.7987 1179.1039 1508.3977 1181.0679 1508.1726 1183.2656 1507.9475 1185.4633 1505.9835 1187.0623 1503.7859 1186.8372L1504.6011 1178.8788ZM1519.5833 1188.5039C1517.387 1188.2654 1515.7999 1186.2916 1516.0385 1184.0955 1516.277 1181.8992 1518.2509 1180.3123 1520.447 1180.5508L1519.5833 1188.5039ZM1536.3351 1182.3264C1538.5298 1182.5786 1540.1045 1184.5623 1539.8522 1186.757 1539.6 1188.9517 1537.6163 1190.5264 1535.4216 1190.274L1536.3351 1182.3264ZM1551.223 1192.141C1549.0299 1191.8748 1547.4679 1189.8811 1547.7341 1187.6881 1548.0004 1185.4951 1549.994 1183.9331 1552.187 1184.1992L1551.223 1192.141ZM1568.0127 1186.1726C1570.204 1186.4531 1571.7529 1188.4569 1571.4724 1190.6482 1571.1918 1192.8395 1569.188 1194.3884 1566.9968 1194.1078L1568.0127 1186.1726ZM1582.7505 1196.1785C1580.5612 1195.8832 1579.0258 1193.869 1579.3212 1191.6797 1579.6165 1189.4904 1581.6307 1187.955 1583.82 1188.2504L1582.7505 1196.1785ZM1599.6095 1190.4365C1601.7968 1190.7472 1603.3179 1192.7722 1603.0071 1194.9594 1602.6964 1197.1465 1600.6714 1198.6677 1598.4843 1198.3569L1599.6095 1190.4365ZM1614.1798 1200.6456C1611.995 1200.3187 1610.4889 1198.2826 1610.8158 1196.0978 1611.1428 1193.913 1613.179 1192.4069 1615.3638 1192.7338L1614.1798 1200.6456ZM1631.0231 1195.1398C1633.2052 1195.484 1634.6951 1197.532 1634.3508 1199.7142 1634.0066 1201.8964 1631.9585 1203.3862 1629.7764 1203.042L1631.0231 1195.1398ZM1645.5836 1205.6062C1643.4047 1205.2427 1641.933 1203.1814 1642.2966 1201.0025 1642.6603 1198.8234 1644.7214 1197.3518 1646.9004 1197.7153L1645.5836 1205.6062ZM1662.5687 1200.4099C1664.7439 1200.7958 1666.1943 1202.872 1665.8084 1205.0471 1665.4225 1207.2223 1663.3463 1208.6729 1661.1712 1208.2869L1662.5687 1200.4099ZM1676.8108 1211.1661C1674.6412 1210.7498 1673.22 1208.6535 1673.6364 1206.4839 1674.0526 1204.3143 1676.1489 1202.8931 1678.3185 1203.3095L1676.8108 1211.1661ZM0 1208.7553C.884489 1204.8543 .884442 1204.8543 .884405 1204.8543 .884406 1204.8543 .884379 1204.8543 .884381 1204.8543 .884385 1204.8543 .884428 1204.8543 .884512 1204.8543 .884679 1204.8544 .885006 1204.8544 .885493 1204.8545 .886466 1204.8547 .888077 1204.8551 .890325 1204.8556 .894822 1204.8566 .901868 1204.8582 .911458 1204.8604 .930637 1204.8648 .95999 1204.8713 .999468 1204.8801 1.078425 1204.898 1.197883 1204.9247 1.357456 1204.9602 1.676604 1205.0314 2.156213 1205.1376 2.793196 1205.2769 4.067166 1205.5556 5.970621 1205.9666 8.478874 1206.4943L6.831872 1214.3229C4.302393 1213.7908 2.378161 1213.3753 1.083878 1213.0922 .436735 1212.9506-.052925 1212.8422-.382014 1212.7688-.546559 1212.7322-.670961 1212.7044-.754836 1212.6854-.796773 1212.676-.828578 1212.6688-.850203 1212.664-.861016 1212.6615-.869283 1212.6597-.874999 1212.6585-.877858 1212.6577-.880078 1212.6572-.88166 1212.6569-.882451 1212.6567-.883082 1212.6566-.883554 1212.6565-.883789 1212.6564-.883985 1212.6564-.884141 1212.6564-.884219 1212.6563-.884306 1212.6563-.884345 1212.6563-.884422 1212.6563-.884489 1212.6563 0 1208.7553ZM23.905348 1209.6299C28.468106 1210.5294 33.67592 1211.5342 39.498868 1212.625L38.02594 1220.4882C32.17755 1219.3927 26.944903 1218.383 22.357926 1217.4788L23.905348 1209.6299ZM55.041616 1215.4699C59.958 1216.3496 65.18207 1217.2659 70.70256 1218.2114L69.35197 1226.0966C63.811635 1225.1476 58.568078 1224.2279 53.63256 1223.3449L55.041616 1215.4699ZM86.36712 1220.8381C91.386287 1221.6621 96.6027 1222.5017 102.009929 1223.3529L100.76589 1231.2556C95.341098 1230.4016 90.107379 1229.5592 85.071178 1228.7324L86.36712 1220.8381ZM117.63865 1225.7623C122.70773 1226.5276 127.920047 1227.2987 133.2712 1228.073L132.12555 1235.9906C126.758 1235.2139 121.52953 1234.4403 116.44453 1233.6727L117.63865 1225.7623ZM148.9268 1230.2904C154.04764 1231.0001 159.28061 1231.7102 164.62236 1232.4185L163.5708 1240.3491C158.21329 1239.6387 152.96475 1238.9265 147.82857 1238.2147L148.9268 1230.2904ZM180.37125 1234.46C185.5432 1235.1152 190.80689 1235.7671 196.15958 1236.4138L195.19995 1244.356C189.8318 1243.7074 184.55287 1243.0537 179.36585 1242.3966L180.37125 1234.46ZM211.80974 1238.2598C216.9789 1238.8546 222.22382 1239.4436 227.54228 1240.0253L226.67259 1247.9778C221.33898 1247.3945 216.07907 1246.8038 210.8951 1246.2073L211.80974 1238.2598ZM243.36067 1241.7098C248.53942 1242.2466 253.78237 1242.7754 259.08763 1243.2952L258.3076 1251.257C252.98729 1250.7357 247.72946 1250.2055 242.536 1249.6672L243.36067 1241.7098ZM274.8335 1244.7932C280.0605 1245.2758 285.34358 1245.7487 290.68107 1246.211L289.99067 1254.1812C284.638 1253.7175 279.33995 1253.2432 274.09815 1252.7593L274.8335 1244.7932ZM306.4165 1247.5297C311.6325 1247.9519 316.89695 1248.3635 322.20838 1248.7634L321.60774 1256.7409C316.28114 1256.3399 311.00169 1255.9271 305.77085 1255.5036L306.4165 1247.5297ZM338.066 1249.9121C343.27174 1250.2743 348.51966 1250.6248 353.8085 1250.9627L353.2985 1258.9464C347.9944 1258.6076 342.73139 1258.2561 337.51075 1257.8928L338.066 1249.9121ZM369.66737 1251.9302C374.8928 1252.2338 380.15577 1252.5248 385.455 1252.8023L385.0367 1260.7913C379.72203 1260.5131 374.44377 1260.2212 369.20317 1259.9166L369.66737 1251.9302ZM401.27958 1253.5848C406.52986 1253.8291 411.81364 1254.0598 417.12974 1254.2761L416.80458 1262.2694C411.47273 1262.0526 406.17335 1261.8212 400.90766 1261.5762L401.27958 1253.5848ZM432.92668 1254.8723C438.19486 1255.0556 443.49305 1255.2244 448.82008 1255.3779L448.58958 1263.3745C443.2465 1263.2206 437.93244 1263.0513 432.64848 1262.8674L432.92668 1254.8723ZM464.59568 1255.7855C469.86518 1255.9059 475.1613 1256.0111 480.48307 1256.1004L480.3489 1264.0991C475.01078 1264.0097 469.69847 1263.9042 464.41297 1263.7835L464.59568 1255.7855ZM496.27674 1256.3171C501.5435 1256.3733 506.83393 1256.4136 512.1471 1256.4374L512.11129 1264.4374C506.7814 1264.4135 501.47447 1264.373 496.19136 1264.3167L496.27674 1256.3171ZM527.9621 1256.459C533.22677 1256.4497 538.51248 1256.424 543.81826 1256.381L543.88296 1264.3807C538.5601 1264.4238 533.25759 1264.4497 527.9762 1264.459L527.9621 1256.459ZM559.6451 1256.2025C564.908 1256.1262 570.1896 1256.0328 575.4889 1255.9218L575.65658 1263.92C570.3398 1264.0315 565.04098 1264.1251 559.7609 1264.2017L559.6451 1256.2025ZM591.3195 1255.5382C593.96646 1255.4653 596.61758 1255.3881 599.2727 1255.3062L599.51937 1263.3023C596.8553 1263.3845 594.1953 1263.462 591.53958 1263.5352L591.3195 1255.5382ZM599.2727 1255.3062C602.13137 1255.2179 604.95468 1255.1257 607.7432 1255.0296L608.0189 1263.0248C605.2205 1263.1213 602.3875 1263.2139 599.51937 1263.3023L599.2727 1255.3062ZM624.063 1254.4059C629.71566 1254.1679 635.216 1253.9126 640.57 1253.6406L640.9759 1261.6303C635.598 1261.9035 630.07449 1262.1599 624.39956 1262.3988L624.063 1254.4059ZM656.67678 1252.7466C662.378 1252.4021 667.9009 1252.0372 673.2538 1251.6532L673.82638 1259.6327C668.4423 1260.019 662.8894 1260.3858 657.15927 1260.7319L656.67678 1252.7466ZM689.60488 1250.3768C695.19357 1249.9036 700.5812 1249.4075 705.7793 1248.8898L706.572 1256.8505C701.33309 1257.3722 695.90628 1257.8718 690.2799 1258.3483L689.60488 1250.3768ZM722.0032 1247.1355C727.6785 1246.4706 733.1068 1245.7776 738.3074 1245.0587L739.4028 1252.9834C734.1451 1253.7101 728.662 1254.41 722.9342 1255.0812L722.0032 1247.1355ZM754.47848 1242.6268C760.1072 1241.7075 765.44308 1240.755 770.51876 1239.7731L772.03829 1247.6275C766.8832 1248.6248 761.4706 1249.5908 755.768 1250.5222L754.47848 1242.6268ZM786.39 1236.4255C791.9935 1235.1397 797.2575 1233.815 802.24307 1232.458L804.344 1240.1771C799.2542 1241.5625 793.88638 1242.9133 788.1793 1244.2229L786.39 1236.4255ZM817.8399 1227.8491C823.2254 1226.129 828.3083 1224.3706 833.1978 1222.5848L835.9423 1230.0994C830.9631 1231.9179 825.77609 1233.7125 820.2739 1235.4699L817.8399 1227.8491ZM848.4182 1216.7494C853.5316 1214.7127 858.53439 1212.6633 863.6197 1210.599L866.6288 1218.0115C861.5741 1220.0635 856.5245 1222.1318 851.3784 1224.1815L848.4182 1216.7494ZM878.9362 1204.5086C883.9202 1202.5891 889.07968 1200.6808 894.53219 1198.799L897.1421 1206.3613C891.7957 1208.2064 886.7263 1210.0812 881.81137 1211.974L878.9362 1204.5086ZM910.25607 1193.7326C915.29739 1192.2239 920.61068 1190.7437 926.26437 1189.2997L928.2441 1197.0509C922.69668 1198.4677 917.48806 1199.9188 912.5497 1201.3967L910.25607 1193.7326ZM942.48239 1185.478C947.6181 1184.3638 953.0176 1183.2783 958.7174 1182.2256L960.1704 1190.0925C954.54916 1191.1307 949.2308 1192.2 944.1785 1193.2962L942.48239 1185.478ZM975.0346 1179.4387C980.242 1178.6173 985.6789 1177.821 991.3662 1177.052L992.4382 1184.9799C986.8067 1185.7413 981.428 1186.5292 976.28109 1187.341L975.0346 1179.4387ZM1007.6336 1175.0101C1012.87637 1174.4 1018.31417 1173.8113 1023.95999 1173.2451L1024.7582 1181.2053C1019.1528 1181.7673 1013.75717 1182.3516 1008.55819 1182.9564L1007.6336 1175.0101ZM1040.4378 1171.7103C1045.7857 1171.2485 1051.3058 1170.8053 1057.007 1170.3818L1057.5995 1178.3599C1051.9291 1178.7811 1046.4409 1179.2217 1041.1261 1179.6807L1040.4378 1171.7103ZM1073.2282 1169.2627C1078.6044 1168.919 1084.1306 1168.5914 1089.813 1168.2809L1090.2495 1176.269C1084.591 1176.5783 1079.0894 1176.9042 1073.7387 1177.2463L1073.2282 1169.2627ZM1106.1699 1167.455C1108.9661 1167.325 1111.7977 1167.1987 1114.6654 1167.0764L1115.0062 1175.0692C1112.1487 1175.191 1109.3274 1175.3168 1106.5416 1175.4463L1106.1699 1167.455ZM1114.6654 1167.0764C1117.3405 1166.9624 1120.0101 1166.8528 1122.6743 1166.7474L1122.9902 1174.7412C1120.3342 1174.8462 1117.6729 1174.9555 1115.0062 1175.0692L1114.6654 1167.0764ZM1138.5935 1166.1677C1143.9314 1165.9899 1149.2462 1165.8292 1154.5374 1165.6853L1154.7549 1173.6824C1149.48 1173.8258 1144.1814 1173.986 1138.86 1174.1633L1138.5935 1166.1677ZM1170.4441 1165.3012C1175.792 1165.1881 1181.1143 1165.092 1186.4103 1165.0123L1186.5308 1173.0114C1181.2509 1173.091 1175.9446 1173.1868 1170.613 1173.2993L1170.4441 1165.3012ZM1202.2937 1164.8206C1207.6531 1164.7719 1212.984 1164.7396 1218.2858 1164.7232L1218.3106 1172.7232C1213.0247 1172.7395 1207.7097 1172.7716 1202.3665 1172.8202L1202.2937 1164.8206ZM1234.165 1164.7208C1239.5267 1164.736 1244.8569 1164.7669 1250.1547 1164.8131L1250.0848 1172.8128C1244.8027 1172.7667 1239.4884 1172.7359 1234.1426 1172.7208L1234.165 1164.7208ZM1266.0668 1164.9987C1271.4148 1165.0767 1276.728 1165.1699 1282.0053 1165.2777L1281.8418 1173.2761C1276.58 1173.1686 1271.2825 1173.0756 1265.9501 1172.9978L1266.0668 1164.9987ZM1297.9562 1165.6502C1303.2838 1165.7902 1308.5729 1165.9446 1313.822 1166.1128L1313.5658 1174.1088C1308.3318 1173.941 1303.0582 1173.787 1297.7461 1173.6475L1297.9562 1165.6502ZM1329.8174 1166.6721C1335.1577 1166.8743 1340.4546 1167.0905 1345.7066 1167.3197L1345.3577 1175.312C1340.121 1175.0835 1334.8395 1174.868 1329.5147 1174.6664L1329.8174 1166.6721ZM1361.6282 1168.0607C1366.9943 1168.3259 1372.3107 1168.6044 1377.5759 1168.8952L1377.1348 1176.8829C1371.8848 1176.593 1366.5838 1176.3153 1361.2332 1176.0509L1361.6282 1168.0607ZM1393.4234 1169.816C1398.7948 1170.1438 1404.1096 1170.4838 1409.3661 1170.835L1408.8327 1178.8171C1403.5916 1178.4669 1398.2922 1178.1279 1392.9362 1177.8013L1393.4234 1169.816ZM1425.2885 1171.9453C1430.6325 1172.3336 1435.9116 1172.7329 1441.1244 1173.1421L1440.4984 1181.1176C1435.3009 1180.7096 1430.0371 1180.3114 1424.7086 1179.9243L1425.2885 1171.9453ZM1457.019 1174.4367C1462.4042 1174.8911 1467.7124 1175.3554 1472.942 1175.8279L1472.222 1183.7954C1467.008 1183.3242 1461.7155 1182.8615 1456.3463 1182.4082L1457.019 1174.4367ZM1488.7999 1177.3084C1494.1582 1177.8247 1499.426 1178.3488 1504.6011 1178.8788L1503.7859 1186.8372C1498.6267 1186.3087 1493.3748 1185.7863 1488.0326 1185.2714L1488.7999 1177.3084ZM1520.447 1180.5508C1525.8566 1181.1383 1531.1536 1181.7308 1536.3351 1182.3264L1535.4216 1190.274C1530.2565 1189.6804 1524.9761 1189.0897 1519.5833 1188.5039L1520.447 1180.5508ZM1552.187 1184.1992C1557.6067 1184.8572 1562.8833 1185.5159 1568.0127 1186.1726L1566.9968 1194.1078C1561.8844 1193.4533 1556.6251 1192.7968 1551.223 1192.141L1552.187 1184.1992ZM1583.82 1188.2504C1589.28 1188.9868 1594.5452 1189.7169 1599.6095 1190.4365L1598.4843 1198.3569C1593.4382 1197.64 1588.1917 1196.9125 1582.7505 1196.1785L1583.82 1188.2504ZM1615.3638 1192.7338C1620.8821 1193.5596 1626.1051 1194.3639 1631.0231 1195.1398L1629.7764 1203.042C1624.879 1202.2694 1619.6768 1201.4683 1614.1798 1200.6456L1615.3638 1192.7338ZM1646.9004 1197.7153C1652.7474 1198.691 1657.9793 1199.5956 1662.5687 1200.4099L1661.1712 1208.2869C1656.6079 1207.4773 1651.4031 1206.5774 1645.5836 1205.6062L1646.9004 1197.7153ZM1678.3185 1203.3095C1680.8544 1203.7962 1682.7819 1204.1777 1684.0781 1204.4382 1684.7262 1204.5685 1685.2166 1204.6685 1685.5462 1204.7362 1685.7109 1204.77 1685.8356 1204.7958 1685.9197 1204.8132 1685.9617 1204.822 1685.9937 1204.8286 1686.0154 1204.8333 1686.0263 1204.8355 1686.0346 1204.8372 1686.0403 1204.8384 1686.0432 1204.839 1686.0454 1204.8395 1686.0471 1204.8399 1686.0479 1204.84 1686.0486 1204.8401 1686.0491 1204.8402 1686.0493 1204.8403 1686.0494 1204.8403 1686.0497 1204.8403L1686.0498 1204.8405C1686.0499 1204.8405 1686.05 1204.8405 1685.2289 1208.7553 1684.4078 1212.67 1684.4078 1212.67 1684.408 1212.67 1684.408 1212.6702 1684.408 1212.67 1684.4078 1212.67 1684.4077 1212.67 1684.4074 1212.6699 1684.4069 1212.6699 1684.406 1212.6697 1684.4044 1212.6693 1684.4022 1212.669 1684.3977 1212.668 1684.3908 1212.6665 1684.3812 1212.6646 1684.3622 1212.6605 1684.333 1212.6544 1684.2937 1212.6463 1684.215 1212.63 1684.0958 1212.6054 1683.9365 1212.5726 1683.6179 1212.5072 1683.1387 1212.4094 1682.5018 1212.2814 1681.228 1212.0254 1679.3234 1211.6483 1676.8108 1211.1661L1678.3185 1203.3095Z" fill="#ff9c77"/>
</g>
</g>
</g>
<path transform="matrix(.183839,.982956,.982956,-.183839,32.45945,105.73103)" d="M24 16.00293C24 9.375513 18.627417 4.00293 12 4.00293 5.372583 4.00293 0 9.375513 0 16.00293 0 22.630347 5.372583 28.00293 12 28.00293 18.627417 28.00293 24 22.630347 24 16.00293Z" fill="#7e1cc4"/>
</g>
</svg>
