<svg width="22" height="22" viewBox="0 0 22 22" fill="none" xmlns="http://www.w3.org/2000/svg">
<path id="Vector" d="M11 0C4.9347 0 0 4.93422 0 11C0 17.0658 4.9347 22 11 22C17.0653 22 22 17.0658 22 11C22 4.93422 17.0653 0 11 0ZM7.65217 15.7826H5.73913V8.6087H7.65217V15.7826ZM6.69565 7.17391C6.16717 7.17391 5.73913 6.74587 5.73913 6.21739C5.73913 5.68891 6.16717 5.26087 6.69565 5.26087C7.22413 5.26087 7.65217 5.68891 7.65217 6.21739C7.65217 6.74587 7.22413 7.17391 6.69565 7.17391ZM16.7391 15.7826H14.8261V13.3913V12.1957C14.8261 11.275 14.0728 10.5217 13.1522 10.5217C12.2315 10.5217 11.4783 11.275 11.4783 12.1957V15.7826H9.56522V8.6087H11.4783V9.47722C12.0369 8.94061 12.7944 8.6087 13.6304 8.6087C15.3474 8.6087 16.7391 10.0004 16.7391 11.7174V15.7826Z" fill="#7E1CC4"/>
</svg>
