<svg width="339" height="379" viewBox="0 0 339 379" fill="none" xmlns="http://www.w3.org/2000/svg">
<g filter="url(#filter0_d_1012_51)">
<path fill-rule="evenodd" clip-rule="evenodd" d="M141.839 99.5956C142.065 99.8899 142.264 100.205 142.431 100.537C149.015 110.906 156.259 121.362 162.843 130.859C167.05 136.926 170.987 142.609 174.367 147.698C177.73 142.609 181.673 136.914 185.891 130.859C188.233 127.478 190.66 123.973 193.113 120.398V120.399C193.257 120.156 193.416 119.924 193.59 119.703C209.888 95.8583 227.095 68.8709 227.095 53.1516C227.095 34.1634 217.042 16.615 200.725 7.12058C184.407 -2.37353 164.304 -2.37353 147.986 7.12058C131.669 16.6147 121.616 34.162 121.616 53.1516C121.616 64.5453 130.669 81.8524 141.84 99.6043L141.839 99.5956ZM179.022 29.5088C180.47 30.9669 181.162 33.0217 180.896 35.0672C180.629 37.114 179.434 38.9179 177.661 39.9506C175.888 40.9821 173.739 41.1252 171.848 40.3354C169.956 39.5456 168.536 37.9133 168.007 35.9207C167.478 33.928 167.899 31.8001 169.144 30.1625C170.392 28.5261 172.323 27.5675 174.37 27.5675C176.115 27.5689 177.788 28.2666 179.022 29.5088ZM174.37 15.527C180.128 15.527 185.558 18.2259 189.062 22.8284C192.567 27.4322 193.748 33.4161 192.259 39.0205C190.77 44.6249 186.778 49.2124 181.46 51.4335C176.141 53.6544 170.101 53.2575 165.115 50.3574C160.127 47.4574 156.763 42.3851 156.01 36.6321C155.258 30.8805 157.201 25.1022 161.271 20.9979C164.741 17.4904 169.455 15.5215 174.37 15.527ZM219.353 282.08C210.482 278.049 202.21 272.793 194.776 266.465C191.204 263.719 187.652 260.99 184.487 258.825C179.287 255.176 173.668 252.177 167.754 249.887C162.295 247.828 156.574 246.558 150.761 246.112C144.55 245.696 138.311 245.854 132.127 246.585C126.2 247.223 120.472 248.244 115.665 249.169V336.748L219.374 370.999L219.375 282.079L219.353 282.08ZM115.645 236.931V102.515L133.284 108.322C139.741 118.459 146.712 128.521 153.087 137.711C159.54 147.023 165.359 155.413 169.211 161.808V161.81C170.268 163.635 172.202 164.765 174.3 164.783C176.397 164.8 178.35 163.704 179.438 161.896C183.289 155.488 189.13 147.06 195.615 137.711C197.232 135.372 198.908 132.979 200.553 130.545L219.327 136.766L219.328 268.925C213.246 265.375 207.448 261.354 201.985 256.897C198.458 254.188 194.952 251.504 191.141 248.884H191.142C185.155 244.696 178.69 241.25 171.886 238.623C165.391 236.165 158.586 234.641 151.671 234.098C144.729 233.627 137.757 233.801 130.847 234.617C125.328 235.213 120.147 236.064 115.621 236.906L115.645 236.931ZM293.595 213.206C291.274 210.868 288.005 209.75 284.749 210.182C281.495 210.614 278.625 212.547 276.983 215.414C275.342 218.279 275.117 221.751 276.374 224.808C277.63 227.863 280.226 230.157 283.397 231.013C286.568 231.87 289.954 231.191 292.558 229.177C295.162 227.163 296.69 224.043 296.69 220.735C296.695 217.91 295.581 215.2 293.595 213.206ZM303.509 206.321C305.566 203.699 307.59 201.244 309.595 199.016L309.596 199.018C312.102 196.184 314.82 193.55 317.728 191.137C322.739 187.048 328.668 184.258 334.996 183.012V336.748L231.287 370.998V284.338C235.517 284.295 239.698 283.434 243.604 281.8C250.728 278.657 257.069 273.957 262.165 268.038C268.862 260.125 274.789 251.583 279.862 242.527C286.059 244.332 292.728 243.369 298.175 239.885C303.622 236.4 307.323 230.728 308.34 224.307C309.357 217.887 307.593 211.335 303.492 206.314L303.509 206.321ZM286.125 198.046V198.047C280.236 198.047 274.581 200.372 270.375 204.525C266.167 208.678 263.742 214.327 263.619 220.261C263.496 226.194 265.686 231.94 269.717 236.266C265.016 244.665 259.535 252.596 253.35 259.953C249.452 264.534 244.596 268.19 239.131 270.658C236.643 271.699 233.984 272.262 231.292 272.317V136.761L335 102.514V170.779C325.925 172.134 317.38 175.931 310.267 181.771C306.875 184.588 303.704 187.664 300.781 190.97C298.428 193.583 296.086 196.411 293.786 199.386H293.785C291.333 198.493 288.746 198.038 286.139 198.042L286.125 198.046ZM40.7433 250.834C38.4203 248.493 35.1491 247.372 31.891 247.806C28.633 248.238 25.7608 250.172 24.1184 253.04C22.4746 255.908 22.2496 259.383 23.5075 262.442C24.7641 265.502 27.363 267.797 30.5366 268.653C33.7103 269.51 37.0997 268.83 39.7051 266.814C42.3121 264.797 43.8394 261.674 43.8394 258.363C43.8421 255.538 42.7273 252.829 40.7433 250.834ZM54.6743 265.421C56.5096 265.807 58.3127 266.217 60.0034 266.598C62.2058 267.096 64.2581 267.561 65.1436 267.739V267.74C68.5115 268.541 71.9786 268.844 75.4321 268.639C78.5227 268.379 81.4859 267.282 84.0087 265.467C86.0155 264.004 87.9217 262.407 89.7171 260.689C91.7828 258.698 94.0067 256.88 96.3631 255.252C98.5548 253.885 100.918 252.822 103.388 252.087L103.7 251.991L103.702 336.75L0 371V297.484C5.41212 289.534 11.3819 281.981 17.8602 274.885C23.4733 280.195 31.3893 282.247 38.8485 280.327C46.3077 278.407 52.2771 272.78 54.6764 265.407L54.6743 265.421ZM33.2748 235.675C26.2618 235.682 19.6504 238.979 15.393 244.595C11.1342 250.21 9.71305 257.505 11.5496 264.326C11.0003 264.832 10.5194 265.299 10.1054 265.727L10.1041 265.729C6.5072 269.41 3.13256 273.308 0.0017583 277.399V136.766L103.71 102.519V239.495C102.32 239.856 101.023 240.226 99.8051 240.611V240.612C96.3248 241.665 93.0023 243.189 89.9277 245.14C87.018 247.125 84.2797 249.354 81.7425 251.802C80.3453 253.14 78.8649 254.386 77.3095 255.535C76.4535 256.176 75.4407 256.575 74.3797 256.688C72.0567 256.745 69.7378 256.488 67.4819 255.924C65.3425 255.509 64.0297 255.197 62.6257 254.879C60.3295 254.36 57.847 253.8 55.2173 253.286L55.2186 253.287C54.0718 248.286 51.2788 243.824 47.2947 240.628C43.3093 237.433 38.3674 235.691 33.2752 235.688L33.2748 235.675Z" fill="#7E1CC4"/>
</g>
<defs>
<filter id="filter0_d_1012_51" x="0" y="0" width="339" height="379" filterUnits="userSpaceOnUse" color-interpolation-filters="sRGB">
<feFlood flood-opacity="0" result="BackgroundImageFix"/>
<feColorMatrix in="SourceAlpha" type="matrix" values="0 0 0 0 0 0 0 0 0 0 0 0 0 0 0 0 0 0 127 0" result="hardAlpha"/>
<feOffset dx="4" dy="8"/>
<feComposite in2="hardAlpha" operator="out"/>
<feColorMatrix type="matrix" values="0 0 0 0 1 0 0 0 0 0.611765 0 0 0 0 0.466667 0 0 0 1 0"/>
<feBlend mode="normal" in2="BackgroundImageFix" result="effect1_dropShadow_1012_51"/>
<feBlend mode="normal" in="SourceGraphic" in2="effect1_dropShadow_1012_51" result="shape"/>
</filter>
</defs>
</svg>
