<svg xmlns="http://www.w3.org/2000/svg" width="282" height="379" viewBox="0 0 282 379" fill="none">
  <g filter="url(#filter0_d_361_45)">
    <path fill-rule="evenodd" clip-rule="evenodd" d="M84.8388 99.5956C85.0652 99.8899 85.2635 100.205 85.431 100.537C92.0153 110.906 99.2588 121.362 105.843 130.859C110.05 136.926 113.987 142.609 117.367 147.698C120.73 142.609 124.673 136.914 128.891 130.859C131.233 127.478 133.66 123.973 136.113 120.398V120.399C136.257 120.156 136.416 119.924 136.59 119.703C152.888 95.8583 170.095 68.8708 170.095 53.1516C170.095 34.1634 160.042 16.615 143.725 7.12058C127.407 -2.37353 107.304 -2.37353 90.9859 7.12058C74.669 16.6147 64.6161 34.162 64.6161 53.1516C64.6161 64.5453 73.6693 81.8524 84.8396 99.6043L84.8388 99.5956ZM122.022 29.5088C123.47 30.9669 124.162 33.0217 123.896 35.0672C123.629 37.114 122.434 38.9179 120.661 39.9506C118.888 40.9821 116.739 41.1252 114.848 40.3354C112.956 39.5456 111.536 37.9133 111.007 35.9207C110.478 33.928 110.899 31.8001 112.144 30.1625C113.392 28.5261 115.323 27.5675 117.37 27.5675C119.115 27.5689 120.788 28.2666 122.022 29.5088ZM117.37 15.527C123.128 15.527 128.558 18.2259 132.062 22.8284C135.567 27.4322 136.748 33.4161 135.259 39.0205C133.77 44.6249 129.778 49.2124 124.46 51.4335C119.141 53.6544 113.101 53.2575 108.115 50.3574C103.127 47.4574 99.7632 42.3851 99.0104 36.6321C98.2575 30.8805 100.201 25.1022 104.271 20.9979C107.741 17.4904 112.455 15.5215 117.37 15.527ZM162.353 282.08C153.482 278.049 145.21 272.793 137.776 266.465C134.204 263.719 130.652 260.99 127.487 258.825C122.287 255.176 116.668 252.177 110.754 249.887C105.295 247.828 99.5741 246.558 93.7614 246.112C87.5495 245.696 81.3105 245.854 75.1268 246.585C69.2002 247.223 63.4719 248.244 58.6651 249.169V336.748L162.374 370.999L162.375 282.079L162.353 282.08ZM58.6445 236.931V102.515L76.2839 108.322C82.741 118.459 89.7125 128.521 96.0866 137.711C102.54 147.023 108.359 155.413 112.211 161.808V161.81C113.268 163.635 115.202 164.765 117.3 164.783C119.397 164.8 121.35 163.704 122.438 161.896C126.289 155.488 132.13 147.06 138.615 137.711C140.232 135.372 141.908 132.979 143.553 130.545L162.327 136.766L162.328 268.925C156.246 265.375 150.448 261.354 144.985 256.897C141.458 254.188 137.952 251.504 134.141 248.884H134.142C128.155 244.696 121.69 241.25 114.886 238.623C108.391 236.165 101.586 234.641 94.6708 234.098C87.7288 233.627 80.7573 233.801 73.8472 234.617C68.3277 235.213 63.1474 236.064 58.6208 236.906L58.6445 236.931ZM236.595 213.206C234.274 210.868 231.005 209.75 227.749 210.182C224.495 210.614 221.625 212.547 219.983 215.414C218.342 218.279 218.117 221.751 219.374 224.808C220.63 227.863 223.226 230.157 226.397 231.013C229.568 231.87 232.954 231.191 235.558 229.177C238.162 227.163 239.69 224.043 239.69 220.735C239.695 217.91 238.581 215.2 236.595 213.206ZM246.509 206.321C248.566 203.699 250.59 201.244 252.595 199.016L252.596 199.018C255.102 196.184 257.82 193.55 260.728 191.137C265.739 187.048 271.668 184.258 277.996 183.012V336.748L174.287 370.998V284.338C178.517 284.295 182.698 283.434 186.604 281.8C193.728 278.657 200.069 273.957 205.165 268.038C211.862 260.125 217.789 251.583 222.862 242.527C229.059 244.332 235.728 243.369 241.175 239.885C246.622 236.4 250.323 230.728 251.34 224.307C252.357 217.887 250.593 211.335 246.492 206.314L246.509 206.321ZM229.125 198.046V198.047C223.236 198.047 217.581 200.372 213.375 204.525C209.167 208.678 206.742 214.327 206.619 220.261C206.496 226.194 208.686 231.94 212.717 236.266C208.016 244.665 202.535 252.596 196.35 259.953C192.452 264.534 187.596 268.19 182.131 270.658C179.643 271.699 176.984 272.262 174.292 272.317V136.761L278 102.514V170.779C268.925 172.134 260.38 175.931 253.267 181.771C249.875 184.588 246.704 187.664 243.781 190.97C241.428 193.583 239.086 196.411 236.786 199.386H236.785C234.333 198.493 231.746 198.038 229.139 198.042L229.125 198.046ZM-16.2567 250.834C-18.5797 248.493 -21.8509 247.372 -25.109 247.806C-28.367 248.238 -31.2392 250.172 -32.8816 253.04C-34.5254 255.908 -34.7504 259.383 -33.4925 262.442C-32.2359 265.502 -29.637 267.797 -26.4634 268.653C-23.2897 269.51 -19.9003 268.83 -17.2949 266.814C-14.6879 264.797 -13.1606 261.674 -13.1606 258.363C-13.1579 255.538 -14.2727 252.829 -16.2567 250.834ZM-2.3257 265.421C-0.490356 265.807 1.31268 266.217 3.00343 266.598C5.20583 267.096 7.25808 267.561 8.14359 267.739V267.74C11.5115 268.541 14.9786 268.844 18.4321 268.639C21.5227 268.379 24.4859 267.282 27.0087 265.467C29.0155 264.004 30.9217 262.407 32.7171 260.689C34.7828 258.698 37.0067 256.88 39.3631 255.252C41.5548 253.885 43.9179 252.822 46.3881 252.087L46.7003 251.991L46.7016 336.75L-57 371V297.484C-51.5879 289.534 -45.6181 281.981 -39.1398 274.885C-33.5267 280.195 -25.6107 282.247 -18.1515 280.327C-10.6923 278.407 -4.7229 272.78 -2.32361 265.407L-2.3257 265.421ZM-23.7252 235.675C-30.7382 235.682 -37.3496 238.979 -41.607 244.595C-45.8658 250.21 -47.287 257.505 -45.4504 264.326C-45.9997 264.832 -46.4806 265.299 -46.8946 265.727L-46.8959 265.729C-50.4928 269.41 -53.8674 273.308 -56.9982 277.399V136.766L46.7103 102.519V239.495C45.3197 239.856 44.0229 240.226 42.8051 240.611V240.612C39.3248 241.665 36.0023 243.189 32.9277 245.14C30.018 247.125 27.2797 249.354 24.7425 251.802C23.3453 253.14 21.8649 254.386 20.3095 255.535C19.4535 256.176 18.4407 256.575 17.3797 256.688C15.0567 256.745 12.7378 256.488 10.4819 255.924C8.34247 255.509 7.02975 255.197 5.62571 254.879C3.32954 254.36 0.847015 253.8 -1.78274 253.286L-1.7814 253.287C-2.92816 248.286 -5.72121 243.824 -9.70528 240.628C-13.6907 237.433 -18.6326 235.691 -23.7248 235.688L-23.7252 235.675Z" fill="#7E1CC4"/>
  </g>
  <defs>
    <filter id="filter0_d_361_45" x="-57" y="0" width="339" height="379" filterUnits="userSpaceOnUse" color-interpolation-filters="sRGB">
      <feFlood flood-opacity="0" result="BackgroundImageFix"/>
      <feColorMatrix in="SourceAlpha" type="matrix" values="0 0 0 0 0 0 0 0 0 0 0 0 0 0 0 0 0 0 127 0" result="hardAlpha"/>
      <feOffset dx="4" dy="8"/>
      <feComposite in2="hardAlpha" operator="out"/>
      <feColorMatrix type="matrix" values="0 0 0 0 1 0 0 0 0 0.611765 0 0 0 0 0.466667 0 0 0 1 0"/>
      <feBlend mode="normal" in2="BackgroundImageFix" result="effect1_dropShadow_361_45"/>
      <feBlend mode="normal" in="SourceGraphic" in2="effect1_dropShadow_361_45" result="shape"/>
    </filter>
  </defs>
</svg>