<svg width="91" height="101" viewBox="0 0 91 101" fill="none" xmlns="http://www.w3.org/2000/svg">
<g id="Vector" filter="url(#filter0_d_433_4376)">
<path fill-rule="evenodd" clip-rule="evenodd" d="M38.106 26.5767C38.1668 26.6553 38.22 26.7392 38.265 26.8278C40.034 29.5948 41.98 32.3851 43.749 34.9192C44.8791 36.5383 45.9369 38.0546 46.8449 39.4126C47.7483 38.0546 48.8075 36.5351 49.9409 34.9192C50.57 34.0171 51.2221 33.0818 51.8812 32.1278V32.1281C51.9197 32.0633 51.9625 32.0013 52.0093 31.9422C56.3879 25.5794 61.0106 18.3779 61.0106 14.1833C61.0106 9.11637 58.3099 4.43366 53.9261 1.9001C49.5421 -0.633367 44.1413 -0.633367 39.7574 1.9001C35.3738 4.43357 32.673 9.116 32.673 14.1833C32.673 17.2237 35.1052 21.842 38.1062 26.579L38.106 26.5767ZM48.0954 7.87431C48.4844 8.26341 48.6705 8.81173 48.5989 9.35755C48.5273 9.90373 48.2062 10.3851 47.7297 10.6607C47.2535 10.9359 46.6762 10.9741 46.1681 10.7634C45.6599 10.5526 45.2784 10.117 45.1362 9.5853C44.9941 9.05357 45.1071 8.48573 45.4418 8.04874C45.7769 7.61209 46.2959 7.3563 46.8458 7.3563C47.3144 7.35666 47.7639 7.54285 48.0954 7.87431ZM46.8457 4.14332C48.3926 4.14332 49.8513 4.86351 50.7928 6.09168C51.7344 7.32019 52.0518 8.91697 51.6516 10.4125C51.2517 11.908 50.1792 13.1322 48.7504 13.7248C47.3215 14.3175 45.6987 14.2116 44.3592 13.4377C43.0192 12.6638 42.1155 11.3103 41.9132 9.77514C41.711 8.24034 42.2332 6.69844 43.3266 5.60321C44.2588 4.66725 45.5252 4.14185 46.8457 4.14332ZM58.9307 75.2721C56.5474 74.1963 54.325 72.7938 52.3278 71.1052C51.3683 70.3724 50.4139 69.6442 49.5637 69.0664C48.1666 68.0929 46.6571 67.2925 45.0681 66.6814C43.6015 66.132 42.0647 65.793 40.5031 65.6741C38.8342 65.5631 37.1581 65.6053 35.4967 65.8002C33.9045 65.9706 32.3656 66.243 31.0742 66.4898V89.8599L58.9362 98.9998L58.9366 75.2717L58.9307 75.2721ZM31.0687 63.2241V27.3558L35.8076 28.9054C37.5424 31.6103 39.4153 34.2954 41.1277 36.7478C42.8614 39.2326 44.4248 41.4713 45.4596 43.178V43.1783C45.7436 43.6654 46.2633 43.967 46.8269 43.9717C47.3902 43.9763 47.915 43.6838 48.2071 43.2014C49.2418 41.4915 50.8111 39.2423 52.5534 36.7478C52.9878 36.1234 53.438 35.4851 53.88 34.8355L58.9237 36.4956L58.924 71.7616C57.2901 70.8144 55.7323 69.7412 54.2647 68.5519C53.3171 67.8292 52.3752 67.113 51.3513 66.4137H51.3516C49.7432 65.2961 48.0062 64.3767 46.1784 63.6755C44.4335 63.0198 42.6052 62.6131 40.7474 62.4683C38.8824 62.3425 37.0094 62.389 35.153 62.6066C33.6701 62.7658 32.2784 62.9928 31.0623 63.2176L31.0687 63.2241ZM78.8763 56.8933C78.2526 56.2693 77.3744 55.971 76.4998 56.0863C75.6256 56.2016 74.8544 56.7175 74.4134 57.4824C73.9725 58.2469 73.9121 59.1735 74.2497 59.9892C74.5873 60.8045 75.2847 61.4167 76.1366 61.645C76.9885 61.8738 77.898 61.6926 78.5977 61.155C79.2973 60.6175 79.7076 59.785 79.7076 58.9022C79.7091 58.1485 79.4097 57.4254 78.8763 56.8933ZM81.5396 55.0559C82.0924 54.3563 82.6362 53.7012 83.1747 53.1068L83.175 53.1072C83.8484 52.351 84.5786 51.6481 85.3596 51.0042C86.706 49.913 88.299 49.1687 89.9989 48.8361V89.8601L62.1369 98.9995V75.8746C63.2731 75.8631 64.3964 75.6333 65.4459 75.1973C67.3598 74.3586 69.0633 73.1045 70.4324 71.5251C72.2315 69.4135 73.8238 67.1341 75.1868 64.7174C76.8517 65.1991 78.6434 64.9422 80.1067 64.0123C81.5701 63.0825 82.5645 61.569 82.8377 59.8555C83.1109 58.1425 82.6369 56.394 81.5352 55.0541L81.5396 55.0559ZM76.8694 52.8478V52.8482C75.2872 52.8482 73.7681 53.4686 72.638 54.5768C71.5074 55.685 70.856 57.1923 70.823 58.7757C70.7899 60.3591 71.3783 61.8925 72.4612 63.0468C71.1983 65.2881 69.7259 67.4043 68.0642 69.3674C67.0169 70.5899 65.7123 71.5655 64.2442 72.2241C63.5758 72.5019 62.8614 72.6521 62.138 72.6669V36.4942L90 27.3555V45.5719C87.562 45.9332 85.2661 46.9466 83.3554 48.5049C82.4441 49.2568 81.5922 50.0775 80.8069 50.9598C80.1746 51.6569 79.5455 52.4116 78.9275 53.2054H78.9272C78.2686 52.9672 77.5736 52.8458 76.8732 52.8469L76.8694 52.8478ZM10.946 66.9341C10.3219 66.3094 9.44303 66.0104 8.56774 66.1261C7.69244 66.2413 6.9208 66.7576 6.47956 67.5229C6.03795 68.2881 5.97749 69.2155 6.31545 70.0318C6.65305 70.8482 7.35125 71.4606 8.20387 71.6891C9.05649 71.9179 9.96708 71.7363 10.667 71.1984C11.3674 70.6602 11.7777 69.8269 11.7777 68.9431C11.7785 68.1894 11.479 67.4666 10.946 66.9341ZM14.6886 70.8265C15.1817 70.9296 15.6661 71.0391 16.1203 71.1407C16.712 71.2736 17.2634 71.3976 17.5013 71.4451V71.4455C18.4061 71.6591 19.3375 71.7402 20.2653 71.6854C21.0957 71.6159 21.8917 71.3233 22.5695 70.8388C23.1086 70.4486 23.6208 70.0224 24.1031 69.5638C24.6581 69.0327 25.2555 68.5474 25.8886 68.113C26.4774 67.7484 27.1123 67.4645 27.7759 67.2685L27.8598 67.243L27.8601 89.8605L0 99V79.3827C1.454 77.261 3.05782 75.2457 4.79827 73.352C6.30626 74.7689 8.43295 75.3166 10.4369 74.8043C12.4409 74.2919 14.0446 72.7903 14.6892 70.8229L14.6886 70.8265ZM8.93951 62.889C7.05541 62.8908 5.27921 63.7706 4.13543 65.2694C2.99129 66.7678 2.60948 68.7144 3.10286 70.5344C2.9553 70.6695 2.8261 70.7942 2.71489 70.9084L2.71453 70.9088C1.7482 71.8912 0.841584 72.9314 0.000472378 74.023V36.4955L27.8625 27.3568V63.9085C27.4889 64.0047 27.1405 64.1034 26.8133 64.2061V64.2065C25.8783 64.4875 24.9857 64.8942 24.1597 65.4148C23.378 65.9445 22.6423 66.5392 21.9607 67.1924C21.5853 67.5494 21.1876 67.882 20.7697 68.1886C20.5397 68.3597 20.2676 68.466 19.9826 68.4962C19.3585 68.5114 18.7355 68.4429 18.1295 68.2923C17.5547 68.1817 17.202 68.0985 16.8248 68.0135C16.2079 67.8751 15.541 67.7256 14.8345 67.5884L14.8348 67.5887C14.5268 66.2542 13.7764 65.0636 12.706 64.2108C11.6353 63.358 10.3076 62.8933 8.93961 62.8925L8.93951 62.889Z" fill="#FF9C77"/>
</g>
<defs>
<filter id="filter0_d_433_4376" x="0" y="0" width="91" height="101" filterUnits="userSpaceOnUse" color-interpolation-filters="sRGB">
<feFlood flood-opacity="0" result="BackgroundImageFix"/>
<feColorMatrix in="SourceAlpha" type="matrix" values="0 0 0 0 0 0 0 0 0 0 0 0 0 0 0 0 0 0 127 0" result="hardAlpha"/>
<feOffset dx="1" dy="2"/>
<feComposite in2="hardAlpha" operator="out"/>
<feColorMatrix type="matrix" values="0 0 0 0 0.494118 0 0 0 0 0.109804 0 0 0 0 0.768627 0 0 0 1 0"/>
<feBlend mode="normal" in2="BackgroundImageFix" result="effect1_dropShadow_433_4376"/>
<feBlend mode="normal" in="SourceGraphic" in2="effect1_dropShadow_433_4376" result="shape"/>
</filter>
</defs>
</svg>
