<svg width="56" height="52" viewBox="0 0 56 52" fill="none" xmlns="http://www.w3.org/2000/svg">
<g id="Vector" filter="url(#filter0_d_334_431)">
<path d="M49.6552 4.61027C46.9637 1.82287 43.359 0.199865 39.5658 0.0672747C35.7725 -0.0650848 32.0716 1.30267 29.2072 3.89594C16.9157 -7.3168 -1.4127 7.75983 5.99512 22.7172H1.03896C0.667722 22.7172 0.324828 22.9235 0.139134 23.2584C-0.0463778 23.5932 -0.0463778 24.0058 0.139134 24.3407C0.324861 24.6755 0.667739 24.8818 1.03896 24.8818H7.2731C6.6289 24.7736 28.7806 47.4158 29.2173 48L49.6547 26.6891C52.4391 23.7468 54 19.7808 54 15.6496C54 11.5183 52.4391 7.55214 49.6547 4.60998L49.6552 4.61027ZM48.1901 25.1742L29.2073 44.9375C28.8644 44.5695 10.2865 25.2504 9.96458 24.8821H15.3467L18.1624 19.7628L24.3966 35.348L29.1865 18.5829L31.9088 24.8817H43.2754C43.6466 24.8817 43.9895 24.6753 44.1752 24.3405C44.3607 24.0057 44.3607 23.593 44.1752 23.2582C43.9895 22.9233 43.6466 22.717 43.2754 22.717H33.2487L28.8121 12.3488L24.0949 28.9188L18.4637 14.8488L14.1413 22.717H8.36438C0.332586 8.64698 18.5989 -5.36882 29.2069 6.91528C41.218 -6.63526 60.2635 11.6991 48.1897 25.1524L48.1901 25.1742Z" fill="#7E1BC3"/>
</g>
<defs>
<filter id="filter0_d_334_431" x="0" y="0" width="56" height="52" filterUnits="userSpaceOnUse" color-interpolation-filters="sRGB">
<feFlood flood-opacity="0" result="BackgroundImageFix"/>
<feColorMatrix in="SourceAlpha" type="matrix" values="0 0 0 0 0 0 0 0 0 0 0 0 0 0 0 0 0 0 127 0" result="hardAlpha"/>
<feOffset dx="2" dy="4"/>
<feComposite in2="hardAlpha" operator="out"/>
<feColorMatrix type="matrix" values="0 0 0 0 1 0 0 0 0 0.611765 0 0 0 0 0.466667 0 0 0 1 0"/>
<feBlend mode="normal" in2="BackgroundImageFix" result="effect1_dropShadow_334_431"/>
<feBlend mode="normal" in="SourceGraphic" in2="effect1_dropShadow_334_431" result="shape"/>
</filter>
</defs>
</svg>
