<?xml version="1.0" encoding="UTF-8"?>
<svg id="Layer_1" data-name="Layer 1" xmlns="http://www.w3.org/2000/svg" viewBox="0 0 310.94 107.58">
  <defs>
    <style>
      .cls-1 {
        fill: #fff;
      }
    </style>
  </defs>
  <g>
    <g>
      <path class="cls-1" d="M54.84,35.51V14.18H0v21.33H12.19v36.56H0v21.33H54.84v-21.33h-12.19V35.51h12.19Zm-12.19,39.61h9.14v15.23H3.05v-15.23H12.19c1.68,0,3.05-1.36,3.05-3.05V35.51c0-1.68-1.36-3.05-3.05-3.05H3.05v-15.23H51.8v15.23h-9.14c-1.68,0-3.05,1.36-3.05,3.05v36.56c0,1.68,1.36,3.05,3.05,3.05Z"/>
      <path class="cls-1" d="M42.66,32.46h9.14v-15.23H3.05v15.23H12.19c1.68,0,3.05,1.36,3.05,3.05v36.56c0,1.68-1.36,3.05-3.05,3.05H3.05v15.23H51.8v-15.23h-9.14c-1.68,0-3.05-1.36-3.05-3.05V35.51c0-1.68,1.36-3.05,3.05-3.05Z"/>
    </g>
    <rect class="cls-1" x="94.45" width="2.49" height="107.58"/>
  </g>
  <g>
    <path class="cls-1" d="M136.37,78.57V29.02h11.48l12.92,24.62,4.86,10.94h.3c-.25-2.63-.54-5.57-.87-8.82-.33-3.24-.49-6.33-.49-9.27V29.02h10.64v49.55h-11.48l-12.92-24.7-4.86-10.79h-.3c.25,2.74,.54,5.68,.87,8.82,.33,3.14,.49,6.18,.49,9.12v17.56h-10.64Z"/>
    <path class="cls-1" d="M206.07,79.48c-3.14,0-6.11-.55-8.89-1.63-2.79-1.09-5.23-2.7-7.33-4.83-2.1-2.13-3.76-4.77-4.98-7.94-1.22-3.17-1.82-6.83-1.82-10.98s.63-7.76,1.9-10.98c1.27-3.22,2.96-5.94,5.09-8.17,2.13-2.23,4.61-3.93,7.45-5.09,2.84-1.17,5.83-1.75,8.97-1.75s6.05,.65,8.59,1.94c2.53,1.29,4.64,2.8,6.31,4.52l-5.93,7.14c-1.27-1.17-2.6-2.12-3.99-2.85-1.39-.73-2.98-1.1-4.75-1.1-1.67,0-3.26,.37-4.75,1.1-1.5,.73-2.79,1.79-3.88,3.15-1.09,1.37-1.95,3.04-2.58,5.02-.63,1.98-.95,4.21-.95,6.69,0,5.12,1.09,9.08,3.27,11.89,2.18,2.81,5.09,4.22,8.74,4.22,2.03,0,3.84-.44,5.43-1.33,1.6-.89,3-1.99,4.22-3.31l5.93,6.99c-4.16,4.86-9.5,7.3-16.04,7.3Z"/>
    <path class="cls-1" d="M244.14,79.48c-3.24,0-6.47-.6-9.69-1.79-3.22-1.19-6.09-2.98-8.63-5.36l6.38-7.68c1.77,1.52,3.74,2.76,5.89,3.72,2.15,.96,4.27,1.44,6.35,1.44,2.33,0,4.07-.43,5.21-1.29,1.14-.86,1.71-2.03,1.71-3.5,0-.76-.17-1.42-.49-1.98-.33-.56-.81-1.05-1.44-1.48-.63-.43-1.39-.84-2.28-1.22-.89-.38-1.86-.8-2.93-1.25l-6.46-2.74c-1.27-.51-2.5-1.17-3.69-1.98-1.19-.81-2.25-1.76-3.19-2.85-.94-1.09-1.69-2.36-2.24-3.8-.56-1.44-.84-3.08-.84-4.9,0-2.03,.43-3.94,1.29-5.74,.86-1.8,2.08-3.37,3.65-4.71,1.57-1.34,3.43-2.39,5.59-3.15,2.15-.76,4.52-1.14,7.11-1.14,2.89,0,5.74,.56,8.55,1.67,2.81,1.12,5.28,2.74,7.41,4.86l-5.7,7.07c-1.62-1.27-3.24-2.24-4.86-2.93-1.62-.68-3.42-1.03-5.4-1.03s-3.46,.39-4.6,1.18c-1.14,.79-1.71,1.89-1.71,3.31,0,.76,.19,1.41,.57,1.94,.38,.53,.91,1.01,1.6,1.44,.68,.43,1.48,.84,2.39,1.22,.91,.38,1.9,.8,2.96,1.25l6.38,2.58c3.04,1.22,5.43,2.89,7.18,5.02s2.62,4.94,2.62,8.44c0,2.08-.42,4.04-1.25,5.89-.84,1.85-2.05,3.47-3.65,4.86-1.6,1.39-3.56,2.51-5.89,3.34-2.33,.84-4.97,1.25-7.9,1.25Z"/>
    <path class="cls-1" d="M266.48,78.57l15.5-49.55h13.45l15.5,49.55h-11.86l-3.04-11.78h-15.12l-3.04,11.78h-11.4Zm17.94-25.08l-1.22,4.56h10.56l-1.14-4.56c-.71-2.48-1.39-5.12-2.05-7.9-.66-2.79-1.32-5.47-1.98-8.06h-.3c-.61,2.64-1.23,5.33-1.86,8.09-.63,2.76-1.31,5.38-2.01,7.87Z"/>
  </g>
</svg>