<?xml version="1.0" encoding="utf-8"?>
<!-- Generator: Adobe Illustrator 25.0.0, SVG Export Plug-In . SVG Version: 6.00 Build 0)  -->
<svg version="1.1" id="Layer_2_copy" xmlns="http://www.w3.org/2000/svg" xmlns:xlink="http://www.w3.org/1999/xlink" x="0px"
	 y="0px" viewBox="0 0 1200 1200" style="enable-background:new 0 0 1200 1200;" xml:space="preserve">
<style type="text/css">
	.st0{fill:#FFE6C2;}
	.st1{fill:#FFDBA8;}
	.st2{fill:#CC99F1;}
	.st3{fill:#FFFFFF;}
	.st4{fill:#AA55E7;}
	.st5{fill:#F79B78;}
</style>
<g>
	<g>
		<g id="XMLID_1_">
			<path class="st0" d="M1123.76,600c0,31.29-2.92,61.95-8.59,91.62l-61.38-5.81l-76.88-7.28l30.18-192.11
				c22.32-7.25,72.36-23.49,95.08-30.86C1116.22,501.27,1123.76,549.75,1123.76,600z"/>
			<path class="st1" d="M1113.64,699.64c-3.09,14.96-6.86,29.7-11.34,44.12c-34.14-3.26-107.2-10.19-141.78-13.46
				c-5.08,32.35-35.59,226.8-39.9,254.14c-8.92-12.28-28.42-39.13-37.46-51.61l67.28-428l48.01-15.59l-30.89,196.53
				C1003.2,689.17,1078.51,696.31,1113.64,699.64z"/>
			<path class="st0" d="M1099.84,751.67c-31.48,97.23-92.53,181.23-172.39,241.53c6.68-42.42,32.79-208.69,39.93-254.12
				C1000.26,742.22,1067.22,748.58,1099.84,751.67z"/>
			<path class="st2" d="M1097.12,440.11c-23.04,7.49-72.51,23.57-95.16,30.95L900.2,316.81c15.39-19.52,48.02-60.91,63.17-80.14
				C1023.56,291.67,1070.06,361.41,1097.12,440.11z"/>
			<path class="st1" d="M994,473.64l-47.1,15.3l-87.17-133.93l-43.22,54.86c-10.74-10.51-22.42-20.06-34.83-28.59l38.88-49.34
				l-181.14-69.18v-48.15l210.33,80.31c15.48-19.62,57.68-73.13,72.55-91.96c12.13,8.87,23.8,18.34,35.03,28.31
				c-15.45,19.56-51.35,65.1-67.11,85.1L994,473.64z"/>
			<path class="st0" d="M941.77,507.61l-65.38,415.88l-82.58-113.64c62.66-48.6,103.04-124.61,103.04-209.85
				c0-25.79-3.71-50.73-10.6-74.33L941.77,507.61z"/>
			<path class="st2" d="M938.93,491.52l-57.7,18.79c-12.81-35.74-33.13-67.93-59-94.68l36.9-46.7L938.93,491.52z"/>
			<path d="M927.46,993.2l-0.08,0.48l-0.2-0.28C927.29,993.37,927.37,993.29,927.46,993.2z"/>
			<path class="st2" d="M915.73,198.18c-14.17,18.01-53.9,68.34-68.64,87l-207.67-79.29v-98.25
				C737.92,109.02,835.56,140.95,915.73,198.18z"/>
			<path class="st1" d="M914.02,1002.98c-34.06,24-71.33,43.78-110.98,58.58c20.84-23.76,63.39-72.13,84.05-95.67
				C891.07,971.35,909.69,997,914.02,1002.98z"/>
			<path class="st1" d="M850.21,915.1l-41.46,47.16L687,859.64c34.12-7.28,65.77-21.2,93.66-40.27L850.21,915.1z"/>
			<path class="st3" d="M631.31,350.67c-137.47,0-249.33,111.85-249.33,249.33c0,51.21,15.53,98.85,42.08,138.46
				c0.11,0.14,0.2,0.34,0.37,0.51l30.52,37.07c0,0.03,0.09,0.11,0.14,0.17c45.17,45.14,107.49,73.09,176.21,73.09
				c137.47,0,249.3-111.83,249.3-249.3S768.79,350.67,631.31,350.67z M750.59,707.77c-8.64,4.05-18.9,0.4-22.95-8.16l-46.87-98.9
				v111.83c0,20.89-16.95,37.8-37.83,37.8h-23.38c-20.89,0-37.89-16.92-37.89-37.8V601.16l-46.62,98.45
				c-4.14,8.56-14.4,12.21-23.04,8.16c-6.18-2.92-9.89-9.1-9.89-15.59c0-2.47,0.54-4.93,1.7-7.37l58.97-124.41
				c0.11-0.2,0.14-0.43,0.31-0.65c0.57-1.13,1.22-2.1,2.04-3c0.23-0.34,0.57-0.68,0.88-0.99c2.24-2.35,4.99-3.91,7.99-4.62
				c0.65-0.23,1.25-0.34,1.9-0.43c0.77-0.11,1.64-0.2,2.41-0.2h33.47v-15.81c-13.38-7.45-22.61-22.59-22.61-39.99
				c0-24.88,18.85-45.03,42.05-45.03c23.24,0,42,20.15,42,45.03c0,17.4-9.15,32.45-22.53,39.99v15.81h33.81
				c0.68,0,1.5,0.08,2.18,0.2c0.48,0.08,0.85,0.14,1.33,0.28c0.99,0.17,1.87,0.48,2.81,0.91c0.54,0.2,0.96,0.45,1.5,0.74
				c0.45,0.23,0.96,0.51,1.45,0.85c2.58,1.62,4.7,3.97,6.09,6.91l58.92,124.41c1.16,2.44,1.7,4.9,1.7,7.37
				C760.48,698.68,756.83,704.85,750.59,707.77z"/>
			<path class="st2" d="M807.39,335.6l-32.42,41.15c-39.31-25.33-85.75-40.67-135.55-42.17v-63.14L807.39,335.6z"/>
			<path class="st1" d="M768.31,1008.34c-3.86,4.39-68.87,78.38-69.88,79.55c-94.63,13.47-196.2-3.06-278.91-43.36l210.62-152.72
				L768.31,1008.34z"/>
			<path d="M686.69,550.72c5.61,0.93,10.67,4.37,13.18,9.69c0,0,58.92,124.41,58.92,124.41c9.49,20.48-21.09,35.11-31.14,14.79
				c0,0-46.87-98.9-46.87-98.9v111.83c0,20.89-16.95,37.8-37.83,37.8h-23.38c-20.89,0-37.89-16.92-37.89-37.8V601.16l-46.62,98.45
				c-10.1,20.2-40.7,5.83-31.23-14.79c0,0,58.97-124.41,58.97-124.41c0.76-1.75,1.9-3.29,3.23-4.65c3.26-3.45,7.71-5.14,12.3-5.24
				c0,0,33.47,0,33.47,0v-15.81c-37.9-20.29-24.82-85.2,19.44-85.02c44.22-0.19,57.24,64.67,19.47,85.02v15.81h33.81
				C685.19,550.52,686.01,550.6,686.69,550.72z"/>
			<path class="st2" d="M653.87,108.12c-1.96-0.11-3.88-0.2-5.84-0.25c1.93,0.06,3.85,0.11,5.75,0.23
				C653.82,108.06,653.84,108.09,653.87,108.12z"/>
			<path class="st1" d="M882.2,959.14c-22.35,25.45-72.94,83.07-94.79,107.94c-24.74,8.3-50.33,14.68-76.6,18.93
				c5.34-6.07,62.1-70.67,69.06-78.58L630.49,881.49l-219.23,158.98c-14.79-7.37-29.16-15.53-43.05-24.37l213.96-155.16
				c30.44,5.82,63.94,6.08,94.54,0.65L809.6,973.62l45.51-51.83L882.2,959.14z"/>
			<path d="M623.21,107.52v0.11c-0.06-0.03-0.09,0-0.09,0L623.21,107.52z"/>
			<path class="st4" d="M623.21,107.64v226.94c-51.18,1.53-98.79,17.63-138.75,44.27l-56.28-49.45l194.94-221.75
				C623.12,107.64,623.15,107.61,623.21,107.64z"/>
			<path d="M551.23,97.63c-0.31,0.03-0.65,0.09-0.96,0.17l0.11-0.17H551.23z"/>
			<path class="st1" d="M571.41,858.71l-210.5,152.66c-4.17-2.69-8.27-5.47-12.33-8.39l133.36-183.61
				C508.66,837.68,538.9,851.17,571.41,858.71z"/>
			<path class="st4" d="M533.03,117.39L382.16,289.01l-71.24-62.66C373.34,172.68,449.38,134.36,533.03,117.39z"/>
			<path class="st1" d="M416.7,330.13l60.84,53.48c-12.36,8.84-24,18.68-34.66,29.47l-48.2-42.42L357.9,502.63l-42.88-13.94
				l42.08-151.02l-84.71-74.45c10.26-11,21.08-21.54,32.36-31.51l78.16,68.72l163.03-185.48c21.57-3.83,43.61-6.18,66.09-7.03
				L416.7,330.13z"/>
			<path class="st5" d="M468.85,809.85l-132.4,182.16l-39.48-219.37l137.98,5.92C445.33,789.96,456.69,800.44,468.85,809.85z"/>
			<path d="M454.96,776.04c-11.34-11.31-21.57-23.72-30.52-37.07L454.96,776.04z"/>
			<path class="st4" d="M437.31,418.91c-24.46,26.1-43.59,57.07-55.91,91.34l-15.78-5.1l33.41-119.9L437.31,418.91z"/>
			<path class="st1" d="M287.19,764.11l40.01,222.35c-19.22-14.47-38.4-31.9-54.64-49.45l-56.65-314.85l-76.49,1.53
				c-0.78-15.46-0.77-31.06-0.06-46.53h68.44L187.5,464.31l48.6,15.81l17.8,99.02l112.39,4.76c-0.94,14.91-0.58,30.34,1.08,45.09
				l-105.28-4.48l16.92,94.2l117.38,4.99c8.76,16.58,19.21,32.14,31.17,46.42L287.19,764.11z"/>
			<path class="st5" d="M392.16,715.37l-106.3-4.48l-14-77.85l96.55,4.14C372.27,664.81,380.4,691.14,392.16,715.37z"/>
			<path class="st5" d="M376.35,525.67c-4.7,16.15-7.94,32.93-9.49,50.16l-106.1-4.51l-15.93-88.33L376.35,525.67z"/>
			<path class="st4" d="M347.9,340.41l-40.58,145.78l-141.84-46.08c22.02-63.93,56.85-121.94,101.37-170.97L347.9,340.41z"/>
			<path d="M336.45,992.01"/>
			<path class="st5" d="M262.31,925.73c-70.22-79.3-115.34-181.98-122.45-293.9l69.37-1.05L262.31,925.73z"/>
			<path d="M631.31,91.31c-27.26,0-54.01,2.15-80.09,6.32c-0.31,0.03-0.65,0.09-0.96,0.17c-4.08,0.65-8.13,1.36-12.16,2.13
				C272.09,111.66,60,331.06,60,600c0,268.85,211.95,488.2,477.85,500.07c30.29,5.67,61.55,8.62,93.46,8.62
				C911.79,1108.69,1140,880.47,1140,600S911.79,91.31,631.31,91.31z M1097.12,440.11c-23.04,7.49-72.51,23.57-95.16,30.95
				L900.2,316.81l36.84-46.73l26.33-33.41C1023.56,291.67,1070.06,361.41,1097.12,440.11z M639.42,107.64
				c4.8,0.1,9.59,0.21,14.37,0.45c0.03-0.03,0.06,0,0.09,0.03c93.59,3.96,185.61,35.7,261.85,90.06l-22.13,28.08l-46.5,58.92
				l-207.67-79.29V107.64z M639.42,214.62l210.33,80.31l49.85-63.2l22.7-28.76c12.13,8.87,23.8,18.34,35.03,28.31l-25.76,32.65
				l-41.35,52.46L994,473.64l-47.1,15.3l-87.17-133.93l-43.22,54.86c-10.74-10.51-22.42-20.06-34.83-28.59l38.88-49.34
				l-181.14-69.18V214.62z M793.81,809.85c62.66-48.6,103.04-124.61,103.04-209.85c0-25.79-3.71-50.73-10.6-74.33l55.52-18.05
				l-65.38,415.88L793.81,809.85z M850.21,915.1l-41.46,47.16L687,859.64c34.12-7.28,65.77-21.2,93.66-40.27L850.21,915.1z
				 M881.24,510.31c-12.81-35.74-33.13-67.93-59-94.68l36.9-46.7l79.8,122.59L881.24,510.31z M639.42,271.44l167.97,64.16
				l-32.42,41.15c-39.31-25.33-85.75-40.67-135.55-42.17V271.44z M880.61,600c0,137.47-111.83,249.3-249.3,249.3
				c-68.72,0-131.04-27.94-176.21-73.09c-0.06-0.06-0.14-0.14-0.14-0.17c-11.34-11.31-21.57-23.72-30.52-37.07
				c-0.17-0.17-0.25-0.37-0.37-0.51c-26.55-39.62-42.08-87.26-42.08-138.46c0-137.47,111.85-249.33,249.33-249.33
				S880.61,462.53,880.61,600z M336.45,992.01l-39.48-219.37l137.98,5.92c10.37,11.39,21.74,21.88,33.89,31.29L336.45,992.01
				 M140.14,635.88c-0.11-1.36-0.2-2.69-0.28-4.05l69.37-1.05l53.08,294.95C192.94,847.29,148.13,746.6,140.14,635.88z
				 M215.92,622.16l-76.49,1.53c-0.78-15.46-0.77-31.06-0.06-46.53h68.44L187.5,464.31l48.6,15.81l17.8,99.02l112.39,4.76
				c-0.94,14.91-0.58,30.34,1.08,45.09l-105.28-4.48l16.92,94.2l117.38,4.99c8.76,16.58,19.21,32.14,31.17,46.42l-140.36-6.01
				l40.01,222.35l-17.6-13.89c-0.11-0.09-0.28-0.23-0.4-0.34c-12.81-11.11-25.11-22.87-36.64-35.23L215.92,622.16z M376.35,525.67
				c-4.7,16.15-7.94,32.93-9.49,50.16l-106.1-4.51l-15.93-88.33L376.35,525.67z M365.61,505.15l33.41-119.9l38.29,33.67
				c-24.46,26.1-43.59,57.07-55.91,91.34L365.61,505.15z M392.16,715.37l-106.3-4.48l-14-77.85l96.55,4.14
				C372.27,664.81,380.4,691.14,392.16,715.37z M165.48,440.11c22.02-63.93,56.85-121.94,101.37-170.97l81.05,71.27l-40.58,145.78
				L165.48,440.11z M178.74,461.48l19.3,107.18l-58.21,0.43c2.42-39.12,9.47-77.29,20.63-113.53L178.74,461.48z M481.94,819.37
				c26.72,18.31,56.96,31.8,89.47,39.33l-210.5,152.66c-4.17-2.69-8.27-5.47-12.33-8.39L481.94,819.37z M623.21,107.52v227.05
				c-51.18,1.53-98.79,17.63-138.75,44.27l-56.28-49.45l194.94-221.75L623.21,107.52z M545.96,114.95
				c21.57-3.83,43.61-6.18,66.09-7.03L416.7,330.13l60.84,53.48c-12.36,8.84-24,18.68-34.66,29.47l-48.2-42.42L357.9,502.63
				l-42.88-13.94l42.08-151.02l-84.71-74.45c10.26-11,21.08-21.54,32.36-31.51l78.16,68.72L545.96,114.95z M310.91,226.35
				c62.43-53.67,138.46-91.99,222.12-108.96L382.16,289.01L310.91,226.35z M698.42,1087.88c-22.16,3.08-44.68,4.54-67.11,4.56
				c-75.78,0-147.65-17.17-211.81-47.92l210.62-152.72l138.18,116.53l-62.15,70.73L698.42,1087.88z M710.81,1086.01
				c5.34-6.07,62.1-70.67,69.06-78.58L630.49,881.49l-219.23,158.98c-14.79-7.37-29.16-15.53-43.05-24.37l213.96-155.16
				c15.93,3,32.33,4.56,49.14,4.56c15.47,0,30.63-1.33,45.4-3.91L809.6,973.62l45.51-51.83l27.09,37.35
				c-22.35,25.45-72.94,83.07-94.79,107.94C762.67,1075.39,737.08,1081.76,710.81,1086.01z M803.05,1061.56
				c0.11-0.09,46.11-52.59,46.25-52.63l37.8-43.05c3.97,5.46,22.59,31.12,26.92,37.1C879.96,1026.98,842.7,1046.76,803.05,1061.56z
				 M927.46,993.2l-0.08,0.48l-0.2-0.28C927.29,993.37,927.37,993.29,927.46,993.2l10.03-63.79l29.9-190.32l72.12,6.86l60.33,5.72
				C1068.36,848.9,1007.32,932.9,927.46,993.2z M1102.31,743.76l-60.45-5.75l-81.33-7.71l-32.99,210.16l-6.91,43.98
				c-8.92-12.28-28.42-39.13-37.46-51.61l67.28-428l48.01-15.59l-30.89,196.53l84.79,8.05l61.3,5.81
				C1110.56,714.6,1106.79,729.34,1102.31,743.76z M1053.79,685.81l-76.88-7.28l30.18-192.11c22.32-7.25,72.36-23.49,95.08-30.86
				c14.06,45.71,21.59,94.2,21.59,144.44c0,31.29-2.92,61.95-8.59,91.62L1053.79,685.81z"/>
			<path class="st5" d="M198.04,568.66l-58.21,0.43c2.42-39.12,9.47-77.29,20.63-113.53l18.28,5.92L198.04,568.66z"/>
		</g>
	</g>
</g>
</svg>
