<svg width="40" height="41" viewBox="0 0 40 41" fill="none" xmlns="http://www.w3.org/2000/svg">
<path d="M18.4976 40.1264C28.7135 40.1264 36.9952 31.3655 36.9952 20.5583C36.9952 9.75117 28.7135 0.990234 18.4976 0.990234C8.28165 0.990234 0 9.75117 0 20.5583C0 31.3655 8.28165 40.1264 18.4976 40.1264Z" fill="black"/>
<path d="M21.0331 0.988899H20.7033V0.992024C20.8127 0.990462 20.9238 0.988899 21.0331 0.988899ZM21.0331 0.618164C31.4267 0.618164 39.883 9.56229 39.883 20.5574C39.883 31.5525 31.4267 40.4982 21.0331 40.4982C10.6395 40.4982 2.18323 31.5525 2.18323 20.5574C2.18323 9.56229 10.6395 0.618164 21.0331 0.618164ZM20.7033 1.36628C12.8028 1.51355 6.11909 7.03122 3.78002 14.6073C3.71097 14.8276 3.64671 15.0495 3.58541 15.2729C3.13156 16.9532 2.88709 18.7252 2.88709 20.5574C2.88709 26.6263 5.56294 32.0455 9.73109 35.5657C9.90207 35.7099 10.0756 35.8525 10.2525 35.9888C13.2685 38.3534 16.9994 39.7532 21.0327 39.7532C25.5517 39.7532 29.6899 37.9972 32.8691 35.095C33.0353 34.9461 33.1989 34.7906 33.3592 34.6305C36.9357 31.1243 39.1784 26.1125 39.1784 20.5574C39.1784 18.3779 38.8339 16.2828 38.1987 14.3299C38.1267 14.1096 38.0517 13.8924 37.9723 13.6767C35.3906 6.58391 28.9348 1.50691 21.3607 1.36588C21.2514 1.36276 21.1421 1.3612 21.0324 1.3612C20.9223 1.3612 20.8127 1.36315 20.7033 1.36628Z" fill="black"/>
<path d="M20.3123 18.0054C19.8178 17.7135 19.4762 17.1225 19.4762 16.4427C19.4762 15.4696 20.173 14.6816 21.0298 14.6816C21.8884 14.6816 22.5819 15.4692 22.5819 16.4427C22.5819 17.1229 22.2433 17.7108 21.7473 18.0054V18.6234H22.997C23.0239 18.6234 23.0524 18.6265 23.0793 18.6312C23.0959 18.6343 23.1107 18.6359 23.1273 18.6406C23.1646 18.6484 23.1979 18.6613 23.2322 18.6769C23.2518 18.6847 23.268 18.6945 23.2876 18.7054C23.3042 18.7148 23.3234 18.7261 23.34 18.7386C23.4346 18.8019 23.5155 18.8941 23.5649 19.0097L25.7434 23.8727C25.7869 23.9676 25.8061 24.0645 25.8061 24.161C25.8061 24.4145 25.6699 24.6555 25.4405 24.7696C25.1215 24.9282 24.7422 24.7856 24.5927 24.4493L22.8592 20.5833V24.9571C22.8592 25.7717 22.2344 26.4342 21.463 26.4342H20.5985C19.827 26.4342 19.1992 25.7717 19.1992 24.9571V20.6029L17.4747 24.4497C17.3233 24.7856 16.9429 24.9282 16.6253 24.77C16.3945 24.6559 16.2597 24.4149 16.2597 24.1614C16.2597 24.0649 16.2793 23.968 16.3225 23.8731L18.4994 19.0101C18.5053 19.0023 18.5068 18.991 18.5112 18.9847C18.5338 18.9402 18.5578 18.9023 18.5862 18.866C18.5966 18.8535 18.6087 18.8406 18.6206 18.8281C18.7029 18.7363 18.8048 18.6742 18.9156 18.6472C18.9396 18.6394 18.9607 18.6347 18.9862 18.6312C19.0146 18.6265 19.046 18.6234 19.0744 18.6234H20.3119V18.0054H20.3123Z" fill="black"/>
<path d="M3.7804 14.6082C6.11909 7.03174 12.8032 1.51447 20.7037 1.36719V10.1543C16.5548 10.2984 13.0473 13.1737 11.7411 17.1314L3.7804 14.6082Z" fill="#AA55E7"/>
<path d="M30.1667 16.6837L37.9727 13.6768C38.0521 13.8924 38.127 14.1096 38.1991 14.3299L30.3916 17.3368C30.324 17.1146 30.249 16.8977 30.1667 16.6837Z" fill="black"/>
<path d="M21.0331 10.8428C26.0972 10.8428 30.2162 15.1998 30.2162 20.5573C30.2162 25.9148 26.0972 30.2734 21.0331 30.2734C15.9691 30.2734 11.8486 25.9144 11.8486 20.5573C11.8486 15.2002 15.9687 10.8428 21.0331 10.8428ZM19.1992 24.9573C19.1992 25.7718 19.827 26.4343 20.5985 26.4343H21.463C22.2344 26.4343 22.8592 25.7718 22.8592 24.9573V20.5842L24.5927 24.4502C24.7426 24.7862 25.1215 24.9288 25.4406 24.7705C25.6699 24.6565 25.8062 24.4154 25.8062 24.1619C25.8062 24.0654 25.7866 23.9685 25.7434 23.8736L23.5649 19.0107C23.5155 18.895 23.4346 18.8028 23.3401 18.7395C23.3234 18.727 23.3042 18.7157 23.2876 18.7063C23.268 18.6954 23.2518 18.6856 23.2322 18.6778C23.1979 18.6618 23.1646 18.6493 23.1273 18.6415C23.1107 18.6368 23.096 18.6352 23.0793 18.6321C23.0524 18.6274 23.0239 18.6243 22.997 18.6243H21.7473V18.0063C22.2433 17.7113 22.5819 17.1234 22.5819 16.4436C22.5819 15.4705 21.888 14.6826 21.0298 14.6826C20.1727 14.6826 19.4762 15.4701 19.4762 16.4436C19.4762 17.1238 19.8178 17.7148 20.3123 18.0063V18.6243H19.0748C19.0464 18.6243 19.015 18.6274 18.9865 18.6321C18.961 18.6352 18.94 18.6399 18.916 18.6481C18.8052 18.6751 18.7033 18.7368 18.6209 18.829C18.6091 18.8415 18.5969 18.8544 18.5866 18.8669C18.5582 18.9032 18.5342 18.9415 18.5116 18.9857C18.5072 18.9919 18.5057 19.0032 18.4998 19.0111L16.3225 23.8728C16.2789 23.9677 16.2597 24.0646 16.2597 24.1611C16.2597 24.4146 16.3945 24.6557 16.6253 24.7698C16.9429 24.9284 17.3236 24.7858 17.4747 24.4494L19.1992 20.6026V24.9573Z" fill="white"/>
<path d="M27.9192 27.9863L33.3595 34.6307C33.1993 34.7908 33.0361 34.9459 32.8695 35.0951L27.4354 28.4555C27.6016 28.3067 27.7634 28.1496 27.9192 27.9863Z" fill="black"/>
<path d="M15.0008 28.7764L10.2529 35.988C10.076 35.8516 9.90243 35.709 9.73145 35.5649L14.4945 28.3291C14.6577 28.4846 14.8272 28.6334 15.0008 28.7764Z" fill="black"/>
<path d="M3.78039 14.6074L11.7407 17.1307C11.6687 17.3495 11.603 17.5698 11.5446 17.7948L3.5854 15.2731C3.64707 15.0496 3.71133 14.8278 3.78039 14.6074Z" fill="black"/>
<path d="M21.0331 1.36133C21.1424 1.36133 21.2517 1.36289 21.3614 1.36602V10.1531C21.2521 10.1484 21.1428 10.1469 21.0331 10.1469C20.9223 10.1469 20.813 10.1484 20.7033 10.1531V1.36641C20.8126 1.36328 20.9223 1.36133 21.0331 1.36133Z" fill="black"/>
<path d="M21.361 1.36719C28.9347 1.50822 35.391 6.58482 37.9727 13.678L30.1667 16.6849C28.7508 12.9584 25.3527 10.2926 21.3614 10.1547V1.36719H21.361Z" fill="#CC99F1"/>
<path d="M21.0331 30.2728C26.0971 30.2728 30.2162 25.9142 30.2162 20.5568C30.2162 15.1993 26.0971 10.8422 21.0331 10.8422C15.9691 10.8422 11.8486 15.1993 11.8486 20.5568C11.8486 25.9142 15.9687 30.2728 21.0331 30.2728ZM21.0331 10.1465C21.1424 10.1465 21.2517 10.148 21.3614 10.1527C25.353 10.2906 28.7508 12.9565 30.1667 16.683C30.249 16.8971 30.324 17.1143 30.3916 17.3362C30.7047 18.3507 30.8739 19.4332 30.8739 20.5568C30.8739 23.4636 29.7427 26.0963 27.9192 27.9855C27.7634 28.1488 27.6016 28.3059 27.4354 28.4547C25.7138 30.0209 23.4756 30.967 21.0331 30.967C18.7616 30.967 16.6685 30.149 15.0012 28.7766C14.8272 28.634 14.6581 28.4848 14.4949 28.3297C12.4693 26.4229 11.1927 23.6445 11.1927 20.5568C11.1927 19.6008 11.3157 18.6738 11.5446 17.794C11.603 17.569 11.6691 17.3487 11.7407 17.1299C13.0473 13.1721 16.5548 10.2969 20.7033 10.1527C20.8126 10.148 20.9223 10.1465 21.0331 10.1465Z" fill="black"/>
<path d="M3.58541 15.2734L11.5443 17.7951C11.315 18.6749 11.1924 19.6019 11.1924 20.5579C11.1924 23.6456 12.469 26.424 14.4945 28.3308L9.73146 35.5662C5.56331 32.046 2.88746 26.6268 2.88746 20.5579C2.88746 18.7257 3.13156 16.9537 3.58541 15.2734Z" fill="#F79B78"/>
<path d="M15.0008 28.777C16.6685 30.1498 18.7616 30.9674 21.0328 30.9674C23.4748 30.9674 25.7135 30.0212 27.4351 28.4551L32.8695 35.0947C29.6903 37.9969 25.5517 39.7529 21.0331 39.7529C16.9998 39.7529 13.2689 38.3532 10.2529 35.9885L15.0008 28.777Z" fill="#FFDBA8"/>
<path d="M21.0331 0.989258C20.9238 0.989258 20.813 0.990735 20.7033 0.992212V0.989258H21.0331Z" fill="black"/>
<path d="M33.3595 34.6307L27.9192 27.9863C29.7428 26.0971 30.8739 23.4645 30.8739 20.5576C30.8739 19.4336 30.7047 18.3511 30.3916 17.337L38.1991 14.3301C38.8342 16.283 39.1788 18.3781 39.1788 20.5576C39.1788 26.1127 36.9357 31.1245 33.3595 34.6307Z" fill="#FFE6C2"/>
</svg>
