<svg width="1440" height="640" viewBox="0 0 1440 640" fill="none" xmlns="http://www.w3.org/2000/svg">
<g clip-path="url(#clip0_314_36)">
<path d="M1440.54 569.395H0V562.562H1440.54V569.395Z" fill="#E6E6E6"/>
<path d="M41.1899 562.067C41.1948 555.6 43.7376 549.399 48.2595 544.828C52.7814 540.257 58.9123 537.689 65.3048 537.689C71.6972 537.689 77.8282 540.257 82.35 544.828C86.8719 549.399 89.4147 555.6 89.4196 562.067" fill="#F2F2F2"/>
<path d="M65.3035 562.067C65.1311 562.067 64.9657 561.997 64.8438 561.874C64.7219 561.75 64.6534 561.582 64.6533 561.407V548.55C64.6533 548.375 64.7218 548.207 64.8437 548.084C64.9657 547.96 65.1311 547.891 65.3035 547.891C65.4759 547.891 65.6413 547.96 65.7632 548.084C65.8852 548.207 65.9537 548.375 65.9537 548.55V561.407C65.9536 561.582 65.8851 561.75 65.7632 561.874C65.6413 561.997 65.4759 562.067 65.3035 562.067Z" fill="#CCCCCC"/>
<path d="M65.3045 557.648C65.1488 557.648 64.9982 557.592 64.8802 557.489L57.0593 550.698C56.9935 550.642 56.9393 550.573 56.8999 550.496C56.8605 550.418 56.8367 550.334 56.8297 550.247C56.8228 550.16 56.833 550.073 56.8596 549.99C56.8862 549.907 56.9288 549.831 56.9849 549.765C57.0409 549.699 57.1094 549.644 57.1862 549.605C57.2631 549.566 57.3469 549.543 57.4328 549.536C57.5186 549.53 57.6048 549.541 57.6865 549.569C57.7681 549.596 57.8435 549.64 57.9083 549.698L65.7293 556.488C65.8304 556.576 65.9024 556.693 65.9358 556.824C65.9692 556.954 65.9623 557.092 65.916 557.218C65.8697 557.344 65.7863 557.453 65.677 557.53C65.5676 557.607 65.4377 557.648 65.3045 557.648Z" fill="#CCCCCC"/>
<path d="M115.49 562.067C115.495 555.6 118.037 549.399 122.559 544.828C127.081 540.257 133.212 537.689 139.605 537.689C145.997 537.689 152.128 540.257 156.65 544.828C161.172 549.399 163.715 555.6 163.719 562.067" fill="#F2F2F2"/>
<path d="M139.603 562.067C139.431 562.067 139.265 561.997 139.144 561.874C139.022 561.75 138.953 561.582 138.953 561.407V548.55C138.953 548.375 139.022 548.207 139.144 548.084C139.265 547.96 139.431 547.891 139.603 547.891C139.776 547.891 139.941 547.96 140.063 548.084C140.185 548.207 140.253 548.375 140.253 548.55V561.407C140.253 561.582 140.185 561.75 140.063 561.874C139.941 561.997 139.776 562.067 139.603 562.067Z" fill="#CCCCCC"/>
<path d="M139.604 557.648C139.449 557.649 139.298 557.592 139.18 557.489L131.359 550.699C131.293 550.642 131.239 550.574 131.199 550.496C131.16 550.419 131.136 550.334 131.129 550.247C131.122 550.16 131.132 550.073 131.159 549.99C131.186 549.907 131.228 549.831 131.284 549.765C131.34 549.698 131.409 549.644 131.486 549.605C131.563 549.566 131.647 549.543 131.732 549.536C131.818 549.53 131.905 549.541 131.986 549.569C132.068 549.597 132.143 549.641 132.208 549.698L140.029 556.489C140.13 556.577 140.202 556.694 140.236 556.824C140.269 556.954 140.262 557.092 140.216 557.218C140.17 557.345 140.086 557.454 139.977 557.531C139.867 557.608 139.737 557.649 139.604 557.648Z" fill="#CCCCCC"/>
<path d="M152.841 614.417C176.118 614.417 194.987 609.963 194.987 604.469C194.987 598.974 176.118 594.52 152.841 594.52C129.565 594.52 110.696 598.974 110.696 604.469C110.696 609.963 129.565 614.417 152.841 614.417Z" fill="#F2F2F2"/>
<path d="M733.03 520.669C733.403 520.669 733.76 520.52 734.024 520.253C734.287 519.987 734.435 519.625 734.435 519.248C734.435 518.871 734.287 518.51 734.024 518.243C733.76 517.977 733.403 517.827 733.03 517.827H719.684V512.142H733.03C733.403 512.142 733.76 511.992 734.024 511.726C734.287 511.459 734.435 511.098 734.435 510.721C734.435 510.344 734.287 509.982 734.024 509.716C733.76 509.449 733.403 509.299 733.03 509.299H619.237C618.864 509.299 618.507 509.449 618.244 509.716C617.98 509.982 617.832 510.344 617.832 510.721C617.832 511.098 617.98 511.459 618.244 511.726C618.507 511.992 618.864 512.142 619.237 512.142H632.583V517.827H619.237C618.864 517.827 618.507 517.977 618.244 518.243C617.98 518.51 617.832 518.871 617.832 519.248C617.832 519.625 617.98 519.987 618.244 520.253C618.507 520.52 618.864 520.669 619.237 520.669H632.583V526.354H619.237C618.864 526.354 618.507 526.504 618.244 526.771C617.98 527.037 617.832 527.399 617.832 527.776C617.832 528.152 617.98 528.514 618.244 528.781C618.507 529.047 618.864 529.197 619.237 529.197H632.583V534.882H620.642C619.897 534.882 619.182 535.181 618.655 535.714C618.128 536.247 617.832 536.97 617.832 537.724C617.832 538.478 618.128 539.201 618.655 539.734C619.182 540.267 619.897 540.567 620.642 540.567H632.01C631.927 540.794 631.883 541.035 631.881 541.277V561.175C631.881 561.74 632.103 562.282 632.498 562.682C632.893 563.082 633.429 563.307 633.988 563.307C634.547 563.307 635.083 563.082 635.478 562.682C635.873 562.282 636.095 561.74 636.095 561.175V541.277C636.093 541.035 636.049 540.794 635.966 540.567H716.301C716.218 540.794 716.174 541.035 716.172 541.277V561.175C716.172 561.74 716.394 562.282 716.789 562.682C717.184 563.082 717.72 563.307 718.279 563.307C718.838 563.307 719.374 563.082 719.769 562.682C720.164 562.282 720.386 561.74 720.386 561.175V541.277C720.384 541.035 720.34 540.794 720.258 540.567H731.625C732.37 540.567 733.085 540.267 733.612 539.734C734.139 539.201 734.435 538.478 734.435 537.724C734.435 536.97 734.139 536.247 733.612 535.714C733.085 535.181 732.37 534.882 731.625 534.882H719.684V529.197H733.03C733.403 529.197 733.76 529.047 734.024 528.781C734.287 528.514 734.435 528.152 734.435 527.776C734.435 527.399 734.287 527.037 734.024 526.771C733.76 526.504 733.403 526.354 733.03 526.354H719.684V520.669H733.03ZM635.393 512.142H716.874V517.827H635.393V512.142ZM716.874 534.882H635.393V529.197H716.874V534.882ZM716.874 526.354H635.393V520.669H716.874V526.354Z" fill="#3F3D56"/>
<path d="M766.763 562.708C766.391 562.708 766.033 562.558 765.77 562.292C765.506 562.025 765.358 561.664 765.358 561.287V434.596C765.358 434.219 765.506 433.858 765.77 433.591C766.033 433.325 766.391 433.175 766.763 433.175C767.136 433.175 767.493 433.325 767.757 433.591C768.02 433.858 768.168 434.219 768.168 434.596V561.287C768.168 561.664 768.02 562.025 767.757 562.292C767.493 562.558 767.136 562.708 766.763 562.708Z" fill="#3F3D56"/>
<path d="M398.691 343.032H376.213C374.537 343.03 372.93 342.355 371.745 341.156C370.56 339.957 369.893 338.332 369.892 336.636V284.05C369.893 282.354 370.56 280.729 371.745 279.53C372.93 278.331 374.537 277.656 376.213 277.654H398.691C400.367 277.656 401.974 278.331 403.159 279.53C404.344 280.729 405.011 282.354 405.013 284.05V336.636C405.011 338.332 404.344 339.957 403.159 341.156C401.974 342.355 400.367 343.03 398.691 343.032Z" fill="#E6E6E6"/>
<path d="M487.066 562H371.934C368.77 561.998 365.737 561.367 363.499 560.245C361.262 559.123 360.004 557.602 360 556.016V322.984C360.004 321.398 361.262 319.877 363.499 318.755C365.737 317.633 368.77 317.002 371.934 317H487.066C490.23 317.002 493.263 317.633 495.501 318.755C497.738 319.877 498.996 321.398 499 322.984V556.016C498.996 557.602 497.738 559.123 495.501 560.245C493.263 561.367 490.23 561.998 487.066 562Z" fill="#E6E6E6"/>
<path d="M418.066 562H302.934C299.77 561.998 296.737 561.367 294.499 560.245C292.262 559.123 291.004 557.602 291 556.016V322.984C291.004 321.398 292.262 319.877 294.499 318.755C296.737 317.633 299.77 317.002 302.934 317H418.066C421.23 317.002 424.263 317.633 426.501 318.755C428.738 319.877 429.996 321.398 430 322.984V556.016C429.996 557.602 428.738 559.123 426.501 560.245C424.263 561.367 421.23 561.998 418.066 562Z" fill="#F2F2F2"/>
<path d="M377.618 343.032H355.141C353.465 343.03 351.858 342.355 350.673 341.156C349.487 339.957 348.821 338.332 348.819 336.636V284.05C348.821 282.354 349.487 280.729 350.673 279.53C351.858 278.331 353.465 277.656 355.141 277.654H377.618C379.294 277.656 380.901 278.331 382.087 279.53C383.272 280.729 383.938 282.354 383.94 284.05V336.636C383.938 338.332 383.272 339.957 382.087 341.156C380.901 342.355 379.294 343.03 377.618 343.032Z" fill="#F2F2F2"/>
<path d="M348.116 400.047H321.424C320.493 400.046 319.6 399.672 318.942 399.006C318.284 398.34 317.913 397.436 317.912 396.494V355.278C317.913 354.336 318.284 353.433 318.942 352.767C319.6 352.101 320.493 351.726 321.424 351.725H348.116C349.048 351.726 349.94 352.101 350.599 352.767C351.257 353.433 351.628 354.336 351.629 355.278V396.494C351.628 397.436 351.257 398.34 350.599 399.006C349.94 399.672 349.048 400.046 348.116 400.047Z" fill="white"/>
<path d="M400.096 400.047H373.404C372.473 400.046 371.58 399.672 370.921 399.006C370.263 398.34 369.893 397.436 369.892 396.494V355.278C369.893 354.336 370.263 353.433 370.921 352.767C371.58 352.101 372.473 351.726 373.404 351.725H400.096C401.027 351.726 401.92 352.101 402.578 352.767C403.237 353.433 403.607 354.336 403.608 355.278V396.494C403.607 397.436 403.237 398.34 402.578 399.006C401.92 399.672 401.027 400.046 400.096 400.047Z" fill="white"/>
<path d="M348.116 475.374H321.424C320.493 475.373 319.6 474.998 318.942 474.332C318.284 473.666 317.913 472.763 317.912 471.821V430.605C317.913 429.663 318.284 428.76 318.942 428.094C319.6 427.428 320.493 427.053 321.424 427.052H348.116C349.048 427.053 349.94 427.428 350.599 428.094C351.257 428.76 351.628 429.663 351.629 430.605V471.821C351.628 472.763 351.257 473.666 350.599 474.332C349.94 474.998 349.048 475.373 348.116 475.374Z" fill="white"/>
<path d="M400.096 475.374H373.404C372.473 475.373 371.58 474.998 370.921 474.332C370.263 473.666 369.893 472.763 369.892 471.821V430.605C369.893 429.663 370.263 428.76 370.921 428.094C371.58 427.428 372.473 427.053 373.404 427.052H400.096C401.027 427.053 401.92 427.428 402.578 428.094C403.237 428.76 403.607 429.663 403.608 430.605V471.821C403.607 472.763 403.237 473.666 402.578 474.332C401.92 474.998 401.027 475.373 400.096 475.374Z" fill="white"/>
<path d="M978.896 320.458H956.419C954.742 320.456 953.136 319.782 951.95 318.583C950.765 317.384 950.099 315.758 950.097 314.063V284.216C950.099 282.521 950.765 280.895 951.95 279.696C953.136 278.497 954.742 277.823 956.419 277.821H978.896C980.572 277.823 982.179 278.497 983.364 279.696C984.549 280.895 985.216 282.521 985.218 284.216V314.063C985.216 315.758 984.549 317.384 983.364 318.583C982.179 319.782 980.572 320.456 978.896 320.458Z" fill="#E6E6E6"/>
<path d="M1168.55 563.491H1053.35C1050.19 563.487 1047.15 562.213 1044.91 559.949C1042.67 557.684 1041.42 554.613 1041.41 551.41V325.432C1041.42 322.229 1042.67 319.159 1044.91 316.894C1047.15 314.629 1050.19 313.355 1053.35 313.352H1168.55C1171.72 313.355 1174.75 314.629 1176.99 316.894C1179.23 319.159 1180.49 322.229 1180.49 325.432V551.41C1180.49 554.613 1179.23 557.684 1176.99 559.949C1174.75 562.213 1171.72 563.487 1168.55 563.491Z" fill="#E6E6E6"/>
<path d="M1099.71 563.491H900.224C897.058 563.487 894.023 562.213 891.784 559.949C889.545 557.684 888.286 554.613 888.283 551.41V325.432C888.286 322.229 889.545 319.159 891.784 316.894C894.023 314.629 897.058 313.355 900.224 313.352H1099.71C1102.88 313.355 1105.91 314.629 1108.15 316.894C1110.39 319.159 1111.65 322.229 1111.65 325.432V551.41C1111.65 554.613 1110.39 557.684 1108.15 559.949C1105.91 562.213 1102.88 563.487 1099.71 563.491Z" fill="#F2F2F2"/>
<path d="M957.823 320.458H935.346C933.67 320.456 932.063 319.782 930.878 318.583C929.692 317.384 929.026 315.758 929.024 314.063V284.216C929.026 282.521 929.692 280.895 930.878 279.696C932.063 278.497 933.67 277.823 935.346 277.821H957.823C959.5 277.823 961.106 278.497 962.292 279.696C963.477 280.895 964.143 282.521 964.145 284.216V314.063C964.143 315.758 963.477 317.384 962.292 318.583C961.106 319.782 959.5 320.456 957.823 320.458Z" fill="#F2F2F2"/>
<path d="M987.325 426.813H960.633C959.702 426.812 958.809 426.437 958.151 425.771C957.493 425.105 957.122 424.202 957.121 423.26V382.044C957.122 381.102 957.493 380.199 958.151 379.533C958.809 378.867 959.702 378.492 960.633 378.491H987.325C988.257 378.492 989.149 378.867 989.808 379.533C990.466 380.199 990.837 381.102 990.838 382.044V423.26C990.837 424.202 990.466 425.105 989.808 425.771C989.149 426.437 988.257 426.812 987.325 426.813Z" fill="white"/>
<path d="M1039.3 426.813H1012.61C1011.68 426.812 1010.79 426.437 1010.13 425.771C1009.47 425.105 1009.1 424.202 1009.1 423.26V382.044C1009.1 381.102 1009.47 380.199 1010.13 379.533C1010.79 378.867 1011.68 378.492 1012.61 378.491H1039.3C1040.24 378.492 1041.13 378.867 1041.79 379.533C1042.45 380.199 1042.82 381.102 1042.82 382.044V423.26C1042.82 424.202 1042.45 425.105 1041.79 425.771C1041.13 426.437 1040.24 426.812 1039.3 426.813Z" fill="white"/>
<path d="M987.325 502.139H960.633C959.702 502.138 958.809 501.763 958.151 501.097C957.493 500.431 957.122 499.528 957.121 498.586V457.37C957.122 456.428 957.493 455.525 958.151 454.859C958.809 454.193 959.702 453.818 960.633 453.817H987.325C988.257 453.818 989.149 454.193 989.808 454.859C990.466 455.525 990.837 456.428 990.838 457.37V498.586C990.837 499.528 990.466 500.431 989.808 501.097C989.149 501.763 988.257 502.138 987.325 502.139Z" fill="white"/>
<path d="M1039.3 502.139H1012.61C1011.68 502.138 1010.79 501.763 1010.13 501.097C1009.47 500.431 1009.1 499.528 1009.1 498.586V457.37C1009.1 456.428 1009.47 455.525 1010.13 454.859C1010.79 454.193 1011.68 453.818 1012.61 453.817H1039.3C1040.24 453.818 1041.13 454.193 1041.79 454.859C1042.45 455.525 1042.82 456.428 1042.82 457.37V498.586C1042.82 499.528 1042.45 500.431 1041.79 501.097C1041.13 501.763 1040.24 502.138 1039.3 502.139Z" fill="white"/>
<path d="M509.674 615.839H379.023C378.65 615.839 378.293 615.689 378.03 615.422C377.766 615.156 377.618 614.794 377.618 614.417C377.618 614.04 377.766 613.679 378.03 613.412C378.293 613.146 378.65 612.996 379.023 612.996H509.674C510.047 612.996 510.404 613.146 510.668 613.412C510.931 613.679 511.079 614.04 511.079 614.417C511.079 614.794 510.931 615.156 510.668 615.422C510.404 615.689 510.047 615.839 509.674 615.839Z" fill="#E6E6E6"/>
<path d="M834.196 615.839H703.545C703.172 615.839 702.815 615.689 702.551 615.422C702.288 615.156 702.14 614.794 702.14 614.417C702.14 614.04 702.288 613.679 702.551 613.412C702.815 613.146 703.172 612.996 703.545 612.996H834.196C834.569 612.996 834.926 613.146 835.189 613.412C835.453 613.679 835.601 614.04 835.601 614.417C835.601 614.794 835.453 615.156 835.189 615.422C834.926 615.689 834.569 615.839 834.196 615.839Z" fill="#E6E6E6"/>
<path d="M1158.72 615.839H1028.07C1027.69 615.839 1027.34 615.689 1027.07 615.422C1026.81 615.156 1026.66 614.794 1026.66 614.417C1026.66 614.04 1026.81 613.679 1027.07 613.412C1027.34 613.146 1027.69 612.996 1028.07 612.996H1158.72C1159.09 612.996 1159.45 613.146 1159.71 613.412C1159.97 613.679 1160.12 614.04 1160.12 614.417C1160.12 614.794 1159.97 615.156 1159.71 615.422C1159.45 615.689 1159.09 615.839 1158.72 615.839Z" fill="#E6E6E6"/>
<path d="M584.132 461.017C584.132 435.916 564.005 376.353 539.177 376.353C514.348 376.353 494.221 435.916 494.221 461.017C494.221 473.079 498.958 484.647 507.388 493.176C515.819 501.705 527.254 506.497 539.177 506.497C551.099 506.497 562.534 501.705 570.965 493.176C579.396 484.647 584.132 473.079 584.132 461.017Z" fill="#E6E6E6"/>
<path d="M572.893 461.017C572.893 435.916 552.766 376.353 527.938 376.353C503.11 376.353 482.982 435.916 482.982 461.017C482.982 473.079 487.719 484.647 496.15 493.176C504.58 501.705 516.015 506.497 527.938 506.497C539.861 506.497 551.295 501.705 559.726 493.176C568.157 484.647 572.893 473.079 572.893 461.017Z" fill="#F2F2F2"/>
<path d="M529.343 562.708C528.97 562.708 528.613 562.558 528.349 562.292C528.086 562.025 527.938 561.664 527.938 561.287V434.596C527.938 434.219 528.086 433.858 528.349 433.591C528.613 433.325 528.97 433.175 529.343 433.175C529.715 433.175 530.073 433.325 530.336 433.591C530.6 433.858 530.748 434.219 530.748 434.596V561.287C530.748 561.664 530.6 562.025 530.336 562.292C530.073 562.558 529.715 562.708 529.343 562.708Z" fill="#CCCCCC"/>
<path d="M529.343 455.365C529.065 455.365 528.793 455.281 528.562 455.125C528.331 454.969 528.151 454.747 528.045 454.487C527.939 454.228 527.911 453.942 527.965 453.666C528.019 453.391 528.153 453.137 528.349 452.939L546.721 434.351C546.985 434.085 547.342 433.935 547.715 433.935C548.087 433.935 548.445 434.085 548.708 434.351C548.971 434.618 549.119 434.979 549.119 435.356C549.119 435.733 548.971 436.095 548.708 436.361L530.336 454.948C530.206 455.081 530.051 455.185 529.88 455.257C529.71 455.328 529.527 455.365 529.343 455.365Z" fill="#CCCCCC"/>
<path d="M1302.01 461.017C1302.01 435.916 1281.89 376.353 1257.06 376.353C1232.23 376.353 1212.1 435.916 1212.1 461.017C1212.1 473.079 1216.84 484.647 1225.27 493.176C1233.7 501.705 1245.13 506.497 1257.06 506.497C1268.98 506.497 1280.41 501.705 1288.85 493.176C1297.28 484.647 1302.01 473.079 1302.01 461.017Z" fill="#E6E6E6"/>
<path d="M1290.77 461.017C1290.77 435.916 1270.65 376.353 1245.82 376.353C1220.99 376.353 1200.86 435.916 1200.86 461.017C1200.86 473.079 1205.6 484.647 1214.03 493.176C1222.46 501.705 1233.9 506.497 1245.82 506.497C1257.74 506.497 1269.18 501.705 1277.61 493.176C1286.04 484.647 1290.77 473.079 1290.77 461.017Z" fill="#F2F2F2"/>
<path d="M1247.22 562.708C1246.85 562.708 1246.49 562.558 1246.23 562.292C1245.97 562.025 1245.82 561.664 1245.82 561.287V434.596C1245.82 434.219 1245.97 433.858 1246.23 433.591C1246.49 433.325 1246.85 433.175 1247.22 433.175C1247.6 433.175 1247.95 433.325 1248.22 433.591C1248.48 433.858 1248.63 434.219 1248.63 434.596V561.287C1248.63 561.664 1248.48 562.025 1248.22 562.292C1247.95 562.558 1247.6 562.708 1247.22 562.708Z" fill="#CCCCCC"/>
<path d="M1247.22 455.365C1246.95 455.365 1246.67 455.281 1246.44 455.125C1246.21 454.969 1246.03 454.747 1245.93 454.487C1245.82 454.228 1245.79 453.942 1245.85 453.666C1245.9 453.391 1246.03 453.137 1246.23 452.939L1264.6 434.351C1264.87 434.085 1265.22 433.935 1265.6 433.935C1265.97 433.935 1266.32 434.085 1266.59 434.351C1266.85 434.618 1267 434.979 1267 435.356C1267 435.733 1266.85 436.095 1266.59 436.361L1248.22 454.948C1248.09 455.081 1247.93 455.185 1247.76 455.257C1247.59 455.328 1247.41 455.365 1247.22 455.365Z" fill="#CCCCCC"/>
<path d="M782.216 476.796H751.309C750.378 476.795 749.485 476.42 748.827 475.754C748.169 475.088 747.798 474.185 747.797 473.242V441.975C747.798 441.033 748.169 440.13 748.827 439.464C749.485 438.797 750.378 438.423 751.309 438.422H782.216C783.148 438.423 784.04 438.797 784.699 439.464C785.357 440.13 785.728 441.033 785.728 441.975V473.242C785.728 474.185 785.357 475.088 784.699 475.754C784.04 476.42 783.148 476.795 782.216 476.796Z" fill="#3F3D56"/>
<path d="M1082.24 493.915C1082.58 494.004 1082.9 494.168 1083.16 494.394C1083.43 494.619 1083.65 494.902 1083.8 495.222C1083.95 495.541 1084.02 495.89 1084.03 496.243C1084.03 496.596 1083.95 496.945 1083.81 497.266L1089.91 503.225L1085.61 504.201L1080.47 498.392C1079.95 498.107 1079.56 497.641 1079.36 497.082C1079.16 496.522 1079.17 495.908 1079.39 495.356C1079.61 494.804 1080.02 494.353 1080.55 494.087C1081.07 493.821 1081.68 493.76 1082.24 493.915Z" fill="#FFB8B8"/>
<path d="M1090.83 509.592L1083.3 502.44C1083.2 502.341 1083.11 502.223 1083.05 502.091C1083 501.959 1082.96 501.817 1082.96 501.672C1082.96 501.528 1082.99 501.385 1083.04 501.251C1083.09 501.117 1083.17 500.995 1083.27 500.892L1084.81 499.315C1084.99 499.129 1085.24 499.016 1085.49 498.997C1085.75 498.979 1086.01 499.057 1086.22 499.216L1092.53 504.098L1096.47 494.432C1096.63 494.051 1096.86 493.706 1097.15 493.418C1097.44 493.131 1097.79 492.907 1098.17 492.761C1098.55 492.615 1098.96 492.549 1099.37 492.569C1099.78 492.588 1100.18 492.692 1100.54 492.873C1101.12 493.156 1101.59 493.62 1101.88 494.197C1102.18 494.773 1102.28 495.431 1102.17 496.07C1101.46 500.467 1097.13 506.28 1094.61 509.353C1094.27 509.772 1093.8 510.073 1093.28 510.214C1092.76 510.355 1092.21 510.329 1091.71 510.141C1091.38 510.019 1091.09 509.832 1090.83 509.592Z" fill="#FF9C77"/>
<path d="M1086.61 502.654L1081.06 494.514C1080.99 494.409 1080.96 494.279 1080.98 494.154C1081.01 494.029 1081.08 493.918 1081.18 493.845L1081.4 493.69C1081.45 493.654 1081.51 493.629 1081.57 493.616C1081.63 493.602 1081.7 493.602 1081.76 493.613C1081.82 493.624 1081.88 493.648 1081.93 493.682C1081.98 493.716 1082.03 493.761 1082.06 493.813L1087.61 501.954C1087.65 502.005 1087.67 502.064 1087.68 502.126C1087.7 502.187 1087.7 502.251 1087.69 502.313C1087.68 502.375 1087.65 502.434 1087.62 502.487C1087.59 502.54 1087.54 502.586 1087.49 502.622L1087.27 502.777C1087.16 502.849 1087.04 502.877 1086.91 502.854C1086.79 502.831 1086.68 502.759 1086.61 502.654Z" fill="white"/>
<path d="M1085.06 502.715L1080.45 495.959C1080.26 495.67 1080.18 495.314 1080.24 494.97C1080.31 494.625 1080.5 494.32 1080.79 494.121L1081.25 493.793L1087.34 502.725L1086.87 503.053C1086.59 503.251 1086.24 503.327 1085.9 503.264C1085.55 503.201 1085.25 503.003 1085.06 502.715Z" fill="#3F3D56"/>
<path d="M1085.61 561.028L1082.72 560.692L1083.1 549.3L1086.9 549.744L1085.61 561.028Z" fill="#FFB8B8"/>
<path d="M1086.03 563.952L1076.7 562.863L1076.71 562.744C1076.77 562.261 1076.92 561.795 1077.15 561.371C1077.38 560.946 1077.7 560.573 1078.07 560.271C1078.45 559.969 1078.88 559.746 1079.34 559.612C1079.8 559.479 1080.29 559.439 1080.76 559.495L1086.46 560.16L1086.03 563.952Z" fill="#2F2E41"/>
<path d="M1119.24 558.865L1116.46 559.735L1111.82 549.295L1115.93 548.011L1119.24 558.865Z" fill="#FFB8B8"/>
<path d="M1120.79 561.372L1111.82 564.175L1111.78 564.06C1111.64 563.596 1111.59 563.109 1111.63 562.626C1111.68 562.142 1111.82 561.673 1112.04 561.243C1112.27 560.814 1112.57 560.434 1112.94 560.124C1113.31 559.814 1113.74 559.581 1114.19 559.437L1119.67 557.726L1120.79 561.372Z" fill="#2F2E41"/>
<path d="M1082.38 558.403C1082.09 558.311 1081.84 558.108 1081.69 557.835C1081.55 557.562 1081.51 557.242 1081.59 556.942L1083.33 536.639C1083.41 535.713 1083.7 534.818 1084.18 534.021L1094.73 516.303L1104.17 518.019L1104.23 518.045C1108.82 520.889 1112.9 534.678 1116.84 548.013C1117.45 550.087 1118.09 552.231 1118.7 554.28C1118.82 554.573 1118.82 554.9 1118.7 555.19C1118.58 555.481 1118.35 555.713 1118.06 555.836L1115.2 557.054C1114.93 557.17 1114.63 557.18 1114.35 557.082C1114.07 556.984 1113.84 556.784 1113.7 556.523L1099 529.297C1098.98 529.263 1098.96 529.234 1098.93 529.212C1098.89 529.19 1098.86 529.177 1098.82 529.173C1098.78 529.168 1098.74 529.173 1098.71 529.187C1098.67 529.201 1098.64 529.223 1098.62 529.253L1090.08 539.019L1086.95 557.631L1086.94 557.671C1086.82 557.937 1086.62 558.153 1086.36 558.279C1086.1 558.404 1085.81 558.432 1085.53 558.355L1082.46 558.414L1082.44 558.414L1082.38 558.403Z" fill="#2F2E41"/>
<path d="M1094.22 518.244L1094.16 518.225L1094.14 518.164C1094.1 518.016 1089.78 503.239 1093.67 493.819L1093.67 493.81C1093.79 493.586 1096.5 488.312 1099.65 487.784L1099.74 487.77L1100.76 489.708C1101.08 490.035 1106.63 495.861 1104.11 505.876C1104.34 506.697 1107.4 517.971 1105.74 519.656C1105.13 520.08 1104.39 520.267 1103.66 520.184C1100.45 519.906 1097.28 519.255 1094.22 518.244Z" fill="#FF9C77"/>
<path d="M1099 485.937C1103.07 485.937 1106.37 482.603 1106.37 478.49C1106.37 474.376 1103.07 471.042 1099 471.042C1094.94 471.042 1091.64 474.376 1091.64 478.49C1091.64 482.603 1094.94 485.937 1099 485.937Z" fill="#2F2E41"/>
<path d="M1096.08 485.901C1099.3 485.901 1101.91 483.26 1101.91 480.001C1101.91 476.742 1099.3 474.1 1096.08 474.1C1092.86 474.1 1090.25 476.742 1090.25 480.001C1090.25 483.26 1092.86 485.901 1096.08 485.901Z" fill="#FFB8B8"/>
<path d="M1099.83 485.732C1099.3 485.923 1098.65 486.091 1098.23 485.696C1098.06 485.467 1097.95 485.191 1097.94 484.903C1097.92 484.615 1097.99 484.329 1098.14 484.081C1098.44 483.595 1098.68 483.075 1098.87 482.531C1098.92 482.122 1098.87 481.705 1098.72 481.322C1098.57 480.939 1098.32 480.602 1098 480.345C1097.37 479.857 1096.65 479.492 1095.89 479.269L1091.8 477.801C1090.74 477.548 1089.8 476.931 1089.14 476.054C1088.8 475.324 1088.74 474.491 1088.97 473.719C1089.21 472.948 1089.72 472.293 1090.41 471.884C1091.1 471.53 1091.87 471.339 1092.64 471.323C1093.42 471.308 1094.19 471.469 1094.9 471.795C1095.68 472.162 1096.47 472.485 1097.29 472.763C1098.92 473.199 1100.78 472.808 1102.22 473.74C1102.82 474.206 1103.31 474.817 1103.62 475.519C1103.93 476.221 1104.06 476.991 1104.01 477.758C1103.88 479.302 1103.48 480.809 1102.81 482.201C1102.49 483.059 1102.04 483.859 1101.47 484.568C1101.19 484.914 1100.84 485.187 1100.43 485.364C1100.02 485.541 1099.58 485.617 1099.14 485.585L1099.83 485.732Z" fill="#2F2E41"/>
<path d="M1105.18 479.691C1107.8 479.691 1109.93 477.54 1109.93 474.886C1109.93 472.232 1107.8 470.081 1105.18 470.081C1102.56 470.081 1100.43 472.232 1100.43 474.886C1100.43 477.54 1102.56 479.691 1105.18 479.691Z" fill="#2F2E41"/>
<path d="M1097.34 481.853C1097.34 481.765 1097.37 481.68 1097.41 481.605C1097.45 481.53 1097.52 481.469 1097.59 481.428C1097.67 481.387 1097.75 481.368 1097.84 481.372C1097.93 481.377 1098.01 481.405 1098.08 481.453C1098.15 481.502 1098.21 481.57 1098.25 481.649C1098.28 481.728 1098.3 481.815 1098.29 481.902C1098.28 481.989 1098.25 482.071 1098.19 482.141C1098.14 482.211 1098.07 482.265 1097.99 482.298V483.354C1097.99 483.378 1097.99 483.402 1097.98 483.424C1097.97 483.446 1097.96 483.466 1097.94 483.483C1097.93 483.5 1097.91 483.513 1097.88 483.522C1097.86 483.531 1097.84 483.536 1097.82 483.536C1097.79 483.536 1097.77 483.531 1097.75 483.522C1097.73 483.513 1097.71 483.5 1097.69 483.483C1097.67 483.466 1097.66 483.446 1097.65 483.424C1097.64 483.402 1097.64 483.378 1097.64 483.354V482.298C1097.55 482.262 1097.48 482.2 1097.42 482.121C1097.37 482.042 1097.34 481.948 1097.34 481.853Z" fill="white"/>
<path d="M1082.53 498.959C1082.88 498.924 1083.23 498.966 1083.56 499.083C1083.89 499.2 1084.19 499.389 1084.44 499.636C1084.69 499.883 1084.88 500.182 1085.01 500.512C1085.13 500.843 1085.18 501.197 1085.15 501.549L1092.93 504.981L1089.23 507.413L1082.41 503.781C1081.83 503.696 1081.3 503.398 1080.92 502.944C1080.54 502.489 1080.34 501.91 1080.36 501.316C1080.37 500.721 1080.6 500.153 1081 499.718C1081.4 499.284 1081.95 499.014 1082.53 498.959Z" fill="#FFB8B8"/>
<path d="M1095.99 510.624L1086.46 506.577C1086.33 506.522 1086.21 506.44 1086.11 506.336C1086.01 506.233 1085.93 506.111 1085.88 505.977C1085.83 505.842 1085.8 505.699 1085.8 505.555C1085.81 505.41 1085.84 505.268 1085.9 505.137L1086.8 503.116C1086.9 502.877 1087.09 502.685 1087.33 502.576C1087.57 502.468 1087.84 502.45 1088.08 502.526L1095.69 504.876L1096.05 494.427C1096.06 494.014 1096.16 493.609 1096.34 493.237C1096.51 492.864 1096.76 492.532 1097.07 492.26C1097.37 491.989 1097.73 491.784 1098.12 491.659C1098.51 491.533 1098.92 491.49 1099.32 491.531C1099.96 491.592 1100.56 491.861 1101.04 492.298C1101.51 492.734 1101.84 493.315 1101.96 493.952C1102.8 498.325 1100.74 505.3 1099.44 509.069C1099.26 509.583 1098.93 510.028 1098.49 510.344C1098.06 510.659 1097.53 510.829 1096.99 510.831C1096.65 510.83 1096.31 510.76 1095.99 510.624Z" fill="#FF9C77"/>
<path d="M119.122 508.151H104.531V503.67C109.141 500.424 113.226 500.706 118.6 503.933L119.122 508.151Z" fill="#FF9C77"/>
<path d="M101.152 587.744H97.9576L97.48 575.279H101.152V587.744Z" fill="#FFB8B8"/>
<path d="M101.967 590.876L91.667 590.875V590.744C91.667 590.211 91.7707 589.684 91.9721 589.192C92.1736 588.7 92.4689 588.252 92.8412 587.876C93.2134 587.499 93.6554 587.2 94.1418 586.997C94.6282 586.793 95.1495 586.688 95.6759 586.688L101.967 586.688L101.967 590.876Z" fill="#2F2E41"/>
<path d="M119.144 587.744H122.338L122.815 575.279H119.143L119.144 587.744Z" fill="#FFB8B8"/>
<path d="M118.329 586.688L124.62 586.688C125.146 586.688 125.668 586.793 126.154 586.997C126.641 587.2 127.083 587.499 127.455 587.876C127.827 588.252 128.122 588.7 128.324 589.192C128.525 589.684 128.629 590.211 128.629 590.744V590.875L118.329 590.876L118.329 586.688Z" fill="#2F2E41"/>
<path d="M119.228 586.146C118.962 586.145 118.703 586.053 118.495 585.884C118.287 585.716 118.142 585.481 118.083 585.218L110.166 550.282C110.149 550.193 110.101 550.113 110.031 550.057C109.961 550 109.874 549.97 109.784 549.972H109.783C109.693 549.971 109.605 550.001 109.536 550.059C109.466 550.116 109.419 550.196 109.402 550.286L102.132 584.986C102.075 585.252 101.93 585.49 101.722 585.66C101.513 585.831 101.253 585.925 100.985 585.926H97.5211C97.3613 585.926 97.2032 585.893 97.0565 585.829C96.9098 585.765 96.7775 585.671 96.6679 585.554C96.5583 585.436 96.4736 585.297 96.4191 585.145C96.3645 584.993 96.3412 584.831 96.3507 584.67L98.9304 540.689L99.9684 540.378L99.9879 540.378L120.378 540.559L124.721 584.492C124.736 584.648 124.72 584.807 124.674 584.957C124.628 585.107 124.553 585.247 124.453 585.368C124.353 585.489 124.231 585.588 124.093 585.66C123.954 585.733 123.803 585.776 123.648 585.789L119.322 586.143C119.29 586.145 119.259 586.146 119.228 586.146Z" fill="#2F2E41"/>
<path d="M110.808 500.12C114.342 500.12 117.207 497.221 117.207 493.646C117.207 490.07 114.342 487.172 110.808 487.172C107.273 487.172 104.408 490.07 104.408 493.646C104.408 497.221 107.273 500.12 110.808 500.12Z" fill="#FFB8B8"/>
<path d="M106.887 545.51C105.765 545.525 104.646 545.365 103.571 545.038C102.615 544.747 101.728 544.26 100.964 543.608C100.201 542.957 99.5771 542.154 99.1318 541.249C98.9907 540.977 98.9595 540.66 99.0446 540.365C99.7503 537.928 103.161 525.261 100.985 515.192C100.678 513.793 100.652 512.346 100.91 510.936C101.167 509.527 101.703 508.185 102.484 506.99C103.248 505.804 104.239 504.786 105.4 503.997C106.56 503.207 107.866 502.662 109.24 502.394C109.601 502.322 109.963 502.264 110.318 502.219C111.836 502.03 113.377 502.183 114.83 502.667C116.283 503.15 117.612 503.953 118.723 505.017C119.866 506.102 120.759 507.429 121.336 508.904C121.913 510.378 122.161 511.964 122.062 513.547L120.39 540.697C120.378 540.901 120.314 541.098 120.205 541.269C120.095 541.44 119.944 541.58 119.765 541.674C117.839 542.695 112.053 545.51 106.887 545.51Z" fill="#3F3D56"/>
<path d="M118.037 488.88C117.372 487.19 116.155 485.782 114.587 484.89C113.02 483.999 111.198 483.678 109.425 483.982L111.443 485.631C108.936 485.717 106.297 485.535 104.507 487.313C105.077 487.297 105.824 488.53 106.394 488.514C105.86 488.552 105.347 488.734 104.907 489.041C104.467 489.348 104.116 489.769 103.892 490.26C103.456 491.253 103.354 492.364 103.601 493.422C104.247 494.978 104.998 496.488 105.849 497.94C105.775 495.364 110.786 489.222 113.233 489.863C111.99 490.33 110.911 491.158 110.133 492.244C111.798 491.394 113.681 491.083 115.527 491.352C115.948 491.449 116.383 491.474 116.812 491.424C117.076 491.372 117.321 491.252 117.526 491.076C117.73 490.9 117.886 490.673 117.98 490.419C118.073 490.164 118.1 489.89 118.059 489.621C118.017 489.353 117.909 489.1 117.743 488.886L118.037 488.88Z" fill="#2F2E41"/>
<path d="M106.446 543.88C106.285 543.88 106.125 543.846 105.977 543.78L93.8351 538.418C93.5772 538.306 93.3679 538.104 93.2457 537.849C93.1235 537.593 93.0965 537.301 93.1699 537.027L101.208 506.309C101.357 505.737 101.618 505.202 101.974 504.733C102.331 504.265 102.776 503.873 103.284 503.581C103.793 503.289 104.353 503.102 104.933 503.032C105.514 502.961 106.102 503.009 106.664 503.171L109.878 504.099L107.615 542.763C107.604 542.954 107.547 543.139 107.449 543.303C107.352 543.466 107.217 543.604 107.056 543.704C106.873 543.819 106.662 543.88 106.446 543.88Z" fill="#FF9C77"/>
<path d="M128.918 537.027L128.384 534.989L127.61 532.027L127.238 530.606L126.464 527.651L120.88 506.308C120.731 505.736 120.471 505.2 120.115 504.732C119.758 504.263 119.313 503.871 118.805 503.579C118.296 503.287 117.736 503.1 117.155 503.03C116.575 502.96 115.986 503.008 115.424 503.171L112.212 504.099L113.804 531.294L113.968 534.133L114.072 535.922V535.925L114.239 538.748L114.474 542.763C114.493 543.064 114.624 543.347 114.841 543.554C115.058 543.762 115.345 543.878 115.643 543.88C115.805 543.879 115.964 543.845 116.112 543.78L128.254 538.419C128.512 538.307 128.721 538.104 128.844 537.849C128.966 537.593 128.992 537.301 128.918 537.027Z" fill="#FF9C77"/>
<path d="M127.238 530.607L113.968 534.133L113.803 531.294L126.464 527.65L127.238 530.607Z" fill="#CCCCCC"/>
<path d="M128.384 534.99L114.238 538.749L114.071 535.925V535.922L127.61 532.026L128.384 534.99Z" fill="#CCCCCC"/>
<path d="M108.122 531.906L107.957 534.692L94.9429 530.77L95.7057 527.854L108.122 531.906Z" fill="#CCCCCC"/>
<path d="M107.85 536.526L94.5704 532.19L93.8062 535.113L107.689 539.296L107.85 536.526Z" fill="#CCCCCC"/>
<path d="M94.8012 539.44C95.1972 539.335 95.5656 539.144 95.8806 538.88C96.1957 538.616 96.4496 538.285 96.6246 537.911C96.7996 537.536 96.8913 537.128 96.8933 536.714C96.8954 536.3 96.8077 535.891 96.6364 535.515L102.88 515.686L98.4526 514.748L92.7286 534.189C92.1234 534.522 91.6599 535.068 91.426 535.723C91.192 536.379 91.204 537.098 91.4594 537.746C91.7149 538.393 92.1962 538.923 92.8121 539.235C93.428 539.547 94.1358 539.62 94.8012 539.44Z" fill="#FFB8B8"/>
<path d="M103.053 505.938C104.324 506.07 105.04 507.516 104.723 509.316L103.207 517.956C103.093 518.604 102.566 519.117 102.128 519.006L96.9979 517.709C96.6032 517.609 96.4578 517.041 96.6815 516.474L99.7614 508.657C99.9697 507.918 100.397 507.261 100.986 506.775C101.574 506.289 102.296 505.997 103.053 505.938Z" fill="#3F3D56"/>
<path d="M110.784 481.528C112.95 481.529 115.03 482.382 116.585 483.907C118.14 485.432 119.048 487.51 119.115 489.7H120.685C120.823 489.7 120.956 489.755 121.053 489.854C121.151 489.953 121.206 490.087 121.206 490.227V492.336C121.206 492.475 121.151 492.609 121.053 492.708C120.956 492.807 120.823 492.863 120.685 492.863H102.967C102.829 492.863 102.697 492.807 102.599 492.708C102.501 492.609 102.446 492.475 102.446 492.336V489.963C102.446 488.856 102.662 487.759 103.081 486.735C103.5 485.712 104.114 484.782 104.888 483.999C105.663 483.216 106.582 482.594 107.593 482.17C108.605 481.747 109.689 481.528 110.784 481.528Z" fill="#FF9C77"/>
<path d="M111.78 533.668H108.097C107.979 533.668 107.865 533.624 107.777 533.543C107.69 533.463 107.635 533.352 107.624 533.233L106.887 525.589H112.99L112.253 533.233C112.242 533.352 112.187 533.463 112.1 533.543C112.012 533.624 111.898 533.668 111.78 533.668Z" fill="#E6E6E6"/>
<path d="M112.981 526.551H106.897C106.771 526.551 106.65 526.5 106.561 526.41C106.472 526.32 106.422 526.197 106.421 526.07V524.916C106.422 524.788 106.472 524.666 106.561 524.576C106.65 524.486 106.771 524.435 106.897 524.435H112.981C113.107 524.435 113.228 524.486 113.317 524.576C113.406 524.666 113.456 524.788 113.456 524.916V526.07C113.456 526.197 113.406 526.32 113.317 526.41C113.228 526.5 113.107 526.551 112.981 526.551Z" fill="#CCCCCC"/>
<path d="M110.018 529.568C110.161 529.585 110.303 529.613 110.442 529.652L120.25 521.142L119.677 518.02L124.222 516.529L125.768 521.957C125.893 522.395 125.873 522.863 125.713 523.289C125.553 523.716 125.26 524.078 124.879 524.322L112.457 532.275C112.466 532.837 112.305 533.388 111.997 533.855C111.689 534.322 111.247 534.684 110.73 534.891C110.214 535.098 109.648 535.141 109.107 535.015C108.566 534.888 108.075 534.598 107.701 534.183C107.327 533.768 107.087 533.247 107.012 532.69C106.938 532.133 107.032 531.567 107.284 531.066C107.535 530.565 107.932 530.153 108.42 529.886C108.908 529.618 109.466 529.507 110.018 529.568Z" fill="#FFB8B8"/>
<path d="M120.276 506.652C121.634 506.268 122.991 507.313 123.445 509.094L125.627 517.643C125.79 518.284 125.473 518.965 124.977 519.037L119.165 519.882C118.717 519.948 118.323 519.484 118.307 518.873L118.081 510.46C117.995 509.672 118.162 508.875 118.557 508.19C118.952 507.504 119.555 506.965 120.276 506.652Z" fill="#3F3D56"/>
<path d="M186.34 529.778H181.915C181.773 529.779 181.636 529.726 181.53 529.629C181.425 529.533 181.36 529.4 181.346 529.257L180.46 520.072H187.794L186.908 529.257C186.895 529.4 186.829 529.532 186.724 529.629C186.619 529.726 186.482 529.779 186.34 529.778Z" fill="#E6E6E6"/>
<path d="M187.782 521.228H180.472C180.321 521.227 180.175 521.166 180.068 521.058C179.961 520.95 179.901 520.803 179.901 520.65V519.263C179.901 519.11 179.961 518.963 180.068 518.855C180.175 518.747 180.321 518.686 180.472 518.686H187.782C187.933 518.686 188.078 518.747 188.185 518.855C188.292 518.963 188.353 519.11 188.353 519.263V520.65C188.353 520.803 188.292 520.95 188.185 521.058C188.078 521.166 187.933 521.227 187.782 521.228Z" fill="#CCCCCC"/>
<path d="M229.813 583.715C226.598 579.389 224.056 574.59 222.276 569.486C222.173 569.18 222.181 568.848 222.297 568.548C222.414 568.247 222.632 567.998 222.912 567.845L233.914 561.882C234.092 561.785 234.29 561.73 234.492 561.721C234.694 561.713 234.895 561.752 235.08 561.834C235.269 561.917 235.436 562.042 235.57 562.2C235.703 562.359 235.8 562.546 235.851 562.747C237.131 567.666 239.538 572.21 242.877 576.013C243.014 576.168 243.115 576.353 243.172 576.553C243.228 576.753 243.238 576.963 243.202 577.168C243.167 577.37 243.087 577.561 242.969 577.726C242.85 577.892 242.695 578.028 242.517 578.124L231.515 584.088C231.234 584.24 230.908 584.285 230.596 584.217C230.285 584.149 230.007 583.971 229.813 583.715Z" fill="#CCCCCC"/>
<path d="M230.563 583.144C230.623 583.219 230.706 583.27 230.798 583.289C230.891 583.309 230.988 583.295 231.071 583.25L242.073 577.286C242.126 577.258 242.173 577.218 242.208 577.168C242.243 577.119 242.267 577.062 242.277 577.002C242.289 576.939 242.285 576.873 242.268 576.811C242.25 576.749 242.219 576.692 242.175 576.645C238.738 572.73 236.26 568.051 234.942 562.988C234.927 562.925 234.898 562.867 234.856 562.818C234.815 562.769 234.763 562.73 234.705 562.704C234.65 562.679 234.59 562.668 234.529 562.67C234.469 562.673 234.41 562.689 234.357 562.719L223.356 568.683C223.272 568.728 223.207 568.802 223.172 568.891C223.137 568.979 223.133 569.078 223.162 569.169C224.91 574.182 227.406 578.895 230.563 583.144Z" fill="white"/>
<path d="M234.636 570.392L228.644 573.068C228.417 573.17 228.158 573.176 227.926 573.085C227.694 572.994 227.507 572.813 227.406 572.583L227.258 572.243C227.158 572.013 227.152 571.751 227.242 571.516C227.332 571.281 227.51 571.092 227.738 570.99L233.73 568.314C233.958 568.213 234.216 568.207 234.448 568.298C234.68 568.389 234.867 568.57 234.968 568.8L235.116 569.14C235.217 569.37 235.222 569.632 235.132 569.866C235.042 570.101 234.864 570.29 234.636 570.392Z" fill="#CCCCCC"/>
<path d="M236.827 574.509L230.835 577.185C230.607 577.286 230.349 577.292 230.117 577.201C229.885 577.11 229.698 576.93 229.597 576.699L229.449 576.36C229.348 576.129 229.343 575.868 229.433 575.633C229.523 575.398 229.701 575.209 229.929 575.107L235.921 572.431C236.149 572.33 236.407 572.324 236.639 572.415C236.871 572.506 237.058 572.686 237.159 572.917L237.307 573.256C237.408 573.487 237.413 573.748 237.323 573.983C237.233 574.218 237.055 574.407 236.827 574.509Z" fill="#CCCCCC"/>
<path d="M222.774 571.079C222.361 570.81 222.01 570.452 221.748 570.031C221.486 569.611 221.319 569.137 221.257 568.643C221.195 568.15 221.242 567.649 221.392 567.175C221.543 566.702 221.794 566.268 222.129 565.903L219.602 529.624L226.881 530.338L227.08 565.866C227.649 566.475 227.976 567.274 228.001 568.111C228.026 568.948 227.747 569.765 227.216 570.407C226.685 571.05 225.94 571.473 225.121 571.597C224.302 571.721 223.467 571.536 222.774 571.079Z" fill="#A0616A"/>
<path d="M221.249 541.814C221.079 541.69 220.938 541.529 220.838 541.343C220.737 541.157 220.679 540.95 220.668 540.738L220.134 530.959C220.082 529.991 220.385 529.036 220.987 528.281C221.588 527.525 222.445 527.022 223.392 526.867C224.338 526.713 225.308 526.918 226.114 527.444C226.92 527.97 227.505 528.779 227.756 529.716L230.098 538.458C230.196 538.823 230.146 539.212 229.96 539.539C229.775 539.867 229.468 540.107 229.108 540.206L222.443 542.034C222.24 542.09 222.028 542.1 221.821 542.062C221.615 542.024 221.419 541.939 221.249 541.814Z" fill="#3F3D56"/>
<path d="M208.843 615.681L205.006 615.68L203.18 600.706H208.844L208.843 615.681Z" fill="#A0616A"/>
<path d="M201.408 614.571H209.666V619.286H197.604V618.419C197.604 617.914 197.703 617.413 197.894 616.946C198.085 616.48 198.365 616.055 198.718 615.698C199.072 615.341 199.491 615.058 199.952 614.864C200.414 614.671 200.908 614.571 201.408 614.571Z" fill="#2F2E41"/>
<path d="M223.243 615.681L219.406 615.68L217.58 600.706H223.244L223.243 615.681Z" fill="#A0616A"/>
<path d="M215.807 614.571H224.065V619.286H212.004V618.419C212.004 617.914 212.102 617.413 212.293 616.946C212.484 616.48 212.765 616.055 213.118 615.698C213.471 615.341 213.89 615.058 214.352 614.864C214.813 614.671 215.308 614.571 215.807 614.571Z" fill="#2F2E41"/>
<path d="M208.662 608.136L204.437 607.932C204.077 607.915 203.738 607.759 203.488 607.496C203.239 607.233 203.098 606.883 203.096 606.519C201.982 589.127 200.439 570.478 202.801 563.273C202.799 563.068 202.842 562.865 202.925 562.677C203.009 562.49 203.131 562.324 203.284 562.189C203.437 562.054 203.617 561.954 203.812 561.896C204.006 561.838 204.211 561.823 204.412 561.853L221.314 564.335C221.648 564.382 221.953 564.55 222.175 564.807C222.397 565.064 222.519 565.393 222.52 565.735C224.678 574.265 224.775 589.734 224.694 605.806C224.695 605.994 224.66 606.181 224.59 606.355C224.519 606.529 224.416 606.687 224.285 606.821C224.154 606.954 223.998 607.06 223.827 607.133C223.655 607.205 223.471 607.242 223.285 607.242H218.73C218.394 607.244 218.069 607.123 217.814 606.902C217.558 606.681 217.39 606.374 217.339 606.038L214.529 587.966C214.488 587.702 214.353 587.461 214.151 587.289C213.948 587.117 213.691 587.025 213.426 587.03C213.162 587.035 212.908 587.136 212.712 587.316C212.515 587.495 212.39 587.741 212.359 588.007L210.128 606.882C210.086 607.228 209.921 607.546 209.663 607.777C209.405 608.009 209.073 608.137 208.729 608.138C208.707 608.138 208.684 608.137 208.662 608.136Z" fill="#2F2E41"/>
<path d="M211.636 565.737C209.169 564.271 206.435 563.323 203.597 562.951C203.411 562.933 203.23 562.877 203.066 562.786C202.901 562.695 202.757 562.571 202.642 562.422C202.523 562.271 202.437 562.098 202.387 561.913C202.337 561.728 202.324 561.534 202.35 561.344L206.4 530.926C206.633 529.147 207.313 527.457 208.374 526.018C209.435 524.58 210.842 523.439 212.461 522.706C214.029 521.977 215.755 521.666 217.476 521.802C219.196 521.939 220.853 522.518 222.289 523.485C222.428 523.579 222.564 523.674 222.698 523.772C224.352 524.998 225.61 526.692 226.314 528.64C227.018 530.589 227.136 532.704 226.654 534.72C224.17 544.999 223.317 561.848 223.171 565.122C223.16 565.401 223.067 565.67 222.904 565.896C222.742 566.122 222.517 566.294 222.258 566.39C220.73 566.952 219.117 567.242 217.492 567.249C215.444 567.261 213.427 566.741 211.636 565.737Z" fill="#3F3D56"/>
<path d="M215.024 518.576C219.27 518.576 222.712 515.093 222.712 510.798C222.712 506.502 219.27 503.02 215.024 503.02C210.778 503.02 207.335 506.502 207.335 510.798C207.335 515.093 210.778 518.576 215.024 518.576Z" fill="#A0616A"/>
<path d="M220.465 516.951C220.143 517.302 219.729 517.553 219.272 517.674C218.815 517.795 218.333 517.781 217.883 517.634C217.433 517.488 217.033 517.214 216.732 516.846C216.43 516.478 216.239 516.03 216.18 515.556C216.165 515.392 216.166 515.227 216.183 515.063C216.463 514.163 216.632 513.232 216.686 512.291C216.657 512.045 216.566 511.811 216.423 511.61C215.28 510.062 212.597 512.303 211.518 510.901C210.857 510.042 211.634 508.688 211.126 507.728C210.457 506.46 208.472 507.085 207.228 506.391C205.843 505.618 205.926 503.469 206.838 502.162C207.431 501.39 208.185 500.759 209.047 500.316C209.908 499.872 210.856 499.626 211.822 499.595C213.757 499.549 215.679 499.928 217.454 500.707C219.551 501.397 221.402 502.695 222.776 504.44C223.487 505.584 223.938 506.874 224.095 508.216C224.253 509.558 224.113 510.919 223.687 512.199C222.935 513.984 221.84 515.599 220.465 516.951Z" fill="#2F2E41"/>
<path d="M226.553 524.513C226.419 523.874 225.264 522.999 223.611 522.287C220.954 521.198 218.081 520.76 215.225 521.008C212.369 521.255 209.611 522.182 207.177 523.712C207.007 523.721 206.845 523.787 206.715 523.898C206.586 524.01 206.496 524.161 206.46 524.33L200.9 549.205L200.177 552.445L199.698 554.589L198.975 557.819L198.59 559.545C198.565 559.655 198.564 559.77 198.587 559.881C198.61 559.991 198.655 560.096 198.721 560.187C198.787 560.279 198.871 560.355 198.969 560.411C199.066 560.467 199.174 560.501 199.285 560.511L223.292 562.608C223.313 562.608 223.339 562.611 223.36 562.611C223.559 562.609 223.749 562.532 223.893 562.395C224.037 562.257 224.124 562.07 224.137 561.87L224.365 558.351L224.61 554.589L224.716 552.958L224.957 549.205L226.557 524.554V524.532L226.553 524.513Z" fill="#FF9C77"/>
<path d="M187.163 526.079C187.201 526.25 187.226 526.424 187.238 526.599L200.685 534.447L203.953 532.543L207.438 537.158L200.446 542.2L185.104 529.956C184.479 530.19 183.797 530.226 183.151 530.059C182.505 529.892 181.924 529.53 181.486 529.021C181.048 528.511 180.773 527.879 180.699 527.209C180.625 526.538 180.754 525.86 181.07 525.266C181.386 524.671 181.873 524.188 182.467 523.88C183.06 523.572 183.733 523.455 184.394 523.543C185.056 523.632 185.675 523.922 186.169 524.375C186.664 524.828 187.01 525.422 187.163 526.079Z" fill="#A0616A"/>
<path d="M201.165 533.78C201.143 533.568 201.168 533.355 201.238 533.154C201.308 532.954 201.421 532.772 201.57 532.623L208.414 525.697C209.092 525.011 209.997 524.603 210.955 524.552C211.913 524.501 212.855 524.811 213.601 525.421C214.346 526.032 214.842 526.9 214.992 527.858C215.142 528.816 214.936 529.797 214.414 530.611L209.54 538.209C209.337 538.526 209.017 538.748 208.652 538.826C208.287 538.905 207.905 538.834 207.592 538.628L201.799 534.826C201.623 534.71 201.475 534.556 201.365 534.375C201.255 534.194 201.187 533.991 201.165 533.78Z" fill="#3F3D56"/>
<path d="M224.957 549.205L224.716 552.959L200.176 552.446L200.9 549.205H224.957Z" fill="#CCCCCC"/>
<path d="M224.609 554.589L224.365 558.351L198.975 557.819L199.699 554.589H224.609Z" fill="#CCCCCC"/>
<path d="M215.174 495.686C212.572 495.686 210.072 496.711 208.204 498.543C206.336 500.376 205.246 502.872 205.165 505.503H203.279C203.113 505.503 202.954 505.57 202.836 505.688C202.719 505.807 202.653 505.968 202.653 506.136V508.67C202.653 508.838 202.719 508.999 202.836 509.118C202.954 509.236 203.113 509.303 203.279 509.303H224.565C224.731 509.303 224.891 509.236 225.008 509.118C225.125 508.999 225.191 508.838 225.191 508.67V505.819C225.191 504.489 224.932 503.171 224.429 501.941C223.925 500.712 223.188 499.595 222.257 498.654C221.327 497.713 220.223 496.966 219.008 496.457C217.792 495.948 216.49 495.686 215.174 495.686Z" fill="#FF9C77"/>
<path d="M271.552 598.784H269.405C269.391 598.521 266.509 591.677 266.509 591.677L264.766 587.414L263.615 584.571L261.872 580.307L259.877 575.404C259.826 575.183 259.703 574.985 259.527 574.844C259.351 574.703 259.133 574.626 258.908 574.626C258.684 574.626 258.465 574.703 258.29 574.844C258.114 574.985 257.99 575.183 257.939 575.404L255.944 580.307L254.202 584.571L253.05 587.414L251.308 591.677C251.308 591.677 248.425 598.521 248.412 598.784H246.265C245.706 598.784 245.17 599.008 244.774 599.408C244.379 599.808 244.157 600.35 244.157 600.915C244.157 601.481 244.379 602.023 244.774 602.423C245.17 602.823 245.706 603.047 246.265 603.047H271.552C272.111 603.047 272.647 602.823 273.042 602.423C273.437 602.023 273.659 601.481 273.659 600.915C273.659 600.35 273.437 599.808 273.042 599.408C272.647 599.008 272.111 598.784 271.552 598.784Z" fill="#FF9C77"/>
<path d="M270.147 635.736H269.315C269.391 635.554 265.693 625.986 265.693 625.986L263.474 620.515L261.984 616.848L259.765 611.376L257.349 605.449C257.281 605.17 257.122 604.921 256.898 604.743C256.674 604.565 256.397 604.469 256.112 604.469C255.827 604.469 255.551 604.565 255.327 604.743C255.103 604.921 254.944 605.17 254.876 605.449L252.46 611.376L250.24 616.848L248.736 620.515L246.517 625.986C246.517 625.986 242.834 635.554 242.91 635.736H242.05C241.491 635.736 240.955 635.961 240.56 636.361C240.164 636.76 239.942 637.303 239.942 637.868C239.942 638.433 240.164 638.976 240.56 639.376C240.955 639.775 241.491 640 242.05 640H270.147C270.706 640 271.242 639.775 271.637 639.376C272.032 638.976 272.254 638.433 272.254 637.868C272.254 637.303 272.032 636.76 271.637 636.361C271.242 635.961 270.706 635.736 270.147 635.736Z" fill="#FF9C77"/>
<path d="M263.614 584.571H254.202L255.944 580.308H261.872L263.614 584.571Z" fill="#F2F2F2"/>
<path d="M266.508 591.678H251.308L253.05 587.414H264.766L266.508 591.678Z" fill="#F2F2F2"/>
<path d="M261.984 616.848H250.24L252.459 611.376H259.765L261.984 616.848Z" fill="#F2F2F2"/>
<path d="M265.693 625.986H246.517L248.736 620.515H263.473L265.693 625.986Z" fill="#F2F2F2"/>
<path d="M580.177 515.519C580.394 515.302 580.561 515.039 580.667 514.75C580.773 514.46 580.815 514.151 580.789 513.843C580.764 513.535 580.673 513.237 580.521 512.969C580.37 512.701 580.162 512.47 579.913 512.292L578.859 505.263L574.529 506.641L576.901 512.913C576.633 513.356 576.536 513.884 576.627 514.395C576.718 514.907 576.991 515.367 577.395 515.688C577.799 516.009 578.305 516.169 578.818 516.138C579.331 516.107 579.814 515.886 580.177 515.519Z" fill="#FFB8B8"/>
<path d="M575.717 512.212L573.046 499.594C572.786 498.385 572.837 497.129 573.194 495.946C573.551 494.763 574.203 493.692 575.086 492.837C578.504 489.504 582.898 485.304 584.416 484.217C585.84 483.19 587.564 482.675 589.311 482.755L589.348 482.759L591.645 484.956L586.64 493.29L579.043 498.106L579.889 510.473L575.717 512.212Z" fill="#FF9C77"/>
<path d="M585.07 495.064H573.862C573.377 495.064 572.983 495.463 572.983 495.954C572.983 496.445 573.377 496.843 573.862 496.843H585.07C585.555 496.843 585.949 496.445 585.949 495.954C585.949 495.463 585.555 495.064 585.07 495.064Z" fill="#CCCCCC"/>
<path d="M585.07 514.405H573.862C573.377 514.405 572.983 514.803 572.983 515.295C572.983 515.786 573.377 516.184 573.862 516.184H585.07C585.555 516.184 585.949 515.786 585.949 515.295C585.949 514.803 585.555 514.405 585.07 514.405Z" fill="#CCCCCC"/>
<path d="M579.576 562.872C579.466 562.872 579.36 562.83 579.279 562.755C579.198 562.68 579.148 562.577 579.138 562.466L573.536 495.994C573.53 495.935 573.536 495.877 573.554 495.821C573.571 495.765 573.599 495.713 573.636 495.668C573.673 495.623 573.718 495.586 573.77 495.559C573.821 495.532 573.877 495.515 573.934 495.51C573.992 495.505 574.05 495.511 574.105 495.529C574.16 495.546 574.211 495.575 574.256 495.613C574.3 495.65 574.337 495.696 574.363 495.748C574.39 495.8 574.406 495.857 574.411 495.915L579.57 557.33L584.582 495.916C584.587 495.858 584.603 495.801 584.629 495.749C584.656 495.697 584.692 495.651 584.736 495.613C584.78 495.575 584.832 495.546 584.887 495.529C584.942 495.511 585 495.504 585.058 495.509C585.115 495.514 585.171 495.531 585.223 495.558C585.274 495.585 585.32 495.622 585.357 495.667C585.394 495.712 585.422 495.764 585.439 495.819C585.457 495.875 585.463 495.934 585.458 495.992L580.014 562.465C580.005 562.576 579.954 562.679 579.873 562.754C579.792 562.83 579.686 562.871 579.576 562.872Z" fill="#CCCCCC"/>
<path d="M592.153 480.094C595.338 480.094 597.919 477.482 597.919 474.261C597.919 471.039 595.338 468.427 592.153 468.427C588.969 468.427 586.387 471.039 586.387 474.261C586.387 477.482 588.969 480.094 592.153 480.094Z" fill="#FFB8B8"/>
<path d="M574.969 562.099L572.227 561.215L574.293 550.094L578.34 551.398L574.969 562.099Z" fill="#FFB8B8"/>
<path d="M574.816 562.666L565.989 559.819L566.062 559.587C566.342 558.7 566.96 557.961 567.778 557.534C568.596 557.106 569.549 557.024 570.427 557.306L575.945 559.085L574.816 562.666Z" fill="#2F2E41"/>
<path d="M594.921 560.147H592.042L590.672 548.917H594.921V560.147Z" fill="#FFB8B8"/>
<path d="M586.602 562.74H595.427V559.427H589.856C588.993 559.428 588.166 559.775 587.556 560.392C586.946 561.009 586.603 561.846 586.602 562.719V562.74Z" fill="#2F2E41"/>
<path d="M594.836 556.503L593.865 556.356C592.645 556.282 591.438 556.054 590.274 555.678C590.035 555.571 590.018 553.967 590.162 544.95C590.267 538.33 590.398 530.092 590.144 525.67C590.133 525.495 590.065 525.329 589.95 525.199C589.835 525.068 589.68 524.981 589.51 524.951C589.339 524.92 589.164 524.949 589.012 525.032C588.86 525.115 588.74 525.247 588.671 525.407C586.479 530.529 582.801 541.99 580.367 549.574C579.52 552.212 578.852 554.296 578.429 555.545C578.347 555.781 578.181 555.978 577.964 556.097C577.746 556.216 577.492 556.249 577.252 556.189C575.249 555.682 575.383 555.467 572.531 554.721C572.284 554.657 572.071 554.499 571.937 554.28C571.802 554.061 571.757 553.799 571.81 553.546C572.326 551.085 581.768 511.173 582.49 507.379C582.515 507.249 582.564 507.125 582.636 507.015C582.708 506.905 582.801 506.81 582.91 506.736C583.018 506.662 583.14 506.611 583.268 506.585C583.396 506.559 583.528 506.559 583.656 506.585C585.782 507.018 587.075 507.478 589.176 507.923C591.443 508.402 593.787 508.898 596.073 509.361C596.301 509.408 596.505 509.534 596.649 509.718C597.286 510.407 598.07 510.94 598.942 511.276C599.54 511.566 598.184 511.54 598.705 511.957C600.817 513.649 597.78 547.992 595.945 555.749C595.886 555.992 595.74 556.204 595.535 556.343C595.33 556.483 595.08 556.539 594.836 556.503Z" fill="#2F2E41"/>
<path d="M594.611 479.365C594.274 477.92 595.976 474.811 595.639 473.365C595.411 472.387 593.137 473.052 592.606 472.202C592.359 471.764 592.01 471.394 591.59 471.123C591.169 470.853 590.689 470.691 590.192 470.652C589.05 470.639 587.926 471.496 586.844 471.126C586.588 470.997 586.36 470.819 586.172 470.6C585.985 470.382 585.843 470.128 585.754 469.853C585.664 469.579 585.63 469.289 585.652 469.001C585.674 468.712 585.753 468.432 585.884 468.174C586.463 467.153 587.362 466.355 588.439 465.907C590.136 464.859 592.167 464.513 594.109 464.943C595.221 465.379 596.239 466.027 597.11 466.851C597.982 467.504 598.749 468.291 599.382 469.184C599.919 470.114 600.211 471.169 600.228 472.247C600.245 473.324 599.987 474.388 599.479 475.335C598.429 477.226 596.755 478.683 594.751 479.452" fill="#2F2E41"/>
<path d="M580.453 512.994C581.075 511.942 582.02 507.014 583.185 498.742C583.978 493.096 584.669 487.358 585.012 484.428C585.039 484.191 585.125 483.964 585.262 483.77C585.398 483.575 585.582 483.419 585.795 483.316C586.017 483.207 586.238 483.104 586.458 483.007C589.099 481.785 592.03 481.352 594.905 481.761C597.781 482.17 600.48 483.403 602.685 485.314L602.711 485.339L602.718 485.374C602.73 485.439 603.921 491.932 601.482 496.318C599.076 500.646 599.048 512.109 599.048 512.224V512.371L598.908 512.331C595.165 511.249 580.707 513.142 580.561 513.161L580.336 513.191L580.453 512.994Z" fill="#FF9C77"/>
<path d="M602.21 497.955H591.003C590.518 497.955 590.124 498.353 590.124 498.844C590.124 499.335 590.518 499.734 591.003 499.734H602.21C602.696 499.734 603.089 499.335 603.089 498.844C603.089 498.353 602.696 497.955 602.21 497.955Z" fill="#CCCCCC"/>
<path d="M602.21 517.296H591.003C590.518 517.296 590.124 517.694 590.124 518.185C590.124 518.676 590.518 519.074 591.003 519.074H602.21C602.696 519.074 603.089 518.676 603.089 518.185C603.089 517.694 602.696 517.296 602.21 517.296Z" fill="#CCCCCC"/>
<path d="M596.717 563.093C596.607 563.093 596.501 563.051 596.42 562.976C596.339 562.901 596.289 562.798 596.279 562.688L590.676 498.883C590.666 498.765 590.702 498.648 590.777 498.558C590.852 498.468 590.959 498.411 591.075 498.401C591.191 498.39 591.307 498.427 591.396 498.502C591.485 498.578 591.541 498.687 591.552 498.804L596.71 557.552L601.722 498.805C601.727 498.747 601.743 498.69 601.77 498.638C601.796 498.586 601.833 498.54 601.877 498.502C601.921 498.464 601.972 498.436 602.027 498.418C602.083 498.4 602.141 498.394 602.198 498.399C602.256 498.404 602.312 498.42 602.363 498.447C602.415 498.474 602.46 498.511 602.497 498.556C602.535 498.601 602.563 498.653 602.58 498.709C602.597 498.765 602.603 498.823 602.598 498.882L597.155 562.687C597.145 562.797 597.095 562.901 597.014 562.976C596.933 563.051 596.827 563.093 596.717 563.093Z" fill="#CCCCCC"/>
<path d="M593.098 517.578C593.032 517.277 593.033 516.965 593.1 516.663C593.166 516.362 593.298 516.079 593.484 515.835C593.67 515.591 593.907 515.391 594.179 515.249C594.45 515.107 594.748 515.027 595.053 515.015L599.713 509.693L602.607 513.231L597.248 517.192C597.234 517.711 597.033 518.208 596.682 518.587C596.331 518.966 595.854 519.202 595.343 519.25C594.831 519.298 594.32 519.154 593.906 518.846C593.493 518.538 593.205 518.087 593.098 517.578Z" fill="#FFB8B8"/>
<path d="M595.812 513.874L603.164 503.956L599.373 495.737L599.648 485.99L602.756 485.409L602.789 485.425C604.299 486.319 605.469 487.698 606.113 489.344C606.804 491.09 608.236 497.032 609.316 501.709C609.598 502.912 609.57 504.169 609.234 505.358C608.898 506.548 608.266 507.63 607.399 508.502L598.38 517.627L595.812 513.874Z" fill="#FF9C77"/>
<path d="M564.991 560.335L575.05 562.785C575.245 562.838 575.452 562.819 575.635 562.733C575.818 562.646 575.965 562.498 576.051 562.313L584.692 539.071C584.73 538.982 584.749 538.886 584.75 538.788C584.75 538.691 584.73 538.595 584.692 538.505C584.649 538.405 584.585 538.315 584.506 538.24C584.427 538.165 584.334 538.107 584.232 538.07L576.669 535.148C576.55 535.101 576.422 535.081 576.294 535.088C576.166 535.095 576.041 535.13 575.928 535.189C575.829 535.238 575.742 535.309 575.672 535.395C575.602 535.481 575.551 535.582 575.523 535.69L570.185 556.175L570.106 556.18C568.449 556.278 566.875 556.942 565.639 558.063C565.382 558.377 565.192 558.74 565.081 559.131C564.969 559.522 564.939 559.932 564.991 560.335Z" fill="#CCCCCC"/>
<path d="M572.276 547.306L572.229 547.749L581.4 548.731L581.446 548.289L572.276 547.306Z" fill="#B3B3B3"/>
<path d="M571.476 550.97L571.296 551.375L578.676 554.735L578.856 554.329L571.476 550.97Z" fill="#B3B3B3"/>
<path d="M582.412 545.175L573.713 542.261L573.894 541.855L582.592 544.769L582.412 545.175Z" fill="#B3B3B3"/>
<path d="M583.292 543.174L574.593 538.926L574.773 538.52L583.471 542.768L583.292 543.174Z" fill="#B3B3B3"/>
<path d="M570.709 554.451L570.424 554.789L576.695 560.209L576.981 559.871L570.709 554.451Z" fill="#B3B3B3"/>
<path d="M568.928 556.249L568.528 556.432L571.045 562.048L571.445 561.864L568.928 556.249Z" fill="#B3B3B3"/>
<path d="M814.073 517.38C813.701 517.292 813.352 517.123 813.05 516.884C812.749 516.645 812.504 516.342 812.331 515.997C812.158 515.652 812.062 515.272 812.05 514.885C812.037 514.499 812.109 514.114 812.26 513.758L802.611 491.704L808.13 490.298L815.879 512.418C816.453 512.714 816.9 513.212 817.135 513.819C817.371 514.426 817.377 515.099 817.155 515.71C816.932 516.322 816.496 516.83 815.928 517.137C815.36 517.445 814.7 517.531 814.073 517.38Z" fill="#A0616A"/>
<path d="M804.401 500.508C804.247 500.438 804.11 500.336 803.999 500.208C803.888 500.079 803.805 499.928 803.757 499.765L802.07 494.056C801.701 493.265 801.658 492.358 801.95 491.535C802.242 490.712 802.845 490.04 803.627 489.667C804.409 489.294 805.305 489.25 806.119 489.546C806.932 489.841 807.597 490.451 807.965 491.242L811.228 496.227C811.321 496.369 811.383 496.53 811.409 496.699C811.435 496.867 811.425 497.039 811.379 497.204C811.334 497.368 811.253 497.52 811.144 497.65C811.035 497.78 810.9 497.885 810.747 497.958L805.379 500.5C805.226 500.572 805.06 500.61 804.891 500.612C804.722 500.613 804.555 500.578 804.401 500.508Z" fill="#FF9C77"/>
<path d="M824.043 495.77L818.125 500.009C818.049 500.065 817.958 500.095 817.864 500.095C817.77 500.095 817.679 500.065 817.603 500.009L816.004 498.794C815.951 498.755 815.907 498.704 815.876 498.645C815.845 498.587 815.827 498.521 815.825 498.455C815.822 498.388 815.834 498.322 815.86 498.261C815.886 498.2 815.925 498.145 815.975 498.101L820.529 493.993C820.589 493.94 820.662 493.904 820.74 493.889C820.818 493.873 820.899 493.879 820.974 493.906L823.937 494.979C824.013 495.007 824.08 495.056 824.131 495.12C824.182 495.184 824.214 495.261 824.225 495.342C824.236 495.424 824.225 495.506 824.193 495.582C824.161 495.657 824.109 495.722 824.043 495.77Z" fill="#3F3D56"/>
<path d="M823.561 495.368C823.575 495.329 823.574 495.285 823.557 495.246C823.54 495.208 823.508 495.177 823.469 495.162L820.8 494.196C820.773 494.186 820.744 494.184 820.717 494.189C820.689 494.194 820.663 494.207 820.642 494.226L816.534 497.931L816.511 497.956C816.5 497.973 816.491 497.991 816.487 498.011C816.482 498.031 816.481 498.052 816.484 498.072C816.488 498.092 816.495 498.111 816.506 498.128C816.516 498.146 816.53 498.161 816.547 498.172L817.985 499.265C818.012 499.285 818.045 499.296 818.078 499.295C818.112 499.295 818.144 499.284 818.171 499.263L823.505 495.443C823.531 495.424 823.55 495.398 823.561 495.368Z" fill="white"/>
<path d="M802.473 560.864H805.459L806.881 549.208H802.473V560.864Z" fill="#A0616A"/>
<path d="M801.711 557.984L807.593 557.983C808.086 557.983 808.573 558.082 809.028 558.272C809.483 558.463 809.896 558.742 810.244 559.094C810.593 559.446 810.869 559.864 811.057 560.325C811.246 560.785 811.342 561.278 811.342 561.776V561.899L801.711 561.9L801.711 557.984Z" fill="#2F2E41"/>
<path d="M792.483 560.864H795.471L796.891 549.208H792.483V560.864Z" fill="#A0616A"/>
<path d="M791.721 557.984L797.604 557.983C798.096 557.983 798.584 558.082 799.038 558.272C799.493 558.463 799.907 558.742 800.255 559.094C800.603 559.446 800.879 559.864 801.067 560.325C801.256 560.785 801.353 561.278 801.353 561.776V561.899L791.721 561.9L791.721 557.984Z" fill="#2F2E41"/>
<path d="M791.849 555.408C791.645 555.171 791.53 554.868 791.526 554.553C790.814 547.142 792.751 508.184 797.228 504.857L797.256 504.83L810.358 502.542L810.602 502.788C810.621 503.131 813.003 537.28 806.425 554.708C806.344 554.916 806.204 555.094 806.022 555.22C805.839 555.346 805.624 555.413 805.403 555.413H802.787C802.636 555.413 802.487 555.381 802.348 555.32C802.21 555.258 802.085 555.169 801.982 555.057C801.88 554.944 801.801 554.812 801.752 554.667C801.702 554.522 801.683 554.369 801.694 554.217L803.812 521.584C803.82 521.49 803.791 521.398 803.734 521.324C803.676 521.251 803.593 521.202 803.501 521.189C803.41 521.175 803.316 521.197 803.24 521.25C803.164 521.304 803.111 521.384 803.091 521.476L797.126 554.597C797.075 554.83 796.951 555.04 796.773 555.197C796.595 555.353 796.372 555.448 796.136 555.467L792.701 555.724C792.674 555.726 792.647 555.727 792.62 555.727C792.332 555.727 792.055 555.612 791.849 555.408Z" fill="#2F2E41"/>
<path d="M809.091 482.565C812.395 482.565 815.075 479.855 815.075 476.511C815.075 473.168 812.395 470.458 809.091 470.458C805.786 470.458 803.106 473.168 803.106 476.511C803.106 479.855 805.786 482.565 809.091 482.565Z" fill="#A0616A"/>
<path d="M794.677 510.16C794.424 509.899 794.279 509.551 794.271 509.186L796.714 497.612C794.765 489.232 797.36 487.661 800.289 486.073L800.27 486.063L801.493 482.714C801.532 482.565 801.603 482.427 801.7 482.308C801.798 482.19 801.921 482.096 802.059 482.031C802.197 481.966 802.348 481.933 802.5 481.934C802.652 481.935 802.802 481.97 802.94 482.037L809.177 485.389C809.457 485.549 809.665 485.813 809.756 486.126C809.861 486.458 809.854 486.816 809.735 487.144L809.275 488.405C810.465 490.014 812.307 496.38 810.358 498.845L811.829 507.059C811.861 507.361 811.787 507.665 811.62 507.918C811.453 508.17 811.204 508.356 810.916 508.441L795.547 510.436C795.488 510.449 795.427 510.455 795.366 510.455C795.107 510.451 794.86 510.345 794.677 510.16Z" fill="#FF9C77"/>
<path d="M817.05 496.886C816.952 496.979 816.861 497.08 816.779 497.188L804.724 496.346L803.431 493.68L799.199 495.128L801.035 500.073C801.184 500.472 801.456 500.812 801.811 501.042C802.167 501.271 802.587 501.378 803.007 501.346L816.715 500.294C817.018 500.72 817.443 501.043 817.932 501.22C818.421 501.396 818.952 501.417 819.453 501.281C819.955 501.145 820.404 500.857 820.74 500.457C821.076 500.056 821.284 499.562 821.335 499.039C821.387 498.516 821.279 497.99 821.028 497.53C820.777 497.07 820.393 496.699 819.928 496.465C819.463 496.231 818.938 496.146 818.424 496.222C817.91 496.297 817.431 496.528 817.05 496.886Z" fill="#A0616A"/>
<path d="M804.274 496.388L799.021 498.158C798.871 498.208 798.713 498.225 798.556 498.208C798.399 498.191 798.248 498.14 798.113 498.058C797.978 497.977 797.861 497.867 797.772 497.735C797.682 497.604 797.622 497.455 797.595 497.298L796.637 491.798C796.387 491.022 796.45 490.178 796.814 489.45C797.178 488.722 797.812 488.17 798.578 487.915C799.344 487.659 800.178 487.722 800.899 488.088C801.619 488.454 802.166 489.095 802.421 489.869L804.906 494.835C804.978 494.978 805.018 495.134 805.024 495.293C805.03 495.452 805.002 495.611 804.942 495.758C804.882 495.906 804.791 496.038 804.676 496.147C804.561 496.256 804.424 496.338 804.274 496.388Z" fill="#FF9C77"/>
<path d="M805.729 471.731C808.42 471.731 810.602 469.524 810.602 466.802C810.602 464.079 808.42 461.872 805.729 461.872C803.038 461.872 800.856 464.079 800.856 466.802C800.856 469.524 803.038 471.731 805.729 471.731Z" fill="#2F2E41"/>
<path d="M814.755 477.26C815.227 477.355 815.716 477.314 816.166 477.14C816.395 477.009 816.59 476.824 816.736 476.602C816.881 476.38 816.973 476.127 817.003 475.862C817.911 469.759 812.782 470.261 812.175 469.997C811.792 469.77 811.433 469.504 811.102 469.205C810.248 468.725 809.274 468.508 808.3 468.581C807.148 468.473 805.986 468.617 804.894 469.002C803.943 469.453 803.152 470.191 802.631 471.113C802.114 472.032 801.736 473.023 801.508 474.055C801.149 475.222 801.083 476.461 801.317 477.66C801.566 478.555 802.086 479.349 802.803 479.931C803.521 480.512 804.4 480.853 805.318 480.904C805.17 480.186 805.261 479.439 805.576 478.778C805.89 478.118 806.411 477.58 807.058 477.249C808.087 476.738 809.257 476.597 810.376 476.85C811.101 476.998 811.837 477.091 812.576 477.127C813.302 477.154 814.173 477.197 814.755 477.26Z" fill="#2F2E41"/>
<path d="M1283.08 562.067C1283.09 555.6 1285.63 549.399 1290.15 544.828C1294.67 540.257 1300.8 537.689 1307.2 537.689C1313.59 537.689 1319.72 540.257 1324.24 544.828C1328.76 549.399 1331.31 555.6 1331.31 562.067" fill="#F2F2F2"/>
<path d="M1307.2 562.067C1307.02 562.067 1306.86 561.997 1306.74 561.874C1306.61 561.75 1306.54 561.582 1306.54 561.407V548.55C1306.54 548.375 1306.61 548.207 1306.74 548.084C1306.86 547.96 1307.02 547.891 1307.2 547.891C1307.37 547.891 1307.53 547.96 1307.65 548.084C1307.78 548.207 1307.85 548.375 1307.85 548.55V561.407C1307.85 561.582 1307.78 561.75 1307.65 561.874C1307.53 561.997 1307.37 562.067 1307.2 562.067Z" fill="#CCCCCC"/>
<path d="M1307.2 557.648C1307.04 557.648 1306.89 557.592 1306.77 557.489L1298.95 550.698C1298.89 550.642 1298.83 550.573 1298.79 550.496C1298.75 550.418 1298.73 550.334 1298.72 550.247C1298.71 550.16 1298.72 550.073 1298.75 549.99C1298.78 549.907 1298.82 549.831 1298.88 549.765C1298.93 549.699 1299 549.644 1299.08 549.605C1299.15 549.566 1299.24 549.543 1299.32 549.536C1299.41 549.53 1299.5 549.541 1299.58 549.569C1299.66 549.596 1299.74 549.64 1299.8 549.698L1307.62 556.488C1307.72 556.576 1307.79 556.693 1307.83 556.824C1307.86 556.954 1307.85 557.092 1307.81 557.218C1307.76 557.344 1307.68 557.453 1307.57 557.53C1307.46 557.607 1307.33 557.648 1307.2 557.648Z" fill="#CCCCCC"/>
<path d="M1357.38 562.067C1357.39 555.6 1359.93 549.399 1364.45 544.828C1368.97 540.257 1375.1 537.689 1381.5 537.689C1387.89 537.689 1394.02 540.257 1398.54 544.828C1403.06 549.399 1405.61 555.6 1405.61 562.067" fill="#F2F2F2"/>
<path d="M1381.49 562.067C1381.32 562.067 1381.16 561.997 1381.04 561.874C1380.91 561.75 1380.84 561.582 1380.84 561.407V548.55C1380.84 548.375 1380.91 548.207 1381.04 548.084C1381.16 547.96 1381.32 547.891 1381.49 547.891C1381.67 547.891 1381.83 547.96 1381.95 548.084C1382.08 548.207 1382.15 548.375 1382.15 548.55V561.407C1382.15 561.582 1382.08 561.75 1381.95 561.874C1381.83 561.997 1381.67 562.067 1381.49 562.067Z" fill="#CCCCCC"/>
<path d="M1381.5 557.648C1381.34 557.649 1381.19 557.592 1381.07 557.489L1373.25 550.699C1373.18 550.642 1373.13 550.574 1373.09 550.496C1373.05 550.419 1373.03 550.334 1373.02 550.247C1373.01 550.16 1373.02 550.073 1373.05 549.99C1373.08 549.907 1373.12 549.831 1373.18 549.765C1373.23 549.698 1373.3 549.644 1373.38 549.605C1373.45 549.566 1373.54 549.543 1373.62 549.536C1373.71 549.53 1373.8 549.541 1373.88 549.569C1373.96 549.597 1374.03 549.641 1374.1 549.698L1381.92 556.489C1382.02 556.577 1382.09 556.694 1382.13 556.824C1382.16 556.954 1382.15 557.092 1382.11 557.218C1382.06 557.345 1381.98 557.454 1381.87 557.531C1381.76 557.608 1381.63 557.649 1381.5 557.648Z" fill="#CCCCCC"/>
<path d="M917.083 461.017C917.083 435.916 896.955 376.353 872.127 376.353C847.299 376.353 827.172 435.916 827.172 461.017C827.172 473.079 831.908 484.647 840.339 493.176C848.77 501.705 860.204 506.497 872.127 506.497C884.05 506.497 895.485 501.705 903.916 493.176C912.346 484.647 917.083 473.079 917.083 461.017Z" fill="#E6E6E6"/>
<path d="M905.844 461.017C905.844 435.916 885.717 376.353 860.889 376.353C836.06 376.353 815.933 435.916 815.933 461.017C815.933 473.079 820.67 484.647 829.1 493.176C837.531 501.705 848.966 506.497 860.889 506.497C872.812 506.497 884.246 501.705 892.677 493.176C901.108 484.647 905.844 473.079 905.844 461.017Z" fill="#F2F2F2"/>
<path d="M862.293 562.708C861.92 562.708 861.563 562.558 861.3 562.292C861.036 562.025 860.888 561.664 860.888 561.287V434.596C860.888 434.219 861.036 433.858 861.3 433.591C861.563 433.325 861.92 433.175 862.293 433.175C862.666 433.175 863.023 433.325 863.286 433.591C863.55 433.858 863.698 434.219 863.698 434.596V561.287C863.698 561.664 863.55 562.025 863.286 562.292C863.023 562.558 862.666 562.708 862.293 562.708Z" fill="#CCCCCC"/>
<path d="M862.293 455.365C862.015 455.365 861.744 455.281 861.513 455.125C861.282 454.969 861.102 454.747 860.996 454.487C860.889 454.228 860.861 453.942 860.916 453.666C860.97 453.391 861.104 453.137 861.3 452.939L879.672 434.351C879.936 434.085 880.293 433.935 880.665 433.935C881.038 433.935 881.395 434.085 881.659 434.351C881.922 434.618 882.07 434.979 882.07 435.356C882.07 435.733 881.922 436.095 881.659 436.361L863.287 454.948C863.156 455.081 863.001 455.185 862.831 455.257C862.66 455.328 862.478 455.365 862.293 455.365Z" fill="#CCCCCC"/>
<path d="M304.566 461.017C304.566 435.916 284.439 376.353 259.611 376.353C234.782 376.353 214.655 435.916 214.655 461.017C214.655 473.079 219.392 484.647 227.822 493.176C236.253 501.705 247.688 506.497 259.611 506.497C271.534 506.497 282.968 501.705 291.399 493.176C299.83 484.647 304.566 473.079 304.566 461.017Z" fill="#E6E6E6"/>
<path d="M293.327 461.017C293.327 435.916 273.2 376.353 248.372 376.353C223.544 376.353 203.417 435.916 203.417 461.017C203.417 473.079 208.153 484.647 216.584 493.176C225.014 501.705 236.449 506.497 248.372 506.497C260.295 506.497 271.729 501.705 280.16 493.176C288.591 484.647 293.327 473.079 293.327 461.017Z" fill="#F2F2F2"/>
<path d="M249.776 562.708C249.404 562.708 249.047 562.558 248.783 562.292C248.52 562.025 248.372 561.664 248.372 561.287V434.596C248.372 434.219 248.52 433.858 248.783 433.591C249.047 433.325 249.404 433.175 249.776 433.175C250.149 433.175 250.506 433.325 250.77 433.591C251.033 433.858 251.181 434.219 251.181 434.596V561.287C251.181 561.664 251.033 562.025 250.77 562.292C250.506 562.558 250.149 562.708 249.776 562.708Z" fill="#CCCCCC"/>
<path d="M249.777 455.365C249.499 455.365 249.227 455.281 248.996 455.125C248.765 454.969 248.585 454.747 248.479 454.487C248.373 454.228 248.345 453.942 248.399 453.666C248.453 453.391 248.587 453.137 248.783 452.939L267.156 434.351C267.419 434.085 267.776 433.935 268.149 433.935C268.521 433.935 268.879 434.085 269.142 434.351C269.406 434.618 269.554 434.979 269.554 435.356C269.554 435.733 269.406 436.095 269.142 436.361L250.77 454.948C250.64 455.081 250.485 455.185 250.314 455.257C250.144 455.328 249.961 455.365 249.777 455.365Z" fill="#CCCCCC"/>
<path d="M627.665 437.221H653.752V439.864H627.665V437.221Z" fill="#7E1CC4"/>
<path d="M627.665 446.474H653.752V449.118H627.665V446.474Z" fill="#7E1CC4"/>
<path d="M627.665 454.405H653.752V457.049H627.665V454.405Z" fill="#7E1CC4"/>
<path d="M621.796 442.508C622.441 442.508 623.071 442.314 623.607 441.951C624.144 441.588 624.562 441.072 624.808 440.468C625.055 439.864 625.12 439.2 624.994 438.559C624.868 437.918 624.558 437.329 624.102 436.867C623.646 436.405 623.064 436.09 622.432 435.962C621.799 435.835 621.144 435.9 620.548 436.15C619.952 436.401 619.443 436.824 619.084 437.368C618.726 437.911 618.535 438.55 618.535 439.204C618.535 439.638 618.619 440.067 618.783 440.468C618.947 440.869 619.187 441.233 619.49 441.54C619.793 441.847 620.152 442.091 620.548 442.257C620.944 442.423 621.368 442.508 621.796 442.508Z" fill="#7E1CC4"/>
<path d="M621.796 450.439C622.441 450.439 623.071 450.246 623.607 449.882C624.144 449.519 624.562 449.003 624.808 448.399C625.055 447.796 625.12 447.131 624.994 446.49C624.868 445.849 624.558 445.26 624.102 444.798C623.646 444.336 623.064 444.021 622.432 443.894C621.799 443.766 621.144 443.832 620.548 444.082C619.952 444.332 619.443 444.755 619.084 445.299C618.726 445.842 618.535 446.481 618.535 447.135C618.535 447.569 618.619 447.998 618.783 448.399C618.947 448.8 619.187 449.165 619.49 449.472C619.793 449.778 620.152 450.022 620.548 450.188C620.944 450.354 621.368 450.439 621.796 450.439Z" fill="#7E1CC4"/>
<path d="M621.796 458.371C622.441 458.371 623.071 458.177 623.607 457.814C624.144 457.451 624.562 456.934 624.808 456.331C625.055 455.727 625.12 455.062 624.994 454.421C624.868 453.78 624.558 453.191 624.102 452.729C623.646 452.267 623.064 451.952 622.432 451.825C621.799 451.697 621.144 451.763 620.548 452.013C619.952 452.263 619.443 452.686 619.084 453.23C618.726 453.773 618.535 454.412 618.535 455.066C618.535 455.5 618.619 455.93 618.783 456.331C618.947 456.731 619.187 457.096 619.49 457.403C619.793 457.71 620.152 457.953 620.548 458.119C620.944 458.285 621.368 458.371 621.796 458.371Z" fill="#7E1CC4"/>
<path d="M594.127 459.692L603.593 446.97H615.926V446.474H603.361L603.289 446.57L593.752 459.388L594.127 459.692Z" fill="#7E1CC4"/>
<path d="M896.569 354.445H922.656V357.089H896.569V354.445Z" fill="#7E1CC4"/>
<path d="M896.569 363.698H922.656V366.342H896.569V363.698Z" fill="#7E1CC4"/>
<path d="M896.569 371.629H922.656V374.273H896.569V371.629Z" fill="#7E1CC4"/>
<path d="M890.7 359.732C891.345 359.732 891.975 359.539 892.511 359.175C893.047 358.812 893.465 358.296 893.712 357.692C893.959 357.089 894.024 356.424 893.898 355.783C893.772 355.142 893.461 354.553 893.005 354.091C892.549 353.629 891.968 353.314 891.336 353.187C890.703 353.059 890.048 353.124 889.452 353.375C888.856 353.625 888.347 354.048 887.988 354.592C887.63 355.135 887.439 355.774 887.439 356.428C887.439 356.862 887.523 357.291 887.687 357.692C887.851 358.093 888.091 358.458 888.394 358.764C888.697 359.071 889.056 359.315 889.452 359.481C889.847 359.647 890.271 359.732 890.7 359.732Z" fill="#7E1CC4"/>
<path d="M890.7 367.664C891.345 367.664 891.975 367.47 892.511 367.107C893.047 366.743 893.465 366.227 893.712 365.624C893.959 365.02 894.024 364.355 893.898 363.714C893.772 363.073 893.461 362.484 893.005 362.022C892.549 361.56 891.968 361.245 891.336 361.118C890.703 360.99 890.048 361.056 889.452 361.306C888.856 361.556 888.347 361.979 887.988 362.523C887.63 363.066 887.439 363.705 887.439 364.359C887.439 364.793 887.523 365.223 887.687 365.624C887.851 366.024 888.091 366.389 888.394 366.696C888.697 367.002 889.056 367.246 889.452 367.412C889.847 367.578 890.271 367.664 890.7 367.664Z" fill="#7E1CC4"/>
<path d="M890.7 375.595C891.345 375.595 891.975 375.401 892.511 375.038C893.047 374.675 893.465 374.159 893.712 373.555C893.959 372.951 894.024 372.286 893.898 371.645C893.772 371.004 893.461 370.415 893.005 369.953C892.549 369.491 891.968 369.176 891.336 369.049C890.703 368.921 890.048 368.987 889.452 369.237C888.856 369.487 888.347 369.911 887.988 370.454C887.63 370.998 887.439 371.636 887.439 372.29C887.439 372.724 887.523 373.154 887.687 373.555C887.851 373.956 888.091 374.32 888.394 374.627C888.697 374.934 889.056 375.177 889.452 375.343C889.847 375.509 890.271 375.595 890.7 375.595Z" fill="#7E1CC4"/>
<path d="M863.031 376.916L872.497 364.194H884.83V363.698H872.264L872.193 363.794L862.656 376.612L863.031 376.916Z" fill="#7E1CC4"/>
<path d="M145.913 449.122H172V451.766H145.913V449.122Z" fill="#7E1CC4"/>
<path d="M145.913 458.376H172V461.02H145.913V458.376Z" fill="#7E1CC4"/>
<path d="M145.913 466.307H172V468.951H145.913V466.307Z" fill="#7E1CC4"/>
<path d="M140.044 454.41C140.689 454.41 141.319 454.216 141.855 453.853C142.392 453.49 142.81 452.974 143.056 452.37C143.303 451.766 143.368 451.102 143.242 450.461C143.116 449.82 142.806 449.231 142.35 448.769C141.894 448.307 141.313 447.992 140.68 447.864C140.047 447.737 139.392 447.802 138.796 448.052C138.2 448.302 137.691 448.726 137.333 449.269C136.974 449.813 136.783 450.452 136.783 451.105C136.783 451.539 136.867 451.969 137.031 452.37C137.195 452.771 137.435 453.135 137.738 453.442C138.041 453.749 138.4 453.992 138.796 454.159C139.192 454.325 139.616 454.41 140.044 454.41Z" fill="#7E1CC4"/>
<path d="M140.044 462.341C140.689 462.341 141.319 462.147 141.855 461.784C142.392 461.421 142.81 460.905 143.056 460.301C143.303 459.697 143.368 459.033 143.242 458.392C143.116 457.751 142.806 457.162 142.35 456.7C141.894 456.238 141.313 455.923 140.68 455.795C140.047 455.668 139.392 455.733 138.796 455.983C138.2 456.234 137.691 456.657 137.333 457.201C136.974 457.744 136.783 458.383 136.783 459.037C136.783 459.471 136.867 459.9 137.031 460.301C137.195 460.702 137.435 461.066 137.738 461.373C138.041 461.68 138.4 461.924 138.796 462.09C139.192 462.256 139.616 462.341 140.044 462.341Z" fill="#7E1CC4"/>
<path d="M140.044 470.272C140.689 470.272 141.319 470.079 141.855 469.715C142.392 469.352 142.81 468.836 143.056 468.232C143.303 467.629 143.368 466.964 143.242 466.323C143.116 465.682 142.806 465.093 142.35 464.631C141.894 464.169 141.313 463.854 140.68 463.727C140.047 463.599 139.392 463.665 138.796 463.915C138.2 464.165 137.691 464.588 137.333 465.132C136.974 465.675 136.783 466.314 136.783 466.968C136.783 467.402 136.867 467.831 137.031 468.232C137.195 468.633 137.435 468.998 137.738 469.305C138.041 469.611 138.4 469.855 138.796 470.021C139.192 470.187 139.616 470.272 140.044 470.272Z" fill="#7E1CC4"/>
<path d="M112.375 471.594L121.841 458.871H134.174V458.375H121.608L121.537 458.471L112 471.29L112.375 471.594Z" fill="#7E1CC4"/>
<path d="M1131.61 443.278H1157.7V445.922H1131.61V443.278Z" fill="#7E1CC4"/>
<path d="M1131.61 452.531H1157.7V455.175H1131.61V452.531Z" fill="#7E1CC4"/>
<path d="M1131.61 460.462H1157.7V463.106H1131.61V460.462Z" fill="#7E1CC4"/>
<path d="M1125.74 448.565C1126.39 448.565 1127.02 448.372 1127.55 448.008C1128.09 447.645 1128.51 447.129 1128.75 446.525C1129 445.922 1129.07 445.257 1128.94 444.616C1128.81 443.975 1128.5 443.386 1128.05 442.924C1127.59 442.462 1127.01 442.147 1126.38 442.02C1125.74 441.892 1125.09 441.957 1124.49 442.208C1123.9 442.458 1123.39 442.881 1123.03 443.425C1122.67 443.968 1122.48 444.607 1122.48 445.261C1122.48 445.695 1122.56 446.124 1122.73 446.525C1122.89 446.926 1123.13 447.291 1123.44 447.597C1123.74 447.904 1124.1 448.148 1124.49 448.314C1124.89 448.48 1125.31 448.565 1125.74 448.565Z" fill="#7E1CC4"/>
<path d="M1125.74 456.497C1126.39 456.497 1127.02 456.303 1127.55 455.94C1128.09 455.576 1128.51 455.06 1128.75 454.457C1129 453.853 1129.07 453.188 1128.94 452.547C1128.81 451.906 1128.5 451.317 1128.05 450.855C1127.59 450.393 1127.01 450.078 1126.38 449.951C1125.74 449.823 1125.09 449.889 1124.49 450.139C1123.9 450.389 1123.39 450.812 1123.03 451.356C1122.67 451.899 1122.48 452.538 1122.48 453.192C1122.48 453.626 1122.56 454.056 1122.73 454.457C1122.89 454.857 1123.13 455.222 1123.44 455.529C1123.74 455.836 1124.1 456.079 1124.49 456.245C1124.89 456.411 1125.31 456.497 1125.74 456.497Z" fill="#7E1CC4"/>
<path d="M1125.74 464.428C1126.39 464.428 1127.02 464.234 1127.55 463.871C1128.09 463.508 1128.51 462.992 1128.75 462.388C1129 461.784 1129.07 461.119 1128.94 460.478C1128.81 459.837 1128.5 459.248 1128.05 458.786C1127.59 458.324 1127.01 458.009 1126.38 457.882C1125.74 457.754 1125.09 457.82 1124.49 458.07C1123.9 458.32 1123.39 458.744 1123.03 459.287C1122.67 459.831 1122.48 460.469 1122.48 461.123C1122.48 461.557 1122.56 461.987 1122.73 462.388C1122.89 462.789 1123.13 463.153 1123.44 463.46C1123.74 463.767 1124.1 464.01 1124.49 464.176C1124.89 464.342 1125.31 464.428 1125.74 464.428Z" fill="#7E1CC4"/>
<path d="M1098.07 465.749L1107.54 453.027H1119.87V452.531H1107.31L1107.23 452.627L1097.7 465.445L1098.07 465.749Z" fill="#7E1CC4"/>
<path d="M520.185 327.204H546.272V329.848H520.185V327.204Z" fill="#7E1CC4"/>
<path d="M520.185 336.458H546.272V339.101H520.185V336.458Z" fill="#7E1CC4"/>
<path d="M520.185 344.389H546.272V347.032H520.185V344.389Z" fill="#7E1CC4"/>
<path d="M514.315 332.492C514.96 332.492 515.591 332.298 516.127 331.935C516.663 331.572 517.081 331.055 517.328 330.452C517.575 329.848 517.639 329.183 517.514 328.542C517.388 327.901 517.077 327.312 516.621 326.85C516.165 326.388 515.584 326.073 514.951 325.946C514.319 325.818 513.663 325.884 513.067 326.134C512.472 326.384 511.962 326.808 511.604 327.351C511.246 327.894 511.054 328.533 511.054 329.187C511.054 329.621 511.139 330.051 511.303 330.452C511.467 330.853 511.707 331.217 512.01 331.524C512.312 331.831 512.672 332.074 513.067 332.24C513.463 332.406 513.887 332.492 514.315 332.492Z" fill="#7E1CC4"/>
<path d="M514.315 340.423C514.96 340.423 515.591 340.229 516.127 339.866C516.663 339.503 517.081 338.987 517.328 338.383C517.575 337.779 517.639 337.114 517.514 336.473C517.388 335.832 517.077 335.244 516.621 334.781C516.165 334.319 515.584 334.004 514.951 333.877C514.319 333.749 513.663 333.815 513.067 334.065C512.472 334.315 511.962 334.739 511.604 335.282C511.246 335.826 511.054 336.465 511.054 337.118C511.054 337.552 511.139 337.982 511.303 338.383C511.467 338.784 511.707 339.148 512.01 339.455C512.312 339.762 512.672 340.005 513.067 340.171C513.463 340.337 513.887 340.423 514.315 340.423Z" fill="#7E1CC4"/>
<path d="M514.315 348.354C514.96 348.354 515.591 348.16 516.127 347.797C516.663 347.434 517.081 346.918 517.328 346.314C517.575 345.71 517.639 345.046 517.514 344.405C517.388 343.764 517.077 343.175 516.621 342.713C516.165 342.25 515.584 341.936 514.951 341.808C514.319 341.681 513.663 341.746 513.067 341.996C512.472 342.246 511.962 342.67 511.604 343.213C511.246 343.757 511.054 344.396 511.054 345.049C511.054 345.483 511.139 345.913 511.303 346.314C511.467 346.715 511.707 347.079 512.01 347.386C512.312 347.693 512.672 347.936 513.067 348.102C513.463 348.268 513.887 348.354 514.315 348.354Z" fill="#7E1CC4"/>
<path d="M486.647 349.676L496.113 336.953H508.446V336.457H495.881L495.809 336.553L486.272 349.372L486.647 349.676Z" fill="#7E1CC4"/>
</g>
<defs>
<clipPath id="clip0_314_36">
<rect width="1472" height="640" fill="white"/>
</clipPath>
</defs>
</svg>
