<svg width="318" height="364" viewBox="0 0 318 364" fill="none" xmlns="http://www.w3.org/2000/svg">
<path d="M46.96 0.959998C47.6533 0.959998 48.2133 1.04 48.64 1.2C49.12 1.36 49.4933 1.68 49.76 2.16C50.0267 2.58666 50.16 3.30666 50.16 4.32C50.16 5.28 50 6 49.68 6.48C49.4133 6.96 49.04 7.28 48.56 7.44C48.08 7.54666 47.4933 7.6 46.8 7.6H30.24V53.28C30.24 53.9733 30.1333 54.5867 29.92 55.12C29.76 55.6533 29.4133 56.0533 28.88 56.32C28.4 56.64 27.6533 56.8 26.64 56.8C25.5733 56.8 24.7733 56.64 24.24 56.32C23.76 56.0533 23.44 55.6533 23.28 55.12C23.1733 54.5333 23.12 53.8933 23.12 53.2V7.6H6.32C5.62667 7.6 5.04 7.54666 4.56 7.44C4.08 7.28 3.70667 6.96 3.44 6.48C3.17333 6 3.04 5.28 3.04 4.32C3.04 3.30666 3.14667 2.58666 3.36 2.16C3.62667 1.68 4 1.36 4.48 1.2C5.01333 1.04 5.6 0.959998 6.24 0.959998H46.96ZM69.125 56.8C68.1117 56.8 67.3383 56.64 66.805 56.32C66.2717 56.0533 65.925 55.6533 65.765 55.12C65.6583 54.5333 65.605 53.8667 65.605 53.12V3.84C65.605 3.09333 65.685 2.45333 65.845 1.92C66.005 1.38666 66.3517 0.986663 66.885 0.719996C67.4183 0.399997 68.1917 0.239998 69.205 0.239998C70.2717 0.239998 71.045 0.399997 71.525 0.719996C72.0583 0.986663 72.3783 1.38666 72.485 1.92C72.645 2.45333 72.725 3.12 72.725 3.92V23.68C74.005 22.1867 75.5517 20.8533 77.365 19.68C79.2317 18.5067 81.4983 17.92 84.165 17.92C87.3117 17.92 90.1117 18.6667 92.565 20.16C95.0717 21.6 97.045 23.6533 98.485 26.32C99.9783 28.9867 100.725 32.16 100.725 35.84V53.2C100.725 53.9467 100.645 54.5867 100.485 55.12C100.325 55.6533 100.005 56.0533 99.525 56.32C99.045 56.64 98.2717 56.8 97.205 56.8C96.1917 56.8 95.4183 56.64 94.885 56.32C94.3517 56.0533 94.005 55.6533 93.845 55.12C93.685 54.5333 93.605 53.8667 93.605 53.12V35.76C93.605 33.52 93.2317 31.5733 92.485 29.92C91.7383 28.2667 90.6183 26.9867 89.125 26.08C87.685 25.1733 85.845 24.72 83.605 24.72C80.565 24.72 78.0583 25.6 76.085 27.36C74.165 29.0667 73.045 31.36 72.725 34.24V53.2C72.725 53.9467 72.645 54.5867 72.485 55.12C72.325 55.6533 71.9783 56.0533 71.445 56.32C70.965 56.64 70.1917 56.8 69.125 56.8ZM135.218 57.2C132.018 57.2 129.164 56.6667 126.658 55.6C124.151 54.5333 122.018 53.0933 120.258 51.28C118.551 49.4133 117.244 47.28 116.338 44.88C115.431 42.48 114.978 39.8933 114.978 37.12C114.978 33.44 115.831 30.16 117.538 27.28C119.244 24.4 121.591 22.1333 124.578 20.48C127.618 18.7733 131.084 17.92 134.978 17.92C137.644 17.92 140.018 18.3467 142.098 19.2C144.231 20 146.044 21.0933 147.538 22.48C149.031 23.8667 150.178 25.4133 150.978 27.12C151.778 28.8267 152.178 30.5333 152.178 32.24C152.178 34.96 151.538 36.88 150.258 38C148.978 39.0667 147.404 39.6 145.538 39.6H122.418C122.364 41.9467 122.978 43.9733 124.258 45.68C125.591 47.3333 127.244 48.6133 129.218 49.52C131.244 50.4267 133.271 50.88 135.298 50.88C136.791 50.88 138.071 50.8 139.138 50.64C140.204 50.48 141.138 50.2667 141.938 50C142.738 49.7333 143.431 49.4667 144.018 49.2C144.604 48.9333 145.111 48.6667 145.538 48.4C146.018 48.1333 146.471 47.9467 146.898 47.84C147.378 47.7333 147.831 47.7867 148.258 48C148.738 48.16 149.111 48.5067 149.378 49.04C149.698 49.4667 149.911 49.8667 150.018 50.24C150.124 50.6133 150.178 51.0133 150.178 51.44C150.178 52.1867 149.538 53.0133 148.258 53.92C146.978 54.8267 145.191 55.6 142.898 56.24C140.658 56.88 138.098 57.2 135.218 57.2ZM122.418 34.88H142.498C143.511 34.88 144.258 34.7467 144.738 34.48C145.271 34.2133 145.538 33.4933 145.538 32.32C145.538 30.8267 145.084 29.4933 144.178 28.32C143.271 27.0933 142.018 26.1067 140.418 25.36C138.871 24.6133 137.084 24.24 135.058 24.24C132.711 24.24 130.551 24.72 128.578 25.68C126.658 26.5867 125.138 27.84 124.018 29.44C122.898 31.04 122.364 32.8533 122.418 34.88ZM284.137 153.96C280.51 153.96 277.417 153.4 274.857 152.28C272.297 151.107 270.324 149.4 268.937 147.16C267.604 144.92 266.937 142.227 266.937 139.08C266.937 137.373 267.337 135.667 268.137 133.96C268.937 132.2 270.084 130.44 271.577 128.68C273.124 126.867 274.964 125.107 277.097 123.4C276.35 121.853 275.657 120.307 275.017 118.76C274.43 117.16 273.977 115.613 273.657 114.12C273.337 112.573 273.177 111.107 273.177 109.72C273.177 107 273.79 104.653 275.017 102.68C276.244 100.707 277.977 99.1867 280.217 98.12C282.457 97.0533 285.124 96.52 288.217 96.52C290.884 96.52 293.177 97.0267 295.097 98.04C297.07 99 298.59 100.36 299.657 102.12C300.724 103.88 301.257 105.987 301.257 108.44C301.257 109.613 300.884 110.867 300.137 112.2C299.39 113.48 298.324 114.84 296.937 116.28C295.55 117.667 293.95 119.133 292.137 120.68C290.324 122.173 288.35 123.747 286.217 125.4C287.657 127.533 289.124 129.56 290.617 131.48C292.164 133.347 293.737 135.053 295.337 136.6C296.99 138.093 298.564 139.373 300.057 140.44C302.137 138.733 303.577 137.16 304.377 135.72C305.177 134.227 305.737 132.733 306.057 131.24C306.217 130.6 306.59 130.067 307.177 129.64C307.764 129.16 308.75 128.92 310.137 128.92C311.044 128.92 311.71 129.08 312.137 129.4C312.617 129.667 312.937 130.04 313.097 130.52C313.31 130.947 313.39 131.373 313.337 131.8C313.23 133.827 312.51 135.853 311.177 137.88C309.897 139.907 308.11 141.96 305.817 144.04C306.67 144.307 307.417 144.547 308.057 144.76C308.75 144.973 309.524 145.133 310.377 145.24C311.23 145.293 312.324 145.32 313.657 145.32C314.884 145.32 315.737 145.587 316.217 146.12C316.75 146.6 317.017 147.48 317.017 148.76C317.017 150.307 316.777 151.347 316.297 151.88C315.817 152.413 314.91 152.68 313.577 152.68C312.084 152.68 310.537 152.573 308.937 152.36C307.39 152.147 305.844 151.773 304.297 151.24C302.75 150.707 301.15 149.987 299.497 149.08C298.057 150.093 296.484 150.973 294.777 151.72C293.07 152.467 291.31 153.027 289.497 153.4C287.737 153.773 285.95 153.96 284.137 153.96ZM284.137 147.16C285.95 147.16 287.684 146.92 289.337 146.44C290.99 145.96 292.377 145.347 293.497 144.6C292.59 143.747 291.577 142.787 290.457 141.72C289.337 140.6 288.217 139.4 287.097 138.12C285.977 136.84 284.857 135.48 283.737 134.04C282.617 132.6 281.55 131.133 280.537 129.64C279.417 130.707 278.457 131.667 277.657 132.52C276.857 133.32 276.217 134.067 275.737 134.76C275.257 135.4 274.91 136.093 274.697 136.84C274.484 137.533 274.377 138.28 274.377 139.08C274.377 140.733 274.777 142.173 275.577 143.4C276.377 144.627 277.497 145.56 278.937 146.2C280.43 146.84 282.164 147.16 284.137 147.16ZM282.937 119.72C284.697 118.387 286.27 117.187 287.657 116.12C289.097 115 290.297 113.96 291.257 113C292.217 112.04 292.964 111.16 293.497 110.36C294.03 109.56 294.297 108.867 294.297 108.28C294.297 106.52 293.737 105.107 292.617 104.04C291.497 102.92 290.004 102.36 288.137 102.36C286.484 102.36 285.044 102.653 283.817 103.24C282.59 103.773 281.63 104.547 280.937 105.56C280.297 106.573 279.977 107.8 279.977 109.24C279.977 110.147 280.084 111.107 280.297 112.12C280.51 113.08 280.83 114.173 281.257 115.4C281.684 116.627 282.244 118.067 282.937 119.72ZM9.04 347.8C8.02667 347.8 7.25333 347.64 6.72 347.32C6.24 347.053 5.92 346.653 5.76 346.12C5.6 345.533 5.52 344.867 5.52 344.12V295.56C5.52 294.867 5.6 294.253 5.76 293.72C5.97333 293.187 6.34667 292.76 6.88 292.44C7.41333 292.12 8.16 291.96 9.12 291.96H26.64C29.2 291.96 31.5467 292.36 33.68 293.16C35.8667 293.907 37.76 295.08 39.36 296.68C41.0133 298.227 42.2933 300.12 43.2 302.36C44.1067 304.6 44.56 307.187 44.56 310.12C44.56 313 44.1067 315.56 43.2 317.8C42.2933 320.04 41.0133 321.933 39.36 323.48C37.7067 324.973 35.7867 326.12 33.6 326.92C31.4667 327.72 29.12 328.12 26.56 328.12H12.8V344.2C12.8 344.947 12.6933 345.587 12.48 346.12C12.32 346.653 11.9733 347.053 11.44 347.32C10.96 347.64 10.16 347.8 9.04 347.8ZM12.8 320.84H26.64C28.7733 320.84 30.64 320.44 32.24 319.64C33.84 318.787 35.0933 317.56 36 315.96C36.9067 314.307 37.36 312.307 37.36 309.96C37.36 307.72 36.9333 305.8 36.08 304.2C35.2267 302.6 33.9733 301.373 32.32 300.52C30.72 299.667 28.8 299.24 26.56 299.24H12.8V320.84ZM64.6069 347.8C63.5935 347.8 62.8202 347.64 62.2869 347.32C61.8069 347.053 61.4869 346.653 61.3269 346.12C61.2202 345.533 61.1669 344.867 61.1669 344.12V312.6C61.1669 311.8 61.2469 311.133 61.4069 310.6C61.5669 310.067 61.8869 309.693 62.3669 309.48C62.8469 309.213 63.6202 309.08 64.6869 309.08C65.6469 309.08 66.3669 309.213 66.8469 309.48C67.3802 309.693 67.7269 310.04 67.8869 310.52C68.1002 310.947 68.2069 311.453 68.2069 312.04L67.8869 314.44C68.2602 313.747 68.6869 313.053 69.1669 312.36C69.7002 311.667 70.3402 311.053 71.0869 310.52C71.8869 309.933 72.8202 309.453 73.8869 309.08C75.0069 308.707 76.3669 308.52 77.9669 308.52C78.7669 308.52 79.5135 308.6 80.2069 308.76C80.9535 308.867 81.6469 309.053 82.2869 309.32C82.9802 309.587 83.5669 309.907 84.0469 310.28C84.5269 310.6 84.9002 310.973 85.1669 311.4C85.4869 311.773 85.6469 312.227 85.6469 312.76C85.6469 313.933 85.2735 314.947 84.5269 315.8C83.7802 316.6 83.0069 317 82.2069 317C81.5135 317 81.0069 316.92 80.6869 316.76C80.3669 316.547 80.0469 316.333 79.7269 316.12C79.4602 315.907 79.0602 315.72 78.5269 315.56C77.9935 315.347 77.1402 315.24 75.9669 315.24C75.1669 315.24 74.3135 315.4 73.4069 315.72C72.5535 316.04 71.7269 316.52 70.9269 317.16C70.1269 317.747 69.4602 318.52 68.9269 319.48C68.4469 320.44 68.2069 321.56 68.2069 322.84V344.28C68.2069 345.027 68.1269 345.667 67.9669 346.2C67.8069 346.733 67.4602 347.133 66.9269 347.4C66.4469 347.667 65.6735 347.8 64.6069 347.8ZM117.935 348.28C115.322 348.28 112.815 347.773 110.415 346.76C108.068 345.747 105.962 344.36 104.095 342.6C102.228 340.787 100.762 338.68 99.695 336.28C98.6283 333.88 98.095 331.267 98.095 328.44C98.095 325.667 98.6017 323.107 99.615 320.76C100.628 318.36 102.042 316.253 103.855 314.44C105.668 312.627 107.748 311.213 110.095 310.2C112.495 309.133 115.055 308.6 117.775 308.6C121.455 308.6 124.762 309.48 127.695 311.24C130.682 312.947 133.055 315.293 134.815 318.28C136.575 321.267 137.455 324.627 137.455 328.36C137.455 331.293 136.922 333.987 135.855 336.44C134.788 338.84 133.348 340.92 131.535 342.68C129.722 344.44 127.642 345.827 125.295 346.84C122.948 347.8 120.495 348.28 117.935 348.28ZM117.775 341.32C120.015 341.32 122.095 340.76 124.015 339.64C125.935 338.52 127.482 336.973 128.655 335C129.828 333.027 130.415 330.787 130.415 328.28C130.415 325.773 129.855 323.56 128.735 321.64C127.668 319.72 126.175 318.227 124.255 317.16C122.335 316.093 120.148 315.56 117.695 315.56C115.348 315.56 113.215 316.12 111.295 317.24C109.428 318.36 107.908 319.88 106.735 321.8C105.615 323.72 105.055 325.907 105.055 328.36C105.055 330.92 105.642 333.187 106.815 335.16C107.988 337.08 109.535 338.6 111.455 339.72C113.428 340.787 115.535 341.32 117.775 341.32ZM144.861 363.4C144.167 363.4 143.554 363.293 143.021 363.08C142.487 362.92 142.087 362.6 141.821 362.12C141.501 361.64 141.341 360.893 141.341 359.88C141.341 358.92 141.501 358.2 141.821 357.72C142.087 357.24 142.514 356.893 143.101 356.68C143.634 356.52 144.247 356.44 144.941 356.44C146.167 356.44 147.341 356.333 148.461 356.12C149.634 355.907 150.647 355.48 151.501 354.84C152.407 354.2 153.101 353.24 153.581 351.96C154.114 350.733 154.381 349.133 154.381 347.16V312.36C154.381 311.667 154.461 311.08 154.621 310.6C154.781 310.12 155.101 309.747 155.581 309.48C156.114 309.16 156.887 309 157.901 309C158.861 309 159.581 309.16 160.061 309.48C160.594 309.747 160.941 310.173 161.101 310.76C161.261 311.293 161.341 311.933 161.341 312.68V347.16C161.341 349.933 160.914 352.333 160.061 354.36C159.207 356.44 158.034 358.147 156.541 359.48C155.047 360.813 153.314 361.8 151.341 362.44C149.367 363.08 147.207 363.4 144.861 363.4ZM157.741 299.4C156.194 299.4 155.127 299.107 154.541 298.52C154.007 297.88 153.741 296.787 153.741 295.24C153.741 293.693 154.034 292.653 154.621 292.12C155.207 291.533 156.274 291.24 157.821 291.24C159.367 291.24 160.407 291.56 160.941 292.2C161.527 292.787 161.821 293.853 161.821 295.4C161.821 296.893 161.527 297.933 160.941 298.52C160.354 299.107 159.287 299.4 157.741 299.4ZM198.639 348.2C195.439 348.2 192.586 347.667 190.079 346.6C187.573 345.533 185.439 344.093 183.679 342.28C181.973 340.413 180.666 338.28 179.759 335.88C178.853 333.48 178.399 330.893 178.399 328.12C178.399 324.44 179.253 321.16 180.959 318.28C182.666 315.4 185.013 313.133 187.999 311.48C191.039 309.773 194.506 308.92 198.399 308.92C201.066 308.92 203.439 309.347 205.519 310.2C207.653 311 209.466 312.093 210.959 313.48C212.453 314.867 213.599 316.413 214.399 318.12C215.199 319.827 215.599 321.533 215.599 323.24C215.599 325.96 214.959 327.88 213.679 329C212.399 330.067 210.826 330.6 208.959 330.6H185.839C185.786 332.947 186.399 334.973 187.679 336.68C189.013 338.333 190.666 339.613 192.639 340.52C194.666 341.427 196.693 341.88 198.719 341.88C200.213 341.88 201.493 341.8 202.559 341.64C203.626 341.48 204.559 341.267 205.359 341C206.159 340.733 206.853 340.467 207.439 340.2C208.026 339.933 208.533 339.667 208.959 339.4C209.439 339.133 209.893 338.947 210.319 338.84C210.799 338.733 211.253 338.787 211.679 339C212.159 339.16 212.533 339.507 212.799 340.04C213.119 340.467 213.333 340.867 213.439 341.24C213.546 341.613 213.599 342.013 213.599 342.44C213.599 343.187 212.959 344.013 211.679 344.92C210.399 345.827 208.613 346.6 206.319 347.24C204.079 347.88 201.519 348.2 198.639 348.2ZM185.839 325.88H205.919C206.933 325.88 207.679 325.747 208.159 325.48C208.693 325.213 208.959 324.493 208.959 323.32C208.959 321.827 208.506 320.493 207.599 319.32C206.693 318.093 205.439 317.107 203.839 316.36C202.293 315.613 200.506 315.24 198.479 315.24C196.133 315.24 193.973 315.72 191.999 316.68C190.079 317.587 188.559 318.84 187.439 320.44C186.319 322.04 185.786 323.853 185.839 325.88ZM249.843 347.96C247.069 347.96 244.456 347.507 242.003 346.6C239.603 345.693 237.469 344.387 235.603 342.68C233.789 340.973 232.349 338.947 231.283 336.6C230.269 334.2 229.763 331.48 229.763 328.44C229.763 325.4 230.269 322.707 231.283 320.36C232.349 317.96 233.789 315.907 235.603 314.2C237.416 312.493 239.523 311.187 241.923 310.28C244.376 309.373 246.963 308.92 249.683 308.92C251.496 308.92 253.283 309.213 255.043 309.8C256.803 310.333 258.349 311.053 259.683 311.96C261.069 312.813 262.056 313.72 262.643 314.68C263.176 315.373 263.549 315.96 263.763 316.44C264.029 316.867 264.056 317.373 263.843 317.96C263.629 318.387 263.336 318.787 262.963 319.16C262.589 319.48 262.216 319.747 261.843 319.96C260.883 320.707 259.923 320.813 258.963 320.28C258.376 319.693 257.709 319.16 256.963 318.68C256.269 318.147 255.523 317.667 254.723 317.24C253.923 316.813 253.096 316.493 252.243 316.28C251.443 316.013 250.589 315.88 249.683 315.88C247.176 315.88 244.963 316.413 243.043 317.48C241.123 318.493 239.629 319.96 238.563 321.88C237.549 323.747 237.043 325.933 237.043 328.44C237.043 330.947 237.549 333.133 238.563 335C239.629 336.867 241.096 338.333 242.963 339.4C244.883 340.467 247.069 341 249.523 341C250.643 341 251.709 340.867 252.723 340.6C253.789 340.28 254.776 339.88 255.683 339.4C256.589 338.867 257.336 338.307 257.923 337.72C258.456 337.347 258.909 337.027 259.283 336.76C259.656 336.493 260.109 336.36 260.643 336.36C261.069 336.36 261.523 336.547 262.003 336.92C262.483 337.24 262.989 337.747 263.523 338.44C263.949 338.92 264.189 339.427 264.243 339.96C264.349 340.493 264.269 341 264.003 341.48C263.736 341.96 263.309 342.44 262.723 342.92C261.869 343.773 260.723 344.6 259.283 345.4C257.896 346.147 256.376 346.76 254.723 347.24C253.069 347.72 251.443 347.96 249.843 347.96ZM297.686 347.8C295.18 347.8 293.046 347.56 291.286 347.08C289.58 346.6 288.166 345.853 287.046 344.84C285.926 343.827 285.126 342.52 284.646 340.92C284.166 339.267 283.926 337.24 283.926 334.84V299.48C283.926 298.733 284.006 298.093 284.166 297.56C284.326 297.027 284.646 296.627 285.126 296.36C285.606 296.04 286.353 295.88 287.366 295.88C288.38 295.88 289.153 296.04 289.686 296.36C290.22 296.627 290.566 297.027 290.726 297.56C290.886 298.04 290.966 298.653 290.966 299.4V334.84C290.966 336.227 291.073 337.347 291.286 338.2C291.553 339 291.926 339.613 292.406 340.04C292.94 340.467 293.633 340.733 294.486 340.84C295.34 340.947 296.38 341 297.606 341C298.46 341 299.153 341.08 299.686 341.24C300.22 341.4 300.62 341.72 300.886 342.2C301.153 342.68 301.286 343.4 301.286 344.36C301.286 345.373 301.126 346.147 300.806 346.68C300.54 347.16 300.113 347.453 299.526 347.56C298.993 347.72 298.38 347.8 297.686 347.8ZM279.766 309.96L287.446 310.04L298.566 309.88C299.313 309.88 299.953 309.96 300.486 310.12C301.02 310.227 301.42 310.547 301.686 311.08C302.006 311.56 302.166 312.307 302.166 313.32C302.166 314.333 302.033 315.107 301.766 315.64C301.5 316.12 301.1 316.44 300.566 316.6C300.033 316.76 299.393 316.84 298.646 316.84L287.686 316.68L279.606 316.76C278.486 316.76 277.713 316.493 277.286 315.96C276.913 315.427 276.726 314.547 276.726 313.32C276.726 312.147 276.966 311.293 277.446 310.76C277.926 310.227 278.7 309.96 279.766 309.96Z" fill="#AAAAAA"/>
<path d="M21.68 154.52C18.4267 154.52 15.6533 154.12 13.36 153.32C11.12 152.52 9.28 151.587 7.84 150.52C6.4 149.4 5.30667 148.387 4.56 147.48C3.81333 146.573 3.36 146.013 3.2 145.8C2.13333 144.467 1.46667 143.267 1.2 142.2C0.986667 141.133 1.14667 140.067 1.68 139C2.26667 137.933 3.22667 136.76 4.56 135.48C5.78667 134.307 6.98667 133.667 8.16 133.56C9.33333 133.4 10.48 133.64 11.6 134.28C12.7733 134.92 13.8933 135.853 14.96 137.08C16.24 138.52 17.3333 139.507 18.24 140.04C19.1467 140.52 20.1867 140.76 21.36 140.76C22.8 140.76 23.9733 140.6 24.88 140.28C25.7867 139.907 26.4533 139.373 26.88 138.68C27.3067 137.933 27.52 137 27.52 135.88C27.52 134.973 27.0667 134.28 26.16 133.8C25.2533 133.267 24.0533 132.813 22.56 132.44C21.12 132.067 19.4933 131.667 17.68 131.24C15.8667 130.76 14.08 130.147 12.32 129.4C11.2533 128.973 10.2133 128.44 9.2 127.8C8.18667 127.16 7.22667 126.44 6.32 125.64C5.46667 124.787 4.72 123.8 4.08 122.68C3.44 121.507 2.93333 120.2 2.56 118.76C2.24 117.32 2.08 115.693 2.08 113.88C2.08 110.627 2.88 107.72 4.48 105.16C6.13333 102.6 8.37333 100.573 11.2 99.08C14.08 97.5867 17.3333 96.84 20.96 96.84C23.5733 96.84 25.8133 97.0533 27.68 97.48C29.5467 97.9067 31.0667 98.4133 32.24 99C33.4667 99.5867 34.4 100.147 35.04 100.68C35.68 101.16 36.08 101.48 36.24 101.64C38 103.24 38.96 104.627 39.12 105.8C39.28 106.92 38.64 108.547 37.2 110.68C35.6 112.973 34.0267 114.28 32.48 114.6C30.9333 114.867 29.1467 114.36 27.12 113.08C26.6933 112.76 26.2667 112.413 25.84 112.04C25.4133 111.613 24.8267 111.267 24.08 111C23.3867 110.68 22.32 110.52 20.88 110.52C20.3467 110.52 19.8133 110.627 19.28 110.84C18.7467 111 18.2933 111.24 17.92 111.56C17.5467 111.827 17.2267 112.173 16.96 112.6C16.7467 113.027 16.64 113.48 16.64 113.96C16.64 115.08 17.0667 115.96 17.92 116.6C18.7733 117.187 19.8933 117.64 21.28 117.96C22.72 118.28 24.2933 118.6 26 118.92C27.7067 119.24 29.44 119.667 31.2 120.2C32.64 120.68 34.0267 121.293 35.36 122.04C36.6933 122.787 37.8667 123.747 38.88 124.92C39.8933 126.093 40.6933 127.56 41.28 129.32C41.92 131.027 42.24 133.133 42.24 135.64C42.24 139.107 41.5733 142.067 40.24 144.52C38.9067 146.92 37.1733 148.867 35.04 150.36C32.96 151.8 30.72 152.84 28.32 153.48C25.9733 154.173 23.76 154.52 21.68 154.52ZM60.8794 153.64C58.586 153.64 56.9327 153.293 55.9194 152.6C54.906 151.907 54.266 151 53.9994 149.88C53.7327 148.76 53.5994 147.56 53.5994 146.28V104.92C53.5994 103.747 53.706 102.6 53.9194 101.48C54.1327 100.36 54.746 99.4533 55.7594 98.76C56.7727 98.0133 58.506 97.6667 60.9594 97.72H74.7194C78.506 97.72 82.0794 98.44 85.4394 99.88C88.7994 101.32 91.7594 103.32 94.3194 105.88C96.9327 108.387 98.9594 111.32 100.399 114.68C101.893 118.04 102.639 121.613 102.639 125.4C102.639 129.293 101.893 132.947 100.399 136.36C98.9594 139.773 96.9327 142.787 94.3194 145.4C91.7594 147.96 88.7727 149.987 85.3594 151.48C81.9994 152.92 78.3727 153.64 74.4794 153.64H60.8794ZM68.2394 139H74.7194C77.1194 139 79.3327 138.413 81.3594 137.24C83.386 136.013 84.986 134.413 86.1594 132.44C87.386 130.413 87.9994 128.173 87.9994 125.72C87.9994 123.267 87.386 121.027 86.1594 119C84.986 116.973 83.386 115.373 81.3594 114.2C79.3327 112.973 77.0927 112.36 74.6394 112.36H68.2394V139ZM140.981 154.6C137.088 154.6 133.435 153.88 130.021 152.44C126.661 150.947 123.701 148.893 121.141 146.28C118.581 143.667 116.555 140.653 115.061 137.24C113.621 133.773 112.901 130.093 112.901 126.2C112.901 122.147 113.595 118.36 114.981 114.84C116.421 111.32 118.395 108.227 120.901 105.56C123.408 102.893 126.315 100.813 129.621 99.32C132.981 97.8267 136.555 97.08 140.341 97.08C144.235 97.08 147.861 97.8267 151.221 99.32C154.635 100.76 157.621 102.787 160.181 105.4C162.741 108.013 164.741 111.08 166.181 114.6C167.621 118.067 168.341 121.827 168.341 125.88C168.341 129.827 167.621 133.533 166.181 137C164.795 140.467 162.821 143.533 160.261 146.2C157.755 148.813 154.848 150.867 151.541 152.36C148.288 153.853 144.768 154.6 140.981 154.6ZM140.581 139.96C142.395 139.96 144.101 139.613 145.701 138.92C147.301 138.173 148.688 137.187 149.861 135.96C151.088 134.68 152.021 133.187 152.661 131.48C153.355 129.72 153.701 127.853 153.701 125.88C153.701 123.907 153.355 122.067 152.661 120.36C151.968 118.653 151.008 117.16 149.781 115.88C148.608 114.547 147.221 113.533 145.621 112.84C144.075 112.093 142.421 111.72 140.661 111.72C138.848 111.72 137.141 112.093 135.541 112.84C133.995 113.533 132.608 114.547 131.381 115.88C130.208 117.16 129.275 118.653 128.581 120.36C127.888 122.067 127.541 123.907 127.541 125.88C127.541 127.8 127.888 129.613 128.581 131.32C129.275 133.027 130.208 134.547 131.381 135.88C132.608 137.16 133.995 138.173 135.541 138.92C137.141 139.613 138.821 139.96 140.581 139.96ZM219.838 153.64C217.438 153.64 215.731 153.293 214.718 152.6C213.704 151.853 213.091 150.92 212.878 149.8C212.664 148.627 212.558 147.453 212.558 146.28V105C212.558 103.827 212.664 102.68 212.878 101.56C213.091 100.44 213.704 99.5333 214.718 98.84C215.731 98.0933 217.464 97.72 219.918 97.72C222.371 97.72 224.078 98.0933 225.038 98.84C226.051 99.5333 226.664 100.44 226.878 101.56C227.091 102.68 227.198 103.853 227.198 105.08V146.36C227.198 147.533 227.091 148.68 226.878 149.8C226.664 150.92 226.051 151.853 225.038 152.6C224.024 153.293 222.291 153.64 219.838 153.64ZM186.958 153.64C184.558 153.64 182.851 153.293 181.838 152.6C180.824 151.853 180.211 150.92 179.998 149.8C179.784 148.627 179.678 147.453 179.678 146.28V105C179.678 103.827 179.784 102.68 179.998 101.56C180.211 100.44 180.824 99.5333 181.838 98.84C182.851 98.0933 184.584 97.72 187.038 97.72C189.491 97.72 191.198 98.0933 192.158 98.84C193.171 99.5333 193.784 100.44 193.998 101.56C194.211 102.68 194.318 103.853 194.318 105.08V146.36C194.318 147.533 194.211 148.68 193.998 149.8C193.784 150.92 193.171 151.853 192.158 152.6C191.144 153.293 189.411 153.64 186.958 153.64ZM193.038 131.96V119.48H213.838V131.96H193.038ZM10.08 250.64C7.68 250.64 5.97333 250.293 4.96 249.6C3.94667 248.853 3.33333 247.92 3.12 246.8C2.90667 245.627 2.8 244.453 2.8 243.28V202C2.8 200.827 2.90667 199.68 3.12 198.56C3.33333 197.44 3.94667 196.533 4.96 195.84C5.97333 195.093 7.70667 194.72 10.16 194.72H26.08C28.1067 194.72 30.2933 195.147 32.64 196C34.9867 196.8 37.2 198.053 39.28 199.76C41.4133 201.467 43.1467 203.6 44.48 206.16C45.8133 208.72 46.48 211.76 46.48 215.28C46.48 218.747 45.8133 221.76 44.48 224.32C43.1467 226.88 41.4133 229.013 39.28 230.72C37.2 232.373 34.9867 233.627 32.64 234.48C30.2933 235.28 28.08 235.68 26 235.68H17.44V243.36C17.44 244.533 17.3333 245.68 17.12 246.8C16.9067 247.92 16.2933 248.853 15.28 249.6C14.2667 250.293 12.5333 250.64 10.08 250.64ZM17.44 221.04H26.08C26.7733 221.04 27.5733 220.88 28.48 220.56C29.3867 220.187 30.1867 219.573 30.88 218.72C31.5733 217.867 31.92 216.693 31.92 215.2C31.92 214.08 31.6533 213.093 31.12 212.24C30.5867 211.333 29.8667 210.64 28.96 210.16C28.1067 209.627 27.12 209.36 26 209.36H17.44V221.04ZM74.9381 250.72C72.4848 250.72 70.3248 250.613 68.4581 250.4C66.6448 250.187 65.0981 249.76 63.8181 249.12C62.5381 248.48 61.4981 247.573 60.6981 246.4C59.8981 245.173 59.3115 243.6 58.9381 241.68C58.5648 239.707 58.3781 237.253 58.3781 234.32V198.88C58.3781 197.653 58.4848 196.507 58.6981 195.44C58.9115 194.32 59.5248 193.413 60.5381 192.72C61.5515 191.973 63.2581 191.6 65.6581 191.6C68.0581 191.6 69.7381 191.973 70.6981 192.72C71.7115 193.413 72.3248 194.32 72.5381 195.44C72.7515 196.56 72.8581 197.733 72.8581 198.96V233.44C72.8581 234.24 72.8581 234.88 72.8581 235.36C72.9115 235.787 72.9915 236.107 73.0981 236.32C73.2581 236.533 73.4715 236.667 73.7381 236.72C74.0581 236.72 74.4848 236.72 75.0181 236.72C75.7115 236.72 76.4315 236.827 77.1781 237.04C77.9781 237.2 78.6448 237.76 79.1781 238.72C79.7648 239.627 80.0581 241.227 80.0581 243.52C80.0581 245.92 79.7648 247.627 79.1781 248.64C78.6448 249.653 77.9781 250.24 77.1781 250.4C76.3781 250.613 75.6315 250.72 74.9381 250.72ZM123.302 250.56C120.902 250.56 119.115 250.16 117.942 249.36C116.822 248.56 116.289 247.653 116.342 246.64H117.462C117.195 247.013 116.662 247.52 115.862 248.16C115.115 248.747 114.102 249.307 112.822 249.84C111.542 250.32 109.969 250.56 108.102 250.56C105.702 250.56 103.382 250.027 101.142 248.96C98.9552 247.84 96.9819 246.32 95.2219 244.4C93.5152 242.48 92.1552 240.32 91.1419 237.92C90.1285 235.467 89.6219 232.907 89.6219 230.24C89.6219 227.627 90.1285 225.12 91.1419 222.72C92.1552 220.32 93.5419 218.187 95.3019 216.32C97.0619 214.4 99.0352 212.907 101.222 211.84C103.409 210.72 105.702 210.16 108.102 210.16C109.915 210.16 111.435 210.427 112.662 210.96C113.942 211.493 114.955 212.08 115.702 212.72C116.502 213.36 117.035 213.893 117.302 214.32H116.422C116.369 212.987 116.902 211.947 118.022 211.2C119.195 210.453 120.982 210.08 123.382 210.08C125.782 210.08 127.462 210.453 128.422 211.2C129.435 211.893 130.049 212.8 130.262 213.92C130.475 215.04 130.582 216.187 130.582 217.36V243.36C130.582 244.533 130.475 245.68 130.262 246.8C130.049 247.92 129.435 248.827 128.422 249.52C127.462 250.213 125.755 250.56 123.302 250.56ZM110.102 236.08C111.115 236.08 112.022 235.813 112.822 235.28C113.675 234.747 114.342 234.053 114.822 233.2C115.355 232.293 115.622 231.333 115.622 230.32C115.622 229.253 115.355 228.293 114.822 227.44C114.342 226.587 113.675 225.893 112.822 225.36C111.969 224.827 111.009 224.56 109.942 224.56C108.875 224.56 107.889 224.827 106.982 225.36C106.129 225.893 105.435 226.613 104.902 227.52C104.369 228.373 104.102 229.333 104.102 230.4C104.102 231.413 104.369 232.347 104.902 233.2C105.489 234.053 106.235 234.747 107.142 235.28C108.049 235.813 109.035 236.08 110.102 236.08ZM163.913 251.12C161.726 251.12 159.406 250.693 156.953 249.84C154.553 248.933 152.286 247.627 150.153 245.92C148.02 244.16 146.286 241.973 144.953 239.36C143.62 236.747 142.953 233.707 142.953 230.24C142.953 226.827 143.62 223.84 144.953 221.28C146.286 218.667 147.993 216.507 150.073 214.8C152.206 213.093 154.473 211.813 156.873 210.96C159.326 210.053 161.62 209.6 163.753 209.6C165.78 209.6 167.54 209.813 169.033 210.24C170.526 210.667 171.753 211.147 172.713 211.68C173.673 212.16 174.366 212.533 174.793 212.8C175.86 213.44 176.846 214.187 177.753 215.04C178.713 215.84 179.193 216.933 179.193 218.32C179.193 219.013 179.06 219.733 178.793 220.48C178.526 221.173 178.1 221.973 177.513 222.88C175.593 225.813 173.673 227.28 171.753 227.28C170.9 227.28 170.153 227.147 169.513 226.88C168.873 226.56 168.286 226.213 167.753 225.84C167.22 225.467 166.633 225.147 165.993 224.88C165.406 224.56 164.66 224.4 163.753 224.4C162.686 224.4 161.7 224.667 160.793 225.2C159.886 225.733 159.166 226.453 158.633 227.36C158.1 228.213 157.833 229.2 157.833 230.32C157.833 231.44 158.1 232.453 158.633 233.36C159.166 234.267 159.86 234.987 160.713 235.52C161.62 236.053 162.58 236.32 163.593 236.32C164.34 236.32 164.953 236.24 165.433 236.08C165.966 235.92 166.366 235.76 166.633 235.6C166.9 235.387 167.06 235.28 167.113 235.28C167.86 234.853 168.553 234.453 169.193 234.08C169.886 233.707 170.58 233.52 171.273 233.52C172.18 233.52 173.113 233.867 174.073 234.56C175.033 235.2 176.1 236.267 177.273 237.76C178.393 239.147 179.006 240.453 179.113 241.68C179.273 242.853 178.98 243.973 178.233 245.04C177.486 246.053 176.34 247.04 174.793 248C174.633 248.107 174.073 248.427 173.113 248.96C172.206 249.44 170.98 249.92 169.433 250.4C167.886 250.88 166.046 251.12 163.913 251.12ZM212.228 251.6C208.228 251.6 204.841 250.96 202.068 249.68C199.294 248.347 197.054 246.64 195.348 244.56C193.641 242.427 192.388 240.133 191.588 237.68C190.788 235.227 190.388 232.853 190.388 230.56C190.388 226.347 191.321 222.64 193.188 219.44C195.054 216.24 197.641 213.733 200.947 211.92C204.254 210.107 208.041 209.2 212.308 209.2C215.614 209.2 218.441 209.733 220.788 210.8C223.134 211.867 225.028 213.227 226.468 214.88C227.961 216.533 229.054 218.293 229.748 220.16C230.441 222.027 230.788 223.76 230.788 225.36C230.788 228.4 230.041 230.72 228.548 232.32C227.054 233.92 225.134 234.72 222.788 234.72H205.748C205.961 235.573 206.388 236.32 207.028 236.96C207.721 237.547 208.574 238.027 209.588 238.4C210.601 238.72 211.694 238.88 212.868 238.88C214.041 238.88 215.081 238.827 215.988 238.72C216.894 238.56 217.668 238.373 218.308 238.16C219.001 237.947 219.614 237.733 220.148 237.52C220.734 237.307 221.241 237.147 221.668 237.04C222.148 236.88 222.601 236.8 223.028 236.8C223.988 236.8 224.868 237.12 225.668 237.76C226.468 238.4 227.188 239.36 227.828 240.64C228.201 241.333 228.468 242 228.628 242.64C228.788 243.227 228.868 243.787 228.868 244.32C228.868 245.92 228.201 247.253 226.868 248.32C225.588 249.387 223.721 250.187 221.268 250.72C218.814 251.307 215.801 251.6 212.228 251.6ZM205.748 227.2H214.708C215.454 227.2 215.988 227.04 216.308 226.72C216.681 226.4 216.868 225.92 216.868 225.28C216.868 224.587 216.654 224 216.228 223.52C215.854 223.04 215.321 222.693 214.628 222.48C213.934 222.213 213.108 222.08 212.148 222.08C210.868 222.08 209.748 222.347 208.788 222.88C207.828 223.36 207.081 224 206.548 224.8C206.068 225.547 205.801 226.347 205.748 227.2Z" fill="#7E1CC4"/>
</svg>
