<svg width="96" height="109" viewBox="0 0 96 109" fill="none" xmlns="http://www.w3.org/2000/svg">
<path d="M14.088 0.487999C14.296 0.487999 14.464 0.511999 14.592 0.559999C14.736 0.607999 14.848 0.703999 14.928 0.847999C15.008 0.975999 15.048 1.192 15.048 1.496C15.048 1.784 15 2 14.904 2.144C14.824 2.288 14.712 2.384 14.568 2.432C14.424 2.464 14.248 2.48 14.04 2.48H9.072V16.184C9.072 16.392 9.04 16.576 8.976 16.736C8.928 16.896 8.824 17.016 8.664 17.096C8.52 17.192 8.296 17.24 7.992 17.24C7.672 17.24 7.432 17.192 7.272 17.096C7.128 17.016 7.032 16.896 6.984 16.736C6.952 16.56 6.936 16.368 6.936 16.16V2.48H1.896C1.688 2.48 1.512 2.464 1.368 2.432C1.224 2.384 1.112 2.288 1.032 2.144C0.952 2 0.912 1.784 0.912 1.496C0.912 1.192 0.944 0.975999 1.008 0.847999C1.088 0.703999 1.2 0.607999 1.344 0.559999C1.504 0.511999 1.68 0.487999 1.872 0.487999H14.088ZM20.7375 17.24C20.4335 17.24 20.2015 17.192 20.0415 17.096C19.8815 17.016 19.7775 16.896 19.7295 16.736C19.6975 16.56 19.6815 16.36 19.6815 16.136V1.352C19.6815 1.128 19.7055 0.935999 19.7535 0.775999C19.8015 0.615999 19.9055 0.495999 20.0655 0.415999C20.2255 0.319999 20.4575 0.271999 20.7615 0.271999C21.0815 0.271999 21.3135 0.319999 21.4575 0.415999C21.6175 0.495999 21.7135 0.615999 21.7455 0.775999C21.7935 0.935999 21.8175 1.136 21.8175 1.376V7.304C22.2015 6.856 22.6655 6.456 23.2095 6.104C23.7695 5.752 24.4495 5.576 25.2495 5.576C26.1935 5.576 27.0335 5.8 27.7695 6.248C28.5215 6.68 29.1135 7.296 29.5455 8.096C29.9935 8.896 30.2175 9.848 30.2175 10.952V16.16C30.2175 16.384 30.1935 16.576 30.1455 16.736C30.0975 16.896 30.0015 17.016 29.8575 17.096C29.7135 17.192 29.4815 17.24 29.1615 17.24C28.8575 17.24 28.6255 17.192 28.4655 17.096C28.3055 17.016 28.2015 16.896 28.1535 16.736C28.1055 16.56 28.0815 16.36 28.0815 16.136V10.928C28.0815 10.256 27.9695 9.672 27.7455 9.176C27.5215 8.68 27.1855 8.296 26.7375 8.024C26.3055 7.752 25.7535 7.616 25.0815 7.616C24.1695 7.616 23.4175 7.88 22.8255 8.408C22.2495 8.92 21.9135 9.608 21.8175 10.472V16.16C21.8175 16.384 21.7935 16.576 21.7455 16.736C21.6975 16.896 21.5935 17.016 21.4335 17.096C21.2895 17.192 21.0575 17.24 20.7375 17.24ZM40.5652 17.36C39.6052 17.36 38.7492 17.2 37.9972 16.88C37.2452 16.56 36.6052 16.128 36.0772 15.584C35.5652 15.024 35.1732 14.384 34.9012 13.664C34.6292 12.944 34.4932 12.168 34.4932 11.336C34.4932 10.232 34.7492 9.248 35.2612 8.384C35.7732 7.52 36.4772 6.84 37.3732 6.344C38.2852 5.832 39.3252 5.576 40.4932 5.576C41.2932 5.576 42.0052 5.704 42.6292 5.96C43.2692 6.2 43.8132 6.528 44.2612 6.944C44.7092 7.36 45.0532 7.824 45.2933 8.336C45.5332 8.848 45.6532 9.36 45.6532 9.872C45.6532 10.688 45.4612 11.264 45.0773 11.6C44.6932 11.92 44.2212 12.08 43.6612 12.08H36.7252C36.7092 12.784 36.8932 13.392 37.2772 13.904C37.6772 14.4 38.1732 14.784 38.7652 15.056C39.3732 15.328 39.9812 15.464 40.5892 15.464C41.0372 15.464 41.4212 15.44 41.7412 15.392C42.0612 15.344 42.3412 15.28 42.5812 15.2C42.8212 15.12 43.0292 15.04 43.2052 14.96C43.3812 14.88 43.5332 14.8 43.6612 14.72C43.8052 14.64 43.9412 14.584 44.0692 14.552C44.2132 14.52 44.3492 14.536 44.4772 14.6C44.6212 14.648 44.7332 14.752 44.8132 14.912C44.9093 15.04 44.9732 15.16 45.0052 15.272C45.0372 15.384 45.0532 15.504 45.0532 15.632C45.0532 15.856 44.8612 16.104 44.4772 16.376C44.0932 16.648 43.5572 16.88 42.8692 17.072C42.1972 17.264 41.4292 17.36 40.5652 17.36ZM36.7252 10.664H42.7492C43.0532 10.664 43.2772 10.624 43.4212 10.544C43.5812 10.464 43.6612 10.248 43.6612 9.896C43.6612 9.448 43.5252 9.048 43.2532 8.696C42.9812 8.328 42.6052 8.032 42.1252 7.808C41.6612 7.584 41.1252 7.472 40.5172 7.472C39.8132 7.472 39.1652 7.616 38.5732 7.904C37.9972 8.176 37.5412 8.552 37.2052 9.032C36.8692 9.512 36.7092 10.056 36.7252 10.664ZM85.2411 46.288C84.1531 46.288 83.2251 46.12 82.4571 45.784C81.6891 45.432 81.0971 44.92 80.6811 44.248C80.2811 43.576 80.0811 42.768 80.0811 41.824C80.0811 41.312 80.2011 40.8 80.4411 40.288C80.6811 39.76 81.0251 39.232 81.4731 38.704C81.9371 38.16 82.4891 37.632 83.1291 37.12C82.9051 36.656 82.6971 36.192 82.5051 35.728C82.3291 35.248 82.1931 34.784 82.0971 34.336C82.0011 33.872 81.9531 33.432 81.9531 33.016C81.9531 32.2 82.1371 31.496 82.5051 30.904C82.8731 30.312 83.3931 29.856 84.0651 29.536C84.7371 29.216 85.5371 29.056 86.4651 29.056C87.2651 29.056 87.9531 29.208 88.5291 29.512C89.1211 29.8 89.5771 30.208 89.8971 30.736C90.2171 31.264 90.3771 31.896 90.3771 32.632C90.3771 32.984 90.2651 33.36 90.0411 33.76C89.8171 34.144 89.4971 34.552 89.0811 34.984C88.6651 35.4 88.1851 35.84 87.6411 36.304C87.0971 36.752 86.5051 37.224 85.8651 37.72C86.2971 38.36 86.7371 38.968 87.1851 39.544C87.6491 40.104 88.1211 40.616 88.6011 41.08C89.0971 41.528 89.5691 41.912 90.0171 42.232C90.6411 41.72 91.0731 41.248 91.3131 40.816C91.5531 40.368 91.7211 39.92 91.8171 39.472C91.8651 39.28 91.9771 39.12 92.1531 38.992C92.3291 38.848 92.6251 38.776 93.0411 38.776C93.3131 38.776 93.5131 38.824 93.6411 38.92C93.7851 39 93.8811 39.112 93.9291 39.256C93.9931 39.384 94.0171 39.512 94.0011 39.64C93.9691 40.248 93.7531 40.856 93.3531 41.464C92.9691 42.072 92.4331 42.688 91.7451 43.312C92.0011 43.392 92.2251 43.464 92.4171 43.528C92.6251 43.592 92.8571 43.64 93.1131 43.672C93.3691 43.688 93.6971 43.696 94.0971 43.696C94.4651 43.696 94.7211 43.776 94.8651 43.936C95.0251 44.08 95.1051 44.344 95.1051 44.728C95.1051 45.192 95.0331 45.504 94.8891 45.664C94.7451 45.824 94.4731 45.904 94.0731 45.904C93.6251 45.904 93.1611 45.872 92.6811 45.808C92.2171 45.744 91.7531 45.632 91.2891 45.472C90.8251 45.312 90.3451 45.096 89.8491 44.824C89.4171 45.128 88.9451 45.392 88.4331 45.616C87.9211 45.84 87.3931 46.008 86.8491 46.12C86.3211 46.232 85.7851 46.288 85.2411 46.288ZM85.2411 44.248C85.7851 44.248 86.3051 44.176 86.8011 44.032C87.2971 43.888 87.7131 43.704 88.0491 43.48C87.7771 43.224 87.4731 42.936 87.1371 42.616C86.8011 42.28 86.4651 41.92 86.1291 41.536C85.7931 41.152 85.4571 40.744 85.1211 40.312C84.7851 39.88 84.4651 39.44 84.1611 38.992C83.8251 39.312 83.5371 39.6 83.2971 39.856C83.0571 40.096 82.8651 40.32 82.7211 40.528C82.5771 40.72 82.4731 40.928 82.4091 41.152C82.3451 41.36 82.3131 41.584 82.3131 41.824C82.3131 42.32 82.4331 42.752 82.6731 43.12C82.9131 43.488 83.2491 43.768 83.6811 43.96C84.1291 44.152 84.6491 44.248 85.2411 44.248ZM84.8811 36.016C85.4091 35.616 85.8811 35.256 86.2971 34.936C86.7291 34.6 87.0891 34.288 87.3771 34C87.6651 33.712 87.8891 33.448 88.0491 33.208C88.2091 32.968 88.2891 32.76 88.2891 32.584C88.2891 32.056 88.1211 31.632 87.7851 31.312C87.4491 30.976 87.0011 30.808 86.4411 30.808C85.9451 30.808 85.5131 30.896 85.1451 31.072C84.7771 31.232 84.4891 31.464 84.2811 31.768C84.0891 32.072 83.9931 32.44 83.9931 32.872C83.9931 33.144 84.0251 33.432 84.0891 33.736C84.1531 34.024 84.2491 34.352 84.3771 34.72C84.5051 35.088 84.6731 35.52 84.8811 36.016ZM2.712 104.24C2.408 104.24 2.176 104.192 2.016 104.096C1.872 104.016 1.776 103.896 1.728 103.736C1.68 103.56 1.656 103.36 1.656 103.136V88.568C1.656 88.36 1.68 88.176 1.728 88.016C1.792 87.856 1.904 87.728 2.064 87.632C2.224 87.536 2.448 87.488 2.736 87.488H7.992C8.76 87.488 9.464 87.608 10.104 87.848C10.76 88.072 11.328 88.424 11.808 88.904C12.304 89.368 12.688 89.936 12.96 90.608C13.232 91.28 13.368 92.056 13.368 92.936C13.368 93.8 13.232 94.568 12.96 95.24C12.688 95.912 12.304 96.48 11.808 96.944C11.312 97.392 10.736 97.736 10.08 97.976C9.44 98.216 8.736 98.336 7.968 98.336H3.84V103.16C3.84 103.384 3.808 103.576 3.744 103.736C3.696 103.896 3.592 104.016 3.432 104.096C3.288 104.192 3.048 104.24 2.712 104.24ZM3.84 96.152H7.992C8.632 96.152 9.192 96.032 9.672 95.792C10.152 95.536 10.528 95.168 10.8 94.688C11.072 94.192 11.208 93.592 11.208 92.888C11.208 92.216 11.08 91.64 10.824 91.16C10.568 90.68 10.192 90.312 9.696 90.056C9.216 89.8 8.64 89.672 7.968 89.672H3.84V96.152ZM19.3821 104.24C19.0781 104.24 18.8461 104.192 18.6861 104.096C18.5421 104.016 18.4461 103.896 18.3981 103.736C18.3661 103.56 18.3501 103.36 18.3501 103.136V93.68C18.3501 93.44 18.3741 93.24 18.4221 93.08C18.4701 92.92 18.5661 92.808 18.7101 92.744C18.8541 92.664 19.0861 92.624 19.4061 92.624C19.6941 92.624 19.9101 92.664 20.0541 92.744C20.2141 92.808 20.3181 92.912 20.3661 93.056C20.4301 93.184 20.4621 93.336 20.4621 93.512L20.3661 94.232C20.4781 94.024 20.6061 93.816 20.7501 93.608C20.9101 93.4 21.1021 93.216 21.3261 93.056C21.5661 92.88 21.8461 92.736 22.1661 92.624C22.5021 92.512 22.9101 92.456 23.3901 92.456C23.6301 92.456 23.8541 92.48 24.0621 92.528C24.2861 92.56 24.4941 92.616 24.6861 92.696C24.8941 92.776 25.0701 92.872 25.2141 92.984C25.3581 93.08 25.4701 93.192 25.5501 93.32C25.6461 93.432 25.6941 93.568 25.6941 93.728C25.6941 94.08 25.5821 94.384 25.3581 94.64C25.1341 94.88 24.9021 95 24.6621 95C24.4541 95 24.3021 94.976 24.2061 94.928C24.1101 94.864 24.0141 94.8 23.9181 94.736C23.8381 94.672 23.7181 94.616 23.5581 94.568C23.3981 94.504 23.1421 94.472 22.7901 94.472C22.5501 94.472 22.2941 94.52 22.0221 94.616C21.7661 94.712 21.5181 94.856 21.2781 95.048C21.0381 95.224 20.8381 95.456 20.6781 95.744C20.5341 96.032 20.4621 96.368 20.4621 96.752V103.184C20.4621 103.408 20.4381 103.6 20.3901 103.76C20.3421 103.92 20.2381 104.04 20.0781 104.12C19.9341 104.2 19.7021 104.24 19.3821 104.24ZM35.3805 104.384C34.5965 104.384 33.8445 104.232 33.1245 103.928C32.4205 103.624 31.7885 103.208 31.2285 102.68C30.6685 102.136 30.2285 101.504 29.9085 100.784C29.5885 100.064 29.4285 99.28 29.4285 98.432C29.4285 97.6 29.5805 96.832 29.8845 96.128C30.1885 95.408 30.6125 94.776 31.1565 94.232C31.7005 93.688 32.3245 93.264 33.0285 92.96C33.7485 92.64 34.5165 92.48 35.3325 92.48C36.4365 92.48 37.4285 92.744 38.3085 93.272C39.2045 93.784 39.9165 94.488 40.4445 95.384C40.9725 96.28 41.2365 97.288 41.2365 98.408C41.2365 99.288 41.0765 100.096 40.7565 100.832C40.4365 101.552 40.0045 102.176 39.4605 102.704C38.9165 103.232 38.2925 103.648 37.5885 103.952C36.8845 104.24 36.1485 104.384 35.3805 104.384ZM35.3325 102.296C36.0045 102.296 36.6285 102.128 37.2045 101.792C37.7805 101.456 38.2445 100.992 38.5965 100.4C38.9485 99.808 39.1245 99.136 39.1245 98.384C39.1245 97.632 38.9565 96.968 38.6205 96.392C38.3005 95.816 37.8525 95.368 37.2765 95.048C36.7005 94.728 36.0445 94.568 35.3085 94.568C34.6045 94.568 33.9645 94.736 33.3885 95.072C32.8285 95.408 32.3725 95.864 32.0205 96.44C31.6845 97.016 31.5165 97.672 31.5165 98.408C31.5165 99.176 31.6925 99.856 32.0445 100.448C32.3965 101.024 32.8605 101.48 33.4365 101.816C34.0285 102.136 34.6605 102.296 35.3325 102.296ZM43.4582 108.92C43.2502 108.92 43.0662 108.888 42.9062 108.824C42.7462 108.776 42.6262 108.68 42.5462 108.536C42.4502 108.392 42.4022 108.168 42.4022 107.864C42.4022 107.576 42.4502 107.36 42.5462 107.216C42.6262 107.072 42.7542 106.968 42.9302 106.904C43.0902 106.856 43.2742 106.832 43.4822 106.832C43.8502 106.832 44.2022 106.8 44.5382 106.736C44.8902 106.672 45.1942 106.544 45.4502 106.352C45.7222 106.16 45.9302 105.872 46.0742 105.488C46.2342 105.12 46.3142 104.64 46.3142 104.048V93.608C46.3142 93.4 46.3382 93.224 46.3862 93.08C46.4342 92.936 46.5302 92.824 46.6742 92.744C46.8342 92.648 47.0662 92.6 47.3702 92.6C47.6582 92.6 47.8742 92.648 48.0182 92.744C48.1782 92.824 48.2822 92.952 48.3302 93.128C48.3782 93.288 48.4022 93.48 48.4022 93.704V104.048C48.4022 104.88 48.2742 105.6 48.0182 106.208C47.7622 106.832 47.4102 107.344 46.9622 107.744C46.5142 108.144 45.9942 108.44 45.4022 108.632C44.8102 108.824 44.1622 108.92 43.4582 108.92ZM47.3222 89.72C46.8582 89.72 46.5382 89.632 46.3622 89.456C46.2022 89.264 46.1222 88.936 46.1222 88.472C46.1222 88.008 46.2102 87.696 46.3862 87.536C46.5622 87.36 46.8822 87.272 47.3462 87.272C47.8102 87.272 48.1222 87.368 48.2822 87.56C48.4582 87.736 48.5462 88.056 48.5462 88.52C48.5462 88.968 48.4582 89.28 48.2822 89.456C48.1062 89.632 47.7862 89.72 47.3222 89.72ZM59.5918 104.36C58.6318 104.36 57.7758 104.2 57.0238 103.88C56.2718 103.56 55.6318 103.128 55.1038 102.584C54.5918 102.024 54.1998 101.384 53.9278 100.664C53.6558 99.944 53.5198 99.168 53.5198 98.336C53.5198 97.232 53.7758 96.248 54.2878 95.384C54.7998 94.52 55.5038 93.84 56.3998 93.344C57.3118 92.832 58.3518 92.576 59.5198 92.576C60.3198 92.576 61.0318 92.704 61.6558 92.96C62.2958 93.2 62.8398 93.528 63.2878 93.944C63.7358 94.36 64.0798 94.824 64.3198 95.336C64.5598 95.848 64.6798 96.36 64.6798 96.872C64.6798 97.688 64.4878 98.264 64.1038 98.6C63.7198 98.92 63.2478 99.08 62.6878 99.08H55.7518C55.7358 99.784 55.9198 100.392 56.3038 100.904C56.7038 101.4 57.1998 101.784 57.7918 102.056C58.3998 102.328 59.0078 102.464 59.6158 102.464C60.0638 102.464 60.4478 102.44 60.7678 102.392C61.0878 102.344 61.3678 102.28 61.6078 102.2C61.8478 102.12 62.0558 102.04 62.2318 101.96C62.4078 101.88 62.5598 101.8 62.6878 101.72C62.8318 101.64 62.9678 101.584 63.0958 101.552C63.2398 101.52 63.3758 101.536 63.5038 101.6C63.6478 101.648 63.7598 101.752 63.8398 101.912C63.9358 102.04 63.9998 102.16 64.0318 102.272C64.0638 102.384 64.0798 102.504 64.0798 102.632C64.0798 102.856 63.8878 103.104 63.5038 103.376C63.1198 103.648 62.5838 103.88 61.8958 104.072C61.2238 104.264 60.4558 104.36 59.5918 104.36ZM55.7518 97.664H61.7758C62.0798 97.664 62.3038 97.624 62.4478 97.544C62.6078 97.464 62.6878 97.248 62.6878 96.896C62.6878 96.448 62.5518 96.048 62.2798 95.696C62.0078 95.328 61.6318 95.032 61.1518 94.808C60.6878 94.584 60.1518 94.472 59.5438 94.472C58.8398 94.472 58.1918 94.616 57.5998 94.904C57.0238 95.176 56.5678 95.552 56.2318 96.032C55.8958 96.512 55.7358 97.056 55.7518 97.664ZM74.9528 104.288C74.1208 104.288 73.3368 104.152 72.6008 103.88C71.8808 103.608 71.2408 103.216 70.6808 102.704C70.1368 102.192 69.7048 101.584 69.3848 100.88C69.0808 100.16 68.9288 99.344 68.9288 98.432C68.9288 97.52 69.0808 96.712 69.3848 96.008C69.7048 95.288 70.1368 94.672 70.6808 94.16C71.2248 93.648 71.8568 93.256 72.5768 92.984C73.3128 92.712 74.0888 92.576 74.9048 92.576C75.4488 92.576 75.9848 92.664 76.5128 92.84C77.0408 93 77.5048 93.216 77.9048 93.488C78.3208 93.744 78.6168 94.016 78.7928 94.304C78.9528 94.512 79.0648 94.688 79.1288 94.832C79.2088 94.96 79.2168 95.112 79.1528 95.288C79.0888 95.416 79.0008 95.536 78.8888 95.648C78.7768 95.744 78.6648 95.824 78.5528 95.888C78.2648 96.112 77.9768 96.144 77.6888 95.984C77.5128 95.808 77.3128 95.648 77.0888 95.504C76.8808 95.344 76.6568 95.2 76.4168 95.072C76.1768 94.944 75.9288 94.848 75.6728 94.784C75.4328 94.704 75.1768 94.664 74.9048 94.664C74.1528 94.664 73.4888 94.824 72.9128 95.144C72.3368 95.448 71.8888 95.888 71.5688 96.464C71.2648 97.024 71.1128 97.68 71.1128 98.432C71.1128 99.184 71.2648 99.84 71.5688 100.4C71.8888 100.96 72.3288 101.4 72.8888 101.72C73.4648 102.04 74.1208 102.2 74.8568 102.2C75.1928 102.2 75.5128 102.16 75.8168 102.08C76.1368 101.984 76.4328 101.864 76.7048 101.72C76.9768 101.56 77.2008 101.392 77.3768 101.216C77.5368 101.104 77.6728 101.008 77.7848 100.928C77.8968 100.848 78.0328 100.808 78.1928 100.808C78.3208 100.808 78.4568 100.864 78.6008 100.976C78.7448 101.072 78.8968 101.224 79.0568 101.432C79.1848 101.576 79.2568 101.728 79.2728 101.888C79.3048 102.048 79.2808 102.2 79.2008 102.344C79.1208 102.488 78.9928 102.632 78.8168 102.776C78.5608 103.032 78.2168 103.28 77.7848 103.52C77.3688 103.744 76.9128 103.928 76.4168 104.072C75.9208 104.216 75.4328 104.288 74.9528 104.288ZM89.3059 104.24C88.5539 104.24 87.9139 104.168 87.3859 104.024C86.8739 103.88 86.4499 103.656 86.1139 103.352C85.7779 103.048 85.5379 102.656 85.3939 102.176C85.2499 101.68 85.1779 101.072 85.1779 100.352V89.744C85.1779 89.52 85.2019 89.328 85.2499 89.168C85.2979 89.008 85.3939 88.888 85.5379 88.808C85.6819 88.712 85.9059 88.664 86.2099 88.664C86.5139 88.664 86.7459 88.712 86.9059 88.808C87.0659 88.888 87.1699 89.008 87.2179 89.168C87.2659 89.312 87.2899 89.496 87.2899 89.72V100.352C87.2899 100.768 87.3219 101.104 87.3859 101.36C87.4659 101.6 87.5779 101.784 87.7219 101.912C87.8819 102.04 88.0899 102.12 88.3459 102.152C88.6019 102.184 88.9139 102.2 89.2819 102.2C89.5379 102.2 89.7459 102.224 89.9059 102.272C90.0659 102.32 90.1859 102.416 90.2659 102.56C90.3459 102.704 90.3859 102.92 90.3859 103.208C90.3859 103.512 90.3379 103.744 90.2419 103.904C90.1619 104.048 90.0339 104.136 89.8579 104.168C89.6979 104.216 89.5139 104.24 89.3059 104.24ZM83.9299 92.888L86.2339 92.912L89.5699 92.864C89.7939 92.864 89.9859 92.888 90.1459 92.936C90.3059 92.968 90.4259 93.064 90.5059 93.224C90.6019 93.368 90.6499 93.592 90.6499 93.896C90.6499 94.2 90.6099 94.432 90.5299 94.592C90.4499 94.736 90.3299 94.832 90.1699 94.88C90.0099 94.928 89.8179 94.952 89.5939 94.952L86.3059 94.904L83.8819 94.928C83.5459 94.928 83.3139 94.848 83.1859 94.688C83.0739 94.528 83.0179 94.264 83.0179 93.896C83.0179 93.544 83.0899 93.288 83.2339 93.128C83.3779 92.968 83.6099 92.888 83.9299 92.888Z" fill="#AAAAAA"/>
<path d="M6.504 46.456C5.528 46.456 4.696 46.336 4.008 46.096C3.336 45.856 2.784 45.576 2.352 45.256C1.92 44.92 1.592 44.616 1.368 44.344C1.144 44.072 1.008 43.904 0.96 43.84C0.64 43.44 0.44 43.08 0.36 42.76C0.296 42.44 0.344 42.12 0.504 41.8C0.68 41.48 0.968 41.128 1.368 40.744C1.736 40.392 2.096 40.2 2.448 40.168C2.8 40.12 3.144 40.192 3.48 40.384C3.832 40.576 4.168 40.856 4.488 41.224C4.872 41.656 5.2 41.952 5.472 42.112C5.744 42.256 6.056 42.328 6.408 42.328C6.84 42.328 7.192 42.28 7.464 42.184C7.736 42.072 7.936 41.912 8.064 41.704C8.192 41.48 8.256 41.2 8.256 40.864C8.256 40.592 8.12 40.384 7.848 40.24C7.576 40.08 7.216 39.944 6.768 39.832C6.336 39.72 5.848 39.6 5.304 39.472C4.76 39.328 4.224 39.144 3.696 38.92C3.376 38.792 3.064 38.632 2.76 38.44C2.456 38.248 2.168 38.032 1.896 37.792C1.64 37.536 1.416 37.24 1.224 36.904C1.032 36.552 0.88 36.16 0.768 35.728C0.672 35.296 0.624 34.808 0.624 34.264C0.624 33.288 0.864 32.416 1.344 31.648C1.84 30.88 2.512 30.272 3.36 29.824C4.224 29.376 5.2 29.152 6.288 29.152C7.072 29.152 7.744 29.216 8.304 29.344C8.864 29.472 9.32 29.624 9.672 29.8C10.04 29.976 10.32 30.144 10.512 30.304C10.704 30.448 10.824 30.544 10.872 30.592C11.4 31.072 11.688 31.488 11.736 31.84C11.784 32.176 11.592 32.664 11.16 33.304C10.68 33.992 10.208 34.384 9.744 34.48C9.28 34.56 8.744 34.408 8.136 34.024C8.008 33.928 7.88 33.824 7.752 33.712C7.624 33.584 7.448 33.48 7.224 33.4C7.016 33.304 6.696 33.256 6.264 33.256C6.104 33.256 5.944 33.288 5.784 33.352C5.624 33.4 5.488 33.472 5.376 33.568C5.264 33.648 5.168 33.752 5.088 33.88C5.024 34.008 4.992 34.144 4.992 34.288C4.992 34.624 5.12 34.888 5.376 35.08C5.632 35.256 5.968 35.392 6.384 35.488C6.816 35.584 7.288 35.68 7.8 35.776C8.312 35.872 8.832 36 9.36 36.16C9.792 36.304 10.208 36.488 10.608 36.712C11.008 36.936 11.36 37.224 11.664 37.576C11.968 37.928 12.208 38.368 12.384 38.896C12.576 39.408 12.672 40.04 12.672 40.792C12.672 41.832 12.472 42.72 12.072 43.456C11.672 44.176 11.152 44.76 10.512 45.208C9.888 45.64 9.216 45.952 8.496 46.144C7.792 46.352 7.128 46.456 6.504 46.456ZM18.2638 46.192C17.5758 46.192 17.0798 46.088 16.7758 45.88C16.4718 45.672 16.2798 45.4 16.1998 45.064C16.1198 44.728 16.0798 44.368 16.0798 43.984V31.576C16.0798 31.224 16.1118 30.88 16.1758 30.544C16.2398 30.208 16.4238 29.936 16.7278 29.728C17.0318 29.504 17.5518 29.4 18.2878 29.416H22.4158C23.5518 29.416 24.6238 29.632 25.6318 30.064C26.6398 30.496 27.5278 31.096 28.2958 31.864C29.0798 32.616 29.6878 33.496 30.1198 34.504C30.5678 35.512 30.7918 36.584 30.7918 37.72C30.7918 38.888 30.5678 39.984 30.1198 41.008C29.6878 42.032 29.0798 42.936 28.2958 43.72C27.5278 44.488 26.6318 45.096 25.6078 45.544C24.5998 45.976 23.5118 46.192 22.3438 46.192H18.2638ZM20.4718 41.8H22.4158C23.1358 41.8 23.7998 41.624 24.4078 41.272C25.0158 40.904 25.4958 40.424 25.8478 39.832C26.2158 39.224 26.3998 38.552 26.3998 37.816C26.3998 37.08 26.2158 36.408 25.8478 35.8C25.4958 35.192 25.0158 34.712 24.4078 34.36C23.7998 33.992 23.1278 33.808 22.3918 33.808H20.4718V41.8ZM42.2944 46.48C41.1264 46.48 40.0304 46.264 39.0064 45.832C37.9984 45.384 37.1104 44.768 36.3424 43.984C35.5744 43.2 34.9664 42.296 34.5184 41.272C34.0864 40.232 33.8704 39.128 33.8704 37.96C33.8704 36.744 34.0784 35.608 34.4944 34.552C34.9264 33.496 35.5184 32.568 36.2704 31.768C37.0224 30.968 37.8944 30.344 38.8864 29.896C39.8944 29.448 40.9664 29.224 42.1024 29.224C43.2704 29.224 44.3584 29.448 45.3664 29.896C46.3904 30.328 47.2864 30.936 48.0544 31.72C48.8224 32.504 49.4224 33.424 49.8544 34.48C50.2864 35.52 50.5024 36.648 50.5024 37.864C50.5024 39.048 50.2864 40.16 49.8544 41.2C49.4384 42.24 48.8464 43.16 48.0784 43.96C47.3264 44.744 46.4544 45.36 45.4624 45.808C44.4864 46.256 43.4304 46.48 42.2944 46.48ZM42.1744 42.088C42.7184 42.088 43.2304 41.984 43.7104 41.776C44.1904 41.552 44.6064 41.256 44.9584 40.888C45.3264 40.504 45.6064 40.056 45.7984 39.544C46.0064 39.016 46.1104 38.456 46.1104 37.864C46.1104 37.272 46.0064 36.72 45.7984 36.208C45.5904 35.696 45.3024 35.248 44.9344 34.864C44.5824 34.464 44.1664 34.16 43.6864 33.952C43.2224 33.728 42.7264 33.616 42.1984 33.616C41.6544 33.616 41.1424 33.728 40.6624 33.952C40.1984 34.16 39.7824 34.464 39.4144 34.864C39.0624 35.248 38.7824 35.696 38.5744 36.208C38.3664 36.72 38.2624 37.272 38.2624 37.864C38.2624 38.44 38.3664 38.984 38.5744 39.496C38.7824 40.008 39.0624 40.464 39.4144 40.864C39.7824 41.248 40.1984 41.552 40.6624 41.776C41.1424 41.984 41.6464 42.088 42.1744 42.088ZM65.9513 46.192C65.2313 46.192 64.7193 46.088 64.4153 45.88C64.1113 45.656 63.9273 45.376 63.8633 45.04C63.7993 44.688 63.7673 44.336 63.7673 43.984V31.6C63.7673 31.248 63.7993 30.904 63.8633 30.568C63.9273 30.232 64.1113 29.96 64.4153 29.752C64.7193 29.528 65.2393 29.416 65.9753 29.416C66.7113 29.416 67.2233 29.528 67.5113 29.752C67.8153 29.96 67.9993 30.232 68.0633 30.568C68.1273 30.904 68.1593 31.256 68.1593 31.624V44.008C68.1593 44.36 68.1273 44.704 68.0633 45.04C67.9993 45.376 67.8153 45.656 67.5113 45.88C67.2073 46.088 66.6873 46.192 65.9513 46.192ZM56.0873 46.192C55.3673 46.192 54.8553 46.088 54.5513 45.88C54.2473 45.656 54.0633 45.376 53.9993 45.04C53.9353 44.688 53.9033 44.336 53.9033 43.984V31.6C53.9033 31.248 53.9353 30.904 53.9993 30.568C54.0633 30.232 54.2473 29.96 54.5513 29.752C54.8553 29.528 55.3753 29.416 56.1113 29.416C56.8473 29.416 57.3593 29.528 57.6473 29.752C57.9513 29.96 58.1353 30.232 58.1993 30.568C58.2633 30.904 58.2953 31.256 58.2953 31.624V44.008C58.2953 44.36 58.2633 44.704 58.1993 45.04C58.1353 45.376 57.9513 45.656 57.6473 45.88C57.3433 46.088 56.8233 46.192 56.0873 46.192ZM57.9113 39.688V35.944H64.1513V39.688H57.9113ZM3.024 75.192C2.304 75.192 1.792 75.088 1.488 74.88C1.184 74.656 1 74.376 0.936 74.04C0.872 73.688 0.84 73.336 0.84 72.984V60.6C0.84 60.248 0.872 59.904 0.936 59.568C1 59.232 1.184 58.96 1.488 58.752C1.792 58.528 2.312 58.416 3.048 58.416H7.824C8.432 58.416 9.088 58.544 9.792 58.8C10.496 59.04 11.16 59.416 11.784 59.928C12.424 60.44 12.944 61.08 13.344 61.848C13.744 62.616 13.944 63.528 13.944 64.584C13.944 65.624 13.744 66.528 13.344 67.296C12.944 68.064 12.424 68.704 11.784 69.216C11.16 69.712 10.496 70.088 9.792 70.344C9.088 70.584 8.424 70.704 7.8 70.704H5.232V73.008C5.232 73.36 5.2 73.704 5.136 74.04C5.072 74.376 4.888 74.656 4.584 74.88C4.28 75.088 3.76 75.192 3.024 75.192ZM5.232 66.312H7.824C8.032 66.312 8.272 66.264 8.544 66.168C8.816 66.056 9.056 65.872 9.264 65.616C9.472 65.36 9.576 65.008 9.576 64.56C9.576 64.224 9.496 63.928 9.336 63.672C9.176 63.4 8.96 63.192 8.688 63.048C8.432 62.888 8.136 62.808 7.8 62.808H5.232V66.312ZM22.4814 75.216C21.7454 75.216 21.0974 75.184 20.5374 75.12C19.9934 75.056 19.5294 74.928 19.1454 74.736C18.7614 74.544 18.4494 74.272 18.2094 73.92C17.9694 73.552 17.7934 73.08 17.6814 72.504C17.5694 71.912 17.5134 71.176 17.5134 70.296V59.664C17.5134 59.296 17.5454 58.952 17.6094 58.632C17.6734 58.296 17.8574 58.024 18.1614 57.816C18.4654 57.592 18.9774 57.48 19.6974 57.48C20.4174 57.48 20.9214 57.592 21.2094 57.816C21.5134 58.024 21.6974 58.296 21.7614 58.632C21.8254 58.968 21.8574 59.32 21.8574 59.688V70.032C21.8574 70.272 21.8574 70.464 21.8574 70.608C21.8734 70.736 21.8974 70.832 21.9294 70.896C21.9774 70.96 22.0414 71 22.1214 71.016C22.2174 71.016 22.3454 71.016 22.5054 71.016C22.7134 71.016 22.9294 71.048 23.1534 71.112C23.3934 71.16 23.5934 71.328 23.7534 71.616C23.9294 71.888 24.0174 72.368 24.0174 73.056C24.0174 73.776 23.9294 74.288 23.7534 74.592C23.5934 74.896 23.3934 75.072 23.1534 75.12C22.9134 75.184 22.6894 75.216 22.4814 75.216ZM36.9906 75.168C36.2706 75.168 35.7346 75.048 35.3826 74.808C35.0466 74.568 34.8866 74.296 34.9026 73.992H35.2386C35.1586 74.104 34.9986 74.256 34.7586 74.448C34.5346 74.624 34.2306 74.792 33.8466 74.952C33.4626 75.096 32.9906 75.168 32.4306 75.168C31.7106 75.168 31.0146 75.008 30.3426 74.688C29.6866 74.352 29.0946 73.896 28.5666 73.32C28.0546 72.744 27.6466 72.096 27.3426 71.376C27.0386 70.64 26.8866 69.872 26.8866 69.072C26.8866 68.288 27.0386 67.536 27.3426 66.816C27.6466 66.096 28.0626 65.456 28.5906 64.896C29.1186 64.32 29.7106 63.872 30.3666 63.552C31.0226 63.216 31.7106 63.048 32.4306 63.048C32.9746 63.048 33.4306 63.128 33.7986 63.288C34.1826 63.448 34.4866 63.624 34.7106 63.816C34.9506 64.008 35.1106 64.168 35.1906 64.296H34.9266C34.9106 63.896 35.0706 63.584 35.4066 63.36C35.7586 63.136 36.2946 63.024 37.0146 63.024C37.7346 63.024 38.2386 63.136 38.5266 63.36C38.8306 63.568 39.0146 63.84 39.0786 64.176C39.1426 64.512 39.1746 64.856 39.1746 65.208V73.008C39.1746 73.36 39.1426 73.704 39.0786 74.04C39.0146 74.376 38.8306 74.648 38.5266 74.856C38.2386 75.064 37.7266 75.168 36.9906 75.168ZM33.0306 70.824C33.3346 70.824 33.6066 70.744 33.8466 70.584C34.1026 70.424 34.3026 70.216 34.4466 69.96C34.6066 69.688 34.6866 69.4 34.6866 69.096C34.6866 68.776 34.6066 68.488 34.4466 68.232C34.3026 67.976 34.1026 67.768 33.8466 67.608C33.5906 67.448 33.3026 67.368 32.9826 67.368C32.6626 67.368 32.3666 67.448 32.0946 67.608C31.8386 67.768 31.6306 67.984 31.4706 68.256C31.3106 68.512 31.2306 68.8 31.2306 69.12C31.2306 69.424 31.3106 69.704 31.4706 69.96C31.6466 70.216 31.8706 70.424 32.1426 70.584C32.4146 70.744 32.7106 70.824 33.0306 70.824ZM49.1739 75.336C48.5179 75.336 47.8219 75.208 47.0859 74.952C46.3659 74.68 45.6859 74.288 45.0459 73.776C44.4059 73.248 43.8859 72.592 43.4859 71.808C43.0859 71.024 42.8859 70.112 42.8859 69.072C42.8859 68.048 43.0859 67.152 43.4859 66.384C43.8859 65.6 44.3979 64.952 45.0219 64.44C45.6619 63.928 46.3419 63.544 47.0619 63.288C47.7979 63.016 48.4859 62.88 49.1259 62.88C49.7339 62.88 50.2619 62.944 50.7099 63.072C51.1579 63.2 51.5259 63.344 51.8139 63.504C52.1019 63.648 52.3099 63.76 52.4379 63.84C52.7579 64.032 53.0539 64.256 53.3259 64.512C53.6139 64.752 53.7579 65.08 53.7579 65.496C53.7579 65.704 53.7179 65.92 53.6379 66.144C53.5579 66.352 53.4299 66.592 53.2539 66.864C52.6779 67.744 52.1019 68.184 51.5259 68.184C51.2699 68.184 51.0459 68.144 50.8539 68.064C50.6619 67.968 50.4859 67.864 50.3259 67.752C50.1659 67.64 49.9899 67.544 49.7979 67.464C49.6219 67.368 49.3979 67.32 49.1259 67.32C48.8059 67.32 48.5099 67.4 48.2379 67.56C47.9659 67.72 47.7499 67.936 47.5899 68.208C47.4299 68.464 47.3499 68.76 47.3499 69.096C47.3499 69.432 47.4299 69.736 47.5899 70.008C47.7499 70.28 47.9579 70.496 48.2139 70.656C48.4859 70.816 48.7739 70.896 49.0779 70.896C49.3019 70.896 49.4859 70.872 49.6299 70.824C49.7899 70.776 49.9099 70.728 49.9899 70.68C50.0699 70.616 50.1179 70.584 50.1339 70.584C50.3579 70.456 50.5659 70.336 50.7579 70.224C50.9659 70.112 51.1739 70.056 51.3819 70.056C51.6539 70.056 51.9339 70.16 52.2219 70.368C52.5099 70.56 52.8299 70.88 53.1819 71.328C53.5179 71.744 53.7019 72.136 53.7339 72.504C53.7819 72.856 53.6939 73.192 53.4699 73.512C53.2459 73.816 52.9019 74.112 52.4379 74.4C52.3899 74.432 52.2219 74.528 51.9339 74.688C51.6619 74.832 51.2939 74.976 50.8299 75.12C50.3659 75.264 49.8139 75.336 49.1739 75.336ZM63.6682 75.48C62.4682 75.48 61.4522 75.288 60.6202 74.904C59.7882 74.504 59.1162 73.992 58.6042 73.368C58.0922 72.728 57.7162 72.04 57.4762 71.304C57.2362 70.568 57.1162 69.856 57.1162 69.168C57.1162 67.904 57.3962 66.792 57.9562 65.832C58.5162 64.872 59.2922 64.12 60.2842 63.576C61.2762 63.032 62.4122 62.76 63.6922 62.76C64.6842 62.76 65.5322 62.92 66.2362 63.24C66.9402 63.56 67.5082 63.968 67.9402 64.464C68.3882 64.96 68.7162 65.488 68.9242 66.048C69.1322 66.608 69.2362 67.128 69.2362 67.608C69.2362 68.52 69.0122 69.216 68.5642 69.696C68.1162 70.176 67.5402 70.416 66.8362 70.416H61.7242C61.7882 70.672 61.9162 70.896 62.1082 71.088C62.3162 71.264 62.5722 71.408 62.8762 71.52C63.1802 71.616 63.5082 71.664 63.8602 71.664C64.2122 71.664 64.5242 71.648 64.7962 71.616C65.0682 71.568 65.3002 71.512 65.4922 71.448C65.7002 71.384 65.8842 71.32 66.0442 71.256C66.2202 71.192 66.3722 71.144 66.5002 71.112C66.6442 71.064 66.7802 71.04 66.9082 71.04C67.1962 71.04 67.4602 71.136 67.7002 71.328C67.9402 71.52 68.1562 71.808 68.3482 72.192C68.4602 72.4 68.5402 72.6 68.5882 72.792C68.6362 72.968 68.6602 73.136 68.6602 73.296C68.6602 73.776 68.4602 74.176 68.0602 74.496C67.6762 74.816 67.1162 75.056 66.3802 75.216C65.6442 75.392 64.7402 75.48 63.6682 75.48ZM61.7242 68.16H64.4122C64.6362 68.16 64.7962 68.112 64.8922 68.016C65.0042 67.92 65.0602 67.776 65.0602 67.584C65.0602 67.376 64.9962 67.2 64.8682 67.056C64.7562 66.912 64.5962 66.808 64.3882 66.744C64.1802 66.664 63.9322 66.624 63.6442 66.624C63.2602 66.624 62.9242 66.704 62.6362 66.864C62.3482 67.008 62.1242 67.2 61.9642 67.44C61.8202 67.664 61.7402 67.904 61.7242 68.16Z" fill="#FF9C77"/>
</svg>
