<svg width="145" height="37" viewBox="0 0 145 37" fill="none" xmlns="http://www.w3.org/2000/svg">
<g clip-path="url(#clip0_140_59)">
<path d="M0 9.9619H5.79634V27.0381H0V37H26.0907V27.0381H20.2944V9.9619H26.0907V0H0V9.9619Z" fill="white"/>
<path d="M49.9941 11.9062H46.5538V27.2464H49.9941V11.9062Z" fill="white"/>
<path d="M57.5153 11.9062H54.0799V27.2464H65.3064V24.1765H57.5153V11.9062Z" fill="white"/>
<path d="M71.2617 11.9062H67.8263V27.2464H79.0528V24.1765H71.2617V11.9062Z" fill="white"/>
<path d="M85.0901 11.9062H81.6498V27.2464H85.0901V11.9062Z" fill="white"/>
<path d="M99.6652 21.3526L92.3415 11.9062H89.1711V27.2464H92.5631V17.4927L100.133 27.2464H103.057V11.9062H99.6652V21.3526Z" fill="white"/>
<path d="M114.635 11.6411C109.812 11.6411 106.31 15.2125 106.31 19.5737V19.6163C106.31 23.9776 109.769 27.5064 114.592 27.5064C119.415 27.5064 122.918 23.935 122.918 19.5737V19.5312C122.918 15.1699 119.459 11.6411 114.635 11.6411ZM119.324 19.621C119.324 22.2511 117.406 24.3986 114.635 24.3986C111.865 24.3986 109.904 22.2085 109.904 19.5785V19.5359C109.904 16.9059 111.826 14.7583 114.592 14.7583C117.358 14.7583 119.324 16.9485 119.324 19.5785V19.621Z" fill="white"/>
<path d="M129.688 11.9062H126.247V27.2464H129.688V11.9062Z" fill="white"/>
<path d="M140.047 18.065C137.344 17.3838 136.674 17.0575 136.674 16.0499V16.0073C136.674 15.2647 137.368 14.6687 138.683 14.6687C139.999 14.6687 141.362 15.2363 142.745 16.1824L144.533 13.6422C142.947 12.3934 141.006 11.6934 138.727 11.6934C135.532 11.6934 133.258 13.5334 133.258 16.3195V16.3621C133.258 19.4084 135.291 20.2646 138.438 21.0545C141.049 21.712 141.584 22.1519 141.584 23.0034V23.046C141.584 23.9447 140.736 24.4934 139.329 24.4934C137.541 24.4934 136.072 23.7697 134.665 22.6297L132.632 25.0185C134.506 26.6646 136.896 27.4735 139.261 27.4735C142.634 27.4735 145 25.7658 145 22.7196V22.677C145 20.0044 143.212 18.8833 140.042 18.0745L140.047 18.065Z" fill="white"/>
<path d="M50.0037 4.89086C50.0037 5.84164 49.5074 6.32885 48.6883 6.32885C47.8692 6.32885 47.3729 5.82271 47.3729 4.84828V1.46143H46.0286V4.88139C46.0286 6.64578 47.0308 7.53979 48.669 7.53979C50.3072 7.53979 51.3431 6.65051 51.3431 4.83409V1.46143H49.9989V4.89086H50.0037Z" fill="white"/>
<path d="M56.5179 3.64207L59.4715 7.44992H60.6134V1.46143H59.2884V5.14629L56.4312 1.46143H55.1929V7.44992H56.5179V3.64207Z" fill="white"/>
<path d="M65.899 1.46143H64.5547V7.44992H65.899V1.46143Z" fill="white"/>
<path d="M72.8566 7.49249L75.3235 1.46143H73.878L72.2832 5.67608L70.6884 1.46143H69.2092L71.6713 7.49249H72.8566Z" fill="white"/>
<path d="M83.2639 6.27682H79.9538V5.01857H82.8303V3.84547H79.9538V2.6298H83.2206V1.46143H78.6191V7.44992H83.2639V6.27682Z" fill="white"/>
<path d="M90.6503 7.44992H92.221L90.7322 5.31185C91.5079 5.02803 92.0379 4.42256 92.0379 3.45759V3.43867C92.0379 2.20881 91.1755 1.46143 89.7396 1.46143H86.9499V7.44992H88.2942V5.53417H89.3494L90.6551 7.44992H90.6503ZM88.2894 2.64872H89.624C90.2793 2.64872 90.6792 2.94199 90.6792 3.50489V3.52381C90.6792 4.02995 90.3034 4.37053 89.6529 4.37053H88.2942V2.64872H88.2894Z" fill="white"/>
<path d="M97.8199 6.37161C97.1212 6.37161 96.5478 6.08779 95.9986 5.64315L95.2084 6.57501C95.9407 7.21832 96.8707 7.53525 97.7958 7.53525C99.1111 7.53525 100.036 6.86828 100.036 5.68099V5.66207C100.036 4.61668 99.3376 4.1815 98.1041 3.86458C97.0489 3.59968 96.7888 3.47196 96.7888 3.07935V3.06043C96.7888 2.77189 97.0586 2.54011 97.5741 2.54011C98.0897 2.54011 98.6197 2.76243 99.1593 3.13139L99.858 2.13803C99.2364 1.65082 98.48 1.37646 97.5934 1.37646C96.3455 1.37646 95.4589 2.09546 95.4589 3.18342V3.20234C95.4589 4.38963 96.2491 4.72548 97.4826 5.03295C98.504 5.28838 98.7112 5.45867 98.7112 5.79452V5.81344C98.7112 6.16348 98.3788 6.37634 97.8295 6.37634L97.8199 6.37161Z" fill="white"/>
<path d="M104.999 1.46143H103.655V7.44992H104.999V1.46143Z" fill="white"/>
<path d="M110.207 7.44992H111.547V2.67237H113.407V1.46143H108.352V2.67237H110.207V7.44992Z" fill="white"/>
<path d="M118.76 7.44992H120.104V5.06114L122.446 1.46143H120.923L119.439 3.86439L117.984 1.46143H116.418L118.76 5.08953V7.44992Z" fill="white"/>
<path d="M133.403 7.54965C135.286 7.54965 136.655 6.15423 136.655 4.45134V4.43242C136.655 2.72953 135.306 1.35303 133.422 1.35303C131.538 1.35303 130.169 2.74845 130.169 4.45134V4.47026C130.169 6.17315 131.519 7.54965 133.403 7.54965ZM131.572 4.43715C131.572 3.41069 132.323 2.57343 133.403 2.57343C134.482 2.57343 135.248 3.42961 135.248 4.45607V4.47499C135.248 5.50145 134.496 6.33871 133.417 6.33871C132.338 6.33871 131.572 5.48253 131.572 4.45607V4.43715Z" fill="white"/>
<path d="M141.589 5.1321H144.499V3.93062H141.589V2.65818H144.894V1.46143H140.249V7.44992H141.589V5.1321Z" fill="white"/>
<path d="M49.1123 33.9252C49.1123 34.5401 48.7894 34.8523 48.2642 34.8523C47.7391 34.8523 47.4162 34.5259 47.4162 33.8968V31.7114H46.549V33.9205C46.549 35.0557 47.1946 35.6375 48.2546 35.6375C49.3146 35.6375 49.9795 35.0652 49.9795 33.8921V31.7114H49.1123V33.9252Z" fill="white"/>
<path d="M56.4842 32.9937V32.9842C56.4842 32.62 56.3637 32.3172 56.1469 32.0996C55.8867 31.8442 55.5012 31.707 55.0001 31.707H53.1981V35.5716H54.0654V34.337H54.7448L55.588 35.5716H56.5998L55.6361 34.1904C56.1372 34.0059 56.4793 33.6181 56.4793 32.9937H56.4842ZM55.6072 33.0362C55.6072 33.3626 55.3663 33.5849 54.9423 33.5849H54.0654V32.4733H54.9279C55.3519 32.4733 55.6072 32.6625 55.6072 33.0268V33.0362Z" fill="white"/>
<path d="M62.213 33.5515C62.4925 33.3954 62.7286 33.1542 62.7286 32.719V32.7095C62.7286 32.4446 62.6371 32.227 62.4588 32.052C62.2323 31.8297 61.8806 31.7114 61.4277 31.7114H59.6016V35.576H61.4759C62.3624 35.576 62.9502 35.2213 62.9502 34.5165V34.507C62.9502 33.9867 62.6708 33.7265 62.213 33.5562V33.5515ZM60.4448 32.4541H61.2976C61.6638 32.4541 61.8661 32.596 61.8661 32.8514V32.8609C61.8661 33.1494 61.6252 33.2677 61.2398 33.2677H60.4399V32.4493L60.4448 32.4541ZM62.0878 34.4077C62.0878 34.6962 61.8565 34.8287 61.4759 34.8287H60.4448V33.9772H61.4469C61.8902 33.9772 62.0878 34.138 62.0878 34.3982V34.4077Z" fill="white"/>
<path d="M67.3541 31.6831L65.6677 35.5761H66.5495L66.9108 34.7105H68.5779L68.9393 35.5761H69.8451L68.1588 31.6831H67.3589H67.3541ZM67.2192 33.9584L67.7444 32.7048L68.2696 33.9584H67.224H67.2192Z" fill="white"/>
<path d="M75.4295 34.0911L73.5841 31.707H72.7891V35.5764H73.6419V33.1166L75.5499 35.5764H76.2871V31.707H75.4295V34.0911Z" fill="white"/>
<path d="M80.9175 31.6831L79.2311 35.5761H80.1128L80.4742 34.7105H82.1413L82.5027 35.5761H83.4085L81.7221 31.6831H80.9223H80.9175ZM80.7826 33.9584L81.3077 32.7048L81.8329 33.9584H80.7874H80.7826Z" fill="white"/>
<path d="M87.7835 33.4619H86.0489V34.2661H87.7835V33.4619Z" fill="white"/>
<path d="M92.5246 34.8573C91.85 34.8573 91.3826 34.3039 91.3826 33.6417V33.6322C91.3826 32.97 91.8596 32.4307 92.5246 32.4307C92.9197 32.4307 93.228 32.5963 93.5316 32.8659L94.0808 32.2415C93.7147 31.8868 93.2714 31.6455 92.5294 31.6455C91.32 31.6455 90.4768 32.5443 90.4768 33.6464V33.6559C90.4768 34.7675 91.3393 35.6426 92.4956 35.6426C93.2569 35.6426 93.705 35.3777 94.1098 34.952L93.5605 34.4032C93.2521 34.6776 92.9775 34.8573 92.5246 34.8573Z" fill="white"/>
<path d="M99.6026 33.2396H98.0077V31.707H97.1404V35.5764H98.0077V34.0249H99.6026V35.5764H100.47V31.707H99.6026V33.2396Z" fill="white"/>
<path d="M105.105 31.6831L103.419 35.5761H104.3L104.662 34.7105H106.329L106.69 35.5761H107.596L105.91 31.6831H105.11H105.105ZM104.97 33.9584L105.495 32.7048L106.02 33.9584H104.975H104.97Z" fill="white"/>
<path d="M112.506 33.3437L111.47 31.707H110.535V35.5764H111.383V33.0693L112.482 34.7013H112.506L113.614 33.0504V35.5764H114.472V31.707H113.542L112.506 33.3437Z" fill="white"/>
<path d="M119.367 31.707H117.758V35.5716H118.625V34.4127H119.285C120.167 34.4127 120.875 33.9492 120.875 33.0552V33.0457C120.875 32.2557 120.307 31.707 119.367 31.707ZM119.998 33.0693C119.998 33.4005 119.743 33.6559 119.314 33.6559H118.63V32.4733H119.3C119.733 32.4733 120.003 32.6767 120.003 33.0599V33.0693H119.998Z" fill="white"/>
<path d="M124.812 31.6831L123.125 35.5761H124.007L124.368 34.7105H126.035L126.397 35.5761H127.303L125.616 31.6831H124.816H124.812ZM124.677 33.9584L125.202 32.7048L125.727 33.9584H124.681H124.677Z" fill="white"/>
<path d="M131.148 31.707H130.28V35.5716H131.148V31.707Z" fill="white"/>
<path d="M136.342 34.0816H137.214V34.635C136.992 34.7911 136.713 34.8668 136.399 34.8668C135.701 34.8668 135.209 34.3465 135.209 33.6417V33.6322C135.209 32.9747 135.71 32.4307 136.342 32.4307C136.799 32.4307 137.069 32.5726 137.373 32.8233L137.917 32.1753C137.508 31.8347 137.079 31.6455 136.371 31.6455C135.18 31.6455 134.308 32.5443 134.308 33.6464V33.6559C134.308 34.8006 135.152 35.6426 136.38 35.6426C137.098 35.6426 137.657 35.3682 138.062 35.0276V33.3484H136.351V34.0816H136.342Z" fill="white"/>
<path d="M143.863 34.0911L142.022 31.707H141.223V35.5764H142.075V33.1166L143.983 35.5764H144.721V31.707H143.863V34.0911Z" fill="white"/>
</g>
<defs>
<clipPath id="clip0_140_59">
<rect width="145" height="37" fill="white"/>
</clipPath>
</defs>
</svg>
